M48
; DRILL file {KiCad (6.0.4-0)} date Sunday, August 06, 2023 at 12:43:51 PM
; FORMAT={-:-/ absolute / inch / decimal}
; #@! TF.CreationDate,2023-08-06T12:43:51-07:00
; #@! TF.GenerationSoftware,Kicad,Pcbnew,(6.0.4-0)
; #@! TF.FileFunction,Plated,1,6,PTH
FMAT,2
INCH
; #@! TA.AperFunction,Plated,PTH,ViaDrill
T1C0.0085
; #@! TA.AperFunction,Plated,PTH,ViaDrill
T2C0.0157
; #@! TA.AperFunction,Plated,PTH,ComponentDrill
T3C0.0315
; #@! TA.AperFunction,Plated,PTH,ComponentDrill
T4C0.0394
; #@! TA.AperFunction,Plated,PTH,ComponentDrill
T5C0.0400
; #@! TA.AperFunction,Plated,PTH,ComponentDrill
T6C0.0402
; #@! TA.AperFunction,Plated,PTH,ComponentDrill
T7C0.0512
; #@! TA.AperFunction,Plated,PTH,ComponentDrill
T8C0.1300
%
G90
G05
T1
X4.5425Y-3.9693
X4.5858Y-3.9693
X4.637Y-3.9685
X4.6799Y-3.9685
X4.8748Y-3.7252
X4.8843Y-3.6846
X4.8886Y-3.9657
X4.9319Y-3.9661
X4.9854Y-3.9634
X5.0256Y-3.9634
X5.2364Y-3.4447
X5.2656Y-3.4155
X5.2952Y-3.5035
X5.3244Y-3.4743
X5.648Y-3.9618
X5.6992Y-3.9614
X5.748Y-4.1339
X5.7894Y-4.1339
X6.0772Y-3.7205
X6.0906Y-3.9614
X6.1224Y-3.7205
X6.1406Y-3.9614
T2
X4.1945Y-3.3705
X4.3622Y-3.2898
X4.4882Y-3.5669
X4.6142Y-3.4433
X4.7181Y-3.9331
X4.7398Y-3.3114
X4.8157Y-3.9331
X4.8996Y-4.3709
X4.9024Y-4.2587
X4.9417Y-3.4583
X4.9571Y-3.1555
X5.0049Y-3.6585
X5.0634Y-3.2567
X5.5346Y-3.4181
X5.5346Y-3.5882
X5.7472Y-3.9331
X5.8205Y-3.9327
X5.8236Y-3.2587
X5.8236Y-3.4539
X5.8882Y-3.9327
X5.9551Y-3.9327
X6.0303Y-3.9327
X6.0866Y-4.3567
X6.087Y-4.2594
X6.3945Y-3.7543
X6.5902Y-3.7358
T3
X4.4262Y-3.7685
X4.4262Y-3.8484
X4.4262Y-4.0059
X4.4262Y-4.1728
X5.127Y-3.7685
X5.127Y-3.8484
X5.127Y-4.0059
X5.127Y-4.1335
X5.5364Y-3.7705
X5.5364Y-3.8504
X5.5364Y-4.0079
X5.5364Y-4.1748
X6.2372Y-3.7705
X6.2372Y-3.8504
X6.2372Y-4.0079
X6.2372Y-4.1354
T4
X3.8791Y-3.2362
X3.9791Y-3.2362
X4.0791Y-3.2362
T5
X4.5194Y-2.8743
X4.5194Y-3.0743
X4.5734Y-2.9743
X4.6274Y-2.8743
X4.6274Y-3.0743
X4.6814Y-2.9743
X4.7364Y-2.8743
X4.7364Y-3.0743
X4.7904Y-2.9743
X4.8454Y-2.8743
X4.8454Y-3.0743
X4.8994Y-2.9743
X4.9534Y-2.8743
X4.9534Y-3.0743
X5.0074Y-2.9743
X5.0624Y-2.8743
X5.0624Y-3.0743
X5.1164Y-2.9743
X5.1714Y-2.8743
X5.1714Y-3.0743
X5.2254Y-2.9743
X5.2794Y-2.8743
X5.2794Y-3.0743
X5.3334Y-2.9743
X5.3884Y-2.8743
X5.3884Y-3.0743
X5.4424Y-2.9743
X5.4974Y-2.8743
X5.4974Y-3.0743
X5.5514Y-2.9743
X5.6054Y-2.8743
X5.6054Y-3.0743
X5.6594Y-2.9743
X5.7144Y-2.8743
X5.7144Y-3.0743
X5.7684Y-2.9743
X5.8234Y-2.8743
X5.8234Y-3.0743
X5.8774Y-2.9743
X5.9314Y-2.8743
X5.9314Y-3.0743
X5.9864Y-2.9743
X6.0404Y-2.8743
X6.0404Y-3.0743
X6.0944Y-2.9743
X6.1494Y-2.8743
X6.1494Y-3.0743
X6.2034Y-2.9743
X6.2574Y-2.8743
X6.2574Y-3.0743
T6
X3.8778Y-3.4385
X3.8778Y-3.5385
X3.8778Y-3.6385
X3.8778Y-3.7385
X3.8778Y-3.8385
X3.9778Y-3.4385
X3.9778Y-3.5385
X3.9778Y-3.6385
X3.9778Y-3.7385
X3.9778Y-3.8385
X6.677Y-3.8686
X6.677Y-3.9686
X6.677Y-4.0686
X6.677Y-4.1686
X6.677Y-4.2686
X6.6951Y-3.2939
X6.6951Y-3.3939
X6.6951Y-3.4939
X6.6951Y-3.5939
X6.777Y-3.8686
X6.777Y-3.9686
X6.777Y-4.0686
X6.777Y-4.1686
X6.777Y-4.2686
X6.7951Y-3.2939
X6.7951Y-3.3939
X6.7951Y-3.4939
X6.7951Y-3.5939
T7
X7.0709Y-4.1819
X7.0709Y-4.3819
X7.0736Y-3.765
X7.0736Y-3.965
X7.0756Y-3.3421
X7.0756Y-3.5421
X7.0776Y-2.9173
X7.0776Y-3.1173
T8
X4.1854Y-2.9743
X6.5914Y-2.9743
T0
M30
