%TF.GenerationSoftware,KiCad,Pcbnew,(6.0.4-0)*%
%TF.CreationDate,2023-08-06T12:43:48-07:00*%
%TF.ProjectId,CableAdapterBoard,4361626c-6541-4646-9170-746572426f61,rev?*%
%TF.SameCoordinates,Original*%
%TF.FileFunction,Legend,Bot*%
%TF.FilePolarity,Positive*%
%FSLAX46Y46*%
G04 Gerber Fmt 4.6, Leading zero omitted, Abs format (unit mm)*
G04 Created by KiCad (PCBNEW (6.0.4-0)) date 2023-08-06 12:43:48*
%MOMM*%
%LPD*%
G01*
G04 APERTURE LIST*
%ADD10C,0.100000*%
%ADD11C,0.150000*%
%ADD12C,0.300000*%
%ADD13C,0.400000*%
%TA.AperFunction,Profile*%
%ADD14C,0.100000*%
%TD*%
%ADD15C,0.125000*%
G04 APERTURE END LIST*
D10*
D11*
X177002200Y-166007200D02*
X177002200Y-198007200D01*
X285002200Y-198007200D01*
X285002200Y-166007200D01*
X177002200Y-166007200D01*
D10*
D11*
X10000000Y-10000000D02*
X10000000Y-200007200D01*
X287002200Y-200007200D01*
X287002200Y-10000000D01*
X10000000Y-10000000D01*
D10*
D11*
X12000000Y-12000000D02*
X12000000Y-198007200D01*
X285002200Y-198007200D01*
X285002200Y-12000000D01*
X12000000Y-12000000D01*
D10*
D11*
X60000000Y-12000000D02*
X60000000Y-10000000D01*
D10*
D11*
X110000000Y-12000000D02*
X110000000Y-10000000D01*
D10*
D11*
X160000000Y-12000000D02*
X160000000Y-10000000D01*
D10*
D11*
X210000000Y-12000000D02*
X210000000Y-10000000D01*
D10*
D11*
X260000000Y-12000000D02*
X260000000Y-10000000D01*
D10*
D11*
X36065476Y-11588095D02*
X35322619Y-11588095D01*
X35694047Y-11588095D02*
X35694047Y-10288095D01*
X35570238Y-10473809D01*
X35446428Y-10597619D01*
X35322619Y-10659523D01*
D10*
D11*
X85322619Y-10411904D02*
X85384523Y-10350000D01*
X85508333Y-10288095D01*
X85817857Y-10288095D01*
X85941666Y-10350000D01*
X86003571Y-10411904D01*
X86065476Y-10535714D01*
X86065476Y-10659523D01*
X86003571Y-10845238D01*
X85260714Y-11588095D01*
X86065476Y-11588095D01*
D10*
D11*
X135260714Y-10288095D02*
X136065476Y-10288095D01*
X135632142Y-10783333D01*
X135817857Y-10783333D01*
X135941666Y-10845238D01*
X136003571Y-10907142D01*
X136065476Y-11030952D01*
X136065476Y-11340476D01*
X136003571Y-11464285D01*
X135941666Y-11526190D01*
X135817857Y-11588095D01*
X135446428Y-11588095D01*
X135322619Y-11526190D01*
X135260714Y-11464285D01*
D10*
D11*
X185941666Y-10721428D02*
X185941666Y-11588095D01*
X185632142Y-10226190D02*
X185322619Y-11154761D01*
X186127380Y-11154761D01*
D10*
D11*
X236003571Y-10288095D02*
X235384523Y-10288095D01*
X235322619Y-10907142D01*
X235384523Y-10845238D01*
X235508333Y-10783333D01*
X235817857Y-10783333D01*
X235941666Y-10845238D01*
X236003571Y-10907142D01*
X236065476Y-11030952D01*
X236065476Y-11340476D01*
X236003571Y-11464285D01*
X235941666Y-11526190D01*
X235817857Y-11588095D01*
X235508333Y-11588095D01*
X235384523Y-11526190D01*
X235322619Y-11464285D01*
D10*
D11*
X285941666Y-10288095D02*
X285694047Y-10288095D01*
X285570238Y-10350000D01*
X285508333Y-10411904D01*
X285384523Y-10597619D01*
X285322619Y-10845238D01*
X285322619Y-11340476D01*
X285384523Y-11464285D01*
X285446428Y-11526190D01*
X285570238Y-11588095D01*
X285817857Y-11588095D01*
X285941666Y-11526190D01*
X286003571Y-11464285D01*
X286065476Y-11340476D01*
X286065476Y-11030952D01*
X286003571Y-10907142D01*
X285941666Y-10845238D01*
X285817857Y-10783333D01*
X285570238Y-10783333D01*
X285446428Y-10845238D01*
X285384523Y-10907142D01*
X285322619Y-11030952D01*
D10*
D11*
X60000000Y-198007200D02*
X60000000Y-200007200D01*
D10*
D11*
X110000000Y-198007200D02*
X110000000Y-200007200D01*
D10*
D11*
X160000000Y-198007200D02*
X160000000Y-200007200D01*
D10*
D11*
X210000000Y-198007200D02*
X210000000Y-200007200D01*
D10*
D11*
X260000000Y-198007200D02*
X260000000Y-200007200D01*
D10*
D11*
X36065476Y-199595295D02*
X35322619Y-199595295D01*
X35694047Y-199595295D02*
X35694047Y-198295295D01*
X35570238Y-198481009D01*
X35446428Y-198604819D01*
X35322619Y-198666723D01*
D10*
D11*
X85322619Y-198419104D02*
X85384523Y-198357200D01*
X85508333Y-198295295D01*
X85817857Y-198295295D01*
X85941666Y-198357200D01*
X86003571Y-198419104D01*
X86065476Y-198542914D01*
X86065476Y-198666723D01*
X86003571Y-198852438D01*
X85260714Y-199595295D01*
X86065476Y-199595295D01*
D10*
D11*
X135260714Y-198295295D02*
X136065476Y-198295295D01*
X135632142Y-198790533D01*
X135817857Y-198790533D01*
X135941666Y-198852438D01*
X136003571Y-198914342D01*
X136065476Y-199038152D01*
X136065476Y-199347676D01*
X136003571Y-199471485D01*
X135941666Y-199533390D01*
X135817857Y-199595295D01*
X135446428Y-199595295D01*
X135322619Y-199533390D01*
X135260714Y-199471485D01*
D10*
D11*
X185941666Y-198728628D02*
X185941666Y-199595295D01*
X185632142Y-198233390D02*
X185322619Y-199161961D01*
X186127380Y-199161961D01*
D10*
D11*
X236003571Y-198295295D02*
X235384523Y-198295295D01*
X235322619Y-198914342D01*
X235384523Y-198852438D01*
X235508333Y-198790533D01*
X235817857Y-198790533D01*
X235941666Y-198852438D01*
X236003571Y-198914342D01*
X236065476Y-199038152D01*
X236065476Y-199347676D01*
X236003571Y-199471485D01*
X235941666Y-199533390D01*
X235817857Y-199595295D01*
X235508333Y-199595295D01*
X235384523Y-199533390D01*
X235322619Y-199471485D01*
D10*
D11*
X285941666Y-198295295D02*
X285694047Y-198295295D01*
X285570238Y-198357200D01*
X285508333Y-198419104D01*
X285384523Y-198604819D01*
X285322619Y-198852438D01*
X285322619Y-199347676D01*
X285384523Y-199471485D01*
X285446428Y-199533390D01*
X285570238Y-199595295D01*
X285817857Y-199595295D01*
X285941666Y-199533390D01*
X286003571Y-199471485D01*
X286065476Y-199347676D01*
X286065476Y-199038152D01*
X286003571Y-198914342D01*
X285941666Y-198852438D01*
X285817857Y-198790533D01*
X285570238Y-198790533D01*
X285446428Y-198852438D01*
X285384523Y-198914342D01*
X285322619Y-199038152D01*
D10*
D11*
X10000000Y-60000000D02*
X12000000Y-60000000D01*
D10*
D11*
X10000000Y-110000000D02*
X12000000Y-110000000D01*
D10*
D11*
X10000000Y-160000000D02*
X12000000Y-160000000D01*
D10*
D11*
X10690476Y-35216666D02*
X11309523Y-35216666D01*
X10566666Y-35588095D02*
X11000000Y-34288095D01*
X11433333Y-35588095D01*
D10*
D11*
X11092857Y-84907142D02*
X11278571Y-84969047D01*
X11340476Y-85030952D01*
X11402380Y-85154761D01*
X11402380Y-85340476D01*
X11340476Y-85464285D01*
X11278571Y-85526190D01*
X11154761Y-85588095D01*
X10659523Y-85588095D01*
X10659523Y-84288095D01*
X11092857Y-84288095D01*
X11216666Y-84350000D01*
X11278571Y-84411904D01*
X11340476Y-84535714D01*
X11340476Y-84659523D01*
X11278571Y-84783333D01*
X11216666Y-84845238D01*
X11092857Y-84907142D01*
X10659523Y-84907142D01*
D10*
D11*
X11402380Y-135464285D02*
X11340476Y-135526190D01*
X11154761Y-135588095D01*
X11030952Y-135588095D01*
X10845238Y-135526190D01*
X10721428Y-135402380D01*
X10659523Y-135278571D01*
X10597619Y-135030952D01*
X10597619Y-134845238D01*
X10659523Y-134597619D01*
X10721428Y-134473809D01*
X10845238Y-134350000D01*
X11030952Y-134288095D01*
X11154761Y-134288095D01*
X11340476Y-134350000D01*
X11402380Y-134411904D01*
D10*
D11*
X10659523Y-185588095D02*
X10659523Y-184288095D01*
X10969047Y-184288095D01*
X11154761Y-184350000D01*
X11278571Y-184473809D01*
X11340476Y-184597619D01*
X11402380Y-184845238D01*
X11402380Y-185030952D01*
X11340476Y-185278571D01*
X11278571Y-185402380D01*
X11154761Y-185526190D01*
X10969047Y-185588095D01*
X10659523Y-185588095D01*
D10*
D11*
X287002200Y-60000000D02*
X285002200Y-60000000D01*
D10*
D11*
X287002200Y-110000000D02*
X285002200Y-110000000D01*
D10*
D11*
X287002200Y-160000000D02*
X285002200Y-160000000D01*
D10*
D11*
X285692676Y-35216666D02*
X286311723Y-35216666D01*
X285568866Y-35588095D02*
X286002200Y-34288095D01*
X286435533Y-35588095D01*
D10*
D11*
X286095057Y-84907142D02*
X286280771Y-84969047D01*
X286342676Y-85030952D01*
X286404580Y-85154761D01*
X286404580Y-85340476D01*
X286342676Y-85464285D01*
X286280771Y-85526190D01*
X286156961Y-85588095D01*
X285661723Y-85588095D01*
X285661723Y-84288095D01*
X286095057Y-84288095D01*
X286218866Y-84350000D01*
X286280771Y-84411904D01*
X286342676Y-84535714D01*
X286342676Y-84659523D01*
X286280771Y-84783333D01*
X286218866Y-84845238D01*
X286095057Y-84907142D01*
X285661723Y-84907142D01*
D10*
D11*
X286404580Y-135464285D02*
X286342676Y-135526190D01*
X286156961Y-135588095D01*
X286033152Y-135588095D01*
X285847438Y-135526190D01*
X285723628Y-135402380D01*
X285661723Y-135278571D01*
X285599819Y-135030952D01*
X285599819Y-134845238D01*
X285661723Y-134597619D01*
X285723628Y-134473809D01*
X285847438Y-134350000D01*
X286033152Y-134288095D01*
X286156961Y-134288095D01*
X286342676Y-134350000D01*
X286404580Y-134411904D01*
D10*
D11*
X285661723Y-185588095D02*
X285661723Y-184288095D01*
X285971247Y-184288095D01*
X286156961Y-184350000D01*
X286280771Y-184473809D01*
X286342676Y-184597619D01*
X286404580Y-184845238D01*
X286404580Y-185030952D01*
X286342676Y-185278571D01*
X286280771Y-185402380D01*
X286156961Y-185526190D01*
X285971247Y-185588095D01*
X285661723Y-185588095D01*
D10*
D11*
X200434342Y-193785771D02*
X200434342Y-192285771D01*
X200791485Y-192285771D01*
X201005771Y-192357200D01*
X201148628Y-192500057D01*
X201220057Y-192642914D01*
X201291485Y-192928628D01*
X201291485Y-193142914D01*
X201220057Y-193428628D01*
X201148628Y-193571485D01*
X201005771Y-193714342D01*
X200791485Y-193785771D01*
X200434342Y-193785771D01*
X202577200Y-193785771D02*
X202577200Y-193000057D01*
X202505771Y-192857200D01*
X202362914Y-192785771D01*
X202077200Y-192785771D01*
X201934342Y-192857200D01*
X202577200Y-193714342D02*
X202434342Y-193785771D01*
X202077200Y-193785771D01*
X201934342Y-193714342D01*
X201862914Y-193571485D01*
X201862914Y-193428628D01*
X201934342Y-193285771D01*
X202077200Y-193214342D01*
X202434342Y-193214342D01*
X202577200Y-193142914D01*
X203077200Y-192785771D02*
X203648628Y-192785771D01*
X203291485Y-192285771D02*
X203291485Y-193571485D01*
X203362914Y-193714342D01*
X203505771Y-193785771D01*
X203648628Y-193785771D01*
X204720057Y-193714342D02*
X204577200Y-193785771D01*
X204291485Y-193785771D01*
X204148628Y-193714342D01*
X204077200Y-193571485D01*
X204077200Y-193000057D01*
X204148628Y-192857200D01*
X204291485Y-192785771D01*
X204577200Y-192785771D01*
X204720057Y-192857200D01*
X204791485Y-193000057D01*
X204791485Y-193142914D01*
X204077200Y-193285771D01*
X205434342Y-193642914D02*
X205505771Y-193714342D01*
X205434342Y-193785771D01*
X205362914Y-193714342D01*
X205434342Y-193642914D01*
X205434342Y-193785771D01*
X205434342Y-192857200D02*
X205505771Y-192928628D01*
X205434342Y-193000057D01*
X205362914Y-192928628D01*
X205434342Y-192857200D01*
X205434342Y-193000057D01*
D10*
D11*
X177002200Y-194507200D02*
X285002200Y-194507200D01*
D10*
D11*
X178434342Y-196585771D02*
X178434342Y-195085771D01*
X179291485Y-196585771D02*
X178648628Y-195728628D01*
X179291485Y-195085771D02*
X178434342Y-195942914D01*
X179934342Y-196585771D02*
X179934342Y-195585771D01*
X179934342Y-195085771D02*
X179862914Y-195157200D01*
X179934342Y-195228628D01*
X180005771Y-195157200D01*
X179934342Y-195085771D01*
X179934342Y-195228628D01*
X181505771Y-196442914D02*
X181434342Y-196514342D01*
X181220057Y-196585771D01*
X181077200Y-196585771D01*
X180862914Y-196514342D01*
X180720057Y-196371485D01*
X180648628Y-196228628D01*
X180577200Y-195942914D01*
X180577200Y-195728628D01*
X180648628Y-195442914D01*
X180720057Y-195300057D01*
X180862914Y-195157200D01*
X181077200Y-195085771D01*
X181220057Y-195085771D01*
X181434342Y-195157200D01*
X181505771Y-195228628D01*
X182791485Y-196585771D02*
X182791485Y-195800057D01*
X182720057Y-195657200D01*
X182577200Y-195585771D01*
X182291485Y-195585771D01*
X182148628Y-195657200D01*
X182791485Y-196514342D02*
X182648628Y-196585771D01*
X182291485Y-196585771D01*
X182148628Y-196514342D01*
X182077200Y-196371485D01*
X182077200Y-196228628D01*
X182148628Y-196085771D01*
X182291485Y-196014342D01*
X182648628Y-196014342D01*
X182791485Y-195942914D01*
X184148628Y-196585771D02*
X184148628Y-195085771D01*
X184148628Y-196514342D02*
X184005771Y-196585771D01*
X183720057Y-196585771D01*
X183577200Y-196514342D01*
X183505771Y-196442914D01*
X183434342Y-196300057D01*
X183434342Y-195871485D01*
X183505771Y-195728628D01*
X183577200Y-195657200D01*
X183720057Y-195585771D01*
X184005771Y-195585771D01*
X184148628Y-195657200D01*
X186005771Y-195800057D02*
X186505771Y-195800057D01*
X186720057Y-196585771D02*
X186005771Y-196585771D01*
X186005771Y-195085771D01*
X186720057Y-195085771D01*
X187362914Y-196442914D02*
X187434342Y-196514342D01*
X187362914Y-196585771D01*
X187291485Y-196514342D01*
X187362914Y-196442914D01*
X187362914Y-196585771D01*
X188077200Y-196585771D02*
X188077200Y-195085771D01*
X188434342Y-195085771D01*
X188648628Y-195157200D01*
X188791485Y-195300057D01*
X188862914Y-195442914D01*
X188934342Y-195728628D01*
X188934342Y-195942914D01*
X188862914Y-196228628D01*
X188791485Y-196371485D01*
X188648628Y-196514342D01*
X188434342Y-196585771D01*
X188077200Y-196585771D01*
X189577200Y-196442914D02*
X189648628Y-196514342D01*
X189577200Y-196585771D01*
X189505771Y-196514342D01*
X189577200Y-196442914D01*
X189577200Y-196585771D01*
X190220057Y-196157200D02*
X190934342Y-196157200D01*
X190077200Y-196585771D02*
X190577200Y-195085771D01*
X191077200Y-196585771D01*
X191577200Y-196442914D02*
X191648628Y-196514342D01*
X191577200Y-196585771D01*
X191505771Y-196514342D01*
X191577200Y-196442914D01*
X191577200Y-196585771D01*
X194577200Y-196585771D02*
X194577200Y-195085771D01*
X194720057Y-196014342D02*
X195148628Y-196585771D01*
X195148628Y-195585771D02*
X194577200Y-196157200D01*
X195791485Y-196585771D02*
X195791485Y-195585771D01*
X195791485Y-195085771D02*
X195720057Y-195157200D01*
X195791485Y-195228628D01*
X195862914Y-195157200D01*
X195791485Y-195085771D01*
X195791485Y-195228628D01*
X197148628Y-196514342D02*
X197005771Y-196585771D01*
X196720057Y-196585771D01*
X196577200Y-196514342D01*
X196505771Y-196442914D01*
X196434342Y-196300057D01*
X196434342Y-195871485D01*
X196505771Y-195728628D01*
X196577200Y-195657200D01*
X196720057Y-195585771D01*
X197005771Y-195585771D01*
X197148628Y-195657200D01*
X198434342Y-196585771D02*
X198434342Y-195800057D01*
X198362914Y-195657200D01*
X198220057Y-195585771D01*
X197934342Y-195585771D01*
X197791485Y-195657200D01*
X198434342Y-196514342D02*
X198291485Y-196585771D01*
X197934342Y-196585771D01*
X197791485Y-196514342D01*
X197720057Y-196371485D01*
X197720057Y-196228628D01*
X197791485Y-196085771D01*
X197934342Y-196014342D01*
X198291485Y-196014342D01*
X198434342Y-195942914D01*
X199791485Y-196585771D02*
X199791485Y-195085771D01*
X199791485Y-196514342D02*
X199648628Y-196585771D01*
X199362914Y-196585771D01*
X199220057Y-196514342D01*
X199148628Y-196442914D01*
X199077200Y-196300057D01*
X199077200Y-195871485D01*
X199148628Y-195728628D01*
X199220057Y-195657200D01*
X199362914Y-195585771D01*
X199648628Y-195585771D01*
X199791485Y-195657200D01*
X202077200Y-197157200D02*
X202005771Y-197085771D01*
X201862914Y-196871485D01*
X201791485Y-196728628D01*
X201720057Y-196514342D01*
X201648628Y-196157200D01*
X201648628Y-195871485D01*
X201720057Y-195514342D01*
X201791485Y-195300057D01*
X201862914Y-195157200D01*
X202005771Y-194942914D01*
X202077200Y-194871485D01*
X203291485Y-195085771D02*
X203005771Y-195085771D01*
X202862914Y-195157200D01*
X202791485Y-195228628D01*
X202648628Y-195442914D01*
X202577200Y-195728628D01*
X202577200Y-196300057D01*
X202648628Y-196442914D01*
X202720057Y-196514342D01*
X202862914Y-196585771D01*
X203148628Y-196585771D01*
X203291485Y-196514342D01*
X203362914Y-196442914D01*
X203434342Y-196300057D01*
X203434342Y-195942914D01*
X203362914Y-195800057D01*
X203291485Y-195728628D01*
X203148628Y-195657200D01*
X202862914Y-195657200D01*
X202720057Y-195728628D01*
X202648628Y-195800057D01*
X202577200Y-195942914D01*
X204077200Y-196442914D02*
X204148628Y-196514342D01*
X204077200Y-196585771D01*
X204005771Y-196514342D01*
X204077200Y-196442914D01*
X204077200Y-196585771D01*
X205077200Y-195085771D02*
X205220057Y-195085771D01*
X205362914Y-195157200D01*
X205434342Y-195228628D01*
X205505771Y-195371485D01*
X205577200Y-195657200D01*
X205577200Y-196014342D01*
X205505771Y-196300057D01*
X205434342Y-196442914D01*
X205362914Y-196514342D01*
X205220057Y-196585771D01*
X205077200Y-196585771D01*
X204934342Y-196514342D01*
X204862914Y-196442914D01*
X204791485Y-196300057D01*
X204720057Y-196014342D01*
X204720057Y-195657200D01*
X204791485Y-195371485D01*
X204862914Y-195228628D01*
X204934342Y-195157200D01*
X205077200Y-195085771D01*
X206220057Y-196442914D02*
X206291485Y-196514342D01*
X206220057Y-196585771D01*
X206148628Y-196514342D01*
X206220057Y-196442914D01*
X206220057Y-196585771D01*
X207577200Y-195585771D02*
X207577200Y-196585771D01*
X207220057Y-195014342D02*
X206862914Y-196085771D01*
X207791485Y-196085771D01*
X208362914Y-196014342D02*
X209505771Y-196014342D01*
X210505771Y-195085771D02*
X210648628Y-195085771D01*
X210791485Y-195157200D01*
X210862914Y-195228628D01*
X210934342Y-195371485D01*
X211005771Y-195657200D01*
X211005771Y-196014342D01*
X210934342Y-196300057D01*
X210862914Y-196442914D01*
X210791485Y-196514342D01*
X210648628Y-196585771D01*
X210505771Y-196585771D01*
X210362914Y-196514342D01*
X210291485Y-196442914D01*
X210220057Y-196300057D01*
X210148628Y-196014342D01*
X210148628Y-195657200D01*
X210220057Y-195371485D01*
X210291485Y-195228628D01*
X210362914Y-195157200D01*
X210505771Y-195085771D01*
X211505771Y-197157200D02*
X211577200Y-197085771D01*
X211720057Y-196871485D01*
X211791485Y-196728628D01*
X211862914Y-196514342D01*
X211934342Y-196157200D01*
X211934342Y-195871485D01*
X211862914Y-195514342D01*
X211791485Y-195300057D01*
X211720057Y-195157200D01*
X211577200Y-194942914D01*
X211505771Y-194871485D01*
D10*
D11*
X177002200Y-191507200D02*
X285002200Y-191507200D01*
D10*
D12*
X264411485Y-193785771D02*
X263911485Y-193071485D01*
X263554342Y-193785771D02*
X263554342Y-192285771D01*
X264125771Y-192285771D01*
X264268628Y-192357200D01*
X264340057Y-192428628D01*
X264411485Y-192571485D01*
X264411485Y-192785771D01*
X264340057Y-192928628D01*
X264268628Y-193000057D01*
X264125771Y-193071485D01*
X263554342Y-193071485D01*
X265625771Y-193714342D02*
X265482914Y-193785771D01*
X265197200Y-193785771D01*
X265054342Y-193714342D01*
X264982914Y-193571485D01*
X264982914Y-193000057D01*
X265054342Y-192857200D01*
X265197200Y-192785771D01*
X265482914Y-192785771D01*
X265625771Y-192857200D01*
X265697200Y-193000057D01*
X265697200Y-193142914D01*
X264982914Y-193285771D01*
X266197200Y-192785771D02*
X266554342Y-193785771D01*
X266911485Y-192785771D01*
X267482914Y-193642914D02*
X267554342Y-193714342D01*
X267482914Y-193785771D01*
X267411485Y-193714342D01*
X267482914Y-193642914D01*
X267482914Y-193785771D01*
X267482914Y-192857200D02*
X267554342Y-192928628D01*
X267482914Y-193000057D01*
X267411485Y-192928628D01*
X267482914Y-192857200D01*
X267482914Y-193000057D01*
D10*
D11*
X178362914Y-193714342D02*
X178577200Y-193785771D01*
X178934342Y-193785771D01*
X179077200Y-193714342D01*
X179148628Y-193642914D01*
X179220057Y-193500057D01*
X179220057Y-193357200D01*
X179148628Y-193214342D01*
X179077200Y-193142914D01*
X178934342Y-193071485D01*
X178648628Y-193000057D01*
X178505771Y-192928628D01*
X178434342Y-192857200D01*
X178362914Y-192714342D01*
X178362914Y-192571485D01*
X178434342Y-192428628D01*
X178505771Y-192357200D01*
X178648628Y-192285771D01*
X179005771Y-192285771D01*
X179220057Y-192357200D01*
X179862914Y-193785771D02*
X179862914Y-192785771D01*
X179862914Y-192285771D02*
X179791485Y-192357200D01*
X179862914Y-192428628D01*
X179934342Y-192357200D01*
X179862914Y-192285771D01*
X179862914Y-192428628D01*
X180434342Y-192785771D02*
X181220057Y-192785771D01*
X180434342Y-193785771D01*
X181220057Y-193785771D01*
X182362914Y-193714342D02*
X182220057Y-193785771D01*
X181934342Y-193785771D01*
X181791485Y-193714342D01*
X181720057Y-193571485D01*
X181720057Y-193000057D01*
X181791485Y-192857200D01*
X181934342Y-192785771D01*
X182220057Y-192785771D01*
X182362914Y-192857200D01*
X182434342Y-193000057D01*
X182434342Y-193142914D01*
X181720057Y-193285771D01*
X183077200Y-193642914D02*
X183148628Y-193714342D01*
X183077200Y-193785771D01*
X183005771Y-193714342D01*
X183077200Y-193642914D01*
X183077200Y-193785771D01*
X183077200Y-192857200D02*
X183148628Y-192928628D01*
X183077200Y-193000057D01*
X183005771Y-192928628D01*
X183077200Y-192857200D01*
X183077200Y-193000057D01*
X184862914Y-193357200D02*
X185577200Y-193357200D01*
X184720057Y-193785771D02*
X185220057Y-192285771D01*
X185720057Y-193785771D01*
X186862914Y-192785771D02*
X186862914Y-193785771D01*
X186505771Y-192214342D02*
X186148628Y-193285771D01*
X187077200Y-193285771D01*
D10*
D11*
X263434342Y-196585771D02*
X263434342Y-195085771D01*
X264791485Y-196585771D02*
X264791485Y-195085771D01*
X264791485Y-196514342D02*
X264648628Y-196585771D01*
X264362914Y-196585771D01*
X264220057Y-196514342D01*
X264148628Y-196442914D01*
X264077200Y-196300057D01*
X264077200Y-195871485D01*
X264148628Y-195728628D01*
X264220057Y-195657200D01*
X264362914Y-195585771D01*
X264648628Y-195585771D01*
X264791485Y-195657200D01*
X265505771Y-196442914D02*
X265577200Y-196514342D01*
X265505771Y-196585771D01*
X265434342Y-196514342D01*
X265505771Y-196442914D01*
X265505771Y-196585771D01*
X265505771Y-195657200D02*
X265577200Y-195728628D01*
X265505771Y-195800057D01*
X265434342Y-195728628D01*
X265505771Y-195657200D01*
X265505771Y-195800057D01*
X268148628Y-196585771D02*
X267291485Y-196585771D01*
X267720057Y-196585771D02*
X267720057Y-195085771D01*
X267577200Y-195300057D01*
X267434342Y-195442914D01*
X267291485Y-195514342D01*
X269862914Y-195014342D02*
X268577200Y-196942914D01*
X271148628Y-196585771D02*
X270291485Y-196585771D01*
X270720057Y-196585771D02*
X270720057Y-195085771D01*
X270577200Y-195300057D01*
X270434342Y-195442914D01*
X270291485Y-195514342D01*
D10*
D11*
X177002200Y-187507200D02*
X285002200Y-187507200D01*
D10*
D13*
X178714580Y-188211961D02*
X179857438Y-188211961D01*
X179036009Y-190211961D02*
X179286009Y-188211961D01*
X180274104Y-190211961D02*
X180440771Y-188878628D01*
X180524104Y-188211961D02*
X180416961Y-188307200D01*
X180500295Y-188402438D01*
X180607438Y-188307200D01*
X180524104Y-188211961D01*
X180500295Y-188402438D01*
X181107438Y-188878628D02*
X181869342Y-188878628D01*
X181476485Y-188211961D02*
X181262200Y-189926247D01*
X181333628Y-190116723D01*
X181512200Y-190211961D01*
X181702676Y-190211961D01*
X182655057Y-190211961D02*
X182476485Y-190116723D01*
X182405057Y-189926247D01*
X182619342Y-188211961D01*
X184190771Y-190116723D02*
X183988390Y-190211961D01*
X183607438Y-190211961D01*
X183428866Y-190116723D01*
X183357438Y-189926247D01*
X183452676Y-189164342D01*
X183571723Y-188973866D01*
X183774104Y-188878628D01*
X184155057Y-188878628D01*
X184333628Y-188973866D01*
X184405057Y-189164342D01*
X184381247Y-189354819D01*
X183405057Y-189545295D01*
X185155057Y-190021485D02*
X185238390Y-190116723D01*
X185131247Y-190211961D01*
X185047914Y-190116723D01*
X185155057Y-190021485D01*
X185131247Y-190211961D01*
X185286009Y-188973866D02*
X185369342Y-189069104D01*
X185262200Y-189164342D01*
X185178866Y-189069104D01*
X185286009Y-188973866D01*
X185262200Y-189164342D01*
D10*
D11*
X178934342Y-185600057D02*
X178434342Y-185600057D01*
X178434342Y-186385771D02*
X178434342Y-184885771D01*
X179148628Y-184885771D01*
X179720057Y-186385771D02*
X179720057Y-185385771D01*
X179720057Y-184885771D02*
X179648628Y-184957200D01*
X179720057Y-185028628D01*
X179791485Y-184957200D01*
X179720057Y-184885771D01*
X179720057Y-185028628D01*
X180648628Y-186385771D02*
X180505771Y-186314342D01*
X180434342Y-186171485D01*
X180434342Y-184885771D01*
X181791485Y-186314342D02*
X181648628Y-186385771D01*
X181362914Y-186385771D01*
X181220057Y-186314342D01*
X181148628Y-186171485D01*
X181148628Y-185600057D01*
X181220057Y-185457200D01*
X181362914Y-185385771D01*
X181648628Y-185385771D01*
X181791485Y-185457200D01*
X181862914Y-185600057D01*
X181862914Y-185742914D01*
X181148628Y-185885771D01*
X182505771Y-186242914D02*
X182577200Y-186314342D01*
X182505771Y-186385771D01*
X182434342Y-186314342D01*
X182505771Y-186242914D01*
X182505771Y-186385771D01*
X182505771Y-185457200D02*
X182577200Y-185528628D01*
X182505771Y-185600057D01*
X182434342Y-185528628D01*
X182505771Y-185457200D01*
X182505771Y-185600057D01*
X185220057Y-186242914D02*
X185148628Y-186314342D01*
X184934342Y-186385771D01*
X184791485Y-186385771D01*
X184577200Y-186314342D01*
X184434342Y-186171485D01*
X184362914Y-186028628D01*
X184291485Y-185742914D01*
X184291485Y-185528628D01*
X184362914Y-185242914D01*
X184434342Y-185100057D01*
X184577200Y-184957200D01*
X184791485Y-184885771D01*
X184934342Y-184885771D01*
X185148628Y-184957200D01*
X185220057Y-185028628D01*
X186505771Y-186385771D02*
X186505771Y-185600057D01*
X186434342Y-185457200D01*
X186291485Y-185385771D01*
X186005771Y-185385771D01*
X185862914Y-185457200D01*
X186505771Y-186314342D02*
X186362914Y-186385771D01*
X186005771Y-186385771D01*
X185862914Y-186314342D01*
X185791485Y-186171485D01*
X185791485Y-186028628D01*
X185862914Y-185885771D01*
X186005771Y-185814342D01*
X186362914Y-185814342D01*
X186505771Y-185742914D01*
X187220057Y-186385771D02*
X187220057Y-184885771D01*
X187220057Y-185457200D02*
X187362914Y-185385771D01*
X187648628Y-185385771D01*
X187791485Y-185457200D01*
X187862914Y-185528628D01*
X187934342Y-185671485D01*
X187934342Y-186100057D01*
X187862914Y-186242914D01*
X187791485Y-186314342D01*
X187648628Y-186385771D01*
X187362914Y-186385771D01*
X187220057Y-186314342D01*
X188791485Y-186385771D02*
X188648628Y-186314342D01*
X188577200Y-186171485D01*
X188577200Y-184885771D01*
X189934342Y-186314342D02*
X189791485Y-186385771D01*
X189505771Y-186385771D01*
X189362914Y-186314342D01*
X189291485Y-186171485D01*
X189291485Y-185600057D01*
X189362914Y-185457200D01*
X189505771Y-185385771D01*
X189791485Y-185385771D01*
X189934342Y-185457200D01*
X190005771Y-185600057D01*
X190005771Y-185742914D01*
X189291485Y-185885771D01*
X190577200Y-185957200D02*
X191291485Y-185957200D01*
X190434342Y-186385771D02*
X190934342Y-184885771D01*
X191434342Y-186385771D01*
X192577200Y-186385771D02*
X192577200Y-184885771D01*
X192577200Y-186314342D02*
X192434342Y-186385771D01*
X192148628Y-186385771D01*
X192005771Y-186314342D01*
X191934342Y-186242914D01*
X191862914Y-186100057D01*
X191862914Y-185671485D01*
X191934342Y-185528628D01*
X192005771Y-185457200D01*
X192148628Y-185385771D01*
X192434342Y-185385771D01*
X192577200Y-185457200D01*
X193934342Y-186385771D02*
X193934342Y-185600057D01*
X193862914Y-185457200D01*
X193720057Y-185385771D01*
X193434342Y-185385771D01*
X193291485Y-185457200D01*
X193934342Y-186314342D02*
X193791485Y-186385771D01*
X193434342Y-186385771D01*
X193291485Y-186314342D01*
X193220057Y-186171485D01*
X193220057Y-186028628D01*
X193291485Y-185885771D01*
X193434342Y-185814342D01*
X193791485Y-185814342D01*
X193934342Y-185742914D01*
X194648628Y-185385771D02*
X194648628Y-186885771D01*
X194648628Y-185457200D02*
X194791485Y-185385771D01*
X195077200Y-185385771D01*
X195220057Y-185457200D01*
X195291485Y-185528628D01*
X195362914Y-185671485D01*
X195362914Y-186100057D01*
X195291485Y-186242914D01*
X195220057Y-186314342D01*
X195077200Y-186385771D01*
X194791485Y-186385771D01*
X194648628Y-186314342D01*
X195791485Y-185385771D02*
X196362914Y-185385771D01*
X196005771Y-184885771D02*
X196005771Y-186171485D01*
X196077200Y-186314342D01*
X196220057Y-186385771D01*
X196362914Y-186385771D01*
X197434342Y-186314342D02*
X197291485Y-186385771D01*
X197005771Y-186385771D01*
X196862914Y-186314342D01*
X196791485Y-186171485D01*
X196791485Y-185600057D01*
X196862914Y-185457200D01*
X197005771Y-185385771D01*
X197291485Y-185385771D01*
X197434342Y-185457200D01*
X197505771Y-185600057D01*
X197505771Y-185742914D01*
X196791485Y-185885771D01*
X198148628Y-186385771D02*
X198148628Y-185385771D01*
X198148628Y-185671485D02*
X198220057Y-185528628D01*
X198291485Y-185457200D01*
X198434342Y-185385771D01*
X198577200Y-185385771D01*
X199577200Y-185600057D02*
X199791485Y-185671485D01*
X199862914Y-185742914D01*
X199934342Y-185885771D01*
X199934342Y-186100057D01*
X199862914Y-186242914D01*
X199791485Y-186314342D01*
X199648628Y-186385771D01*
X199077200Y-186385771D01*
X199077200Y-184885771D01*
X199577200Y-184885771D01*
X199720057Y-184957200D01*
X199791485Y-185028628D01*
X199862914Y-185171485D01*
X199862914Y-185314342D01*
X199791485Y-185457200D01*
X199720057Y-185528628D01*
X199577200Y-185600057D01*
X199077200Y-185600057D01*
X200791485Y-186385771D02*
X200648628Y-186314342D01*
X200577200Y-186242914D01*
X200505771Y-186100057D01*
X200505771Y-185671485D01*
X200577200Y-185528628D01*
X200648628Y-185457200D01*
X200791485Y-185385771D01*
X201005771Y-185385771D01*
X201148628Y-185457200D01*
X201220057Y-185528628D01*
X201291485Y-185671485D01*
X201291485Y-186100057D01*
X201220057Y-186242914D01*
X201148628Y-186314342D01*
X201005771Y-186385771D01*
X200791485Y-186385771D01*
X202577200Y-186385771D02*
X202577200Y-185600057D01*
X202505771Y-185457200D01*
X202362914Y-185385771D01*
X202077200Y-185385771D01*
X201934342Y-185457200D01*
X202577200Y-186314342D02*
X202434342Y-186385771D01*
X202077200Y-186385771D01*
X201934342Y-186314342D01*
X201862914Y-186171485D01*
X201862914Y-186028628D01*
X201934342Y-185885771D01*
X202077200Y-185814342D01*
X202434342Y-185814342D01*
X202577200Y-185742914D01*
X203291485Y-186385771D02*
X203291485Y-185385771D01*
X203291485Y-185671485D02*
X203362914Y-185528628D01*
X203434342Y-185457200D01*
X203577200Y-185385771D01*
X203720057Y-185385771D01*
X204862914Y-186385771D02*
X204862914Y-184885771D01*
X204862914Y-186314342D02*
X204720057Y-186385771D01*
X204434342Y-186385771D01*
X204291485Y-186314342D01*
X204220057Y-186242914D01*
X204148628Y-186100057D01*
X204148628Y-185671485D01*
X204220057Y-185528628D01*
X204291485Y-185457200D01*
X204434342Y-185385771D01*
X204720057Y-185385771D01*
X204862914Y-185457200D01*
X205577200Y-186242914D02*
X205648628Y-186314342D01*
X205577200Y-186385771D01*
X205505771Y-186314342D01*
X205577200Y-186242914D01*
X205577200Y-186385771D01*
X206291485Y-186385771D02*
X206291485Y-184885771D01*
X206434342Y-185814342D02*
X206862914Y-186385771D01*
X206862914Y-185385771D02*
X206291485Y-185957200D01*
X207505771Y-186385771D02*
X207505771Y-185385771D01*
X207505771Y-184885771D02*
X207434342Y-184957200D01*
X207505771Y-185028628D01*
X207577200Y-184957200D01*
X207505771Y-184885771D01*
X207505771Y-185028628D01*
X208862914Y-186314342D02*
X208720057Y-186385771D01*
X208434342Y-186385771D01*
X208291485Y-186314342D01*
X208220057Y-186242914D01*
X208148628Y-186100057D01*
X208148628Y-185671485D01*
X208220057Y-185528628D01*
X208291485Y-185457200D01*
X208434342Y-185385771D01*
X208720057Y-185385771D01*
X208862914Y-185457200D01*
X210148628Y-186385771D02*
X210148628Y-185600057D01*
X210077200Y-185457200D01*
X209934342Y-185385771D01*
X209648628Y-185385771D01*
X209505771Y-185457200D01*
X210148628Y-186314342D02*
X210005771Y-186385771D01*
X209648628Y-186385771D01*
X209505771Y-186314342D01*
X209434342Y-186171485D01*
X209434342Y-186028628D01*
X209505771Y-185885771D01*
X209648628Y-185814342D01*
X210005771Y-185814342D01*
X210148628Y-185742914D01*
X211505771Y-186385771D02*
X211505771Y-184885771D01*
X211505771Y-186314342D02*
X211362914Y-186385771D01*
X211077200Y-186385771D01*
X210934342Y-186314342D01*
X210862914Y-186242914D01*
X210791485Y-186100057D01*
X210791485Y-185671485D01*
X210862914Y-185528628D01*
X210934342Y-185457200D01*
X211077200Y-185385771D01*
X211362914Y-185385771D01*
X211505771Y-185457200D01*
X211862914Y-186528628D02*
X213005771Y-186528628D01*
X213362914Y-185385771D02*
X213362914Y-186885771D01*
X213362914Y-185457200D02*
X213505771Y-185385771D01*
X213791485Y-185385771D01*
X213934342Y-185457200D01*
X214005771Y-185528628D01*
X214077200Y-185671485D01*
X214077200Y-186100057D01*
X214005771Y-186242914D01*
X213934342Y-186314342D01*
X213791485Y-186385771D01*
X213505771Y-186385771D01*
X213362914Y-186314342D01*
X215362914Y-186314342D02*
X215220057Y-186385771D01*
X214934342Y-186385771D01*
X214791485Y-186314342D01*
X214720057Y-186242914D01*
X214648628Y-186100057D01*
X214648628Y-185671485D01*
X214720057Y-185528628D01*
X214791485Y-185457200D01*
X214934342Y-185385771D01*
X215220057Y-185385771D01*
X215362914Y-185457200D01*
X216005771Y-186385771D02*
X216005771Y-184885771D01*
X216005771Y-185457200D02*
X216148628Y-185385771D01*
X216434342Y-185385771D01*
X216577200Y-185457200D01*
X216648628Y-185528628D01*
X216720057Y-185671485D01*
X216720057Y-186100057D01*
X216648628Y-186242914D01*
X216577200Y-186314342D01*
X216434342Y-186385771D01*
X216148628Y-186385771D01*
X216005771Y-186314342D01*
D10*
D11*
X177002200Y-181507200D02*
X285002200Y-181507200D01*
D10*
D11*
X178362914Y-183614342D02*
X178577200Y-183685771D01*
X178934342Y-183685771D01*
X179077200Y-183614342D01*
X179148628Y-183542914D01*
X179220057Y-183400057D01*
X179220057Y-183257200D01*
X179148628Y-183114342D01*
X179077200Y-183042914D01*
X178934342Y-182971485D01*
X178648628Y-182900057D01*
X178505771Y-182828628D01*
X178434342Y-182757200D01*
X178362914Y-182614342D01*
X178362914Y-182471485D01*
X178434342Y-182328628D01*
X178505771Y-182257200D01*
X178648628Y-182185771D01*
X179005771Y-182185771D01*
X179220057Y-182257200D01*
X179862914Y-183685771D02*
X179862914Y-182185771D01*
X180505771Y-183685771D02*
X180505771Y-182900057D01*
X180434342Y-182757200D01*
X180291485Y-182685771D01*
X180077200Y-182685771D01*
X179934342Y-182757200D01*
X179862914Y-182828628D01*
X181791485Y-183614342D02*
X181648628Y-183685771D01*
X181362914Y-183685771D01*
X181220057Y-183614342D01*
X181148628Y-183471485D01*
X181148628Y-182900057D01*
X181220057Y-182757200D01*
X181362914Y-182685771D01*
X181648628Y-182685771D01*
X181791485Y-182757200D01*
X181862914Y-182900057D01*
X181862914Y-183042914D01*
X181148628Y-183185771D01*
X183077200Y-183614342D02*
X182934342Y-183685771D01*
X182648628Y-183685771D01*
X182505771Y-183614342D01*
X182434342Y-183471485D01*
X182434342Y-182900057D01*
X182505771Y-182757200D01*
X182648628Y-182685771D01*
X182934342Y-182685771D01*
X183077200Y-182757200D01*
X183148628Y-182900057D01*
X183148628Y-183042914D01*
X182434342Y-183185771D01*
X183577200Y-182685771D02*
X184148628Y-182685771D01*
X183791485Y-182185771D02*
X183791485Y-183471485D01*
X183862914Y-183614342D01*
X184005771Y-183685771D01*
X184148628Y-183685771D01*
X184648628Y-183542914D02*
X184720057Y-183614342D01*
X184648628Y-183685771D01*
X184577200Y-183614342D01*
X184648628Y-183542914D01*
X184648628Y-183685771D01*
X184648628Y-182757200D02*
X184720057Y-182828628D01*
X184648628Y-182900057D01*
X184577200Y-182828628D01*
X184648628Y-182757200D01*
X184648628Y-182900057D01*
D10*
D12*
D10*
D11*
D10*
D11*
D10*
D11*
D10*
D11*
D10*
D11*
X197002200Y-191507200D02*
X197002200Y-194507200D01*
D10*
D11*
X261002200Y-191507200D02*
X261002200Y-198007200D01*
D14*
X190480000Y-68510000D02*
X190480000Y-114600000D01*
X190480000Y-114600000D02*
X88130000Y-114600000D01*
X88130000Y-114600000D02*
X88130000Y-68510000D01*
X88130000Y-68510000D02*
X162400000Y-68510000D01*
X162400000Y-68510000D02*
X190480000Y-68510000D01*
D15*
X123305160Y-69118950D02*
X123355668Y-69135786D01*
X123423011Y-69203129D01*
X123439847Y-69253637D01*
X123423011Y-69304145D01*
X123406175Y-69320981D01*
X123355668Y-69337816D01*
X123305160Y-69320981D01*
X123254652Y-69270473D01*
X123204145Y-69253637D01*
X123153637Y-69270473D01*
X123136801Y-69287309D01*
X123119965Y-69337816D01*
X123136801Y-69388324D01*
X123187309Y-69438832D01*
X123237816Y-69455668D01*
X123776564Y-69556683D02*
X123591370Y-69741877D01*
X123540862Y-69758713D01*
X123490355Y-69741877D01*
X123423011Y-69674534D01*
X123406175Y-69624026D01*
X123759729Y-69573519D02*
X123742893Y-69523011D01*
X123658713Y-69438832D01*
X123608206Y-69421996D01*
X123557698Y-69438832D01*
X123524026Y-69472503D01*
X123507190Y-69523011D01*
X123524026Y-69573519D01*
X123608206Y-69657698D01*
X123625042Y-69708206D01*
X124079610Y-69893400D02*
X124062774Y-69842893D01*
X123995431Y-69775549D01*
X123944923Y-69758713D01*
X123911251Y-69758713D01*
X123860744Y-69775549D01*
X123759729Y-69876564D01*
X123742893Y-69927072D01*
X123742893Y-69960744D01*
X123759729Y-70011251D01*
X123827072Y-70078595D01*
X123877580Y-70095431D01*
X124247969Y-70028087D02*
X124012267Y-70263790D01*
X123894416Y-70381641D02*
X123894416Y-70347969D01*
X123928087Y-70347969D01*
X123928087Y-70381641D01*
X123894416Y-70381641D01*
X123928087Y-70347969D01*
X124365820Y-70078595D02*
X124635194Y-70347969D01*
X124820389Y-70634179D02*
X124803553Y-70583671D01*
X124736209Y-70516328D01*
X124685702Y-70499492D01*
X124652030Y-70499492D01*
X124601522Y-70516328D01*
X124500507Y-70617343D01*
X124483671Y-70667851D01*
X124483671Y-70701522D01*
X124500507Y-70752030D01*
X124567851Y-70819374D01*
X124618358Y-70836209D01*
X125039255Y-70819374D02*
X124988748Y-70802538D01*
X124938240Y-70819374D01*
X124635194Y-71122419D01*
X125173942Y-70954061D02*
X124820389Y-71307614D01*
X125072927Y-71122419D02*
X125308629Y-71088748D01*
X125072927Y-71324450D02*
X125072927Y-71055076D01*
X125409644Y-71122419D02*
X125679018Y-71391793D01*
X125493824Y-71745347D02*
X125729526Y-71509644D01*
X125527496Y-71711675D02*
X125527496Y-71745347D01*
X125544331Y-71795854D01*
X125594839Y-71846362D01*
X125645347Y-71863198D01*
X125695854Y-71846362D01*
X125881049Y-71661167D01*
X150806190Y-79450952D02*
X150306190Y-79450952D01*
X150782380Y-79450952D02*
X150806190Y-79403333D01*
X150806190Y-79308095D01*
X150782380Y-79260476D01*
X150758571Y-79236666D01*
X150710952Y-79212857D01*
X150568095Y-79212857D01*
X150520476Y-79236666D01*
X150496666Y-79260476D01*
X150472857Y-79308095D01*
X150472857Y-79403333D01*
X150496666Y-79450952D01*
X150806190Y-79903333D02*
X150544285Y-79903333D01*
X150496666Y-79879523D01*
X150472857Y-79831904D01*
X150472857Y-79736666D01*
X150496666Y-79689047D01*
X150782380Y-79903333D02*
X150806190Y-79855714D01*
X150806190Y-79736666D01*
X150782380Y-79689047D01*
X150734761Y-79665238D01*
X150687142Y-79665238D01*
X150639523Y-79689047D01*
X150615714Y-79736666D01*
X150615714Y-79855714D01*
X150591904Y-79903333D01*
X150472857Y-80070000D02*
X150472857Y-80260476D01*
X150306190Y-80141428D02*
X150734761Y-80141428D01*
X150782380Y-80165238D01*
X150806190Y-80212857D01*
X150806190Y-80260476D01*
X150806190Y-80641428D02*
X150544285Y-80641428D01*
X150496666Y-80617619D01*
X150472857Y-80570000D01*
X150472857Y-80474761D01*
X150496666Y-80427142D01*
X150782380Y-80641428D02*
X150806190Y-80593809D01*
X150806190Y-80474761D01*
X150782380Y-80427142D01*
X150734761Y-80403333D01*
X150687142Y-80403333D01*
X150639523Y-80427142D01*
X150615714Y-80474761D01*
X150615714Y-80593809D01*
X150591904Y-80641428D01*
X150853809Y-80760476D02*
X150853809Y-81141428D01*
X150806190Y-81331904D02*
X150782380Y-81284285D01*
X150758571Y-81260476D01*
X150710952Y-81236666D01*
X150568095Y-81236666D01*
X150520476Y-81260476D01*
X150496666Y-81284285D01*
X150472857Y-81331904D01*
X150472857Y-81403333D01*
X150496666Y-81450952D01*
X150520476Y-81474761D01*
X150568095Y-81498571D01*
X150710952Y-81498571D01*
X150758571Y-81474761D01*
X150782380Y-81450952D01*
X150806190Y-81403333D01*
X150806190Y-81331904D01*
X150472857Y-81927142D02*
X150806190Y-81927142D01*
X150472857Y-81712857D02*
X150734761Y-81712857D01*
X150782380Y-81736666D01*
X150806190Y-81784285D01*
X150806190Y-81855714D01*
X150782380Y-81903333D01*
X150758571Y-81927142D01*
X150472857Y-82093809D02*
X150472857Y-82284285D01*
X150306190Y-82165238D02*
X150734761Y-82165238D01*
X150782380Y-82189047D01*
X150806190Y-82236666D01*
X150806190Y-82284285D01*
X150853809Y-82331904D02*
X150853809Y-82712857D01*
X150806190Y-83093809D02*
X150806190Y-82808095D01*
X150806190Y-82950952D02*
X150306190Y-82950952D01*
X150377619Y-82903333D01*
X150425238Y-82855714D01*
X150449047Y-82808095D01*
X150853809Y-83189047D02*
X150853809Y-83570000D01*
X150472857Y-83689047D02*
X150972857Y-83689047D01*
X150496666Y-83689047D02*
X150472857Y-83736666D01*
X150472857Y-83831904D01*
X150496666Y-83879523D01*
X150520476Y-83903333D01*
X150568095Y-83927142D01*
X150710952Y-83927142D01*
X150758571Y-83903333D01*
X150782380Y-83879523D01*
X150806190Y-83831904D01*
X150806190Y-83736666D01*
X150782380Y-83689047D01*
X145296190Y-79560952D02*
X144796190Y-79560952D01*
X145272380Y-79560952D02*
X145296190Y-79513333D01*
X145296190Y-79418095D01*
X145272380Y-79370476D01*
X145248571Y-79346666D01*
X145200952Y-79322857D01*
X145058095Y-79322857D01*
X145010476Y-79346666D01*
X144986666Y-79370476D01*
X144962857Y-79418095D01*
X144962857Y-79513333D01*
X144986666Y-79560952D01*
X145296190Y-80013333D02*
X145034285Y-80013333D01*
X144986666Y-79989523D01*
X144962857Y-79941904D01*
X144962857Y-79846666D01*
X144986666Y-79799047D01*
X145272380Y-80013333D02*
X145296190Y-79965714D01*
X145296190Y-79846666D01*
X145272380Y-79799047D01*
X145224761Y-79775238D01*
X145177142Y-79775238D01*
X145129523Y-79799047D01*
X145105714Y-79846666D01*
X145105714Y-79965714D01*
X145081904Y-80013333D01*
X144962857Y-80180000D02*
X144962857Y-80370476D01*
X144796190Y-80251428D02*
X145224761Y-80251428D01*
X145272380Y-80275238D01*
X145296190Y-80322857D01*
X145296190Y-80370476D01*
X145296190Y-80751428D02*
X145034285Y-80751428D01*
X144986666Y-80727619D01*
X144962857Y-80680000D01*
X144962857Y-80584761D01*
X144986666Y-80537142D01*
X145272380Y-80751428D02*
X145296190Y-80703809D01*
X145296190Y-80584761D01*
X145272380Y-80537142D01*
X145224761Y-80513333D01*
X145177142Y-80513333D01*
X145129523Y-80537142D01*
X145105714Y-80584761D01*
X145105714Y-80703809D01*
X145081904Y-80751428D01*
X145343809Y-80870476D02*
X145343809Y-81251428D01*
X145296190Y-81441904D02*
X145272380Y-81394285D01*
X145248571Y-81370476D01*
X145200952Y-81346666D01*
X145058095Y-81346666D01*
X145010476Y-81370476D01*
X144986666Y-81394285D01*
X144962857Y-81441904D01*
X144962857Y-81513333D01*
X144986666Y-81560952D01*
X145010476Y-81584761D01*
X145058095Y-81608571D01*
X145200952Y-81608571D01*
X145248571Y-81584761D01*
X145272380Y-81560952D01*
X145296190Y-81513333D01*
X145296190Y-81441904D01*
X144962857Y-82037142D02*
X145296190Y-82037142D01*
X144962857Y-81822857D02*
X145224761Y-81822857D01*
X145272380Y-81846666D01*
X145296190Y-81894285D01*
X145296190Y-81965714D01*
X145272380Y-82013333D01*
X145248571Y-82037142D01*
X144962857Y-82203809D02*
X144962857Y-82394285D01*
X144796190Y-82275238D02*
X145224761Y-82275238D01*
X145272380Y-82299047D01*
X145296190Y-82346666D01*
X145296190Y-82394285D01*
X145343809Y-82441904D02*
X145343809Y-82822857D01*
X144796190Y-83037142D02*
X144796190Y-83084761D01*
X144820000Y-83132380D01*
X144843809Y-83156190D01*
X144891428Y-83180000D01*
X144986666Y-83203809D01*
X145105714Y-83203809D01*
X145200952Y-83180000D01*
X145248571Y-83156190D01*
X145272380Y-83132380D01*
X145296190Y-83084761D01*
X145296190Y-83037142D01*
X145272380Y-82989523D01*
X145248571Y-82965714D01*
X145200952Y-82941904D01*
X145105714Y-82918095D01*
X144986666Y-82918095D01*
X144891428Y-82941904D01*
X144843809Y-82965714D01*
X144820000Y-82989523D01*
X144796190Y-83037142D01*
X145343809Y-83299047D02*
X145343809Y-83680000D01*
X144962857Y-83799047D02*
X145462857Y-83799047D01*
X144986666Y-83799047D02*
X144962857Y-83846666D01*
X144962857Y-83941904D01*
X144986666Y-83989523D01*
X145010476Y-84013333D01*
X145058095Y-84037142D01*
X145200952Y-84037142D01*
X145248571Y-84013333D01*
X145272380Y-83989523D01*
X145296190Y-83941904D01*
X145296190Y-83846666D01*
X145272380Y-83799047D01*
D11*
X163749047Y-72675714D02*
X163510952Y-73342380D01*
X163272857Y-72675714D01*
X162463333Y-73342380D02*
X162463333Y-72342380D01*
X162463333Y-73294761D02*
X162558571Y-73342380D01*
X162749047Y-73342380D01*
X162844285Y-73294761D01*
X162891904Y-73247142D01*
X162939523Y-73151904D01*
X162939523Y-72866190D01*
X162891904Y-72770952D01*
X162844285Y-72723333D01*
X162749047Y-72675714D01*
X162558571Y-72675714D01*
X162463333Y-72723333D01*
X161558571Y-73342380D02*
X161558571Y-72342380D01*
X161558571Y-73294761D02*
X161653809Y-73342380D01*
X161844285Y-73342380D01*
X161939523Y-73294761D01*
X161987142Y-73247142D01*
X162034761Y-73151904D01*
X162034761Y-72866190D01*
X161987142Y-72770952D01*
X161939523Y-72723333D01*
X161844285Y-72675714D01*
X161653809Y-72675714D01*
X161558571Y-72723333D01*
X161130000Y-72437619D02*
X161082380Y-72390000D01*
X160987142Y-72342380D01*
X160749047Y-72342380D01*
X160653809Y-72390000D01*
X160606190Y-72437619D01*
X160558571Y-72532857D01*
X160558571Y-72628095D01*
X160606190Y-72770952D01*
X161177619Y-73342380D01*
X160558571Y-73342380D01*
X162379047Y-75235714D02*
X162140952Y-75902380D01*
X161902857Y-75235714D01*
X161093333Y-75902380D02*
X161093333Y-74902380D01*
X161093333Y-75854761D02*
X161188571Y-75902380D01*
X161379047Y-75902380D01*
X161474285Y-75854761D01*
X161521904Y-75807142D01*
X161569523Y-75711904D01*
X161569523Y-75426190D01*
X161521904Y-75330952D01*
X161474285Y-75283333D01*
X161379047Y-75235714D01*
X161188571Y-75235714D01*
X161093333Y-75283333D01*
X160188571Y-75902380D02*
X160188571Y-74902380D01*
X160188571Y-75854761D02*
X160283809Y-75902380D01*
X160474285Y-75902380D01*
X160569523Y-75854761D01*
X160617142Y-75807142D01*
X160664761Y-75711904D01*
X160664761Y-75426190D01*
X160617142Y-75330952D01*
X160569523Y-75283333D01*
X160474285Y-75235714D01*
X160283809Y-75235714D01*
X160188571Y-75283333D01*
X159760000Y-74997619D02*
X159712380Y-74950000D01*
X159617142Y-74902380D01*
X159379047Y-74902380D01*
X159283809Y-74950000D01*
X159236190Y-74997619D01*
X159188571Y-75092857D01*
X159188571Y-75188095D01*
X159236190Y-75330952D01*
X159807619Y-75902380D01*
X159188571Y-75902380D01*
X157982142Y-86763571D02*
X157648809Y-86763571D01*
X157505952Y-87287380D02*
X157982142Y-87287380D01*
X157982142Y-86287380D01*
X157505952Y-86287380D01*
X157077380Y-87192142D02*
X157029761Y-87239761D01*
X157077380Y-87287380D01*
X157125000Y-87239761D01*
X157077380Y-87192142D01*
X157077380Y-87287380D01*
X155886904Y-87001666D02*
X155410714Y-87001666D01*
X155982142Y-87287380D02*
X155648809Y-86287380D01*
X155315476Y-87287380D01*
X154982142Y-86620714D02*
X154982142Y-87287380D01*
X154982142Y-86715952D02*
X154934523Y-86668333D01*
X154839285Y-86620714D01*
X154696428Y-86620714D01*
X154601190Y-86668333D01*
X154553571Y-86763571D01*
X154553571Y-87287380D01*
X153648809Y-86620714D02*
X153648809Y-87430238D01*
X153696428Y-87525476D01*
X153744047Y-87573095D01*
X153839285Y-87620714D01*
X153982142Y-87620714D01*
X154077380Y-87573095D01*
X153648809Y-87239761D02*
X153744047Y-87287380D01*
X153934523Y-87287380D01*
X154029761Y-87239761D01*
X154077380Y-87192142D01*
X154125000Y-87096904D01*
X154125000Y-86811190D01*
X154077380Y-86715952D01*
X154029761Y-86668333D01*
X153934523Y-86620714D01*
X153744047Y-86620714D01*
X153648809Y-86668333D01*
X152791666Y-87239761D02*
X152886904Y-87287380D01*
X153077380Y-87287380D01*
X153172619Y-87239761D01*
X153220238Y-87144523D01*
X153220238Y-86763571D01*
X153172619Y-86668333D01*
X153077380Y-86620714D01*
X152886904Y-86620714D01*
X152791666Y-86668333D01*
X152744047Y-86763571D01*
X152744047Y-86858809D01*
X153220238Y-86954047D01*
X152172619Y-87287380D02*
X152267857Y-87239761D01*
X152315476Y-87144523D01*
X152315476Y-86287380D01*
X151791666Y-87287380D02*
X151791666Y-86620714D01*
X151791666Y-86287380D02*
X151839285Y-86335000D01*
X151791666Y-86382619D01*
X151744047Y-86335000D01*
X151791666Y-86287380D01*
X151791666Y-86382619D01*
X150886904Y-87239761D02*
X150982142Y-87287380D01*
X151172619Y-87287380D01*
X151267857Y-87239761D01*
X151315476Y-87192142D01*
X151363095Y-87096904D01*
X151363095Y-86811190D01*
X151315476Y-86715952D01*
X151267857Y-86668333D01*
X151172619Y-86620714D01*
X150982142Y-86620714D01*
X150886904Y-86668333D01*
X150315476Y-87287380D02*
X150410714Y-87239761D01*
X150458333Y-87192142D01*
X150505952Y-87096904D01*
X150505952Y-86811190D01*
X150458333Y-86715952D01*
X150410714Y-86668333D01*
X150315476Y-86620714D01*
X150172619Y-86620714D01*
X150077380Y-86668333D01*
X150029761Y-86715952D01*
X149982142Y-86811190D01*
X149982142Y-87096904D01*
X150029761Y-87192142D01*
X150077380Y-87239761D01*
X150172619Y-87287380D01*
X150315476Y-87287380D01*
X149505952Y-87239761D02*
X149505952Y-87287380D01*
X149553571Y-87382619D01*
X149601190Y-87430238D01*
X148029761Y-86287380D02*
X148029761Y-87001666D01*
X148077380Y-87144523D01*
X148172619Y-87239761D01*
X148315476Y-87287380D01*
X148410714Y-87287380D01*
X147125000Y-86620714D02*
X147125000Y-87287380D01*
X147553571Y-86620714D02*
X147553571Y-87144523D01*
X147505952Y-87239761D01*
X147410714Y-87287380D01*
X147267857Y-87287380D01*
X147172619Y-87239761D01*
X147125000Y-87192142D01*
X146505952Y-87287380D02*
X146601190Y-87239761D01*
X146648809Y-87144523D01*
X146648809Y-86287380D01*
X146220238Y-86620714D02*
X145982142Y-87287380D01*
X145744047Y-86620714D02*
X145982142Y-87287380D01*
X146077380Y-87525476D01*
X146125000Y-87573095D01*
X146220238Y-87620714D01*
X144648809Y-86382619D02*
X144601190Y-86335000D01*
X144505952Y-86287380D01*
X144267857Y-86287380D01*
X144172619Y-86335000D01*
X144125000Y-86382619D01*
X144077380Y-86477857D01*
X144077380Y-86573095D01*
X144125000Y-86715952D01*
X144696428Y-87287380D01*
X144077380Y-87287380D01*
X143458333Y-86287380D02*
X143363095Y-86287380D01*
X143267857Y-86335000D01*
X143220238Y-86382619D01*
X143172619Y-86477857D01*
X143125000Y-86668333D01*
X143125000Y-86906428D01*
X143172619Y-87096904D01*
X143220238Y-87192142D01*
X143267857Y-87239761D01*
X143363095Y-87287380D01*
X143458333Y-87287380D01*
X143553571Y-87239761D01*
X143601190Y-87192142D01*
X143648809Y-87096904D01*
X143696428Y-86906428D01*
X143696428Y-86668333D01*
X143648809Y-86477857D01*
X143601190Y-86382619D01*
X143553571Y-86335000D01*
X143458333Y-86287380D01*
X142744047Y-86382619D02*
X142696428Y-86335000D01*
X142601190Y-86287380D01*
X142363095Y-86287380D01*
X142267857Y-86335000D01*
X142220238Y-86382619D01*
X142172619Y-86477857D01*
X142172619Y-86573095D01*
X142220238Y-86715952D01*
X142791666Y-87287380D01*
X142172619Y-87287380D01*
X141839285Y-86287380D02*
X141220238Y-86287380D01*
X141553571Y-86668333D01*
X141410714Y-86668333D01*
X141315476Y-86715952D01*
X141267857Y-86763571D01*
X141220238Y-86858809D01*
X141220238Y-87096904D01*
X141267857Y-87192142D01*
X141315476Y-87239761D01*
X141410714Y-87287380D01*
X141696428Y-87287380D01*
X141791666Y-87239761D01*
X141839285Y-87192142D01*
X157363095Y-88802142D02*
X157410714Y-88849761D01*
X157553571Y-88897380D01*
X157648809Y-88897380D01*
X157791666Y-88849761D01*
X157886904Y-88754523D01*
X157934523Y-88659285D01*
X157982142Y-88468809D01*
X157982142Y-88325952D01*
X157934523Y-88135476D01*
X157886904Y-88040238D01*
X157791666Y-87945000D01*
X157648809Y-87897380D01*
X157553571Y-87897380D01*
X157410714Y-87945000D01*
X157363095Y-87992619D01*
X156505952Y-88897380D02*
X156505952Y-88373571D01*
X156553571Y-88278333D01*
X156648809Y-88230714D01*
X156839285Y-88230714D01*
X156934523Y-88278333D01*
X156505952Y-88849761D02*
X156601190Y-88897380D01*
X156839285Y-88897380D01*
X156934523Y-88849761D01*
X156982142Y-88754523D01*
X156982142Y-88659285D01*
X156934523Y-88564047D01*
X156839285Y-88516428D01*
X156601190Y-88516428D01*
X156505952Y-88468809D01*
X156029761Y-88897380D02*
X156029761Y-87897380D01*
X156029761Y-88278333D02*
X155934523Y-88230714D01*
X155744047Y-88230714D01*
X155648809Y-88278333D01*
X155601190Y-88325952D01*
X155553571Y-88421190D01*
X155553571Y-88706904D01*
X155601190Y-88802142D01*
X155648809Y-88849761D01*
X155744047Y-88897380D01*
X155934523Y-88897380D01*
X156029761Y-88849761D01*
X154982142Y-88897380D02*
X155077380Y-88849761D01*
X155125000Y-88754523D01*
X155125000Y-87897380D01*
X154220238Y-88849761D02*
X154315476Y-88897380D01*
X154505952Y-88897380D01*
X154601190Y-88849761D01*
X154648809Y-88754523D01*
X154648809Y-88373571D01*
X154601190Y-88278333D01*
X154505952Y-88230714D01*
X154315476Y-88230714D01*
X154220238Y-88278333D01*
X154172619Y-88373571D01*
X154172619Y-88468809D01*
X154648809Y-88564047D01*
X153791666Y-88611666D02*
X153315476Y-88611666D01*
X153886904Y-88897380D02*
X153553571Y-87897380D01*
X153220238Y-88897380D01*
X152458333Y-88897380D02*
X152458333Y-87897380D01*
X152458333Y-88849761D02*
X152553571Y-88897380D01*
X152744047Y-88897380D01*
X152839285Y-88849761D01*
X152886904Y-88802142D01*
X152934523Y-88706904D01*
X152934523Y-88421190D01*
X152886904Y-88325952D01*
X152839285Y-88278333D01*
X152744047Y-88230714D01*
X152553571Y-88230714D01*
X152458333Y-88278333D01*
X151553571Y-88897380D02*
X151553571Y-88373571D01*
X151601190Y-88278333D01*
X151696428Y-88230714D01*
X151886904Y-88230714D01*
X151982142Y-88278333D01*
X151553571Y-88849761D02*
X151648809Y-88897380D01*
X151886904Y-88897380D01*
X151982142Y-88849761D01*
X152029761Y-88754523D01*
X152029761Y-88659285D01*
X151982142Y-88564047D01*
X151886904Y-88516428D01*
X151648809Y-88516428D01*
X151553571Y-88468809D01*
X151077380Y-88230714D02*
X151077380Y-89230714D01*
X151077380Y-88278333D02*
X150982142Y-88230714D01*
X150791666Y-88230714D01*
X150696428Y-88278333D01*
X150648809Y-88325952D01*
X150601190Y-88421190D01*
X150601190Y-88706904D01*
X150648809Y-88802142D01*
X150696428Y-88849761D01*
X150791666Y-88897380D01*
X150982142Y-88897380D01*
X151077380Y-88849761D01*
X150315476Y-88230714D02*
X149934523Y-88230714D01*
X150172619Y-87897380D02*
X150172619Y-88754523D01*
X150125000Y-88849761D01*
X150029761Y-88897380D01*
X149934523Y-88897380D01*
X149220238Y-88849761D02*
X149315476Y-88897380D01*
X149505952Y-88897380D01*
X149601190Y-88849761D01*
X149648809Y-88754523D01*
X149648809Y-88373571D01*
X149601190Y-88278333D01*
X149505952Y-88230714D01*
X149315476Y-88230714D01*
X149220238Y-88278333D01*
X149172619Y-88373571D01*
X149172619Y-88468809D01*
X149648809Y-88564047D01*
X148744047Y-88897380D02*
X148744047Y-88230714D01*
X148744047Y-88421190D02*
X148696428Y-88325952D01*
X148648809Y-88278333D01*
X148553571Y-88230714D01*
X148458333Y-88230714D01*
X147791666Y-88373571D02*
X147648809Y-88421190D01*
X147601190Y-88468809D01*
X147553571Y-88564047D01*
X147553571Y-88706904D01*
X147601190Y-88802142D01*
X147648809Y-88849761D01*
X147744047Y-88897380D01*
X148125000Y-88897380D01*
X148125000Y-87897380D01*
X147791666Y-87897380D01*
X147696428Y-87945000D01*
X147648809Y-87992619D01*
X147601190Y-88087857D01*
X147601190Y-88183095D01*
X147648809Y-88278333D01*
X147696428Y-88325952D01*
X147791666Y-88373571D01*
X148125000Y-88373571D01*
X146982142Y-88897380D02*
X147077380Y-88849761D01*
X147125000Y-88802142D01*
X147172619Y-88706904D01*
X147172619Y-88421190D01*
X147125000Y-88325952D01*
X147077380Y-88278333D01*
X146982142Y-88230714D01*
X146839285Y-88230714D01*
X146744047Y-88278333D01*
X146696428Y-88325952D01*
X146648809Y-88421190D01*
X146648809Y-88706904D01*
X146696428Y-88802142D01*
X146744047Y-88849761D01*
X146839285Y-88897380D01*
X146982142Y-88897380D01*
X145791666Y-88897380D02*
X145791666Y-88373571D01*
X145839285Y-88278333D01*
X145934523Y-88230714D01*
X146125000Y-88230714D01*
X146220238Y-88278333D01*
X145791666Y-88849761D02*
X145886904Y-88897380D01*
X146125000Y-88897380D01*
X146220238Y-88849761D01*
X146267857Y-88754523D01*
X146267857Y-88659285D01*
X146220238Y-88564047D01*
X146125000Y-88516428D01*
X145886904Y-88516428D01*
X145791666Y-88468809D01*
X145315476Y-88897380D02*
X145315476Y-88230714D01*
X145315476Y-88421190D02*
X145267857Y-88325952D01*
X145220238Y-88278333D01*
X145125000Y-88230714D01*
X145029761Y-88230714D01*
X144267857Y-88897380D02*
X144267857Y-87897380D01*
X144267857Y-88849761D02*
X144363095Y-88897380D01*
X144553571Y-88897380D01*
X144648809Y-88849761D01*
X144696428Y-88802142D01*
X144744047Y-88706904D01*
X144744047Y-88421190D01*
X144696428Y-88325952D01*
X144648809Y-88278333D01*
X144553571Y-88230714D01*
X144363095Y-88230714D01*
X144267857Y-88278333D01*
X143744047Y-88849761D02*
X143744047Y-88897380D01*
X143791666Y-88992619D01*
X143839285Y-89040238D01*
X142648809Y-88230714D02*
X142410714Y-88897380D01*
X142172619Y-88230714D01*
X141839285Y-87992619D02*
X141791666Y-87945000D01*
X141696428Y-87897380D01*
X141458333Y-87897380D01*
X141363095Y-87945000D01*
X141315476Y-87992619D01*
X141267857Y-88087857D01*
X141267857Y-88183095D01*
X141315476Y-88325952D01*
X141886904Y-88897380D01*
X141267857Y-88897380D01*
X160434523Y-89507380D02*
X160434523Y-89697857D01*
X160053571Y-89507380D02*
X160053571Y-89697857D01*
X159720238Y-89507380D02*
X159482142Y-90507380D01*
X159291666Y-89793095D01*
X159101190Y-90507380D01*
X158863095Y-89507380D01*
X158482142Y-90507380D02*
X158482142Y-89840714D01*
X158482142Y-89507380D02*
X158529761Y-89555000D01*
X158482142Y-89602619D01*
X158434523Y-89555000D01*
X158482142Y-89507380D01*
X158482142Y-89602619D01*
X157863095Y-90507380D02*
X157958333Y-90459761D01*
X158005952Y-90364523D01*
X158005952Y-89507380D01*
X157339285Y-90507380D02*
X157434523Y-90459761D01*
X157482142Y-90364523D01*
X157482142Y-89507380D01*
X156244047Y-90459761D02*
X156148809Y-90507380D01*
X155958333Y-90507380D01*
X155863095Y-90459761D01*
X155815476Y-90364523D01*
X155815476Y-90316904D01*
X155863095Y-90221666D01*
X155958333Y-90174047D01*
X156101190Y-90174047D01*
X156196428Y-90126428D01*
X156244047Y-90031190D01*
X156244047Y-89983571D01*
X156196428Y-89888333D01*
X156101190Y-89840714D01*
X155958333Y-89840714D01*
X155863095Y-89888333D01*
X155244047Y-90507380D02*
X155339285Y-90459761D01*
X155386904Y-90412142D01*
X155434523Y-90316904D01*
X155434523Y-90031190D01*
X155386904Y-89935952D01*
X155339285Y-89888333D01*
X155244047Y-89840714D01*
X155101190Y-89840714D01*
X155005952Y-89888333D01*
X154958333Y-89935952D01*
X154910714Y-90031190D01*
X154910714Y-90316904D01*
X154958333Y-90412142D01*
X155005952Y-90459761D01*
X155101190Y-90507380D01*
X155244047Y-90507380D01*
X154482142Y-90507380D02*
X154482142Y-89840714D01*
X154482142Y-89935952D02*
X154434523Y-89888333D01*
X154339285Y-89840714D01*
X154196428Y-89840714D01*
X154101190Y-89888333D01*
X154053571Y-89983571D01*
X154053571Y-90507380D01*
X154053571Y-89983571D02*
X154005952Y-89888333D01*
X153910714Y-89840714D01*
X153767857Y-89840714D01*
X153672619Y-89888333D01*
X153625000Y-89983571D01*
X153625000Y-90507380D01*
X152767857Y-90459761D02*
X152863095Y-90507380D01*
X153053571Y-90507380D01*
X153148809Y-90459761D01*
X153196428Y-90364523D01*
X153196428Y-89983571D01*
X153148809Y-89888333D01*
X153053571Y-89840714D01*
X152863095Y-89840714D01*
X152767857Y-89888333D01*
X152720238Y-89983571D01*
X152720238Y-90078809D01*
X153196428Y-90174047D01*
X152291666Y-90507380D02*
X152291666Y-89507380D01*
X152291666Y-89888333D02*
X152196428Y-89840714D01*
X152005952Y-89840714D01*
X151910714Y-89888333D01*
X151863095Y-89935952D01*
X151815476Y-90031190D01*
X151815476Y-90316904D01*
X151863095Y-90412142D01*
X151910714Y-90459761D01*
X152005952Y-90507380D01*
X152196428Y-90507380D01*
X152291666Y-90459761D01*
X151244047Y-90507380D02*
X151339285Y-90459761D01*
X151386904Y-90412142D01*
X151434523Y-90316904D01*
X151434523Y-90031190D01*
X151386904Y-89935952D01*
X151339285Y-89888333D01*
X151244047Y-89840714D01*
X151101190Y-89840714D01*
X151005952Y-89888333D01*
X150958333Y-89935952D01*
X150910714Y-90031190D01*
X150910714Y-90316904D01*
X150958333Y-90412142D01*
X151005952Y-90459761D01*
X151101190Y-90507380D01*
X151244047Y-90507380D01*
X150053571Y-90507380D02*
X150053571Y-89507380D01*
X150053571Y-90459761D02*
X150148809Y-90507380D01*
X150339285Y-90507380D01*
X150434523Y-90459761D01*
X150482142Y-90412142D01*
X150529761Y-90316904D01*
X150529761Y-90031190D01*
X150482142Y-89935952D01*
X150434523Y-89888333D01*
X150339285Y-89840714D01*
X150148809Y-89840714D01*
X150053571Y-89888333D01*
X149672619Y-89840714D02*
X149434523Y-90507380D01*
X149196428Y-89840714D02*
X149434523Y-90507380D01*
X149529761Y-90745476D01*
X149577380Y-90793095D01*
X149672619Y-90840714D01*
X147625000Y-89840714D02*
X147625000Y-90650238D01*
X147672619Y-90745476D01*
X147720238Y-90793095D01*
X147815476Y-90840714D01*
X147958333Y-90840714D01*
X148053571Y-90793095D01*
X147625000Y-90459761D02*
X147720238Y-90507380D01*
X147910714Y-90507380D01*
X148005952Y-90459761D01*
X148053571Y-90412142D01*
X148101190Y-90316904D01*
X148101190Y-90031190D01*
X148053571Y-89935952D01*
X148005952Y-89888333D01*
X147910714Y-89840714D01*
X147720238Y-89840714D01*
X147625000Y-89888333D01*
X146767857Y-90459761D02*
X146863095Y-90507380D01*
X147053571Y-90507380D01*
X147148809Y-90459761D01*
X147196428Y-90364523D01*
X147196428Y-89983571D01*
X147148809Y-89888333D01*
X147053571Y-89840714D01*
X146863095Y-89840714D01*
X146767857Y-89888333D01*
X146720238Y-89983571D01*
X146720238Y-90078809D01*
X147196428Y-90174047D01*
X146434523Y-89840714D02*
X146053571Y-89840714D01*
X146291666Y-89507380D02*
X146291666Y-90364523D01*
X146244047Y-90459761D01*
X146148809Y-90507380D01*
X146053571Y-90507380D01*
X145101190Y-89840714D02*
X144720238Y-89840714D01*
X144958333Y-89507380D02*
X144958333Y-90364523D01*
X144910714Y-90459761D01*
X144815476Y-90507380D01*
X144720238Y-90507380D01*
X144386904Y-90507380D02*
X144386904Y-89507380D01*
X143958333Y-90507380D02*
X143958333Y-89983571D01*
X144005952Y-89888333D01*
X144101190Y-89840714D01*
X144244047Y-89840714D01*
X144339285Y-89888333D01*
X144386904Y-89935952D01*
X143482142Y-90507380D02*
X143482142Y-89840714D01*
X143482142Y-89507380D02*
X143529761Y-89555000D01*
X143482142Y-89602619D01*
X143434523Y-89555000D01*
X143482142Y-89507380D01*
X143482142Y-89602619D01*
X143053571Y-90459761D02*
X142958333Y-90507380D01*
X142767857Y-90507380D01*
X142672619Y-90459761D01*
X142625000Y-90364523D01*
X142625000Y-90316904D01*
X142672619Y-90221666D01*
X142767857Y-90174047D01*
X142910714Y-90174047D01*
X143005952Y-90126428D01*
X143053571Y-90031190D01*
X143053571Y-89983571D01*
X143005952Y-89888333D01*
X142910714Y-89840714D01*
X142767857Y-89840714D01*
X142672619Y-89888333D01*
X141434523Y-90507380D02*
X141434523Y-89507380D01*
X141434523Y-89888333D02*
X141339285Y-89840714D01*
X141148809Y-89840714D01*
X141053571Y-89888333D01*
X141005952Y-89935952D01*
X140958333Y-90031190D01*
X140958333Y-90316904D01*
X141005952Y-90412142D01*
X141053571Y-90459761D01*
X141148809Y-90507380D01*
X141339285Y-90507380D01*
X141434523Y-90459761D01*
X140529761Y-90507380D02*
X140529761Y-89840714D01*
X140529761Y-89507380D02*
X140577380Y-89555000D01*
X140529761Y-89602619D01*
X140482142Y-89555000D01*
X140529761Y-89507380D01*
X140529761Y-89602619D01*
X139625000Y-89840714D02*
X139625000Y-90650238D01*
X139672619Y-90745476D01*
X139720238Y-90793095D01*
X139815476Y-90840714D01*
X139958333Y-90840714D01*
X140053571Y-90793095D01*
X139625000Y-90459761D02*
X139720238Y-90507380D01*
X139910714Y-90507380D01*
X140005952Y-90459761D01*
X140053571Y-90412142D01*
X140101190Y-90316904D01*
X140101190Y-90031190D01*
X140053571Y-89935952D01*
X140005952Y-89888333D01*
X139910714Y-89840714D01*
X139720238Y-89840714D01*
X139625000Y-89888333D01*
X162053571Y-91450714D02*
X161863095Y-92117380D01*
X161672619Y-91641190D01*
X161482142Y-92117380D01*
X161291666Y-91450714D01*
X160482142Y-92117380D02*
X160482142Y-91593571D01*
X160529761Y-91498333D01*
X160625000Y-91450714D01*
X160815476Y-91450714D01*
X160910714Y-91498333D01*
X160482142Y-92069761D02*
X160577380Y-92117380D01*
X160815476Y-92117380D01*
X160910714Y-92069761D01*
X160958333Y-91974523D01*
X160958333Y-91879285D01*
X160910714Y-91784047D01*
X160815476Y-91736428D01*
X160577380Y-91736428D01*
X160482142Y-91688809D01*
X159863095Y-92117380D02*
X159958333Y-92069761D01*
X160005952Y-91974523D01*
X160005952Y-91117380D01*
X159482142Y-92117380D02*
X159482142Y-91117380D01*
X159386904Y-91736428D02*
X159101190Y-92117380D01*
X159101190Y-91450714D02*
X159482142Y-91831666D01*
X158672619Y-92117380D02*
X158672619Y-91450714D01*
X158672619Y-91117380D02*
X158720238Y-91165000D01*
X158672619Y-91212619D01*
X158625000Y-91165000D01*
X158672619Y-91117380D01*
X158672619Y-91212619D01*
X158196428Y-91450714D02*
X158196428Y-92117380D01*
X158196428Y-91545952D02*
X158148809Y-91498333D01*
X158053571Y-91450714D01*
X157910714Y-91450714D01*
X157815476Y-91498333D01*
X157767857Y-91593571D01*
X157767857Y-92117380D01*
X156863095Y-91450714D02*
X156863095Y-92260238D01*
X156910714Y-92355476D01*
X156958333Y-92403095D01*
X157053571Y-92450714D01*
X157196428Y-92450714D01*
X157291666Y-92403095D01*
X156863095Y-92069761D02*
X156958333Y-92117380D01*
X157148809Y-92117380D01*
X157244047Y-92069761D01*
X157291666Y-92022142D01*
X157339285Y-91926904D01*
X157339285Y-91641190D01*
X157291666Y-91545952D01*
X157244047Y-91498333D01*
X157148809Y-91450714D01*
X156958333Y-91450714D01*
X156863095Y-91498333D01*
X155196428Y-92069761D02*
X155291666Y-92117380D01*
X155482142Y-92117380D01*
X155577380Y-92069761D01*
X155625000Y-92022142D01*
X155672619Y-91926904D01*
X155672619Y-91641190D01*
X155625000Y-91545952D01*
X155577380Y-91498333D01*
X155482142Y-91450714D01*
X155291666Y-91450714D01*
X155196428Y-91498333D01*
X154339285Y-92117380D02*
X154339285Y-91593571D01*
X154386904Y-91498333D01*
X154482142Y-91450714D01*
X154672619Y-91450714D01*
X154767857Y-91498333D01*
X154339285Y-92069761D02*
X154434523Y-92117380D01*
X154672619Y-92117380D01*
X154767857Y-92069761D01*
X154815476Y-91974523D01*
X154815476Y-91879285D01*
X154767857Y-91784047D01*
X154672619Y-91736428D01*
X154434523Y-91736428D01*
X154339285Y-91688809D01*
X153863095Y-92117380D02*
X153863095Y-91450714D01*
X153863095Y-91641190D02*
X153815476Y-91545952D01*
X153767857Y-91498333D01*
X153672619Y-91450714D01*
X153577380Y-91450714D01*
X153244047Y-91450714D02*
X153244047Y-92450714D01*
X153244047Y-91498333D02*
X153148809Y-91450714D01*
X152958333Y-91450714D01*
X152863095Y-91498333D01*
X152815476Y-91545952D01*
X152767857Y-91641190D01*
X152767857Y-91926904D01*
X152815476Y-92022142D01*
X152863095Y-92069761D01*
X152958333Y-92117380D01*
X153148809Y-92117380D01*
X153244047Y-92069761D01*
X151958333Y-92069761D02*
X152053571Y-92117380D01*
X152244047Y-92117380D01*
X152339285Y-92069761D01*
X152386904Y-91974523D01*
X152386904Y-91593571D01*
X152339285Y-91498333D01*
X152244047Y-91450714D01*
X152053571Y-91450714D01*
X151958333Y-91498333D01*
X151910714Y-91593571D01*
X151910714Y-91688809D01*
X152386904Y-91784047D01*
X151625000Y-91450714D02*
X151244047Y-91450714D01*
X151482142Y-91117380D02*
X151482142Y-91974523D01*
X151434523Y-92069761D01*
X151339285Y-92117380D01*
X151244047Y-92117380D01*
X150005952Y-92117380D02*
X150101190Y-92069761D01*
X150148809Y-92022142D01*
X150196428Y-91926904D01*
X150196428Y-91641190D01*
X150148809Y-91545952D01*
X150101190Y-91498333D01*
X150005952Y-91450714D01*
X149863095Y-91450714D01*
X149767857Y-91498333D01*
X149720238Y-91545952D01*
X149672619Y-91641190D01*
X149672619Y-91926904D01*
X149720238Y-92022142D01*
X149767857Y-92069761D01*
X149863095Y-92117380D01*
X150005952Y-92117380D01*
X148815476Y-91450714D02*
X148815476Y-92117380D01*
X149244047Y-91450714D02*
X149244047Y-91974523D01*
X149196428Y-92069761D01*
X149101190Y-92117380D01*
X148958333Y-92117380D01*
X148863095Y-92069761D01*
X148815476Y-92022142D01*
X148482142Y-91450714D02*
X148101190Y-91450714D01*
X148339285Y-91117380D02*
X148339285Y-91974523D01*
X148291666Y-92069761D01*
X148196428Y-92117380D01*
X148101190Y-92117380D01*
X146863095Y-92117380D02*
X146958333Y-92069761D01*
X147005952Y-92022142D01*
X147053571Y-91926904D01*
X147053571Y-91641190D01*
X147005952Y-91545952D01*
X146958333Y-91498333D01*
X146863095Y-91450714D01*
X146720238Y-91450714D01*
X146625000Y-91498333D01*
X146577380Y-91545952D01*
X146529761Y-91641190D01*
X146529761Y-91926904D01*
X146577380Y-92022142D01*
X146625000Y-92069761D01*
X146720238Y-92117380D01*
X146863095Y-92117380D01*
X146244047Y-91450714D02*
X145863095Y-91450714D01*
X146101190Y-92117380D02*
X146101190Y-91260238D01*
X146053571Y-91165000D01*
X145958333Y-91117380D01*
X145863095Y-91117380D01*
X144767857Y-92117380D02*
X144767857Y-91450714D01*
X144767857Y-91545952D02*
X144720238Y-91498333D01*
X144625000Y-91450714D01*
X144482142Y-91450714D01*
X144386904Y-91498333D01*
X144339285Y-91593571D01*
X144339285Y-92117380D01*
X144339285Y-91593571D02*
X144291666Y-91498333D01*
X144196428Y-91450714D01*
X144053571Y-91450714D01*
X143958333Y-91498333D01*
X143910714Y-91593571D01*
X143910714Y-92117380D01*
X143529761Y-91450714D02*
X143291666Y-92117380D01*
X143053571Y-91450714D02*
X143291666Y-92117380D01*
X143386904Y-92355476D01*
X143434523Y-92403095D01*
X143529761Y-92450714D01*
X142005952Y-91450714D02*
X141815476Y-92117380D01*
X141625000Y-91641190D01*
X141434523Y-92117380D01*
X141244047Y-91450714D01*
X140434523Y-92117380D02*
X140434523Y-91593571D01*
X140482142Y-91498333D01*
X140577380Y-91450714D01*
X140767857Y-91450714D01*
X140863095Y-91498333D01*
X140434523Y-92069761D02*
X140529761Y-92117380D01*
X140767857Y-92117380D01*
X140863095Y-92069761D01*
X140910714Y-91974523D01*
X140910714Y-91879285D01*
X140863095Y-91784047D01*
X140767857Y-91736428D01*
X140529761Y-91736428D01*
X140434523Y-91688809D01*
X140053571Y-91450714D02*
X139815476Y-92117380D01*
X139577380Y-91450714D02*
X139815476Y-92117380D01*
X139910714Y-92355476D01*
X139958333Y-92403095D01*
X140053571Y-92450714D01*
X139053571Y-92022142D02*
X139005952Y-92069761D01*
X139053571Y-92117380D01*
X139101190Y-92069761D01*
X139053571Y-92022142D01*
X139053571Y-92117380D01*
X139244047Y-91165000D02*
X139148809Y-91117380D01*
X138910714Y-91117380D01*
X138815476Y-91165000D01*
X138767857Y-91260238D01*
X138767857Y-91355476D01*
X138815476Y-91450714D01*
X138863095Y-91498333D01*
X138958333Y-91545952D01*
X139005952Y-91593571D01*
X139053571Y-91688809D01*
X139053571Y-91736428D01*
X138386904Y-91117380D02*
X138386904Y-91307857D01*
X138005952Y-91117380D02*
X138005952Y-91307857D01*
D15*
X156336190Y-79503333D02*
X156002857Y-79503333D01*
X156098095Y-79503333D02*
X156050476Y-79527142D01*
X156026666Y-79550952D01*
X156002857Y-79598571D01*
X156002857Y-79646190D01*
X156336190Y-80027142D02*
X155836190Y-80027142D01*
X156312380Y-80027142D02*
X156336190Y-79979523D01*
X156336190Y-79884285D01*
X156312380Y-79836666D01*
X156288571Y-79812857D01*
X156240952Y-79789047D01*
X156098095Y-79789047D01*
X156050476Y-79812857D01*
X156026666Y-79836666D01*
X156002857Y-79884285D01*
X156002857Y-79979523D01*
X156026666Y-80027142D01*
X156383809Y-80146190D02*
X156383809Y-80527142D01*
X156312380Y-80860476D02*
X156336190Y-80812857D01*
X156336190Y-80717619D01*
X156312380Y-80670000D01*
X156288571Y-80646190D01*
X156240952Y-80622380D01*
X156098095Y-80622380D01*
X156050476Y-80646190D01*
X156026666Y-80670000D01*
X156002857Y-80717619D01*
X156002857Y-80812857D01*
X156026666Y-80860476D01*
X156336190Y-81146190D02*
X156312380Y-81098571D01*
X156264761Y-81074761D01*
X155836190Y-81074761D01*
X156336190Y-81336666D02*
X155836190Y-81336666D01*
X156145714Y-81384285D02*
X156336190Y-81527142D01*
X156002857Y-81527142D02*
X156193333Y-81336666D01*
X156383809Y-81622380D02*
X156383809Y-82003333D01*
X156002857Y-82122380D02*
X156502857Y-82122380D01*
X156026666Y-82122380D02*
X156002857Y-82170000D01*
X156002857Y-82265238D01*
X156026666Y-82312857D01*
X156050476Y-82336666D01*
X156098095Y-82360476D01*
X156240952Y-82360476D01*
X156288571Y-82336666D01*
X156312380Y-82312857D01*
X156336190Y-82265238D01*
X156336190Y-82170000D01*
X156312380Y-82122380D01*
X139816190Y-79569047D02*
X139554285Y-79569047D01*
X139506666Y-79545238D01*
X139482857Y-79497619D01*
X139482857Y-79402380D01*
X139506666Y-79354761D01*
X139792380Y-79569047D02*
X139816190Y-79521428D01*
X139816190Y-79402380D01*
X139792380Y-79354761D01*
X139744761Y-79330952D01*
X139697142Y-79330952D01*
X139649523Y-79354761D01*
X139625714Y-79402380D01*
X139625714Y-79521428D01*
X139601904Y-79569047D01*
X139792380Y-79783333D02*
X139816190Y-79830952D01*
X139816190Y-79926190D01*
X139792380Y-79973809D01*
X139744761Y-79997619D01*
X139720952Y-79997619D01*
X139673333Y-79973809D01*
X139649523Y-79926190D01*
X139649523Y-79854761D01*
X139625714Y-79807142D01*
X139578095Y-79783333D01*
X139554285Y-79783333D01*
X139506666Y-79807142D01*
X139482857Y-79854761D01*
X139482857Y-79926190D01*
X139506666Y-79973809D01*
X139816190Y-80211904D02*
X139482857Y-80211904D01*
X139316190Y-80211904D02*
X139340000Y-80188095D01*
X139363809Y-80211904D01*
X139340000Y-80235714D01*
X139316190Y-80211904D01*
X139363809Y-80211904D01*
X139792380Y-80664285D02*
X139816190Y-80616666D01*
X139816190Y-80521428D01*
X139792380Y-80473809D01*
X139768571Y-80450000D01*
X139720952Y-80426190D01*
X139578095Y-80426190D01*
X139530476Y-80450000D01*
X139506666Y-80473809D01*
X139482857Y-80521428D01*
X139482857Y-80616666D01*
X139506666Y-80664285D01*
X139863809Y-80759523D02*
X139863809Y-81140476D01*
X139792380Y-81235714D02*
X139816190Y-81283333D01*
X139816190Y-81378571D01*
X139792380Y-81426190D01*
X139744761Y-81450000D01*
X139720952Y-81450000D01*
X139673333Y-81426190D01*
X139649523Y-81378571D01*
X139649523Y-81307142D01*
X139625714Y-81259523D01*
X139578095Y-81235714D01*
X139554285Y-81235714D01*
X139506666Y-81259523D01*
X139482857Y-81307142D01*
X139482857Y-81378571D01*
X139506666Y-81426190D01*
X139816190Y-81664285D02*
X139482857Y-81664285D01*
X139578095Y-81664285D02*
X139530476Y-81688095D01*
X139506666Y-81711904D01*
X139482857Y-81759523D01*
X139482857Y-81807142D01*
X139316190Y-82069047D02*
X139316190Y-82116666D01*
X139340000Y-82164285D01*
X139363809Y-82188095D01*
X139411428Y-82211904D01*
X139506666Y-82235714D01*
X139625714Y-82235714D01*
X139720952Y-82211904D01*
X139768571Y-82188095D01*
X139792380Y-82164285D01*
X139816190Y-82116666D01*
X139816190Y-82069047D01*
X139792380Y-82021428D01*
X139768571Y-81997619D01*
X139720952Y-81973809D01*
X139625714Y-81950000D01*
X139506666Y-81950000D01*
X139411428Y-81973809D01*
X139363809Y-81997619D01*
X139340000Y-82021428D01*
X139316190Y-82069047D01*
X139863809Y-82330952D02*
X139863809Y-82711904D01*
X139482857Y-82830952D02*
X139982857Y-82830952D01*
X139506666Y-82830952D02*
X139482857Y-82878571D01*
X139482857Y-82973809D01*
X139506666Y-83021428D01*
X139530476Y-83045238D01*
X139578095Y-83069047D01*
X139720952Y-83069047D01*
X139768571Y-83045238D01*
X139792380Y-83021428D01*
X139816190Y-82973809D01*
X139816190Y-82878571D01*
X139792380Y-82830952D01*
X128575219Y-68999009D02*
X128625727Y-69015845D01*
X128693070Y-69083189D01*
X128709906Y-69133696D01*
X128693070Y-69184204D01*
X128676234Y-69201040D01*
X128625727Y-69217876D01*
X128575219Y-69201040D01*
X128524712Y-69150532D01*
X128474204Y-69133696D01*
X128423696Y-69150532D01*
X128406860Y-69167368D01*
X128390024Y-69217876D01*
X128406860Y-69268383D01*
X128457368Y-69318891D01*
X128507876Y-69335727D01*
X129046624Y-69436742D02*
X128861429Y-69621937D01*
X128810921Y-69638773D01*
X128760414Y-69621937D01*
X128693070Y-69554593D01*
X128676234Y-69504086D01*
X129029788Y-69453578D02*
X129012952Y-69403070D01*
X128928773Y-69318891D01*
X128878265Y-69302055D01*
X128827757Y-69318891D01*
X128794086Y-69352563D01*
X128777250Y-69403070D01*
X128794086Y-69453578D01*
X128878265Y-69537757D01*
X128895101Y-69588265D01*
X129349669Y-69773460D02*
X129332834Y-69722952D01*
X129265490Y-69655608D01*
X129214982Y-69638773D01*
X129181311Y-69638773D01*
X129130803Y-69655608D01*
X129029788Y-69756624D01*
X129012952Y-69807131D01*
X129012952Y-69840803D01*
X129029788Y-69891311D01*
X129097131Y-69958654D01*
X129147639Y-69975490D01*
X129518028Y-69908147D02*
X129282326Y-70143849D01*
X129164475Y-70261700D02*
X129164475Y-70228028D01*
X129198147Y-70228028D01*
X129198147Y-70261700D01*
X129164475Y-70261700D01*
X129198147Y-70228028D01*
X129635879Y-69958654D02*
X129905253Y-70228028D01*
X130090448Y-70514238D02*
X130073612Y-70463730D01*
X130006269Y-70396387D01*
X129955761Y-70379551D01*
X129922089Y-70379551D01*
X129871582Y-70396387D01*
X129770566Y-70497402D01*
X129753730Y-70547910D01*
X129753730Y-70581582D01*
X129770566Y-70632089D01*
X129837910Y-70699433D01*
X129888417Y-70716269D01*
X130258807Y-70648925D02*
X130023104Y-70884627D01*
X130056776Y-70850956D02*
X130056776Y-70884627D01*
X130073612Y-70935135D01*
X130124120Y-70985643D01*
X130174627Y-71002478D01*
X130225135Y-70985643D01*
X130410330Y-70800448D01*
X130225135Y-70985643D02*
X130208299Y-71036150D01*
X130225135Y-71086658D01*
X130275643Y-71137165D01*
X130326150Y-71154001D01*
X130376658Y-71137165D01*
X130561852Y-70951971D01*
X130881734Y-71271852D02*
X130528181Y-71625406D01*
X130864898Y-71288688D02*
X130848062Y-71238181D01*
X130780719Y-71170837D01*
X130730211Y-71154001D01*
X130696539Y-71154001D01*
X130646032Y-71170837D01*
X130545017Y-71271852D01*
X130528181Y-71322360D01*
X130528181Y-71356032D01*
X130545017Y-71406539D01*
X130612360Y-71473883D01*
X130662868Y-71490719D01*
X130999585Y-71322360D02*
X131268959Y-71591734D01*
X131083765Y-71945287D02*
X131319467Y-71709585D01*
X131117436Y-71911616D02*
X131117436Y-71945287D01*
X131134272Y-71995795D01*
X131184780Y-72046303D01*
X131235287Y-72063139D01*
X131285795Y-72046303D01*
X131470990Y-71861108D01*
D11*
X120669047Y-79645714D02*
X120430952Y-80312380D01*
X120192857Y-79645714D01*
X119383333Y-80312380D02*
X119383333Y-79312380D01*
X119383333Y-80264761D02*
X119478571Y-80312380D01*
X119669047Y-80312380D01*
X119764285Y-80264761D01*
X119811904Y-80217142D01*
X119859523Y-80121904D01*
X119859523Y-79836190D01*
X119811904Y-79740952D01*
X119764285Y-79693333D01*
X119669047Y-79645714D01*
X119478571Y-79645714D01*
X119383333Y-79693333D01*
X118478571Y-80312380D02*
X118478571Y-79312380D01*
X118478571Y-80264761D02*
X118573809Y-80312380D01*
X118764285Y-80312380D01*
X118859523Y-80264761D01*
X118907142Y-80217142D01*
X118954761Y-80121904D01*
X118954761Y-79836190D01*
X118907142Y-79740952D01*
X118859523Y-79693333D01*
X118764285Y-79645714D01*
X118573809Y-79645714D01*
X118478571Y-79693333D01*
X117478571Y-80312380D02*
X118050000Y-80312380D01*
X117764285Y-80312380D02*
X117764285Y-79312380D01*
X117859523Y-79455238D01*
X117954761Y-79550476D01*
X118050000Y-79598095D01*
M02*
