%TF.GenerationSoftware,KiCad,Pcbnew,7.0.7*%
%TF.CreationDate,2023-10-12T14:51:16-07:00*%
%TF.ProjectId,CableAdapterBoard,4361626c-6541-4646-9170-746572426f61,rev?*%
%TF.SameCoordinates,Original*%
%TF.FileFunction,Legend,Bot*%
%TF.FilePolarity,Positive*%
%FSLAX46Y46*%
G04 Gerber Fmt 4.6, Leading zero omitted, Abs format (unit mm)*
G04 Created by KiCad (PCBNEW 7.0.7) date 2023-10-12 14:51:16*
%MOMM*%
%LPD*%
G01*
G04 APERTURE LIST*
%ADD10C,0.100000*%
%ADD11C,0.150000*%
%ADD12C,0.300000*%
%ADD13C,0.400000*%
%ADD14C,0.125000*%
%TA.AperFunction,Profile*%
%ADD15C,0.100000*%
%TD*%
G04 APERTURE END LIST*
D10*
D11*
X177002200Y-166007200D02*
X285002200Y-166007200D01*
X285002200Y-198007200D01*
X177002200Y-198007200D01*
X177002200Y-166007200D01*
D10*
D11*
X10000000Y-10000000D02*
X287002200Y-10000000D01*
X287002200Y-200007200D01*
X10000000Y-200007200D01*
X10000000Y-10000000D01*
D10*
D11*
X12000000Y-12000000D02*
X285002200Y-12000000D01*
X285002200Y-198007200D01*
X12000000Y-198007200D01*
X12000000Y-12000000D01*
D10*
D11*
X60000000Y-12000000D02*
X60000000Y-10000000D01*
D10*
D11*
X110000000Y-12000000D02*
X110000000Y-10000000D01*
D10*
D11*
X160000000Y-12000000D02*
X160000000Y-10000000D01*
D10*
D11*
X210000000Y-12000000D02*
X210000000Y-10000000D01*
D10*
D11*
X260000000Y-12000000D02*
X260000000Y-10000000D01*
D10*
D11*
X36089160Y-11593604D02*
X35346303Y-11593604D01*
X35717731Y-11593604D02*
X35717731Y-10293604D01*
X35717731Y-10293604D02*
X35593922Y-10479319D01*
X35593922Y-10479319D02*
X35470112Y-10603128D01*
X35470112Y-10603128D02*
X35346303Y-10665033D01*
D10*
D11*
X85346303Y-10417414D02*
X85408207Y-10355509D01*
X85408207Y-10355509D02*
X85532017Y-10293604D01*
X85532017Y-10293604D02*
X85841541Y-10293604D01*
X85841541Y-10293604D02*
X85965350Y-10355509D01*
X85965350Y-10355509D02*
X86027255Y-10417414D01*
X86027255Y-10417414D02*
X86089160Y-10541223D01*
X86089160Y-10541223D02*
X86089160Y-10665033D01*
X86089160Y-10665033D02*
X86027255Y-10850747D01*
X86027255Y-10850747D02*
X85284398Y-11593604D01*
X85284398Y-11593604D02*
X86089160Y-11593604D01*
D10*
D11*
X135284398Y-10293604D02*
X136089160Y-10293604D01*
X136089160Y-10293604D02*
X135655826Y-10788842D01*
X135655826Y-10788842D02*
X135841541Y-10788842D01*
X135841541Y-10788842D02*
X135965350Y-10850747D01*
X135965350Y-10850747D02*
X136027255Y-10912652D01*
X136027255Y-10912652D02*
X136089160Y-11036461D01*
X136089160Y-11036461D02*
X136089160Y-11345985D01*
X136089160Y-11345985D02*
X136027255Y-11469795D01*
X136027255Y-11469795D02*
X135965350Y-11531700D01*
X135965350Y-11531700D02*
X135841541Y-11593604D01*
X135841541Y-11593604D02*
X135470112Y-11593604D01*
X135470112Y-11593604D02*
X135346303Y-11531700D01*
X135346303Y-11531700D02*
X135284398Y-11469795D01*
D10*
D11*
X185965350Y-10726938D02*
X185965350Y-11593604D01*
X185655826Y-10231700D02*
X185346303Y-11160271D01*
X185346303Y-11160271D02*
X186151064Y-11160271D01*
D10*
D11*
X236027255Y-10293604D02*
X235408207Y-10293604D01*
X235408207Y-10293604D02*
X235346303Y-10912652D01*
X235346303Y-10912652D02*
X235408207Y-10850747D01*
X235408207Y-10850747D02*
X235532017Y-10788842D01*
X235532017Y-10788842D02*
X235841541Y-10788842D01*
X235841541Y-10788842D02*
X235965350Y-10850747D01*
X235965350Y-10850747D02*
X236027255Y-10912652D01*
X236027255Y-10912652D02*
X236089160Y-11036461D01*
X236089160Y-11036461D02*
X236089160Y-11345985D01*
X236089160Y-11345985D02*
X236027255Y-11469795D01*
X236027255Y-11469795D02*
X235965350Y-11531700D01*
X235965350Y-11531700D02*
X235841541Y-11593604D01*
X235841541Y-11593604D02*
X235532017Y-11593604D01*
X235532017Y-11593604D02*
X235408207Y-11531700D01*
X235408207Y-11531700D02*
X235346303Y-11469795D01*
D10*
D11*
X285965350Y-10293604D02*
X285717731Y-10293604D01*
X285717731Y-10293604D02*
X285593922Y-10355509D01*
X285593922Y-10355509D02*
X285532017Y-10417414D01*
X285532017Y-10417414D02*
X285408207Y-10603128D01*
X285408207Y-10603128D02*
X285346303Y-10850747D01*
X285346303Y-10850747D02*
X285346303Y-11345985D01*
X285346303Y-11345985D02*
X285408207Y-11469795D01*
X285408207Y-11469795D02*
X285470112Y-11531700D01*
X285470112Y-11531700D02*
X285593922Y-11593604D01*
X285593922Y-11593604D02*
X285841541Y-11593604D01*
X285841541Y-11593604D02*
X285965350Y-11531700D01*
X285965350Y-11531700D02*
X286027255Y-11469795D01*
X286027255Y-11469795D02*
X286089160Y-11345985D01*
X286089160Y-11345985D02*
X286089160Y-11036461D01*
X286089160Y-11036461D02*
X286027255Y-10912652D01*
X286027255Y-10912652D02*
X285965350Y-10850747D01*
X285965350Y-10850747D02*
X285841541Y-10788842D01*
X285841541Y-10788842D02*
X285593922Y-10788842D01*
X285593922Y-10788842D02*
X285470112Y-10850747D01*
X285470112Y-10850747D02*
X285408207Y-10912652D01*
X285408207Y-10912652D02*
X285346303Y-11036461D01*
D10*
D11*
X60000000Y-198007200D02*
X60000000Y-200007200D01*
D10*
D11*
X110000000Y-198007200D02*
X110000000Y-200007200D01*
D10*
D11*
X160000000Y-198007200D02*
X160000000Y-200007200D01*
D10*
D11*
X210000000Y-198007200D02*
X210000000Y-200007200D01*
D10*
D11*
X260000000Y-198007200D02*
X260000000Y-200007200D01*
D10*
D11*
X36089160Y-199600804D02*
X35346303Y-199600804D01*
X35717731Y-199600804D02*
X35717731Y-198300804D01*
X35717731Y-198300804D02*
X35593922Y-198486519D01*
X35593922Y-198486519D02*
X35470112Y-198610328D01*
X35470112Y-198610328D02*
X35346303Y-198672233D01*
D10*
D11*
X85346303Y-198424614D02*
X85408207Y-198362709D01*
X85408207Y-198362709D02*
X85532017Y-198300804D01*
X85532017Y-198300804D02*
X85841541Y-198300804D01*
X85841541Y-198300804D02*
X85965350Y-198362709D01*
X85965350Y-198362709D02*
X86027255Y-198424614D01*
X86027255Y-198424614D02*
X86089160Y-198548423D01*
X86089160Y-198548423D02*
X86089160Y-198672233D01*
X86089160Y-198672233D02*
X86027255Y-198857947D01*
X86027255Y-198857947D02*
X85284398Y-199600804D01*
X85284398Y-199600804D02*
X86089160Y-199600804D01*
D10*
D11*
X135284398Y-198300804D02*
X136089160Y-198300804D01*
X136089160Y-198300804D02*
X135655826Y-198796042D01*
X135655826Y-198796042D02*
X135841541Y-198796042D01*
X135841541Y-198796042D02*
X135965350Y-198857947D01*
X135965350Y-198857947D02*
X136027255Y-198919852D01*
X136027255Y-198919852D02*
X136089160Y-199043661D01*
X136089160Y-199043661D02*
X136089160Y-199353185D01*
X136089160Y-199353185D02*
X136027255Y-199476995D01*
X136027255Y-199476995D02*
X135965350Y-199538900D01*
X135965350Y-199538900D02*
X135841541Y-199600804D01*
X135841541Y-199600804D02*
X135470112Y-199600804D01*
X135470112Y-199600804D02*
X135346303Y-199538900D01*
X135346303Y-199538900D02*
X135284398Y-199476995D01*
D10*
D11*
X185965350Y-198734138D02*
X185965350Y-199600804D01*
X185655826Y-198238900D02*
X185346303Y-199167471D01*
X185346303Y-199167471D02*
X186151064Y-199167471D01*
D10*
D11*
X236027255Y-198300804D02*
X235408207Y-198300804D01*
X235408207Y-198300804D02*
X235346303Y-198919852D01*
X235346303Y-198919852D02*
X235408207Y-198857947D01*
X235408207Y-198857947D02*
X235532017Y-198796042D01*
X235532017Y-198796042D02*
X235841541Y-198796042D01*
X235841541Y-198796042D02*
X235965350Y-198857947D01*
X235965350Y-198857947D02*
X236027255Y-198919852D01*
X236027255Y-198919852D02*
X236089160Y-199043661D01*
X236089160Y-199043661D02*
X236089160Y-199353185D01*
X236089160Y-199353185D02*
X236027255Y-199476995D01*
X236027255Y-199476995D02*
X235965350Y-199538900D01*
X235965350Y-199538900D02*
X235841541Y-199600804D01*
X235841541Y-199600804D02*
X235532017Y-199600804D01*
X235532017Y-199600804D02*
X235408207Y-199538900D01*
X235408207Y-199538900D02*
X235346303Y-199476995D01*
D10*
D11*
X285965350Y-198300804D02*
X285717731Y-198300804D01*
X285717731Y-198300804D02*
X285593922Y-198362709D01*
X285593922Y-198362709D02*
X285532017Y-198424614D01*
X285532017Y-198424614D02*
X285408207Y-198610328D01*
X285408207Y-198610328D02*
X285346303Y-198857947D01*
X285346303Y-198857947D02*
X285346303Y-199353185D01*
X285346303Y-199353185D02*
X285408207Y-199476995D01*
X285408207Y-199476995D02*
X285470112Y-199538900D01*
X285470112Y-199538900D02*
X285593922Y-199600804D01*
X285593922Y-199600804D02*
X285841541Y-199600804D01*
X285841541Y-199600804D02*
X285965350Y-199538900D01*
X285965350Y-199538900D02*
X286027255Y-199476995D01*
X286027255Y-199476995D02*
X286089160Y-199353185D01*
X286089160Y-199353185D02*
X286089160Y-199043661D01*
X286089160Y-199043661D02*
X286027255Y-198919852D01*
X286027255Y-198919852D02*
X285965350Y-198857947D01*
X285965350Y-198857947D02*
X285841541Y-198796042D01*
X285841541Y-198796042D02*
X285593922Y-198796042D01*
X285593922Y-198796042D02*
X285470112Y-198857947D01*
X285470112Y-198857947D02*
X285408207Y-198919852D01*
X285408207Y-198919852D02*
X285346303Y-199043661D01*
D10*
D11*
X10000000Y-60000000D02*
X12000000Y-60000000D01*
D10*
D11*
X10000000Y-110000000D02*
X12000000Y-110000000D01*
D10*
D11*
X10000000Y-160000000D02*
X12000000Y-160000000D01*
D10*
D11*
X10690476Y-35222176D02*
X11309523Y-35222176D01*
X10566666Y-35593604D02*
X10999999Y-34293604D01*
X10999999Y-34293604D02*
X11433333Y-35593604D01*
D10*
D11*
X11092857Y-84912652D02*
X11278571Y-84974557D01*
X11278571Y-84974557D02*
X11340476Y-85036461D01*
X11340476Y-85036461D02*
X11402380Y-85160271D01*
X11402380Y-85160271D02*
X11402380Y-85345985D01*
X11402380Y-85345985D02*
X11340476Y-85469795D01*
X11340476Y-85469795D02*
X11278571Y-85531700D01*
X11278571Y-85531700D02*
X11154761Y-85593604D01*
X11154761Y-85593604D02*
X10659523Y-85593604D01*
X10659523Y-85593604D02*
X10659523Y-84293604D01*
X10659523Y-84293604D02*
X11092857Y-84293604D01*
X11092857Y-84293604D02*
X11216666Y-84355509D01*
X11216666Y-84355509D02*
X11278571Y-84417414D01*
X11278571Y-84417414D02*
X11340476Y-84541223D01*
X11340476Y-84541223D02*
X11340476Y-84665033D01*
X11340476Y-84665033D02*
X11278571Y-84788842D01*
X11278571Y-84788842D02*
X11216666Y-84850747D01*
X11216666Y-84850747D02*
X11092857Y-84912652D01*
X11092857Y-84912652D02*
X10659523Y-84912652D01*
D10*
D11*
X11402380Y-135469795D02*
X11340476Y-135531700D01*
X11340476Y-135531700D02*
X11154761Y-135593604D01*
X11154761Y-135593604D02*
X11030952Y-135593604D01*
X11030952Y-135593604D02*
X10845238Y-135531700D01*
X10845238Y-135531700D02*
X10721428Y-135407890D01*
X10721428Y-135407890D02*
X10659523Y-135284080D01*
X10659523Y-135284080D02*
X10597619Y-135036461D01*
X10597619Y-135036461D02*
X10597619Y-134850747D01*
X10597619Y-134850747D02*
X10659523Y-134603128D01*
X10659523Y-134603128D02*
X10721428Y-134479319D01*
X10721428Y-134479319D02*
X10845238Y-134355509D01*
X10845238Y-134355509D02*
X11030952Y-134293604D01*
X11030952Y-134293604D02*
X11154761Y-134293604D01*
X11154761Y-134293604D02*
X11340476Y-134355509D01*
X11340476Y-134355509D02*
X11402380Y-134417414D01*
D10*
D11*
X10659523Y-185593604D02*
X10659523Y-184293604D01*
X10659523Y-184293604D02*
X10969047Y-184293604D01*
X10969047Y-184293604D02*
X11154761Y-184355509D01*
X11154761Y-184355509D02*
X11278571Y-184479319D01*
X11278571Y-184479319D02*
X11340476Y-184603128D01*
X11340476Y-184603128D02*
X11402380Y-184850747D01*
X11402380Y-184850747D02*
X11402380Y-185036461D01*
X11402380Y-185036461D02*
X11340476Y-185284080D01*
X11340476Y-185284080D02*
X11278571Y-185407890D01*
X11278571Y-185407890D02*
X11154761Y-185531700D01*
X11154761Y-185531700D02*
X10969047Y-185593604D01*
X10969047Y-185593604D02*
X10659523Y-185593604D01*
D10*
D11*
X287002200Y-60000000D02*
X285002200Y-60000000D01*
D10*
D11*
X287002200Y-110000000D02*
X285002200Y-110000000D01*
D10*
D11*
X287002200Y-160000000D02*
X285002200Y-160000000D01*
D10*
D11*
X285692676Y-35222176D02*
X286311723Y-35222176D01*
X285568866Y-35593604D02*
X286002199Y-34293604D01*
X286002199Y-34293604D02*
X286435533Y-35593604D01*
D10*
D11*
X286095057Y-84912652D02*
X286280771Y-84974557D01*
X286280771Y-84974557D02*
X286342676Y-85036461D01*
X286342676Y-85036461D02*
X286404580Y-85160271D01*
X286404580Y-85160271D02*
X286404580Y-85345985D01*
X286404580Y-85345985D02*
X286342676Y-85469795D01*
X286342676Y-85469795D02*
X286280771Y-85531700D01*
X286280771Y-85531700D02*
X286156961Y-85593604D01*
X286156961Y-85593604D02*
X285661723Y-85593604D01*
X285661723Y-85593604D02*
X285661723Y-84293604D01*
X285661723Y-84293604D02*
X286095057Y-84293604D01*
X286095057Y-84293604D02*
X286218866Y-84355509D01*
X286218866Y-84355509D02*
X286280771Y-84417414D01*
X286280771Y-84417414D02*
X286342676Y-84541223D01*
X286342676Y-84541223D02*
X286342676Y-84665033D01*
X286342676Y-84665033D02*
X286280771Y-84788842D01*
X286280771Y-84788842D02*
X286218866Y-84850747D01*
X286218866Y-84850747D02*
X286095057Y-84912652D01*
X286095057Y-84912652D02*
X285661723Y-84912652D01*
D10*
D11*
X286404580Y-135469795D02*
X286342676Y-135531700D01*
X286342676Y-135531700D02*
X286156961Y-135593604D01*
X286156961Y-135593604D02*
X286033152Y-135593604D01*
X286033152Y-135593604D02*
X285847438Y-135531700D01*
X285847438Y-135531700D02*
X285723628Y-135407890D01*
X285723628Y-135407890D02*
X285661723Y-135284080D01*
X285661723Y-135284080D02*
X285599819Y-135036461D01*
X285599819Y-135036461D02*
X285599819Y-134850747D01*
X285599819Y-134850747D02*
X285661723Y-134603128D01*
X285661723Y-134603128D02*
X285723628Y-134479319D01*
X285723628Y-134479319D02*
X285847438Y-134355509D01*
X285847438Y-134355509D02*
X286033152Y-134293604D01*
X286033152Y-134293604D02*
X286156961Y-134293604D01*
X286156961Y-134293604D02*
X286342676Y-134355509D01*
X286342676Y-134355509D02*
X286404580Y-134417414D01*
D10*
D11*
X285661723Y-185593604D02*
X285661723Y-184293604D01*
X285661723Y-184293604D02*
X285971247Y-184293604D01*
X285971247Y-184293604D02*
X286156961Y-184355509D01*
X286156961Y-184355509D02*
X286280771Y-184479319D01*
X286280771Y-184479319D02*
X286342676Y-184603128D01*
X286342676Y-184603128D02*
X286404580Y-184850747D01*
X286404580Y-184850747D02*
X286404580Y-185036461D01*
X286404580Y-185036461D02*
X286342676Y-185284080D01*
X286342676Y-185284080D02*
X286280771Y-185407890D01*
X286280771Y-185407890D02*
X286156961Y-185531700D01*
X286156961Y-185531700D02*
X285971247Y-185593604D01*
X285971247Y-185593604D02*
X285661723Y-185593604D01*
D10*
D11*
X200458026Y-193793328D02*
X200458026Y-192293328D01*
X200458026Y-192293328D02*
X200815169Y-192293328D01*
X200815169Y-192293328D02*
X201029455Y-192364757D01*
X201029455Y-192364757D02*
X201172312Y-192507614D01*
X201172312Y-192507614D02*
X201243741Y-192650471D01*
X201243741Y-192650471D02*
X201315169Y-192936185D01*
X201315169Y-192936185D02*
X201315169Y-193150471D01*
X201315169Y-193150471D02*
X201243741Y-193436185D01*
X201243741Y-193436185D02*
X201172312Y-193579042D01*
X201172312Y-193579042D02*
X201029455Y-193721900D01*
X201029455Y-193721900D02*
X200815169Y-193793328D01*
X200815169Y-193793328D02*
X200458026Y-193793328D01*
X202600884Y-193793328D02*
X202600884Y-193007614D01*
X202600884Y-193007614D02*
X202529455Y-192864757D01*
X202529455Y-192864757D02*
X202386598Y-192793328D01*
X202386598Y-192793328D02*
X202100884Y-192793328D01*
X202100884Y-192793328D02*
X201958026Y-192864757D01*
X202600884Y-193721900D02*
X202458026Y-193793328D01*
X202458026Y-193793328D02*
X202100884Y-193793328D01*
X202100884Y-193793328D02*
X201958026Y-193721900D01*
X201958026Y-193721900D02*
X201886598Y-193579042D01*
X201886598Y-193579042D02*
X201886598Y-193436185D01*
X201886598Y-193436185D02*
X201958026Y-193293328D01*
X201958026Y-193293328D02*
X202100884Y-193221900D01*
X202100884Y-193221900D02*
X202458026Y-193221900D01*
X202458026Y-193221900D02*
X202600884Y-193150471D01*
X203100884Y-192793328D02*
X203672312Y-192793328D01*
X203315169Y-192293328D02*
X203315169Y-193579042D01*
X203315169Y-193579042D02*
X203386598Y-193721900D01*
X203386598Y-193721900D02*
X203529455Y-193793328D01*
X203529455Y-193793328D02*
X203672312Y-193793328D01*
X204743741Y-193721900D02*
X204600884Y-193793328D01*
X204600884Y-193793328D02*
X204315170Y-193793328D01*
X204315170Y-193793328D02*
X204172312Y-193721900D01*
X204172312Y-193721900D02*
X204100884Y-193579042D01*
X204100884Y-193579042D02*
X204100884Y-193007614D01*
X204100884Y-193007614D02*
X204172312Y-192864757D01*
X204172312Y-192864757D02*
X204315170Y-192793328D01*
X204315170Y-192793328D02*
X204600884Y-192793328D01*
X204600884Y-192793328D02*
X204743741Y-192864757D01*
X204743741Y-192864757D02*
X204815170Y-193007614D01*
X204815170Y-193007614D02*
X204815170Y-193150471D01*
X204815170Y-193150471D02*
X204100884Y-193293328D01*
X205458026Y-193650471D02*
X205529455Y-193721900D01*
X205529455Y-193721900D02*
X205458026Y-193793328D01*
X205458026Y-193793328D02*
X205386598Y-193721900D01*
X205386598Y-193721900D02*
X205458026Y-193650471D01*
X205458026Y-193650471D02*
X205458026Y-193793328D01*
X205458026Y-192864757D02*
X205529455Y-192936185D01*
X205529455Y-192936185D02*
X205458026Y-193007614D01*
X205458026Y-193007614D02*
X205386598Y-192936185D01*
X205386598Y-192936185D02*
X205458026Y-192864757D01*
X205458026Y-192864757D02*
X205458026Y-193007614D01*
D10*
D11*
X177002200Y-194507200D02*
X285002200Y-194507200D01*
D10*
D11*
X178458026Y-196593328D02*
X178458026Y-195093328D01*
X179315169Y-196593328D02*
X178672312Y-195736185D01*
X179315169Y-195093328D02*
X178458026Y-195950471D01*
X179958026Y-196593328D02*
X179958026Y-195593328D01*
X179958026Y-195093328D02*
X179886598Y-195164757D01*
X179886598Y-195164757D02*
X179958026Y-195236185D01*
X179958026Y-195236185D02*
X180029455Y-195164757D01*
X180029455Y-195164757D02*
X179958026Y-195093328D01*
X179958026Y-195093328D02*
X179958026Y-195236185D01*
X181529455Y-196450471D02*
X181458027Y-196521900D01*
X181458027Y-196521900D02*
X181243741Y-196593328D01*
X181243741Y-196593328D02*
X181100884Y-196593328D01*
X181100884Y-196593328D02*
X180886598Y-196521900D01*
X180886598Y-196521900D02*
X180743741Y-196379042D01*
X180743741Y-196379042D02*
X180672312Y-196236185D01*
X180672312Y-196236185D02*
X180600884Y-195950471D01*
X180600884Y-195950471D02*
X180600884Y-195736185D01*
X180600884Y-195736185D02*
X180672312Y-195450471D01*
X180672312Y-195450471D02*
X180743741Y-195307614D01*
X180743741Y-195307614D02*
X180886598Y-195164757D01*
X180886598Y-195164757D02*
X181100884Y-195093328D01*
X181100884Y-195093328D02*
X181243741Y-195093328D01*
X181243741Y-195093328D02*
X181458027Y-195164757D01*
X181458027Y-195164757D02*
X181529455Y-195236185D01*
X182815170Y-196593328D02*
X182815170Y-195807614D01*
X182815170Y-195807614D02*
X182743741Y-195664757D01*
X182743741Y-195664757D02*
X182600884Y-195593328D01*
X182600884Y-195593328D02*
X182315170Y-195593328D01*
X182315170Y-195593328D02*
X182172312Y-195664757D01*
X182815170Y-196521900D02*
X182672312Y-196593328D01*
X182672312Y-196593328D02*
X182315170Y-196593328D01*
X182315170Y-196593328D02*
X182172312Y-196521900D01*
X182172312Y-196521900D02*
X182100884Y-196379042D01*
X182100884Y-196379042D02*
X182100884Y-196236185D01*
X182100884Y-196236185D02*
X182172312Y-196093328D01*
X182172312Y-196093328D02*
X182315170Y-196021900D01*
X182315170Y-196021900D02*
X182672312Y-196021900D01*
X182672312Y-196021900D02*
X182815170Y-195950471D01*
X184172313Y-196593328D02*
X184172313Y-195093328D01*
X184172313Y-196521900D02*
X184029455Y-196593328D01*
X184029455Y-196593328D02*
X183743741Y-196593328D01*
X183743741Y-196593328D02*
X183600884Y-196521900D01*
X183600884Y-196521900D02*
X183529455Y-196450471D01*
X183529455Y-196450471D02*
X183458027Y-196307614D01*
X183458027Y-196307614D02*
X183458027Y-195879042D01*
X183458027Y-195879042D02*
X183529455Y-195736185D01*
X183529455Y-195736185D02*
X183600884Y-195664757D01*
X183600884Y-195664757D02*
X183743741Y-195593328D01*
X183743741Y-195593328D02*
X184029455Y-195593328D01*
X184029455Y-195593328D02*
X184172313Y-195664757D01*
X186029455Y-195807614D02*
X186529455Y-195807614D01*
X186743741Y-196593328D02*
X186029455Y-196593328D01*
X186029455Y-196593328D02*
X186029455Y-195093328D01*
X186029455Y-195093328D02*
X186743741Y-195093328D01*
X187386598Y-196450471D02*
X187458027Y-196521900D01*
X187458027Y-196521900D02*
X187386598Y-196593328D01*
X187386598Y-196593328D02*
X187315170Y-196521900D01*
X187315170Y-196521900D02*
X187386598Y-196450471D01*
X187386598Y-196450471D02*
X187386598Y-196593328D01*
X188100884Y-196593328D02*
X188100884Y-195093328D01*
X188100884Y-195093328D02*
X188458027Y-195093328D01*
X188458027Y-195093328D02*
X188672313Y-195164757D01*
X188672313Y-195164757D02*
X188815170Y-195307614D01*
X188815170Y-195307614D02*
X188886599Y-195450471D01*
X188886599Y-195450471D02*
X188958027Y-195736185D01*
X188958027Y-195736185D02*
X188958027Y-195950471D01*
X188958027Y-195950471D02*
X188886599Y-196236185D01*
X188886599Y-196236185D02*
X188815170Y-196379042D01*
X188815170Y-196379042D02*
X188672313Y-196521900D01*
X188672313Y-196521900D02*
X188458027Y-196593328D01*
X188458027Y-196593328D02*
X188100884Y-196593328D01*
X189600884Y-196450471D02*
X189672313Y-196521900D01*
X189672313Y-196521900D02*
X189600884Y-196593328D01*
X189600884Y-196593328D02*
X189529456Y-196521900D01*
X189529456Y-196521900D02*
X189600884Y-196450471D01*
X189600884Y-196450471D02*
X189600884Y-196593328D01*
X190243742Y-196164757D02*
X190958028Y-196164757D01*
X190100885Y-196593328D02*
X190600885Y-195093328D01*
X190600885Y-195093328D02*
X191100885Y-196593328D01*
X191600884Y-196450471D02*
X191672313Y-196521900D01*
X191672313Y-196521900D02*
X191600884Y-196593328D01*
X191600884Y-196593328D02*
X191529456Y-196521900D01*
X191529456Y-196521900D02*
X191600884Y-196450471D01*
X191600884Y-196450471D02*
X191600884Y-196593328D01*
X194600884Y-196593328D02*
X194600884Y-195093328D01*
X194743742Y-196021900D02*
X195172313Y-196593328D01*
X195172313Y-195593328D02*
X194600884Y-196164757D01*
X195815170Y-196593328D02*
X195815170Y-195593328D01*
X195815170Y-195093328D02*
X195743742Y-195164757D01*
X195743742Y-195164757D02*
X195815170Y-195236185D01*
X195815170Y-195236185D02*
X195886599Y-195164757D01*
X195886599Y-195164757D02*
X195815170Y-195093328D01*
X195815170Y-195093328D02*
X195815170Y-195236185D01*
X197172314Y-196521900D02*
X197029456Y-196593328D01*
X197029456Y-196593328D02*
X196743742Y-196593328D01*
X196743742Y-196593328D02*
X196600885Y-196521900D01*
X196600885Y-196521900D02*
X196529456Y-196450471D01*
X196529456Y-196450471D02*
X196458028Y-196307614D01*
X196458028Y-196307614D02*
X196458028Y-195879042D01*
X196458028Y-195879042D02*
X196529456Y-195736185D01*
X196529456Y-195736185D02*
X196600885Y-195664757D01*
X196600885Y-195664757D02*
X196743742Y-195593328D01*
X196743742Y-195593328D02*
X197029456Y-195593328D01*
X197029456Y-195593328D02*
X197172314Y-195664757D01*
X198458028Y-196593328D02*
X198458028Y-195807614D01*
X198458028Y-195807614D02*
X198386599Y-195664757D01*
X198386599Y-195664757D02*
X198243742Y-195593328D01*
X198243742Y-195593328D02*
X197958028Y-195593328D01*
X197958028Y-195593328D02*
X197815170Y-195664757D01*
X198458028Y-196521900D02*
X198315170Y-196593328D01*
X198315170Y-196593328D02*
X197958028Y-196593328D01*
X197958028Y-196593328D02*
X197815170Y-196521900D01*
X197815170Y-196521900D02*
X197743742Y-196379042D01*
X197743742Y-196379042D02*
X197743742Y-196236185D01*
X197743742Y-196236185D02*
X197815170Y-196093328D01*
X197815170Y-196093328D02*
X197958028Y-196021900D01*
X197958028Y-196021900D02*
X198315170Y-196021900D01*
X198315170Y-196021900D02*
X198458028Y-195950471D01*
X199815171Y-196593328D02*
X199815171Y-195093328D01*
X199815171Y-196521900D02*
X199672313Y-196593328D01*
X199672313Y-196593328D02*
X199386599Y-196593328D01*
X199386599Y-196593328D02*
X199243742Y-196521900D01*
X199243742Y-196521900D02*
X199172313Y-196450471D01*
X199172313Y-196450471D02*
X199100885Y-196307614D01*
X199100885Y-196307614D02*
X199100885Y-195879042D01*
X199100885Y-195879042D02*
X199172313Y-195736185D01*
X199172313Y-195736185D02*
X199243742Y-195664757D01*
X199243742Y-195664757D02*
X199386599Y-195593328D01*
X199386599Y-195593328D02*
X199672313Y-195593328D01*
X199672313Y-195593328D02*
X199815171Y-195664757D01*
X201529456Y-195093328D02*
X202529456Y-195093328D01*
X202529456Y-195093328D02*
X201886599Y-196593328D01*
X203100884Y-196450471D02*
X203172313Y-196521900D01*
X203172313Y-196521900D02*
X203100884Y-196593328D01*
X203100884Y-196593328D02*
X203029456Y-196521900D01*
X203029456Y-196521900D02*
X203100884Y-196450471D01*
X203100884Y-196450471D02*
X203100884Y-196593328D01*
X204100885Y-195093328D02*
X204243742Y-195093328D01*
X204243742Y-195093328D02*
X204386599Y-195164757D01*
X204386599Y-195164757D02*
X204458028Y-195236185D01*
X204458028Y-195236185D02*
X204529456Y-195379042D01*
X204529456Y-195379042D02*
X204600885Y-195664757D01*
X204600885Y-195664757D02*
X204600885Y-196021900D01*
X204600885Y-196021900D02*
X204529456Y-196307614D01*
X204529456Y-196307614D02*
X204458028Y-196450471D01*
X204458028Y-196450471D02*
X204386599Y-196521900D01*
X204386599Y-196521900D02*
X204243742Y-196593328D01*
X204243742Y-196593328D02*
X204100885Y-196593328D01*
X204100885Y-196593328D02*
X203958028Y-196521900D01*
X203958028Y-196521900D02*
X203886599Y-196450471D01*
X203886599Y-196450471D02*
X203815170Y-196307614D01*
X203815170Y-196307614D02*
X203743742Y-196021900D01*
X203743742Y-196021900D02*
X203743742Y-195664757D01*
X203743742Y-195664757D02*
X203815170Y-195379042D01*
X203815170Y-195379042D02*
X203886599Y-195236185D01*
X203886599Y-195236185D02*
X203958028Y-195164757D01*
X203958028Y-195164757D02*
X204100885Y-195093328D01*
X205243741Y-196450471D02*
X205315170Y-196521900D01*
X205315170Y-196521900D02*
X205243741Y-196593328D01*
X205243741Y-196593328D02*
X205172313Y-196521900D01*
X205172313Y-196521900D02*
X205243741Y-196450471D01*
X205243741Y-196450471D02*
X205243741Y-196593328D01*
X205815170Y-195093328D02*
X206815170Y-195093328D01*
X206815170Y-195093328D02*
X206172313Y-196593328D01*
D10*
D11*
X177002200Y-191507200D02*
X285002200Y-191507200D01*
D10*
D12*
X264413853Y-193785528D02*
X263913853Y-193071242D01*
X263556710Y-193785528D02*
X263556710Y-192285528D01*
X263556710Y-192285528D02*
X264128139Y-192285528D01*
X264128139Y-192285528D02*
X264270996Y-192356957D01*
X264270996Y-192356957D02*
X264342425Y-192428385D01*
X264342425Y-192428385D02*
X264413853Y-192571242D01*
X264413853Y-192571242D02*
X264413853Y-192785528D01*
X264413853Y-192785528D02*
X264342425Y-192928385D01*
X264342425Y-192928385D02*
X264270996Y-192999814D01*
X264270996Y-192999814D02*
X264128139Y-193071242D01*
X264128139Y-193071242D02*
X263556710Y-193071242D01*
X265628139Y-193714100D02*
X265485282Y-193785528D01*
X265485282Y-193785528D02*
X265199568Y-193785528D01*
X265199568Y-193785528D02*
X265056710Y-193714100D01*
X265056710Y-193714100D02*
X264985282Y-193571242D01*
X264985282Y-193571242D02*
X264985282Y-192999814D01*
X264985282Y-192999814D02*
X265056710Y-192856957D01*
X265056710Y-192856957D02*
X265199568Y-192785528D01*
X265199568Y-192785528D02*
X265485282Y-192785528D01*
X265485282Y-192785528D02*
X265628139Y-192856957D01*
X265628139Y-192856957D02*
X265699568Y-192999814D01*
X265699568Y-192999814D02*
X265699568Y-193142671D01*
X265699568Y-193142671D02*
X264985282Y-193285528D01*
X266199567Y-192785528D02*
X266556710Y-193785528D01*
X266556710Y-193785528D02*
X266913853Y-192785528D01*
X267485281Y-193642671D02*
X267556710Y-193714100D01*
X267556710Y-193714100D02*
X267485281Y-193785528D01*
X267485281Y-193785528D02*
X267413853Y-193714100D01*
X267413853Y-193714100D02*
X267485281Y-193642671D01*
X267485281Y-193642671D02*
X267485281Y-193785528D01*
X267485281Y-192856957D02*
X267556710Y-192928385D01*
X267556710Y-192928385D02*
X267485281Y-192999814D01*
X267485281Y-192999814D02*
X267413853Y-192928385D01*
X267413853Y-192928385D02*
X267485281Y-192856957D01*
X267485281Y-192856957D02*
X267485281Y-192999814D01*
D10*
D11*
X178386598Y-193721900D02*
X178600884Y-193793328D01*
X178600884Y-193793328D02*
X178958026Y-193793328D01*
X178958026Y-193793328D02*
X179100884Y-193721900D01*
X179100884Y-193721900D02*
X179172312Y-193650471D01*
X179172312Y-193650471D02*
X179243741Y-193507614D01*
X179243741Y-193507614D02*
X179243741Y-193364757D01*
X179243741Y-193364757D02*
X179172312Y-193221900D01*
X179172312Y-193221900D02*
X179100884Y-193150471D01*
X179100884Y-193150471D02*
X178958026Y-193079042D01*
X178958026Y-193079042D02*
X178672312Y-193007614D01*
X178672312Y-193007614D02*
X178529455Y-192936185D01*
X178529455Y-192936185D02*
X178458026Y-192864757D01*
X178458026Y-192864757D02*
X178386598Y-192721900D01*
X178386598Y-192721900D02*
X178386598Y-192579042D01*
X178386598Y-192579042D02*
X178458026Y-192436185D01*
X178458026Y-192436185D02*
X178529455Y-192364757D01*
X178529455Y-192364757D02*
X178672312Y-192293328D01*
X178672312Y-192293328D02*
X179029455Y-192293328D01*
X179029455Y-192293328D02*
X179243741Y-192364757D01*
X179886597Y-193793328D02*
X179886597Y-192793328D01*
X179886597Y-192293328D02*
X179815169Y-192364757D01*
X179815169Y-192364757D02*
X179886597Y-192436185D01*
X179886597Y-192436185D02*
X179958026Y-192364757D01*
X179958026Y-192364757D02*
X179886597Y-192293328D01*
X179886597Y-192293328D02*
X179886597Y-192436185D01*
X180458026Y-192793328D02*
X181243741Y-192793328D01*
X181243741Y-192793328D02*
X180458026Y-193793328D01*
X180458026Y-193793328D02*
X181243741Y-193793328D01*
X182386598Y-193721900D02*
X182243741Y-193793328D01*
X182243741Y-193793328D02*
X181958027Y-193793328D01*
X181958027Y-193793328D02*
X181815169Y-193721900D01*
X181815169Y-193721900D02*
X181743741Y-193579042D01*
X181743741Y-193579042D02*
X181743741Y-193007614D01*
X181743741Y-193007614D02*
X181815169Y-192864757D01*
X181815169Y-192864757D02*
X181958027Y-192793328D01*
X181958027Y-192793328D02*
X182243741Y-192793328D01*
X182243741Y-192793328D02*
X182386598Y-192864757D01*
X182386598Y-192864757D02*
X182458027Y-193007614D01*
X182458027Y-193007614D02*
X182458027Y-193150471D01*
X182458027Y-193150471D02*
X181743741Y-193293328D01*
X183100883Y-193650471D02*
X183172312Y-193721900D01*
X183172312Y-193721900D02*
X183100883Y-193793328D01*
X183100883Y-193793328D02*
X183029455Y-193721900D01*
X183029455Y-193721900D02*
X183100883Y-193650471D01*
X183100883Y-193650471D02*
X183100883Y-193793328D01*
X183100883Y-192864757D02*
X183172312Y-192936185D01*
X183172312Y-192936185D02*
X183100883Y-193007614D01*
X183100883Y-193007614D02*
X183029455Y-192936185D01*
X183029455Y-192936185D02*
X183100883Y-192864757D01*
X183100883Y-192864757D02*
X183100883Y-193007614D01*
X184886598Y-193364757D02*
X185600884Y-193364757D01*
X184743741Y-193793328D02*
X185243741Y-192293328D01*
X185243741Y-192293328D02*
X185743741Y-193793328D01*
X186886598Y-192793328D02*
X186886598Y-193793328D01*
X186529455Y-192221900D02*
X186172312Y-193293328D01*
X186172312Y-193293328D02*
X187100883Y-193293328D01*
D10*
D11*
X263458026Y-196593328D02*
X263458026Y-195093328D01*
X264815170Y-196593328D02*
X264815170Y-195093328D01*
X264815170Y-196521900D02*
X264672312Y-196593328D01*
X264672312Y-196593328D02*
X264386598Y-196593328D01*
X264386598Y-196593328D02*
X264243741Y-196521900D01*
X264243741Y-196521900D02*
X264172312Y-196450471D01*
X264172312Y-196450471D02*
X264100884Y-196307614D01*
X264100884Y-196307614D02*
X264100884Y-195879042D01*
X264100884Y-195879042D02*
X264172312Y-195736185D01*
X264172312Y-195736185D02*
X264243741Y-195664757D01*
X264243741Y-195664757D02*
X264386598Y-195593328D01*
X264386598Y-195593328D02*
X264672312Y-195593328D01*
X264672312Y-195593328D02*
X264815170Y-195664757D01*
X265529455Y-196450471D02*
X265600884Y-196521900D01*
X265600884Y-196521900D02*
X265529455Y-196593328D01*
X265529455Y-196593328D02*
X265458027Y-196521900D01*
X265458027Y-196521900D02*
X265529455Y-196450471D01*
X265529455Y-196450471D02*
X265529455Y-196593328D01*
X265529455Y-195664757D02*
X265600884Y-195736185D01*
X265600884Y-195736185D02*
X265529455Y-195807614D01*
X265529455Y-195807614D02*
X265458027Y-195736185D01*
X265458027Y-195736185D02*
X265529455Y-195664757D01*
X265529455Y-195664757D02*
X265529455Y-195807614D01*
X268172313Y-196593328D02*
X267315170Y-196593328D01*
X267743741Y-196593328D02*
X267743741Y-195093328D01*
X267743741Y-195093328D02*
X267600884Y-195307614D01*
X267600884Y-195307614D02*
X267458027Y-195450471D01*
X267458027Y-195450471D02*
X267315170Y-195521900D01*
X269886598Y-195021900D02*
X268600884Y-196950471D01*
X271172313Y-196593328D02*
X270315170Y-196593328D01*
X270743741Y-196593328D02*
X270743741Y-195093328D01*
X270743741Y-195093328D02*
X270600884Y-195307614D01*
X270600884Y-195307614D02*
X270458027Y-195450471D01*
X270458027Y-195450471D02*
X270315170Y-195521900D01*
D10*
D11*
X177002200Y-187507200D02*
X285002200Y-187507200D01*
D10*
D13*
X178693928Y-188211638D02*
X179836785Y-188211638D01*
X179015357Y-190211638D02*
X179265357Y-188211638D01*
X180253452Y-190211638D02*
X180420119Y-188878304D01*
X180503452Y-188211638D02*
X180396309Y-188306876D01*
X180396309Y-188306876D02*
X180479643Y-188402114D01*
X180479643Y-188402114D02*
X180586786Y-188306876D01*
X180586786Y-188306876D02*
X180503452Y-188211638D01*
X180503452Y-188211638D02*
X180479643Y-188402114D01*
X181086786Y-188878304D02*
X181848690Y-188878304D01*
X181455833Y-188211638D02*
X181241548Y-189925923D01*
X181241548Y-189925923D02*
X181312976Y-190116400D01*
X181312976Y-190116400D02*
X181491548Y-190211638D01*
X181491548Y-190211638D02*
X181682024Y-190211638D01*
X182634405Y-190211638D02*
X182455833Y-190116400D01*
X182455833Y-190116400D02*
X182384405Y-189925923D01*
X182384405Y-189925923D02*
X182598690Y-188211638D01*
X184170119Y-190116400D02*
X183967738Y-190211638D01*
X183967738Y-190211638D02*
X183586785Y-190211638D01*
X183586785Y-190211638D02*
X183408214Y-190116400D01*
X183408214Y-190116400D02*
X183336785Y-189925923D01*
X183336785Y-189925923D02*
X183432024Y-189164019D01*
X183432024Y-189164019D02*
X183551071Y-188973542D01*
X183551071Y-188973542D02*
X183753452Y-188878304D01*
X183753452Y-188878304D02*
X184134404Y-188878304D01*
X184134404Y-188878304D02*
X184312976Y-188973542D01*
X184312976Y-188973542D02*
X184384404Y-189164019D01*
X184384404Y-189164019D02*
X184360595Y-189354495D01*
X184360595Y-189354495D02*
X183384404Y-189544971D01*
X185134405Y-190021161D02*
X185217738Y-190116400D01*
X185217738Y-190116400D02*
X185110595Y-190211638D01*
X185110595Y-190211638D02*
X185027262Y-190116400D01*
X185027262Y-190116400D02*
X185134405Y-190021161D01*
X185134405Y-190021161D02*
X185110595Y-190211638D01*
X185265357Y-188973542D02*
X185348690Y-189068780D01*
X185348690Y-189068780D02*
X185241548Y-189164019D01*
X185241548Y-189164019D02*
X185158214Y-189068780D01*
X185158214Y-189068780D02*
X185265357Y-188973542D01*
X185265357Y-188973542D02*
X185241548Y-189164019D01*
D10*
D11*
X178958026Y-185607614D02*
X178458026Y-185607614D01*
X178458026Y-186393328D02*
X178458026Y-184893328D01*
X178458026Y-184893328D02*
X179172312Y-184893328D01*
X179743740Y-186393328D02*
X179743740Y-185393328D01*
X179743740Y-184893328D02*
X179672312Y-184964757D01*
X179672312Y-184964757D02*
X179743740Y-185036185D01*
X179743740Y-185036185D02*
X179815169Y-184964757D01*
X179815169Y-184964757D02*
X179743740Y-184893328D01*
X179743740Y-184893328D02*
X179743740Y-185036185D01*
X180672312Y-186393328D02*
X180529455Y-186321900D01*
X180529455Y-186321900D02*
X180458026Y-186179042D01*
X180458026Y-186179042D02*
X180458026Y-184893328D01*
X181815169Y-186321900D02*
X181672312Y-186393328D01*
X181672312Y-186393328D02*
X181386598Y-186393328D01*
X181386598Y-186393328D02*
X181243740Y-186321900D01*
X181243740Y-186321900D02*
X181172312Y-186179042D01*
X181172312Y-186179042D02*
X181172312Y-185607614D01*
X181172312Y-185607614D02*
X181243740Y-185464757D01*
X181243740Y-185464757D02*
X181386598Y-185393328D01*
X181386598Y-185393328D02*
X181672312Y-185393328D01*
X181672312Y-185393328D02*
X181815169Y-185464757D01*
X181815169Y-185464757D02*
X181886598Y-185607614D01*
X181886598Y-185607614D02*
X181886598Y-185750471D01*
X181886598Y-185750471D02*
X181172312Y-185893328D01*
X182529454Y-186250471D02*
X182600883Y-186321900D01*
X182600883Y-186321900D02*
X182529454Y-186393328D01*
X182529454Y-186393328D02*
X182458026Y-186321900D01*
X182458026Y-186321900D02*
X182529454Y-186250471D01*
X182529454Y-186250471D02*
X182529454Y-186393328D01*
X182529454Y-185464757D02*
X182600883Y-185536185D01*
X182600883Y-185536185D02*
X182529454Y-185607614D01*
X182529454Y-185607614D02*
X182458026Y-185536185D01*
X182458026Y-185536185D02*
X182529454Y-185464757D01*
X182529454Y-185464757D02*
X182529454Y-185607614D01*
X185243740Y-186250471D02*
X185172312Y-186321900D01*
X185172312Y-186321900D02*
X184958026Y-186393328D01*
X184958026Y-186393328D02*
X184815169Y-186393328D01*
X184815169Y-186393328D02*
X184600883Y-186321900D01*
X184600883Y-186321900D02*
X184458026Y-186179042D01*
X184458026Y-186179042D02*
X184386597Y-186036185D01*
X184386597Y-186036185D02*
X184315169Y-185750471D01*
X184315169Y-185750471D02*
X184315169Y-185536185D01*
X184315169Y-185536185D02*
X184386597Y-185250471D01*
X184386597Y-185250471D02*
X184458026Y-185107614D01*
X184458026Y-185107614D02*
X184600883Y-184964757D01*
X184600883Y-184964757D02*
X184815169Y-184893328D01*
X184815169Y-184893328D02*
X184958026Y-184893328D01*
X184958026Y-184893328D02*
X185172312Y-184964757D01*
X185172312Y-184964757D02*
X185243740Y-185036185D01*
X186529455Y-186393328D02*
X186529455Y-185607614D01*
X186529455Y-185607614D02*
X186458026Y-185464757D01*
X186458026Y-185464757D02*
X186315169Y-185393328D01*
X186315169Y-185393328D02*
X186029455Y-185393328D01*
X186029455Y-185393328D02*
X185886597Y-185464757D01*
X186529455Y-186321900D02*
X186386597Y-186393328D01*
X186386597Y-186393328D02*
X186029455Y-186393328D01*
X186029455Y-186393328D02*
X185886597Y-186321900D01*
X185886597Y-186321900D02*
X185815169Y-186179042D01*
X185815169Y-186179042D02*
X185815169Y-186036185D01*
X185815169Y-186036185D02*
X185886597Y-185893328D01*
X185886597Y-185893328D02*
X186029455Y-185821900D01*
X186029455Y-185821900D02*
X186386597Y-185821900D01*
X186386597Y-185821900D02*
X186529455Y-185750471D01*
X187243740Y-186393328D02*
X187243740Y-184893328D01*
X187243740Y-185464757D02*
X187386598Y-185393328D01*
X187386598Y-185393328D02*
X187672312Y-185393328D01*
X187672312Y-185393328D02*
X187815169Y-185464757D01*
X187815169Y-185464757D02*
X187886598Y-185536185D01*
X187886598Y-185536185D02*
X187958026Y-185679042D01*
X187958026Y-185679042D02*
X187958026Y-186107614D01*
X187958026Y-186107614D02*
X187886598Y-186250471D01*
X187886598Y-186250471D02*
X187815169Y-186321900D01*
X187815169Y-186321900D02*
X187672312Y-186393328D01*
X187672312Y-186393328D02*
X187386598Y-186393328D01*
X187386598Y-186393328D02*
X187243740Y-186321900D01*
X188815169Y-186393328D02*
X188672312Y-186321900D01*
X188672312Y-186321900D02*
X188600883Y-186179042D01*
X188600883Y-186179042D02*
X188600883Y-184893328D01*
X189958026Y-186321900D02*
X189815169Y-186393328D01*
X189815169Y-186393328D02*
X189529455Y-186393328D01*
X189529455Y-186393328D02*
X189386597Y-186321900D01*
X189386597Y-186321900D02*
X189315169Y-186179042D01*
X189315169Y-186179042D02*
X189315169Y-185607614D01*
X189315169Y-185607614D02*
X189386597Y-185464757D01*
X189386597Y-185464757D02*
X189529455Y-185393328D01*
X189529455Y-185393328D02*
X189815169Y-185393328D01*
X189815169Y-185393328D02*
X189958026Y-185464757D01*
X189958026Y-185464757D02*
X190029455Y-185607614D01*
X190029455Y-185607614D02*
X190029455Y-185750471D01*
X190029455Y-185750471D02*
X189315169Y-185893328D01*
X190600883Y-185964757D02*
X191315169Y-185964757D01*
X190458026Y-186393328D02*
X190958026Y-184893328D01*
X190958026Y-184893328D02*
X191458026Y-186393328D01*
X192600883Y-186393328D02*
X192600883Y-184893328D01*
X192600883Y-186321900D02*
X192458025Y-186393328D01*
X192458025Y-186393328D02*
X192172311Y-186393328D01*
X192172311Y-186393328D02*
X192029454Y-186321900D01*
X192029454Y-186321900D02*
X191958025Y-186250471D01*
X191958025Y-186250471D02*
X191886597Y-186107614D01*
X191886597Y-186107614D02*
X191886597Y-185679042D01*
X191886597Y-185679042D02*
X191958025Y-185536185D01*
X191958025Y-185536185D02*
X192029454Y-185464757D01*
X192029454Y-185464757D02*
X192172311Y-185393328D01*
X192172311Y-185393328D02*
X192458025Y-185393328D01*
X192458025Y-185393328D02*
X192600883Y-185464757D01*
X193958026Y-186393328D02*
X193958026Y-185607614D01*
X193958026Y-185607614D02*
X193886597Y-185464757D01*
X193886597Y-185464757D02*
X193743740Y-185393328D01*
X193743740Y-185393328D02*
X193458026Y-185393328D01*
X193458026Y-185393328D02*
X193315168Y-185464757D01*
X193958026Y-186321900D02*
X193815168Y-186393328D01*
X193815168Y-186393328D02*
X193458026Y-186393328D01*
X193458026Y-186393328D02*
X193315168Y-186321900D01*
X193315168Y-186321900D02*
X193243740Y-186179042D01*
X193243740Y-186179042D02*
X193243740Y-186036185D01*
X193243740Y-186036185D02*
X193315168Y-185893328D01*
X193315168Y-185893328D02*
X193458026Y-185821900D01*
X193458026Y-185821900D02*
X193815168Y-185821900D01*
X193815168Y-185821900D02*
X193958026Y-185750471D01*
X194672311Y-185393328D02*
X194672311Y-186893328D01*
X194672311Y-185464757D02*
X194815169Y-185393328D01*
X194815169Y-185393328D02*
X195100883Y-185393328D01*
X195100883Y-185393328D02*
X195243740Y-185464757D01*
X195243740Y-185464757D02*
X195315169Y-185536185D01*
X195315169Y-185536185D02*
X195386597Y-185679042D01*
X195386597Y-185679042D02*
X195386597Y-186107614D01*
X195386597Y-186107614D02*
X195315169Y-186250471D01*
X195315169Y-186250471D02*
X195243740Y-186321900D01*
X195243740Y-186321900D02*
X195100883Y-186393328D01*
X195100883Y-186393328D02*
X194815169Y-186393328D01*
X194815169Y-186393328D02*
X194672311Y-186321900D01*
X195815169Y-185393328D02*
X196386597Y-185393328D01*
X196029454Y-184893328D02*
X196029454Y-186179042D01*
X196029454Y-186179042D02*
X196100883Y-186321900D01*
X196100883Y-186321900D02*
X196243740Y-186393328D01*
X196243740Y-186393328D02*
X196386597Y-186393328D01*
X197458026Y-186321900D02*
X197315169Y-186393328D01*
X197315169Y-186393328D02*
X197029455Y-186393328D01*
X197029455Y-186393328D02*
X196886597Y-186321900D01*
X196886597Y-186321900D02*
X196815169Y-186179042D01*
X196815169Y-186179042D02*
X196815169Y-185607614D01*
X196815169Y-185607614D02*
X196886597Y-185464757D01*
X196886597Y-185464757D02*
X197029455Y-185393328D01*
X197029455Y-185393328D02*
X197315169Y-185393328D01*
X197315169Y-185393328D02*
X197458026Y-185464757D01*
X197458026Y-185464757D02*
X197529455Y-185607614D01*
X197529455Y-185607614D02*
X197529455Y-185750471D01*
X197529455Y-185750471D02*
X196815169Y-185893328D01*
X198172311Y-186393328D02*
X198172311Y-185393328D01*
X198172311Y-185679042D02*
X198243740Y-185536185D01*
X198243740Y-185536185D02*
X198315169Y-185464757D01*
X198315169Y-185464757D02*
X198458026Y-185393328D01*
X198458026Y-185393328D02*
X198600883Y-185393328D01*
X199600882Y-185607614D02*
X199815168Y-185679042D01*
X199815168Y-185679042D02*
X199886597Y-185750471D01*
X199886597Y-185750471D02*
X199958025Y-185893328D01*
X199958025Y-185893328D02*
X199958025Y-186107614D01*
X199958025Y-186107614D02*
X199886597Y-186250471D01*
X199886597Y-186250471D02*
X199815168Y-186321900D01*
X199815168Y-186321900D02*
X199672311Y-186393328D01*
X199672311Y-186393328D02*
X199100882Y-186393328D01*
X199100882Y-186393328D02*
X199100882Y-184893328D01*
X199100882Y-184893328D02*
X199600882Y-184893328D01*
X199600882Y-184893328D02*
X199743740Y-184964757D01*
X199743740Y-184964757D02*
X199815168Y-185036185D01*
X199815168Y-185036185D02*
X199886597Y-185179042D01*
X199886597Y-185179042D02*
X199886597Y-185321900D01*
X199886597Y-185321900D02*
X199815168Y-185464757D01*
X199815168Y-185464757D02*
X199743740Y-185536185D01*
X199743740Y-185536185D02*
X199600882Y-185607614D01*
X199600882Y-185607614D02*
X199100882Y-185607614D01*
X200815168Y-186393328D02*
X200672311Y-186321900D01*
X200672311Y-186321900D02*
X200600882Y-186250471D01*
X200600882Y-186250471D02*
X200529454Y-186107614D01*
X200529454Y-186107614D02*
X200529454Y-185679042D01*
X200529454Y-185679042D02*
X200600882Y-185536185D01*
X200600882Y-185536185D02*
X200672311Y-185464757D01*
X200672311Y-185464757D02*
X200815168Y-185393328D01*
X200815168Y-185393328D02*
X201029454Y-185393328D01*
X201029454Y-185393328D02*
X201172311Y-185464757D01*
X201172311Y-185464757D02*
X201243740Y-185536185D01*
X201243740Y-185536185D02*
X201315168Y-185679042D01*
X201315168Y-185679042D02*
X201315168Y-186107614D01*
X201315168Y-186107614D02*
X201243740Y-186250471D01*
X201243740Y-186250471D02*
X201172311Y-186321900D01*
X201172311Y-186321900D02*
X201029454Y-186393328D01*
X201029454Y-186393328D02*
X200815168Y-186393328D01*
X202600883Y-186393328D02*
X202600883Y-185607614D01*
X202600883Y-185607614D02*
X202529454Y-185464757D01*
X202529454Y-185464757D02*
X202386597Y-185393328D01*
X202386597Y-185393328D02*
X202100883Y-185393328D01*
X202100883Y-185393328D02*
X201958025Y-185464757D01*
X202600883Y-186321900D02*
X202458025Y-186393328D01*
X202458025Y-186393328D02*
X202100883Y-186393328D01*
X202100883Y-186393328D02*
X201958025Y-186321900D01*
X201958025Y-186321900D02*
X201886597Y-186179042D01*
X201886597Y-186179042D02*
X201886597Y-186036185D01*
X201886597Y-186036185D02*
X201958025Y-185893328D01*
X201958025Y-185893328D02*
X202100883Y-185821900D01*
X202100883Y-185821900D02*
X202458025Y-185821900D01*
X202458025Y-185821900D02*
X202600883Y-185750471D01*
X203315168Y-186393328D02*
X203315168Y-185393328D01*
X203315168Y-185679042D02*
X203386597Y-185536185D01*
X203386597Y-185536185D02*
X203458026Y-185464757D01*
X203458026Y-185464757D02*
X203600883Y-185393328D01*
X203600883Y-185393328D02*
X203743740Y-185393328D01*
X204886597Y-186393328D02*
X204886597Y-184893328D01*
X204886597Y-186321900D02*
X204743739Y-186393328D01*
X204743739Y-186393328D02*
X204458025Y-186393328D01*
X204458025Y-186393328D02*
X204315168Y-186321900D01*
X204315168Y-186321900D02*
X204243739Y-186250471D01*
X204243739Y-186250471D02*
X204172311Y-186107614D01*
X204172311Y-186107614D02*
X204172311Y-185679042D01*
X204172311Y-185679042D02*
X204243739Y-185536185D01*
X204243739Y-185536185D02*
X204315168Y-185464757D01*
X204315168Y-185464757D02*
X204458025Y-185393328D01*
X204458025Y-185393328D02*
X204743739Y-185393328D01*
X204743739Y-185393328D02*
X204886597Y-185464757D01*
X205600882Y-186250471D02*
X205672311Y-186321900D01*
X205672311Y-186321900D02*
X205600882Y-186393328D01*
X205600882Y-186393328D02*
X205529454Y-186321900D01*
X205529454Y-186321900D02*
X205600882Y-186250471D01*
X205600882Y-186250471D02*
X205600882Y-186393328D01*
X206315168Y-186393328D02*
X206315168Y-184893328D01*
X206458026Y-185821900D02*
X206886597Y-186393328D01*
X206886597Y-185393328D02*
X206315168Y-185964757D01*
X207529454Y-186393328D02*
X207529454Y-185393328D01*
X207529454Y-184893328D02*
X207458026Y-184964757D01*
X207458026Y-184964757D02*
X207529454Y-185036185D01*
X207529454Y-185036185D02*
X207600883Y-184964757D01*
X207600883Y-184964757D02*
X207529454Y-184893328D01*
X207529454Y-184893328D02*
X207529454Y-185036185D01*
X208886598Y-186321900D02*
X208743740Y-186393328D01*
X208743740Y-186393328D02*
X208458026Y-186393328D01*
X208458026Y-186393328D02*
X208315169Y-186321900D01*
X208315169Y-186321900D02*
X208243740Y-186250471D01*
X208243740Y-186250471D02*
X208172312Y-186107614D01*
X208172312Y-186107614D02*
X208172312Y-185679042D01*
X208172312Y-185679042D02*
X208243740Y-185536185D01*
X208243740Y-185536185D02*
X208315169Y-185464757D01*
X208315169Y-185464757D02*
X208458026Y-185393328D01*
X208458026Y-185393328D02*
X208743740Y-185393328D01*
X208743740Y-185393328D02*
X208886598Y-185464757D01*
X210172312Y-186393328D02*
X210172312Y-185607614D01*
X210172312Y-185607614D02*
X210100883Y-185464757D01*
X210100883Y-185464757D02*
X209958026Y-185393328D01*
X209958026Y-185393328D02*
X209672312Y-185393328D01*
X209672312Y-185393328D02*
X209529454Y-185464757D01*
X210172312Y-186321900D02*
X210029454Y-186393328D01*
X210029454Y-186393328D02*
X209672312Y-186393328D01*
X209672312Y-186393328D02*
X209529454Y-186321900D01*
X209529454Y-186321900D02*
X209458026Y-186179042D01*
X209458026Y-186179042D02*
X209458026Y-186036185D01*
X209458026Y-186036185D02*
X209529454Y-185893328D01*
X209529454Y-185893328D02*
X209672312Y-185821900D01*
X209672312Y-185821900D02*
X210029454Y-185821900D01*
X210029454Y-185821900D02*
X210172312Y-185750471D01*
X211529455Y-186393328D02*
X211529455Y-184893328D01*
X211529455Y-186321900D02*
X211386597Y-186393328D01*
X211386597Y-186393328D02*
X211100883Y-186393328D01*
X211100883Y-186393328D02*
X210958026Y-186321900D01*
X210958026Y-186321900D02*
X210886597Y-186250471D01*
X210886597Y-186250471D02*
X210815169Y-186107614D01*
X210815169Y-186107614D02*
X210815169Y-185679042D01*
X210815169Y-185679042D02*
X210886597Y-185536185D01*
X210886597Y-185536185D02*
X210958026Y-185464757D01*
X210958026Y-185464757D02*
X211100883Y-185393328D01*
X211100883Y-185393328D02*
X211386597Y-185393328D01*
X211386597Y-185393328D02*
X211529455Y-185464757D01*
X211886598Y-186536185D02*
X213029455Y-186536185D01*
X213386597Y-185393328D02*
X213386597Y-186893328D01*
X213386597Y-185464757D02*
X213529455Y-185393328D01*
X213529455Y-185393328D02*
X213815169Y-185393328D01*
X213815169Y-185393328D02*
X213958026Y-185464757D01*
X213958026Y-185464757D02*
X214029455Y-185536185D01*
X214029455Y-185536185D02*
X214100883Y-185679042D01*
X214100883Y-185679042D02*
X214100883Y-186107614D01*
X214100883Y-186107614D02*
X214029455Y-186250471D01*
X214029455Y-186250471D02*
X213958026Y-186321900D01*
X213958026Y-186321900D02*
X213815169Y-186393328D01*
X213815169Y-186393328D02*
X213529455Y-186393328D01*
X213529455Y-186393328D02*
X213386597Y-186321900D01*
X215386598Y-186321900D02*
X215243740Y-186393328D01*
X215243740Y-186393328D02*
X214958026Y-186393328D01*
X214958026Y-186393328D02*
X214815169Y-186321900D01*
X214815169Y-186321900D02*
X214743740Y-186250471D01*
X214743740Y-186250471D02*
X214672312Y-186107614D01*
X214672312Y-186107614D02*
X214672312Y-185679042D01*
X214672312Y-185679042D02*
X214743740Y-185536185D01*
X214743740Y-185536185D02*
X214815169Y-185464757D01*
X214815169Y-185464757D02*
X214958026Y-185393328D01*
X214958026Y-185393328D02*
X215243740Y-185393328D01*
X215243740Y-185393328D02*
X215386598Y-185464757D01*
X216029454Y-186393328D02*
X216029454Y-184893328D01*
X216029454Y-185464757D02*
X216172312Y-185393328D01*
X216172312Y-185393328D02*
X216458026Y-185393328D01*
X216458026Y-185393328D02*
X216600883Y-185464757D01*
X216600883Y-185464757D02*
X216672312Y-185536185D01*
X216672312Y-185536185D02*
X216743740Y-185679042D01*
X216743740Y-185679042D02*
X216743740Y-186107614D01*
X216743740Y-186107614D02*
X216672312Y-186250471D01*
X216672312Y-186250471D02*
X216600883Y-186321900D01*
X216600883Y-186321900D02*
X216458026Y-186393328D01*
X216458026Y-186393328D02*
X216172312Y-186393328D01*
X216172312Y-186393328D02*
X216029454Y-186321900D01*
D10*
D11*
X177002200Y-181507200D02*
X285002200Y-181507200D01*
D10*
D11*
X178386598Y-183621900D02*
X178600884Y-183693328D01*
X178600884Y-183693328D02*
X178958026Y-183693328D01*
X178958026Y-183693328D02*
X179100884Y-183621900D01*
X179100884Y-183621900D02*
X179172312Y-183550471D01*
X179172312Y-183550471D02*
X179243741Y-183407614D01*
X179243741Y-183407614D02*
X179243741Y-183264757D01*
X179243741Y-183264757D02*
X179172312Y-183121900D01*
X179172312Y-183121900D02*
X179100884Y-183050471D01*
X179100884Y-183050471D02*
X178958026Y-182979042D01*
X178958026Y-182979042D02*
X178672312Y-182907614D01*
X178672312Y-182907614D02*
X178529455Y-182836185D01*
X178529455Y-182836185D02*
X178458026Y-182764757D01*
X178458026Y-182764757D02*
X178386598Y-182621900D01*
X178386598Y-182621900D02*
X178386598Y-182479042D01*
X178386598Y-182479042D02*
X178458026Y-182336185D01*
X178458026Y-182336185D02*
X178529455Y-182264757D01*
X178529455Y-182264757D02*
X178672312Y-182193328D01*
X178672312Y-182193328D02*
X179029455Y-182193328D01*
X179029455Y-182193328D02*
X179243741Y-182264757D01*
X179886597Y-183693328D02*
X179886597Y-182193328D01*
X180529455Y-183693328D02*
X180529455Y-182907614D01*
X180529455Y-182907614D02*
X180458026Y-182764757D01*
X180458026Y-182764757D02*
X180315169Y-182693328D01*
X180315169Y-182693328D02*
X180100883Y-182693328D01*
X180100883Y-182693328D02*
X179958026Y-182764757D01*
X179958026Y-182764757D02*
X179886597Y-182836185D01*
X181815169Y-183621900D02*
X181672312Y-183693328D01*
X181672312Y-183693328D02*
X181386598Y-183693328D01*
X181386598Y-183693328D02*
X181243740Y-183621900D01*
X181243740Y-183621900D02*
X181172312Y-183479042D01*
X181172312Y-183479042D02*
X181172312Y-182907614D01*
X181172312Y-182907614D02*
X181243740Y-182764757D01*
X181243740Y-182764757D02*
X181386598Y-182693328D01*
X181386598Y-182693328D02*
X181672312Y-182693328D01*
X181672312Y-182693328D02*
X181815169Y-182764757D01*
X181815169Y-182764757D02*
X181886598Y-182907614D01*
X181886598Y-182907614D02*
X181886598Y-183050471D01*
X181886598Y-183050471D02*
X181172312Y-183193328D01*
X183100883Y-183621900D02*
X182958026Y-183693328D01*
X182958026Y-183693328D02*
X182672312Y-183693328D01*
X182672312Y-183693328D02*
X182529454Y-183621900D01*
X182529454Y-183621900D02*
X182458026Y-183479042D01*
X182458026Y-183479042D02*
X182458026Y-182907614D01*
X182458026Y-182907614D02*
X182529454Y-182764757D01*
X182529454Y-182764757D02*
X182672312Y-182693328D01*
X182672312Y-182693328D02*
X182958026Y-182693328D01*
X182958026Y-182693328D02*
X183100883Y-182764757D01*
X183100883Y-182764757D02*
X183172312Y-182907614D01*
X183172312Y-182907614D02*
X183172312Y-183050471D01*
X183172312Y-183050471D02*
X182458026Y-183193328D01*
X183600883Y-182693328D02*
X184172311Y-182693328D01*
X183815168Y-182193328D02*
X183815168Y-183479042D01*
X183815168Y-183479042D02*
X183886597Y-183621900D01*
X183886597Y-183621900D02*
X184029454Y-183693328D01*
X184029454Y-183693328D02*
X184172311Y-183693328D01*
X184672311Y-183550471D02*
X184743740Y-183621900D01*
X184743740Y-183621900D02*
X184672311Y-183693328D01*
X184672311Y-183693328D02*
X184600883Y-183621900D01*
X184600883Y-183621900D02*
X184672311Y-183550471D01*
X184672311Y-183550471D02*
X184672311Y-183693328D01*
X184672311Y-182764757D02*
X184743740Y-182836185D01*
X184743740Y-182836185D02*
X184672311Y-182907614D01*
X184672311Y-182907614D02*
X184600883Y-182836185D01*
X184600883Y-182836185D02*
X184672311Y-182764757D01*
X184672311Y-182764757D02*
X184672311Y-182907614D01*
D10*
D12*
D10*
D11*
D10*
D11*
D10*
D11*
D10*
D11*
D10*
D11*
X197002200Y-191507200D02*
X197002200Y-194507200D01*
D10*
D11*
X261002200Y-191507200D02*
X261002200Y-198007200D01*
D14*
X123304184Y-69119927D02*
X123354692Y-69136763D01*
X123354692Y-69136763D02*
X123422035Y-69204106D01*
X123422035Y-69204106D02*
X123438871Y-69254614D01*
X123438871Y-69254614D02*
X123422035Y-69305122D01*
X123422035Y-69305122D02*
X123405199Y-69321958D01*
X123405199Y-69321958D02*
X123354692Y-69338793D01*
X123354692Y-69338793D02*
X123304184Y-69321958D01*
X123304184Y-69321958D02*
X123253676Y-69271450D01*
X123253676Y-69271450D02*
X123203169Y-69254614D01*
X123203169Y-69254614D02*
X123152661Y-69271450D01*
X123152661Y-69271450D02*
X123135825Y-69288286D01*
X123135825Y-69288286D02*
X123118989Y-69338793D01*
X123118989Y-69338793D02*
X123135825Y-69389301D01*
X123135825Y-69389301D02*
X123186333Y-69439809D01*
X123186333Y-69439809D02*
X123236840Y-69456645D01*
X123775589Y-69557660D02*
X123590394Y-69742854D01*
X123590394Y-69742854D02*
X123539886Y-69759690D01*
X123539886Y-69759690D02*
X123489379Y-69742854D01*
X123489379Y-69742854D02*
X123422035Y-69675511D01*
X123422035Y-69675511D02*
X123405199Y-69625003D01*
X123758753Y-69574496D02*
X123741917Y-69523988D01*
X123741917Y-69523988D02*
X123657737Y-69439809D01*
X123657737Y-69439809D02*
X123607230Y-69422973D01*
X123607230Y-69422973D02*
X123556722Y-69439809D01*
X123556722Y-69439809D02*
X123523050Y-69473480D01*
X123523050Y-69473480D02*
X123506215Y-69523988D01*
X123506215Y-69523988D02*
X123523050Y-69574496D01*
X123523050Y-69574496D02*
X123607230Y-69658675D01*
X123607230Y-69658675D02*
X123624066Y-69709183D01*
X124078634Y-69894377D02*
X124061798Y-69843870D01*
X124061798Y-69843870D02*
X123994455Y-69776526D01*
X123994455Y-69776526D02*
X123943947Y-69759690D01*
X123943947Y-69759690D02*
X123910276Y-69759690D01*
X123910276Y-69759690D02*
X123859768Y-69776526D01*
X123859768Y-69776526D02*
X123758753Y-69877542D01*
X123758753Y-69877542D02*
X123741917Y-69928049D01*
X123741917Y-69928049D02*
X123741917Y-69961721D01*
X123741917Y-69961721D02*
X123758753Y-70012229D01*
X123758753Y-70012229D02*
X123826096Y-70079572D01*
X123826096Y-70079572D02*
X123876604Y-70096408D01*
X124246993Y-70029064D02*
X124011291Y-70264766D01*
X123893439Y-70382617D02*
X123893439Y-70348946D01*
X123893439Y-70348946D02*
X123927111Y-70348946D01*
X123927111Y-70348946D02*
X123927111Y-70382617D01*
X123927111Y-70382617D02*
X123893439Y-70382617D01*
X123893439Y-70382617D02*
X123927111Y-70348946D01*
X124364844Y-70079572D02*
X124634218Y-70348946D01*
X124819412Y-70635155D02*
X124802576Y-70584648D01*
X124802576Y-70584648D02*
X124735233Y-70517304D01*
X124735233Y-70517304D02*
X124684725Y-70500468D01*
X124684725Y-70500468D02*
X124651053Y-70500468D01*
X124651053Y-70500468D02*
X124600546Y-70517304D01*
X124600546Y-70517304D02*
X124499530Y-70618319D01*
X124499530Y-70618319D02*
X124482695Y-70668827D01*
X124482695Y-70668827D02*
X124482695Y-70702499D01*
X124482695Y-70702499D02*
X124499530Y-70753006D01*
X124499530Y-70753006D02*
X124566874Y-70820350D01*
X124566874Y-70820350D02*
X124617382Y-70837186D01*
X125038278Y-70820350D02*
X124987771Y-70803514D01*
X124987771Y-70803514D02*
X124937263Y-70820350D01*
X124937263Y-70820350D02*
X124634217Y-71123395D01*
X125172965Y-70955037D02*
X124819412Y-71308590D01*
X125071950Y-71123395D02*
X125307652Y-71089724D01*
X125071950Y-71325426D02*
X125071950Y-71056052D01*
X125408668Y-71123396D02*
X125678042Y-71392770D01*
X125492847Y-71746323D02*
X125728549Y-71510620D01*
X125526519Y-71712651D02*
X125526519Y-71746323D01*
X125526519Y-71746323D02*
X125543354Y-71796830D01*
X125543354Y-71796830D02*
X125593862Y-71847338D01*
X125593862Y-71847338D02*
X125644370Y-71864174D01*
X125644370Y-71864174D02*
X125694877Y-71847338D01*
X125694877Y-71847338D02*
X125880072Y-71662143D01*
X150804809Y-79450953D02*
X150304809Y-79450953D01*
X150781000Y-79450953D02*
X150804809Y-79403334D01*
X150804809Y-79403334D02*
X150804809Y-79308096D01*
X150804809Y-79308096D02*
X150781000Y-79260477D01*
X150781000Y-79260477D02*
X150757190Y-79236667D01*
X150757190Y-79236667D02*
X150709571Y-79212858D01*
X150709571Y-79212858D02*
X150566714Y-79212858D01*
X150566714Y-79212858D02*
X150519095Y-79236667D01*
X150519095Y-79236667D02*
X150495285Y-79260477D01*
X150495285Y-79260477D02*
X150471476Y-79308096D01*
X150471476Y-79308096D02*
X150471476Y-79403334D01*
X150471476Y-79403334D02*
X150495285Y-79450953D01*
X150804809Y-79903334D02*
X150542904Y-79903334D01*
X150542904Y-79903334D02*
X150495285Y-79879524D01*
X150495285Y-79879524D02*
X150471476Y-79831905D01*
X150471476Y-79831905D02*
X150471476Y-79736667D01*
X150471476Y-79736667D02*
X150495285Y-79689048D01*
X150781000Y-79903334D02*
X150804809Y-79855715D01*
X150804809Y-79855715D02*
X150804809Y-79736667D01*
X150804809Y-79736667D02*
X150781000Y-79689048D01*
X150781000Y-79689048D02*
X150733380Y-79665239D01*
X150733380Y-79665239D02*
X150685761Y-79665239D01*
X150685761Y-79665239D02*
X150638142Y-79689048D01*
X150638142Y-79689048D02*
X150614333Y-79736667D01*
X150614333Y-79736667D02*
X150614333Y-79855715D01*
X150614333Y-79855715D02*
X150590523Y-79903334D01*
X150471476Y-80070001D02*
X150471476Y-80260477D01*
X150304809Y-80141429D02*
X150733380Y-80141429D01*
X150733380Y-80141429D02*
X150781000Y-80165239D01*
X150781000Y-80165239D02*
X150804809Y-80212858D01*
X150804809Y-80212858D02*
X150804809Y-80260477D01*
X150804809Y-80641429D02*
X150542904Y-80641429D01*
X150542904Y-80641429D02*
X150495285Y-80617619D01*
X150495285Y-80617619D02*
X150471476Y-80570000D01*
X150471476Y-80570000D02*
X150471476Y-80474762D01*
X150471476Y-80474762D02*
X150495285Y-80427143D01*
X150781000Y-80641429D02*
X150804809Y-80593810D01*
X150804809Y-80593810D02*
X150804809Y-80474762D01*
X150804809Y-80474762D02*
X150781000Y-80427143D01*
X150781000Y-80427143D02*
X150733380Y-80403334D01*
X150733380Y-80403334D02*
X150685761Y-80403334D01*
X150685761Y-80403334D02*
X150638142Y-80427143D01*
X150638142Y-80427143D02*
X150614333Y-80474762D01*
X150614333Y-80474762D02*
X150614333Y-80593810D01*
X150614333Y-80593810D02*
X150590523Y-80641429D01*
X150852428Y-80760477D02*
X150852428Y-81141429D01*
X150804809Y-81331905D02*
X150781000Y-81284286D01*
X150781000Y-81284286D02*
X150757190Y-81260476D01*
X150757190Y-81260476D02*
X150709571Y-81236667D01*
X150709571Y-81236667D02*
X150566714Y-81236667D01*
X150566714Y-81236667D02*
X150519095Y-81260476D01*
X150519095Y-81260476D02*
X150495285Y-81284286D01*
X150495285Y-81284286D02*
X150471476Y-81331905D01*
X150471476Y-81331905D02*
X150471476Y-81403333D01*
X150471476Y-81403333D02*
X150495285Y-81450952D01*
X150495285Y-81450952D02*
X150519095Y-81474762D01*
X150519095Y-81474762D02*
X150566714Y-81498571D01*
X150566714Y-81498571D02*
X150709571Y-81498571D01*
X150709571Y-81498571D02*
X150757190Y-81474762D01*
X150757190Y-81474762D02*
X150781000Y-81450952D01*
X150781000Y-81450952D02*
X150804809Y-81403333D01*
X150804809Y-81403333D02*
X150804809Y-81331905D01*
X150471476Y-81927143D02*
X150804809Y-81927143D01*
X150471476Y-81712857D02*
X150733380Y-81712857D01*
X150733380Y-81712857D02*
X150781000Y-81736667D01*
X150781000Y-81736667D02*
X150804809Y-81784286D01*
X150804809Y-81784286D02*
X150804809Y-81855714D01*
X150804809Y-81855714D02*
X150781000Y-81903333D01*
X150781000Y-81903333D02*
X150757190Y-81927143D01*
X150471476Y-82093810D02*
X150471476Y-82284286D01*
X150304809Y-82165238D02*
X150733380Y-82165238D01*
X150733380Y-82165238D02*
X150781000Y-82189048D01*
X150781000Y-82189048D02*
X150804809Y-82236667D01*
X150804809Y-82236667D02*
X150804809Y-82284286D01*
X150852428Y-82331905D02*
X150852428Y-82712857D01*
X150804809Y-83093809D02*
X150804809Y-82808095D01*
X150804809Y-82950952D02*
X150304809Y-82950952D01*
X150304809Y-82950952D02*
X150376238Y-82903333D01*
X150376238Y-82903333D02*
X150423857Y-82855714D01*
X150423857Y-82855714D02*
X150447666Y-82808095D01*
X150852428Y-83189047D02*
X150852428Y-83569999D01*
X150471476Y-83689046D02*
X150971476Y-83689046D01*
X150495285Y-83689046D02*
X150471476Y-83736665D01*
X150471476Y-83736665D02*
X150471476Y-83831903D01*
X150471476Y-83831903D02*
X150495285Y-83879522D01*
X150495285Y-83879522D02*
X150519095Y-83903332D01*
X150519095Y-83903332D02*
X150566714Y-83927141D01*
X150566714Y-83927141D02*
X150709571Y-83927141D01*
X150709571Y-83927141D02*
X150757190Y-83903332D01*
X150757190Y-83903332D02*
X150781000Y-83879522D01*
X150781000Y-83879522D02*
X150804809Y-83831903D01*
X150804809Y-83831903D02*
X150804809Y-83736665D01*
X150804809Y-83736665D02*
X150781000Y-83689046D01*
X145294809Y-79560953D02*
X144794809Y-79560953D01*
X145271000Y-79560953D02*
X145294809Y-79513334D01*
X145294809Y-79513334D02*
X145294809Y-79418096D01*
X145294809Y-79418096D02*
X145271000Y-79370477D01*
X145271000Y-79370477D02*
X145247190Y-79346667D01*
X145247190Y-79346667D02*
X145199571Y-79322858D01*
X145199571Y-79322858D02*
X145056714Y-79322858D01*
X145056714Y-79322858D02*
X145009095Y-79346667D01*
X145009095Y-79346667D02*
X144985285Y-79370477D01*
X144985285Y-79370477D02*
X144961476Y-79418096D01*
X144961476Y-79418096D02*
X144961476Y-79513334D01*
X144961476Y-79513334D02*
X144985285Y-79560953D01*
X145294809Y-80013334D02*
X145032904Y-80013334D01*
X145032904Y-80013334D02*
X144985285Y-79989524D01*
X144985285Y-79989524D02*
X144961476Y-79941905D01*
X144961476Y-79941905D02*
X144961476Y-79846667D01*
X144961476Y-79846667D02*
X144985285Y-79799048D01*
X145271000Y-80013334D02*
X145294809Y-79965715D01*
X145294809Y-79965715D02*
X145294809Y-79846667D01*
X145294809Y-79846667D02*
X145271000Y-79799048D01*
X145271000Y-79799048D02*
X145223380Y-79775239D01*
X145223380Y-79775239D02*
X145175761Y-79775239D01*
X145175761Y-79775239D02*
X145128142Y-79799048D01*
X145128142Y-79799048D02*
X145104333Y-79846667D01*
X145104333Y-79846667D02*
X145104333Y-79965715D01*
X145104333Y-79965715D02*
X145080523Y-80013334D01*
X144961476Y-80180001D02*
X144961476Y-80370477D01*
X144794809Y-80251429D02*
X145223380Y-80251429D01*
X145223380Y-80251429D02*
X145271000Y-80275239D01*
X145271000Y-80275239D02*
X145294809Y-80322858D01*
X145294809Y-80322858D02*
X145294809Y-80370477D01*
X145294809Y-80751429D02*
X145032904Y-80751429D01*
X145032904Y-80751429D02*
X144985285Y-80727619D01*
X144985285Y-80727619D02*
X144961476Y-80680000D01*
X144961476Y-80680000D02*
X144961476Y-80584762D01*
X144961476Y-80584762D02*
X144985285Y-80537143D01*
X145271000Y-80751429D02*
X145294809Y-80703810D01*
X145294809Y-80703810D02*
X145294809Y-80584762D01*
X145294809Y-80584762D02*
X145271000Y-80537143D01*
X145271000Y-80537143D02*
X145223380Y-80513334D01*
X145223380Y-80513334D02*
X145175761Y-80513334D01*
X145175761Y-80513334D02*
X145128142Y-80537143D01*
X145128142Y-80537143D02*
X145104333Y-80584762D01*
X145104333Y-80584762D02*
X145104333Y-80703810D01*
X145104333Y-80703810D02*
X145080523Y-80751429D01*
X145342428Y-80870477D02*
X145342428Y-81251429D01*
X145294809Y-81441905D02*
X145271000Y-81394286D01*
X145271000Y-81394286D02*
X145247190Y-81370476D01*
X145247190Y-81370476D02*
X145199571Y-81346667D01*
X145199571Y-81346667D02*
X145056714Y-81346667D01*
X145056714Y-81346667D02*
X145009095Y-81370476D01*
X145009095Y-81370476D02*
X144985285Y-81394286D01*
X144985285Y-81394286D02*
X144961476Y-81441905D01*
X144961476Y-81441905D02*
X144961476Y-81513333D01*
X144961476Y-81513333D02*
X144985285Y-81560952D01*
X144985285Y-81560952D02*
X145009095Y-81584762D01*
X145009095Y-81584762D02*
X145056714Y-81608571D01*
X145056714Y-81608571D02*
X145199571Y-81608571D01*
X145199571Y-81608571D02*
X145247190Y-81584762D01*
X145247190Y-81584762D02*
X145271000Y-81560952D01*
X145271000Y-81560952D02*
X145294809Y-81513333D01*
X145294809Y-81513333D02*
X145294809Y-81441905D01*
X144961476Y-82037143D02*
X145294809Y-82037143D01*
X144961476Y-81822857D02*
X145223380Y-81822857D01*
X145223380Y-81822857D02*
X145271000Y-81846667D01*
X145271000Y-81846667D02*
X145294809Y-81894286D01*
X145294809Y-81894286D02*
X145294809Y-81965714D01*
X145294809Y-81965714D02*
X145271000Y-82013333D01*
X145271000Y-82013333D02*
X145247190Y-82037143D01*
X144961476Y-82203810D02*
X144961476Y-82394286D01*
X144794809Y-82275238D02*
X145223380Y-82275238D01*
X145223380Y-82275238D02*
X145271000Y-82299048D01*
X145271000Y-82299048D02*
X145294809Y-82346667D01*
X145294809Y-82346667D02*
X145294809Y-82394286D01*
X145342428Y-82441905D02*
X145342428Y-82822857D01*
X144794809Y-83037142D02*
X144794809Y-83084761D01*
X144794809Y-83084761D02*
X144818619Y-83132380D01*
X144818619Y-83132380D02*
X144842428Y-83156190D01*
X144842428Y-83156190D02*
X144890047Y-83179999D01*
X144890047Y-83179999D02*
X144985285Y-83203809D01*
X144985285Y-83203809D02*
X145104333Y-83203809D01*
X145104333Y-83203809D02*
X145199571Y-83179999D01*
X145199571Y-83179999D02*
X145247190Y-83156190D01*
X145247190Y-83156190D02*
X145271000Y-83132380D01*
X145271000Y-83132380D02*
X145294809Y-83084761D01*
X145294809Y-83084761D02*
X145294809Y-83037142D01*
X145294809Y-83037142D02*
X145271000Y-82989523D01*
X145271000Y-82989523D02*
X145247190Y-82965714D01*
X145247190Y-82965714D02*
X145199571Y-82941904D01*
X145199571Y-82941904D02*
X145104333Y-82918095D01*
X145104333Y-82918095D02*
X144985285Y-82918095D01*
X144985285Y-82918095D02*
X144890047Y-82941904D01*
X144890047Y-82941904D02*
X144842428Y-82965714D01*
X144842428Y-82965714D02*
X144818619Y-82989523D01*
X144818619Y-82989523D02*
X144794809Y-83037142D01*
X145342428Y-83299047D02*
X145342428Y-83679999D01*
X144961476Y-83799046D02*
X145461476Y-83799046D01*
X144985285Y-83799046D02*
X144961476Y-83846665D01*
X144961476Y-83846665D02*
X144961476Y-83941903D01*
X144961476Y-83941903D02*
X144985285Y-83989522D01*
X144985285Y-83989522D02*
X145009095Y-84013332D01*
X145009095Y-84013332D02*
X145056714Y-84037141D01*
X145056714Y-84037141D02*
X145199571Y-84037141D01*
X145199571Y-84037141D02*
X145247190Y-84013332D01*
X145247190Y-84013332D02*
X145271000Y-83989522D01*
X145271000Y-83989522D02*
X145294809Y-83941903D01*
X145294809Y-83941903D02*
X145294809Y-83846665D01*
X145294809Y-83846665D02*
X145271000Y-83799046D01*
D11*
X163749047Y-72678152D02*
X163510952Y-73344819D01*
X163510952Y-73344819D02*
X163272857Y-72678152D01*
X162463333Y-73344819D02*
X162463333Y-72344819D01*
X162463333Y-73297200D02*
X162558571Y-73344819D01*
X162558571Y-73344819D02*
X162749047Y-73344819D01*
X162749047Y-73344819D02*
X162844285Y-73297200D01*
X162844285Y-73297200D02*
X162891904Y-73249580D01*
X162891904Y-73249580D02*
X162939523Y-73154342D01*
X162939523Y-73154342D02*
X162939523Y-72868628D01*
X162939523Y-72868628D02*
X162891904Y-72773390D01*
X162891904Y-72773390D02*
X162844285Y-72725771D01*
X162844285Y-72725771D02*
X162749047Y-72678152D01*
X162749047Y-72678152D02*
X162558571Y-72678152D01*
X162558571Y-72678152D02*
X162463333Y-72725771D01*
X161558571Y-73344819D02*
X161558571Y-72344819D01*
X161558571Y-73297200D02*
X161653809Y-73344819D01*
X161653809Y-73344819D02*
X161844285Y-73344819D01*
X161844285Y-73344819D02*
X161939523Y-73297200D01*
X161939523Y-73297200D02*
X161987142Y-73249580D01*
X161987142Y-73249580D02*
X162034761Y-73154342D01*
X162034761Y-73154342D02*
X162034761Y-72868628D01*
X162034761Y-72868628D02*
X161987142Y-72773390D01*
X161987142Y-72773390D02*
X161939523Y-72725771D01*
X161939523Y-72725771D02*
X161844285Y-72678152D01*
X161844285Y-72678152D02*
X161653809Y-72678152D01*
X161653809Y-72678152D02*
X161558571Y-72725771D01*
X161129999Y-72440057D02*
X161082380Y-72392438D01*
X161082380Y-72392438D02*
X160987142Y-72344819D01*
X160987142Y-72344819D02*
X160749047Y-72344819D01*
X160749047Y-72344819D02*
X160653809Y-72392438D01*
X160653809Y-72392438D02*
X160606190Y-72440057D01*
X160606190Y-72440057D02*
X160558571Y-72535295D01*
X160558571Y-72535295D02*
X160558571Y-72630533D01*
X160558571Y-72630533D02*
X160606190Y-72773390D01*
X160606190Y-72773390D02*
X161177618Y-73344819D01*
X161177618Y-73344819D02*
X160558571Y-73344819D01*
X162379047Y-75238152D02*
X162140952Y-75904819D01*
X162140952Y-75904819D02*
X161902857Y-75238152D01*
X161093333Y-75904819D02*
X161093333Y-74904819D01*
X161093333Y-75857200D02*
X161188571Y-75904819D01*
X161188571Y-75904819D02*
X161379047Y-75904819D01*
X161379047Y-75904819D02*
X161474285Y-75857200D01*
X161474285Y-75857200D02*
X161521904Y-75809580D01*
X161521904Y-75809580D02*
X161569523Y-75714342D01*
X161569523Y-75714342D02*
X161569523Y-75428628D01*
X161569523Y-75428628D02*
X161521904Y-75333390D01*
X161521904Y-75333390D02*
X161474285Y-75285771D01*
X161474285Y-75285771D02*
X161379047Y-75238152D01*
X161379047Y-75238152D02*
X161188571Y-75238152D01*
X161188571Y-75238152D02*
X161093333Y-75285771D01*
X160188571Y-75904819D02*
X160188571Y-74904819D01*
X160188571Y-75857200D02*
X160283809Y-75904819D01*
X160283809Y-75904819D02*
X160474285Y-75904819D01*
X160474285Y-75904819D02*
X160569523Y-75857200D01*
X160569523Y-75857200D02*
X160617142Y-75809580D01*
X160617142Y-75809580D02*
X160664761Y-75714342D01*
X160664761Y-75714342D02*
X160664761Y-75428628D01*
X160664761Y-75428628D02*
X160617142Y-75333390D01*
X160617142Y-75333390D02*
X160569523Y-75285771D01*
X160569523Y-75285771D02*
X160474285Y-75238152D01*
X160474285Y-75238152D02*
X160283809Y-75238152D01*
X160283809Y-75238152D02*
X160188571Y-75285771D01*
X159759999Y-75000057D02*
X159712380Y-74952438D01*
X159712380Y-74952438D02*
X159617142Y-74904819D01*
X159617142Y-74904819D02*
X159379047Y-74904819D01*
X159379047Y-74904819D02*
X159283809Y-74952438D01*
X159283809Y-74952438D02*
X159236190Y-75000057D01*
X159236190Y-75000057D02*
X159188571Y-75095295D01*
X159188571Y-75095295D02*
X159188571Y-75190533D01*
X159188571Y-75190533D02*
X159236190Y-75333390D01*
X159236190Y-75333390D02*
X159807618Y-75904819D01*
X159807618Y-75904819D02*
X159188571Y-75904819D01*
X157982143Y-86766009D02*
X157648810Y-86766009D01*
X157505953Y-87289819D02*
X157982143Y-87289819D01*
X157982143Y-87289819D02*
X157982143Y-86289819D01*
X157982143Y-86289819D02*
X157505953Y-86289819D01*
X157077381Y-87194580D02*
X157029762Y-87242200D01*
X157029762Y-87242200D02*
X157077381Y-87289819D01*
X157077381Y-87289819D02*
X157125000Y-87242200D01*
X157125000Y-87242200D02*
X157077381Y-87194580D01*
X157077381Y-87194580D02*
X157077381Y-87289819D01*
X155886905Y-87004104D02*
X155410715Y-87004104D01*
X155982143Y-87289819D02*
X155648810Y-86289819D01*
X155648810Y-86289819D02*
X155315477Y-87289819D01*
X154982143Y-86623152D02*
X154982143Y-87289819D01*
X154982143Y-86718390D02*
X154934524Y-86670771D01*
X154934524Y-86670771D02*
X154839286Y-86623152D01*
X154839286Y-86623152D02*
X154696429Y-86623152D01*
X154696429Y-86623152D02*
X154601191Y-86670771D01*
X154601191Y-86670771D02*
X154553572Y-86766009D01*
X154553572Y-86766009D02*
X154553572Y-87289819D01*
X153648810Y-86623152D02*
X153648810Y-87432676D01*
X153648810Y-87432676D02*
X153696429Y-87527914D01*
X153696429Y-87527914D02*
X153744048Y-87575533D01*
X153744048Y-87575533D02*
X153839286Y-87623152D01*
X153839286Y-87623152D02*
X153982143Y-87623152D01*
X153982143Y-87623152D02*
X154077381Y-87575533D01*
X153648810Y-87242200D02*
X153744048Y-87289819D01*
X153744048Y-87289819D02*
X153934524Y-87289819D01*
X153934524Y-87289819D02*
X154029762Y-87242200D01*
X154029762Y-87242200D02*
X154077381Y-87194580D01*
X154077381Y-87194580D02*
X154125000Y-87099342D01*
X154125000Y-87099342D02*
X154125000Y-86813628D01*
X154125000Y-86813628D02*
X154077381Y-86718390D01*
X154077381Y-86718390D02*
X154029762Y-86670771D01*
X154029762Y-86670771D02*
X153934524Y-86623152D01*
X153934524Y-86623152D02*
X153744048Y-86623152D01*
X153744048Y-86623152D02*
X153648810Y-86670771D01*
X152791667Y-87242200D02*
X152886905Y-87289819D01*
X152886905Y-87289819D02*
X153077381Y-87289819D01*
X153077381Y-87289819D02*
X153172619Y-87242200D01*
X153172619Y-87242200D02*
X153220238Y-87146961D01*
X153220238Y-87146961D02*
X153220238Y-86766009D01*
X153220238Y-86766009D02*
X153172619Y-86670771D01*
X153172619Y-86670771D02*
X153077381Y-86623152D01*
X153077381Y-86623152D02*
X152886905Y-86623152D01*
X152886905Y-86623152D02*
X152791667Y-86670771D01*
X152791667Y-86670771D02*
X152744048Y-86766009D01*
X152744048Y-86766009D02*
X152744048Y-86861247D01*
X152744048Y-86861247D02*
X153220238Y-86956485D01*
X152172619Y-87289819D02*
X152267857Y-87242200D01*
X152267857Y-87242200D02*
X152315476Y-87146961D01*
X152315476Y-87146961D02*
X152315476Y-86289819D01*
X151791666Y-87289819D02*
X151791666Y-86623152D01*
X151791666Y-86289819D02*
X151839285Y-86337438D01*
X151839285Y-86337438D02*
X151791666Y-86385057D01*
X151791666Y-86385057D02*
X151744047Y-86337438D01*
X151744047Y-86337438D02*
X151791666Y-86289819D01*
X151791666Y-86289819D02*
X151791666Y-86385057D01*
X150886905Y-87242200D02*
X150982143Y-87289819D01*
X150982143Y-87289819D02*
X151172619Y-87289819D01*
X151172619Y-87289819D02*
X151267857Y-87242200D01*
X151267857Y-87242200D02*
X151315476Y-87194580D01*
X151315476Y-87194580D02*
X151363095Y-87099342D01*
X151363095Y-87099342D02*
X151363095Y-86813628D01*
X151363095Y-86813628D02*
X151315476Y-86718390D01*
X151315476Y-86718390D02*
X151267857Y-86670771D01*
X151267857Y-86670771D02*
X151172619Y-86623152D01*
X151172619Y-86623152D02*
X150982143Y-86623152D01*
X150982143Y-86623152D02*
X150886905Y-86670771D01*
X150315476Y-87289819D02*
X150410714Y-87242200D01*
X150410714Y-87242200D02*
X150458333Y-87194580D01*
X150458333Y-87194580D02*
X150505952Y-87099342D01*
X150505952Y-87099342D02*
X150505952Y-86813628D01*
X150505952Y-86813628D02*
X150458333Y-86718390D01*
X150458333Y-86718390D02*
X150410714Y-86670771D01*
X150410714Y-86670771D02*
X150315476Y-86623152D01*
X150315476Y-86623152D02*
X150172619Y-86623152D01*
X150172619Y-86623152D02*
X150077381Y-86670771D01*
X150077381Y-86670771D02*
X150029762Y-86718390D01*
X150029762Y-86718390D02*
X149982143Y-86813628D01*
X149982143Y-86813628D02*
X149982143Y-87099342D01*
X149982143Y-87099342D02*
X150029762Y-87194580D01*
X150029762Y-87194580D02*
X150077381Y-87242200D01*
X150077381Y-87242200D02*
X150172619Y-87289819D01*
X150172619Y-87289819D02*
X150315476Y-87289819D01*
X149505952Y-87242200D02*
X149505952Y-87289819D01*
X149505952Y-87289819D02*
X149553571Y-87385057D01*
X149553571Y-87385057D02*
X149601190Y-87432676D01*
X148029762Y-86289819D02*
X148029762Y-87004104D01*
X148029762Y-87004104D02*
X148077381Y-87146961D01*
X148077381Y-87146961D02*
X148172619Y-87242200D01*
X148172619Y-87242200D02*
X148315476Y-87289819D01*
X148315476Y-87289819D02*
X148410714Y-87289819D01*
X147125000Y-86623152D02*
X147125000Y-87289819D01*
X147553571Y-86623152D02*
X147553571Y-87146961D01*
X147553571Y-87146961D02*
X147505952Y-87242200D01*
X147505952Y-87242200D02*
X147410714Y-87289819D01*
X147410714Y-87289819D02*
X147267857Y-87289819D01*
X147267857Y-87289819D02*
X147172619Y-87242200D01*
X147172619Y-87242200D02*
X147125000Y-87194580D01*
X146505952Y-87289819D02*
X146601190Y-87242200D01*
X146601190Y-87242200D02*
X146648809Y-87146961D01*
X146648809Y-87146961D02*
X146648809Y-86289819D01*
X146220237Y-86623152D02*
X145982142Y-87289819D01*
X145744047Y-86623152D02*
X145982142Y-87289819D01*
X145982142Y-87289819D02*
X146077380Y-87527914D01*
X146077380Y-87527914D02*
X146124999Y-87575533D01*
X146124999Y-87575533D02*
X146220237Y-87623152D01*
X144648808Y-86385057D02*
X144601189Y-86337438D01*
X144601189Y-86337438D02*
X144505951Y-86289819D01*
X144505951Y-86289819D02*
X144267856Y-86289819D01*
X144267856Y-86289819D02*
X144172618Y-86337438D01*
X144172618Y-86337438D02*
X144124999Y-86385057D01*
X144124999Y-86385057D02*
X144077380Y-86480295D01*
X144077380Y-86480295D02*
X144077380Y-86575533D01*
X144077380Y-86575533D02*
X144124999Y-86718390D01*
X144124999Y-86718390D02*
X144696427Y-87289819D01*
X144696427Y-87289819D02*
X144077380Y-87289819D01*
X143458332Y-86289819D02*
X143363094Y-86289819D01*
X143363094Y-86289819D02*
X143267856Y-86337438D01*
X143267856Y-86337438D02*
X143220237Y-86385057D01*
X143220237Y-86385057D02*
X143172618Y-86480295D01*
X143172618Y-86480295D02*
X143124999Y-86670771D01*
X143124999Y-86670771D02*
X143124999Y-86908866D01*
X143124999Y-86908866D02*
X143172618Y-87099342D01*
X143172618Y-87099342D02*
X143220237Y-87194580D01*
X143220237Y-87194580D02*
X143267856Y-87242200D01*
X143267856Y-87242200D02*
X143363094Y-87289819D01*
X143363094Y-87289819D02*
X143458332Y-87289819D01*
X143458332Y-87289819D02*
X143553570Y-87242200D01*
X143553570Y-87242200D02*
X143601189Y-87194580D01*
X143601189Y-87194580D02*
X143648808Y-87099342D01*
X143648808Y-87099342D02*
X143696427Y-86908866D01*
X143696427Y-86908866D02*
X143696427Y-86670771D01*
X143696427Y-86670771D02*
X143648808Y-86480295D01*
X143648808Y-86480295D02*
X143601189Y-86385057D01*
X143601189Y-86385057D02*
X143553570Y-86337438D01*
X143553570Y-86337438D02*
X143458332Y-86289819D01*
X142744046Y-86385057D02*
X142696427Y-86337438D01*
X142696427Y-86337438D02*
X142601189Y-86289819D01*
X142601189Y-86289819D02*
X142363094Y-86289819D01*
X142363094Y-86289819D02*
X142267856Y-86337438D01*
X142267856Y-86337438D02*
X142220237Y-86385057D01*
X142220237Y-86385057D02*
X142172618Y-86480295D01*
X142172618Y-86480295D02*
X142172618Y-86575533D01*
X142172618Y-86575533D02*
X142220237Y-86718390D01*
X142220237Y-86718390D02*
X142791665Y-87289819D01*
X142791665Y-87289819D02*
X142172618Y-87289819D01*
X141839284Y-86289819D02*
X141220237Y-86289819D01*
X141220237Y-86289819D02*
X141553570Y-86670771D01*
X141553570Y-86670771D02*
X141410713Y-86670771D01*
X141410713Y-86670771D02*
X141315475Y-86718390D01*
X141315475Y-86718390D02*
X141267856Y-86766009D01*
X141267856Y-86766009D02*
X141220237Y-86861247D01*
X141220237Y-86861247D02*
X141220237Y-87099342D01*
X141220237Y-87099342D02*
X141267856Y-87194580D01*
X141267856Y-87194580D02*
X141315475Y-87242200D01*
X141315475Y-87242200D02*
X141410713Y-87289819D01*
X141410713Y-87289819D02*
X141696427Y-87289819D01*
X141696427Y-87289819D02*
X141791665Y-87242200D01*
X141791665Y-87242200D02*
X141839284Y-87194580D01*
X157363096Y-88804580D02*
X157410715Y-88852200D01*
X157410715Y-88852200D02*
X157553572Y-88899819D01*
X157553572Y-88899819D02*
X157648810Y-88899819D01*
X157648810Y-88899819D02*
X157791667Y-88852200D01*
X157791667Y-88852200D02*
X157886905Y-88756961D01*
X157886905Y-88756961D02*
X157934524Y-88661723D01*
X157934524Y-88661723D02*
X157982143Y-88471247D01*
X157982143Y-88471247D02*
X157982143Y-88328390D01*
X157982143Y-88328390D02*
X157934524Y-88137914D01*
X157934524Y-88137914D02*
X157886905Y-88042676D01*
X157886905Y-88042676D02*
X157791667Y-87947438D01*
X157791667Y-87947438D02*
X157648810Y-87899819D01*
X157648810Y-87899819D02*
X157553572Y-87899819D01*
X157553572Y-87899819D02*
X157410715Y-87947438D01*
X157410715Y-87947438D02*
X157363096Y-87995057D01*
X156505953Y-88899819D02*
X156505953Y-88376009D01*
X156505953Y-88376009D02*
X156553572Y-88280771D01*
X156553572Y-88280771D02*
X156648810Y-88233152D01*
X156648810Y-88233152D02*
X156839286Y-88233152D01*
X156839286Y-88233152D02*
X156934524Y-88280771D01*
X156505953Y-88852200D02*
X156601191Y-88899819D01*
X156601191Y-88899819D02*
X156839286Y-88899819D01*
X156839286Y-88899819D02*
X156934524Y-88852200D01*
X156934524Y-88852200D02*
X156982143Y-88756961D01*
X156982143Y-88756961D02*
X156982143Y-88661723D01*
X156982143Y-88661723D02*
X156934524Y-88566485D01*
X156934524Y-88566485D02*
X156839286Y-88518866D01*
X156839286Y-88518866D02*
X156601191Y-88518866D01*
X156601191Y-88518866D02*
X156505953Y-88471247D01*
X156029762Y-88899819D02*
X156029762Y-87899819D01*
X156029762Y-88280771D02*
X155934524Y-88233152D01*
X155934524Y-88233152D02*
X155744048Y-88233152D01*
X155744048Y-88233152D02*
X155648810Y-88280771D01*
X155648810Y-88280771D02*
X155601191Y-88328390D01*
X155601191Y-88328390D02*
X155553572Y-88423628D01*
X155553572Y-88423628D02*
X155553572Y-88709342D01*
X155553572Y-88709342D02*
X155601191Y-88804580D01*
X155601191Y-88804580D02*
X155648810Y-88852200D01*
X155648810Y-88852200D02*
X155744048Y-88899819D01*
X155744048Y-88899819D02*
X155934524Y-88899819D01*
X155934524Y-88899819D02*
X156029762Y-88852200D01*
X154982143Y-88899819D02*
X155077381Y-88852200D01*
X155077381Y-88852200D02*
X155125000Y-88756961D01*
X155125000Y-88756961D02*
X155125000Y-87899819D01*
X154220238Y-88852200D02*
X154315476Y-88899819D01*
X154315476Y-88899819D02*
X154505952Y-88899819D01*
X154505952Y-88899819D02*
X154601190Y-88852200D01*
X154601190Y-88852200D02*
X154648809Y-88756961D01*
X154648809Y-88756961D02*
X154648809Y-88376009D01*
X154648809Y-88376009D02*
X154601190Y-88280771D01*
X154601190Y-88280771D02*
X154505952Y-88233152D01*
X154505952Y-88233152D02*
X154315476Y-88233152D01*
X154315476Y-88233152D02*
X154220238Y-88280771D01*
X154220238Y-88280771D02*
X154172619Y-88376009D01*
X154172619Y-88376009D02*
X154172619Y-88471247D01*
X154172619Y-88471247D02*
X154648809Y-88566485D01*
X153791666Y-88614104D02*
X153315476Y-88614104D01*
X153886904Y-88899819D02*
X153553571Y-87899819D01*
X153553571Y-87899819D02*
X153220238Y-88899819D01*
X152458333Y-88899819D02*
X152458333Y-87899819D01*
X152458333Y-88852200D02*
X152553571Y-88899819D01*
X152553571Y-88899819D02*
X152744047Y-88899819D01*
X152744047Y-88899819D02*
X152839285Y-88852200D01*
X152839285Y-88852200D02*
X152886904Y-88804580D01*
X152886904Y-88804580D02*
X152934523Y-88709342D01*
X152934523Y-88709342D02*
X152934523Y-88423628D01*
X152934523Y-88423628D02*
X152886904Y-88328390D01*
X152886904Y-88328390D02*
X152839285Y-88280771D01*
X152839285Y-88280771D02*
X152744047Y-88233152D01*
X152744047Y-88233152D02*
X152553571Y-88233152D01*
X152553571Y-88233152D02*
X152458333Y-88280771D01*
X151553571Y-88899819D02*
X151553571Y-88376009D01*
X151553571Y-88376009D02*
X151601190Y-88280771D01*
X151601190Y-88280771D02*
X151696428Y-88233152D01*
X151696428Y-88233152D02*
X151886904Y-88233152D01*
X151886904Y-88233152D02*
X151982142Y-88280771D01*
X151553571Y-88852200D02*
X151648809Y-88899819D01*
X151648809Y-88899819D02*
X151886904Y-88899819D01*
X151886904Y-88899819D02*
X151982142Y-88852200D01*
X151982142Y-88852200D02*
X152029761Y-88756961D01*
X152029761Y-88756961D02*
X152029761Y-88661723D01*
X152029761Y-88661723D02*
X151982142Y-88566485D01*
X151982142Y-88566485D02*
X151886904Y-88518866D01*
X151886904Y-88518866D02*
X151648809Y-88518866D01*
X151648809Y-88518866D02*
X151553571Y-88471247D01*
X151077380Y-88233152D02*
X151077380Y-89233152D01*
X151077380Y-88280771D02*
X150982142Y-88233152D01*
X150982142Y-88233152D02*
X150791666Y-88233152D01*
X150791666Y-88233152D02*
X150696428Y-88280771D01*
X150696428Y-88280771D02*
X150648809Y-88328390D01*
X150648809Y-88328390D02*
X150601190Y-88423628D01*
X150601190Y-88423628D02*
X150601190Y-88709342D01*
X150601190Y-88709342D02*
X150648809Y-88804580D01*
X150648809Y-88804580D02*
X150696428Y-88852200D01*
X150696428Y-88852200D02*
X150791666Y-88899819D01*
X150791666Y-88899819D02*
X150982142Y-88899819D01*
X150982142Y-88899819D02*
X151077380Y-88852200D01*
X150315475Y-88233152D02*
X149934523Y-88233152D01*
X150172618Y-87899819D02*
X150172618Y-88756961D01*
X150172618Y-88756961D02*
X150124999Y-88852200D01*
X150124999Y-88852200D02*
X150029761Y-88899819D01*
X150029761Y-88899819D02*
X149934523Y-88899819D01*
X149220237Y-88852200D02*
X149315475Y-88899819D01*
X149315475Y-88899819D02*
X149505951Y-88899819D01*
X149505951Y-88899819D02*
X149601189Y-88852200D01*
X149601189Y-88852200D02*
X149648808Y-88756961D01*
X149648808Y-88756961D02*
X149648808Y-88376009D01*
X149648808Y-88376009D02*
X149601189Y-88280771D01*
X149601189Y-88280771D02*
X149505951Y-88233152D01*
X149505951Y-88233152D02*
X149315475Y-88233152D01*
X149315475Y-88233152D02*
X149220237Y-88280771D01*
X149220237Y-88280771D02*
X149172618Y-88376009D01*
X149172618Y-88376009D02*
X149172618Y-88471247D01*
X149172618Y-88471247D02*
X149648808Y-88566485D01*
X148744046Y-88899819D02*
X148744046Y-88233152D01*
X148744046Y-88423628D02*
X148696427Y-88328390D01*
X148696427Y-88328390D02*
X148648808Y-88280771D01*
X148648808Y-88280771D02*
X148553570Y-88233152D01*
X148553570Y-88233152D02*
X148458332Y-88233152D01*
X147791665Y-88376009D02*
X147648808Y-88423628D01*
X147648808Y-88423628D02*
X147601189Y-88471247D01*
X147601189Y-88471247D02*
X147553570Y-88566485D01*
X147553570Y-88566485D02*
X147553570Y-88709342D01*
X147553570Y-88709342D02*
X147601189Y-88804580D01*
X147601189Y-88804580D02*
X147648808Y-88852200D01*
X147648808Y-88852200D02*
X147744046Y-88899819D01*
X147744046Y-88899819D02*
X148124998Y-88899819D01*
X148124998Y-88899819D02*
X148124998Y-87899819D01*
X148124998Y-87899819D02*
X147791665Y-87899819D01*
X147791665Y-87899819D02*
X147696427Y-87947438D01*
X147696427Y-87947438D02*
X147648808Y-87995057D01*
X147648808Y-87995057D02*
X147601189Y-88090295D01*
X147601189Y-88090295D02*
X147601189Y-88185533D01*
X147601189Y-88185533D02*
X147648808Y-88280771D01*
X147648808Y-88280771D02*
X147696427Y-88328390D01*
X147696427Y-88328390D02*
X147791665Y-88376009D01*
X147791665Y-88376009D02*
X148124998Y-88376009D01*
X146982141Y-88899819D02*
X147077379Y-88852200D01*
X147077379Y-88852200D02*
X147124998Y-88804580D01*
X147124998Y-88804580D02*
X147172617Y-88709342D01*
X147172617Y-88709342D02*
X147172617Y-88423628D01*
X147172617Y-88423628D02*
X147124998Y-88328390D01*
X147124998Y-88328390D02*
X147077379Y-88280771D01*
X147077379Y-88280771D02*
X146982141Y-88233152D01*
X146982141Y-88233152D02*
X146839284Y-88233152D01*
X146839284Y-88233152D02*
X146744046Y-88280771D01*
X146744046Y-88280771D02*
X146696427Y-88328390D01*
X146696427Y-88328390D02*
X146648808Y-88423628D01*
X146648808Y-88423628D02*
X146648808Y-88709342D01*
X146648808Y-88709342D02*
X146696427Y-88804580D01*
X146696427Y-88804580D02*
X146744046Y-88852200D01*
X146744046Y-88852200D02*
X146839284Y-88899819D01*
X146839284Y-88899819D02*
X146982141Y-88899819D01*
X145791665Y-88899819D02*
X145791665Y-88376009D01*
X145791665Y-88376009D02*
X145839284Y-88280771D01*
X145839284Y-88280771D02*
X145934522Y-88233152D01*
X145934522Y-88233152D02*
X146124998Y-88233152D01*
X146124998Y-88233152D02*
X146220236Y-88280771D01*
X145791665Y-88852200D02*
X145886903Y-88899819D01*
X145886903Y-88899819D02*
X146124998Y-88899819D01*
X146124998Y-88899819D02*
X146220236Y-88852200D01*
X146220236Y-88852200D02*
X146267855Y-88756961D01*
X146267855Y-88756961D02*
X146267855Y-88661723D01*
X146267855Y-88661723D02*
X146220236Y-88566485D01*
X146220236Y-88566485D02*
X146124998Y-88518866D01*
X146124998Y-88518866D02*
X145886903Y-88518866D01*
X145886903Y-88518866D02*
X145791665Y-88471247D01*
X145315474Y-88899819D02*
X145315474Y-88233152D01*
X145315474Y-88423628D02*
X145267855Y-88328390D01*
X145267855Y-88328390D02*
X145220236Y-88280771D01*
X145220236Y-88280771D02*
X145124998Y-88233152D01*
X145124998Y-88233152D02*
X145029760Y-88233152D01*
X144267855Y-88899819D02*
X144267855Y-87899819D01*
X144267855Y-88852200D02*
X144363093Y-88899819D01*
X144363093Y-88899819D02*
X144553569Y-88899819D01*
X144553569Y-88899819D02*
X144648807Y-88852200D01*
X144648807Y-88852200D02*
X144696426Y-88804580D01*
X144696426Y-88804580D02*
X144744045Y-88709342D01*
X144744045Y-88709342D02*
X144744045Y-88423628D01*
X144744045Y-88423628D02*
X144696426Y-88328390D01*
X144696426Y-88328390D02*
X144648807Y-88280771D01*
X144648807Y-88280771D02*
X144553569Y-88233152D01*
X144553569Y-88233152D02*
X144363093Y-88233152D01*
X144363093Y-88233152D02*
X144267855Y-88280771D01*
X143744045Y-88852200D02*
X143744045Y-88899819D01*
X143744045Y-88899819D02*
X143791664Y-88995057D01*
X143791664Y-88995057D02*
X143839283Y-89042676D01*
X142648807Y-88233152D02*
X142410712Y-88899819D01*
X142410712Y-88899819D02*
X142172617Y-88233152D01*
X141839283Y-87995057D02*
X141791664Y-87947438D01*
X141791664Y-87947438D02*
X141696426Y-87899819D01*
X141696426Y-87899819D02*
X141458331Y-87899819D01*
X141458331Y-87899819D02*
X141363093Y-87947438D01*
X141363093Y-87947438D02*
X141315474Y-87995057D01*
X141315474Y-87995057D02*
X141267855Y-88090295D01*
X141267855Y-88090295D02*
X141267855Y-88185533D01*
X141267855Y-88185533D02*
X141315474Y-88328390D01*
X141315474Y-88328390D02*
X141886902Y-88899819D01*
X141886902Y-88899819D02*
X141267855Y-88899819D01*
X160434524Y-89509819D02*
X160434524Y-89700295D01*
X160053572Y-89509819D02*
X160053572Y-89700295D01*
X159720238Y-89509819D02*
X159482143Y-90509819D01*
X159482143Y-90509819D02*
X159291667Y-89795533D01*
X159291667Y-89795533D02*
X159101191Y-90509819D01*
X159101191Y-90509819D02*
X158863096Y-89509819D01*
X158482143Y-90509819D02*
X158482143Y-89843152D01*
X158482143Y-89509819D02*
X158529762Y-89557438D01*
X158529762Y-89557438D02*
X158482143Y-89605057D01*
X158482143Y-89605057D02*
X158434524Y-89557438D01*
X158434524Y-89557438D02*
X158482143Y-89509819D01*
X158482143Y-89509819D02*
X158482143Y-89605057D01*
X157863096Y-90509819D02*
X157958334Y-90462200D01*
X157958334Y-90462200D02*
X158005953Y-90366961D01*
X158005953Y-90366961D02*
X158005953Y-89509819D01*
X157339286Y-90509819D02*
X157434524Y-90462200D01*
X157434524Y-90462200D02*
X157482143Y-90366961D01*
X157482143Y-90366961D02*
X157482143Y-89509819D01*
X156244047Y-90462200D02*
X156148809Y-90509819D01*
X156148809Y-90509819D02*
X155958333Y-90509819D01*
X155958333Y-90509819D02*
X155863095Y-90462200D01*
X155863095Y-90462200D02*
X155815476Y-90366961D01*
X155815476Y-90366961D02*
X155815476Y-90319342D01*
X155815476Y-90319342D02*
X155863095Y-90224104D01*
X155863095Y-90224104D02*
X155958333Y-90176485D01*
X155958333Y-90176485D02*
X156101190Y-90176485D01*
X156101190Y-90176485D02*
X156196428Y-90128866D01*
X156196428Y-90128866D02*
X156244047Y-90033628D01*
X156244047Y-90033628D02*
X156244047Y-89986009D01*
X156244047Y-89986009D02*
X156196428Y-89890771D01*
X156196428Y-89890771D02*
X156101190Y-89843152D01*
X156101190Y-89843152D02*
X155958333Y-89843152D01*
X155958333Y-89843152D02*
X155863095Y-89890771D01*
X155244047Y-90509819D02*
X155339285Y-90462200D01*
X155339285Y-90462200D02*
X155386904Y-90414580D01*
X155386904Y-90414580D02*
X155434523Y-90319342D01*
X155434523Y-90319342D02*
X155434523Y-90033628D01*
X155434523Y-90033628D02*
X155386904Y-89938390D01*
X155386904Y-89938390D02*
X155339285Y-89890771D01*
X155339285Y-89890771D02*
X155244047Y-89843152D01*
X155244047Y-89843152D02*
X155101190Y-89843152D01*
X155101190Y-89843152D02*
X155005952Y-89890771D01*
X155005952Y-89890771D02*
X154958333Y-89938390D01*
X154958333Y-89938390D02*
X154910714Y-90033628D01*
X154910714Y-90033628D02*
X154910714Y-90319342D01*
X154910714Y-90319342D02*
X154958333Y-90414580D01*
X154958333Y-90414580D02*
X155005952Y-90462200D01*
X155005952Y-90462200D02*
X155101190Y-90509819D01*
X155101190Y-90509819D02*
X155244047Y-90509819D01*
X154482142Y-90509819D02*
X154482142Y-89843152D01*
X154482142Y-89938390D02*
X154434523Y-89890771D01*
X154434523Y-89890771D02*
X154339285Y-89843152D01*
X154339285Y-89843152D02*
X154196428Y-89843152D01*
X154196428Y-89843152D02*
X154101190Y-89890771D01*
X154101190Y-89890771D02*
X154053571Y-89986009D01*
X154053571Y-89986009D02*
X154053571Y-90509819D01*
X154053571Y-89986009D02*
X154005952Y-89890771D01*
X154005952Y-89890771D02*
X153910714Y-89843152D01*
X153910714Y-89843152D02*
X153767857Y-89843152D01*
X153767857Y-89843152D02*
X153672618Y-89890771D01*
X153672618Y-89890771D02*
X153624999Y-89986009D01*
X153624999Y-89986009D02*
X153624999Y-90509819D01*
X152767857Y-90462200D02*
X152863095Y-90509819D01*
X152863095Y-90509819D02*
X153053571Y-90509819D01*
X153053571Y-90509819D02*
X153148809Y-90462200D01*
X153148809Y-90462200D02*
X153196428Y-90366961D01*
X153196428Y-90366961D02*
X153196428Y-89986009D01*
X153196428Y-89986009D02*
X153148809Y-89890771D01*
X153148809Y-89890771D02*
X153053571Y-89843152D01*
X153053571Y-89843152D02*
X152863095Y-89843152D01*
X152863095Y-89843152D02*
X152767857Y-89890771D01*
X152767857Y-89890771D02*
X152720238Y-89986009D01*
X152720238Y-89986009D02*
X152720238Y-90081247D01*
X152720238Y-90081247D02*
X153196428Y-90176485D01*
X152291666Y-90509819D02*
X152291666Y-89509819D01*
X152291666Y-89890771D02*
X152196428Y-89843152D01*
X152196428Y-89843152D02*
X152005952Y-89843152D01*
X152005952Y-89843152D02*
X151910714Y-89890771D01*
X151910714Y-89890771D02*
X151863095Y-89938390D01*
X151863095Y-89938390D02*
X151815476Y-90033628D01*
X151815476Y-90033628D02*
X151815476Y-90319342D01*
X151815476Y-90319342D02*
X151863095Y-90414580D01*
X151863095Y-90414580D02*
X151910714Y-90462200D01*
X151910714Y-90462200D02*
X152005952Y-90509819D01*
X152005952Y-90509819D02*
X152196428Y-90509819D01*
X152196428Y-90509819D02*
X152291666Y-90462200D01*
X151244047Y-90509819D02*
X151339285Y-90462200D01*
X151339285Y-90462200D02*
X151386904Y-90414580D01*
X151386904Y-90414580D02*
X151434523Y-90319342D01*
X151434523Y-90319342D02*
X151434523Y-90033628D01*
X151434523Y-90033628D02*
X151386904Y-89938390D01*
X151386904Y-89938390D02*
X151339285Y-89890771D01*
X151339285Y-89890771D02*
X151244047Y-89843152D01*
X151244047Y-89843152D02*
X151101190Y-89843152D01*
X151101190Y-89843152D02*
X151005952Y-89890771D01*
X151005952Y-89890771D02*
X150958333Y-89938390D01*
X150958333Y-89938390D02*
X150910714Y-90033628D01*
X150910714Y-90033628D02*
X150910714Y-90319342D01*
X150910714Y-90319342D02*
X150958333Y-90414580D01*
X150958333Y-90414580D02*
X151005952Y-90462200D01*
X151005952Y-90462200D02*
X151101190Y-90509819D01*
X151101190Y-90509819D02*
X151244047Y-90509819D01*
X150053571Y-90509819D02*
X150053571Y-89509819D01*
X150053571Y-90462200D02*
X150148809Y-90509819D01*
X150148809Y-90509819D02*
X150339285Y-90509819D01*
X150339285Y-90509819D02*
X150434523Y-90462200D01*
X150434523Y-90462200D02*
X150482142Y-90414580D01*
X150482142Y-90414580D02*
X150529761Y-90319342D01*
X150529761Y-90319342D02*
X150529761Y-90033628D01*
X150529761Y-90033628D02*
X150482142Y-89938390D01*
X150482142Y-89938390D02*
X150434523Y-89890771D01*
X150434523Y-89890771D02*
X150339285Y-89843152D01*
X150339285Y-89843152D02*
X150148809Y-89843152D01*
X150148809Y-89843152D02*
X150053571Y-89890771D01*
X149672618Y-89843152D02*
X149434523Y-90509819D01*
X149196428Y-89843152D02*
X149434523Y-90509819D01*
X149434523Y-90509819D02*
X149529761Y-90747914D01*
X149529761Y-90747914D02*
X149577380Y-90795533D01*
X149577380Y-90795533D02*
X149672618Y-90843152D01*
X147624999Y-89843152D02*
X147624999Y-90652676D01*
X147624999Y-90652676D02*
X147672618Y-90747914D01*
X147672618Y-90747914D02*
X147720237Y-90795533D01*
X147720237Y-90795533D02*
X147815475Y-90843152D01*
X147815475Y-90843152D02*
X147958332Y-90843152D01*
X147958332Y-90843152D02*
X148053570Y-90795533D01*
X147624999Y-90462200D02*
X147720237Y-90509819D01*
X147720237Y-90509819D02*
X147910713Y-90509819D01*
X147910713Y-90509819D02*
X148005951Y-90462200D01*
X148005951Y-90462200D02*
X148053570Y-90414580D01*
X148053570Y-90414580D02*
X148101189Y-90319342D01*
X148101189Y-90319342D02*
X148101189Y-90033628D01*
X148101189Y-90033628D02*
X148053570Y-89938390D01*
X148053570Y-89938390D02*
X148005951Y-89890771D01*
X148005951Y-89890771D02*
X147910713Y-89843152D01*
X147910713Y-89843152D02*
X147720237Y-89843152D01*
X147720237Y-89843152D02*
X147624999Y-89890771D01*
X146767856Y-90462200D02*
X146863094Y-90509819D01*
X146863094Y-90509819D02*
X147053570Y-90509819D01*
X147053570Y-90509819D02*
X147148808Y-90462200D01*
X147148808Y-90462200D02*
X147196427Y-90366961D01*
X147196427Y-90366961D02*
X147196427Y-89986009D01*
X147196427Y-89986009D02*
X147148808Y-89890771D01*
X147148808Y-89890771D02*
X147053570Y-89843152D01*
X147053570Y-89843152D02*
X146863094Y-89843152D01*
X146863094Y-89843152D02*
X146767856Y-89890771D01*
X146767856Y-89890771D02*
X146720237Y-89986009D01*
X146720237Y-89986009D02*
X146720237Y-90081247D01*
X146720237Y-90081247D02*
X147196427Y-90176485D01*
X146434522Y-89843152D02*
X146053570Y-89843152D01*
X146291665Y-89509819D02*
X146291665Y-90366961D01*
X146291665Y-90366961D02*
X146244046Y-90462200D01*
X146244046Y-90462200D02*
X146148808Y-90509819D01*
X146148808Y-90509819D02*
X146053570Y-90509819D01*
X145101188Y-89843152D02*
X144720236Y-89843152D01*
X144958331Y-89509819D02*
X144958331Y-90366961D01*
X144958331Y-90366961D02*
X144910712Y-90462200D01*
X144910712Y-90462200D02*
X144815474Y-90509819D01*
X144815474Y-90509819D02*
X144720236Y-90509819D01*
X144386902Y-90509819D02*
X144386902Y-89509819D01*
X143958331Y-90509819D02*
X143958331Y-89986009D01*
X143958331Y-89986009D02*
X144005950Y-89890771D01*
X144005950Y-89890771D02*
X144101188Y-89843152D01*
X144101188Y-89843152D02*
X144244045Y-89843152D01*
X144244045Y-89843152D02*
X144339283Y-89890771D01*
X144339283Y-89890771D02*
X144386902Y-89938390D01*
X143482140Y-90509819D02*
X143482140Y-89843152D01*
X143482140Y-89509819D02*
X143529759Y-89557438D01*
X143529759Y-89557438D02*
X143482140Y-89605057D01*
X143482140Y-89605057D02*
X143434521Y-89557438D01*
X143434521Y-89557438D02*
X143482140Y-89509819D01*
X143482140Y-89509819D02*
X143482140Y-89605057D01*
X143053569Y-90462200D02*
X142958331Y-90509819D01*
X142958331Y-90509819D02*
X142767855Y-90509819D01*
X142767855Y-90509819D02*
X142672617Y-90462200D01*
X142672617Y-90462200D02*
X142624998Y-90366961D01*
X142624998Y-90366961D02*
X142624998Y-90319342D01*
X142624998Y-90319342D02*
X142672617Y-90224104D01*
X142672617Y-90224104D02*
X142767855Y-90176485D01*
X142767855Y-90176485D02*
X142910712Y-90176485D01*
X142910712Y-90176485D02*
X143005950Y-90128866D01*
X143005950Y-90128866D02*
X143053569Y-90033628D01*
X143053569Y-90033628D02*
X143053569Y-89986009D01*
X143053569Y-89986009D02*
X143005950Y-89890771D01*
X143005950Y-89890771D02*
X142910712Y-89843152D01*
X142910712Y-89843152D02*
X142767855Y-89843152D01*
X142767855Y-89843152D02*
X142672617Y-89890771D01*
X141434521Y-90509819D02*
X141434521Y-89509819D01*
X141434521Y-89890771D02*
X141339283Y-89843152D01*
X141339283Y-89843152D02*
X141148807Y-89843152D01*
X141148807Y-89843152D02*
X141053569Y-89890771D01*
X141053569Y-89890771D02*
X141005950Y-89938390D01*
X141005950Y-89938390D02*
X140958331Y-90033628D01*
X140958331Y-90033628D02*
X140958331Y-90319342D01*
X140958331Y-90319342D02*
X141005950Y-90414580D01*
X141005950Y-90414580D02*
X141053569Y-90462200D01*
X141053569Y-90462200D02*
X141148807Y-90509819D01*
X141148807Y-90509819D02*
X141339283Y-90509819D01*
X141339283Y-90509819D02*
X141434521Y-90462200D01*
X140529759Y-90509819D02*
X140529759Y-89843152D01*
X140529759Y-89509819D02*
X140577378Y-89557438D01*
X140577378Y-89557438D02*
X140529759Y-89605057D01*
X140529759Y-89605057D02*
X140482140Y-89557438D01*
X140482140Y-89557438D02*
X140529759Y-89509819D01*
X140529759Y-89509819D02*
X140529759Y-89605057D01*
X139624998Y-89843152D02*
X139624998Y-90652676D01*
X139624998Y-90652676D02*
X139672617Y-90747914D01*
X139672617Y-90747914D02*
X139720236Y-90795533D01*
X139720236Y-90795533D02*
X139815474Y-90843152D01*
X139815474Y-90843152D02*
X139958331Y-90843152D01*
X139958331Y-90843152D02*
X140053569Y-90795533D01*
X139624998Y-90462200D02*
X139720236Y-90509819D01*
X139720236Y-90509819D02*
X139910712Y-90509819D01*
X139910712Y-90509819D02*
X140005950Y-90462200D01*
X140005950Y-90462200D02*
X140053569Y-90414580D01*
X140053569Y-90414580D02*
X140101188Y-90319342D01*
X140101188Y-90319342D02*
X140101188Y-90033628D01*
X140101188Y-90033628D02*
X140053569Y-89938390D01*
X140053569Y-89938390D02*
X140005950Y-89890771D01*
X140005950Y-89890771D02*
X139910712Y-89843152D01*
X139910712Y-89843152D02*
X139720236Y-89843152D01*
X139720236Y-89843152D02*
X139624998Y-89890771D01*
X162053573Y-91453152D02*
X161863097Y-92119819D01*
X161863097Y-92119819D02*
X161672621Y-91643628D01*
X161672621Y-91643628D02*
X161482145Y-92119819D01*
X161482145Y-92119819D02*
X161291669Y-91453152D01*
X160482145Y-92119819D02*
X160482145Y-91596009D01*
X160482145Y-91596009D02*
X160529764Y-91500771D01*
X160529764Y-91500771D02*
X160625002Y-91453152D01*
X160625002Y-91453152D02*
X160815478Y-91453152D01*
X160815478Y-91453152D02*
X160910716Y-91500771D01*
X160482145Y-92072200D02*
X160577383Y-92119819D01*
X160577383Y-92119819D02*
X160815478Y-92119819D01*
X160815478Y-92119819D02*
X160910716Y-92072200D01*
X160910716Y-92072200D02*
X160958335Y-91976961D01*
X160958335Y-91976961D02*
X160958335Y-91881723D01*
X160958335Y-91881723D02*
X160910716Y-91786485D01*
X160910716Y-91786485D02*
X160815478Y-91738866D01*
X160815478Y-91738866D02*
X160577383Y-91738866D01*
X160577383Y-91738866D02*
X160482145Y-91691247D01*
X159863097Y-92119819D02*
X159958335Y-92072200D01*
X159958335Y-92072200D02*
X160005954Y-91976961D01*
X160005954Y-91976961D02*
X160005954Y-91119819D01*
X159482144Y-92119819D02*
X159482144Y-91119819D01*
X159386906Y-91738866D02*
X159101192Y-92119819D01*
X159101192Y-91453152D02*
X159482144Y-91834104D01*
X158672620Y-92119819D02*
X158672620Y-91453152D01*
X158672620Y-91119819D02*
X158720239Y-91167438D01*
X158720239Y-91167438D02*
X158672620Y-91215057D01*
X158672620Y-91215057D02*
X158625001Y-91167438D01*
X158625001Y-91167438D02*
X158672620Y-91119819D01*
X158672620Y-91119819D02*
X158672620Y-91215057D01*
X158196430Y-91453152D02*
X158196430Y-92119819D01*
X158196430Y-91548390D02*
X158148811Y-91500771D01*
X158148811Y-91500771D02*
X158053573Y-91453152D01*
X158053573Y-91453152D02*
X157910716Y-91453152D01*
X157910716Y-91453152D02*
X157815478Y-91500771D01*
X157815478Y-91500771D02*
X157767859Y-91596009D01*
X157767859Y-91596009D02*
X157767859Y-92119819D01*
X156863097Y-91453152D02*
X156863097Y-92262676D01*
X156863097Y-92262676D02*
X156910716Y-92357914D01*
X156910716Y-92357914D02*
X156958335Y-92405533D01*
X156958335Y-92405533D02*
X157053573Y-92453152D01*
X157053573Y-92453152D02*
X157196430Y-92453152D01*
X157196430Y-92453152D02*
X157291668Y-92405533D01*
X156863097Y-92072200D02*
X156958335Y-92119819D01*
X156958335Y-92119819D02*
X157148811Y-92119819D01*
X157148811Y-92119819D02*
X157244049Y-92072200D01*
X157244049Y-92072200D02*
X157291668Y-92024580D01*
X157291668Y-92024580D02*
X157339287Y-91929342D01*
X157339287Y-91929342D02*
X157339287Y-91643628D01*
X157339287Y-91643628D02*
X157291668Y-91548390D01*
X157291668Y-91548390D02*
X157244049Y-91500771D01*
X157244049Y-91500771D02*
X157148811Y-91453152D01*
X157148811Y-91453152D02*
X156958335Y-91453152D01*
X156958335Y-91453152D02*
X156863097Y-91500771D01*
X155196430Y-92072200D02*
X155291668Y-92119819D01*
X155291668Y-92119819D02*
X155482144Y-92119819D01*
X155482144Y-92119819D02*
X155577382Y-92072200D01*
X155577382Y-92072200D02*
X155625001Y-92024580D01*
X155625001Y-92024580D02*
X155672620Y-91929342D01*
X155672620Y-91929342D02*
X155672620Y-91643628D01*
X155672620Y-91643628D02*
X155625001Y-91548390D01*
X155625001Y-91548390D02*
X155577382Y-91500771D01*
X155577382Y-91500771D02*
X155482144Y-91453152D01*
X155482144Y-91453152D02*
X155291668Y-91453152D01*
X155291668Y-91453152D02*
X155196430Y-91500771D01*
X154339287Y-92119819D02*
X154339287Y-91596009D01*
X154339287Y-91596009D02*
X154386906Y-91500771D01*
X154386906Y-91500771D02*
X154482144Y-91453152D01*
X154482144Y-91453152D02*
X154672620Y-91453152D01*
X154672620Y-91453152D02*
X154767858Y-91500771D01*
X154339287Y-92072200D02*
X154434525Y-92119819D01*
X154434525Y-92119819D02*
X154672620Y-92119819D01*
X154672620Y-92119819D02*
X154767858Y-92072200D01*
X154767858Y-92072200D02*
X154815477Y-91976961D01*
X154815477Y-91976961D02*
X154815477Y-91881723D01*
X154815477Y-91881723D02*
X154767858Y-91786485D01*
X154767858Y-91786485D02*
X154672620Y-91738866D01*
X154672620Y-91738866D02*
X154434525Y-91738866D01*
X154434525Y-91738866D02*
X154339287Y-91691247D01*
X153863096Y-92119819D02*
X153863096Y-91453152D01*
X153863096Y-91643628D02*
X153815477Y-91548390D01*
X153815477Y-91548390D02*
X153767858Y-91500771D01*
X153767858Y-91500771D02*
X153672620Y-91453152D01*
X153672620Y-91453152D02*
X153577382Y-91453152D01*
X153244048Y-91453152D02*
X153244048Y-92453152D01*
X153244048Y-91500771D02*
X153148810Y-91453152D01*
X153148810Y-91453152D02*
X152958334Y-91453152D01*
X152958334Y-91453152D02*
X152863096Y-91500771D01*
X152863096Y-91500771D02*
X152815477Y-91548390D01*
X152815477Y-91548390D02*
X152767858Y-91643628D01*
X152767858Y-91643628D02*
X152767858Y-91929342D01*
X152767858Y-91929342D02*
X152815477Y-92024580D01*
X152815477Y-92024580D02*
X152863096Y-92072200D01*
X152863096Y-92072200D02*
X152958334Y-92119819D01*
X152958334Y-92119819D02*
X153148810Y-92119819D01*
X153148810Y-92119819D02*
X153244048Y-92072200D01*
X151958334Y-92072200D02*
X152053572Y-92119819D01*
X152053572Y-92119819D02*
X152244048Y-92119819D01*
X152244048Y-92119819D02*
X152339286Y-92072200D01*
X152339286Y-92072200D02*
X152386905Y-91976961D01*
X152386905Y-91976961D02*
X152386905Y-91596009D01*
X152386905Y-91596009D02*
X152339286Y-91500771D01*
X152339286Y-91500771D02*
X152244048Y-91453152D01*
X152244048Y-91453152D02*
X152053572Y-91453152D01*
X152053572Y-91453152D02*
X151958334Y-91500771D01*
X151958334Y-91500771D02*
X151910715Y-91596009D01*
X151910715Y-91596009D02*
X151910715Y-91691247D01*
X151910715Y-91691247D02*
X152386905Y-91786485D01*
X151625000Y-91453152D02*
X151244048Y-91453152D01*
X151482143Y-91119819D02*
X151482143Y-91976961D01*
X151482143Y-91976961D02*
X151434524Y-92072200D01*
X151434524Y-92072200D02*
X151339286Y-92119819D01*
X151339286Y-92119819D02*
X151244048Y-92119819D01*
X150005952Y-92119819D02*
X150101190Y-92072200D01*
X150101190Y-92072200D02*
X150148809Y-92024580D01*
X150148809Y-92024580D02*
X150196428Y-91929342D01*
X150196428Y-91929342D02*
X150196428Y-91643628D01*
X150196428Y-91643628D02*
X150148809Y-91548390D01*
X150148809Y-91548390D02*
X150101190Y-91500771D01*
X150101190Y-91500771D02*
X150005952Y-91453152D01*
X150005952Y-91453152D02*
X149863095Y-91453152D01*
X149863095Y-91453152D02*
X149767857Y-91500771D01*
X149767857Y-91500771D02*
X149720238Y-91548390D01*
X149720238Y-91548390D02*
X149672619Y-91643628D01*
X149672619Y-91643628D02*
X149672619Y-91929342D01*
X149672619Y-91929342D02*
X149720238Y-92024580D01*
X149720238Y-92024580D02*
X149767857Y-92072200D01*
X149767857Y-92072200D02*
X149863095Y-92119819D01*
X149863095Y-92119819D02*
X150005952Y-92119819D01*
X148815476Y-91453152D02*
X148815476Y-92119819D01*
X149244047Y-91453152D02*
X149244047Y-91976961D01*
X149244047Y-91976961D02*
X149196428Y-92072200D01*
X149196428Y-92072200D02*
X149101190Y-92119819D01*
X149101190Y-92119819D02*
X148958333Y-92119819D01*
X148958333Y-92119819D02*
X148863095Y-92072200D01*
X148863095Y-92072200D02*
X148815476Y-92024580D01*
X148482142Y-91453152D02*
X148101190Y-91453152D01*
X148339285Y-91119819D02*
X148339285Y-91976961D01*
X148339285Y-91976961D02*
X148291666Y-92072200D01*
X148291666Y-92072200D02*
X148196428Y-92119819D01*
X148196428Y-92119819D02*
X148101190Y-92119819D01*
X146863094Y-92119819D02*
X146958332Y-92072200D01*
X146958332Y-92072200D02*
X147005951Y-92024580D01*
X147005951Y-92024580D02*
X147053570Y-91929342D01*
X147053570Y-91929342D02*
X147053570Y-91643628D01*
X147053570Y-91643628D02*
X147005951Y-91548390D01*
X147005951Y-91548390D02*
X146958332Y-91500771D01*
X146958332Y-91500771D02*
X146863094Y-91453152D01*
X146863094Y-91453152D02*
X146720237Y-91453152D01*
X146720237Y-91453152D02*
X146624999Y-91500771D01*
X146624999Y-91500771D02*
X146577380Y-91548390D01*
X146577380Y-91548390D02*
X146529761Y-91643628D01*
X146529761Y-91643628D02*
X146529761Y-91929342D01*
X146529761Y-91929342D02*
X146577380Y-92024580D01*
X146577380Y-92024580D02*
X146624999Y-92072200D01*
X146624999Y-92072200D02*
X146720237Y-92119819D01*
X146720237Y-92119819D02*
X146863094Y-92119819D01*
X146244046Y-91453152D02*
X145863094Y-91453152D01*
X146101189Y-92119819D02*
X146101189Y-91262676D01*
X146101189Y-91262676D02*
X146053570Y-91167438D01*
X146053570Y-91167438D02*
X145958332Y-91119819D01*
X145958332Y-91119819D02*
X145863094Y-91119819D01*
X144767855Y-92119819D02*
X144767855Y-91453152D01*
X144767855Y-91548390D02*
X144720236Y-91500771D01*
X144720236Y-91500771D02*
X144624998Y-91453152D01*
X144624998Y-91453152D02*
X144482141Y-91453152D01*
X144482141Y-91453152D02*
X144386903Y-91500771D01*
X144386903Y-91500771D02*
X144339284Y-91596009D01*
X144339284Y-91596009D02*
X144339284Y-92119819D01*
X144339284Y-91596009D02*
X144291665Y-91500771D01*
X144291665Y-91500771D02*
X144196427Y-91453152D01*
X144196427Y-91453152D02*
X144053570Y-91453152D01*
X144053570Y-91453152D02*
X143958331Y-91500771D01*
X143958331Y-91500771D02*
X143910712Y-91596009D01*
X143910712Y-91596009D02*
X143910712Y-92119819D01*
X143529760Y-91453152D02*
X143291665Y-92119819D01*
X143053570Y-91453152D02*
X143291665Y-92119819D01*
X143291665Y-92119819D02*
X143386903Y-92357914D01*
X143386903Y-92357914D02*
X143434522Y-92405533D01*
X143434522Y-92405533D02*
X143529760Y-92453152D01*
X142005950Y-91453152D02*
X141815474Y-92119819D01*
X141815474Y-92119819D02*
X141624998Y-91643628D01*
X141624998Y-91643628D02*
X141434522Y-92119819D01*
X141434522Y-92119819D02*
X141244046Y-91453152D01*
X140434522Y-92119819D02*
X140434522Y-91596009D01*
X140434522Y-91596009D02*
X140482141Y-91500771D01*
X140482141Y-91500771D02*
X140577379Y-91453152D01*
X140577379Y-91453152D02*
X140767855Y-91453152D01*
X140767855Y-91453152D02*
X140863093Y-91500771D01*
X140434522Y-92072200D02*
X140529760Y-92119819D01*
X140529760Y-92119819D02*
X140767855Y-92119819D01*
X140767855Y-92119819D02*
X140863093Y-92072200D01*
X140863093Y-92072200D02*
X140910712Y-91976961D01*
X140910712Y-91976961D02*
X140910712Y-91881723D01*
X140910712Y-91881723D02*
X140863093Y-91786485D01*
X140863093Y-91786485D02*
X140767855Y-91738866D01*
X140767855Y-91738866D02*
X140529760Y-91738866D01*
X140529760Y-91738866D02*
X140434522Y-91691247D01*
X140053569Y-91453152D02*
X139815474Y-92119819D01*
X139577379Y-91453152D02*
X139815474Y-92119819D01*
X139815474Y-92119819D02*
X139910712Y-92357914D01*
X139910712Y-92357914D02*
X139958331Y-92405533D01*
X139958331Y-92405533D02*
X140053569Y-92453152D01*
X139053569Y-92024580D02*
X139005950Y-92072200D01*
X139005950Y-92072200D02*
X139053569Y-92119819D01*
X139053569Y-92119819D02*
X139101188Y-92072200D01*
X139101188Y-92072200D02*
X139053569Y-92024580D01*
X139053569Y-92024580D02*
X139053569Y-92119819D01*
X139244045Y-91167438D02*
X139148807Y-91119819D01*
X139148807Y-91119819D02*
X138910712Y-91119819D01*
X138910712Y-91119819D02*
X138815474Y-91167438D01*
X138815474Y-91167438D02*
X138767855Y-91262676D01*
X138767855Y-91262676D02*
X138767855Y-91357914D01*
X138767855Y-91357914D02*
X138815474Y-91453152D01*
X138815474Y-91453152D02*
X138863093Y-91500771D01*
X138863093Y-91500771D02*
X138958331Y-91548390D01*
X138958331Y-91548390D02*
X139005950Y-91596009D01*
X139005950Y-91596009D02*
X139053569Y-91691247D01*
X139053569Y-91691247D02*
X139053569Y-91738866D01*
X138386902Y-91119819D02*
X138386902Y-91310295D01*
X138005950Y-91119819D02*
X138005950Y-91310295D01*
D14*
X156334809Y-79503333D02*
X156001476Y-79503333D01*
X156096714Y-79503333D02*
X156049095Y-79527143D01*
X156049095Y-79527143D02*
X156025285Y-79550952D01*
X156025285Y-79550952D02*
X156001476Y-79598571D01*
X156001476Y-79598571D02*
X156001476Y-79646190D01*
X156334809Y-80027143D02*
X155834809Y-80027143D01*
X156311000Y-80027143D02*
X156334809Y-79979524D01*
X156334809Y-79979524D02*
X156334809Y-79884286D01*
X156334809Y-79884286D02*
X156311000Y-79836667D01*
X156311000Y-79836667D02*
X156287190Y-79812857D01*
X156287190Y-79812857D02*
X156239571Y-79789048D01*
X156239571Y-79789048D02*
X156096714Y-79789048D01*
X156096714Y-79789048D02*
X156049095Y-79812857D01*
X156049095Y-79812857D02*
X156025285Y-79836667D01*
X156025285Y-79836667D02*
X156001476Y-79884286D01*
X156001476Y-79884286D02*
X156001476Y-79979524D01*
X156001476Y-79979524D02*
X156025285Y-80027143D01*
X156382428Y-80146191D02*
X156382428Y-80527143D01*
X156311000Y-80860476D02*
X156334809Y-80812857D01*
X156334809Y-80812857D02*
X156334809Y-80717619D01*
X156334809Y-80717619D02*
X156311000Y-80670000D01*
X156311000Y-80670000D02*
X156287190Y-80646190D01*
X156287190Y-80646190D02*
X156239571Y-80622381D01*
X156239571Y-80622381D02*
X156096714Y-80622381D01*
X156096714Y-80622381D02*
X156049095Y-80646190D01*
X156049095Y-80646190D02*
X156025285Y-80670000D01*
X156025285Y-80670000D02*
X156001476Y-80717619D01*
X156001476Y-80717619D02*
X156001476Y-80812857D01*
X156001476Y-80812857D02*
X156025285Y-80860476D01*
X156334809Y-81146190D02*
X156311000Y-81098571D01*
X156311000Y-81098571D02*
X156263380Y-81074761D01*
X156263380Y-81074761D02*
X155834809Y-81074761D01*
X156334809Y-81336666D02*
X155834809Y-81336666D01*
X156144333Y-81384285D02*
X156334809Y-81527142D01*
X156001476Y-81527142D02*
X156191952Y-81336666D01*
X156382428Y-81622381D02*
X156382428Y-82003333D01*
X156001476Y-82122380D02*
X156501476Y-82122380D01*
X156025285Y-82122380D02*
X156001476Y-82169999D01*
X156001476Y-82169999D02*
X156001476Y-82265237D01*
X156001476Y-82265237D02*
X156025285Y-82312856D01*
X156025285Y-82312856D02*
X156049095Y-82336666D01*
X156049095Y-82336666D02*
X156096714Y-82360475D01*
X156096714Y-82360475D02*
X156239571Y-82360475D01*
X156239571Y-82360475D02*
X156287190Y-82336666D01*
X156287190Y-82336666D02*
X156311000Y-82312856D01*
X156311000Y-82312856D02*
X156334809Y-82265237D01*
X156334809Y-82265237D02*
X156334809Y-82169999D01*
X156334809Y-82169999D02*
X156311000Y-82122380D01*
X139814809Y-79569048D02*
X139552904Y-79569048D01*
X139552904Y-79569048D02*
X139505285Y-79545238D01*
X139505285Y-79545238D02*
X139481476Y-79497619D01*
X139481476Y-79497619D02*
X139481476Y-79402381D01*
X139481476Y-79402381D02*
X139505285Y-79354762D01*
X139791000Y-79569048D02*
X139814809Y-79521429D01*
X139814809Y-79521429D02*
X139814809Y-79402381D01*
X139814809Y-79402381D02*
X139791000Y-79354762D01*
X139791000Y-79354762D02*
X139743380Y-79330953D01*
X139743380Y-79330953D02*
X139695761Y-79330953D01*
X139695761Y-79330953D02*
X139648142Y-79354762D01*
X139648142Y-79354762D02*
X139624333Y-79402381D01*
X139624333Y-79402381D02*
X139624333Y-79521429D01*
X139624333Y-79521429D02*
X139600523Y-79569048D01*
X139791000Y-79783334D02*
X139814809Y-79830953D01*
X139814809Y-79830953D02*
X139814809Y-79926191D01*
X139814809Y-79926191D02*
X139791000Y-79973810D01*
X139791000Y-79973810D02*
X139743380Y-79997619D01*
X139743380Y-79997619D02*
X139719571Y-79997619D01*
X139719571Y-79997619D02*
X139671952Y-79973810D01*
X139671952Y-79973810D02*
X139648142Y-79926191D01*
X139648142Y-79926191D02*
X139648142Y-79854762D01*
X139648142Y-79854762D02*
X139624333Y-79807143D01*
X139624333Y-79807143D02*
X139576714Y-79783334D01*
X139576714Y-79783334D02*
X139552904Y-79783334D01*
X139552904Y-79783334D02*
X139505285Y-79807143D01*
X139505285Y-79807143D02*
X139481476Y-79854762D01*
X139481476Y-79854762D02*
X139481476Y-79926191D01*
X139481476Y-79926191D02*
X139505285Y-79973810D01*
X139814809Y-80211905D02*
X139481476Y-80211905D01*
X139314809Y-80211905D02*
X139338619Y-80188096D01*
X139338619Y-80188096D02*
X139362428Y-80211905D01*
X139362428Y-80211905D02*
X139338619Y-80235715D01*
X139338619Y-80235715D02*
X139314809Y-80211905D01*
X139314809Y-80211905D02*
X139362428Y-80211905D01*
X139791000Y-80664286D02*
X139814809Y-80616667D01*
X139814809Y-80616667D02*
X139814809Y-80521429D01*
X139814809Y-80521429D02*
X139791000Y-80473810D01*
X139791000Y-80473810D02*
X139767190Y-80450000D01*
X139767190Y-80450000D02*
X139719571Y-80426191D01*
X139719571Y-80426191D02*
X139576714Y-80426191D01*
X139576714Y-80426191D02*
X139529095Y-80450000D01*
X139529095Y-80450000D02*
X139505285Y-80473810D01*
X139505285Y-80473810D02*
X139481476Y-80521429D01*
X139481476Y-80521429D02*
X139481476Y-80616667D01*
X139481476Y-80616667D02*
X139505285Y-80664286D01*
X139862428Y-80759524D02*
X139862428Y-81140476D01*
X139791000Y-81235714D02*
X139814809Y-81283333D01*
X139814809Y-81283333D02*
X139814809Y-81378571D01*
X139814809Y-81378571D02*
X139791000Y-81426190D01*
X139791000Y-81426190D02*
X139743380Y-81449999D01*
X139743380Y-81449999D02*
X139719571Y-81449999D01*
X139719571Y-81449999D02*
X139671952Y-81426190D01*
X139671952Y-81426190D02*
X139648142Y-81378571D01*
X139648142Y-81378571D02*
X139648142Y-81307142D01*
X139648142Y-81307142D02*
X139624333Y-81259523D01*
X139624333Y-81259523D02*
X139576714Y-81235714D01*
X139576714Y-81235714D02*
X139552904Y-81235714D01*
X139552904Y-81235714D02*
X139505285Y-81259523D01*
X139505285Y-81259523D02*
X139481476Y-81307142D01*
X139481476Y-81307142D02*
X139481476Y-81378571D01*
X139481476Y-81378571D02*
X139505285Y-81426190D01*
X139814809Y-81664285D02*
X139481476Y-81664285D01*
X139576714Y-81664285D02*
X139529095Y-81688095D01*
X139529095Y-81688095D02*
X139505285Y-81711904D01*
X139505285Y-81711904D02*
X139481476Y-81759523D01*
X139481476Y-81759523D02*
X139481476Y-81807142D01*
X139314809Y-82069047D02*
X139314809Y-82116666D01*
X139314809Y-82116666D02*
X139338619Y-82164285D01*
X139338619Y-82164285D02*
X139362428Y-82188095D01*
X139362428Y-82188095D02*
X139410047Y-82211904D01*
X139410047Y-82211904D02*
X139505285Y-82235714D01*
X139505285Y-82235714D02*
X139624333Y-82235714D01*
X139624333Y-82235714D02*
X139719571Y-82211904D01*
X139719571Y-82211904D02*
X139767190Y-82188095D01*
X139767190Y-82188095D02*
X139791000Y-82164285D01*
X139791000Y-82164285D02*
X139814809Y-82116666D01*
X139814809Y-82116666D02*
X139814809Y-82069047D01*
X139814809Y-82069047D02*
X139791000Y-82021428D01*
X139791000Y-82021428D02*
X139767190Y-81997619D01*
X139767190Y-81997619D02*
X139719571Y-81973809D01*
X139719571Y-81973809D02*
X139624333Y-81950000D01*
X139624333Y-81950000D02*
X139505285Y-81950000D01*
X139505285Y-81950000D02*
X139410047Y-81973809D01*
X139410047Y-81973809D02*
X139362428Y-81997619D01*
X139362428Y-81997619D02*
X139338619Y-82021428D01*
X139338619Y-82021428D02*
X139314809Y-82069047D01*
X139862428Y-82330952D02*
X139862428Y-82711904D01*
X139481476Y-82830951D02*
X139981476Y-82830951D01*
X139505285Y-82830951D02*
X139481476Y-82878570D01*
X139481476Y-82878570D02*
X139481476Y-82973808D01*
X139481476Y-82973808D02*
X139505285Y-83021427D01*
X139505285Y-83021427D02*
X139529095Y-83045237D01*
X139529095Y-83045237D02*
X139576714Y-83069046D01*
X139576714Y-83069046D02*
X139719571Y-83069046D01*
X139719571Y-83069046D02*
X139767190Y-83045237D01*
X139767190Y-83045237D02*
X139791000Y-83021427D01*
X139791000Y-83021427D02*
X139814809Y-82973808D01*
X139814809Y-82973808D02*
X139814809Y-82878570D01*
X139814809Y-82878570D02*
X139791000Y-82830951D01*
X128574243Y-68999987D02*
X128624751Y-69016822D01*
X128624751Y-69016822D02*
X128692095Y-69084166D01*
X128692095Y-69084166D02*
X128708930Y-69134674D01*
X128708930Y-69134674D02*
X128692095Y-69185181D01*
X128692095Y-69185181D02*
X128675259Y-69202017D01*
X128675259Y-69202017D02*
X128624751Y-69218853D01*
X128624751Y-69218853D02*
X128574243Y-69202017D01*
X128574243Y-69202017D02*
X128523736Y-69151509D01*
X128523736Y-69151509D02*
X128473228Y-69134674D01*
X128473228Y-69134674D02*
X128422721Y-69151509D01*
X128422721Y-69151509D02*
X128405885Y-69168345D01*
X128405885Y-69168345D02*
X128389049Y-69218853D01*
X128389049Y-69218853D02*
X128405885Y-69269361D01*
X128405885Y-69269361D02*
X128456392Y-69319868D01*
X128456392Y-69319868D02*
X128506900Y-69336704D01*
X129045648Y-69437719D02*
X128860453Y-69622914D01*
X128860453Y-69622914D02*
X128809946Y-69639750D01*
X128809946Y-69639750D02*
X128759438Y-69622914D01*
X128759438Y-69622914D02*
X128692095Y-69555570D01*
X128692095Y-69555570D02*
X128675259Y-69505063D01*
X129028812Y-69454555D02*
X129011976Y-69404048D01*
X129011976Y-69404048D02*
X128927797Y-69319868D01*
X128927797Y-69319868D02*
X128877289Y-69303032D01*
X128877289Y-69303032D02*
X128826782Y-69319868D01*
X128826782Y-69319868D02*
X128793110Y-69353540D01*
X128793110Y-69353540D02*
X128776274Y-69404048D01*
X128776274Y-69404048D02*
X128793110Y-69454555D01*
X128793110Y-69454555D02*
X128877289Y-69538735D01*
X128877289Y-69538735D02*
X128894125Y-69589242D01*
X129348694Y-69774437D02*
X129331858Y-69723929D01*
X129331858Y-69723929D02*
X129264514Y-69656586D01*
X129264514Y-69656586D02*
X129214007Y-69639750D01*
X129214007Y-69639750D02*
X129180335Y-69639750D01*
X129180335Y-69639750D02*
X129129827Y-69656586D01*
X129129827Y-69656586D02*
X129028812Y-69757601D01*
X129028812Y-69757601D02*
X129011976Y-69808109D01*
X129011976Y-69808109D02*
X129011976Y-69841780D01*
X129011976Y-69841780D02*
X129028812Y-69892288D01*
X129028812Y-69892288D02*
X129096156Y-69959632D01*
X129096156Y-69959632D02*
X129146663Y-69976467D01*
X129517052Y-69909124D02*
X129281350Y-70144826D01*
X129163499Y-70262677D02*
X129163499Y-70229005D01*
X129163499Y-70229005D02*
X129197171Y-70229005D01*
X129197171Y-70229005D02*
X129197171Y-70262677D01*
X129197171Y-70262677D02*
X129163499Y-70262677D01*
X129163499Y-70262677D02*
X129197171Y-70229005D01*
X129634903Y-69959631D02*
X129904277Y-70229005D01*
X130089472Y-70515215D02*
X130072636Y-70464707D01*
X130072636Y-70464707D02*
X130005292Y-70397364D01*
X130005292Y-70397364D02*
X129954785Y-70380528D01*
X129954785Y-70380528D02*
X129921113Y-70380528D01*
X129921113Y-70380528D02*
X129870605Y-70397364D01*
X129870605Y-70397364D02*
X129769590Y-70498379D01*
X129769590Y-70498379D02*
X129752754Y-70548886D01*
X129752754Y-70548886D02*
X129752754Y-70582558D01*
X129752754Y-70582558D02*
X129769590Y-70633066D01*
X129769590Y-70633066D02*
X129836933Y-70700409D01*
X129836933Y-70700409D02*
X129887441Y-70717245D01*
X130257830Y-70649901D02*
X130022128Y-70885604D01*
X130055800Y-70851932D02*
X130055800Y-70885604D01*
X130055800Y-70885604D02*
X130072635Y-70936111D01*
X130072635Y-70936111D02*
X130123143Y-70986619D01*
X130123143Y-70986619D02*
X130173651Y-71003455D01*
X130173651Y-71003455D02*
X130224158Y-70986619D01*
X130224158Y-70986619D02*
X130409353Y-70801424D01*
X130224158Y-70986619D02*
X130207322Y-71037127D01*
X130207322Y-71037127D02*
X130224158Y-71087634D01*
X130224158Y-71087634D02*
X130274666Y-71138142D01*
X130274666Y-71138142D02*
X130325174Y-71154978D01*
X130325174Y-71154978D02*
X130375681Y-71138142D01*
X130375681Y-71138142D02*
X130560876Y-70952947D01*
X130880758Y-71272829D02*
X130527204Y-71626382D01*
X130863922Y-71289665D02*
X130847086Y-71239157D01*
X130847086Y-71239157D02*
X130779742Y-71171814D01*
X130779742Y-71171814D02*
X130729235Y-71154978D01*
X130729235Y-71154978D02*
X130695563Y-71154978D01*
X130695563Y-71154978D02*
X130645055Y-71171814D01*
X130645055Y-71171814D02*
X130544040Y-71272829D01*
X130544040Y-71272829D02*
X130527204Y-71323337D01*
X130527204Y-71323337D02*
X130527204Y-71357008D01*
X130527204Y-71357008D02*
X130544040Y-71407516D01*
X130544040Y-71407516D02*
X130611384Y-71474860D01*
X130611384Y-71474860D02*
X130661891Y-71491695D01*
X130998609Y-71323337D02*
X131267983Y-71592711D01*
X131082788Y-71946264D02*
X131318490Y-71710562D01*
X131116460Y-71912592D02*
X131116460Y-71946264D01*
X131116460Y-71946264D02*
X131133296Y-71996771D01*
X131133296Y-71996771D02*
X131183803Y-72047279D01*
X131183803Y-72047279D02*
X131234311Y-72064115D01*
X131234311Y-72064115D02*
X131284819Y-72047279D01*
X131284819Y-72047279D02*
X131470013Y-71862084D01*
D11*
X120669047Y-79648152D02*
X120430952Y-80314819D01*
X120430952Y-80314819D02*
X120192857Y-79648152D01*
X119383333Y-80314819D02*
X119383333Y-79314819D01*
X119383333Y-80267200D02*
X119478571Y-80314819D01*
X119478571Y-80314819D02*
X119669047Y-80314819D01*
X119669047Y-80314819D02*
X119764285Y-80267200D01*
X119764285Y-80267200D02*
X119811904Y-80219580D01*
X119811904Y-80219580D02*
X119859523Y-80124342D01*
X119859523Y-80124342D02*
X119859523Y-79838628D01*
X119859523Y-79838628D02*
X119811904Y-79743390D01*
X119811904Y-79743390D02*
X119764285Y-79695771D01*
X119764285Y-79695771D02*
X119669047Y-79648152D01*
X119669047Y-79648152D02*
X119478571Y-79648152D01*
X119478571Y-79648152D02*
X119383333Y-79695771D01*
X118478571Y-80314819D02*
X118478571Y-79314819D01*
X118478571Y-80267200D02*
X118573809Y-80314819D01*
X118573809Y-80314819D02*
X118764285Y-80314819D01*
X118764285Y-80314819D02*
X118859523Y-80267200D01*
X118859523Y-80267200D02*
X118907142Y-80219580D01*
X118907142Y-80219580D02*
X118954761Y-80124342D01*
X118954761Y-80124342D02*
X118954761Y-79838628D01*
X118954761Y-79838628D02*
X118907142Y-79743390D01*
X118907142Y-79743390D02*
X118859523Y-79695771D01*
X118859523Y-79695771D02*
X118764285Y-79648152D01*
X118764285Y-79648152D02*
X118573809Y-79648152D01*
X118573809Y-79648152D02*
X118478571Y-79695771D01*
X117478571Y-80314819D02*
X118049999Y-80314819D01*
X117764285Y-80314819D02*
X117764285Y-79314819D01*
X117764285Y-79314819D02*
X117859523Y-79457676D01*
X117859523Y-79457676D02*
X117954761Y-79552914D01*
X117954761Y-79552914D02*
X118049999Y-79600533D01*
D15*
X190480000Y-68510000D02*
X190480000Y-114600000D01*
X190480000Y-114600000D02*
X88130000Y-114600000D01*
X88130000Y-114600000D02*
X88130000Y-68510000D01*
X88130000Y-68510000D02*
X162400000Y-68510000D01*
X162400000Y-68510000D02*
X190480000Y-68510000D01*
M02*
