%TF.GenerationSoftware,KiCad,Pcbnew,7.0.7*%
%TF.CreationDate,2023-10-12T14:51:16-07:00*%
%TF.ProjectId,CableAdapterBoard,4361626c-6541-4646-9170-746572426f61,rev?*%
%TF.SameCoordinates,Original*%
%TF.FileFunction,Copper,L2,Inr*%
%TF.FilePolarity,Positive*%
%FSLAX46Y46*%
G04 Gerber Fmt 4.6, Leading zero omitted, Abs format (unit mm)*
G04 Created by KiCad (PCBNEW 7.0.7) date 2023-10-12 14:51:16*
%MOMM*%
%LPD*%
G01*
G04 APERTURE LIST*
G04 Aperture macros list*
%AMRoundRect*
0 Rectangle with rounded corners*
0 $1 Rounding radius*
0 $2 $3 $4 $5 $6 $7 $8 $9 X,Y pos of 4 corners*
0 Add a 4 corners polygon primitive as box body*
4,1,4,$2,$3,$4,$5,$6,$7,$8,$9,$2,$3,0*
0 Add four circle primitives for the rounded corners*
1,1,$1+$1,$2,$3*
1,1,$1+$1,$4,$5*
1,1,$1+$1,$6,$7*
1,1,$1+$1,$8,$9*
0 Add four rect primitives between the rounded corners*
20,1,$1+$1,$2,$3,$4,$5,0*
20,1,$1+$1,$4,$5,$6,$7,0*
20,1,$1+$1,$6,$7,$8,$9,0*
20,1,$1+$1,$8,$9,$2,$3,0*%
G04 Aperture macros list end*
%ADD10C,0.100000*%
%ADD11C,0.150000*%
%ADD12C,0.300000*%
%ADD13C,0.400000*%
%TA.AperFunction,ComponentPad*%
%ADD14R,1.700000X1.700000*%
%TD*%
%TA.AperFunction,ComponentPad*%
%ADD15O,1.700000X1.700000*%
%TD*%
%TA.AperFunction,ComponentPad*%
%ADD16C,1.308000*%
%TD*%
%TA.AperFunction,ComponentPad*%
%ADD17R,1.530000X1.530000*%
%TD*%
%TA.AperFunction,ComponentPad*%
%ADD18C,1.530000*%
%TD*%
%TA.AperFunction,ComponentPad*%
%ADD19RoundRect,0.650000X-0.650000X0.650000X-0.650000X-0.650000X0.650000X-0.650000X0.650000X0.650000X0*%
%TD*%
%TA.AperFunction,ComponentPad*%
%ADD20C,2.600000*%
%TD*%
%TA.AperFunction,ComponentPad*%
%ADD21C,1.524000*%
%TD*%
%TA.AperFunction,ComponentPad*%
%ADD22C,5.080000*%
%TD*%
%TA.AperFunction,ViaPad*%
%ADD23C,0.800000*%
%TD*%
%TA.AperFunction,ViaPad*%
%ADD24C,0.520700*%
%TD*%
%TA.AperFunction,Conductor*%
%ADD25C,0.170942*%
%TD*%
%TA.AperFunction,Profile*%
%ADD26C,0.100000*%
%TD*%
G04 APERTURE END LIST*
D10*
D11*
X177002200Y-166007200D02*
X285002200Y-166007200D01*
X285002200Y-198007200D01*
X177002200Y-198007200D01*
X177002200Y-166007200D01*
D10*
D11*
X10000000Y-10000000D02*
X287002200Y-10000000D01*
X287002200Y-200007200D01*
X10000000Y-200007200D01*
X10000000Y-10000000D01*
D10*
D11*
X12000000Y-12000000D02*
X285002200Y-12000000D01*
X285002200Y-198007200D01*
X12000000Y-198007200D01*
X12000000Y-12000000D01*
D10*
D11*
X60000000Y-12000000D02*
X60000000Y-10000000D01*
D10*
D11*
X110000000Y-12000000D02*
X110000000Y-10000000D01*
D10*
D11*
X160000000Y-12000000D02*
X160000000Y-10000000D01*
D10*
D11*
X210000000Y-12000000D02*
X210000000Y-10000000D01*
D10*
D11*
X260000000Y-12000000D02*
X260000000Y-10000000D01*
D10*
D11*
X36089160Y-11593604D02*
X35346303Y-11593604D01*
X35717731Y-11593604D02*
X35717731Y-10293604D01*
X35717731Y-10293604D02*
X35593922Y-10479319D01*
X35593922Y-10479319D02*
X35470112Y-10603128D01*
X35470112Y-10603128D02*
X35346303Y-10665033D01*
D10*
D11*
X85346303Y-10417414D02*
X85408207Y-10355509D01*
X85408207Y-10355509D02*
X85532017Y-10293604D01*
X85532017Y-10293604D02*
X85841541Y-10293604D01*
X85841541Y-10293604D02*
X85965350Y-10355509D01*
X85965350Y-10355509D02*
X86027255Y-10417414D01*
X86027255Y-10417414D02*
X86089160Y-10541223D01*
X86089160Y-10541223D02*
X86089160Y-10665033D01*
X86089160Y-10665033D02*
X86027255Y-10850747D01*
X86027255Y-10850747D02*
X85284398Y-11593604D01*
X85284398Y-11593604D02*
X86089160Y-11593604D01*
D10*
D11*
X135284398Y-10293604D02*
X136089160Y-10293604D01*
X136089160Y-10293604D02*
X135655826Y-10788842D01*
X135655826Y-10788842D02*
X135841541Y-10788842D01*
X135841541Y-10788842D02*
X135965350Y-10850747D01*
X135965350Y-10850747D02*
X136027255Y-10912652D01*
X136027255Y-10912652D02*
X136089160Y-11036461D01*
X136089160Y-11036461D02*
X136089160Y-11345985D01*
X136089160Y-11345985D02*
X136027255Y-11469795D01*
X136027255Y-11469795D02*
X135965350Y-11531700D01*
X135965350Y-11531700D02*
X135841541Y-11593604D01*
X135841541Y-11593604D02*
X135470112Y-11593604D01*
X135470112Y-11593604D02*
X135346303Y-11531700D01*
X135346303Y-11531700D02*
X135284398Y-11469795D01*
D10*
D11*
X185965350Y-10726938D02*
X185965350Y-11593604D01*
X185655826Y-10231700D02*
X185346303Y-11160271D01*
X185346303Y-11160271D02*
X186151064Y-11160271D01*
D10*
D11*
X236027255Y-10293604D02*
X235408207Y-10293604D01*
X235408207Y-10293604D02*
X235346303Y-10912652D01*
X235346303Y-10912652D02*
X235408207Y-10850747D01*
X235408207Y-10850747D02*
X235532017Y-10788842D01*
X235532017Y-10788842D02*
X235841541Y-10788842D01*
X235841541Y-10788842D02*
X235965350Y-10850747D01*
X235965350Y-10850747D02*
X236027255Y-10912652D01*
X236027255Y-10912652D02*
X236089160Y-11036461D01*
X236089160Y-11036461D02*
X236089160Y-11345985D01*
X236089160Y-11345985D02*
X236027255Y-11469795D01*
X236027255Y-11469795D02*
X235965350Y-11531700D01*
X235965350Y-11531700D02*
X235841541Y-11593604D01*
X235841541Y-11593604D02*
X235532017Y-11593604D01*
X235532017Y-11593604D02*
X235408207Y-11531700D01*
X235408207Y-11531700D02*
X235346303Y-11469795D01*
D10*
D11*
X285965350Y-10293604D02*
X285717731Y-10293604D01*
X285717731Y-10293604D02*
X285593922Y-10355509D01*
X285593922Y-10355509D02*
X285532017Y-10417414D01*
X285532017Y-10417414D02*
X285408207Y-10603128D01*
X285408207Y-10603128D02*
X285346303Y-10850747D01*
X285346303Y-10850747D02*
X285346303Y-11345985D01*
X285346303Y-11345985D02*
X285408207Y-11469795D01*
X285408207Y-11469795D02*
X285470112Y-11531700D01*
X285470112Y-11531700D02*
X285593922Y-11593604D01*
X285593922Y-11593604D02*
X285841541Y-11593604D01*
X285841541Y-11593604D02*
X285965350Y-11531700D01*
X285965350Y-11531700D02*
X286027255Y-11469795D01*
X286027255Y-11469795D02*
X286089160Y-11345985D01*
X286089160Y-11345985D02*
X286089160Y-11036461D01*
X286089160Y-11036461D02*
X286027255Y-10912652D01*
X286027255Y-10912652D02*
X285965350Y-10850747D01*
X285965350Y-10850747D02*
X285841541Y-10788842D01*
X285841541Y-10788842D02*
X285593922Y-10788842D01*
X285593922Y-10788842D02*
X285470112Y-10850747D01*
X285470112Y-10850747D02*
X285408207Y-10912652D01*
X285408207Y-10912652D02*
X285346303Y-11036461D01*
D10*
D11*
X60000000Y-198007200D02*
X60000000Y-200007200D01*
D10*
D11*
X110000000Y-198007200D02*
X110000000Y-200007200D01*
D10*
D11*
X160000000Y-198007200D02*
X160000000Y-200007200D01*
D10*
D11*
X210000000Y-198007200D02*
X210000000Y-200007200D01*
D10*
D11*
X260000000Y-198007200D02*
X260000000Y-200007200D01*
D10*
D11*
X36089160Y-199600804D02*
X35346303Y-199600804D01*
X35717731Y-199600804D02*
X35717731Y-198300804D01*
X35717731Y-198300804D02*
X35593922Y-198486519D01*
X35593922Y-198486519D02*
X35470112Y-198610328D01*
X35470112Y-198610328D02*
X35346303Y-198672233D01*
D10*
D11*
X85346303Y-198424614D02*
X85408207Y-198362709D01*
X85408207Y-198362709D02*
X85532017Y-198300804D01*
X85532017Y-198300804D02*
X85841541Y-198300804D01*
X85841541Y-198300804D02*
X85965350Y-198362709D01*
X85965350Y-198362709D02*
X86027255Y-198424614D01*
X86027255Y-198424614D02*
X86089160Y-198548423D01*
X86089160Y-198548423D02*
X86089160Y-198672233D01*
X86089160Y-198672233D02*
X86027255Y-198857947D01*
X86027255Y-198857947D02*
X85284398Y-199600804D01*
X85284398Y-199600804D02*
X86089160Y-199600804D01*
D10*
D11*
X135284398Y-198300804D02*
X136089160Y-198300804D01*
X136089160Y-198300804D02*
X135655826Y-198796042D01*
X135655826Y-198796042D02*
X135841541Y-198796042D01*
X135841541Y-198796042D02*
X135965350Y-198857947D01*
X135965350Y-198857947D02*
X136027255Y-198919852D01*
X136027255Y-198919852D02*
X136089160Y-199043661D01*
X136089160Y-199043661D02*
X136089160Y-199353185D01*
X136089160Y-199353185D02*
X136027255Y-199476995D01*
X136027255Y-199476995D02*
X135965350Y-199538900D01*
X135965350Y-199538900D02*
X135841541Y-199600804D01*
X135841541Y-199600804D02*
X135470112Y-199600804D01*
X135470112Y-199600804D02*
X135346303Y-199538900D01*
X135346303Y-199538900D02*
X135284398Y-199476995D01*
D10*
D11*
X185965350Y-198734138D02*
X185965350Y-199600804D01*
X185655826Y-198238900D02*
X185346303Y-199167471D01*
X185346303Y-199167471D02*
X186151064Y-199167471D01*
D10*
D11*
X236027255Y-198300804D02*
X235408207Y-198300804D01*
X235408207Y-198300804D02*
X235346303Y-198919852D01*
X235346303Y-198919852D02*
X235408207Y-198857947D01*
X235408207Y-198857947D02*
X235532017Y-198796042D01*
X235532017Y-198796042D02*
X235841541Y-198796042D01*
X235841541Y-198796042D02*
X235965350Y-198857947D01*
X235965350Y-198857947D02*
X236027255Y-198919852D01*
X236027255Y-198919852D02*
X236089160Y-199043661D01*
X236089160Y-199043661D02*
X236089160Y-199353185D01*
X236089160Y-199353185D02*
X236027255Y-199476995D01*
X236027255Y-199476995D02*
X235965350Y-199538900D01*
X235965350Y-199538900D02*
X235841541Y-199600804D01*
X235841541Y-199600804D02*
X235532017Y-199600804D01*
X235532017Y-199600804D02*
X235408207Y-199538900D01*
X235408207Y-199538900D02*
X235346303Y-199476995D01*
D10*
D11*
X285965350Y-198300804D02*
X285717731Y-198300804D01*
X285717731Y-198300804D02*
X285593922Y-198362709D01*
X285593922Y-198362709D02*
X285532017Y-198424614D01*
X285532017Y-198424614D02*
X285408207Y-198610328D01*
X285408207Y-198610328D02*
X285346303Y-198857947D01*
X285346303Y-198857947D02*
X285346303Y-199353185D01*
X285346303Y-199353185D02*
X285408207Y-199476995D01*
X285408207Y-199476995D02*
X285470112Y-199538900D01*
X285470112Y-199538900D02*
X285593922Y-199600804D01*
X285593922Y-199600804D02*
X285841541Y-199600804D01*
X285841541Y-199600804D02*
X285965350Y-199538900D01*
X285965350Y-199538900D02*
X286027255Y-199476995D01*
X286027255Y-199476995D02*
X286089160Y-199353185D01*
X286089160Y-199353185D02*
X286089160Y-199043661D01*
X286089160Y-199043661D02*
X286027255Y-198919852D01*
X286027255Y-198919852D02*
X285965350Y-198857947D01*
X285965350Y-198857947D02*
X285841541Y-198796042D01*
X285841541Y-198796042D02*
X285593922Y-198796042D01*
X285593922Y-198796042D02*
X285470112Y-198857947D01*
X285470112Y-198857947D02*
X285408207Y-198919852D01*
X285408207Y-198919852D02*
X285346303Y-199043661D01*
D10*
D11*
X10000000Y-60000000D02*
X12000000Y-60000000D01*
D10*
D11*
X10000000Y-110000000D02*
X12000000Y-110000000D01*
D10*
D11*
X10000000Y-160000000D02*
X12000000Y-160000000D01*
D10*
D11*
X10690476Y-35222176D02*
X11309523Y-35222176D01*
X10566666Y-35593604D02*
X10999999Y-34293604D01*
X10999999Y-34293604D02*
X11433333Y-35593604D01*
D10*
D11*
X11092857Y-84912652D02*
X11278571Y-84974557D01*
X11278571Y-84974557D02*
X11340476Y-85036461D01*
X11340476Y-85036461D02*
X11402380Y-85160271D01*
X11402380Y-85160271D02*
X11402380Y-85345985D01*
X11402380Y-85345985D02*
X11340476Y-85469795D01*
X11340476Y-85469795D02*
X11278571Y-85531700D01*
X11278571Y-85531700D02*
X11154761Y-85593604D01*
X11154761Y-85593604D02*
X10659523Y-85593604D01*
X10659523Y-85593604D02*
X10659523Y-84293604D01*
X10659523Y-84293604D02*
X11092857Y-84293604D01*
X11092857Y-84293604D02*
X11216666Y-84355509D01*
X11216666Y-84355509D02*
X11278571Y-84417414D01*
X11278571Y-84417414D02*
X11340476Y-84541223D01*
X11340476Y-84541223D02*
X11340476Y-84665033D01*
X11340476Y-84665033D02*
X11278571Y-84788842D01*
X11278571Y-84788842D02*
X11216666Y-84850747D01*
X11216666Y-84850747D02*
X11092857Y-84912652D01*
X11092857Y-84912652D02*
X10659523Y-84912652D01*
D10*
D11*
X11402380Y-135469795D02*
X11340476Y-135531700D01*
X11340476Y-135531700D02*
X11154761Y-135593604D01*
X11154761Y-135593604D02*
X11030952Y-135593604D01*
X11030952Y-135593604D02*
X10845238Y-135531700D01*
X10845238Y-135531700D02*
X10721428Y-135407890D01*
X10721428Y-135407890D02*
X10659523Y-135284080D01*
X10659523Y-135284080D02*
X10597619Y-135036461D01*
X10597619Y-135036461D02*
X10597619Y-134850747D01*
X10597619Y-134850747D02*
X10659523Y-134603128D01*
X10659523Y-134603128D02*
X10721428Y-134479319D01*
X10721428Y-134479319D02*
X10845238Y-134355509D01*
X10845238Y-134355509D02*
X11030952Y-134293604D01*
X11030952Y-134293604D02*
X11154761Y-134293604D01*
X11154761Y-134293604D02*
X11340476Y-134355509D01*
X11340476Y-134355509D02*
X11402380Y-134417414D01*
D10*
D11*
X10659523Y-185593604D02*
X10659523Y-184293604D01*
X10659523Y-184293604D02*
X10969047Y-184293604D01*
X10969047Y-184293604D02*
X11154761Y-184355509D01*
X11154761Y-184355509D02*
X11278571Y-184479319D01*
X11278571Y-184479319D02*
X11340476Y-184603128D01*
X11340476Y-184603128D02*
X11402380Y-184850747D01*
X11402380Y-184850747D02*
X11402380Y-185036461D01*
X11402380Y-185036461D02*
X11340476Y-185284080D01*
X11340476Y-185284080D02*
X11278571Y-185407890D01*
X11278571Y-185407890D02*
X11154761Y-185531700D01*
X11154761Y-185531700D02*
X10969047Y-185593604D01*
X10969047Y-185593604D02*
X10659523Y-185593604D01*
D10*
D11*
X287002200Y-60000000D02*
X285002200Y-60000000D01*
D10*
D11*
X287002200Y-110000000D02*
X285002200Y-110000000D01*
D10*
D11*
X287002200Y-160000000D02*
X285002200Y-160000000D01*
D10*
D11*
X285692676Y-35222176D02*
X286311723Y-35222176D01*
X285568866Y-35593604D02*
X286002199Y-34293604D01*
X286002199Y-34293604D02*
X286435533Y-35593604D01*
D10*
D11*
X286095057Y-84912652D02*
X286280771Y-84974557D01*
X286280771Y-84974557D02*
X286342676Y-85036461D01*
X286342676Y-85036461D02*
X286404580Y-85160271D01*
X286404580Y-85160271D02*
X286404580Y-85345985D01*
X286404580Y-85345985D02*
X286342676Y-85469795D01*
X286342676Y-85469795D02*
X286280771Y-85531700D01*
X286280771Y-85531700D02*
X286156961Y-85593604D01*
X286156961Y-85593604D02*
X285661723Y-85593604D01*
X285661723Y-85593604D02*
X285661723Y-84293604D01*
X285661723Y-84293604D02*
X286095057Y-84293604D01*
X286095057Y-84293604D02*
X286218866Y-84355509D01*
X286218866Y-84355509D02*
X286280771Y-84417414D01*
X286280771Y-84417414D02*
X286342676Y-84541223D01*
X286342676Y-84541223D02*
X286342676Y-84665033D01*
X286342676Y-84665033D02*
X286280771Y-84788842D01*
X286280771Y-84788842D02*
X286218866Y-84850747D01*
X286218866Y-84850747D02*
X286095057Y-84912652D01*
X286095057Y-84912652D02*
X285661723Y-84912652D01*
D10*
D11*
X286404580Y-135469795D02*
X286342676Y-135531700D01*
X286342676Y-135531700D02*
X286156961Y-135593604D01*
X286156961Y-135593604D02*
X286033152Y-135593604D01*
X286033152Y-135593604D02*
X285847438Y-135531700D01*
X285847438Y-135531700D02*
X285723628Y-135407890D01*
X285723628Y-135407890D02*
X285661723Y-135284080D01*
X285661723Y-135284080D02*
X285599819Y-135036461D01*
X285599819Y-135036461D02*
X285599819Y-134850747D01*
X285599819Y-134850747D02*
X285661723Y-134603128D01*
X285661723Y-134603128D02*
X285723628Y-134479319D01*
X285723628Y-134479319D02*
X285847438Y-134355509D01*
X285847438Y-134355509D02*
X286033152Y-134293604D01*
X286033152Y-134293604D02*
X286156961Y-134293604D01*
X286156961Y-134293604D02*
X286342676Y-134355509D01*
X286342676Y-134355509D02*
X286404580Y-134417414D01*
D10*
D11*
X285661723Y-185593604D02*
X285661723Y-184293604D01*
X285661723Y-184293604D02*
X285971247Y-184293604D01*
X285971247Y-184293604D02*
X286156961Y-184355509D01*
X286156961Y-184355509D02*
X286280771Y-184479319D01*
X286280771Y-184479319D02*
X286342676Y-184603128D01*
X286342676Y-184603128D02*
X286404580Y-184850747D01*
X286404580Y-184850747D02*
X286404580Y-185036461D01*
X286404580Y-185036461D02*
X286342676Y-185284080D01*
X286342676Y-185284080D02*
X286280771Y-185407890D01*
X286280771Y-185407890D02*
X286156961Y-185531700D01*
X286156961Y-185531700D02*
X285971247Y-185593604D01*
X285971247Y-185593604D02*
X285661723Y-185593604D01*
D10*
D11*
X200458026Y-193793328D02*
X200458026Y-192293328D01*
X200458026Y-192293328D02*
X200815169Y-192293328D01*
X200815169Y-192293328D02*
X201029455Y-192364757D01*
X201029455Y-192364757D02*
X201172312Y-192507614D01*
X201172312Y-192507614D02*
X201243741Y-192650471D01*
X201243741Y-192650471D02*
X201315169Y-192936185D01*
X201315169Y-192936185D02*
X201315169Y-193150471D01*
X201315169Y-193150471D02*
X201243741Y-193436185D01*
X201243741Y-193436185D02*
X201172312Y-193579042D01*
X201172312Y-193579042D02*
X201029455Y-193721900D01*
X201029455Y-193721900D02*
X200815169Y-193793328D01*
X200815169Y-193793328D02*
X200458026Y-193793328D01*
X202600884Y-193793328D02*
X202600884Y-193007614D01*
X202600884Y-193007614D02*
X202529455Y-192864757D01*
X202529455Y-192864757D02*
X202386598Y-192793328D01*
X202386598Y-192793328D02*
X202100884Y-192793328D01*
X202100884Y-192793328D02*
X201958026Y-192864757D01*
X202600884Y-193721900D02*
X202458026Y-193793328D01*
X202458026Y-193793328D02*
X202100884Y-193793328D01*
X202100884Y-193793328D02*
X201958026Y-193721900D01*
X201958026Y-193721900D02*
X201886598Y-193579042D01*
X201886598Y-193579042D02*
X201886598Y-193436185D01*
X201886598Y-193436185D02*
X201958026Y-193293328D01*
X201958026Y-193293328D02*
X202100884Y-193221900D01*
X202100884Y-193221900D02*
X202458026Y-193221900D01*
X202458026Y-193221900D02*
X202600884Y-193150471D01*
X203100884Y-192793328D02*
X203672312Y-192793328D01*
X203315169Y-192293328D02*
X203315169Y-193579042D01*
X203315169Y-193579042D02*
X203386598Y-193721900D01*
X203386598Y-193721900D02*
X203529455Y-193793328D01*
X203529455Y-193793328D02*
X203672312Y-193793328D01*
X204743741Y-193721900D02*
X204600884Y-193793328D01*
X204600884Y-193793328D02*
X204315170Y-193793328D01*
X204315170Y-193793328D02*
X204172312Y-193721900D01*
X204172312Y-193721900D02*
X204100884Y-193579042D01*
X204100884Y-193579042D02*
X204100884Y-193007614D01*
X204100884Y-193007614D02*
X204172312Y-192864757D01*
X204172312Y-192864757D02*
X204315170Y-192793328D01*
X204315170Y-192793328D02*
X204600884Y-192793328D01*
X204600884Y-192793328D02*
X204743741Y-192864757D01*
X204743741Y-192864757D02*
X204815170Y-193007614D01*
X204815170Y-193007614D02*
X204815170Y-193150471D01*
X204815170Y-193150471D02*
X204100884Y-193293328D01*
X205458026Y-193650471D02*
X205529455Y-193721900D01*
X205529455Y-193721900D02*
X205458026Y-193793328D01*
X205458026Y-193793328D02*
X205386598Y-193721900D01*
X205386598Y-193721900D02*
X205458026Y-193650471D01*
X205458026Y-193650471D02*
X205458026Y-193793328D01*
X205458026Y-192864757D02*
X205529455Y-192936185D01*
X205529455Y-192936185D02*
X205458026Y-193007614D01*
X205458026Y-193007614D02*
X205386598Y-192936185D01*
X205386598Y-192936185D02*
X205458026Y-192864757D01*
X205458026Y-192864757D02*
X205458026Y-193007614D01*
D10*
D11*
X177002200Y-194507200D02*
X285002200Y-194507200D01*
D10*
D11*
X178458026Y-196593328D02*
X178458026Y-195093328D01*
X179315169Y-196593328D02*
X178672312Y-195736185D01*
X179315169Y-195093328D02*
X178458026Y-195950471D01*
X179958026Y-196593328D02*
X179958026Y-195593328D01*
X179958026Y-195093328D02*
X179886598Y-195164757D01*
X179886598Y-195164757D02*
X179958026Y-195236185D01*
X179958026Y-195236185D02*
X180029455Y-195164757D01*
X180029455Y-195164757D02*
X179958026Y-195093328D01*
X179958026Y-195093328D02*
X179958026Y-195236185D01*
X181529455Y-196450471D02*
X181458027Y-196521900D01*
X181458027Y-196521900D02*
X181243741Y-196593328D01*
X181243741Y-196593328D02*
X181100884Y-196593328D01*
X181100884Y-196593328D02*
X180886598Y-196521900D01*
X180886598Y-196521900D02*
X180743741Y-196379042D01*
X180743741Y-196379042D02*
X180672312Y-196236185D01*
X180672312Y-196236185D02*
X180600884Y-195950471D01*
X180600884Y-195950471D02*
X180600884Y-195736185D01*
X180600884Y-195736185D02*
X180672312Y-195450471D01*
X180672312Y-195450471D02*
X180743741Y-195307614D01*
X180743741Y-195307614D02*
X180886598Y-195164757D01*
X180886598Y-195164757D02*
X181100884Y-195093328D01*
X181100884Y-195093328D02*
X181243741Y-195093328D01*
X181243741Y-195093328D02*
X181458027Y-195164757D01*
X181458027Y-195164757D02*
X181529455Y-195236185D01*
X182815170Y-196593328D02*
X182815170Y-195807614D01*
X182815170Y-195807614D02*
X182743741Y-195664757D01*
X182743741Y-195664757D02*
X182600884Y-195593328D01*
X182600884Y-195593328D02*
X182315170Y-195593328D01*
X182315170Y-195593328D02*
X182172312Y-195664757D01*
X182815170Y-196521900D02*
X182672312Y-196593328D01*
X182672312Y-196593328D02*
X182315170Y-196593328D01*
X182315170Y-196593328D02*
X182172312Y-196521900D01*
X182172312Y-196521900D02*
X182100884Y-196379042D01*
X182100884Y-196379042D02*
X182100884Y-196236185D01*
X182100884Y-196236185D02*
X182172312Y-196093328D01*
X182172312Y-196093328D02*
X182315170Y-196021900D01*
X182315170Y-196021900D02*
X182672312Y-196021900D01*
X182672312Y-196021900D02*
X182815170Y-195950471D01*
X184172313Y-196593328D02*
X184172313Y-195093328D01*
X184172313Y-196521900D02*
X184029455Y-196593328D01*
X184029455Y-196593328D02*
X183743741Y-196593328D01*
X183743741Y-196593328D02*
X183600884Y-196521900D01*
X183600884Y-196521900D02*
X183529455Y-196450471D01*
X183529455Y-196450471D02*
X183458027Y-196307614D01*
X183458027Y-196307614D02*
X183458027Y-195879042D01*
X183458027Y-195879042D02*
X183529455Y-195736185D01*
X183529455Y-195736185D02*
X183600884Y-195664757D01*
X183600884Y-195664757D02*
X183743741Y-195593328D01*
X183743741Y-195593328D02*
X184029455Y-195593328D01*
X184029455Y-195593328D02*
X184172313Y-195664757D01*
X186029455Y-195807614D02*
X186529455Y-195807614D01*
X186743741Y-196593328D02*
X186029455Y-196593328D01*
X186029455Y-196593328D02*
X186029455Y-195093328D01*
X186029455Y-195093328D02*
X186743741Y-195093328D01*
X187386598Y-196450471D02*
X187458027Y-196521900D01*
X187458027Y-196521900D02*
X187386598Y-196593328D01*
X187386598Y-196593328D02*
X187315170Y-196521900D01*
X187315170Y-196521900D02*
X187386598Y-196450471D01*
X187386598Y-196450471D02*
X187386598Y-196593328D01*
X188100884Y-196593328D02*
X188100884Y-195093328D01*
X188100884Y-195093328D02*
X188458027Y-195093328D01*
X188458027Y-195093328D02*
X188672313Y-195164757D01*
X188672313Y-195164757D02*
X188815170Y-195307614D01*
X188815170Y-195307614D02*
X188886599Y-195450471D01*
X188886599Y-195450471D02*
X188958027Y-195736185D01*
X188958027Y-195736185D02*
X188958027Y-195950471D01*
X188958027Y-195950471D02*
X188886599Y-196236185D01*
X188886599Y-196236185D02*
X188815170Y-196379042D01*
X188815170Y-196379042D02*
X188672313Y-196521900D01*
X188672313Y-196521900D02*
X188458027Y-196593328D01*
X188458027Y-196593328D02*
X188100884Y-196593328D01*
X189600884Y-196450471D02*
X189672313Y-196521900D01*
X189672313Y-196521900D02*
X189600884Y-196593328D01*
X189600884Y-196593328D02*
X189529456Y-196521900D01*
X189529456Y-196521900D02*
X189600884Y-196450471D01*
X189600884Y-196450471D02*
X189600884Y-196593328D01*
X190243742Y-196164757D02*
X190958028Y-196164757D01*
X190100885Y-196593328D02*
X190600885Y-195093328D01*
X190600885Y-195093328D02*
X191100885Y-196593328D01*
X191600884Y-196450471D02*
X191672313Y-196521900D01*
X191672313Y-196521900D02*
X191600884Y-196593328D01*
X191600884Y-196593328D02*
X191529456Y-196521900D01*
X191529456Y-196521900D02*
X191600884Y-196450471D01*
X191600884Y-196450471D02*
X191600884Y-196593328D01*
X194600884Y-196593328D02*
X194600884Y-195093328D01*
X194743742Y-196021900D02*
X195172313Y-196593328D01*
X195172313Y-195593328D02*
X194600884Y-196164757D01*
X195815170Y-196593328D02*
X195815170Y-195593328D01*
X195815170Y-195093328D02*
X195743742Y-195164757D01*
X195743742Y-195164757D02*
X195815170Y-195236185D01*
X195815170Y-195236185D02*
X195886599Y-195164757D01*
X195886599Y-195164757D02*
X195815170Y-195093328D01*
X195815170Y-195093328D02*
X195815170Y-195236185D01*
X197172314Y-196521900D02*
X197029456Y-196593328D01*
X197029456Y-196593328D02*
X196743742Y-196593328D01*
X196743742Y-196593328D02*
X196600885Y-196521900D01*
X196600885Y-196521900D02*
X196529456Y-196450471D01*
X196529456Y-196450471D02*
X196458028Y-196307614D01*
X196458028Y-196307614D02*
X196458028Y-195879042D01*
X196458028Y-195879042D02*
X196529456Y-195736185D01*
X196529456Y-195736185D02*
X196600885Y-195664757D01*
X196600885Y-195664757D02*
X196743742Y-195593328D01*
X196743742Y-195593328D02*
X197029456Y-195593328D01*
X197029456Y-195593328D02*
X197172314Y-195664757D01*
X198458028Y-196593328D02*
X198458028Y-195807614D01*
X198458028Y-195807614D02*
X198386599Y-195664757D01*
X198386599Y-195664757D02*
X198243742Y-195593328D01*
X198243742Y-195593328D02*
X197958028Y-195593328D01*
X197958028Y-195593328D02*
X197815170Y-195664757D01*
X198458028Y-196521900D02*
X198315170Y-196593328D01*
X198315170Y-196593328D02*
X197958028Y-196593328D01*
X197958028Y-196593328D02*
X197815170Y-196521900D01*
X197815170Y-196521900D02*
X197743742Y-196379042D01*
X197743742Y-196379042D02*
X197743742Y-196236185D01*
X197743742Y-196236185D02*
X197815170Y-196093328D01*
X197815170Y-196093328D02*
X197958028Y-196021900D01*
X197958028Y-196021900D02*
X198315170Y-196021900D01*
X198315170Y-196021900D02*
X198458028Y-195950471D01*
X199815171Y-196593328D02*
X199815171Y-195093328D01*
X199815171Y-196521900D02*
X199672313Y-196593328D01*
X199672313Y-196593328D02*
X199386599Y-196593328D01*
X199386599Y-196593328D02*
X199243742Y-196521900D01*
X199243742Y-196521900D02*
X199172313Y-196450471D01*
X199172313Y-196450471D02*
X199100885Y-196307614D01*
X199100885Y-196307614D02*
X199100885Y-195879042D01*
X199100885Y-195879042D02*
X199172313Y-195736185D01*
X199172313Y-195736185D02*
X199243742Y-195664757D01*
X199243742Y-195664757D02*
X199386599Y-195593328D01*
X199386599Y-195593328D02*
X199672313Y-195593328D01*
X199672313Y-195593328D02*
X199815171Y-195664757D01*
X201529456Y-195093328D02*
X202529456Y-195093328D01*
X202529456Y-195093328D02*
X201886599Y-196593328D01*
X203100884Y-196450471D02*
X203172313Y-196521900D01*
X203172313Y-196521900D02*
X203100884Y-196593328D01*
X203100884Y-196593328D02*
X203029456Y-196521900D01*
X203029456Y-196521900D02*
X203100884Y-196450471D01*
X203100884Y-196450471D02*
X203100884Y-196593328D01*
X204100885Y-195093328D02*
X204243742Y-195093328D01*
X204243742Y-195093328D02*
X204386599Y-195164757D01*
X204386599Y-195164757D02*
X204458028Y-195236185D01*
X204458028Y-195236185D02*
X204529456Y-195379042D01*
X204529456Y-195379042D02*
X204600885Y-195664757D01*
X204600885Y-195664757D02*
X204600885Y-196021900D01*
X204600885Y-196021900D02*
X204529456Y-196307614D01*
X204529456Y-196307614D02*
X204458028Y-196450471D01*
X204458028Y-196450471D02*
X204386599Y-196521900D01*
X204386599Y-196521900D02*
X204243742Y-196593328D01*
X204243742Y-196593328D02*
X204100885Y-196593328D01*
X204100885Y-196593328D02*
X203958028Y-196521900D01*
X203958028Y-196521900D02*
X203886599Y-196450471D01*
X203886599Y-196450471D02*
X203815170Y-196307614D01*
X203815170Y-196307614D02*
X203743742Y-196021900D01*
X203743742Y-196021900D02*
X203743742Y-195664757D01*
X203743742Y-195664757D02*
X203815170Y-195379042D01*
X203815170Y-195379042D02*
X203886599Y-195236185D01*
X203886599Y-195236185D02*
X203958028Y-195164757D01*
X203958028Y-195164757D02*
X204100885Y-195093328D01*
X205243741Y-196450471D02*
X205315170Y-196521900D01*
X205315170Y-196521900D02*
X205243741Y-196593328D01*
X205243741Y-196593328D02*
X205172313Y-196521900D01*
X205172313Y-196521900D02*
X205243741Y-196450471D01*
X205243741Y-196450471D02*
X205243741Y-196593328D01*
X205815170Y-195093328D02*
X206815170Y-195093328D01*
X206815170Y-195093328D02*
X206172313Y-196593328D01*
D10*
D11*
X177002200Y-191507200D02*
X285002200Y-191507200D01*
D10*
D12*
X264413853Y-193785528D02*
X263913853Y-193071242D01*
X263556710Y-193785528D02*
X263556710Y-192285528D01*
X263556710Y-192285528D02*
X264128139Y-192285528D01*
X264128139Y-192285528D02*
X264270996Y-192356957D01*
X264270996Y-192356957D02*
X264342425Y-192428385D01*
X264342425Y-192428385D02*
X264413853Y-192571242D01*
X264413853Y-192571242D02*
X264413853Y-192785528D01*
X264413853Y-192785528D02*
X264342425Y-192928385D01*
X264342425Y-192928385D02*
X264270996Y-192999814D01*
X264270996Y-192999814D02*
X264128139Y-193071242D01*
X264128139Y-193071242D02*
X263556710Y-193071242D01*
X265628139Y-193714100D02*
X265485282Y-193785528D01*
X265485282Y-193785528D02*
X265199568Y-193785528D01*
X265199568Y-193785528D02*
X265056710Y-193714100D01*
X265056710Y-193714100D02*
X264985282Y-193571242D01*
X264985282Y-193571242D02*
X264985282Y-192999814D01*
X264985282Y-192999814D02*
X265056710Y-192856957D01*
X265056710Y-192856957D02*
X265199568Y-192785528D01*
X265199568Y-192785528D02*
X265485282Y-192785528D01*
X265485282Y-192785528D02*
X265628139Y-192856957D01*
X265628139Y-192856957D02*
X265699568Y-192999814D01*
X265699568Y-192999814D02*
X265699568Y-193142671D01*
X265699568Y-193142671D02*
X264985282Y-193285528D01*
X266199567Y-192785528D02*
X266556710Y-193785528D01*
X266556710Y-193785528D02*
X266913853Y-192785528D01*
X267485281Y-193642671D02*
X267556710Y-193714100D01*
X267556710Y-193714100D02*
X267485281Y-193785528D01*
X267485281Y-193785528D02*
X267413853Y-193714100D01*
X267413853Y-193714100D02*
X267485281Y-193642671D01*
X267485281Y-193642671D02*
X267485281Y-193785528D01*
X267485281Y-192856957D02*
X267556710Y-192928385D01*
X267556710Y-192928385D02*
X267485281Y-192999814D01*
X267485281Y-192999814D02*
X267413853Y-192928385D01*
X267413853Y-192928385D02*
X267485281Y-192856957D01*
X267485281Y-192856957D02*
X267485281Y-192999814D01*
D10*
D11*
X178386598Y-193721900D02*
X178600884Y-193793328D01*
X178600884Y-193793328D02*
X178958026Y-193793328D01*
X178958026Y-193793328D02*
X179100884Y-193721900D01*
X179100884Y-193721900D02*
X179172312Y-193650471D01*
X179172312Y-193650471D02*
X179243741Y-193507614D01*
X179243741Y-193507614D02*
X179243741Y-193364757D01*
X179243741Y-193364757D02*
X179172312Y-193221900D01*
X179172312Y-193221900D02*
X179100884Y-193150471D01*
X179100884Y-193150471D02*
X178958026Y-193079042D01*
X178958026Y-193079042D02*
X178672312Y-193007614D01*
X178672312Y-193007614D02*
X178529455Y-192936185D01*
X178529455Y-192936185D02*
X178458026Y-192864757D01*
X178458026Y-192864757D02*
X178386598Y-192721900D01*
X178386598Y-192721900D02*
X178386598Y-192579042D01*
X178386598Y-192579042D02*
X178458026Y-192436185D01*
X178458026Y-192436185D02*
X178529455Y-192364757D01*
X178529455Y-192364757D02*
X178672312Y-192293328D01*
X178672312Y-192293328D02*
X179029455Y-192293328D01*
X179029455Y-192293328D02*
X179243741Y-192364757D01*
X179886597Y-193793328D02*
X179886597Y-192793328D01*
X179886597Y-192293328D02*
X179815169Y-192364757D01*
X179815169Y-192364757D02*
X179886597Y-192436185D01*
X179886597Y-192436185D02*
X179958026Y-192364757D01*
X179958026Y-192364757D02*
X179886597Y-192293328D01*
X179886597Y-192293328D02*
X179886597Y-192436185D01*
X180458026Y-192793328D02*
X181243741Y-192793328D01*
X181243741Y-192793328D02*
X180458026Y-193793328D01*
X180458026Y-193793328D02*
X181243741Y-193793328D01*
X182386598Y-193721900D02*
X182243741Y-193793328D01*
X182243741Y-193793328D02*
X181958027Y-193793328D01*
X181958027Y-193793328D02*
X181815169Y-193721900D01*
X181815169Y-193721900D02*
X181743741Y-193579042D01*
X181743741Y-193579042D02*
X181743741Y-193007614D01*
X181743741Y-193007614D02*
X181815169Y-192864757D01*
X181815169Y-192864757D02*
X181958027Y-192793328D01*
X181958027Y-192793328D02*
X182243741Y-192793328D01*
X182243741Y-192793328D02*
X182386598Y-192864757D01*
X182386598Y-192864757D02*
X182458027Y-193007614D01*
X182458027Y-193007614D02*
X182458027Y-193150471D01*
X182458027Y-193150471D02*
X181743741Y-193293328D01*
X183100883Y-193650471D02*
X183172312Y-193721900D01*
X183172312Y-193721900D02*
X183100883Y-193793328D01*
X183100883Y-193793328D02*
X183029455Y-193721900D01*
X183029455Y-193721900D02*
X183100883Y-193650471D01*
X183100883Y-193650471D02*
X183100883Y-193793328D01*
X183100883Y-192864757D02*
X183172312Y-192936185D01*
X183172312Y-192936185D02*
X183100883Y-193007614D01*
X183100883Y-193007614D02*
X183029455Y-192936185D01*
X183029455Y-192936185D02*
X183100883Y-192864757D01*
X183100883Y-192864757D02*
X183100883Y-193007614D01*
X184886598Y-193364757D02*
X185600884Y-193364757D01*
X184743741Y-193793328D02*
X185243741Y-192293328D01*
X185243741Y-192293328D02*
X185743741Y-193793328D01*
X186886598Y-192793328D02*
X186886598Y-193793328D01*
X186529455Y-192221900D02*
X186172312Y-193293328D01*
X186172312Y-193293328D02*
X187100883Y-193293328D01*
D10*
D11*
X263458026Y-196593328D02*
X263458026Y-195093328D01*
X264815170Y-196593328D02*
X264815170Y-195093328D01*
X264815170Y-196521900D02*
X264672312Y-196593328D01*
X264672312Y-196593328D02*
X264386598Y-196593328D01*
X264386598Y-196593328D02*
X264243741Y-196521900D01*
X264243741Y-196521900D02*
X264172312Y-196450471D01*
X264172312Y-196450471D02*
X264100884Y-196307614D01*
X264100884Y-196307614D02*
X264100884Y-195879042D01*
X264100884Y-195879042D02*
X264172312Y-195736185D01*
X264172312Y-195736185D02*
X264243741Y-195664757D01*
X264243741Y-195664757D02*
X264386598Y-195593328D01*
X264386598Y-195593328D02*
X264672312Y-195593328D01*
X264672312Y-195593328D02*
X264815170Y-195664757D01*
X265529455Y-196450471D02*
X265600884Y-196521900D01*
X265600884Y-196521900D02*
X265529455Y-196593328D01*
X265529455Y-196593328D02*
X265458027Y-196521900D01*
X265458027Y-196521900D02*
X265529455Y-196450471D01*
X265529455Y-196450471D02*
X265529455Y-196593328D01*
X265529455Y-195664757D02*
X265600884Y-195736185D01*
X265600884Y-195736185D02*
X265529455Y-195807614D01*
X265529455Y-195807614D02*
X265458027Y-195736185D01*
X265458027Y-195736185D02*
X265529455Y-195664757D01*
X265529455Y-195664757D02*
X265529455Y-195807614D01*
X268172313Y-196593328D02*
X267315170Y-196593328D01*
X267743741Y-196593328D02*
X267743741Y-195093328D01*
X267743741Y-195093328D02*
X267600884Y-195307614D01*
X267600884Y-195307614D02*
X267458027Y-195450471D01*
X267458027Y-195450471D02*
X267315170Y-195521900D01*
X269886598Y-195021900D02*
X268600884Y-196950471D01*
X271172313Y-196593328D02*
X270315170Y-196593328D01*
X270743741Y-196593328D02*
X270743741Y-195093328D01*
X270743741Y-195093328D02*
X270600884Y-195307614D01*
X270600884Y-195307614D02*
X270458027Y-195450471D01*
X270458027Y-195450471D02*
X270315170Y-195521900D01*
D10*
D11*
X177002200Y-187507200D02*
X285002200Y-187507200D01*
D10*
D13*
X178693928Y-188211638D02*
X179836785Y-188211638D01*
X179015357Y-190211638D02*
X179265357Y-188211638D01*
X180253452Y-190211638D02*
X180420119Y-188878304D01*
X180503452Y-188211638D02*
X180396309Y-188306876D01*
X180396309Y-188306876D02*
X180479643Y-188402114D01*
X180479643Y-188402114D02*
X180586786Y-188306876D01*
X180586786Y-188306876D02*
X180503452Y-188211638D01*
X180503452Y-188211638D02*
X180479643Y-188402114D01*
X181086786Y-188878304D02*
X181848690Y-188878304D01*
X181455833Y-188211638D02*
X181241548Y-189925923D01*
X181241548Y-189925923D02*
X181312976Y-190116400D01*
X181312976Y-190116400D02*
X181491548Y-190211638D01*
X181491548Y-190211638D02*
X181682024Y-190211638D01*
X182634405Y-190211638D02*
X182455833Y-190116400D01*
X182455833Y-190116400D02*
X182384405Y-189925923D01*
X182384405Y-189925923D02*
X182598690Y-188211638D01*
X184170119Y-190116400D02*
X183967738Y-190211638D01*
X183967738Y-190211638D02*
X183586785Y-190211638D01*
X183586785Y-190211638D02*
X183408214Y-190116400D01*
X183408214Y-190116400D02*
X183336785Y-189925923D01*
X183336785Y-189925923D02*
X183432024Y-189164019D01*
X183432024Y-189164019D02*
X183551071Y-188973542D01*
X183551071Y-188973542D02*
X183753452Y-188878304D01*
X183753452Y-188878304D02*
X184134404Y-188878304D01*
X184134404Y-188878304D02*
X184312976Y-188973542D01*
X184312976Y-188973542D02*
X184384404Y-189164019D01*
X184384404Y-189164019D02*
X184360595Y-189354495D01*
X184360595Y-189354495D02*
X183384404Y-189544971D01*
X185134405Y-190021161D02*
X185217738Y-190116400D01*
X185217738Y-190116400D02*
X185110595Y-190211638D01*
X185110595Y-190211638D02*
X185027262Y-190116400D01*
X185027262Y-190116400D02*
X185134405Y-190021161D01*
X185134405Y-190021161D02*
X185110595Y-190211638D01*
X185265357Y-188973542D02*
X185348690Y-189068780D01*
X185348690Y-189068780D02*
X185241548Y-189164019D01*
X185241548Y-189164019D02*
X185158214Y-189068780D01*
X185158214Y-189068780D02*
X185265357Y-188973542D01*
X185265357Y-188973542D02*
X185241548Y-189164019D01*
D10*
D11*
X178958026Y-185607614D02*
X178458026Y-185607614D01*
X178458026Y-186393328D02*
X178458026Y-184893328D01*
X178458026Y-184893328D02*
X179172312Y-184893328D01*
X179743740Y-186393328D02*
X179743740Y-185393328D01*
X179743740Y-184893328D02*
X179672312Y-184964757D01*
X179672312Y-184964757D02*
X179743740Y-185036185D01*
X179743740Y-185036185D02*
X179815169Y-184964757D01*
X179815169Y-184964757D02*
X179743740Y-184893328D01*
X179743740Y-184893328D02*
X179743740Y-185036185D01*
X180672312Y-186393328D02*
X180529455Y-186321900D01*
X180529455Y-186321900D02*
X180458026Y-186179042D01*
X180458026Y-186179042D02*
X180458026Y-184893328D01*
X181815169Y-186321900D02*
X181672312Y-186393328D01*
X181672312Y-186393328D02*
X181386598Y-186393328D01*
X181386598Y-186393328D02*
X181243740Y-186321900D01*
X181243740Y-186321900D02*
X181172312Y-186179042D01*
X181172312Y-186179042D02*
X181172312Y-185607614D01*
X181172312Y-185607614D02*
X181243740Y-185464757D01*
X181243740Y-185464757D02*
X181386598Y-185393328D01*
X181386598Y-185393328D02*
X181672312Y-185393328D01*
X181672312Y-185393328D02*
X181815169Y-185464757D01*
X181815169Y-185464757D02*
X181886598Y-185607614D01*
X181886598Y-185607614D02*
X181886598Y-185750471D01*
X181886598Y-185750471D02*
X181172312Y-185893328D01*
X182529454Y-186250471D02*
X182600883Y-186321900D01*
X182600883Y-186321900D02*
X182529454Y-186393328D01*
X182529454Y-186393328D02*
X182458026Y-186321900D01*
X182458026Y-186321900D02*
X182529454Y-186250471D01*
X182529454Y-186250471D02*
X182529454Y-186393328D01*
X182529454Y-185464757D02*
X182600883Y-185536185D01*
X182600883Y-185536185D02*
X182529454Y-185607614D01*
X182529454Y-185607614D02*
X182458026Y-185536185D01*
X182458026Y-185536185D02*
X182529454Y-185464757D01*
X182529454Y-185464757D02*
X182529454Y-185607614D01*
X185243740Y-186250471D02*
X185172312Y-186321900D01*
X185172312Y-186321900D02*
X184958026Y-186393328D01*
X184958026Y-186393328D02*
X184815169Y-186393328D01*
X184815169Y-186393328D02*
X184600883Y-186321900D01*
X184600883Y-186321900D02*
X184458026Y-186179042D01*
X184458026Y-186179042D02*
X184386597Y-186036185D01*
X184386597Y-186036185D02*
X184315169Y-185750471D01*
X184315169Y-185750471D02*
X184315169Y-185536185D01*
X184315169Y-185536185D02*
X184386597Y-185250471D01*
X184386597Y-185250471D02*
X184458026Y-185107614D01*
X184458026Y-185107614D02*
X184600883Y-184964757D01*
X184600883Y-184964757D02*
X184815169Y-184893328D01*
X184815169Y-184893328D02*
X184958026Y-184893328D01*
X184958026Y-184893328D02*
X185172312Y-184964757D01*
X185172312Y-184964757D02*
X185243740Y-185036185D01*
X186529455Y-186393328D02*
X186529455Y-185607614D01*
X186529455Y-185607614D02*
X186458026Y-185464757D01*
X186458026Y-185464757D02*
X186315169Y-185393328D01*
X186315169Y-185393328D02*
X186029455Y-185393328D01*
X186029455Y-185393328D02*
X185886597Y-185464757D01*
X186529455Y-186321900D02*
X186386597Y-186393328D01*
X186386597Y-186393328D02*
X186029455Y-186393328D01*
X186029455Y-186393328D02*
X185886597Y-186321900D01*
X185886597Y-186321900D02*
X185815169Y-186179042D01*
X185815169Y-186179042D02*
X185815169Y-186036185D01*
X185815169Y-186036185D02*
X185886597Y-185893328D01*
X185886597Y-185893328D02*
X186029455Y-185821900D01*
X186029455Y-185821900D02*
X186386597Y-185821900D01*
X186386597Y-185821900D02*
X186529455Y-185750471D01*
X187243740Y-186393328D02*
X187243740Y-184893328D01*
X187243740Y-185464757D02*
X187386598Y-185393328D01*
X187386598Y-185393328D02*
X187672312Y-185393328D01*
X187672312Y-185393328D02*
X187815169Y-185464757D01*
X187815169Y-185464757D02*
X187886598Y-185536185D01*
X187886598Y-185536185D02*
X187958026Y-185679042D01*
X187958026Y-185679042D02*
X187958026Y-186107614D01*
X187958026Y-186107614D02*
X187886598Y-186250471D01*
X187886598Y-186250471D02*
X187815169Y-186321900D01*
X187815169Y-186321900D02*
X187672312Y-186393328D01*
X187672312Y-186393328D02*
X187386598Y-186393328D01*
X187386598Y-186393328D02*
X187243740Y-186321900D01*
X188815169Y-186393328D02*
X188672312Y-186321900D01*
X188672312Y-186321900D02*
X188600883Y-186179042D01*
X188600883Y-186179042D02*
X188600883Y-184893328D01*
X189958026Y-186321900D02*
X189815169Y-186393328D01*
X189815169Y-186393328D02*
X189529455Y-186393328D01*
X189529455Y-186393328D02*
X189386597Y-186321900D01*
X189386597Y-186321900D02*
X189315169Y-186179042D01*
X189315169Y-186179042D02*
X189315169Y-185607614D01*
X189315169Y-185607614D02*
X189386597Y-185464757D01*
X189386597Y-185464757D02*
X189529455Y-185393328D01*
X189529455Y-185393328D02*
X189815169Y-185393328D01*
X189815169Y-185393328D02*
X189958026Y-185464757D01*
X189958026Y-185464757D02*
X190029455Y-185607614D01*
X190029455Y-185607614D02*
X190029455Y-185750471D01*
X190029455Y-185750471D02*
X189315169Y-185893328D01*
X190600883Y-185964757D02*
X191315169Y-185964757D01*
X190458026Y-186393328D02*
X190958026Y-184893328D01*
X190958026Y-184893328D02*
X191458026Y-186393328D01*
X192600883Y-186393328D02*
X192600883Y-184893328D01*
X192600883Y-186321900D02*
X192458025Y-186393328D01*
X192458025Y-186393328D02*
X192172311Y-186393328D01*
X192172311Y-186393328D02*
X192029454Y-186321900D01*
X192029454Y-186321900D02*
X191958025Y-186250471D01*
X191958025Y-186250471D02*
X191886597Y-186107614D01*
X191886597Y-186107614D02*
X191886597Y-185679042D01*
X191886597Y-185679042D02*
X191958025Y-185536185D01*
X191958025Y-185536185D02*
X192029454Y-185464757D01*
X192029454Y-185464757D02*
X192172311Y-185393328D01*
X192172311Y-185393328D02*
X192458025Y-185393328D01*
X192458025Y-185393328D02*
X192600883Y-185464757D01*
X193958026Y-186393328D02*
X193958026Y-185607614D01*
X193958026Y-185607614D02*
X193886597Y-185464757D01*
X193886597Y-185464757D02*
X193743740Y-185393328D01*
X193743740Y-185393328D02*
X193458026Y-185393328D01*
X193458026Y-185393328D02*
X193315168Y-185464757D01*
X193958026Y-186321900D02*
X193815168Y-186393328D01*
X193815168Y-186393328D02*
X193458026Y-186393328D01*
X193458026Y-186393328D02*
X193315168Y-186321900D01*
X193315168Y-186321900D02*
X193243740Y-186179042D01*
X193243740Y-186179042D02*
X193243740Y-186036185D01*
X193243740Y-186036185D02*
X193315168Y-185893328D01*
X193315168Y-185893328D02*
X193458026Y-185821900D01*
X193458026Y-185821900D02*
X193815168Y-185821900D01*
X193815168Y-185821900D02*
X193958026Y-185750471D01*
X194672311Y-185393328D02*
X194672311Y-186893328D01*
X194672311Y-185464757D02*
X194815169Y-185393328D01*
X194815169Y-185393328D02*
X195100883Y-185393328D01*
X195100883Y-185393328D02*
X195243740Y-185464757D01*
X195243740Y-185464757D02*
X195315169Y-185536185D01*
X195315169Y-185536185D02*
X195386597Y-185679042D01*
X195386597Y-185679042D02*
X195386597Y-186107614D01*
X195386597Y-186107614D02*
X195315169Y-186250471D01*
X195315169Y-186250471D02*
X195243740Y-186321900D01*
X195243740Y-186321900D02*
X195100883Y-186393328D01*
X195100883Y-186393328D02*
X194815169Y-186393328D01*
X194815169Y-186393328D02*
X194672311Y-186321900D01*
X195815169Y-185393328D02*
X196386597Y-185393328D01*
X196029454Y-184893328D02*
X196029454Y-186179042D01*
X196029454Y-186179042D02*
X196100883Y-186321900D01*
X196100883Y-186321900D02*
X196243740Y-186393328D01*
X196243740Y-186393328D02*
X196386597Y-186393328D01*
X197458026Y-186321900D02*
X197315169Y-186393328D01*
X197315169Y-186393328D02*
X197029455Y-186393328D01*
X197029455Y-186393328D02*
X196886597Y-186321900D01*
X196886597Y-186321900D02*
X196815169Y-186179042D01*
X196815169Y-186179042D02*
X196815169Y-185607614D01*
X196815169Y-185607614D02*
X196886597Y-185464757D01*
X196886597Y-185464757D02*
X197029455Y-185393328D01*
X197029455Y-185393328D02*
X197315169Y-185393328D01*
X197315169Y-185393328D02*
X197458026Y-185464757D01*
X197458026Y-185464757D02*
X197529455Y-185607614D01*
X197529455Y-185607614D02*
X197529455Y-185750471D01*
X197529455Y-185750471D02*
X196815169Y-185893328D01*
X198172311Y-186393328D02*
X198172311Y-185393328D01*
X198172311Y-185679042D02*
X198243740Y-185536185D01*
X198243740Y-185536185D02*
X198315169Y-185464757D01*
X198315169Y-185464757D02*
X198458026Y-185393328D01*
X198458026Y-185393328D02*
X198600883Y-185393328D01*
X199600882Y-185607614D02*
X199815168Y-185679042D01*
X199815168Y-185679042D02*
X199886597Y-185750471D01*
X199886597Y-185750471D02*
X199958025Y-185893328D01*
X199958025Y-185893328D02*
X199958025Y-186107614D01*
X199958025Y-186107614D02*
X199886597Y-186250471D01*
X199886597Y-186250471D02*
X199815168Y-186321900D01*
X199815168Y-186321900D02*
X199672311Y-186393328D01*
X199672311Y-186393328D02*
X199100882Y-186393328D01*
X199100882Y-186393328D02*
X199100882Y-184893328D01*
X199100882Y-184893328D02*
X199600882Y-184893328D01*
X199600882Y-184893328D02*
X199743740Y-184964757D01*
X199743740Y-184964757D02*
X199815168Y-185036185D01*
X199815168Y-185036185D02*
X199886597Y-185179042D01*
X199886597Y-185179042D02*
X199886597Y-185321900D01*
X199886597Y-185321900D02*
X199815168Y-185464757D01*
X199815168Y-185464757D02*
X199743740Y-185536185D01*
X199743740Y-185536185D02*
X199600882Y-185607614D01*
X199600882Y-185607614D02*
X199100882Y-185607614D01*
X200815168Y-186393328D02*
X200672311Y-186321900D01*
X200672311Y-186321900D02*
X200600882Y-186250471D01*
X200600882Y-186250471D02*
X200529454Y-186107614D01*
X200529454Y-186107614D02*
X200529454Y-185679042D01*
X200529454Y-185679042D02*
X200600882Y-185536185D01*
X200600882Y-185536185D02*
X200672311Y-185464757D01*
X200672311Y-185464757D02*
X200815168Y-185393328D01*
X200815168Y-185393328D02*
X201029454Y-185393328D01*
X201029454Y-185393328D02*
X201172311Y-185464757D01*
X201172311Y-185464757D02*
X201243740Y-185536185D01*
X201243740Y-185536185D02*
X201315168Y-185679042D01*
X201315168Y-185679042D02*
X201315168Y-186107614D01*
X201315168Y-186107614D02*
X201243740Y-186250471D01*
X201243740Y-186250471D02*
X201172311Y-186321900D01*
X201172311Y-186321900D02*
X201029454Y-186393328D01*
X201029454Y-186393328D02*
X200815168Y-186393328D01*
X202600883Y-186393328D02*
X202600883Y-185607614D01*
X202600883Y-185607614D02*
X202529454Y-185464757D01*
X202529454Y-185464757D02*
X202386597Y-185393328D01*
X202386597Y-185393328D02*
X202100883Y-185393328D01*
X202100883Y-185393328D02*
X201958025Y-185464757D01*
X202600883Y-186321900D02*
X202458025Y-186393328D01*
X202458025Y-186393328D02*
X202100883Y-186393328D01*
X202100883Y-186393328D02*
X201958025Y-186321900D01*
X201958025Y-186321900D02*
X201886597Y-186179042D01*
X201886597Y-186179042D02*
X201886597Y-186036185D01*
X201886597Y-186036185D02*
X201958025Y-185893328D01*
X201958025Y-185893328D02*
X202100883Y-185821900D01*
X202100883Y-185821900D02*
X202458025Y-185821900D01*
X202458025Y-185821900D02*
X202600883Y-185750471D01*
X203315168Y-186393328D02*
X203315168Y-185393328D01*
X203315168Y-185679042D02*
X203386597Y-185536185D01*
X203386597Y-185536185D02*
X203458026Y-185464757D01*
X203458026Y-185464757D02*
X203600883Y-185393328D01*
X203600883Y-185393328D02*
X203743740Y-185393328D01*
X204886597Y-186393328D02*
X204886597Y-184893328D01*
X204886597Y-186321900D02*
X204743739Y-186393328D01*
X204743739Y-186393328D02*
X204458025Y-186393328D01*
X204458025Y-186393328D02*
X204315168Y-186321900D01*
X204315168Y-186321900D02*
X204243739Y-186250471D01*
X204243739Y-186250471D02*
X204172311Y-186107614D01*
X204172311Y-186107614D02*
X204172311Y-185679042D01*
X204172311Y-185679042D02*
X204243739Y-185536185D01*
X204243739Y-185536185D02*
X204315168Y-185464757D01*
X204315168Y-185464757D02*
X204458025Y-185393328D01*
X204458025Y-185393328D02*
X204743739Y-185393328D01*
X204743739Y-185393328D02*
X204886597Y-185464757D01*
X205600882Y-186250471D02*
X205672311Y-186321900D01*
X205672311Y-186321900D02*
X205600882Y-186393328D01*
X205600882Y-186393328D02*
X205529454Y-186321900D01*
X205529454Y-186321900D02*
X205600882Y-186250471D01*
X205600882Y-186250471D02*
X205600882Y-186393328D01*
X206315168Y-186393328D02*
X206315168Y-184893328D01*
X206458026Y-185821900D02*
X206886597Y-186393328D01*
X206886597Y-185393328D02*
X206315168Y-185964757D01*
X207529454Y-186393328D02*
X207529454Y-185393328D01*
X207529454Y-184893328D02*
X207458026Y-184964757D01*
X207458026Y-184964757D02*
X207529454Y-185036185D01*
X207529454Y-185036185D02*
X207600883Y-184964757D01*
X207600883Y-184964757D02*
X207529454Y-184893328D01*
X207529454Y-184893328D02*
X207529454Y-185036185D01*
X208886598Y-186321900D02*
X208743740Y-186393328D01*
X208743740Y-186393328D02*
X208458026Y-186393328D01*
X208458026Y-186393328D02*
X208315169Y-186321900D01*
X208315169Y-186321900D02*
X208243740Y-186250471D01*
X208243740Y-186250471D02*
X208172312Y-186107614D01*
X208172312Y-186107614D02*
X208172312Y-185679042D01*
X208172312Y-185679042D02*
X208243740Y-185536185D01*
X208243740Y-185536185D02*
X208315169Y-185464757D01*
X208315169Y-185464757D02*
X208458026Y-185393328D01*
X208458026Y-185393328D02*
X208743740Y-185393328D01*
X208743740Y-185393328D02*
X208886598Y-185464757D01*
X210172312Y-186393328D02*
X210172312Y-185607614D01*
X210172312Y-185607614D02*
X210100883Y-185464757D01*
X210100883Y-185464757D02*
X209958026Y-185393328D01*
X209958026Y-185393328D02*
X209672312Y-185393328D01*
X209672312Y-185393328D02*
X209529454Y-185464757D01*
X210172312Y-186321900D02*
X210029454Y-186393328D01*
X210029454Y-186393328D02*
X209672312Y-186393328D01*
X209672312Y-186393328D02*
X209529454Y-186321900D01*
X209529454Y-186321900D02*
X209458026Y-186179042D01*
X209458026Y-186179042D02*
X209458026Y-186036185D01*
X209458026Y-186036185D02*
X209529454Y-185893328D01*
X209529454Y-185893328D02*
X209672312Y-185821900D01*
X209672312Y-185821900D02*
X210029454Y-185821900D01*
X210029454Y-185821900D02*
X210172312Y-185750471D01*
X211529455Y-186393328D02*
X211529455Y-184893328D01*
X211529455Y-186321900D02*
X211386597Y-186393328D01*
X211386597Y-186393328D02*
X211100883Y-186393328D01*
X211100883Y-186393328D02*
X210958026Y-186321900D01*
X210958026Y-186321900D02*
X210886597Y-186250471D01*
X210886597Y-186250471D02*
X210815169Y-186107614D01*
X210815169Y-186107614D02*
X210815169Y-185679042D01*
X210815169Y-185679042D02*
X210886597Y-185536185D01*
X210886597Y-185536185D02*
X210958026Y-185464757D01*
X210958026Y-185464757D02*
X211100883Y-185393328D01*
X211100883Y-185393328D02*
X211386597Y-185393328D01*
X211386597Y-185393328D02*
X211529455Y-185464757D01*
X211886598Y-186536185D02*
X213029455Y-186536185D01*
X213386597Y-185393328D02*
X213386597Y-186893328D01*
X213386597Y-185464757D02*
X213529455Y-185393328D01*
X213529455Y-185393328D02*
X213815169Y-185393328D01*
X213815169Y-185393328D02*
X213958026Y-185464757D01*
X213958026Y-185464757D02*
X214029455Y-185536185D01*
X214029455Y-185536185D02*
X214100883Y-185679042D01*
X214100883Y-185679042D02*
X214100883Y-186107614D01*
X214100883Y-186107614D02*
X214029455Y-186250471D01*
X214029455Y-186250471D02*
X213958026Y-186321900D01*
X213958026Y-186321900D02*
X213815169Y-186393328D01*
X213815169Y-186393328D02*
X213529455Y-186393328D01*
X213529455Y-186393328D02*
X213386597Y-186321900D01*
X215386598Y-186321900D02*
X215243740Y-186393328D01*
X215243740Y-186393328D02*
X214958026Y-186393328D01*
X214958026Y-186393328D02*
X214815169Y-186321900D01*
X214815169Y-186321900D02*
X214743740Y-186250471D01*
X214743740Y-186250471D02*
X214672312Y-186107614D01*
X214672312Y-186107614D02*
X214672312Y-185679042D01*
X214672312Y-185679042D02*
X214743740Y-185536185D01*
X214743740Y-185536185D02*
X214815169Y-185464757D01*
X214815169Y-185464757D02*
X214958026Y-185393328D01*
X214958026Y-185393328D02*
X215243740Y-185393328D01*
X215243740Y-185393328D02*
X215386598Y-185464757D01*
X216029454Y-186393328D02*
X216029454Y-184893328D01*
X216029454Y-185464757D02*
X216172312Y-185393328D01*
X216172312Y-185393328D02*
X216458026Y-185393328D01*
X216458026Y-185393328D02*
X216600883Y-185464757D01*
X216600883Y-185464757D02*
X216672312Y-185536185D01*
X216672312Y-185536185D02*
X216743740Y-185679042D01*
X216743740Y-185679042D02*
X216743740Y-186107614D01*
X216743740Y-186107614D02*
X216672312Y-186250471D01*
X216672312Y-186250471D02*
X216600883Y-186321900D01*
X216600883Y-186321900D02*
X216458026Y-186393328D01*
X216458026Y-186393328D02*
X216172312Y-186393328D01*
X216172312Y-186393328D02*
X216029454Y-186321900D01*
D10*
D11*
X177002200Y-181507200D02*
X285002200Y-181507200D01*
D10*
D11*
X178386598Y-183621900D02*
X178600884Y-183693328D01*
X178600884Y-183693328D02*
X178958026Y-183693328D01*
X178958026Y-183693328D02*
X179100884Y-183621900D01*
X179100884Y-183621900D02*
X179172312Y-183550471D01*
X179172312Y-183550471D02*
X179243741Y-183407614D01*
X179243741Y-183407614D02*
X179243741Y-183264757D01*
X179243741Y-183264757D02*
X179172312Y-183121900D01*
X179172312Y-183121900D02*
X179100884Y-183050471D01*
X179100884Y-183050471D02*
X178958026Y-182979042D01*
X178958026Y-182979042D02*
X178672312Y-182907614D01*
X178672312Y-182907614D02*
X178529455Y-182836185D01*
X178529455Y-182836185D02*
X178458026Y-182764757D01*
X178458026Y-182764757D02*
X178386598Y-182621900D01*
X178386598Y-182621900D02*
X178386598Y-182479042D01*
X178386598Y-182479042D02*
X178458026Y-182336185D01*
X178458026Y-182336185D02*
X178529455Y-182264757D01*
X178529455Y-182264757D02*
X178672312Y-182193328D01*
X178672312Y-182193328D02*
X179029455Y-182193328D01*
X179029455Y-182193328D02*
X179243741Y-182264757D01*
X179886597Y-183693328D02*
X179886597Y-182193328D01*
X180529455Y-183693328D02*
X180529455Y-182907614D01*
X180529455Y-182907614D02*
X180458026Y-182764757D01*
X180458026Y-182764757D02*
X180315169Y-182693328D01*
X180315169Y-182693328D02*
X180100883Y-182693328D01*
X180100883Y-182693328D02*
X179958026Y-182764757D01*
X179958026Y-182764757D02*
X179886597Y-182836185D01*
X181815169Y-183621900D02*
X181672312Y-183693328D01*
X181672312Y-183693328D02*
X181386598Y-183693328D01*
X181386598Y-183693328D02*
X181243740Y-183621900D01*
X181243740Y-183621900D02*
X181172312Y-183479042D01*
X181172312Y-183479042D02*
X181172312Y-182907614D01*
X181172312Y-182907614D02*
X181243740Y-182764757D01*
X181243740Y-182764757D02*
X181386598Y-182693328D01*
X181386598Y-182693328D02*
X181672312Y-182693328D01*
X181672312Y-182693328D02*
X181815169Y-182764757D01*
X181815169Y-182764757D02*
X181886598Y-182907614D01*
X181886598Y-182907614D02*
X181886598Y-183050471D01*
X181886598Y-183050471D02*
X181172312Y-183193328D01*
X183100883Y-183621900D02*
X182958026Y-183693328D01*
X182958026Y-183693328D02*
X182672312Y-183693328D01*
X182672312Y-183693328D02*
X182529454Y-183621900D01*
X182529454Y-183621900D02*
X182458026Y-183479042D01*
X182458026Y-183479042D02*
X182458026Y-182907614D01*
X182458026Y-182907614D02*
X182529454Y-182764757D01*
X182529454Y-182764757D02*
X182672312Y-182693328D01*
X182672312Y-182693328D02*
X182958026Y-182693328D01*
X182958026Y-182693328D02*
X183100883Y-182764757D01*
X183100883Y-182764757D02*
X183172312Y-182907614D01*
X183172312Y-182907614D02*
X183172312Y-183050471D01*
X183172312Y-183050471D02*
X182458026Y-183193328D01*
X183600883Y-182693328D02*
X184172311Y-182693328D01*
X183815168Y-182193328D02*
X183815168Y-183479042D01*
X183815168Y-183479042D02*
X183886597Y-183621900D01*
X183886597Y-183621900D02*
X184029454Y-183693328D01*
X184029454Y-183693328D02*
X184172311Y-183693328D01*
X184672311Y-183550471D02*
X184743740Y-183621900D01*
X184743740Y-183621900D02*
X184672311Y-183693328D01*
X184672311Y-183693328D02*
X184600883Y-183621900D01*
X184600883Y-183621900D02*
X184672311Y-183550471D01*
X184672311Y-183550471D02*
X184672311Y-183693328D01*
X184672311Y-182764757D02*
X184743740Y-182836185D01*
X184743740Y-182836185D02*
X184672311Y-182907614D01*
X184672311Y-182907614D02*
X184600883Y-182836185D01*
X184600883Y-182836185D02*
X184672311Y-182764757D01*
X184672311Y-182764757D02*
X184672311Y-182907614D01*
D10*
D12*
D10*
D11*
D10*
D11*
D10*
D11*
D10*
D11*
D10*
D11*
X197002200Y-191507200D02*
X197002200Y-194507200D01*
D10*
D11*
X261002200Y-191507200D02*
X261002200Y-198007200D01*
D14*
%TO.N,DGND*%
%TO.C,JP1*%
X103610000Y-82200000D03*
D15*
%TO.N,/d-sub-shield*%
X101070000Y-82200000D03*
%TO.N,AGND*%
X98530000Y-82200000D03*
%TD*%
D16*
%TO.N,DGND*%
%TO.C,J31*%
X158425000Y-105040000D03*
X158425000Y-101800000D03*
X158425000Y-97800000D03*
X158425000Y-95770000D03*
X140625000Y-95770000D03*
X140625000Y-97800000D03*
X140625000Y-101800000D03*
X140625000Y-106040000D03*
%TD*%
D17*
%TO.N,AGND*%
%TO.C,J2*%
X169595000Y-108422500D03*
D18*
%TO.N,unconnected-(J2-Pad02)*%
X169595000Y-105882500D03*
%TO.N,unconnected-(J2-Pad03)*%
X169595000Y-103342500D03*
%TO.N,unconnected-(J2-Pad04)*%
X169595000Y-100802500D03*
%TO.N,AGND*%
X169595000Y-98262500D03*
%TO.N,unconnected-(J2-Pad06)*%
X172135000Y-108422500D03*
%TO.N,unconnected-(J2-Pad07)*%
X172135000Y-105882500D03*
%TO.N,unconnected-(J2-Pad08)*%
X172135000Y-103342500D03*
%TO.N,/VDD2_Sense*%
X172135000Y-100802500D03*
%TO.N,/VDD1_Sense*%
X172135000Y-98262500D03*
%TD*%
D19*
%TO.N,DGND*%
%TO.C,TP4*%
X179600000Y-106220000D03*
D20*
%TO.N,/VDD2_Sense*%
X179600000Y-111300000D03*
%TD*%
D17*
%TO.N,AGND*%
%TO.C,J3*%
X98495000Y-97497500D03*
D18*
X98495000Y-94957500D03*
X98495000Y-92417500D03*
X98495000Y-89877500D03*
X98495000Y-87337500D03*
%TO.N,/HS_Vdiff*%
X101035000Y-97497500D03*
%TO.N,unconnected-(J3-Pad07)*%
X101035000Y-94957500D03*
%TO.N,/ADC_MON_VIN_P*%
X101035000Y-92417500D03*
%TO.N,/ADC_MON_VCOM*%
X101035000Y-89877500D03*
%TO.N,/ADC_MON_VIN_N*%
X101035000Y-87337500D03*
%TD*%
D19*
%TO.N,AGND*%
%TO.C,TP2*%
X179720000Y-84890000D03*
D20*
%TO.N,/VDD1*%
X179720000Y-89970000D03*
%TD*%
D19*
%TO.N,DGND*%
%TO.C,TP3*%
X179770000Y-74100000D03*
D20*
%TO.N,/VDD2*%
X179770000Y-79180000D03*
%TD*%
D16*
%TO.N,DGND*%
%TO.C,J21*%
X130225000Y-104990000D03*
X130225000Y-101750000D03*
X130225000Y-97750000D03*
X130225000Y-95720000D03*
X112425000Y-95720000D03*
X112425000Y-97750000D03*
X112425000Y-101750000D03*
X112425000Y-105990000D03*
%TD*%
D17*
%TO.N,AGND*%
%TO.C,J1*%
X172595000Y-83665000D03*
D18*
X172595000Y-86205000D03*
X172595000Y-88745000D03*
X172595000Y-91285000D03*
%TO.N,/VDD2*%
X170055000Y-83665000D03*
X170055000Y-86205000D03*
%TO.N,/VDD1*%
X170055000Y-88745000D03*
X170055000Y-91285000D03*
%TD*%
D21*
%TO.N,DGND*%
%TO.C,DSUB1*%
X158938600Y-78086500D03*
%TO.N,/RD_CLK_P*%
X156195400Y-78086500D03*
%TO.N,DGND*%
X153426800Y-78086500D03*
%TO.N,/DATA_OUT_1_P*%
X150658200Y-78086500D03*
%TO.N,DGND*%
X147915000Y-78086500D03*
%TO.N,/DATA_OUT_0_P*%
X145146400Y-78086500D03*
%TO.N,DGND*%
X142377800Y-78086500D03*
%TO.N,/ASIC_SR0_P*%
X139634600Y-78086500D03*
%TO.N,DGND*%
X136866000Y-78086500D03*
%TO.N,/WORD_CLK_0_N*%
X134097400Y-78086500D03*
%TO.N,/WORD_CLK_0_P*%
X131354200Y-78086500D03*
%TO.N,DGND*%
X128585600Y-78086500D03*
%TO.N,AGND*%
X125817000Y-78086500D03*
%TO.N,/HS_Vdiff*%
X123073800Y-78086500D03*
%TO.N,/VDD1*%
X120305200Y-78086500D03*
X117536600Y-78086500D03*
%TO.N,AGND*%
X114793400Y-78086500D03*
%TO.N,/VDD2*%
X157567000Y-75546500D03*
%TO.N,/RD_CLK_N*%
X154798400Y-75546500D03*
%TO.N,DGND*%
X152055200Y-75546500D03*
%TO.N,/DATA_OUT_1_N*%
X149286600Y-75546500D03*
%TO.N,DGND*%
X146518000Y-75546500D03*
%TO.N,/DATA_OUT_0_N*%
X143749400Y-75546500D03*
%TO.N,/ASIC_GR*%
X141006200Y-75546500D03*
%TO.N,/ASIC_SR0_N*%
X138237600Y-75546500D03*
%TO.N,DGND*%
X135469000Y-75546500D03*
%TO.N,/SACI_CMD_P*%
X132725800Y-75546500D03*
%TO.N,DGND*%
X129957200Y-75546500D03*
%TO.N,/SACI_CLK_P*%
X127188600Y-75546500D03*
%TO.N,/ASIC_SACI_SEL*%
X124445400Y-75546500D03*
%TO.N,AGND*%
X121676800Y-75546500D03*
%TO.N,/ADC_MON_VIN_P*%
X118908200Y-75546500D03*
%TO.N,AGND*%
X116165000Y-75546500D03*
%TO.N,/VDD2*%
X158938600Y-73006500D03*
%TO.N,/ASIC_SampClkEn_P*%
X156195400Y-73006500D03*
%TO.N,/ASIC_SampClkEn_N*%
X153426800Y-73006500D03*
%TO.N,/VDD2_Sense*%
X150658200Y-73006500D03*
%TO.N,DGND*%
X147915000Y-73006500D03*
%TO.N,/SACI_RESP_P*%
X145146400Y-73006500D03*
%TO.N,/SACI_RESP_N*%
X142377800Y-73006500D03*
%TO.N,DGND*%
X139634600Y-73006500D03*
X136866000Y-73006500D03*
%TO.N,/ASIC_PULSE*%
X134097400Y-73006500D03*
%TO.N,/SACI_CMD_N*%
X131354200Y-73006500D03*
%TO.N,DGND*%
X128585600Y-73006500D03*
%TO.N,/SACI_CLK_N*%
X125817000Y-73006500D03*
%TO.N,AGND*%
X123073800Y-73006500D03*
%TO.N,/ADC_MON_VCOM*%
X120305200Y-73006500D03*
%TO.N,/ADC_MON_VIN_N*%
X117536600Y-73006500D03*
%TO.N,/VDD1_Sense*%
X114793400Y-73006500D03*
D22*
%TO.N,/d-sub-shield*%
X106309800Y-75546500D03*
X167422200Y-75546500D03*
%TD*%
D19*
%TO.N,AGND*%
%TO.C,TP1*%
X179670000Y-95630000D03*
D20*
%TO.N,/VDD1_Sense*%
X179670000Y-100710000D03*
%TD*%
D23*
%TO.N,DGND*%
X147920000Y-87730000D03*
X162420000Y-95360000D03*
X145980000Y-99900000D03*
X110800000Y-83560000D03*
X115460000Y-99620000D03*
X114000000Y-90600000D03*
X140580000Y-86820000D03*
X125910000Y-80150000D03*
X162330000Y-84880000D03*
X117200000Y-87460000D03*
X124520000Y-108170000D03*
X147920000Y-82770000D03*
X154610000Y-108190000D03*
X120390000Y-84110000D03*
X153170000Y-99890000D03*
X122320000Y-99900000D03*
X149560000Y-99890000D03*
X119350000Y-98620000D03*
X151260000Y-99890000D03*
X147840000Y-99890000D03*
D24*
%TO.N,/RD_CLK_P*%
X144370000Y-94817500D03*
%TO.N,/DATA_OUT_1_P*%
X155970000Y-100620000D03*
%TO.N,/DATA_OUT_0_P*%
X155510001Y-94499989D03*
%TO.N,/ASIC_SR0_P*%
X116065005Y-94654990D03*
%TO.N,/WORD_CLK_0_N*%
X146540000Y-93970000D03*
%TO.N,/WORD_CLK_0_P*%
X146570000Y-94880000D03*
D23*
%TO.N,AGND*%
X167390000Y-94890000D03*
X154600000Y-110660000D03*
X106540000Y-85610000D03*
X124450000Y-111020000D03*
D24*
%TO.N,/RD_CLK_N*%
X143070000Y-94827500D03*
%TO.N,/DATA_OUT_1_N*%
X154700000Y-100620000D03*
%TO.N,/DATA_OUT_0_N*%
X154359991Y-94499989D03*
D23*
%TO.N,/ASIC_GR*%
X119950000Y-100000000D03*
D24*
%TO.N,/ASIC_SR0_N*%
X114965007Y-94654990D03*
%TO.N,/SACI_CMD_P*%
X124850000Y-94630000D03*
%TO.N,/SACI_CLK_P*%
X118489990Y-94620000D03*
D23*
%TO.N,/ASIC_SACI_SEL*%
X127536378Y-100346378D03*
D24*
%TO.N,/ASIC_SampClkEn_P*%
X124150000Y-99570000D03*
%TO.N,/ASIC_SampClkEn_N*%
X124170000Y-100730000D03*
%TO.N,/SACI_RESP_P*%
X127250011Y-94647504D03*
%TO.N,/SACI_RESP_N*%
X126229998Y-94647504D03*
D23*
%TO.N,/ASIC_PULSE*%
X117850000Y-100320000D03*
D24*
%TO.N,/SACI_CMD_N*%
X123770000Y-94620000D03*
%TO.N,/SACI_CLK_N*%
X117400000Y-94620000D03*
%TD*%
D25*
%TO.N,/DATA_OUT_1_P*%
X155970000Y-100620000D02*
X155549300Y-100199300D01*
X150693200Y-82775000D02*
X149736601Y-81818401D01*
X156944300Y-95188766D02*
X158634300Y-93498766D01*
X155549300Y-99453766D02*
X156944300Y-98058766D01*
X156944300Y-98058766D02*
X156944300Y-95188766D01*
X158634300Y-93498766D02*
X158634300Y-90716100D01*
X149736601Y-79008099D02*
X150658200Y-78086500D01*
X149736601Y-81818401D02*
X149736601Y-79008099D01*
X158634300Y-90716100D02*
X150693200Y-82775000D01*
X155549300Y-100199300D02*
X155549300Y-99453766D01*
%TO.N,/DATA_OUT_0_P*%
X150158283Y-88886506D02*
X150400750Y-88644040D01*
X152219219Y-88522773D02*
X152077797Y-88381351D01*
X144206600Y-79026300D02*
X145146400Y-78086500D01*
X153128421Y-91533354D02*
X153128421Y-91533355D01*
X152522286Y-89634063D02*
X151714061Y-90442284D01*
X152663709Y-91391933D02*
X152825352Y-91230287D01*
X155163597Y-94153585D02*
X155163597Y-92760307D01*
X150016862Y-87128639D02*
X149855217Y-87290283D01*
X153128421Y-91533355D02*
X152966775Y-91694998D01*
X151552417Y-90442284D02*
X151410995Y-90300862D01*
X155510001Y-94499989D02*
X155163597Y-94153585D01*
X144206600Y-81803310D02*
X144206600Y-79026300D01*
X150966507Y-87270060D02*
X150966507Y-87270061D01*
X150299705Y-89189572D02*
X150158283Y-89048150D01*
X151269574Y-88381352D02*
X151269574Y-88381351D01*
X153471931Y-89775484D02*
X153471931Y-89775485D01*
X152522286Y-89634064D02*
X152522286Y-89634063D01*
X152219219Y-88522772D02*
X152219219Y-88522773D01*
X152825352Y-91230287D02*
X153471931Y-90583708D01*
X152805131Y-91694999D02*
X152663709Y-91553577D01*
X152805131Y-91694998D02*
X152805131Y-91694999D01*
X149693573Y-87290283D02*
X149693572Y-87290283D01*
X150400750Y-88644040D02*
X150966507Y-88078284D01*
X153471931Y-89775485D02*
X153330509Y-89634063D01*
X151269574Y-88381351D02*
X150461349Y-89189572D01*
X149693572Y-87290283D02*
X144206600Y-81803310D01*
X150016862Y-87128640D02*
X150016862Y-87128639D01*
X151653462Y-89896752D02*
X152219219Y-89330996D01*
X155163597Y-92760307D02*
X153936643Y-91533354D01*
X150966507Y-87270061D02*
X150825085Y-87128639D01*
X151410995Y-90139218D02*
X151653462Y-89896752D01*
X152219234Y-89331011D02*
G75*
G03*
X152219218Y-88522773I-404134J404111D01*
G01*
X150158256Y-88886479D02*
G75*
G03*
X150158284Y-89048149I80844J-80821D01*
G01*
X150299706Y-89189571D02*
G75*
G03*
X150461348Y-89189571I80821J80820D01*
G01*
X152663755Y-91391979D02*
G75*
G03*
X152663710Y-91553576I80745J-80821D01*
G01*
X150825110Y-87128614D02*
G75*
G03*
X150016863Y-87128641I-404110J-404186D01*
G01*
X153471934Y-90583711D02*
G75*
G03*
X153471930Y-89775485I-404134J404111D01*
G01*
X150966534Y-88078311D02*
G75*
G03*
X150966506Y-87270061I-404134J404111D01*
G01*
X152077811Y-88381337D02*
G75*
G03*
X151269574Y-88381352I-404111J-404163D01*
G01*
X151552418Y-90442283D02*
G75*
G03*
X151714060Y-90442283I80821J80820D01*
G01*
X153330511Y-89634061D02*
G75*
G03*
X152522286Y-89634064I-404111J-404139D01*
G01*
X153936643Y-91533354D02*
G75*
G03*
X153128421Y-91533354I-404111J-404115D01*
G01*
X149693574Y-87290282D02*
G75*
G03*
X149855216Y-87290282I80821J80820D01*
G01*
X151410956Y-90139179D02*
G75*
G03*
X151410996Y-90300861I80844J-80821D01*
G01*
X152805132Y-91694997D02*
G75*
G03*
X152966774Y-91694997I80821J80820D01*
G01*
%TO.N,/WORD_CLK_0_N*%
X133648325Y-87080126D02*
X132950800Y-86382601D01*
X139752700Y-90627100D02*
X139752700Y-91806161D01*
X143177979Y-90841400D02*
X141310000Y-90841400D01*
X139752700Y-90333851D02*
X139752700Y-90627100D01*
X139324100Y-91806161D02*
X139324100Y-91512900D01*
X146306579Y-93970000D02*
X143177979Y-90841400D01*
X141095700Y-90627100D02*
X141095700Y-90333851D01*
X146540000Y-93970000D02*
X146306579Y-93970000D01*
X133665769Y-87080126D02*
X133648325Y-87080126D01*
X132950800Y-86382601D02*
X132950801Y-79233099D01*
X132950801Y-79233099D02*
X134097400Y-78086500D01*
X138652600Y-90841400D02*
X137427043Y-90841400D01*
X137427043Y-90841400D02*
X133665769Y-87080126D01*
X139538400Y-92020500D02*
G75*
G03*
X139752700Y-91806161I0J214300D01*
G01*
X141095700Y-90627100D02*
G75*
G03*
X141310000Y-90841400I214300J0D01*
G01*
X141095749Y-90333851D02*
G75*
G03*
X140424200Y-89662351I-671549J-49D01*
G01*
X139324139Y-91806161D02*
G75*
G03*
X139538400Y-92020461I214261J-39D01*
G01*
X140424200Y-89662400D02*
G75*
G03*
X139752700Y-90333851I0J-671500D01*
G01*
X139324100Y-91512900D02*
G75*
G03*
X138652600Y-90841400I-671500J0D01*
G01*
%TO.N,/WORD_CLK_0_P*%
X140638500Y-90627100D02*
X140638500Y-90333851D01*
X140209900Y-90333851D02*
X140209900Y-90627100D01*
X138652600Y-91298600D02*
X137237663Y-91298600D01*
X138866900Y-91806161D02*
X138866900Y-91512900D01*
X137237663Y-91298600D02*
X133342479Y-87403416D01*
X146570000Y-94880000D02*
X142988600Y-91298600D01*
X133335217Y-87403416D02*
X132500800Y-86568999D01*
X133342479Y-87403416D02*
X133335217Y-87403416D01*
X140209900Y-90627100D02*
X140209900Y-91806161D01*
X132500800Y-86568999D02*
X132500799Y-79233099D01*
X132500799Y-79233099D02*
X131354200Y-78086500D01*
X142988600Y-91298600D02*
X141310000Y-91298600D01*
X140638549Y-90333851D02*
G75*
G03*
X140424200Y-90119551I-214349J-49D01*
G01*
X138866900Y-91512900D02*
G75*
G03*
X138652600Y-91298600I-214300J0D01*
G01*
X138866939Y-91806161D02*
G75*
G03*
X139538400Y-92477661I671461J-39D01*
G01*
X140638500Y-90627100D02*
G75*
G03*
X141310000Y-91298600I671500J0D01*
G01*
X139538400Y-92477700D02*
G75*
G03*
X140209900Y-91806161I0J671500D01*
G01*
X140424200Y-90119600D02*
G75*
G03*
X140209900Y-90333851I0J-214300D01*
G01*
%TO.N,/HS_Vdiff*%
X103662800Y-97497500D02*
X101035000Y-97497500D01*
X123073800Y-78086500D02*
X103662800Y-97497500D01*
%TO.N,/DATA_OUT_1_N*%
X155120700Y-100199300D02*
X155120700Y-99276234D01*
X150506800Y-83225000D02*
X149286600Y-82004800D01*
X154700000Y-100620000D02*
X155120700Y-100199300D01*
X158205700Y-93321234D02*
X158205700Y-90923900D01*
X155120700Y-99276234D02*
X156515700Y-97881234D01*
X158205700Y-90923900D02*
X150506800Y-83225000D01*
X156515700Y-97881234D02*
X156515700Y-95011234D01*
X156515700Y-95011234D02*
X158205700Y-93321234D01*
X149286600Y-82004800D02*
X149286600Y-75546500D01*
%TO.N,/DATA_OUT_0_N*%
X151229127Y-90765574D02*
X151229129Y-90765575D01*
X150643217Y-87593350D02*
X150501795Y-87451928D01*
X153148641Y-90098774D02*
X153007219Y-89957352D01*
X154706395Y-94153585D02*
X154706395Y-92949685D01*
X149976415Y-89512862D02*
X149976417Y-89512863D01*
X154359991Y-94499989D02*
X154706395Y-94153585D01*
X154706395Y-92949685D02*
X153613354Y-91856643D01*
X153451710Y-91856643D02*
X153451710Y-91856644D01*
X149834994Y-88563217D02*
X150643217Y-87754994D01*
X153451710Y-91856644D02*
X153290064Y-92018287D01*
X152340419Y-91068642D02*
X153148641Y-90260418D01*
X152603108Y-90199818D02*
X152037353Y-90765576D01*
X151087708Y-89815930D02*
X151087706Y-89815929D01*
X151229129Y-90765575D02*
X151087707Y-90624153D01*
X151895929Y-88846062D02*
X151754507Y-88704640D01*
X149976417Y-89512863D02*
X149834995Y-89371441D01*
X143749400Y-81992690D02*
X143749400Y-75546500D01*
X149370283Y-87613572D02*
X143749400Y-81992690D01*
X151592863Y-88704640D02*
X151350396Y-88947106D01*
X151350396Y-88947106D02*
X150784641Y-89512864D01*
X152481841Y-92018288D02*
X152481842Y-92018288D01*
X149834996Y-88563218D02*
X149834994Y-88563217D01*
X150340151Y-87451928D02*
X150178506Y-87613572D01*
X149370283Y-87613573D02*
X149370283Y-87613572D01*
X152845575Y-89957352D02*
X152603108Y-90199818D01*
X152481842Y-92018288D02*
X152340420Y-91876866D01*
X151087706Y-89815929D02*
X151895929Y-89007706D01*
X152340421Y-91068643D02*
X152340419Y-91068642D01*
X153007218Y-89957353D02*
G75*
G03*
X152845576Y-89957353I-80821J-80820D01*
G01*
X149370289Y-87613567D02*
G75*
G03*
X150178506Y-87613572I404111J404067D01*
G01*
X152481889Y-92018240D02*
G75*
G03*
X153290064Y-92018287I404111J404040D01*
G01*
X151754506Y-88704641D02*
G75*
G03*
X151592864Y-88704641I-80821J-80820D01*
G01*
X153148644Y-90260421D02*
G75*
G03*
X153148640Y-90098775I-80844J80821D01*
G01*
X151087666Y-89815888D02*
G75*
G03*
X151087707Y-90624153I404134J-404112D01*
G01*
X150501794Y-87451929D02*
G75*
G03*
X150340152Y-87451929I-80821J-80820D01*
G01*
X149834966Y-88563188D02*
G75*
G03*
X149834995Y-89371441I404134J-404112D01*
G01*
X151895944Y-89007721D02*
G75*
G03*
X151895928Y-88846063I-80844J80821D01*
G01*
X149976387Y-89512890D02*
G75*
G03*
X150784640Y-89512863I404113J404190D01*
G01*
X152340466Y-91068688D02*
G75*
G03*
X152340420Y-91876866I404034J-404112D01*
G01*
X151229086Y-90765615D02*
G75*
G03*
X152037353Y-90765576I404114J404115D01*
G01*
X150643244Y-87755021D02*
G75*
G03*
X150643216Y-87593351I-80844J80821D01*
G01*
X153613353Y-91856644D02*
G75*
G03*
X153451711Y-91856644I-80821J-80820D01*
G01*
%TO.N,/SACI_CMD_P*%
X130300000Y-78906252D02*
X130292689Y-78898941D01*
X130288464Y-87344826D02*
X130288464Y-85779736D01*
X130908583Y-77010689D02*
X130928807Y-77010689D01*
X131468702Y-75750197D02*
X131672399Y-75546500D01*
X130278389Y-78532117D02*
X130278389Y-77640883D01*
X124850000Y-94630000D02*
X124533601Y-94313601D01*
X130292689Y-78898941D02*
X130292689Y-78546417D01*
X130300000Y-85768200D02*
X130300000Y-78906252D01*
X124533601Y-93099689D02*
X130288464Y-87344826D01*
X131468702Y-76470794D02*
X131468702Y-75750197D01*
X130292689Y-78546417D02*
X130278389Y-78532117D01*
X130288464Y-85779736D02*
X130300000Y-85768200D01*
X131672399Y-75546500D02*
X132725800Y-75546500D01*
X130278389Y-77640883D02*
X130908583Y-77010689D01*
X130928807Y-77010689D02*
X131468702Y-76470794D01*
X124533601Y-94313601D02*
X124533601Y-93099689D01*
%TO.N,/SACI_CLK_P*%
X118173596Y-88809694D02*
X124729634Y-82253656D01*
X126135199Y-75546500D02*
X127188600Y-75546500D01*
X124729634Y-79339500D02*
X124741189Y-79327945D01*
X124729634Y-82253656D02*
X124729634Y-79339500D01*
X118489990Y-94620000D02*
X118173596Y-94303606D01*
X125371383Y-77010689D02*
X125391607Y-77010689D01*
X124741189Y-79327945D02*
X124741189Y-77640883D01*
X124741189Y-77640883D02*
X125371383Y-77010689D01*
X125956902Y-75724797D02*
X126135199Y-75546500D01*
X118173596Y-94303606D02*
X118173596Y-88809694D01*
X125391607Y-77010689D02*
X125956902Y-76445394D01*
X125956902Y-76445394D02*
X125956902Y-75724797D01*
%TO.N,/ADC_MON_VIN_P*%
X118908200Y-75546500D02*
X118423500Y-75546500D01*
X103050000Y-89850000D02*
X101035000Y-91865000D01*
X101035000Y-91865000D02*
X101035000Y-92417500D01*
X118423500Y-75546500D02*
X116460789Y-77509211D01*
X116460789Y-81157411D02*
X107768200Y-89850000D01*
X107768200Y-89850000D02*
X103050000Y-89850000D01*
X116460789Y-77509211D02*
X116460789Y-81157411D01*
%TO.N,/SACI_RESP_N*%
X142237898Y-73146402D02*
X142377800Y-73006500D01*
X142377800Y-73006500D02*
X142377800Y-73027800D01*
%TO.N,/SACI_CMD_N*%
X124076399Y-92910311D02*
X129831264Y-87155446D01*
X129850000Y-77453113D02*
X131018711Y-76284402D01*
X131018711Y-76284402D02*
X131018711Y-76006417D01*
X129850000Y-85581800D02*
X129850000Y-77453113D01*
X131354200Y-75228301D02*
X131354200Y-73006500D01*
X124076399Y-94313601D02*
X124076399Y-92910311D01*
X131033011Y-75549490D02*
X131354200Y-75228301D01*
X131018711Y-76006417D02*
X131033011Y-75992117D01*
X123770000Y-94620000D02*
X124076399Y-94313601D01*
X129831264Y-85600536D02*
X129850000Y-85581800D01*
X131033011Y-75992117D02*
X131033011Y-75549490D01*
X129831264Y-87155446D02*
X129831264Y-85600536D01*
%TO.N,/SACI_CLK_N*%
X124305498Y-77460415D02*
X125506911Y-76259002D01*
X117716394Y-94303606D02*
X117716394Y-88620316D01*
X125506911Y-76259002D02*
X125506911Y-76006417D01*
X125521211Y-75992117D02*
X125521211Y-75524090D01*
X117400000Y-94620000D02*
X117716394Y-94303606D01*
X125521211Y-75524090D02*
X125817000Y-75228301D01*
X124272434Y-82064276D02*
X124272434Y-78745650D01*
X125817000Y-75228301D02*
X125817000Y-73006500D01*
X117716394Y-88620316D02*
X124272434Y-82064276D01*
X124305498Y-78712586D02*
X124305498Y-77460415D01*
X124272434Y-78745650D02*
X124305498Y-78712586D01*
X125506911Y-76006417D02*
X125521211Y-75992117D01*
%TO.N,/ADC_MON_VCOM*%
X102650000Y-91275000D02*
X102650000Y-92650000D01*
X120305200Y-73006500D02*
X120305200Y-76044800D01*
X102650000Y-92650000D02*
X101525000Y-93775000D01*
X99675000Y-93475000D02*
X99675000Y-91237500D01*
X108225000Y-90475000D02*
X103450000Y-90475000D01*
X118875000Y-79825000D02*
X108225000Y-90475000D01*
X99975000Y-93775000D02*
X99675000Y-93475000D01*
X101525000Y-93775000D02*
X99975000Y-93775000D01*
X118875000Y-77475000D02*
X118875000Y-79825000D01*
X120305200Y-76044800D02*
X118875000Y-77475000D01*
X103450000Y-90475000D02*
X102650000Y-91275000D01*
X99675000Y-91237500D02*
X101035000Y-89877500D01*
%TO.N,/ADC_MON_VIN_N*%
X117536600Y-75793400D02*
X116010000Y-77320000D01*
X117536600Y-73006500D02*
X117536600Y-75793400D01*
X116010000Y-80971800D02*
X109644300Y-87337500D01*
X109644300Y-87337500D02*
X101035000Y-87337500D01*
X116010000Y-77320000D02*
X116010000Y-80971800D01*
%TD*%
D26*
X190480000Y-68510000D02*
X190480000Y-114600000D01*
X190480000Y-114600000D02*
X88130000Y-114600000D01*
X88130000Y-114600000D02*
X88130000Y-68510000D01*
X88130000Y-68510000D02*
X162400000Y-68510000D01*
X162400000Y-68510000D02*
X190480000Y-68510000D01*
M02*
