%TF.GenerationSoftware,KiCad,Pcbnew,7.0.7*%
%TF.CreationDate,2023-10-12T14:51:16-07:00*%
%TF.ProjectId,CableAdapterBoard,4361626c-6541-4646-9170-746572426f61,rev?*%
%TF.SameCoordinates,Original*%
%TF.FileFunction,Legend,Top*%
%TF.FilePolarity,Positive*%
%FSLAX46Y46*%
G04 Gerber Fmt 4.6, Leading zero omitted, Abs format (unit mm)*
G04 Created by KiCad (PCBNEW 7.0.7) date 2023-10-12 14:51:16*
%MOMM*%
%LPD*%
G01*
G04 APERTURE LIST*
%ADD10C,0.100000*%
%ADD11C,0.150000*%
%ADD12C,0.300000*%
%ADD13C,0.400000*%
%ADD14C,0.015000*%
%ADD15C,0.120000*%
%ADD16C,0.127000*%
%ADD17C,0.200000*%
%TA.AperFunction,Profile*%
%ADD18C,0.100000*%
%TD*%
G04 APERTURE END LIST*
D10*
D11*
X177002200Y-166007200D02*
X285002200Y-166007200D01*
X285002200Y-198007200D01*
X177002200Y-198007200D01*
X177002200Y-166007200D01*
D10*
D11*
X10000000Y-10000000D02*
X287002200Y-10000000D01*
X287002200Y-200007200D01*
X10000000Y-200007200D01*
X10000000Y-10000000D01*
D10*
D11*
X12000000Y-12000000D02*
X285002200Y-12000000D01*
X285002200Y-198007200D01*
X12000000Y-198007200D01*
X12000000Y-12000000D01*
D10*
D11*
X60000000Y-12000000D02*
X60000000Y-10000000D01*
D10*
D11*
X110000000Y-12000000D02*
X110000000Y-10000000D01*
D10*
D11*
X160000000Y-12000000D02*
X160000000Y-10000000D01*
D10*
D11*
X210000000Y-12000000D02*
X210000000Y-10000000D01*
D10*
D11*
X260000000Y-12000000D02*
X260000000Y-10000000D01*
D10*
D11*
X36089160Y-11593604D02*
X35346303Y-11593604D01*
X35717731Y-11593604D02*
X35717731Y-10293604D01*
X35717731Y-10293604D02*
X35593922Y-10479319D01*
X35593922Y-10479319D02*
X35470112Y-10603128D01*
X35470112Y-10603128D02*
X35346303Y-10665033D01*
D10*
D11*
X85346303Y-10417414D02*
X85408207Y-10355509D01*
X85408207Y-10355509D02*
X85532017Y-10293604D01*
X85532017Y-10293604D02*
X85841541Y-10293604D01*
X85841541Y-10293604D02*
X85965350Y-10355509D01*
X85965350Y-10355509D02*
X86027255Y-10417414D01*
X86027255Y-10417414D02*
X86089160Y-10541223D01*
X86089160Y-10541223D02*
X86089160Y-10665033D01*
X86089160Y-10665033D02*
X86027255Y-10850747D01*
X86027255Y-10850747D02*
X85284398Y-11593604D01*
X85284398Y-11593604D02*
X86089160Y-11593604D01*
D10*
D11*
X135284398Y-10293604D02*
X136089160Y-10293604D01*
X136089160Y-10293604D02*
X135655826Y-10788842D01*
X135655826Y-10788842D02*
X135841541Y-10788842D01*
X135841541Y-10788842D02*
X135965350Y-10850747D01*
X135965350Y-10850747D02*
X136027255Y-10912652D01*
X136027255Y-10912652D02*
X136089160Y-11036461D01*
X136089160Y-11036461D02*
X136089160Y-11345985D01*
X136089160Y-11345985D02*
X136027255Y-11469795D01*
X136027255Y-11469795D02*
X135965350Y-11531700D01*
X135965350Y-11531700D02*
X135841541Y-11593604D01*
X135841541Y-11593604D02*
X135470112Y-11593604D01*
X135470112Y-11593604D02*
X135346303Y-11531700D01*
X135346303Y-11531700D02*
X135284398Y-11469795D01*
D10*
D11*
X185965350Y-10726938D02*
X185965350Y-11593604D01*
X185655826Y-10231700D02*
X185346303Y-11160271D01*
X185346303Y-11160271D02*
X186151064Y-11160271D01*
D10*
D11*
X236027255Y-10293604D02*
X235408207Y-10293604D01*
X235408207Y-10293604D02*
X235346303Y-10912652D01*
X235346303Y-10912652D02*
X235408207Y-10850747D01*
X235408207Y-10850747D02*
X235532017Y-10788842D01*
X235532017Y-10788842D02*
X235841541Y-10788842D01*
X235841541Y-10788842D02*
X235965350Y-10850747D01*
X235965350Y-10850747D02*
X236027255Y-10912652D01*
X236027255Y-10912652D02*
X236089160Y-11036461D01*
X236089160Y-11036461D02*
X236089160Y-11345985D01*
X236089160Y-11345985D02*
X236027255Y-11469795D01*
X236027255Y-11469795D02*
X235965350Y-11531700D01*
X235965350Y-11531700D02*
X235841541Y-11593604D01*
X235841541Y-11593604D02*
X235532017Y-11593604D01*
X235532017Y-11593604D02*
X235408207Y-11531700D01*
X235408207Y-11531700D02*
X235346303Y-11469795D01*
D10*
D11*
X285965350Y-10293604D02*
X285717731Y-10293604D01*
X285717731Y-10293604D02*
X285593922Y-10355509D01*
X285593922Y-10355509D02*
X285532017Y-10417414D01*
X285532017Y-10417414D02*
X285408207Y-10603128D01*
X285408207Y-10603128D02*
X285346303Y-10850747D01*
X285346303Y-10850747D02*
X285346303Y-11345985D01*
X285346303Y-11345985D02*
X285408207Y-11469795D01*
X285408207Y-11469795D02*
X285470112Y-11531700D01*
X285470112Y-11531700D02*
X285593922Y-11593604D01*
X285593922Y-11593604D02*
X285841541Y-11593604D01*
X285841541Y-11593604D02*
X285965350Y-11531700D01*
X285965350Y-11531700D02*
X286027255Y-11469795D01*
X286027255Y-11469795D02*
X286089160Y-11345985D01*
X286089160Y-11345985D02*
X286089160Y-11036461D01*
X286089160Y-11036461D02*
X286027255Y-10912652D01*
X286027255Y-10912652D02*
X285965350Y-10850747D01*
X285965350Y-10850747D02*
X285841541Y-10788842D01*
X285841541Y-10788842D02*
X285593922Y-10788842D01*
X285593922Y-10788842D02*
X285470112Y-10850747D01*
X285470112Y-10850747D02*
X285408207Y-10912652D01*
X285408207Y-10912652D02*
X285346303Y-11036461D01*
D10*
D11*
X60000000Y-198007200D02*
X60000000Y-200007200D01*
D10*
D11*
X110000000Y-198007200D02*
X110000000Y-200007200D01*
D10*
D11*
X160000000Y-198007200D02*
X160000000Y-200007200D01*
D10*
D11*
X210000000Y-198007200D02*
X210000000Y-200007200D01*
D10*
D11*
X260000000Y-198007200D02*
X260000000Y-200007200D01*
D10*
D11*
X36089160Y-199600804D02*
X35346303Y-199600804D01*
X35717731Y-199600804D02*
X35717731Y-198300804D01*
X35717731Y-198300804D02*
X35593922Y-198486519D01*
X35593922Y-198486519D02*
X35470112Y-198610328D01*
X35470112Y-198610328D02*
X35346303Y-198672233D01*
D10*
D11*
X85346303Y-198424614D02*
X85408207Y-198362709D01*
X85408207Y-198362709D02*
X85532017Y-198300804D01*
X85532017Y-198300804D02*
X85841541Y-198300804D01*
X85841541Y-198300804D02*
X85965350Y-198362709D01*
X85965350Y-198362709D02*
X86027255Y-198424614D01*
X86027255Y-198424614D02*
X86089160Y-198548423D01*
X86089160Y-198548423D02*
X86089160Y-198672233D01*
X86089160Y-198672233D02*
X86027255Y-198857947D01*
X86027255Y-198857947D02*
X85284398Y-199600804D01*
X85284398Y-199600804D02*
X86089160Y-199600804D01*
D10*
D11*
X135284398Y-198300804D02*
X136089160Y-198300804D01*
X136089160Y-198300804D02*
X135655826Y-198796042D01*
X135655826Y-198796042D02*
X135841541Y-198796042D01*
X135841541Y-198796042D02*
X135965350Y-198857947D01*
X135965350Y-198857947D02*
X136027255Y-198919852D01*
X136027255Y-198919852D02*
X136089160Y-199043661D01*
X136089160Y-199043661D02*
X136089160Y-199353185D01*
X136089160Y-199353185D02*
X136027255Y-199476995D01*
X136027255Y-199476995D02*
X135965350Y-199538900D01*
X135965350Y-199538900D02*
X135841541Y-199600804D01*
X135841541Y-199600804D02*
X135470112Y-199600804D01*
X135470112Y-199600804D02*
X135346303Y-199538900D01*
X135346303Y-199538900D02*
X135284398Y-199476995D01*
D10*
D11*
X185965350Y-198734138D02*
X185965350Y-199600804D01*
X185655826Y-198238900D02*
X185346303Y-199167471D01*
X185346303Y-199167471D02*
X186151064Y-199167471D01*
D10*
D11*
X236027255Y-198300804D02*
X235408207Y-198300804D01*
X235408207Y-198300804D02*
X235346303Y-198919852D01*
X235346303Y-198919852D02*
X235408207Y-198857947D01*
X235408207Y-198857947D02*
X235532017Y-198796042D01*
X235532017Y-198796042D02*
X235841541Y-198796042D01*
X235841541Y-198796042D02*
X235965350Y-198857947D01*
X235965350Y-198857947D02*
X236027255Y-198919852D01*
X236027255Y-198919852D02*
X236089160Y-199043661D01*
X236089160Y-199043661D02*
X236089160Y-199353185D01*
X236089160Y-199353185D02*
X236027255Y-199476995D01*
X236027255Y-199476995D02*
X235965350Y-199538900D01*
X235965350Y-199538900D02*
X235841541Y-199600804D01*
X235841541Y-199600804D02*
X235532017Y-199600804D01*
X235532017Y-199600804D02*
X235408207Y-199538900D01*
X235408207Y-199538900D02*
X235346303Y-199476995D01*
D10*
D11*
X285965350Y-198300804D02*
X285717731Y-198300804D01*
X285717731Y-198300804D02*
X285593922Y-198362709D01*
X285593922Y-198362709D02*
X285532017Y-198424614D01*
X285532017Y-198424614D02*
X285408207Y-198610328D01*
X285408207Y-198610328D02*
X285346303Y-198857947D01*
X285346303Y-198857947D02*
X285346303Y-199353185D01*
X285346303Y-199353185D02*
X285408207Y-199476995D01*
X285408207Y-199476995D02*
X285470112Y-199538900D01*
X285470112Y-199538900D02*
X285593922Y-199600804D01*
X285593922Y-199600804D02*
X285841541Y-199600804D01*
X285841541Y-199600804D02*
X285965350Y-199538900D01*
X285965350Y-199538900D02*
X286027255Y-199476995D01*
X286027255Y-199476995D02*
X286089160Y-199353185D01*
X286089160Y-199353185D02*
X286089160Y-199043661D01*
X286089160Y-199043661D02*
X286027255Y-198919852D01*
X286027255Y-198919852D02*
X285965350Y-198857947D01*
X285965350Y-198857947D02*
X285841541Y-198796042D01*
X285841541Y-198796042D02*
X285593922Y-198796042D01*
X285593922Y-198796042D02*
X285470112Y-198857947D01*
X285470112Y-198857947D02*
X285408207Y-198919852D01*
X285408207Y-198919852D02*
X285346303Y-199043661D01*
D10*
D11*
X10000000Y-60000000D02*
X12000000Y-60000000D01*
D10*
D11*
X10000000Y-110000000D02*
X12000000Y-110000000D01*
D10*
D11*
X10000000Y-160000000D02*
X12000000Y-160000000D01*
D10*
D11*
X10690476Y-35222176D02*
X11309523Y-35222176D01*
X10566666Y-35593604D02*
X10999999Y-34293604D01*
X10999999Y-34293604D02*
X11433333Y-35593604D01*
D10*
D11*
X11092857Y-84912652D02*
X11278571Y-84974557D01*
X11278571Y-84974557D02*
X11340476Y-85036461D01*
X11340476Y-85036461D02*
X11402380Y-85160271D01*
X11402380Y-85160271D02*
X11402380Y-85345985D01*
X11402380Y-85345985D02*
X11340476Y-85469795D01*
X11340476Y-85469795D02*
X11278571Y-85531700D01*
X11278571Y-85531700D02*
X11154761Y-85593604D01*
X11154761Y-85593604D02*
X10659523Y-85593604D01*
X10659523Y-85593604D02*
X10659523Y-84293604D01*
X10659523Y-84293604D02*
X11092857Y-84293604D01*
X11092857Y-84293604D02*
X11216666Y-84355509D01*
X11216666Y-84355509D02*
X11278571Y-84417414D01*
X11278571Y-84417414D02*
X11340476Y-84541223D01*
X11340476Y-84541223D02*
X11340476Y-84665033D01*
X11340476Y-84665033D02*
X11278571Y-84788842D01*
X11278571Y-84788842D02*
X11216666Y-84850747D01*
X11216666Y-84850747D02*
X11092857Y-84912652D01*
X11092857Y-84912652D02*
X10659523Y-84912652D01*
D10*
D11*
X11402380Y-135469795D02*
X11340476Y-135531700D01*
X11340476Y-135531700D02*
X11154761Y-135593604D01*
X11154761Y-135593604D02*
X11030952Y-135593604D01*
X11030952Y-135593604D02*
X10845238Y-135531700D01*
X10845238Y-135531700D02*
X10721428Y-135407890D01*
X10721428Y-135407890D02*
X10659523Y-135284080D01*
X10659523Y-135284080D02*
X10597619Y-135036461D01*
X10597619Y-135036461D02*
X10597619Y-134850747D01*
X10597619Y-134850747D02*
X10659523Y-134603128D01*
X10659523Y-134603128D02*
X10721428Y-134479319D01*
X10721428Y-134479319D02*
X10845238Y-134355509D01*
X10845238Y-134355509D02*
X11030952Y-134293604D01*
X11030952Y-134293604D02*
X11154761Y-134293604D01*
X11154761Y-134293604D02*
X11340476Y-134355509D01*
X11340476Y-134355509D02*
X11402380Y-134417414D01*
D10*
D11*
X10659523Y-185593604D02*
X10659523Y-184293604D01*
X10659523Y-184293604D02*
X10969047Y-184293604D01*
X10969047Y-184293604D02*
X11154761Y-184355509D01*
X11154761Y-184355509D02*
X11278571Y-184479319D01*
X11278571Y-184479319D02*
X11340476Y-184603128D01*
X11340476Y-184603128D02*
X11402380Y-184850747D01*
X11402380Y-184850747D02*
X11402380Y-185036461D01*
X11402380Y-185036461D02*
X11340476Y-185284080D01*
X11340476Y-185284080D02*
X11278571Y-185407890D01*
X11278571Y-185407890D02*
X11154761Y-185531700D01*
X11154761Y-185531700D02*
X10969047Y-185593604D01*
X10969047Y-185593604D02*
X10659523Y-185593604D01*
D10*
D11*
X287002200Y-60000000D02*
X285002200Y-60000000D01*
D10*
D11*
X287002200Y-110000000D02*
X285002200Y-110000000D01*
D10*
D11*
X287002200Y-160000000D02*
X285002200Y-160000000D01*
D10*
D11*
X285692676Y-35222176D02*
X286311723Y-35222176D01*
X285568866Y-35593604D02*
X286002199Y-34293604D01*
X286002199Y-34293604D02*
X286435533Y-35593604D01*
D10*
D11*
X286095057Y-84912652D02*
X286280771Y-84974557D01*
X286280771Y-84974557D02*
X286342676Y-85036461D01*
X286342676Y-85036461D02*
X286404580Y-85160271D01*
X286404580Y-85160271D02*
X286404580Y-85345985D01*
X286404580Y-85345985D02*
X286342676Y-85469795D01*
X286342676Y-85469795D02*
X286280771Y-85531700D01*
X286280771Y-85531700D02*
X286156961Y-85593604D01*
X286156961Y-85593604D02*
X285661723Y-85593604D01*
X285661723Y-85593604D02*
X285661723Y-84293604D01*
X285661723Y-84293604D02*
X286095057Y-84293604D01*
X286095057Y-84293604D02*
X286218866Y-84355509D01*
X286218866Y-84355509D02*
X286280771Y-84417414D01*
X286280771Y-84417414D02*
X286342676Y-84541223D01*
X286342676Y-84541223D02*
X286342676Y-84665033D01*
X286342676Y-84665033D02*
X286280771Y-84788842D01*
X286280771Y-84788842D02*
X286218866Y-84850747D01*
X286218866Y-84850747D02*
X286095057Y-84912652D01*
X286095057Y-84912652D02*
X285661723Y-84912652D01*
D10*
D11*
X286404580Y-135469795D02*
X286342676Y-135531700D01*
X286342676Y-135531700D02*
X286156961Y-135593604D01*
X286156961Y-135593604D02*
X286033152Y-135593604D01*
X286033152Y-135593604D02*
X285847438Y-135531700D01*
X285847438Y-135531700D02*
X285723628Y-135407890D01*
X285723628Y-135407890D02*
X285661723Y-135284080D01*
X285661723Y-135284080D02*
X285599819Y-135036461D01*
X285599819Y-135036461D02*
X285599819Y-134850747D01*
X285599819Y-134850747D02*
X285661723Y-134603128D01*
X285661723Y-134603128D02*
X285723628Y-134479319D01*
X285723628Y-134479319D02*
X285847438Y-134355509D01*
X285847438Y-134355509D02*
X286033152Y-134293604D01*
X286033152Y-134293604D02*
X286156961Y-134293604D01*
X286156961Y-134293604D02*
X286342676Y-134355509D01*
X286342676Y-134355509D02*
X286404580Y-134417414D01*
D10*
D11*
X285661723Y-185593604D02*
X285661723Y-184293604D01*
X285661723Y-184293604D02*
X285971247Y-184293604D01*
X285971247Y-184293604D02*
X286156961Y-184355509D01*
X286156961Y-184355509D02*
X286280771Y-184479319D01*
X286280771Y-184479319D02*
X286342676Y-184603128D01*
X286342676Y-184603128D02*
X286404580Y-184850747D01*
X286404580Y-184850747D02*
X286404580Y-185036461D01*
X286404580Y-185036461D02*
X286342676Y-185284080D01*
X286342676Y-185284080D02*
X286280771Y-185407890D01*
X286280771Y-185407890D02*
X286156961Y-185531700D01*
X286156961Y-185531700D02*
X285971247Y-185593604D01*
X285971247Y-185593604D02*
X285661723Y-185593604D01*
D10*
D11*
X200458026Y-193793328D02*
X200458026Y-192293328D01*
X200458026Y-192293328D02*
X200815169Y-192293328D01*
X200815169Y-192293328D02*
X201029455Y-192364757D01*
X201029455Y-192364757D02*
X201172312Y-192507614D01*
X201172312Y-192507614D02*
X201243741Y-192650471D01*
X201243741Y-192650471D02*
X201315169Y-192936185D01*
X201315169Y-192936185D02*
X201315169Y-193150471D01*
X201315169Y-193150471D02*
X201243741Y-193436185D01*
X201243741Y-193436185D02*
X201172312Y-193579042D01*
X201172312Y-193579042D02*
X201029455Y-193721900D01*
X201029455Y-193721900D02*
X200815169Y-193793328D01*
X200815169Y-193793328D02*
X200458026Y-193793328D01*
X202600884Y-193793328D02*
X202600884Y-193007614D01*
X202600884Y-193007614D02*
X202529455Y-192864757D01*
X202529455Y-192864757D02*
X202386598Y-192793328D01*
X202386598Y-192793328D02*
X202100884Y-192793328D01*
X202100884Y-192793328D02*
X201958026Y-192864757D01*
X202600884Y-193721900D02*
X202458026Y-193793328D01*
X202458026Y-193793328D02*
X202100884Y-193793328D01*
X202100884Y-193793328D02*
X201958026Y-193721900D01*
X201958026Y-193721900D02*
X201886598Y-193579042D01*
X201886598Y-193579042D02*
X201886598Y-193436185D01*
X201886598Y-193436185D02*
X201958026Y-193293328D01*
X201958026Y-193293328D02*
X202100884Y-193221900D01*
X202100884Y-193221900D02*
X202458026Y-193221900D01*
X202458026Y-193221900D02*
X202600884Y-193150471D01*
X203100884Y-192793328D02*
X203672312Y-192793328D01*
X203315169Y-192293328D02*
X203315169Y-193579042D01*
X203315169Y-193579042D02*
X203386598Y-193721900D01*
X203386598Y-193721900D02*
X203529455Y-193793328D01*
X203529455Y-193793328D02*
X203672312Y-193793328D01*
X204743741Y-193721900D02*
X204600884Y-193793328D01*
X204600884Y-193793328D02*
X204315170Y-193793328D01*
X204315170Y-193793328D02*
X204172312Y-193721900D01*
X204172312Y-193721900D02*
X204100884Y-193579042D01*
X204100884Y-193579042D02*
X204100884Y-193007614D01*
X204100884Y-193007614D02*
X204172312Y-192864757D01*
X204172312Y-192864757D02*
X204315170Y-192793328D01*
X204315170Y-192793328D02*
X204600884Y-192793328D01*
X204600884Y-192793328D02*
X204743741Y-192864757D01*
X204743741Y-192864757D02*
X204815170Y-193007614D01*
X204815170Y-193007614D02*
X204815170Y-193150471D01*
X204815170Y-193150471D02*
X204100884Y-193293328D01*
X205458026Y-193650471D02*
X205529455Y-193721900D01*
X205529455Y-193721900D02*
X205458026Y-193793328D01*
X205458026Y-193793328D02*
X205386598Y-193721900D01*
X205386598Y-193721900D02*
X205458026Y-193650471D01*
X205458026Y-193650471D02*
X205458026Y-193793328D01*
X205458026Y-192864757D02*
X205529455Y-192936185D01*
X205529455Y-192936185D02*
X205458026Y-193007614D01*
X205458026Y-193007614D02*
X205386598Y-192936185D01*
X205386598Y-192936185D02*
X205458026Y-192864757D01*
X205458026Y-192864757D02*
X205458026Y-193007614D01*
D10*
D11*
X177002200Y-194507200D02*
X285002200Y-194507200D01*
D10*
D11*
X178458026Y-196593328D02*
X178458026Y-195093328D01*
X179315169Y-196593328D02*
X178672312Y-195736185D01*
X179315169Y-195093328D02*
X178458026Y-195950471D01*
X179958026Y-196593328D02*
X179958026Y-195593328D01*
X179958026Y-195093328D02*
X179886598Y-195164757D01*
X179886598Y-195164757D02*
X179958026Y-195236185D01*
X179958026Y-195236185D02*
X180029455Y-195164757D01*
X180029455Y-195164757D02*
X179958026Y-195093328D01*
X179958026Y-195093328D02*
X179958026Y-195236185D01*
X181529455Y-196450471D02*
X181458027Y-196521900D01*
X181458027Y-196521900D02*
X181243741Y-196593328D01*
X181243741Y-196593328D02*
X181100884Y-196593328D01*
X181100884Y-196593328D02*
X180886598Y-196521900D01*
X180886598Y-196521900D02*
X180743741Y-196379042D01*
X180743741Y-196379042D02*
X180672312Y-196236185D01*
X180672312Y-196236185D02*
X180600884Y-195950471D01*
X180600884Y-195950471D02*
X180600884Y-195736185D01*
X180600884Y-195736185D02*
X180672312Y-195450471D01*
X180672312Y-195450471D02*
X180743741Y-195307614D01*
X180743741Y-195307614D02*
X180886598Y-195164757D01*
X180886598Y-195164757D02*
X181100884Y-195093328D01*
X181100884Y-195093328D02*
X181243741Y-195093328D01*
X181243741Y-195093328D02*
X181458027Y-195164757D01*
X181458027Y-195164757D02*
X181529455Y-195236185D01*
X182815170Y-196593328D02*
X182815170Y-195807614D01*
X182815170Y-195807614D02*
X182743741Y-195664757D01*
X182743741Y-195664757D02*
X182600884Y-195593328D01*
X182600884Y-195593328D02*
X182315170Y-195593328D01*
X182315170Y-195593328D02*
X182172312Y-195664757D01*
X182815170Y-196521900D02*
X182672312Y-196593328D01*
X182672312Y-196593328D02*
X182315170Y-196593328D01*
X182315170Y-196593328D02*
X182172312Y-196521900D01*
X182172312Y-196521900D02*
X182100884Y-196379042D01*
X182100884Y-196379042D02*
X182100884Y-196236185D01*
X182100884Y-196236185D02*
X182172312Y-196093328D01*
X182172312Y-196093328D02*
X182315170Y-196021900D01*
X182315170Y-196021900D02*
X182672312Y-196021900D01*
X182672312Y-196021900D02*
X182815170Y-195950471D01*
X184172313Y-196593328D02*
X184172313Y-195093328D01*
X184172313Y-196521900D02*
X184029455Y-196593328D01*
X184029455Y-196593328D02*
X183743741Y-196593328D01*
X183743741Y-196593328D02*
X183600884Y-196521900D01*
X183600884Y-196521900D02*
X183529455Y-196450471D01*
X183529455Y-196450471D02*
X183458027Y-196307614D01*
X183458027Y-196307614D02*
X183458027Y-195879042D01*
X183458027Y-195879042D02*
X183529455Y-195736185D01*
X183529455Y-195736185D02*
X183600884Y-195664757D01*
X183600884Y-195664757D02*
X183743741Y-195593328D01*
X183743741Y-195593328D02*
X184029455Y-195593328D01*
X184029455Y-195593328D02*
X184172313Y-195664757D01*
X186029455Y-195807614D02*
X186529455Y-195807614D01*
X186743741Y-196593328D02*
X186029455Y-196593328D01*
X186029455Y-196593328D02*
X186029455Y-195093328D01*
X186029455Y-195093328D02*
X186743741Y-195093328D01*
X187386598Y-196450471D02*
X187458027Y-196521900D01*
X187458027Y-196521900D02*
X187386598Y-196593328D01*
X187386598Y-196593328D02*
X187315170Y-196521900D01*
X187315170Y-196521900D02*
X187386598Y-196450471D01*
X187386598Y-196450471D02*
X187386598Y-196593328D01*
X188100884Y-196593328D02*
X188100884Y-195093328D01*
X188100884Y-195093328D02*
X188458027Y-195093328D01*
X188458027Y-195093328D02*
X188672313Y-195164757D01*
X188672313Y-195164757D02*
X188815170Y-195307614D01*
X188815170Y-195307614D02*
X188886599Y-195450471D01*
X188886599Y-195450471D02*
X188958027Y-195736185D01*
X188958027Y-195736185D02*
X188958027Y-195950471D01*
X188958027Y-195950471D02*
X188886599Y-196236185D01*
X188886599Y-196236185D02*
X188815170Y-196379042D01*
X188815170Y-196379042D02*
X188672313Y-196521900D01*
X188672313Y-196521900D02*
X188458027Y-196593328D01*
X188458027Y-196593328D02*
X188100884Y-196593328D01*
X189600884Y-196450471D02*
X189672313Y-196521900D01*
X189672313Y-196521900D02*
X189600884Y-196593328D01*
X189600884Y-196593328D02*
X189529456Y-196521900D01*
X189529456Y-196521900D02*
X189600884Y-196450471D01*
X189600884Y-196450471D02*
X189600884Y-196593328D01*
X190243742Y-196164757D02*
X190958028Y-196164757D01*
X190100885Y-196593328D02*
X190600885Y-195093328D01*
X190600885Y-195093328D02*
X191100885Y-196593328D01*
X191600884Y-196450471D02*
X191672313Y-196521900D01*
X191672313Y-196521900D02*
X191600884Y-196593328D01*
X191600884Y-196593328D02*
X191529456Y-196521900D01*
X191529456Y-196521900D02*
X191600884Y-196450471D01*
X191600884Y-196450471D02*
X191600884Y-196593328D01*
X194600884Y-196593328D02*
X194600884Y-195093328D01*
X194743742Y-196021900D02*
X195172313Y-196593328D01*
X195172313Y-195593328D02*
X194600884Y-196164757D01*
X195815170Y-196593328D02*
X195815170Y-195593328D01*
X195815170Y-195093328D02*
X195743742Y-195164757D01*
X195743742Y-195164757D02*
X195815170Y-195236185D01*
X195815170Y-195236185D02*
X195886599Y-195164757D01*
X195886599Y-195164757D02*
X195815170Y-195093328D01*
X195815170Y-195093328D02*
X195815170Y-195236185D01*
X197172314Y-196521900D02*
X197029456Y-196593328D01*
X197029456Y-196593328D02*
X196743742Y-196593328D01*
X196743742Y-196593328D02*
X196600885Y-196521900D01*
X196600885Y-196521900D02*
X196529456Y-196450471D01*
X196529456Y-196450471D02*
X196458028Y-196307614D01*
X196458028Y-196307614D02*
X196458028Y-195879042D01*
X196458028Y-195879042D02*
X196529456Y-195736185D01*
X196529456Y-195736185D02*
X196600885Y-195664757D01*
X196600885Y-195664757D02*
X196743742Y-195593328D01*
X196743742Y-195593328D02*
X197029456Y-195593328D01*
X197029456Y-195593328D02*
X197172314Y-195664757D01*
X198458028Y-196593328D02*
X198458028Y-195807614D01*
X198458028Y-195807614D02*
X198386599Y-195664757D01*
X198386599Y-195664757D02*
X198243742Y-195593328D01*
X198243742Y-195593328D02*
X197958028Y-195593328D01*
X197958028Y-195593328D02*
X197815170Y-195664757D01*
X198458028Y-196521900D02*
X198315170Y-196593328D01*
X198315170Y-196593328D02*
X197958028Y-196593328D01*
X197958028Y-196593328D02*
X197815170Y-196521900D01*
X197815170Y-196521900D02*
X197743742Y-196379042D01*
X197743742Y-196379042D02*
X197743742Y-196236185D01*
X197743742Y-196236185D02*
X197815170Y-196093328D01*
X197815170Y-196093328D02*
X197958028Y-196021900D01*
X197958028Y-196021900D02*
X198315170Y-196021900D01*
X198315170Y-196021900D02*
X198458028Y-195950471D01*
X199815171Y-196593328D02*
X199815171Y-195093328D01*
X199815171Y-196521900D02*
X199672313Y-196593328D01*
X199672313Y-196593328D02*
X199386599Y-196593328D01*
X199386599Y-196593328D02*
X199243742Y-196521900D01*
X199243742Y-196521900D02*
X199172313Y-196450471D01*
X199172313Y-196450471D02*
X199100885Y-196307614D01*
X199100885Y-196307614D02*
X199100885Y-195879042D01*
X199100885Y-195879042D02*
X199172313Y-195736185D01*
X199172313Y-195736185D02*
X199243742Y-195664757D01*
X199243742Y-195664757D02*
X199386599Y-195593328D01*
X199386599Y-195593328D02*
X199672313Y-195593328D01*
X199672313Y-195593328D02*
X199815171Y-195664757D01*
X201529456Y-195093328D02*
X202529456Y-195093328D01*
X202529456Y-195093328D02*
X201886599Y-196593328D01*
X203100884Y-196450471D02*
X203172313Y-196521900D01*
X203172313Y-196521900D02*
X203100884Y-196593328D01*
X203100884Y-196593328D02*
X203029456Y-196521900D01*
X203029456Y-196521900D02*
X203100884Y-196450471D01*
X203100884Y-196450471D02*
X203100884Y-196593328D01*
X204100885Y-195093328D02*
X204243742Y-195093328D01*
X204243742Y-195093328D02*
X204386599Y-195164757D01*
X204386599Y-195164757D02*
X204458028Y-195236185D01*
X204458028Y-195236185D02*
X204529456Y-195379042D01*
X204529456Y-195379042D02*
X204600885Y-195664757D01*
X204600885Y-195664757D02*
X204600885Y-196021900D01*
X204600885Y-196021900D02*
X204529456Y-196307614D01*
X204529456Y-196307614D02*
X204458028Y-196450471D01*
X204458028Y-196450471D02*
X204386599Y-196521900D01*
X204386599Y-196521900D02*
X204243742Y-196593328D01*
X204243742Y-196593328D02*
X204100885Y-196593328D01*
X204100885Y-196593328D02*
X203958028Y-196521900D01*
X203958028Y-196521900D02*
X203886599Y-196450471D01*
X203886599Y-196450471D02*
X203815170Y-196307614D01*
X203815170Y-196307614D02*
X203743742Y-196021900D01*
X203743742Y-196021900D02*
X203743742Y-195664757D01*
X203743742Y-195664757D02*
X203815170Y-195379042D01*
X203815170Y-195379042D02*
X203886599Y-195236185D01*
X203886599Y-195236185D02*
X203958028Y-195164757D01*
X203958028Y-195164757D02*
X204100885Y-195093328D01*
X205243741Y-196450471D02*
X205315170Y-196521900D01*
X205315170Y-196521900D02*
X205243741Y-196593328D01*
X205243741Y-196593328D02*
X205172313Y-196521900D01*
X205172313Y-196521900D02*
X205243741Y-196450471D01*
X205243741Y-196450471D02*
X205243741Y-196593328D01*
X205815170Y-195093328D02*
X206815170Y-195093328D01*
X206815170Y-195093328D02*
X206172313Y-196593328D01*
D10*
D11*
X177002200Y-191507200D02*
X285002200Y-191507200D01*
D10*
D12*
X264413853Y-193785528D02*
X263913853Y-193071242D01*
X263556710Y-193785528D02*
X263556710Y-192285528D01*
X263556710Y-192285528D02*
X264128139Y-192285528D01*
X264128139Y-192285528D02*
X264270996Y-192356957D01*
X264270996Y-192356957D02*
X264342425Y-192428385D01*
X264342425Y-192428385D02*
X264413853Y-192571242D01*
X264413853Y-192571242D02*
X264413853Y-192785528D01*
X264413853Y-192785528D02*
X264342425Y-192928385D01*
X264342425Y-192928385D02*
X264270996Y-192999814D01*
X264270996Y-192999814D02*
X264128139Y-193071242D01*
X264128139Y-193071242D02*
X263556710Y-193071242D01*
X265628139Y-193714100D02*
X265485282Y-193785528D01*
X265485282Y-193785528D02*
X265199568Y-193785528D01*
X265199568Y-193785528D02*
X265056710Y-193714100D01*
X265056710Y-193714100D02*
X264985282Y-193571242D01*
X264985282Y-193571242D02*
X264985282Y-192999814D01*
X264985282Y-192999814D02*
X265056710Y-192856957D01*
X265056710Y-192856957D02*
X265199568Y-192785528D01*
X265199568Y-192785528D02*
X265485282Y-192785528D01*
X265485282Y-192785528D02*
X265628139Y-192856957D01*
X265628139Y-192856957D02*
X265699568Y-192999814D01*
X265699568Y-192999814D02*
X265699568Y-193142671D01*
X265699568Y-193142671D02*
X264985282Y-193285528D01*
X266199567Y-192785528D02*
X266556710Y-193785528D01*
X266556710Y-193785528D02*
X266913853Y-192785528D01*
X267485281Y-193642671D02*
X267556710Y-193714100D01*
X267556710Y-193714100D02*
X267485281Y-193785528D01*
X267485281Y-193785528D02*
X267413853Y-193714100D01*
X267413853Y-193714100D02*
X267485281Y-193642671D01*
X267485281Y-193642671D02*
X267485281Y-193785528D01*
X267485281Y-192856957D02*
X267556710Y-192928385D01*
X267556710Y-192928385D02*
X267485281Y-192999814D01*
X267485281Y-192999814D02*
X267413853Y-192928385D01*
X267413853Y-192928385D02*
X267485281Y-192856957D01*
X267485281Y-192856957D02*
X267485281Y-192999814D01*
D10*
D11*
X178386598Y-193721900D02*
X178600884Y-193793328D01*
X178600884Y-193793328D02*
X178958026Y-193793328D01*
X178958026Y-193793328D02*
X179100884Y-193721900D01*
X179100884Y-193721900D02*
X179172312Y-193650471D01*
X179172312Y-193650471D02*
X179243741Y-193507614D01*
X179243741Y-193507614D02*
X179243741Y-193364757D01*
X179243741Y-193364757D02*
X179172312Y-193221900D01*
X179172312Y-193221900D02*
X179100884Y-193150471D01*
X179100884Y-193150471D02*
X178958026Y-193079042D01*
X178958026Y-193079042D02*
X178672312Y-193007614D01*
X178672312Y-193007614D02*
X178529455Y-192936185D01*
X178529455Y-192936185D02*
X178458026Y-192864757D01*
X178458026Y-192864757D02*
X178386598Y-192721900D01*
X178386598Y-192721900D02*
X178386598Y-192579042D01*
X178386598Y-192579042D02*
X178458026Y-192436185D01*
X178458026Y-192436185D02*
X178529455Y-192364757D01*
X178529455Y-192364757D02*
X178672312Y-192293328D01*
X178672312Y-192293328D02*
X179029455Y-192293328D01*
X179029455Y-192293328D02*
X179243741Y-192364757D01*
X179886597Y-193793328D02*
X179886597Y-192793328D01*
X179886597Y-192293328D02*
X179815169Y-192364757D01*
X179815169Y-192364757D02*
X179886597Y-192436185D01*
X179886597Y-192436185D02*
X179958026Y-192364757D01*
X179958026Y-192364757D02*
X179886597Y-192293328D01*
X179886597Y-192293328D02*
X179886597Y-192436185D01*
X180458026Y-192793328D02*
X181243741Y-192793328D01*
X181243741Y-192793328D02*
X180458026Y-193793328D01*
X180458026Y-193793328D02*
X181243741Y-193793328D01*
X182386598Y-193721900D02*
X182243741Y-193793328D01*
X182243741Y-193793328D02*
X181958027Y-193793328D01*
X181958027Y-193793328D02*
X181815169Y-193721900D01*
X181815169Y-193721900D02*
X181743741Y-193579042D01*
X181743741Y-193579042D02*
X181743741Y-193007614D01*
X181743741Y-193007614D02*
X181815169Y-192864757D01*
X181815169Y-192864757D02*
X181958027Y-192793328D01*
X181958027Y-192793328D02*
X182243741Y-192793328D01*
X182243741Y-192793328D02*
X182386598Y-192864757D01*
X182386598Y-192864757D02*
X182458027Y-193007614D01*
X182458027Y-193007614D02*
X182458027Y-193150471D01*
X182458027Y-193150471D02*
X181743741Y-193293328D01*
X183100883Y-193650471D02*
X183172312Y-193721900D01*
X183172312Y-193721900D02*
X183100883Y-193793328D01*
X183100883Y-193793328D02*
X183029455Y-193721900D01*
X183029455Y-193721900D02*
X183100883Y-193650471D01*
X183100883Y-193650471D02*
X183100883Y-193793328D01*
X183100883Y-192864757D02*
X183172312Y-192936185D01*
X183172312Y-192936185D02*
X183100883Y-193007614D01*
X183100883Y-193007614D02*
X183029455Y-192936185D01*
X183029455Y-192936185D02*
X183100883Y-192864757D01*
X183100883Y-192864757D02*
X183100883Y-193007614D01*
X184886598Y-193364757D02*
X185600884Y-193364757D01*
X184743741Y-193793328D02*
X185243741Y-192293328D01*
X185243741Y-192293328D02*
X185743741Y-193793328D01*
X186886598Y-192793328D02*
X186886598Y-193793328D01*
X186529455Y-192221900D02*
X186172312Y-193293328D01*
X186172312Y-193293328D02*
X187100883Y-193293328D01*
D10*
D11*
X263458026Y-196593328D02*
X263458026Y-195093328D01*
X264815170Y-196593328D02*
X264815170Y-195093328D01*
X264815170Y-196521900D02*
X264672312Y-196593328D01*
X264672312Y-196593328D02*
X264386598Y-196593328D01*
X264386598Y-196593328D02*
X264243741Y-196521900D01*
X264243741Y-196521900D02*
X264172312Y-196450471D01*
X264172312Y-196450471D02*
X264100884Y-196307614D01*
X264100884Y-196307614D02*
X264100884Y-195879042D01*
X264100884Y-195879042D02*
X264172312Y-195736185D01*
X264172312Y-195736185D02*
X264243741Y-195664757D01*
X264243741Y-195664757D02*
X264386598Y-195593328D01*
X264386598Y-195593328D02*
X264672312Y-195593328D01*
X264672312Y-195593328D02*
X264815170Y-195664757D01*
X265529455Y-196450471D02*
X265600884Y-196521900D01*
X265600884Y-196521900D02*
X265529455Y-196593328D01*
X265529455Y-196593328D02*
X265458027Y-196521900D01*
X265458027Y-196521900D02*
X265529455Y-196450471D01*
X265529455Y-196450471D02*
X265529455Y-196593328D01*
X265529455Y-195664757D02*
X265600884Y-195736185D01*
X265600884Y-195736185D02*
X265529455Y-195807614D01*
X265529455Y-195807614D02*
X265458027Y-195736185D01*
X265458027Y-195736185D02*
X265529455Y-195664757D01*
X265529455Y-195664757D02*
X265529455Y-195807614D01*
X268172313Y-196593328D02*
X267315170Y-196593328D01*
X267743741Y-196593328D02*
X267743741Y-195093328D01*
X267743741Y-195093328D02*
X267600884Y-195307614D01*
X267600884Y-195307614D02*
X267458027Y-195450471D01*
X267458027Y-195450471D02*
X267315170Y-195521900D01*
X269886598Y-195021900D02*
X268600884Y-196950471D01*
X271172313Y-196593328D02*
X270315170Y-196593328D01*
X270743741Y-196593328D02*
X270743741Y-195093328D01*
X270743741Y-195093328D02*
X270600884Y-195307614D01*
X270600884Y-195307614D02*
X270458027Y-195450471D01*
X270458027Y-195450471D02*
X270315170Y-195521900D01*
D10*
D11*
X177002200Y-187507200D02*
X285002200Y-187507200D01*
D10*
D13*
X178693928Y-188211638D02*
X179836785Y-188211638D01*
X179015357Y-190211638D02*
X179265357Y-188211638D01*
X180253452Y-190211638D02*
X180420119Y-188878304D01*
X180503452Y-188211638D02*
X180396309Y-188306876D01*
X180396309Y-188306876D02*
X180479643Y-188402114D01*
X180479643Y-188402114D02*
X180586786Y-188306876D01*
X180586786Y-188306876D02*
X180503452Y-188211638D01*
X180503452Y-188211638D02*
X180479643Y-188402114D01*
X181086786Y-188878304D02*
X181848690Y-188878304D01*
X181455833Y-188211638D02*
X181241548Y-189925923D01*
X181241548Y-189925923D02*
X181312976Y-190116400D01*
X181312976Y-190116400D02*
X181491548Y-190211638D01*
X181491548Y-190211638D02*
X181682024Y-190211638D01*
X182634405Y-190211638D02*
X182455833Y-190116400D01*
X182455833Y-190116400D02*
X182384405Y-189925923D01*
X182384405Y-189925923D02*
X182598690Y-188211638D01*
X184170119Y-190116400D02*
X183967738Y-190211638D01*
X183967738Y-190211638D02*
X183586785Y-190211638D01*
X183586785Y-190211638D02*
X183408214Y-190116400D01*
X183408214Y-190116400D02*
X183336785Y-189925923D01*
X183336785Y-189925923D02*
X183432024Y-189164019D01*
X183432024Y-189164019D02*
X183551071Y-188973542D01*
X183551071Y-188973542D02*
X183753452Y-188878304D01*
X183753452Y-188878304D02*
X184134404Y-188878304D01*
X184134404Y-188878304D02*
X184312976Y-188973542D01*
X184312976Y-188973542D02*
X184384404Y-189164019D01*
X184384404Y-189164019D02*
X184360595Y-189354495D01*
X184360595Y-189354495D02*
X183384404Y-189544971D01*
X185134405Y-190021161D02*
X185217738Y-190116400D01*
X185217738Y-190116400D02*
X185110595Y-190211638D01*
X185110595Y-190211638D02*
X185027262Y-190116400D01*
X185027262Y-190116400D02*
X185134405Y-190021161D01*
X185134405Y-190021161D02*
X185110595Y-190211638D01*
X185265357Y-188973542D02*
X185348690Y-189068780D01*
X185348690Y-189068780D02*
X185241548Y-189164019D01*
X185241548Y-189164019D02*
X185158214Y-189068780D01*
X185158214Y-189068780D02*
X185265357Y-188973542D01*
X185265357Y-188973542D02*
X185241548Y-189164019D01*
D10*
D11*
X178958026Y-185607614D02*
X178458026Y-185607614D01*
X178458026Y-186393328D02*
X178458026Y-184893328D01*
X178458026Y-184893328D02*
X179172312Y-184893328D01*
X179743740Y-186393328D02*
X179743740Y-185393328D01*
X179743740Y-184893328D02*
X179672312Y-184964757D01*
X179672312Y-184964757D02*
X179743740Y-185036185D01*
X179743740Y-185036185D02*
X179815169Y-184964757D01*
X179815169Y-184964757D02*
X179743740Y-184893328D01*
X179743740Y-184893328D02*
X179743740Y-185036185D01*
X180672312Y-186393328D02*
X180529455Y-186321900D01*
X180529455Y-186321900D02*
X180458026Y-186179042D01*
X180458026Y-186179042D02*
X180458026Y-184893328D01*
X181815169Y-186321900D02*
X181672312Y-186393328D01*
X181672312Y-186393328D02*
X181386598Y-186393328D01*
X181386598Y-186393328D02*
X181243740Y-186321900D01*
X181243740Y-186321900D02*
X181172312Y-186179042D01*
X181172312Y-186179042D02*
X181172312Y-185607614D01*
X181172312Y-185607614D02*
X181243740Y-185464757D01*
X181243740Y-185464757D02*
X181386598Y-185393328D01*
X181386598Y-185393328D02*
X181672312Y-185393328D01*
X181672312Y-185393328D02*
X181815169Y-185464757D01*
X181815169Y-185464757D02*
X181886598Y-185607614D01*
X181886598Y-185607614D02*
X181886598Y-185750471D01*
X181886598Y-185750471D02*
X181172312Y-185893328D01*
X182529454Y-186250471D02*
X182600883Y-186321900D01*
X182600883Y-186321900D02*
X182529454Y-186393328D01*
X182529454Y-186393328D02*
X182458026Y-186321900D01*
X182458026Y-186321900D02*
X182529454Y-186250471D01*
X182529454Y-186250471D02*
X182529454Y-186393328D01*
X182529454Y-185464757D02*
X182600883Y-185536185D01*
X182600883Y-185536185D02*
X182529454Y-185607614D01*
X182529454Y-185607614D02*
X182458026Y-185536185D01*
X182458026Y-185536185D02*
X182529454Y-185464757D01*
X182529454Y-185464757D02*
X182529454Y-185607614D01*
X185243740Y-186250471D02*
X185172312Y-186321900D01*
X185172312Y-186321900D02*
X184958026Y-186393328D01*
X184958026Y-186393328D02*
X184815169Y-186393328D01*
X184815169Y-186393328D02*
X184600883Y-186321900D01*
X184600883Y-186321900D02*
X184458026Y-186179042D01*
X184458026Y-186179042D02*
X184386597Y-186036185D01*
X184386597Y-186036185D02*
X184315169Y-185750471D01*
X184315169Y-185750471D02*
X184315169Y-185536185D01*
X184315169Y-185536185D02*
X184386597Y-185250471D01*
X184386597Y-185250471D02*
X184458026Y-185107614D01*
X184458026Y-185107614D02*
X184600883Y-184964757D01*
X184600883Y-184964757D02*
X184815169Y-184893328D01*
X184815169Y-184893328D02*
X184958026Y-184893328D01*
X184958026Y-184893328D02*
X185172312Y-184964757D01*
X185172312Y-184964757D02*
X185243740Y-185036185D01*
X186529455Y-186393328D02*
X186529455Y-185607614D01*
X186529455Y-185607614D02*
X186458026Y-185464757D01*
X186458026Y-185464757D02*
X186315169Y-185393328D01*
X186315169Y-185393328D02*
X186029455Y-185393328D01*
X186029455Y-185393328D02*
X185886597Y-185464757D01*
X186529455Y-186321900D02*
X186386597Y-186393328D01*
X186386597Y-186393328D02*
X186029455Y-186393328D01*
X186029455Y-186393328D02*
X185886597Y-186321900D01*
X185886597Y-186321900D02*
X185815169Y-186179042D01*
X185815169Y-186179042D02*
X185815169Y-186036185D01*
X185815169Y-186036185D02*
X185886597Y-185893328D01*
X185886597Y-185893328D02*
X186029455Y-185821900D01*
X186029455Y-185821900D02*
X186386597Y-185821900D01*
X186386597Y-185821900D02*
X186529455Y-185750471D01*
X187243740Y-186393328D02*
X187243740Y-184893328D01*
X187243740Y-185464757D02*
X187386598Y-185393328D01*
X187386598Y-185393328D02*
X187672312Y-185393328D01*
X187672312Y-185393328D02*
X187815169Y-185464757D01*
X187815169Y-185464757D02*
X187886598Y-185536185D01*
X187886598Y-185536185D02*
X187958026Y-185679042D01*
X187958026Y-185679042D02*
X187958026Y-186107614D01*
X187958026Y-186107614D02*
X187886598Y-186250471D01*
X187886598Y-186250471D02*
X187815169Y-186321900D01*
X187815169Y-186321900D02*
X187672312Y-186393328D01*
X187672312Y-186393328D02*
X187386598Y-186393328D01*
X187386598Y-186393328D02*
X187243740Y-186321900D01*
X188815169Y-186393328D02*
X188672312Y-186321900D01*
X188672312Y-186321900D02*
X188600883Y-186179042D01*
X188600883Y-186179042D02*
X188600883Y-184893328D01*
X189958026Y-186321900D02*
X189815169Y-186393328D01*
X189815169Y-186393328D02*
X189529455Y-186393328D01*
X189529455Y-186393328D02*
X189386597Y-186321900D01*
X189386597Y-186321900D02*
X189315169Y-186179042D01*
X189315169Y-186179042D02*
X189315169Y-185607614D01*
X189315169Y-185607614D02*
X189386597Y-185464757D01*
X189386597Y-185464757D02*
X189529455Y-185393328D01*
X189529455Y-185393328D02*
X189815169Y-185393328D01*
X189815169Y-185393328D02*
X189958026Y-185464757D01*
X189958026Y-185464757D02*
X190029455Y-185607614D01*
X190029455Y-185607614D02*
X190029455Y-185750471D01*
X190029455Y-185750471D02*
X189315169Y-185893328D01*
X190600883Y-185964757D02*
X191315169Y-185964757D01*
X190458026Y-186393328D02*
X190958026Y-184893328D01*
X190958026Y-184893328D02*
X191458026Y-186393328D01*
X192600883Y-186393328D02*
X192600883Y-184893328D01*
X192600883Y-186321900D02*
X192458025Y-186393328D01*
X192458025Y-186393328D02*
X192172311Y-186393328D01*
X192172311Y-186393328D02*
X192029454Y-186321900D01*
X192029454Y-186321900D02*
X191958025Y-186250471D01*
X191958025Y-186250471D02*
X191886597Y-186107614D01*
X191886597Y-186107614D02*
X191886597Y-185679042D01*
X191886597Y-185679042D02*
X191958025Y-185536185D01*
X191958025Y-185536185D02*
X192029454Y-185464757D01*
X192029454Y-185464757D02*
X192172311Y-185393328D01*
X192172311Y-185393328D02*
X192458025Y-185393328D01*
X192458025Y-185393328D02*
X192600883Y-185464757D01*
X193958026Y-186393328D02*
X193958026Y-185607614D01*
X193958026Y-185607614D02*
X193886597Y-185464757D01*
X193886597Y-185464757D02*
X193743740Y-185393328D01*
X193743740Y-185393328D02*
X193458026Y-185393328D01*
X193458026Y-185393328D02*
X193315168Y-185464757D01*
X193958026Y-186321900D02*
X193815168Y-186393328D01*
X193815168Y-186393328D02*
X193458026Y-186393328D01*
X193458026Y-186393328D02*
X193315168Y-186321900D01*
X193315168Y-186321900D02*
X193243740Y-186179042D01*
X193243740Y-186179042D02*
X193243740Y-186036185D01*
X193243740Y-186036185D02*
X193315168Y-185893328D01*
X193315168Y-185893328D02*
X193458026Y-185821900D01*
X193458026Y-185821900D02*
X193815168Y-185821900D01*
X193815168Y-185821900D02*
X193958026Y-185750471D01*
X194672311Y-185393328D02*
X194672311Y-186893328D01*
X194672311Y-185464757D02*
X194815169Y-185393328D01*
X194815169Y-185393328D02*
X195100883Y-185393328D01*
X195100883Y-185393328D02*
X195243740Y-185464757D01*
X195243740Y-185464757D02*
X195315169Y-185536185D01*
X195315169Y-185536185D02*
X195386597Y-185679042D01*
X195386597Y-185679042D02*
X195386597Y-186107614D01*
X195386597Y-186107614D02*
X195315169Y-186250471D01*
X195315169Y-186250471D02*
X195243740Y-186321900D01*
X195243740Y-186321900D02*
X195100883Y-186393328D01*
X195100883Y-186393328D02*
X194815169Y-186393328D01*
X194815169Y-186393328D02*
X194672311Y-186321900D01*
X195815169Y-185393328D02*
X196386597Y-185393328D01*
X196029454Y-184893328D02*
X196029454Y-186179042D01*
X196029454Y-186179042D02*
X196100883Y-186321900D01*
X196100883Y-186321900D02*
X196243740Y-186393328D01*
X196243740Y-186393328D02*
X196386597Y-186393328D01*
X197458026Y-186321900D02*
X197315169Y-186393328D01*
X197315169Y-186393328D02*
X197029455Y-186393328D01*
X197029455Y-186393328D02*
X196886597Y-186321900D01*
X196886597Y-186321900D02*
X196815169Y-186179042D01*
X196815169Y-186179042D02*
X196815169Y-185607614D01*
X196815169Y-185607614D02*
X196886597Y-185464757D01*
X196886597Y-185464757D02*
X197029455Y-185393328D01*
X197029455Y-185393328D02*
X197315169Y-185393328D01*
X197315169Y-185393328D02*
X197458026Y-185464757D01*
X197458026Y-185464757D02*
X197529455Y-185607614D01*
X197529455Y-185607614D02*
X197529455Y-185750471D01*
X197529455Y-185750471D02*
X196815169Y-185893328D01*
X198172311Y-186393328D02*
X198172311Y-185393328D01*
X198172311Y-185679042D02*
X198243740Y-185536185D01*
X198243740Y-185536185D02*
X198315169Y-185464757D01*
X198315169Y-185464757D02*
X198458026Y-185393328D01*
X198458026Y-185393328D02*
X198600883Y-185393328D01*
X199600882Y-185607614D02*
X199815168Y-185679042D01*
X199815168Y-185679042D02*
X199886597Y-185750471D01*
X199886597Y-185750471D02*
X199958025Y-185893328D01*
X199958025Y-185893328D02*
X199958025Y-186107614D01*
X199958025Y-186107614D02*
X199886597Y-186250471D01*
X199886597Y-186250471D02*
X199815168Y-186321900D01*
X199815168Y-186321900D02*
X199672311Y-186393328D01*
X199672311Y-186393328D02*
X199100882Y-186393328D01*
X199100882Y-186393328D02*
X199100882Y-184893328D01*
X199100882Y-184893328D02*
X199600882Y-184893328D01*
X199600882Y-184893328D02*
X199743740Y-184964757D01*
X199743740Y-184964757D02*
X199815168Y-185036185D01*
X199815168Y-185036185D02*
X199886597Y-185179042D01*
X199886597Y-185179042D02*
X199886597Y-185321900D01*
X199886597Y-185321900D02*
X199815168Y-185464757D01*
X199815168Y-185464757D02*
X199743740Y-185536185D01*
X199743740Y-185536185D02*
X199600882Y-185607614D01*
X199600882Y-185607614D02*
X199100882Y-185607614D01*
X200815168Y-186393328D02*
X200672311Y-186321900D01*
X200672311Y-186321900D02*
X200600882Y-186250471D01*
X200600882Y-186250471D02*
X200529454Y-186107614D01*
X200529454Y-186107614D02*
X200529454Y-185679042D01*
X200529454Y-185679042D02*
X200600882Y-185536185D01*
X200600882Y-185536185D02*
X200672311Y-185464757D01*
X200672311Y-185464757D02*
X200815168Y-185393328D01*
X200815168Y-185393328D02*
X201029454Y-185393328D01*
X201029454Y-185393328D02*
X201172311Y-185464757D01*
X201172311Y-185464757D02*
X201243740Y-185536185D01*
X201243740Y-185536185D02*
X201315168Y-185679042D01*
X201315168Y-185679042D02*
X201315168Y-186107614D01*
X201315168Y-186107614D02*
X201243740Y-186250471D01*
X201243740Y-186250471D02*
X201172311Y-186321900D01*
X201172311Y-186321900D02*
X201029454Y-186393328D01*
X201029454Y-186393328D02*
X200815168Y-186393328D01*
X202600883Y-186393328D02*
X202600883Y-185607614D01*
X202600883Y-185607614D02*
X202529454Y-185464757D01*
X202529454Y-185464757D02*
X202386597Y-185393328D01*
X202386597Y-185393328D02*
X202100883Y-185393328D01*
X202100883Y-185393328D02*
X201958025Y-185464757D01*
X202600883Y-186321900D02*
X202458025Y-186393328D01*
X202458025Y-186393328D02*
X202100883Y-186393328D01*
X202100883Y-186393328D02*
X201958025Y-186321900D01*
X201958025Y-186321900D02*
X201886597Y-186179042D01*
X201886597Y-186179042D02*
X201886597Y-186036185D01*
X201886597Y-186036185D02*
X201958025Y-185893328D01*
X201958025Y-185893328D02*
X202100883Y-185821900D01*
X202100883Y-185821900D02*
X202458025Y-185821900D01*
X202458025Y-185821900D02*
X202600883Y-185750471D01*
X203315168Y-186393328D02*
X203315168Y-185393328D01*
X203315168Y-185679042D02*
X203386597Y-185536185D01*
X203386597Y-185536185D02*
X203458026Y-185464757D01*
X203458026Y-185464757D02*
X203600883Y-185393328D01*
X203600883Y-185393328D02*
X203743740Y-185393328D01*
X204886597Y-186393328D02*
X204886597Y-184893328D01*
X204886597Y-186321900D02*
X204743739Y-186393328D01*
X204743739Y-186393328D02*
X204458025Y-186393328D01*
X204458025Y-186393328D02*
X204315168Y-186321900D01*
X204315168Y-186321900D02*
X204243739Y-186250471D01*
X204243739Y-186250471D02*
X204172311Y-186107614D01*
X204172311Y-186107614D02*
X204172311Y-185679042D01*
X204172311Y-185679042D02*
X204243739Y-185536185D01*
X204243739Y-185536185D02*
X204315168Y-185464757D01*
X204315168Y-185464757D02*
X204458025Y-185393328D01*
X204458025Y-185393328D02*
X204743739Y-185393328D01*
X204743739Y-185393328D02*
X204886597Y-185464757D01*
X205600882Y-186250471D02*
X205672311Y-186321900D01*
X205672311Y-186321900D02*
X205600882Y-186393328D01*
X205600882Y-186393328D02*
X205529454Y-186321900D01*
X205529454Y-186321900D02*
X205600882Y-186250471D01*
X205600882Y-186250471D02*
X205600882Y-186393328D01*
X206315168Y-186393328D02*
X206315168Y-184893328D01*
X206458026Y-185821900D02*
X206886597Y-186393328D01*
X206886597Y-185393328D02*
X206315168Y-185964757D01*
X207529454Y-186393328D02*
X207529454Y-185393328D01*
X207529454Y-184893328D02*
X207458026Y-184964757D01*
X207458026Y-184964757D02*
X207529454Y-185036185D01*
X207529454Y-185036185D02*
X207600883Y-184964757D01*
X207600883Y-184964757D02*
X207529454Y-184893328D01*
X207529454Y-184893328D02*
X207529454Y-185036185D01*
X208886598Y-186321900D02*
X208743740Y-186393328D01*
X208743740Y-186393328D02*
X208458026Y-186393328D01*
X208458026Y-186393328D02*
X208315169Y-186321900D01*
X208315169Y-186321900D02*
X208243740Y-186250471D01*
X208243740Y-186250471D02*
X208172312Y-186107614D01*
X208172312Y-186107614D02*
X208172312Y-185679042D01*
X208172312Y-185679042D02*
X208243740Y-185536185D01*
X208243740Y-185536185D02*
X208315169Y-185464757D01*
X208315169Y-185464757D02*
X208458026Y-185393328D01*
X208458026Y-185393328D02*
X208743740Y-185393328D01*
X208743740Y-185393328D02*
X208886598Y-185464757D01*
X210172312Y-186393328D02*
X210172312Y-185607614D01*
X210172312Y-185607614D02*
X210100883Y-185464757D01*
X210100883Y-185464757D02*
X209958026Y-185393328D01*
X209958026Y-185393328D02*
X209672312Y-185393328D01*
X209672312Y-185393328D02*
X209529454Y-185464757D01*
X210172312Y-186321900D02*
X210029454Y-186393328D01*
X210029454Y-186393328D02*
X209672312Y-186393328D01*
X209672312Y-186393328D02*
X209529454Y-186321900D01*
X209529454Y-186321900D02*
X209458026Y-186179042D01*
X209458026Y-186179042D02*
X209458026Y-186036185D01*
X209458026Y-186036185D02*
X209529454Y-185893328D01*
X209529454Y-185893328D02*
X209672312Y-185821900D01*
X209672312Y-185821900D02*
X210029454Y-185821900D01*
X210029454Y-185821900D02*
X210172312Y-185750471D01*
X211529455Y-186393328D02*
X211529455Y-184893328D01*
X211529455Y-186321900D02*
X211386597Y-186393328D01*
X211386597Y-186393328D02*
X211100883Y-186393328D01*
X211100883Y-186393328D02*
X210958026Y-186321900D01*
X210958026Y-186321900D02*
X210886597Y-186250471D01*
X210886597Y-186250471D02*
X210815169Y-186107614D01*
X210815169Y-186107614D02*
X210815169Y-185679042D01*
X210815169Y-185679042D02*
X210886597Y-185536185D01*
X210886597Y-185536185D02*
X210958026Y-185464757D01*
X210958026Y-185464757D02*
X211100883Y-185393328D01*
X211100883Y-185393328D02*
X211386597Y-185393328D01*
X211386597Y-185393328D02*
X211529455Y-185464757D01*
X211886598Y-186536185D02*
X213029455Y-186536185D01*
X213386597Y-185393328D02*
X213386597Y-186893328D01*
X213386597Y-185464757D02*
X213529455Y-185393328D01*
X213529455Y-185393328D02*
X213815169Y-185393328D01*
X213815169Y-185393328D02*
X213958026Y-185464757D01*
X213958026Y-185464757D02*
X214029455Y-185536185D01*
X214029455Y-185536185D02*
X214100883Y-185679042D01*
X214100883Y-185679042D02*
X214100883Y-186107614D01*
X214100883Y-186107614D02*
X214029455Y-186250471D01*
X214029455Y-186250471D02*
X213958026Y-186321900D01*
X213958026Y-186321900D02*
X213815169Y-186393328D01*
X213815169Y-186393328D02*
X213529455Y-186393328D01*
X213529455Y-186393328D02*
X213386597Y-186321900D01*
X215386598Y-186321900D02*
X215243740Y-186393328D01*
X215243740Y-186393328D02*
X214958026Y-186393328D01*
X214958026Y-186393328D02*
X214815169Y-186321900D01*
X214815169Y-186321900D02*
X214743740Y-186250471D01*
X214743740Y-186250471D02*
X214672312Y-186107614D01*
X214672312Y-186107614D02*
X214672312Y-185679042D01*
X214672312Y-185679042D02*
X214743740Y-185536185D01*
X214743740Y-185536185D02*
X214815169Y-185464757D01*
X214815169Y-185464757D02*
X214958026Y-185393328D01*
X214958026Y-185393328D02*
X215243740Y-185393328D01*
X215243740Y-185393328D02*
X215386598Y-185464757D01*
X216029454Y-186393328D02*
X216029454Y-184893328D01*
X216029454Y-185464757D02*
X216172312Y-185393328D01*
X216172312Y-185393328D02*
X216458026Y-185393328D01*
X216458026Y-185393328D02*
X216600883Y-185464757D01*
X216600883Y-185464757D02*
X216672312Y-185536185D01*
X216672312Y-185536185D02*
X216743740Y-185679042D01*
X216743740Y-185679042D02*
X216743740Y-186107614D01*
X216743740Y-186107614D02*
X216672312Y-186250471D01*
X216672312Y-186250471D02*
X216600883Y-186321900D01*
X216600883Y-186321900D02*
X216458026Y-186393328D01*
X216458026Y-186393328D02*
X216172312Y-186393328D01*
X216172312Y-186393328D02*
X216029454Y-186321900D01*
D10*
D11*
X177002200Y-181507200D02*
X285002200Y-181507200D01*
D10*
D11*
X178386598Y-183621900D02*
X178600884Y-183693328D01*
X178600884Y-183693328D02*
X178958026Y-183693328D01*
X178958026Y-183693328D02*
X179100884Y-183621900D01*
X179100884Y-183621900D02*
X179172312Y-183550471D01*
X179172312Y-183550471D02*
X179243741Y-183407614D01*
X179243741Y-183407614D02*
X179243741Y-183264757D01*
X179243741Y-183264757D02*
X179172312Y-183121900D01*
X179172312Y-183121900D02*
X179100884Y-183050471D01*
X179100884Y-183050471D02*
X178958026Y-182979042D01*
X178958026Y-182979042D02*
X178672312Y-182907614D01*
X178672312Y-182907614D02*
X178529455Y-182836185D01*
X178529455Y-182836185D02*
X178458026Y-182764757D01*
X178458026Y-182764757D02*
X178386598Y-182621900D01*
X178386598Y-182621900D02*
X178386598Y-182479042D01*
X178386598Y-182479042D02*
X178458026Y-182336185D01*
X178458026Y-182336185D02*
X178529455Y-182264757D01*
X178529455Y-182264757D02*
X178672312Y-182193328D01*
X178672312Y-182193328D02*
X179029455Y-182193328D01*
X179029455Y-182193328D02*
X179243741Y-182264757D01*
X179886597Y-183693328D02*
X179886597Y-182193328D01*
X180529455Y-183693328D02*
X180529455Y-182907614D01*
X180529455Y-182907614D02*
X180458026Y-182764757D01*
X180458026Y-182764757D02*
X180315169Y-182693328D01*
X180315169Y-182693328D02*
X180100883Y-182693328D01*
X180100883Y-182693328D02*
X179958026Y-182764757D01*
X179958026Y-182764757D02*
X179886597Y-182836185D01*
X181815169Y-183621900D02*
X181672312Y-183693328D01*
X181672312Y-183693328D02*
X181386598Y-183693328D01*
X181386598Y-183693328D02*
X181243740Y-183621900D01*
X181243740Y-183621900D02*
X181172312Y-183479042D01*
X181172312Y-183479042D02*
X181172312Y-182907614D01*
X181172312Y-182907614D02*
X181243740Y-182764757D01*
X181243740Y-182764757D02*
X181386598Y-182693328D01*
X181386598Y-182693328D02*
X181672312Y-182693328D01*
X181672312Y-182693328D02*
X181815169Y-182764757D01*
X181815169Y-182764757D02*
X181886598Y-182907614D01*
X181886598Y-182907614D02*
X181886598Y-183050471D01*
X181886598Y-183050471D02*
X181172312Y-183193328D01*
X183100883Y-183621900D02*
X182958026Y-183693328D01*
X182958026Y-183693328D02*
X182672312Y-183693328D01*
X182672312Y-183693328D02*
X182529454Y-183621900D01*
X182529454Y-183621900D02*
X182458026Y-183479042D01*
X182458026Y-183479042D02*
X182458026Y-182907614D01*
X182458026Y-182907614D02*
X182529454Y-182764757D01*
X182529454Y-182764757D02*
X182672312Y-182693328D01*
X182672312Y-182693328D02*
X182958026Y-182693328D01*
X182958026Y-182693328D02*
X183100883Y-182764757D01*
X183100883Y-182764757D02*
X183172312Y-182907614D01*
X183172312Y-182907614D02*
X183172312Y-183050471D01*
X183172312Y-183050471D02*
X182458026Y-183193328D01*
X183600883Y-182693328D02*
X184172311Y-182693328D01*
X183815168Y-182193328D02*
X183815168Y-183479042D01*
X183815168Y-183479042D02*
X183886597Y-183621900D01*
X183886597Y-183621900D02*
X184029454Y-183693328D01*
X184029454Y-183693328D02*
X184172311Y-183693328D01*
X184672311Y-183550471D02*
X184743740Y-183621900D01*
X184743740Y-183621900D02*
X184672311Y-183693328D01*
X184672311Y-183693328D02*
X184600883Y-183621900D01*
X184600883Y-183621900D02*
X184672311Y-183550471D01*
X184672311Y-183550471D02*
X184672311Y-183693328D01*
X184672311Y-182764757D02*
X184743740Y-182836185D01*
X184743740Y-182836185D02*
X184672311Y-182907614D01*
X184672311Y-182907614D02*
X184600883Y-182836185D01*
X184600883Y-182836185D02*
X184672311Y-182764757D01*
X184672311Y-182764757D02*
X184672311Y-182907614D01*
D10*
D12*
D10*
D11*
D10*
D11*
D10*
D11*
D10*
D11*
D10*
D11*
X197002200Y-191507200D02*
X197002200Y-194507200D01*
D10*
D11*
X261002200Y-191507200D02*
X261002200Y-198007200D01*
X182380952Y-78888152D02*
X182619047Y-79554819D01*
X182619047Y-79554819D02*
X182857142Y-78888152D01*
X183666666Y-79554819D02*
X183666666Y-78554819D01*
X183666666Y-79507200D02*
X183571428Y-79554819D01*
X183571428Y-79554819D02*
X183380952Y-79554819D01*
X183380952Y-79554819D02*
X183285714Y-79507200D01*
X183285714Y-79507200D02*
X183238095Y-79459580D01*
X183238095Y-79459580D02*
X183190476Y-79364342D01*
X183190476Y-79364342D02*
X183190476Y-79078628D01*
X183190476Y-79078628D02*
X183238095Y-78983390D01*
X183238095Y-78983390D02*
X183285714Y-78935771D01*
X183285714Y-78935771D02*
X183380952Y-78888152D01*
X183380952Y-78888152D02*
X183571428Y-78888152D01*
X183571428Y-78888152D02*
X183666666Y-78935771D01*
X184571428Y-79554819D02*
X184571428Y-78554819D01*
X184571428Y-79507200D02*
X184476190Y-79554819D01*
X184476190Y-79554819D02*
X184285714Y-79554819D01*
X184285714Y-79554819D02*
X184190476Y-79507200D01*
X184190476Y-79507200D02*
X184142857Y-79459580D01*
X184142857Y-79459580D02*
X184095238Y-79364342D01*
X184095238Y-79364342D02*
X184095238Y-79078628D01*
X184095238Y-79078628D02*
X184142857Y-78983390D01*
X184142857Y-78983390D02*
X184190476Y-78935771D01*
X184190476Y-78935771D02*
X184285714Y-78888152D01*
X184285714Y-78888152D02*
X184476190Y-78888152D01*
X184476190Y-78888152D02*
X184571428Y-78935771D01*
X185000000Y-78650057D02*
X185047619Y-78602438D01*
X185047619Y-78602438D02*
X185142857Y-78554819D01*
X185142857Y-78554819D02*
X185380952Y-78554819D01*
X185380952Y-78554819D02*
X185476190Y-78602438D01*
X185476190Y-78602438D02*
X185523809Y-78650057D01*
X185523809Y-78650057D02*
X185571428Y-78745295D01*
X185571428Y-78745295D02*
X185571428Y-78840533D01*
X185571428Y-78840533D02*
X185523809Y-78983390D01*
X185523809Y-78983390D02*
X184952381Y-79554819D01*
X184952381Y-79554819D02*
X185571428Y-79554819D01*
X105292381Y-82273866D02*
X106054286Y-82273866D01*
X106387619Y-81988152D02*
X106768571Y-81988152D01*
X106530476Y-81654819D02*
X106530476Y-82511961D01*
X106530476Y-82511961D02*
X106578095Y-82607200D01*
X106578095Y-82607200D02*
X106673333Y-82654819D01*
X106673333Y-82654819D02*
X106768571Y-82654819D01*
X107244762Y-82654819D02*
X107149524Y-82607200D01*
X107149524Y-82607200D02*
X107101905Y-82559580D01*
X107101905Y-82559580D02*
X107054286Y-82464342D01*
X107054286Y-82464342D02*
X107054286Y-82178628D01*
X107054286Y-82178628D02*
X107101905Y-82083390D01*
X107101905Y-82083390D02*
X107149524Y-82035771D01*
X107149524Y-82035771D02*
X107244762Y-81988152D01*
X107244762Y-81988152D02*
X107387619Y-81988152D01*
X107387619Y-81988152D02*
X107482857Y-82035771D01*
X107482857Y-82035771D02*
X107530476Y-82083390D01*
X107530476Y-82083390D02*
X107578095Y-82178628D01*
X107578095Y-82178628D02*
X107578095Y-82464342D01*
X107578095Y-82464342D02*
X107530476Y-82559580D01*
X107530476Y-82559580D02*
X107482857Y-82607200D01*
X107482857Y-82607200D02*
X107387619Y-82654819D01*
X107387619Y-82654819D02*
X107244762Y-82654819D01*
X108006667Y-82273866D02*
X108768572Y-82273866D01*
X109673333Y-82654819D02*
X109673333Y-81654819D01*
X109673333Y-82607200D02*
X109578095Y-82654819D01*
X109578095Y-82654819D02*
X109387619Y-82654819D01*
X109387619Y-82654819D02*
X109292381Y-82607200D01*
X109292381Y-82607200D02*
X109244762Y-82559580D01*
X109244762Y-82559580D02*
X109197143Y-82464342D01*
X109197143Y-82464342D02*
X109197143Y-82178628D01*
X109197143Y-82178628D02*
X109244762Y-82083390D01*
X109244762Y-82083390D02*
X109292381Y-82035771D01*
X109292381Y-82035771D02*
X109387619Y-81988152D01*
X109387619Y-81988152D02*
X109578095Y-81988152D01*
X109578095Y-81988152D02*
X109673333Y-82035771D01*
X110578095Y-81988152D02*
X110578095Y-82797676D01*
X110578095Y-82797676D02*
X110530476Y-82892914D01*
X110530476Y-82892914D02*
X110482857Y-82940533D01*
X110482857Y-82940533D02*
X110387619Y-82988152D01*
X110387619Y-82988152D02*
X110244762Y-82988152D01*
X110244762Y-82988152D02*
X110149524Y-82940533D01*
X110578095Y-82607200D02*
X110482857Y-82654819D01*
X110482857Y-82654819D02*
X110292381Y-82654819D01*
X110292381Y-82654819D02*
X110197143Y-82607200D01*
X110197143Y-82607200D02*
X110149524Y-82559580D01*
X110149524Y-82559580D02*
X110101905Y-82464342D01*
X110101905Y-82464342D02*
X110101905Y-82178628D01*
X110101905Y-82178628D02*
X110149524Y-82083390D01*
X110149524Y-82083390D02*
X110197143Y-82035771D01*
X110197143Y-82035771D02*
X110292381Y-81988152D01*
X110292381Y-81988152D02*
X110482857Y-81988152D01*
X110482857Y-81988152D02*
X110578095Y-82035771D01*
X111054286Y-81988152D02*
X111054286Y-82654819D01*
X111054286Y-82083390D02*
X111101905Y-82035771D01*
X111101905Y-82035771D02*
X111197143Y-81988152D01*
X111197143Y-81988152D02*
X111340000Y-81988152D01*
X111340000Y-81988152D02*
X111435238Y-82035771D01*
X111435238Y-82035771D02*
X111482857Y-82131009D01*
X111482857Y-82131009D02*
X111482857Y-82654819D01*
X112387619Y-82654819D02*
X112387619Y-81654819D01*
X112387619Y-82607200D02*
X112292381Y-82654819D01*
X112292381Y-82654819D02*
X112101905Y-82654819D01*
X112101905Y-82654819D02*
X112006667Y-82607200D01*
X112006667Y-82607200D02*
X111959048Y-82559580D01*
X111959048Y-82559580D02*
X111911429Y-82464342D01*
X111911429Y-82464342D02*
X111911429Y-82178628D01*
X111911429Y-82178628D02*
X111959048Y-82083390D01*
X111959048Y-82083390D02*
X112006667Y-82035771D01*
X112006667Y-82035771D02*
X112101905Y-81988152D01*
X112101905Y-81988152D02*
X112292381Y-81988152D01*
X112292381Y-81988152D02*
X112387619Y-82035771D01*
X89156666Y-79997200D02*
X89251904Y-80044819D01*
X89251904Y-80044819D02*
X89442380Y-80044819D01*
X89442380Y-80044819D02*
X89537618Y-79997200D01*
X89537618Y-79997200D02*
X89585237Y-79901961D01*
X89585237Y-79901961D02*
X89585237Y-79854342D01*
X89585237Y-79854342D02*
X89537618Y-79759104D01*
X89537618Y-79759104D02*
X89442380Y-79711485D01*
X89442380Y-79711485D02*
X89299523Y-79711485D01*
X89299523Y-79711485D02*
X89204285Y-79663866D01*
X89204285Y-79663866D02*
X89156666Y-79568628D01*
X89156666Y-79568628D02*
X89156666Y-79521009D01*
X89156666Y-79521009D02*
X89204285Y-79425771D01*
X89204285Y-79425771D02*
X89299523Y-79378152D01*
X89299523Y-79378152D02*
X89442380Y-79378152D01*
X89442380Y-79378152D02*
X89537618Y-79425771D01*
X90013809Y-80044819D02*
X90013809Y-79044819D01*
X90442380Y-80044819D02*
X90442380Y-79521009D01*
X90442380Y-79521009D02*
X90394761Y-79425771D01*
X90394761Y-79425771D02*
X90299523Y-79378152D01*
X90299523Y-79378152D02*
X90156666Y-79378152D01*
X90156666Y-79378152D02*
X90061428Y-79425771D01*
X90061428Y-79425771D02*
X90013809Y-79473390D01*
X90918571Y-80044819D02*
X90918571Y-79378152D01*
X90918571Y-79044819D02*
X90870952Y-79092438D01*
X90870952Y-79092438D02*
X90918571Y-79140057D01*
X90918571Y-79140057D02*
X90966190Y-79092438D01*
X90966190Y-79092438D02*
X90918571Y-79044819D01*
X90918571Y-79044819D02*
X90918571Y-79140057D01*
X91775713Y-79997200D02*
X91680475Y-80044819D01*
X91680475Y-80044819D02*
X91489999Y-80044819D01*
X91489999Y-80044819D02*
X91394761Y-79997200D01*
X91394761Y-79997200D02*
X91347142Y-79901961D01*
X91347142Y-79901961D02*
X91347142Y-79521009D01*
X91347142Y-79521009D02*
X91394761Y-79425771D01*
X91394761Y-79425771D02*
X91489999Y-79378152D01*
X91489999Y-79378152D02*
X91680475Y-79378152D01*
X91680475Y-79378152D02*
X91775713Y-79425771D01*
X91775713Y-79425771D02*
X91823332Y-79521009D01*
X91823332Y-79521009D02*
X91823332Y-79616247D01*
X91823332Y-79616247D02*
X91347142Y-79711485D01*
X92394761Y-80044819D02*
X92299523Y-79997200D01*
X92299523Y-79997200D02*
X92251904Y-79901961D01*
X92251904Y-79901961D02*
X92251904Y-79044819D01*
X93204285Y-80044819D02*
X93204285Y-79044819D01*
X93204285Y-79997200D02*
X93109047Y-80044819D01*
X93109047Y-80044819D02*
X92918571Y-80044819D01*
X92918571Y-80044819D02*
X92823333Y-79997200D01*
X92823333Y-79997200D02*
X92775714Y-79949580D01*
X92775714Y-79949580D02*
X92728095Y-79854342D01*
X92728095Y-79854342D02*
X92728095Y-79568628D01*
X92728095Y-79568628D02*
X92775714Y-79473390D01*
X92775714Y-79473390D02*
X92823333Y-79425771D01*
X92823333Y-79425771D02*
X92918571Y-79378152D01*
X92918571Y-79378152D02*
X93109047Y-79378152D01*
X93109047Y-79378152D02*
X93204285Y-79425771D01*
X93680476Y-79663866D02*
X94442381Y-79663866D01*
X94775714Y-79378152D02*
X95156666Y-79378152D01*
X94918571Y-79044819D02*
X94918571Y-79901961D01*
X94918571Y-79901961D02*
X94966190Y-79997200D01*
X94966190Y-79997200D02*
X95061428Y-80044819D01*
X95061428Y-80044819D02*
X95156666Y-80044819D01*
X95632857Y-80044819D02*
X95537619Y-79997200D01*
X95537619Y-79997200D02*
X95490000Y-79949580D01*
X95490000Y-79949580D02*
X95442381Y-79854342D01*
X95442381Y-79854342D02*
X95442381Y-79568628D01*
X95442381Y-79568628D02*
X95490000Y-79473390D01*
X95490000Y-79473390D02*
X95537619Y-79425771D01*
X95537619Y-79425771D02*
X95632857Y-79378152D01*
X95632857Y-79378152D02*
X95775714Y-79378152D01*
X95775714Y-79378152D02*
X95870952Y-79425771D01*
X95870952Y-79425771D02*
X95918571Y-79473390D01*
X95918571Y-79473390D02*
X95966190Y-79568628D01*
X95966190Y-79568628D02*
X95966190Y-79854342D01*
X95966190Y-79854342D02*
X95918571Y-79949580D01*
X95918571Y-79949580D02*
X95870952Y-79997200D01*
X95870952Y-79997200D02*
X95775714Y-80044819D01*
X95775714Y-80044819D02*
X95632857Y-80044819D01*
X96394762Y-79663866D02*
X97156667Y-79663866D01*
X98061428Y-80044819D02*
X98061428Y-79521009D01*
X98061428Y-79521009D02*
X98013809Y-79425771D01*
X98013809Y-79425771D02*
X97918571Y-79378152D01*
X97918571Y-79378152D02*
X97728095Y-79378152D01*
X97728095Y-79378152D02*
X97632857Y-79425771D01*
X98061428Y-79997200D02*
X97966190Y-80044819D01*
X97966190Y-80044819D02*
X97728095Y-80044819D01*
X97728095Y-80044819D02*
X97632857Y-79997200D01*
X97632857Y-79997200D02*
X97585238Y-79901961D01*
X97585238Y-79901961D02*
X97585238Y-79806723D01*
X97585238Y-79806723D02*
X97632857Y-79711485D01*
X97632857Y-79711485D02*
X97728095Y-79663866D01*
X97728095Y-79663866D02*
X97966190Y-79663866D01*
X97966190Y-79663866D02*
X98061428Y-79616247D01*
X98966190Y-79378152D02*
X98966190Y-80187676D01*
X98966190Y-80187676D02*
X98918571Y-80282914D01*
X98918571Y-80282914D02*
X98870952Y-80330533D01*
X98870952Y-80330533D02*
X98775714Y-80378152D01*
X98775714Y-80378152D02*
X98632857Y-80378152D01*
X98632857Y-80378152D02*
X98537619Y-80330533D01*
X98966190Y-79997200D02*
X98870952Y-80044819D01*
X98870952Y-80044819D02*
X98680476Y-80044819D01*
X98680476Y-80044819D02*
X98585238Y-79997200D01*
X98585238Y-79997200D02*
X98537619Y-79949580D01*
X98537619Y-79949580D02*
X98490000Y-79854342D01*
X98490000Y-79854342D02*
X98490000Y-79568628D01*
X98490000Y-79568628D02*
X98537619Y-79473390D01*
X98537619Y-79473390D02*
X98585238Y-79425771D01*
X98585238Y-79425771D02*
X98680476Y-79378152D01*
X98680476Y-79378152D02*
X98870952Y-79378152D01*
X98870952Y-79378152D02*
X98966190Y-79425771D01*
X99442381Y-79378152D02*
X99442381Y-80044819D01*
X99442381Y-79473390D02*
X99490000Y-79425771D01*
X99490000Y-79425771D02*
X99585238Y-79378152D01*
X99585238Y-79378152D02*
X99728095Y-79378152D01*
X99728095Y-79378152D02*
X99823333Y-79425771D01*
X99823333Y-79425771D02*
X99870952Y-79521009D01*
X99870952Y-79521009D02*
X99870952Y-80044819D01*
X100775714Y-80044819D02*
X100775714Y-79044819D01*
X100775714Y-79997200D02*
X100680476Y-80044819D01*
X100680476Y-80044819D02*
X100490000Y-80044819D01*
X100490000Y-80044819D02*
X100394762Y-79997200D01*
X100394762Y-79997200D02*
X100347143Y-79949580D01*
X100347143Y-79949580D02*
X100299524Y-79854342D01*
X100299524Y-79854342D02*
X100299524Y-79568628D01*
X100299524Y-79568628D02*
X100347143Y-79473390D01*
X100347143Y-79473390D02*
X100394762Y-79425771D01*
X100394762Y-79425771D02*
X100490000Y-79378152D01*
X100490000Y-79378152D02*
X100680476Y-79378152D01*
X100680476Y-79378152D02*
X100775714Y-79425771D01*
X182730952Y-89768152D02*
X182969047Y-90434819D01*
X182969047Y-90434819D02*
X183207142Y-89768152D01*
X184016666Y-90434819D02*
X184016666Y-89434819D01*
X184016666Y-90387200D02*
X183921428Y-90434819D01*
X183921428Y-90434819D02*
X183730952Y-90434819D01*
X183730952Y-90434819D02*
X183635714Y-90387200D01*
X183635714Y-90387200D02*
X183588095Y-90339580D01*
X183588095Y-90339580D02*
X183540476Y-90244342D01*
X183540476Y-90244342D02*
X183540476Y-89958628D01*
X183540476Y-89958628D02*
X183588095Y-89863390D01*
X183588095Y-89863390D02*
X183635714Y-89815771D01*
X183635714Y-89815771D02*
X183730952Y-89768152D01*
X183730952Y-89768152D02*
X183921428Y-89768152D01*
X183921428Y-89768152D02*
X184016666Y-89815771D01*
X184921428Y-90434819D02*
X184921428Y-89434819D01*
X184921428Y-90387200D02*
X184826190Y-90434819D01*
X184826190Y-90434819D02*
X184635714Y-90434819D01*
X184635714Y-90434819D02*
X184540476Y-90387200D01*
X184540476Y-90387200D02*
X184492857Y-90339580D01*
X184492857Y-90339580D02*
X184445238Y-90244342D01*
X184445238Y-90244342D02*
X184445238Y-89958628D01*
X184445238Y-89958628D02*
X184492857Y-89863390D01*
X184492857Y-89863390D02*
X184540476Y-89815771D01*
X184540476Y-89815771D02*
X184635714Y-89768152D01*
X184635714Y-89768152D02*
X184826190Y-89768152D01*
X184826190Y-89768152D02*
X184921428Y-89815771D01*
X185921428Y-90434819D02*
X185350000Y-90434819D01*
X185635714Y-90434819D02*
X185635714Y-89434819D01*
X185635714Y-89434819D02*
X185540476Y-89577676D01*
X185540476Y-89577676D02*
X185445238Y-89672914D01*
X185445238Y-89672914D02*
X185350000Y-89720533D01*
X165418152Y-85779047D02*
X166084819Y-85540952D01*
X166084819Y-85540952D02*
X165418152Y-85302857D01*
X166084819Y-84493333D02*
X165084819Y-84493333D01*
X166037200Y-84493333D02*
X166084819Y-84588571D01*
X166084819Y-84588571D02*
X166084819Y-84779047D01*
X166084819Y-84779047D02*
X166037200Y-84874285D01*
X166037200Y-84874285D02*
X165989580Y-84921904D01*
X165989580Y-84921904D02*
X165894342Y-84969523D01*
X165894342Y-84969523D02*
X165608628Y-84969523D01*
X165608628Y-84969523D02*
X165513390Y-84921904D01*
X165513390Y-84921904D02*
X165465771Y-84874285D01*
X165465771Y-84874285D02*
X165418152Y-84779047D01*
X165418152Y-84779047D02*
X165418152Y-84588571D01*
X165418152Y-84588571D02*
X165465771Y-84493333D01*
X166084819Y-83588571D02*
X165084819Y-83588571D01*
X166037200Y-83588571D02*
X166084819Y-83683809D01*
X166084819Y-83683809D02*
X166084819Y-83874285D01*
X166084819Y-83874285D02*
X166037200Y-83969523D01*
X166037200Y-83969523D02*
X165989580Y-84017142D01*
X165989580Y-84017142D02*
X165894342Y-84064761D01*
X165894342Y-84064761D02*
X165608628Y-84064761D01*
X165608628Y-84064761D02*
X165513390Y-84017142D01*
X165513390Y-84017142D02*
X165465771Y-83969523D01*
X165465771Y-83969523D02*
X165418152Y-83874285D01*
X165418152Y-83874285D02*
X165418152Y-83683809D01*
X165418152Y-83683809D02*
X165465771Y-83588571D01*
X165180057Y-83159999D02*
X165132438Y-83112380D01*
X165132438Y-83112380D02*
X165084819Y-83017142D01*
X165084819Y-83017142D02*
X165084819Y-82779047D01*
X165084819Y-82779047D02*
X165132438Y-82683809D01*
X165132438Y-82683809D02*
X165180057Y-82636190D01*
X165180057Y-82636190D02*
X165275295Y-82588571D01*
X165275295Y-82588571D02*
X165370533Y-82588571D01*
X165370533Y-82588571D02*
X165513390Y-82636190D01*
X165513390Y-82636190D02*
X166084819Y-83207618D01*
X166084819Y-83207618D02*
X166084819Y-82588571D01*
X169530952Y-112468152D02*
X169769047Y-113134819D01*
X169769047Y-113134819D02*
X170007142Y-112468152D01*
X170816666Y-113134819D02*
X170816666Y-112134819D01*
X170816666Y-113087200D02*
X170721428Y-113134819D01*
X170721428Y-113134819D02*
X170530952Y-113134819D01*
X170530952Y-113134819D02*
X170435714Y-113087200D01*
X170435714Y-113087200D02*
X170388095Y-113039580D01*
X170388095Y-113039580D02*
X170340476Y-112944342D01*
X170340476Y-112944342D02*
X170340476Y-112658628D01*
X170340476Y-112658628D02*
X170388095Y-112563390D01*
X170388095Y-112563390D02*
X170435714Y-112515771D01*
X170435714Y-112515771D02*
X170530952Y-112468152D01*
X170530952Y-112468152D02*
X170721428Y-112468152D01*
X170721428Y-112468152D02*
X170816666Y-112515771D01*
X171721428Y-113134819D02*
X171721428Y-112134819D01*
X171721428Y-113087200D02*
X171626190Y-113134819D01*
X171626190Y-113134819D02*
X171435714Y-113134819D01*
X171435714Y-113134819D02*
X171340476Y-113087200D01*
X171340476Y-113087200D02*
X171292857Y-113039580D01*
X171292857Y-113039580D02*
X171245238Y-112944342D01*
X171245238Y-112944342D02*
X171245238Y-112658628D01*
X171245238Y-112658628D02*
X171292857Y-112563390D01*
X171292857Y-112563390D02*
X171340476Y-112515771D01*
X171340476Y-112515771D02*
X171435714Y-112468152D01*
X171435714Y-112468152D02*
X171626190Y-112468152D01*
X171626190Y-112468152D02*
X171721428Y-112515771D01*
X172150000Y-112230057D02*
X172197619Y-112182438D01*
X172197619Y-112182438D02*
X172292857Y-112134819D01*
X172292857Y-112134819D02*
X172530952Y-112134819D01*
X172530952Y-112134819D02*
X172626190Y-112182438D01*
X172626190Y-112182438D02*
X172673809Y-112230057D01*
X172673809Y-112230057D02*
X172721428Y-112325295D01*
X172721428Y-112325295D02*
X172721428Y-112420533D01*
X172721428Y-112420533D02*
X172673809Y-112563390D01*
X172673809Y-112563390D02*
X172102381Y-113134819D01*
X172102381Y-113134819D02*
X172721428Y-113134819D01*
X172911905Y-113230057D02*
X173673809Y-113230057D01*
X173864286Y-113087200D02*
X173959524Y-113134819D01*
X173959524Y-113134819D02*
X174150000Y-113134819D01*
X174150000Y-113134819D02*
X174245238Y-113087200D01*
X174245238Y-113087200D02*
X174292857Y-112991961D01*
X174292857Y-112991961D02*
X174292857Y-112944342D01*
X174292857Y-112944342D02*
X174245238Y-112849104D01*
X174245238Y-112849104D02*
X174150000Y-112801485D01*
X174150000Y-112801485D02*
X174007143Y-112801485D01*
X174007143Y-112801485D02*
X173911905Y-112753866D01*
X173911905Y-112753866D02*
X173864286Y-112658628D01*
X173864286Y-112658628D02*
X173864286Y-112611009D01*
X173864286Y-112611009D02*
X173911905Y-112515771D01*
X173911905Y-112515771D02*
X174007143Y-112468152D01*
X174007143Y-112468152D02*
X174150000Y-112468152D01*
X174150000Y-112468152D02*
X174245238Y-112515771D01*
X175102381Y-113087200D02*
X175007143Y-113134819D01*
X175007143Y-113134819D02*
X174816667Y-113134819D01*
X174816667Y-113134819D02*
X174721429Y-113087200D01*
X174721429Y-113087200D02*
X174673810Y-112991961D01*
X174673810Y-112991961D02*
X174673810Y-112611009D01*
X174673810Y-112611009D02*
X174721429Y-112515771D01*
X174721429Y-112515771D02*
X174816667Y-112468152D01*
X174816667Y-112468152D02*
X175007143Y-112468152D01*
X175007143Y-112468152D02*
X175102381Y-112515771D01*
X175102381Y-112515771D02*
X175150000Y-112611009D01*
X175150000Y-112611009D02*
X175150000Y-112706247D01*
X175150000Y-112706247D02*
X174673810Y-112801485D01*
X175578572Y-112468152D02*
X175578572Y-113134819D01*
X175578572Y-112563390D02*
X175626191Y-112515771D01*
X175626191Y-112515771D02*
X175721429Y-112468152D01*
X175721429Y-112468152D02*
X175864286Y-112468152D01*
X175864286Y-112468152D02*
X175959524Y-112515771D01*
X175959524Y-112515771D02*
X176007143Y-112611009D01*
X176007143Y-112611009D02*
X176007143Y-113134819D01*
X176435715Y-113087200D02*
X176530953Y-113134819D01*
X176530953Y-113134819D02*
X176721429Y-113134819D01*
X176721429Y-113134819D02*
X176816667Y-113087200D01*
X176816667Y-113087200D02*
X176864286Y-112991961D01*
X176864286Y-112991961D02*
X176864286Y-112944342D01*
X176864286Y-112944342D02*
X176816667Y-112849104D01*
X176816667Y-112849104D02*
X176721429Y-112801485D01*
X176721429Y-112801485D02*
X176578572Y-112801485D01*
X176578572Y-112801485D02*
X176483334Y-112753866D01*
X176483334Y-112753866D02*
X176435715Y-112658628D01*
X176435715Y-112658628D02*
X176435715Y-112611009D01*
X176435715Y-112611009D02*
X176483334Y-112515771D01*
X176483334Y-112515771D02*
X176578572Y-112468152D01*
X176578572Y-112468152D02*
X176721429Y-112468152D01*
X176721429Y-112468152D02*
X176816667Y-112515771D01*
X177673810Y-113087200D02*
X177578572Y-113134819D01*
X177578572Y-113134819D02*
X177388096Y-113134819D01*
X177388096Y-113134819D02*
X177292858Y-113087200D01*
X177292858Y-113087200D02*
X177245239Y-112991961D01*
X177245239Y-112991961D02*
X177245239Y-112611009D01*
X177245239Y-112611009D02*
X177292858Y-112515771D01*
X177292858Y-112515771D02*
X177388096Y-112468152D01*
X177388096Y-112468152D02*
X177578572Y-112468152D01*
X177578572Y-112468152D02*
X177673810Y-112515771D01*
X177673810Y-112515771D02*
X177721429Y-112611009D01*
X177721429Y-112611009D02*
X177721429Y-112706247D01*
X177721429Y-112706247D02*
X177245239Y-112801485D01*
X118969996Y-112817200D02*
X118874758Y-112864819D01*
X118874758Y-112864819D02*
X118684282Y-112864819D01*
X118684282Y-112864819D02*
X118589044Y-112817200D01*
X118589044Y-112817200D02*
X118541425Y-112769580D01*
X118541425Y-112769580D02*
X118493806Y-112674342D01*
X118493806Y-112674342D02*
X118493806Y-112388628D01*
X118493806Y-112388628D02*
X118541425Y-112293390D01*
X118541425Y-112293390D02*
X118589044Y-112245771D01*
X118589044Y-112245771D02*
X118684282Y-112198152D01*
X118684282Y-112198152D02*
X118874758Y-112198152D01*
X118874758Y-112198152D02*
X118969996Y-112245771D01*
X119541425Y-112864819D02*
X119446187Y-112817200D01*
X119446187Y-112817200D02*
X119398568Y-112769580D01*
X119398568Y-112769580D02*
X119350949Y-112674342D01*
X119350949Y-112674342D02*
X119350949Y-112388628D01*
X119350949Y-112388628D02*
X119398568Y-112293390D01*
X119398568Y-112293390D02*
X119446187Y-112245771D01*
X119446187Y-112245771D02*
X119541425Y-112198152D01*
X119541425Y-112198152D02*
X119684282Y-112198152D01*
X119684282Y-112198152D02*
X119779520Y-112245771D01*
X119779520Y-112245771D02*
X119827139Y-112293390D01*
X119827139Y-112293390D02*
X119874758Y-112388628D01*
X119874758Y-112388628D02*
X119874758Y-112674342D01*
X119874758Y-112674342D02*
X119827139Y-112769580D01*
X119827139Y-112769580D02*
X119779520Y-112817200D01*
X119779520Y-112817200D02*
X119684282Y-112864819D01*
X119684282Y-112864819D02*
X119541425Y-112864819D01*
X120303330Y-112198152D02*
X120303330Y-112864819D01*
X120303330Y-112293390D02*
X120350949Y-112245771D01*
X120350949Y-112245771D02*
X120446187Y-112198152D01*
X120446187Y-112198152D02*
X120589044Y-112198152D01*
X120589044Y-112198152D02*
X120684282Y-112245771D01*
X120684282Y-112245771D02*
X120731901Y-112341009D01*
X120731901Y-112341009D02*
X120731901Y-112864819D01*
X121208092Y-112198152D02*
X121208092Y-112864819D01*
X121208092Y-112293390D02*
X121255711Y-112245771D01*
X121255711Y-112245771D02*
X121350949Y-112198152D01*
X121350949Y-112198152D02*
X121493806Y-112198152D01*
X121493806Y-112198152D02*
X121589044Y-112245771D01*
X121589044Y-112245771D02*
X121636663Y-112341009D01*
X121636663Y-112341009D02*
X121636663Y-112864819D01*
X122493806Y-112817200D02*
X122398568Y-112864819D01*
X122398568Y-112864819D02*
X122208092Y-112864819D01*
X122208092Y-112864819D02*
X122112854Y-112817200D01*
X122112854Y-112817200D02*
X122065235Y-112721961D01*
X122065235Y-112721961D02*
X122065235Y-112341009D01*
X122065235Y-112341009D02*
X122112854Y-112245771D01*
X122112854Y-112245771D02*
X122208092Y-112198152D01*
X122208092Y-112198152D02*
X122398568Y-112198152D01*
X122398568Y-112198152D02*
X122493806Y-112245771D01*
X122493806Y-112245771D02*
X122541425Y-112341009D01*
X122541425Y-112341009D02*
X122541425Y-112436247D01*
X122541425Y-112436247D02*
X122065235Y-112531485D01*
X123398568Y-112817200D02*
X123303330Y-112864819D01*
X123303330Y-112864819D02*
X123112854Y-112864819D01*
X123112854Y-112864819D02*
X123017616Y-112817200D01*
X123017616Y-112817200D02*
X122969997Y-112769580D01*
X122969997Y-112769580D02*
X122922378Y-112674342D01*
X122922378Y-112674342D02*
X122922378Y-112388628D01*
X122922378Y-112388628D02*
X122969997Y-112293390D01*
X122969997Y-112293390D02*
X123017616Y-112245771D01*
X123017616Y-112245771D02*
X123112854Y-112198152D01*
X123112854Y-112198152D02*
X123303330Y-112198152D01*
X123303330Y-112198152D02*
X123398568Y-112245771D01*
X123684283Y-112198152D02*
X124065235Y-112198152D01*
X123827140Y-111864819D02*
X123827140Y-112721961D01*
X123827140Y-112721961D02*
X123874759Y-112817200D01*
X123874759Y-112817200D02*
X123969997Y-112864819D01*
X123969997Y-112864819D02*
X124065235Y-112864819D01*
X125589045Y-112864819D02*
X125589045Y-111864819D01*
X125589045Y-112817200D02*
X125493807Y-112864819D01*
X125493807Y-112864819D02*
X125303331Y-112864819D01*
X125303331Y-112864819D02*
X125208093Y-112817200D01*
X125208093Y-112817200D02*
X125160474Y-112769580D01*
X125160474Y-112769580D02*
X125112855Y-112674342D01*
X125112855Y-112674342D02*
X125112855Y-112388628D01*
X125112855Y-112388628D02*
X125160474Y-112293390D01*
X125160474Y-112293390D02*
X125208093Y-112245771D01*
X125208093Y-112245771D02*
X125303331Y-112198152D01*
X125303331Y-112198152D02*
X125493807Y-112198152D01*
X125493807Y-112198152D02*
X125589045Y-112245771D01*
X126493807Y-112198152D02*
X126493807Y-113007676D01*
X126493807Y-113007676D02*
X126446188Y-113102914D01*
X126446188Y-113102914D02*
X126398569Y-113150533D01*
X126398569Y-113150533D02*
X126303331Y-113198152D01*
X126303331Y-113198152D02*
X126160474Y-113198152D01*
X126160474Y-113198152D02*
X126065236Y-113150533D01*
X126493807Y-112817200D02*
X126398569Y-112864819D01*
X126398569Y-112864819D02*
X126208093Y-112864819D01*
X126208093Y-112864819D02*
X126112855Y-112817200D01*
X126112855Y-112817200D02*
X126065236Y-112769580D01*
X126065236Y-112769580D02*
X126017617Y-112674342D01*
X126017617Y-112674342D02*
X126017617Y-112388628D01*
X126017617Y-112388628D02*
X126065236Y-112293390D01*
X126065236Y-112293390D02*
X126112855Y-112245771D01*
X126112855Y-112245771D02*
X126208093Y-112198152D01*
X126208093Y-112198152D02*
X126398569Y-112198152D01*
X126398569Y-112198152D02*
X126493807Y-112245771D01*
X126969998Y-112198152D02*
X126969998Y-112864819D01*
X126969998Y-112293390D02*
X127017617Y-112245771D01*
X127017617Y-112245771D02*
X127112855Y-112198152D01*
X127112855Y-112198152D02*
X127255712Y-112198152D01*
X127255712Y-112198152D02*
X127350950Y-112245771D01*
X127350950Y-112245771D02*
X127398569Y-112341009D01*
X127398569Y-112341009D02*
X127398569Y-112864819D01*
X128303331Y-112864819D02*
X128303331Y-111864819D01*
X128303331Y-112817200D02*
X128208093Y-112864819D01*
X128208093Y-112864819D02*
X128017617Y-112864819D01*
X128017617Y-112864819D02*
X127922379Y-112817200D01*
X127922379Y-112817200D02*
X127874760Y-112769580D01*
X127874760Y-112769580D02*
X127827141Y-112674342D01*
X127827141Y-112674342D02*
X127827141Y-112388628D01*
X127827141Y-112388628D02*
X127874760Y-112293390D01*
X127874760Y-112293390D02*
X127922379Y-112245771D01*
X127922379Y-112245771D02*
X128017617Y-112198152D01*
X128017617Y-112198152D02*
X128208093Y-112198152D01*
X128208093Y-112198152D02*
X128303331Y-112245771D01*
X129398570Y-112198152D02*
X129779522Y-112198152D01*
X129541427Y-111864819D02*
X129541427Y-112721961D01*
X129541427Y-112721961D02*
X129589046Y-112817200D01*
X129589046Y-112817200D02*
X129684284Y-112864819D01*
X129684284Y-112864819D02*
X129779522Y-112864819D01*
X130255713Y-112864819D02*
X130160475Y-112817200D01*
X130160475Y-112817200D02*
X130112856Y-112769580D01*
X130112856Y-112769580D02*
X130065237Y-112674342D01*
X130065237Y-112674342D02*
X130065237Y-112388628D01*
X130065237Y-112388628D02*
X130112856Y-112293390D01*
X130112856Y-112293390D02*
X130160475Y-112245771D01*
X130160475Y-112245771D02*
X130255713Y-112198152D01*
X130255713Y-112198152D02*
X130398570Y-112198152D01*
X130398570Y-112198152D02*
X130493808Y-112245771D01*
X130493808Y-112245771D02*
X130541427Y-112293390D01*
X130541427Y-112293390D02*
X130589046Y-112388628D01*
X130589046Y-112388628D02*
X130589046Y-112674342D01*
X130589046Y-112674342D02*
X130541427Y-112769580D01*
X130541427Y-112769580D02*
X130493808Y-112817200D01*
X130493808Y-112817200D02*
X130398570Y-112864819D01*
X130398570Y-112864819D02*
X130255713Y-112864819D01*
X132208094Y-112864819D02*
X132208094Y-112341009D01*
X132208094Y-112341009D02*
X132160475Y-112245771D01*
X132160475Y-112245771D02*
X132065237Y-112198152D01*
X132065237Y-112198152D02*
X131874761Y-112198152D01*
X131874761Y-112198152D02*
X131779523Y-112245771D01*
X132208094Y-112817200D02*
X132112856Y-112864819D01*
X132112856Y-112864819D02*
X131874761Y-112864819D01*
X131874761Y-112864819D02*
X131779523Y-112817200D01*
X131779523Y-112817200D02*
X131731904Y-112721961D01*
X131731904Y-112721961D02*
X131731904Y-112626723D01*
X131731904Y-112626723D02*
X131779523Y-112531485D01*
X131779523Y-112531485D02*
X131874761Y-112483866D01*
X131874761Y-112483866D02*
X132112856Y-112483866D01*
X132112856Y-112483866D02*
X132208094Y-112436247D01*
X133112856Y-112198152D02*
X133112856Y-113007676D01*
X133112856Y-113007676D02*
X133065237Y-113102914D01*
X133065237Y-113102914D02*
X133017618Y-113150533D01*
X133017618Y-113150533D02*
X132922380Y-113198152D01*
X132922380Y-113198152D02*
X132779523Y-113198152D01*
X132779523Y-113198152D02*
X132684285Y-113150533D01*
X133112856Y-112817200D02*
X133017618Y-112864819D01*
X133017618Y-112864819D02*
X132827142Y-112864819D01*
X132827142Y-112864819D02*
X132731904Y-112817200D01*
X132731904Y-112817200D02*
X132684285Y-112769580D01*
X132684285Y-112769580D02*
X132636666Y-112674342D01*
X132636666Y-112674342D02*
X132636666Y-112388628D01*
X132636666Y-112388628D02*
X132684285Y-112293390D01*
X132684285Y-112293390D02*
X132731904Y-112245771D01*
X132731904Y-112245771D02*
X132827142Y-112198152D01*
X132827142Y-112198152D02*
X133017618Y-112198152D01*
X133017618Y-112198152D02*
X133112856Y-112245771D01*
X133589047Y-112198152D02*
X133589047Y-112864819D01*
X133589047Y-112293390D02*
X133636666Y-112245771D01*
X133636666Y-112245771D02*
X133731904Y-112198152D01*
X133731904Y-112198152D02*
X133874761Y-112198152D01*
X133874761Y-112198152D02*
X133969999Y-112245771D01*
X133969999Y-112245771D02*
X134017618Y-112341009D01*
X134017618Y-112341009D02*
X134017618Y-112864819D01*
X134922380Y-112864819D02*
X134922380Y-111864819D01*
X134922380Y-112817200D02*
X134827142Y-112864819D01*
X134827142Y-112864819D02*
X134636666Y-112864819D01*
X134636666Y-112864819D02*
X134541428Y-112817200D01*
X134541428Y-112817200D02*
X134493809Y-112769580D01*
X134493809Y-112769580D02*
X134446190Y-112674342D01*
X134446190Y-112674342D02*
X134446190Y-112388628D01*
X134446190Y-112388628D02*
X134493809Y-112293390D01*
X134493809Y-112293390D02*
X134541428Y-112245771D01*
X134541428Y-112245771D02*
X134636666Y-112198152D01*
X134636666Y-112198152D02*
X134827142Y-112198152D01*
X134827142Y-112198152D02*
X134922380Y-112245771D01*
X136017619Y-112198152D02*
X136398571Y-112198152D01*
X136160476Y-111864819D02*
X136160476Y-112721961D01*
X136160476Y-112721961D02*
X136208095Y-112817200D01*
X136208095Y-112817200D02*
X136303333Y-112864819D01*
X136303333Y-112864819D02*
X136398571Y-112864819D01*
X136731905Y-112864819D02*
X136731905Y-111864819D01*
X137160476Y-112864819D02*
X137160476Y-112341009D01*
X137160476Y-112341009D02*
X137112857Y-112245771D01*
X137112857Y-112245771D02*
X137017619Y-112198152D01*
X137017619Y-112198152D02*
X136874762Y-112198152D01*
X136874762Y-112198152D02*
X136779524Y-112245771D01*
X136779524Y-112245771D02*
X136731905Y-112293390D01*
X137636667Y-112864819D02*
X137636667Y-112198152D01*
X137636667Y-112388628D02*
X137684286Y-112293390D01*
X137684286Y-112293390D02*
X137731905Y-112245771D01*
X137731905Y-112245771D02*
X137827143Y-112198152D01*
X137827143Y-112198152D02*
X137922381Y-112198152D01*
X138684286Y-112198152D02*
X138684286Y-112864819D01*
X138255715Y-112198152D02*
X138255715Y-112721961D01*
X138255715Y-112721961D02*
X138303334Y-112817200D01*
X138303334Y-112817200D02*
X138398572Y-112864819D01*
X138398572Y-112864819D02*
X138541429Y-112864819D01*
X138541429Y-112864819D02*
X138636667Y-112817200D01*
X138636667Y-112817200D02*
X138684286Y-112769580D01*
X139779525Y-112198152D02*
X140160477Y-112198152D01*
X139922382Y-111864819D02*
X139922382Y-112721961D01*
X139922382Y-112721961D02*
X139970001Y-112817200D01*
X139970001Y-112817200D02*
X140065239Y-112864819D01*
X140065239Y-112864819D02*
X140160477Y-112864819D01*
X140493811Y-112864819D02*
X140493811Y-111864819D01*
X140922382Y-112864819D02*
X140922382Y-112341009D01*
X140922382Y-112341009D02*
X140874763Y-112245771D01*
X140874763Y-112245771D02*
X140779525Y-112198152D01*
X140779525Y-112198152D02*
X140636668Y-112198152D01*
X140636668Y-112198152D02*
X140541430Y-112245771D01*
X140541430Y-112245771D02*
X140493811Y-112293390D01*
X141779525Y-112817200D02*
X141684287Y-112864819D01*
X141684287Y-112864819D02*
X141493811Y-112864819D01*
X141493811Y-112864819D02*
X141398573Y-112817200D01*
X141398573Y-112817200D02*
X141350954Y-112721961D01*
X141350954Y-112721961D02*
X141350954Y-112341009D01*
X141350954Y-112341009D02*
X141398573Y-112245771D01*
X141398573Y-112245771D02*
X141493811Y-112198152D01*
X141493811Y-112198152D02*
X141684287Y-112198152D01*
X141684287Y-112198152D02*
X141779525Y-112245771D01*
X141779525Y-112245771D02*
X141827144Y-112341009D01*
X141827144Y-112341009D02*
X141827144Y-112436247D01*
X141827144Y-112436247D02*
X141350954Y-112531485D01*
X142208097Y-112817200D02*
X142303335Y-112864819D01*
X142303335Y-112864819D02*
X142493811Y-112864819D01*
X142493811Y-112864819D02*
X142589049Y-112817200D01*
X142589049Y-112817200D02*
X142636668Y-112721961D01*
X142636668Y-112721961D02*
X142636668Y-112674342D01*
X142636668Y-112674342D02*
X142589049Y-112579104D01*
X142589049Y-112579104D02*
X142493811Y-112531485D01*
X142493811Y-112531485D02*
X142350954Y-112531485D01*
X142350954Y-112531485D02*
X142255716Y-112483866D01*
X142255716Y-112483866D02*
X142208097Y-112388628D01*
X142208097Y-112388628D02*
X142208097Y-112341009D01*
X142208097Y-112341009D02*
X142255716Y-112245771D01*
X142255716Y-112245771D02*
X142350954Y-112198152D01*
X142350954Y-112198152D02*
X142493811Y-112198152D01*
X142493811Y-112198152D02*
X142589049Y-112245771D01*
X143446192Y-112817200D02*
X143350954Y-112864819D01*
X143350954Y-112864819D02*
X143160478Y-112864819D01*
X143160478Y-112864819D02*
X143065240Y-112817200D01*
X143065240Y-112817200D02*
X143017621Y-112721961D01*
X143017621Y-112721961D02*
X143017621Y-112341009D01*
X143017621Y-112341009D02*
X143065240Y-112245771D01*
X143065240Y-112245771D02*
X143160478Y-112198152D01*
X143160478Y-112198152D02*
X143350954Y-112198152D01*
X143350954Y-112198152D02*
X143446192Y-112245771D01*
X143446192Y-112245771D02*
X143493811Y-112341009D01*
X143493811Y-112341009D02*
X143493811Y-112436247D01*
X143493811Y-112436247D02*
X143017621Y-112531485D01*
X144874764Y-111864819D02*
X144970002Y-111864819D01*
X144970002Y-111864819D02*
X145065240Y-111912438D01*
X145065240Y-111912438D02*
X145112859Y-111960057D01*
X145112859Y-111960057D02*
X145160478Y-112055295D01*
X145160478Y-112055295D02*
X145208097Y-112245771D01*
X145208097Y-112245771D02*
X145208097Y-112483866D01*
X145208097Y-112483866D02*
X145160478Y-112674342D01*
X145160478Y-112674342D02*
X145112859Y-112769580D01*
X145112859Y-112769580D02*
X145065240Y-112817200D01*
X145065240Y-112817200D02*
X144970002Y-112864819D01*
X144970002Y-112864819D02*
X144874764Y-112864819D01*
X144874764Y-112864819D02*
X144779526Y-112817200D01*
X144779526Y-112817200D02*
X144731907Y-112769580D01*
X144731907Y-112769580D02*
X144684288Y-112674342D01*
X144684288Y-112674342D02*
X144636669Y-112483866D01*
X144636669Y-112483866D02*
X144636669Y-112245771D01*
X144636669Y-112245771D02*
X144684288Y-112055295D01*
X144684288Y-112055295D02*
X144731907Y-111960057D01*
X144731907Y-111960057D02*
X144779526Y-111912438D01*
X144779526Y-111912438D02*
X144874764Y-111864819D01*
X145779526Y-112864819D02*
X145684288Y-112817200D01*
X145684288Y-112817200D02*
X145636669Y-112769580D01*
X145636669Y-112769580D02*
X145589050Y-112674342D01*
X145589050Y-112674342D02*
X145589050Y-112388628D01*
X145589050Y-112388628D02*
X145636669Y-112293390D01*
X145636669Y-112293390D02*
X145684288Y-112245771D01*
X145684288Y-112245771D02*
X145779526Y-112198152D01*
X145779526Y-112198152D02*
X145922383Y-112198152D01*
X145922383Y-112198152D02*
X146017621Y-112245771D01*
X146017621Y-112245771D02*
X146065240Y-112293390D01*
X146065240Y-112293390D02*
X146112859Y-112388628D01*
X146112859Y-112388628D02*
X146112859Y-112674342D01*
X146112859Y-112674342D02*
X146065240Y-112769580D01*
X146065240Y-112769580D02*
X146017621Y-112817200D01*
X146017621Y-112817200D02*
X145922383Y-112864819D01*
X145922383Y-112864819D02*
X145779526Y-112864819D01*
X146541431Y-112864819D02*
X146541431Y-111864819D01*
X146970002Y-112864819D02*
X146970002Y-112341009D01*
X146970002Y-112341009D02*
X146922383Y-112245771D01*
X146922383Y-112245771D02*
X146827145Y-112198152D01*
X146827145Y-112198152D02*
X146684288Y-112198152D01*
X146684288Y-112198152D02*
X146589050Y-112245771D01*
X146589050Y-112245771D02*
X146541431Y-112293390D01*
X147446193Y-112864819D02*
X147446193Y-112198152D01*
X147446193Y-112293390D02*
X147493812Y-112245771D01*
X147493812Y-112245771D02*
X147589050Y-112198152D01*
X147589050Y-112198152D02*
X147731907Y-112198152D01*
X147731907Y-112198152D02*
X147827145Y-112245771D01*
X147827145Y-112245771D02*
X147874764Y-112341009D01*
X147874764Y-112341009D02*
X147874764Y-112864819D01*
X147874764Y-112341009D02*
X147922383Y-112245771D01*
X147922383Y-112245771D02*
X148017621Y-112198152D01*
X148017621Y-112198152D02*
X148160478Y-112198152D01*
X148160478Y-112198152D02*
X148255717Y-112245771D01*
X148255717Y-112245771D02*
X148303336Y-112341009D01*
X148303336Y-112341009D02*
X148303336Y-112864819D01*
X149541431Y-112864819D02*
X149541431Y-112198152D01*
X149541431Y-112388628D02*
X149589050Y-112293390D01*
X149589050Y-112293390D02*
X149636669Y-112245771D01*
X149636669Y-112245771D02*
X149731907Y-112198152D01*
X149731907Y-112198152D02*
X149827145Y-112198152D01*
X150541431Y-112817200D02*
X150446193Y-112864819D01*
X150446193Y-112864819D02*
X150255717Y-112864819D01*
X150255717Y-112864819D02*
X150160479Y-112817200D01*
X150160479Y-112817200D02*
X150112860Y-112721961D01*
X150112860Y-112721961D02*
X150112860Y-112341009D01*
X150112860Y-112341009D02*
X150160479Y-112245771D01*
X150160479Y-112245771D02*
X150255717Y-112198152D01*
X150255717Y-112198152D02*
X150446193Y-112198152D01*
X150446193Y-112198152D02*
X150541431Y-112245771D01*
X150541431Y-112245771D02*
X150589050Y-112341009D01*
X150589050Y-112341009D02*
X150589050Y-112436247D01*
X150589050Y-112436247D02*
X150112860Y-112531485D01*
X150970003Y-112817200D02*
X151065241Y-112864819D01*
X151065241Y-112864819D02*
X151255717Y-112864819D01*
X151255717Y-112864819D02*
X151350955Y-112817200D01*
X151350955Y-112817200D02*
X151398574Y-112721961D01*
X151398574Y-112721961D02*
X151398574Y-112674342D01*
X151398574Y-112674342D02*
X151350955Y-112579104D01*
X151350955Y-112579104D02*
X151255717Y-112531485D01*
X151255717Y-112531485D02*
X151112860Y-112531485D01*
X151112860Y-112531485D02*
X151017622Y-112483866D01*
X151017622Y-112483866D02*
X150970003Y-112388628D01*
X150970003Y-112388628D02*
X150970003Y-112341009D01*
X150970003Y-112341009D02*
X151017622Y-112245771D01*
X151017622Y-112245771D02*
X151112860Y-112198152D01*
X151112860Y-112198152D02*
X151255717Y-112198152D01*
X151255717Y-112198152D02*
X151350955Y-112245771D01*
X151827146Y-112864819D02*
X151827146Y-112198152D01*
X151827146Y-111864819D02*
X151779527Y-111912438D01*
X151779527Y-111912438D02*
X151827146Y-111960057D01*
X151827146Y-111960057D02*
X151874765Y-111912438D01*
X151874765Y-111912438D02*
X151827146Y-111864819D01*
X151827146Y-111864819D02*
X151827146Y-111960057D01*
X152255717Y-112817200D02*
X152350955Y-112864819D01*
X152350955Y-112864819D02*
X152541431Y-112864819D01*
X152541431Y-112864819D02*
X152636669Y-112817200D01*
X152636669Y-112817200D02*
X152684288Y-112721961D01*
X152684288Y-112721961D02*
X152684288Y-112674342D01*
X152684288Y-112674342D02*
X152636669Y-112579104D01*
X152636669Y-112579104D02*
X152541431Y-112531485D01*
X152541431Y-112531485D02*
X152398574Y-112531485D01*
X152398574Y-112531485D02*
X152303336Y-112483866D01*
X152303336Y-112483866D02*
X152255717Y-112388628D01*
X152255717Y-112388628D02*
X152255717Y-112341009D01*
X152255717Y-112341009D02*
X152303336Y-112245771D01*
X152303336Y-112245771D02*
X152398574Y-112198152D01*
X152398574Y-112198152D02*
X152541431Y-112198152D01*
X152541431Y-112198152D02*
X152636669Y-112245771D01*
X152970003Y-112198152D02*
X153350955Y-112198152D01*
X153112860Y-111864819D02*
X153112860Y-112721961D01*
X153112860Y-112721961D02*
X153160479Y-112817200D01*
X153160479Y-112817200D02*
X153255717Y-112864819D01*
X153255717Y-112864819D02*
X153350955Y-112864819D01*
X153827146Y-112864819D02*
X153731908Y-112817200D01*
X153731908Y-112817200D02*
X153684289Y-112769580D01*
X153684289Y-112769580D02*
X153636670Y-112674342D01*
X153636670Y-112674342D02*
X153636670Y-112388628D01*
X153636670Y-112388628D02*
X153684289Y-112293390D01*
X153684289Y-112293390D02*
X153731908Y-112245771D01*
X153731908Y-112245771D02*
X153827146Y-112198152D01*
X153827146Y-112198152D02*
X153970003Y-112198152D01*
X153970003Y-112198152D02*
X154065241Y-112245771D01*
X154065241Y-112245771D02*
X154112860Y-112293390D01*
X154112860Y-112293390D02*
X154160479Y-112388628D01*
X154160479Y-112388628D02*
X154160479Y-112674342D01*
X154160479Y-112674342D02*
X154112860Y-112769580D01*
X154112860Y-112769580D02*
X154065241Y-112817200D01*
X154065241Y-112817200D02*
X153970003Y-112864819D01*
X153970003Y-112864819D02*
X153827146Y-112864819D01*
X154589051Y-112864819D02*
X154589051Y-112198152D01*
X154589051Y-112388628D02*
X154636670Y-112293390D01*
X154636670Y-112293390D02*
X154684289Y-112245771D01*
X154684289Y-112245771D02*
X154779527Y-112198152D01*
X154779527Y-112198152D02*
X154874765Y-112198152D01*
X155922385Y-112817200D02*
X156065242Y-112864819D01*
X156065242Y-112864819D02*
X156303337Y-112864819D01*
X156303337Y-112864819D02*
X156398575Y-112817200D01*
X156398575Y-112817200D02*
X156446194Y-112769580D01*
X156446194Y-112769580D02*
X156493813Y-112674342D01*
X156493813Y-112674342D02*
X156493813Y-112579104D01*
X156493813Y-112579104D02*
X156446194Y-112483866D01*
X156446194Y-112483866D02*
X156398575Y-112436247D01*
X156398575Y-112436247D02*
X156303337Y-112388628D01*
X156303337Y-112388628D02*
X156112861Y-112341009D01*
X156112861Y-112341009D02*
X156017623Y-112293390D01*
X156017623Y-112293390D02*
X155970004Y-112245771D01*
X155970004Y-112245771D02*
X155922385Y-112150533D01*
X155922385Y-112150533D02*
X155922385Y-112055295D01*
X155922385Y-112055295D02*
X155970004Y-111960057D01*
X155970004Y-111960057D02*
X156017623Y-111912438D01*
X156017623Y-111912438D02*
X156112861Y-111864819D01*
X156112861Y-111864819D02*
X156350956Y-111864819D01*
X156350956Y-111864819D02*
X156493813Y-111912438D01*
X156922385Y-112864819D02*
X156922385Y-111864819D01*
X156922385Y-111864819D02*
X157255718Y-112579104D01*
X157255718Y-112579104D02*
X157589051Y-111864819D01*
X157589051Y-111864819D02*
X157589051Y-112864819D01*
X158065242Y-112864819D02*
X158065242Y-111864819D01*
X158065242Y-111864819D02*
X158303337Y-111864819D01*
X158303337Y-111864819D02*
X158446194Y-111912438D01*
X158446194Y-111912438D02*
X158541432Y-112007676D01*
X158541432Y-112007676D02*
X158589051Y-112102914D01*
X158589051Y-112102914D02*
X158636670Y-112293390D01*
X158636670Y-112293390D02*
X158636670Y-112436247D01*
X158636670Y-112436247D02*
X158589051Y-112626723D01*
X158589051Y-112626723D02*
X158541432Y-112721961D01*
X158541432Y-112721961D02*
X158446194Y-112817200D01*
X158446194Y-112817200D02*
X158303337Y-112864819D01*
X158303337Y-112864819D02*
X158065242Y-112864819D01*
X159017623Y-112817200D02*
X159112861Y-112864819D01*
X159112861Y-112864819D02*
X159303337Y-112864819D01*
X159303337Y-112864819D02*
X159398575Y-112817200D01*
X159398575Y-112817200D02*
X159446194Y-112721961D01*
X159446194Y-112721961D02*
X159446194Y-112674342D01*
X159446194Y-112674342D02*
X159398575Y-112579104D01*
X159398575Y-112579104D02*
X159303337Y-112531485D01*
X159303337Y-112531485D02*
X159160480Y-112531485D01*
X159160480Y-112531485D02*
X159065242Y-112483866D01*
X159065242Y-112483866D02*
X159017623Y-112388628D01*
X159017623Y-112388628D02*
X159017623Y-112341009D01*
X159017623Y-112341009D02*
X159065242Y-112245771D01*
X159065242Y-112245771D02*
X159160480Y-112198152D01*
X159160480Y-112198152D02*
X159303337Y-112198152D01*
X159303337Y-112198152D02*
X159398575Y-112245771D01*
X118030952Y-90857200D02*
X118173809Y-90904819D01*
X118173809Y-90904819D02*
X118411904Y-90904819D01*
X118411904Y-90904819D02*
X118507142Y-90857200D01*
X118507142Y-90857200D02*
X118554761Y-90809580D01*
X118554761Y-90809580D02*
X118602380Y-90714342D01*
X118602380Y-90714342D02*
X118602380Y-90619104D01*
X118602380Y-90619104D02*
X118554761Y-90523866D01*
X118554761Y-90523866D02*
X118507142Y-90476247D01*
X118507142Y-90476247D02*
X118411904Y-90428628D01*
X118411904Y-90428628D02*
X118221428Y-90381009D01*
X118221428Y-90381009D02*
X118126190Y-90333390D01*
X118126190Y-90333390D02*
X118078571Y-90285771D01*
X118078571Y-90285771D02*
X118030952Y-90190533D01*
X118030952Y-90190533D02*
X118030952Y-90095295D01*
X118030952Y-90095295D02*
X118078571Y-90000057D01*
X118078571Y-90000057D02*
X118126190Y-89952438D01*
X118126190Y-89952438D02*
X118221428Y-89904819D01*
X118221428Y-89904819D02*
X118459523Y-89904819D01*
X118459523Y-89904819D02*
X118602380Y-89952438D01*
X118983333Y-90619104D02*
X119459523Y-90619104D01*
X118888095Y-90904819D02*
X119221428Y-89904819D01*
X119221428Y-89904819D02*
X119554761Y-90904819D01*
X120459523Y-90809580D02*
X120411904Y-90857200D01*
X120411904Y-90857200D02*
X120269047Y-90904819D01*
X120269047Y-90904819D02*
X120173809Y-90904819D01*
X120173809Y-90904819D02*
X120030952Y-90857200D01*
X120030952Y-90857200D02*
X119935714Y-90761961D01*
X119935714Y-90761961D02*
X119888095Y-90666723D01*
X119888095Y-90666723D02*
X119840476Y-90476247D01*
X119840476Y-90476247D02*
X119840476Y-90333390D01*
X119840476Y-90333390D02*
X119888095Y-90142914D01*
X119888095Y-90142914D02*
X119935714Y-90047676D01*
X119935714Y-90047676D02*
X120030952Y-89952438D01*
X120030952Y-89952438D02*
X120173809Y-89904819D01*
X120173809Y-89904819D02*
X120269047Y-89904819D01*
X120269047Y-89904819D02*
X120411904Y-89952438D01*
X120411904Y-89952438D02*
X120459523Y-90000057D01*
X120888095Y-90904819D02*
X120888095Y-89904819D01*
X122269047Y-90904819D02*
X122173809Y-90857200D01*
X122173809Y-90857200D02*
X122126190Y-90761961D01*
X122126190Y-90761961D02*
X122126190Y-89904819D01*
X122650000Y-90904819D02*
X122650000Y-90238152D01*
X122650000Y-89904819D02*
X122602381Y-89952438D01*
X122602381Y-89952438D02*
X122650000Y-90000057D01*
X122650000Y-90000057D02*
X122697619Y-89952438D01*
X122697619Y-89952438D02*
X122650000Y-89904819D01*
X122650000Y-89904819D02*
X122650000Y-90000057D01*
X123126190Y-90238152D02*
X123126190Y-90904819D01*
X123126190Y-90333390D02*
X123173809Y-90285771D01*
X123173809Y-90285771D02*
X123269047Y-90238152D01*
X123269047Y-90238152D02*
X123411904Y-90238152D01*
X123411904Y-90238152D02*
X123507142Y-90285771D01*
X123507142Y-90285771D02*
X123554761Y-90381009D01*
X123554761Y-90381009D02*
X123554761Y-90904819D01*
X124411904Y-90857200D02*
X124316666Y-90904819D01*
X124316666Y-90904819D02*
X124126190Y-90904819D01*
X124126190Y-90904819D02*
X124030952Y-90857200D01*
X124030952Y-90857200D02*
X123983333Y-90761961D01*
X123983333Y-90761961D02*
X123983333Y-90381009D01*
X123983333Y-90381009D02*
X124030952Y-90285771D01*
X124030952Y-90285771D02*
X124126190Y-90238152D01*
X124126190Y-90238152D02*
X124316666Y-90238152D01*
X124316666Y-90238152D02*
X124411904Y-90285771D01*
X124411904Y-90285771D02*
X124459523Y-90381009D01*
X124459523Y-90381009D02*
X124459523Y-90476247D01*
X124459523Y-90476247D02*
X123983333Y-90571485D01*
X124840476Y-90857200D02*
X124935714Y-90904819D01*
X124935714Y-90904819D02*
X125126190Y-90904819D01*
X125126190Y-90904819D02*
X125221428Y-90857200D01*
X125221428Y-90857200D02*
X125269047Y-90761961D01*
X125269047Y-90761961D02*
X125269047Y-90714342D01*
X125269047Y-90714342D02*
X125221428Y-90619104D01*
X125221428Y-90619104D02*
X125126190Y-90571485D01*
X125126190Y-90571485D02*
X124983333Y-90571485D01*
X124983333Y-90571485D02*
X124888095Y-90523866D01*
X124888095Y-90523866D02*
X124840476Y-90428628D01*
X124840476Y-90428628D02*
X124840476Y-90381009D01*
X124840476Y-90381009D02*
X124888095Y-90285771D01*
X124888095Y-90285771D02*
X124983333Y-90238152D01*
X124983333Y-90238152D02*
X125126190Y-90238152D01*
X125126190Y-90238152D02*
X125221428Y-90285771D01*
X165358152Y-91259047D02*
X166024819Y-91020952D01*
X166024819Y-91020952D02*
X165358152Y-90782857D01*
X166024819Y-89973333D02*
X165024819Y-89973333D01*
X165977200Y-89973333D02*
X166024819Y-90068571D01*
X166024819Y-90068571D02*
X166024819Y-90259047D01*
X166024819Y-90259047D02*
X165977200Y-90354285D01*
X165977200Y-90354285D02*
X165929580Y-90401904D01*
X165929580Y-90401904D02*
X165834342Y-90449523D01*
X165834342Y-90449523D02*
X165548628Y-90449523D01*
X165548628Y-90449523D02*
X165453390Y-90401904D01*
X165453390Y-90401904D02*
X165405771Y-90354285D01*
X165405771Y-90354285D02*
X165358152Y-90259047D01*
X165358152Y-90259047D02*
X165358152Y-90068571D01*
X165358152Y-90068571D02*
X165405771Y-89973333D01*
X166024819Y-89068571D02*
X165024819Y-89068571D01*
X165977200Y-89068571D02*
X166024819Y-89163809D01*
X166024819Y-89163809D02*
X166024819Y-89354285D01*
X166024819Y-89354285D02*
X165977200Y-89449523D01*
X165977200Y-89449523D02*
X165929580Y-89497142D01*
X165929580Y-89497142D02*
X165834342Y-89544761D01*
X165834342Y-89544761D02*
X165548628Y-89544761D01*
X165548628Y-89544761D02*
X165453390Y-89497142D01*
X165453390Y-89497142D02*
X165405771Y-89449523D01*
X165405771Y-89449523D02*
X165358152Y-89354285D01*
X165358152Y-89354285D02*
X165358152Y-89163809D01*
X165358152Y-89163809D02*
X165405771Y-89068571D01*
X166024819Y-88068571D02*
X166024819Y-88639999D01*
X166024819Y-88354285D02*
X165024819Y-88354285D01*
X165024819Y-88354285D02*
X165167676Y-88449523D01*
X165167676Y-88449523D02*
X165262914Y-88544761D01*
X165262914Y-88544761D02*
X165310533Y-88639999D01*
X145028094Y-90459819D02*
X145028094Y-89459819D01*
X145028094Y-90412200D02*
X144932856Y-90459819D01*
X144932856Y-90459819D02*
X144742380Y-90459819D01*
X144742380Y-90459819D02*
X144647142Y-90412200D01*
X144647142Y-90412200D02*
X144599523Y-90364580D01*
X144599523Y-90364580D02*
X144551904Y-90269342D01*
X144551904Y-90269342D02*
X144551904Y-89983628D01*
X144551904Y-89983628D02*
X144599523Y-89888390D01*
X144599523Y-89888390D02*
X144647142Y-89840771D01*
X144647142Y-89840771D02*
X144742380Y-89793152D01*
X144742380Y-89793152D02*
X144932856Y-89793152D01*
X144932856Y-89793152D02*
X145028094Y-89840771D01*
X145932856Y-90459819D02*
X145932856Y-89936009D01*
X145932856Y-89936009D02*
X145885237Y-89840771D01*
X145885237Y-89840771D02*
X145789999Y-89793152D01*
X145789999Y-89793152D02*
X145599523Y-89793152D01*
X145599523Y-89793152D02*
X145504285Y-89840771D01*
X145932856Y-90412200D02*
X145837618Y-90459819D01*
X145837618Y-90459819D02*
X145599523Y-90459819D01*
X145599523Y-90459819D02*
X145504285Y-90412200D01*
X145504285Y-90412200D02*
X145456666Y-90316961D01*
X145456666Y-90316961D02*
X145456666Y-90221723D01*
X145456666Y-90221723D02*
X145504285Y-90126485D01*
X145504285Y-90126485D02*
X145599523Y-90078866D01*
X145599523Y-90078866D02*
X145837618Y-90078866D01*
X145837618Y-90078866D02*
X145932856Y-90031247D01*
X146266190Y-89793152D02*
X146647142Y-89793152D01*
X146409047Y-89459819D02*
X146409047Y-90316961D01*
X146409047Y-90316961D02*
X146456666Y-90412200D01*
X146456666Y-90412200D02*
X146551904Y-90459819D01*
X146551904Y-90459819D02*
X146647142Y-90459819D01*
X147409047Y-90459819D02*
X147409047Y-89936009D01*
X147409047Y-89936009D02*
X147361428Y-89840771D01*
X147361428Y-89840771D02*
X147266190Y-89793152D01*
X147266190Y-89793152D02*
X147075714Y-89793152D01*
X147075714Y-89793152D02*
X146980476Y-89840771D01*
X147409047Y-90412200D02*
X147313809Y-90459819D01*
X147313809Y-90459819D02*
X147075714Y-90459819D01*
X147075714Y-90459819D02*
X146980476Y-90412200D01*
X146980476Y-90412200D02*
X146932857Y-90316961D01*
X146932857Y-90316961D02*
X146932857Y-90221723D01*
X146932857Y-90221723D02*
X146980476Y-90126485D01*
X146980476Y-90126485D02*
X147075714Y-90078866D01*
X147075714Y-90078866D02*
X147313809Y-90078866D01*
X147313809Y-90078866D02*
X147409047Y-90031247D01*
X148790000Y-90459819D02*
X148694762Y-90412200D01*
X148694762Y-90412200D02*
X148647143Y-90316961D01*
X148647143Y-90316961D02*
X148647143Y-89459819D01*
X149170953Y-90459819D02*
X149170953Y-89793152D01*
X149170953Y-89459819D02*
X149123334Y-89507438D01*
X149123334Y-89507438D02*
X149170953Y-89555057D01*
X149170953Y-89555057D02*
X149218572Y-89507438D01*
X149218572Y-89507438D02*
X149170953Y-89459819D01*
X149170953Y-89459819D02*
X149170953Y-89555057D01*
X149647143Y-89793152D02*
X149647143Y-90459819D01*
X149647143Y-89888390D02*
X149694762Y-89840771D01*
X149694762Y-89840771D02*
X149790000Y-89793152D01*
X149790000Y-89793152D02*
X149932857Y-89793152D01*
X149932857Y-89793152D02*
X150028095Y-89840771D01*
X150028095Y-89840771D02*
X150075714Y-89936009D01*
X150075714Y-89936009D02*
X150075714Y-90459819D01*
X150932857Y-90412200D02*
X150837619Y-90459819D01*
X150837619Y-90459819D02*
X150647143Y-90459819D01*
X150647143Y-90459819D02*
X150551905Y-90412200D01*
X150551905Y-90412200D02*
X150504286Y-90316961D01*
X150504286Y-90316961D02*
X150504286Y-89936009D01*
X150504286Y-89936009D02*
X150551905Y-89840771D01*
X150551905Y-89840771D02*
X150647143Y-89793152D01*
X150647143Y-89793152D02*
X150837619Y-89793152D01*
X150837619Y-89793152D02*
X150932857Y-89840771D01*
X150932857Y-89840771D02*
X150980476Y-89936009D01*
X150980476Y-89936009D02*
X150980476Y-90031247D01*
X150980476Y-90031247D02*
X150504286Y-90126485D01*
X151361429Y-90412200D02*
X151456667Y-90459819D01*
X151456667Y-90459819D02*
X151647143Y-90459819D01*
X151647143Y-90459819D02*
X151742381Y-90412200D01*
X151742381Y-90412200D02*
X151790000Y-90316961D01*
X151790000Y-90316961D02*
X151790000Y-90269342D01*
X151790000Y-90269342D02*
X151742381Y-90174104D01*
X151742381Y-90174104D02*
X151647143Y-90126485D01*
X151647143Y-90126485D02*
X151504286Y-90126485D01*
X151504286Y-90126485D02*
X151409048Y-90078866D01*
X151409048Y-90078866D02*
X151361429Y-89983628D01*
X151361429Y-89983628D02*
X151361429Y-89936009D01*
X151361429Y-89936009D02*
X151409048Y-89840771D01*
X151409048Y-89840771D02*
X151504286Y-89793152D01*
X151504286Y-89793152D02*
X151647143Y-89793152D01*
X151647143Y-89793152D02*
X151742381Y-89840771D01*
X153409048Y-90459819D02*
X153409048Y-89936009D01*
X153409048Y-89936009D02*
X153361429Y-89840771D01*
X153361429Y-89840771D02*
X153266191Y-89793152D01*
X153266191Y-89793152D02*
X153075715Y-89793152D01*
X153075715Y-89793152D02*
X152980477Y-89840771D01*
X153409048Y-90412200D02*
X153313810Y-90459819D01*
X153313810Y-90459819D02*
X153075715Y-90459819D01*
X153075715Y-90459819D02*
X152980477Y-90412200D01*
X152980477Y-90412200D02*
X152932858Y-90316961D01*
X152932858Y-90316961D02*
X152932858Y-90221723D01*
X152932858Y-90221723D02*
X152980477Y-90126485D01*
X152980477Y-90126485D02*
X153075715Y-90078866D01*
X153075715Y-90078866D02*
X153313810Y-90078866D01*
X153313810Y-90078866D02*
X153409048Y-90031247D01*
X153885239Y-89793152D02*
X153885239Y-90459819D01*
X153885239Y-89888390D02*
X153932858Y-89840771D01*
X153932858Y-89840771D02*
X154028096Y-89793152D01*
X154028096Y-89793152D02*
X154170953Y-89793152D01*
X154170953Y-89793152D02*
X154266191Y-89840771D01*
X154266191Y-89840771D02*
X154313810Y-89936009D01*
X154313810Y-89936009D02*
X154313810Y-90459819D01*
X155218572Y-90459819D02*
X155218572Y-89459819D01*
X155218572Y-90412200D02*
X155123334Y-90459819D01*
X155123334Y-90459819D02*
X154932858Y-90459819D01*
X154932858Y-90459819D02*
X154837620Y-90412200D01*
X154837620Y-90412200D02*
X154790001Y-90364580D01*
X154790001Y-90364580D02*
X154742382Y-90269342D01*
X154742382Y-90269342D02*
X154742382Y-89983628D01*
X154742382Y-89983628D02*
X154790001Y-89888390D01*
X154790001Y-89888390D02*
X154837620Y-89840771D01*
X154837620Y-89840771D02*
X154932858Y-89793152D01*
X154932858Y-89793152D02*
X155123334Y-89793152D01*
X155123334Y-89793152D02*
X155218572Y-89840771D01*
X144218571Y-92069819D02*
X144218571Y-91069819D01*
X144647142Y-92069819D02*
X144647142Y-91546009D01*
X144647142Y-91546009D02*
X144599523Y-91450771D01*
X144599523Y-91450771D02*
X144504285Y-91403152D01*
X144504285Y-91403152D02*
X144361428Y-91403152D01*
X144361428Y-91403152D02*
X144266190Y-91450771D01*
X144266190Y-91450771D02*
X144218571Y-91498390D01*
X145123333Y-92069819D02*
X145123333Y-91403152D01*
X145123333Y-91069819D02*
X145075714Y-91117438D01*
X145075714Y-91117438D02*
X145123333Y-91165057D01*
X145123333Y-91165057D02*
X145170952Y-91117438D01*
X145170952Y-91117438D02*
X145123333Y-91069819D01*
X145123333Y-91069819D02*
X145123333Y-91165057D01*
X146028094Y-91403152D02*
X146028094Y-92212676D01*
X146028094Y-92212676D02*
X145980475Y-92307914D01*
X145980475Y-92307914D02*
X145932856Y-92355533D01*
X145932856Y-92355533D02*
X145837618Y-92403152D01*
X145837618Y-92403152D02*
X145694761Y-92403152D01*
X145694761Y-92403152D02*
X145599523Y-92355533D01*
X146028094Y-92022200D02*
X145932856Y-92069819D01*
X145932856Y-92069819D02*
X145742380Y-92069819D01*
X145742380Y-92069819D02*
X145647142Y-92022200D01*
X145647142Y-92022200D02*
X145599523Y-91974580D01*
X145599523Y-91974580D02*
X145551904Y-91879342D01*
X145551904Y-91879342D02*
X145551904Y-91593628D01*
X145551904Y-91593628D02*
X145599523Y-91498390D01*
X145599523Y-91498390D02*
X145647142Y-91450771D01*
X145647142Y-91450771D02*
X145742380Y-91403152D01*
X145742380Y-91403152D02*
X145932856Y-91403152D01*
X145932856Y-91403152D02*
X146028094Y-91450771D01*
X146504285Y-92069819D02*
X146504285Y-91069819D01*
X146932856Y-92069819D02*
X146932856Y-91546009D01*
X146932856Y-91546009D02*
X146885237Y-91450771D01*
X146885237Y-91450771D02*
X146789999Y-91403152D01*
X146789999Y-91403152D02*
X146647142Y-91403152D01*
X146647142Y-91403152D02*
X146551904Y-91450771D01*
X146551904Y-91450771D02*
X146504285Y-91498390D01*
X148123333Y-92022200D02*
X148218571Y-92069819D01*
X148218571Y-92069819D02*
X148409047Y-92069819D01*
X148409047Y-92069819D02*
X148504285Y-92022200D01*
X148504285Y-92022200D02*
X148551904Y-91926961D01*
X148551904Y-91926961D02*
X148551904Y-91879342D01*
X148551904Y-91879342D02*
X148504285Y-91784104D01*
X148504285Y-91784104D02*
X148409047Y-91736485D01*
X148409047Y-91736485D02*
X148266190Y-91736485D01*
X148266190Y-91736485D02*
X148170952Y-91688866D01*
X148170952Y-91688866D02*
X148123333Y-91593628D01*
X148123333Y-91593628D02*
X148123333Y-91546009D01*
X148123333Y-91546009D02*
X148170952Y-91450771D01*
X148170952Y-91450771D02*
X148266190Y-91403152D01*
X148266190Y-91403152D02*
X148409047Y-91403152D01*
X148409047Y-91403152D02*
X148504285Y-91450771D01*
X148980476Y-91403152D02*
X148980476Y-92403152D01*
X148980476Y-91450771D02*
X149075714Y-91403152D01*
X149075714Y-91403152D02*
X149266190Y-91403152D01*
X149266190Y-91403152D02*
X149361428Y-91450771D01*
X149361428Y-91450771D02*
X149409047Y-91498390D01*
X149409047Y-91498390D02*
X149456666Y-91593628D01*
X149456666Y-91593628D02*
X149456666Y-91879342D01*
X149456666Y-91879342D02*
X149409047Y-91974580D01*
X149409047Y-91974580D02*
X149361428Y-92022200D01*
X149361428Y-92022200D02*
X149266190Y-92069819D01*
X149266190Y-92069819D02*
X149075714Y-92069819D01*
X149075714Y-92069819D02*
X148980476Y-92022200D01*
X150266190Y-92022200D02*
X150170952Y-92069819D01*
X150170952Y-92069819D02*
X149980476Y-92069819D01*
X149980476Y-92069819D02*
X149885238Y-92022200D01*
X149885238Y-92022200D02*
X149837619Y-91926961D01*
X149837619Y-91926961D02*
X149837619Y-91546009D01*
X149837619Y-91546009D02*
X149885238Y-91450771D01*
X149885238Y-91450771D02*
X149980476Y-91403152D01*
X149980476Y-91403152D02*
X150170952Y-91403152D01*
X150170952Y-91403152D02*
X150266190Y-91450771D01*
X150266190Y-91450771D02*
X150313809Y-91546009D01*
X150313809Y-91546009D02*
X150313809Y-91641247D01*
X150313809Y-91641247D02*
X149837619Y-91736485D01*
X151123333Y-92022200D02*
X151028095Y-92069819D01*
X151028095Y-92069819D02*
X150837619Y-92069819D01*
X150837619Y-92069819D02*
X150742381Y-92022200D01*
X150742381Y-92022200D02*
X150694762Y-91926961D01*
X150694762Y-91926961D02*
X150694762Y-91546009D01*
X150694762Y-91546009D02*
X150742381Y-91450771D01*
X150742381Y-91450771D02*
X150837619Y-91403152D01*
X150837619Y-91403152D02*
X151028095Y-91403152D01*
X151028095Y-91403152D02*
X151123333Y-91450771D01*
X151123333Y-91450771D02*
X151170952Y-91546009D01*
X151170952Y-91546009D02*
X151170952Y-91641247D01*
X151170952Y-91641247D02*
X150694762Y-91736485D01*
X152028095Y-92069819D02*
X152028095Y-91069819D01*
X152028095Y-92022200D02*
X151932857Y-92069819D01*
X151932857Y-92069819D02*
X151742381Y-92069819D01*
X151742381Y-92069819D02*
X151647143Y-92022200D01*
X151647143Y-92022200D02*
X151599524Y-91974580D01*
X151599524Y-91974580D02*
X151551905Y-91879342D01*
X151551905Y-91879342D02*
X151551905Y-91593628D01*
X151551905Y-91593628D02*
X151599524Y-91498390D01*
X151599524Y-91498390D02*
X151647143Y-91450771D01*
X151647143Y-91450771D02*
X151742381Y-91403152D01*
X151742381Y-91403152D02*
X151932857Y-91403152D01*
X151932857Y-91403152D02*
X152028095Y-91450771D01*
X153409048Y-92069819D02*
X153313810Y-92022200D01*
X153313810Y-92022200D02*
X153266191Y-91926961D01*
X153266191Y-91926961D02*
X153266191Y-91069819D01*
X153790001Y-92069819D02*
X153790001Y-91403152D01*
X153790001Y-91069819D02*
X153742382Y-91117438D01*
X153742382Y-91117438D02*
X153790001Y-91165057D01*
X153790001Y-91165057D02*
X153837620Y-91117438D01*
X153837620Y-91117438D02*
X153790001Y-91069819D01*
X153790001Y-91069819D02*
X153790001Y-91165057D01*
X154266191Y-91403152D02*
X154266191Y-92069819D01*
X154266191Y-91498390D02*
X154313810Y-91450771D01*
X154313810Y-91450771D02*
X154409048Y-91403152D01*
X154409048Y-91403152D02*
X154551905Y-91403152D01*
X154551905Y-91403152D02*
X154647143Y-91450771D01*
X154647143Y-91450771D02*
X154694762Y-91546009D01*
X154694762Y-91546009D02*
X154694762Y-92069819D01*
X155551905Y-92022200D02*
X155456667Y-92069819D01*
X155456667Y-92069819D02*
X155266191Y-92069819D01*
X155266191Y-92069819D02*
X155170953Y-92022200D01*
X155170953Y-92022200D02*
X155123334Y-91926961D01*
X155123334Y-91926961D02*
X155123334Y-91546009D01*
X155123334Y-91546009D02*
X155170953Y-91450771D01*
X155170953Y-91450771D02*
X155266191Y-91403152D01*
X155266191Y-91403152D02*
X155456667Y-91403152D01*
X155456667Y-91403152D02*
X155551905Y-91450771D01*
X155551905Y-91450771D02*
X155599524Y-91546009D01*
X155599524Y-91546009D02*
X155599524Y-91641247D01*
X155599524Y-91641247D02*
X155123334Y-91736485D01*
X155980477Y-92022200D02*
X156075715Y-92069819D01*
X156075715Y-92069819D02*
X156266191Y-92069819D01*
X156266191Y-92069819D02*
X156361429Y-92022200D01*
X156361429Y-92022200D02*
X156409048Y-91926961D01*
X156409048Y-91926961D02*
X156409048Y-91879342D01*
X156409048Y-91879342D02*
X156361429Y-91784104D01*
X156361429Y-91784104D02*
X156266191Y-91736485D01*
X156266191Y-91736485D02*
X156123334Y-91736485D01*
X156123334Y-91736485D02*
X156028096Y-91688866D01*
X156028096Y-91688866D02*
X155980477Y-91593628D01*
X155980477Y-91593628D02*
X155980477Y-91546009D01*
X155980477Y-91546009D02*
X156028096Y-91450771D01*
X156028096Y-91450771D02*
X156123334Y-91403152D01*
X156123334Y-91403152D02*
X156266191Y-91403152D01*
X156266191Y-91403152D02*
X156361429Y-91450771D01*
X106904819Y-98545238D02*
X106381009Y-98545238D01*
X106381009Y-98545238D02*
X106285771Y-98592857D01*
X106285771Y-98592857D02*
X106238152Y-98688095D01*
X106238152Y-98688095D02*
X106238152Y-98878571D01*
X106238152Y-98878571D02*
X106285771Y-98973809D01*
X106857200Y-98545238D02*
X106904819Y-98640476D01*
X106904819Y-98640476D02*
X106904819Y-98878571D01*
X106904819Y-98878571D02*
X106857200Y-98973809D01*
X106857200Y-98973809D02*
X106761961Y-99021428D01*
X106761961Y-99021428D02*
X106666723Y-99021428D01*
X106666723Y-99021428D02*
X106571485Y-98973809D01*
X106571485Y-98973809D02*
X106523866Y-98878571D01*
X106523866Y-98878571D02*
X106523866Y-98640476D01*
X106523866Y-98640476D02*
X106476247Y-98545238D01*
X106238152Y-98069047D02*
X106904819Y-98069047D01*
X106333390Y-98069047D02*
X106285771Y-98021428D01*
X106285771Y-98021428D02*
X106238152Y-97926190D01*
X106238152Y-97926190D02*
X106238152Y-97783333D01*
X106238152Y-97783333D02*
X106285771Y-97688095D01*
X106285771Y-97688095D02*
X106381009Y-97640476D01*
X106381009Y-97640476D02*
X106904819Y-97640476D01*
X106904819Y-96735714D02*
X106381009Y-96735714D01*
X106381009Y-96735714D02*
X106285771Y-96783333D01*
X106285771Y-96783333D02*
X106238152Y-96878571D01*
X106238152Y-96878571D02*
X106238152Y-97069047D01*
X106238152Y-97069047D02*
X106285771Y-97164285D01*
X106857200Y-96735714D02*
X106904819Y-96830952D01*
X106904819Y-96830952D02*
X106904819Y-97069047D01*
X106904819Y-97069047D02*
X106857200Y-97164285D01*
X106857200Y-97164285D02*
X106761961Y-97211904D01*
X106761961Y-97211904D02*
X106666723Y-97211904D01*
X106666723Y-97211904D02*
X106571485Y-97164285D01*
X106571485Y-97164285D02*
X106523866Y-97069047D01*
X106523866Y-97069047D02*
X106523866Y-96830952D01*
X106523866Y-96830952D02*
X106476247Y-96735714D01*
X106904819Y-96116666D02*
X106857200Y-96211904D01*
X106857200Y-96211904D02*
X106761961Y-96259523D01*
X106761961Y-96259523D02*
X105904819Y-96259523D01*
X106904819Y-95592856D02*
X106857200Y-95688094D01*
X106857200Y-95688094D02*
X106809580Y-95735713D01*
X106809580Y-95735713D02*
X106714342Y-95783332D01*
X106714342Y-95783332D02*
X106428628Y-95783332D01*
X106428628Y-95783332D02*
X106333390Y-95735713D01*
X106333390Y-95735713D02*
X106285771Y-95688094D01*
X106285771Y-95688094D02*
X106238152Y-95592856D01*
X106238152Y-95592856D02*
X106238152Y-95449999D01*
X106238152Y-95449999D02*
X106285771Y-95354761D01*
X106285771Y-95354761D02*
X106333390Y-95307142D01*
X106333390Y-95307142D02*
X106428628Y-95259523D01*
X106428628Y-95259523D02*
X106714342Y-95259523D01*
X106714342Y-95259523D02*
X106809580Y-95307142D01*
X106809580Y-95307142D02*
X106857200Y-95354761D01*
X106857200Y-95354761D02*
X106904819Y-95449999D01*
X106904819Y-95449999D02*
X106904819Y-95592856D01*
X106238152Y-94402380D02*
X107047676Y-94402380D01*
X107047676Y-94402380D02*
X107142914Y-94449999D01*
X107142914Y-94449999D02*
X107190533Y-94497618D01*
X107190533Y-94497618D02*
X107238152Y-94592856D01*
X107238152Y-94592856D02*
X107238152Y-94735713D01*
X107238152Y-94735713D02*
X107190533Y-94830951D01*
X106857200Y-94402380D02*
X106904819Y-94497618D01*
X106904819Y-94497618D02*
X106904819Y-94688094D01*
X106904819Y-94688094D02*
X106857200Y-94783332D01*
X106857200Y-94783332D02*
X106809580Y-94830951D01*
X106809580Y-94830951D02*
X106714342Y-94878570D01*
X106714342Y-94878570D02*
X106428628Y-94878570D01*
X106428628Y-94878570D02*
X106333390Y-94830951D01*
X106333390Y-94830951D02*
X106285771Y-94783332D01*
X106285771Y-94783332D02*
X106238152Y-94688094D01*
X106238152Y-94688094D02*
X106238152Y-94497618D01*
X106238152Y-94497618D02*
X106285771Y-94402380D01*
X106904819Y-93164284D02*
X106238152Y-93164284D01*
X106333390Y-93164284D02*
X106285771Y-93116665D01*
X106285771Y-93116665D02*
X106238152Y-93021427D01*
X106238152Y-93021427D02*
X106238152Y-92878570D01*
X106238152Y-92878570D02*
X106285771Y-92783332D01*
X106285771Y-92783332D02*
X106381009Y-92735713D01*
X106381009Y-92735713D02*
X106904819Y-92735713D01*
X106381009Y-92735713D02*
X106285771Y-92688094D01*
X106285771Y-92688094D02*
X106238152Y-92592856D01*
X106238152Y-92592856D02*
X106238152Y-92449999D01*
X106238152Y-92449999D02*
X106285771Y-92354760D01*
X106285771Y-92354760D02*
X106381009Y-92307141D01*
X106381009Y-92307141D02*
X106904819Y-92307141D01*
X106904819Y-91688094D02*
X106857200Y-91783332D01*
X106857200Y-91783332D02*
X106809580Y-91830951D01*
X106809580Y-91830951D02*
X106714342Y-91878570D01*
X106714342Y-91878570D02*
X106428628Y-91878570D01*
X106428628Y-91878570D02*
X106333390Y-91830951D01*
X106333390Y-91830951D02*
X106285771Y-91783332D01*
X106285771Y-91783332D02*
X106238152Y-91688094D01*
X106238152Y-91688094D02*
X106238152Y-91545237D01*
X106238152Y-91545237D02*
X106285771Y-91449999D01*
X106285771Y-91449999D02*
X106333390Y-91402380D01*
X106333390Y-91402380D02*
X106428628Y-91354761D01*
X106428628Y-91354761D02*
X106714342Y-91354761D01*
X106714342Y-91354761D02*
X106809580Y-91402380D01*
X106809580Y-91402380D02*
X106857200Y-91449999D01*
X106857200Y-91449999D02*
X106904819Y-91545237D01*
X106904819Y-91545237D02*
X106904819Y-91688094D01*
X106238152Y-90926189D02*
X106904819Y-90926189D01*
X106333390Y-90926189D02*
X106285771Y-90878570D01*
X106285771Y-90878570D02*
X106238152Y-90783332D01*
X106238152Y-90783332D02*
X106238152Y-90640475D01*
X106238152Y-90640475D02*
X106285771Y-90545237D01*
X106285771Y-90545237D02*
X106381009Y-90497618D01*
X106381009Y-90497618D02*
X106904819Y-90497618D01*
X106904819Y-90021427D02*
X106238152Y-90021427D01*
X105904819Y-90021427D02*
X105952438Y-90069046D01*
X105952438Y-90069046D02*
X106000057Y-90021427D01*
X106000057Y-90021427D02*
X105952438Y-89973808D01*
X105952438Y-89973808D02*
X105904819Y-90021427D01*
X105904819Y-90021427D02*
X106000057Y-90021427D01*
X106238152Y-89688094D02*
X106238152Y-89307142D01*
X105904819Y-89545237D02*
X106761961Y-89545237D01*
X106761961Y-89545237D02*
X106857200Y-89497618D01*
X106857200Y-89497618D02*
X106904819Y-89402380D01*
X106904819Y-89402380D02*
X106904819Y-89307142D01*
X106904819Y-88830951D02*
X106857200Y-88926189D01*
X106857200Y-88926189D02*
X106809580Y-88973808D01*
X106809580Y-88973808D02*
X106714342Y-89021427D01*
X106714342Y-89021427D02*
X106428628Y-89021427D01*
X106428628Y-89021427D02*
X106333390Y-88973808D01*
X106333390Y-88973808D02*
X106285771Y-88926189D01*
X106285771Y-88926189D02*
X106238152Y-88830951D01*
X106238152Y-88830951D02*
X106238152Y-88688094D01*
X106238152Y-88688094D02*
X106285771Y-88592856D01*
X106285771Y-88592856D02*
X106333390Y-88545237D01*
X106333390Y-88545237D02*
X106428628Y-88497618D01*
X106428628Y-88497618D02*
X106714342Y-88497618D01*
X106714342Y-88497618D02*
X106809580Y-88545237D01*
X106809580Y-88545237D02*
X106857200Y-88592856D01*
X106857200Y-88592856D02*
X106904819Y-88688094D01*
X106904819Y-88688094D02*
X106904819Y-88830951D01*
X106904819Y-88069046D02*
X106238152Y-88069046D01*
X106428628Y-88069046D02*
X106333390Y-88021427D01*
X106333390Y-88021427D02*
X106285771Y-87973808D01*
X106285771Y-87973808D02*
X106238152Y-87878570D01*
X106238152Y-87878570D02*
X106238152Y-87783332D01*
X181740952Y-100638152D02*
X181979047Y-101304819D01*
X181979047Y-101304819D02*
X182217142Y-100638152D01*
X183026666Y-101304819D02*
X183026666Y-100304819D01*
X183026666Y-101257200D02*
X182931428Y-101304819D01*
X182931428Y-101304819D02*
X182740952Y-101304819D01*
X182740952Y-101304819D02*
X182645714Y-101257200D01*
X182645714Y-101257200D02*
X182598095Y-101209580D01*
X182598095Y-101209580D02*
X182550476Y-101114342D01*
X182550476Y-101114342D02*
X182550476Y-100828628D01*
X182550476Y-100828628D02*
X182598095Y-100733390D01*
X182598095Y-100733390D02*
X182645714Y-100685771D01*
X182645714Y-100685771D02*
X182740952Y-100638152D01*
X182740952Y-100638152D02*
X182931428Y-100638152D01*
X182931428Y-100638152D02*
X183026666Y-100685771D01*
X183931428Y-101304819D02*
X183931428Y-100304819D01*
X183931428Y-101257200D02*
X183836190Y-101304819D01*
X183836190Y-101304819D02*
X183645714Y-101304819D01*
X183645714Y-101304819D02*
X183550476Y-101257200D01*
X183550476Y-101257200D02*
X183502857Y-101209580D01*
X183502857Y-101209580D02*
X183455238Y-101114342D01*
X183455238Y-101114342D02*
X183455238Y-100828628D01*
X183455238Y-100828628D02*
X183502857Y-100733390D01*
X183502857Y-100733390D02*
X183550476Y-100685771D01*
X183550476Y-100685771D02*
X183645714Y-100638152D01*
X183645714Y-100638152D02*
X183836190Y-100638152D01*
X183836190Y-100638152D02*
X183931428Y-100685771D01*
X184931428Y-101304819D02*
X184360000Y-101304819D01*
X184645714Y-101304819D02*
X184645714Y-100304819D01*
X184645714Y-100304819D02*
X184550476Y-100447676D01*
X184550476Y-100447676D02*
X184455238Y-100542914D01*
X184455238Y-100542914D02*
X184360000Y-100590533D01*
X185121905Y-101400057D02*
X185883809Y-101400057D01*
X186074286Y-101257200D02*
X186169524Y-101304819D01*
X186169524Y-101304819D02*
X186360000Y-101304819D01*
X186360000Y-101304819D02*
X186455238Y-101257200D01*
X186455238Y-101257200D02*
X186502857Y-101161961D01*
X186502857Y-101161961D02*
X186502857Y-101114342D01*
X186502857Y-101114342D02*
X186455238Y-101019104D01*
X186455238Y-101019104D02*
X186360000Y-100971485D01*
X186360000Y-100971485D02*
X186217143Y-100971485D01*
X186217143Y-100971485D02*
X186121905Y-100923866D01*
X186121905Y-100923866D02*
X186074286Y-100828628D01*
X186074286Y-100828628D02*
X186074286Y-100781009D01*
X186074286Y-100781009D02*
X186121905Y-100685771D01*
X186121905Y-100685771D02*
X186217143Y-100638152D01*
X186217143Y-100638152D02*
X186360000Y-100638152D01*
X186360000Y-100638152D02*
X186455238Y-100685771D01*
X187312381Y-101257200D02*
X187217143Y-101304819D01*
X187217143Y-101304819D02*
X187026667Y-101304819D01*
X187026667Y-101304819D02*
X186931429Y-101257200D01*
X186931429Y-101257200D02*
X186883810Y-101161961D01*
X186883810Y-101161961D02*
X186883810Y-100781009D01*
X186883810Y-100781009D02*
X186931429Y-100685771D01*
X186931429Y-100685771D02*
X187026667Y-100638152D01*
X187026667Y-100638152D02*
X187217143Y-100638152D01*
X187217143Y-100638152D02*
X187312381Y-100685771D01*
X187312381Y-100685771D02*
X187360000Y-100781009D01*
X187360000Y-100781009D02*
X187360000Y-100876247D01*
X187360000Y-100876247D02*
X186883810Y-100971485D01*
X187788572Y-100638152D02*
X187788572Y-101304819D01*
X187788572Y-100733390D02*
X187836191Y-100685771D01*
X187836191Y-100685771D02*
X187931429Y-100638152D01*
X187931429Y-100638152D02*
X188074286Y-100638152D01*
X188074286Y-100638152D02*
X188169524Y-100685771D01*
X188169524Y-100685771D02*
X188217143Y-100781009D01*
X188217143Y-100781009D02*
X188217143Y-101304819D01*
X188645715Y-101257200D02*
X188740953Y-101304819D01*
X188740953Y-101304819D02*
X188931429Y-101304819D01*
X188931429Y-101304819D02*
X189026667Y-101257200D01*
X189026667Y-101257200D02*
X189074286Y-101161961D01*
X189074286Y-101161961D02*
X189074286Y-101114342D01*
X189074286Y-101114342D02*
X189026667Y-101019104D01*
X189026667Y-101019104D02*
X188931429Y-100971485D01*
X188931429Y-100971485D02*
X188788572Y-100971485D01*
X188788572Y-100971485D02*
X188693334Y-100923866D01*
X188693334Y-100923866D02*
X188645715Y-100828628D01*
X188645715Y-100828628D02*
X188645715Y-100781009D01*
X188645715Y-100781009D02*
X188693334Y-100685771D01*
X188693334Y-100685771D02*
X188788572Y-100638152D01*
X188788572Y-100638152D02*
X188931429Y-100638152D01*
X188931429Y-100638152D02*
X189026667Y-100685771D01*
X189883810Y-101257200D02*
X189788572Y-101304819D01*
X189788572Y-101304819D02*
X189598096Y-101304819D01*
X189598096Y-101304819D02*
X189502858Y-101257200D01*
X189502858Y-101257200D02*
X189455239Y-101161961D01*
X189455239Y-101161961D02*
X189455239Y-100781009D01*
X189455239Y-100781009D02*
X189502858Y-100685771D01*
X189502858Y-100685771D02*
X189598096Y-100638152D01*
X189598096Y-100638152D02*
X189788572Y-100638152D01*
X189788572Y-100638152D02*
X189883810Y-100685771D01*
X189883810Y-100685771D02*
X189931429Y-100781009D01*
X189931429Y-100781009D02*
X189931429Y-100876247D01*
X189931429Y-100876247D02*
X189455239Y-100971485D01*
X176308152Y-103533809D02*
X176974819Y-103295714D01*
X176974819Y-103295714D02*
X176308152Y-103057619D01*
X176974819Y-102248095D02*
X175974819Y-102248095D01*
X176927200Y-102248095D02*
X176974819Y-102343333D01*
X176974819Y-102343333D02*
X176974819Y-102533809D01*
X176974819Y-102533809D02*
X176927200Y-102629047D01*
X176927200Y-102629047D02*
X176879580Y-102676666D01*
X176879580Y-102676666D02*
X176784342Y-102724285D01*
X176784342Y-102724285D02*
X176498628Y-102724285D01*
X176498628Y-102724285D02*
X176403390Y-102676666D01*
X176403390Y-102676666D02*
X176355771Y-102629047D01*
X176355771Y-102629047D02*
X176308152Y-102533809D01*
X176308152Y-102533809D02*
X176308152Y-102343333D01*
X176308152Y-102343333D02*
X176355771Y-102248095D01*
X176974819Y-101343333D02*
X175974819Y-101343333D01*
X176927200Y-101343333D02*
X176974819Y-101438571D01*
X176974819Y-101438571D02*
X176974819Y-101629047D01*
X176974819Y-101629047D02*
X176927200Y-101724285D01*
X176927200Y-101724285D02*
X176879580Y-101771904D01*
X176879580Y-101771904D02*
X176784342Y-101819523D01*
X176784342Y-101819523D02*
X176498628Y-101819523D01*
X176498628Y-101819523D02*
X176403390Y-101771904D01*
X176403390Y-101771904D02*
X176355771Y-101724285D01*
X176355771Y-101724285D02*
X176308152Y-101629047D01*
X176308152Y-101629047D02*
X176308152Y-101438571D01*
X176308152Y-101438571D02*
X176355771Y-101343333D01*
X176927200Y-100152856D02*
X176974819Y-100057618D01*
X176974819Y-100057618D02*
X176974819Y-99867142D01*
X176974819Y-99867142D02*
X176927200Y-99771904D01*
X176927200Y-99771904D02*
X176831961Y-99724285D01*
X176831961Y-99724285D02*
X176784342Y-99724285D01*
X176784342Y-99724285D02*
X176689104Y-99771904D01*
X176689104Y-99771904D02*
X176641485Y-99867142D01*
X176641485Y-99867142D02*
X176641485Y-100009999D01*
X176641485Y-100009999D02*
X176593866Y-100105237D01*
X176593866Y-100105237D02*
X176498628Y-100152856D01*
X176498628Y-100152856D02*
X176451009Y-100152856D01*
X176451009Y-100152856D02*
X176355771Y-100105237D01*
X176355771Y-100105237D02*
X176308152Y-100009999D01*
X176308152Y-100009999D02*
X176308152Y-99867142D01*
X176308152Y-99867142D02*
X176355771Y-99771904D01*
X176927200Y-98914761D02*
X176974819Y-99009999D01*
X176974819Y-99009999D02*
X176974819Y-99200475D01*
X176974819Y-99200475D02*
X176927200Y-99295713D01*
X176927200Y-99295713D02*
X176831961Y-99343332D01*
X176831961Y-99343332D02*
X176451009Y-99343332D01*
X176451009Y-99343332D02*
X176355771Y-99295713D01*
X176355771Y-99295713D02*
X176308152Y-99200475D01*
X176308152Y-99200475D02*
X176308152Y-99009999D01*
X176308152Y-99009999D02*
X176355771Y-98914761D01*
X176355771Y-98914761D02*
X176451009Y-98867142D01*
X176451009Y-98867142D02*
X176546247Y-98867142D01*
X176546247Y-98867142D02*
X176641485Y-99343332D01*
X176308152Y-98438570D02*
X176974819Y-98438570D01*
X176403390Y-98438570D02*
X176355771Y-98390951D01*
X176355771Y-98390951D02*
X176308152Y-98295713D01*
X176308152Y-98295713D02*
X176308152Y-98152856D01*
X176308152Y-98152856D02*
X176355771Y-98057618D01*
X176355771Y-98057618D02*
X176451009Y-98009999D01*
X176451009Y-98009999D02*
X176974819Y-98009999D01*
X176927200Y-97581427D02*
X176974819Y-97486189D01*
X176974819Y-97486189D02*
X176974819Y-97295713D01*
X176974819Y-97295713D02*
X176927200Y-97200475D01*
X176927200Y-97200475D02*
X176831961Y-97152856D01*
X176831961Y-97152856D02*
X176784342Y-97152856D01*
X176784342Y-97152856D02*
X176689104Y-97200475D01*
X176689104Y-97200475D02*
X176641485Y-97295713D01*
X176641485Y-97295713D02*
X176641485Y-97438570D01*
X176641485Y-97438570D02*
X176593866Y-97533808D01*
X176593866Y-97533808D02*
X176498628Y-97581427D01*
X176498628Y-97581427D02*
X176451009Y-97581427D01*
X176451009Y-97581427D02*
X176355771Y-97533808D01*
X176355771Y-97533808D02*
X176308152Y-97438570D01*
X176308152Y-97438570D02*
X176308152Y-97295713D01*
X176308152Y-97295713D02*
X176355771Y-97200475D01*
X176927200Y-96343332D02*
X176974819Y-96438570D01*
X176974819Y-96438570D02*
X176974819Y-96629046D01*
X176974819Y-96629046D02*
X176927200Y-96724284D01*
X176927200Y-96724284D02*
X176831961Y-96771903D01*
X176831961Y-96771903D02*
X176451009Y-96771903D01*
X176451009Y-96771903D02*
X176355771Y-96724284D01*
X176355771Y-96724284D02*
X176308152Y-96629046D01*
X176308152Y-96629046D02*
X176308152Y-96438570D01*
X176308152Y-96438570D02*
X176355771Y-96343332D01*
X176355771Y-96343332D02*
X176451009Y-96295713D01*
X176451009Y-96295713D02*
X176546247Y-96295713D01*
X176546247Y-96295713D02*
X176641485Y-96771903D01*
X102986666Y-79394819D02*
X102986666Y-80109104D01*
X102986666Y-80109104D02*
X102939047Y-80251961D01*
X102939047Y-80251961D02*
X102843809Y-80347200D01*
X102843809Y-80347200D02*
X102700952Y-80394819D01*
X102700952Y-80394819D02*
X102605714Y-80394819D01*
X103462857Y-80394819D02*
X103462857Y-79394819D01*
X103462857Y-79394819D02*
X103843809Y-79394819D01*
X103843809Y-79394819D02*
X103939047Y-79442438D01*
X103939047Y-79442438D02*
X103986666Y-79490057D01*
X103986666Y-79490057D02*
X104034285Y-79585295D01*
X104034285Y-79585295D02*
X104034285Y-79728152D01*
X104034285Y-79728152D02*
X103986666Y-79823390D01*
X103986666Y-79823390D02*
X103939047Y-79871009D01*
X103939047Y-79871009D02*
X103843809Y-79918628D01*
X103843809Y-79918628D02*
X103462857Y-79918628D01*
X104986666Y-80394819D02*
X104415238Y-80394819D01*
X104700952Y-80394819D02*
X104700952Y-79394819D01*
X104700952Y-79394819D02*
X104605714Y-79537676D01*
X104605714Y-79537676D02*
X104510476Y-79632914D01*
X104510476Y-79632914D02*
X104415238Y-79680533D01*
X89940475Y-68114819D02*
X89607142Y-67638628D01*
X89369047Y-68114819D02*
X89369047Y-67114819D01*
X89369047Y-67114819D02*
X89749999Y-67114819D01*
X89749999Y-67114819D02*
X89845237Y-67162438D01*
X89845237Y-67162438D02*
X89892856Y-67210057D01*
X89892856Y-67210057D02*
X89940475Y-67305295D01*
X89940475Y-67305295D02*
X89940475Y-67448152D01*
X89940475Y-67448152D02*
X89892856Y-67543390D01*
X89892856Y-67543390D02*
X89845237Y-67591009D01*
X89845237Y-67591009D02*
X89749999Y-67638628D01*
X89749999Y-67638628D02*
X89369047Y-67638628D01*
X90369047Y-67591009D02*
X90702380Y-67591009D01*
X90845237Y-68114819D02*
X90369047Y-68114819D01*
X90369047Y-68114819D02*
X90369047Y-67114819D01*
X90369047Y-67114819D02*
X90845237Y-67114819D01*
X91607142Y-67591009D02*
X91273809Y-67591009D01*
X91273809Y-68114819D02*
X91273809Y-67114819D01*
X91273809Y-67114819D02*
X91749999Y-67114819D01*
X92273809Y-67114819D02*
X92273809Y-67352914D01*
X92035714Y-67257676D02*
X92273809Y-67352914D01*
X92273809Y-67352914D02*
X92511904Y-67257676D01*
X92130952Y-67543390D02*
X92273809Y-67352914D01*
X92273809Y-67352914D02*
X92416666Y-67543390D01*
X93035714Y-67114819D02*
X93035714Y-67352914D01*
X92797619Y-67257676D02*
X93035714Y-67352914D01*
X93035714Y-67352914D02*
X93273809Y-67257676D01*
X92892857Y-67543390D02*
X93035714Y-67352914D01*
X93035714Y-67352914D02*
X93178571Y-67543390D01*
X94178571Y-68114819D02*
X93607143Y-68114819D01*
X93892857Y-68114819D02*
X93892857Y-67114819D01*
X93892857Y-67114819D02*
X93797619Y-67257676D01*
X93797619Y-67257676D02*
X93702381Y-67352914D01*
X93702381Y-67352914D02*
X93607143Y-67400533D01*
X154576533Y-106760304D02*
X154576533Y-107475872D01*
X154576533Y-107475872D02*
X154528829Y-107618985D01*
X154528829Y-107618985D02*
X154433420Y-107714395D01*
X154433420Y-107714395D02*
X154290306Y-107762099D01*
X154290306Y-107762099D02*
X154194897Y-107762099D01*
X154958169Y-106760304D02*
X155578328Y-106760304D01*
X155578328Y-106760304D02*
X155244396Y-107141940D01*
X155244396Y-107141940D02*
X155387510Y-107141940D01*
X155387510Y-107141940D02*
X155482919Y-107189645D01*
X155482919Y-107189645D02*
X155530623Y-107237349D01*
X155530623Y-107237349D02*
X155578328Y-107332758D01*
X155578328Y-107332758D02*
X155578328Y-107571281D01*
X155578328Y-107571281D02*
X155530623Y-107666690D01*
X155530623Y-107666690D02*
X155482919Y-107714395D01*
X155482919Y-107714395D02*
X155387510Y-107762099D01*
X155387510Y-107762099D02*
X155101283Y-107762099D01*
X155101283Y-107762099D02*
X155005874Y-107714395D01*
X155005874Y-107714395D02*
X154958169Y-107666690D01*
X156532418Y-107762099D02*
X155959964Y-107762099D01*
X156246191Y-107762099D02*
X156246191Y-106760304D01*
X156246191Y-106760304D02*
X156150782Y-106903418D01*
X156150782Y-106903418D02*
X156055373Y-106998827D01*
X156055373Y-106998827D02*
X155959964Y-107046531D01*
D14*
X165514839Y-107610833D02*
X166229124Y-107610833D01*
X166229124Y-107610833D02*
X166371981Y-107658452D01*
X166371981Y-107658452D02*
X166467220Y-107753690D01*
X166467220Y-107753690D02*
X166514839Y-107896547D01*
X166514839Y-107896547D02*
X166514839Y-107991785D01*
X165610077Y-107182261D02*
X165562458Y-107134642D01*
X165562458Y-107134642D02*
X165514839Y-107039404D01*
X165514839Y-107039404D02*
X165514839Y-106801309D01*
X165514839Y-106801309D02*
X165562458Y-106706071D01*
X165562458Y-106706071D02*
X165610077Y-106658452D01*
X165610077Y-106658452D02*
X165705315Y-106610833D01*
X165705315Y-106610833D02*
X165800553Y-106610833D01*
X165800553Y-106610833D02*
X165943410Y-106658452D01*
X165943410Y-106658452D02*
X166514839Y-107229880D01*
X166514839Y-107229880D02*
X166514839Y-106610833D01*
D11*
X181554819Y-110021904D02*
X181554819Y-109450476D01*
X182554819Y-109736190D02*
X181554819Y-109736190D01*
X182554819Y-109117142D02*
X181554819Y-109117142D01*
X181554819Y-109117142D02*
X181554819Y-108736190D01*
X181554819Y-108736190D02*
X181602438Y-108640952D01*
X181602438Y-108640952D02*
X181650057Y-108593333D01*
X181650057Y-108593333D02*
X181745295Y-108545714D01*
X181745295Y-108545714D02*
X181888152Y-108545714D01*
X181888152Y-108545714D02*
X181983390Y-108593333D01*
X181983390Y-108593333D02*
X182031009Y-108640952D01*
X182031009Y-108640952D02*
X182078628Y-108736190D01*
X182078628Y-108736190D02*
X182078628Y-109117142D01*
X181888152Y-107688571D02*
X182554819Y-107688571D01*
X181507200Y-107926666D02*
X182221485Y-108164761D01*
X182221485Y-108164761D02*
X182221485Y-107545714D01*
X185190475Y-106214819D02*
X184857142Y-105738628D01*
X184619047Y-106214819D02*
X184619047Y-105214819D01*
X184619047Y-105214819D02*
X184999999Y-105214819D01*
X184999999Y-105214819D02*
X185095237Y-105262438D01*
X185095237Y-105262438D02*
X185142856Y-105310057D01*
X185142856Y-105310057D02*
X185190475Y-105405295D01*
X185190475Y-105405295D02*
X185190475Y-105548152D01*
X185190475Y-105548152D02*
X185142856Y-105643390D01*
X185142856Y-105643390D02*
X185095237Y-105691009D01*
X185095237Y-105691009D02*
X184999999Y-105738628D01*
X184999999Y-105738628D02*
X184619047Y-105738628D01*
X185619047Y-105691009D02*
X185952380Y-105691009D01*
X186095237Y-106214819D02*
X185619047Y-106214819D01*
X185619047Y-106214819D02*
X185619047Y-105214819D01*
X185619047Y-105214819D02*
X186095237Y-105214819D01*
X186857142Y-105691009D02*
X186523809Y-105691009D01*
X186523809Y-106214819D02*
X186523809Y-105214819D01*
X186523809Y-105214819D02*
X186999999Y-105214819D01*
X187523809Y-105214819D02*
X187523809Y-105452914D01*
X187285714Y-105357676D02*
X187523809Y-105452914D01*
X187523809Y-105452914D02*
X187761904Y-105357676D01*
X187380952Y-105643390D02*
X187523809Y-105452914D01*
X187523809Y-105452914D02*
X187666666Y-105643390D01*
X188285714Y-105214819D02*
X188285714Y-105452914D01*
X188047619Y-105357676D02*
X188285714Y-105452914D01*
X188285714Y-105452914D02*
X188523809Y-105357676D01*
X188142857Y-105643390D02*
X188285714Y-105452914D01*
X188285714Y-105452914D02*
X188428571Y-105643390D01*
X188857143Y-105310057D02*
X188904762Y-105262438D01*
X188904762Y-105262438D02*
X189000000Y-105214819D01*
X189000000Y-105214819D02*
X189238095Y-105214819D01*
X189238095Y-105214819D02*
X189333333Y-105262438D01*
X189333333Y-105262438D02*
X189380952Y-105310057D01*
X189380952Y-105310057D02*
X189428571Y-105405295D01*
X189428571Y-105405295D02*
X189428571Y-105500533D01*
X189428571Y-105500533D02*
X189380952Y-105643390D01*
X189380952Y-105643390D02*
X188809524Y-106214819D01*
X188809524Y-106214819D02*
X189428571Y-106214819D01*
D14*
X94414839Y-96685833D02*
X95129124Y-96685833D01*
X95129124Y-96685833D02*
X95271981Y-96733452D01*
X95271981Y-96733452D02*
X95367220Y-96828690D01*
X95367220Y-96828690D02*
X95414839Y-96971547D01*
X95414839Y-96971547D02*
X95414839Y-97066785D01*
X94414839Y-96304880D02*
X94414839Y-95685833D01*
X94414839Y-95685833D02*
X94795791Y-96019166D01*
X94795791Y-96019166D02*
X94795791Y-95876309D01*
X94795791Y-95876309D02*
X94843410Y-95781071D01*
X94843410Y-95781071D02*
X94891029Y-95733452D01*
X94891029Y-95733452D02*
X94986267Y-95685833D01*
X94986267Y-95685833D02*
X95224362Y-95685833D01*
X95224362Y-95685833D02*
X95319600Y-95733452D01*
X95319600Y-95733452D02*
X95367220Y-95781071D01*
X95367220Y-95781071D02*
X95414839Y-95876309D01*
X95414839Y-95876309D02*
X95414839Y-96162023D01*
X95414839Y-96162023D02*
X95367220Y-96257261D01*
X95367220Y-96257261D02*
X95319600Y-96304880D01*
D11*
X108863333Y-86994819D02*
X108530000Y-86518628D01*
X108291905Y-86994819D02*
X108291905Y-85994819D01*
X108291905Y-85994819D02*
X108672857Y-85994819D01*
X108672857Y-85994819D02*
X108768095Y-86042438D01*
X108768095Y-86042438D02*
X108815714Y-86090057D01*
X108815714Y-86090057D02*
X108863333Y-86185295D01*
X108863333Y-86185295D02*
X108863333Y-86328152D01*
X108863333Y-86328152D02*
X108815714Y-86423390D01*
X108815714Y-86423390D02*
X108768095Y-86471009D01*
X108768095Y-86471009D02*
X108672857Y-86518628D01*
X108672857Y-86518628D02*
X108291905Y-86518628D01*
X109196667Y-85994819D02*
X109815714Y-85994819D01*
X109815714Y-85994819D02*
X109482381Y-86375771D01*
X109482381Y-86375771D02*
X109625238Y-86375771D01*
X109625238Y-86375771D02*
X109720476Y-86423390D01*
X109720476Y-86423390D02*
X109768095Y-86471009D01*
X109768095Y-86471009D02*
X109815714Y-86566247D01*
X109815714Y-86566247D02*
X109815714Y-86804342D01*
X109815714Y-86804342D02*
X109768095Y-86899580D01*
X109768095Y-86899580D02*
X109720476Y-86947200D01*
X109720476Y-86947200D02*
X109625238Y-86994819D01*
X109625238Y-86994819D02*
X109339524Y-86994819D01*
X109339524Y-86994819D02*
X109244286Y-86947200D01*
X109244286Y-86947200D02*
X109196667Y-86899580D01*
X164723333Y-93524819D02*
X164390000Y-93048628D01*
X164151905Y-93524819D02*
X164151905Y-92524819D01*
X164151905Y-92524819D02*
X164532857Y-92524819D01*
X164532857Y-92524819D02*
X164628095Y-92572438D01*
X164628095Y-92572438D02*
X164675714Y-92620057D01*
X164675714Y-92620057D02*
X164723333Y-92715295D01*
X164723333Y-92715295D02*
X164723333Y-92858152D01*
X164723333Y-92858152D02*
X164675714Y-92953390D01*
X164675714Y-92953390D02*
X164628095Y-93001009D01*
X164628095Y-93001009D02*
X164532857Y-93048628D01*
X164532857Y-93048628D02*
X164151905Y-93048628D01*
X165104286Y-92620057D02*
X165151905Y-92572438D01*
X165151905Y-92572438D02*
X165247143Y-92524819D01*
X165247143Y-92524819D02*
X165485238Y-92524819D01*
X165485238Y-92524819D02*
X165580476Y-92572438D01*
X165580476Y-92572438D02*
X165628095Y-92620057D01*
X165628095Y-92620057D02*
X165675714Y-92715295D01*
X165675714Y-92715295D02*
X165675714Y-92810533D01*
X165675714Y-92810533D02*
X165628095Y-92953390D01*
X165628095Y-92953390D02*
X165056667Y-93524819D01*
X165056667Y-93524819D02*
X165675714Y-93524819D01*
X181674819Y-88691904D02*
X181674819Y-88120476D01*
X182674819Y-88406190D02*
X181674819Y-88406190D01*
X182674819Y-87787142D02*
X181674819Y-87787142D01*
X181674819Y-87787142D02*
X181674819Y-87406190D01*
X181674819Y-87406190D02*
X181722438Y-87310952D01*
X181722438Y-87310952D02*
X181770057Y-87263333D01*
X181770057Y-87263333D02*
X181865295Y-87215714D01*
X181865295Y-87215714D02*
X182008152Y-87215714D01*
X182008152Y-87215714D02*
X182103390Y-87263333D01*
X182103390Y-87263333D02*
X182151009Y-87310952D01*
X182151009Y-87310952D02*
X182198628Y-87406190D01*
X182198628Y-87406190D02*
X182198628Y-87787142D01*
X181770057Y-86834761D02*
X181722438Y-86787142D01*
X181722438Y-86787142D02*
X181674819Y-86691904D01*
X181674819Y-86691904D02*
X181674819Y-86453809D01*
X181674819Y-86453809D02*
X181722438Y-86358571D01*
X181722438Y-86358571D02*
X181770057Y-86310952D01*
X181770057Y-86310952D02*
X181865295Y-86263333D01*
X181865295Y-86263333D02*
X181960533Y-86263333D01*
X181960533Y-86263333D02*
X182103390Y-86310952D01*
X182103390Y-86310952D02*
X182674819Y-86882380D01*
X182674819Y-86882380D02*
X182674819Y-86263333D01*
X124944819Y-109716666D02*
X124468628Y-110049999D01*
X124944819Y-110288094D02*
X123944819Y-110288094D01*
X123944819Y-110288094D02*
X123944819Y-109907142D01*
X123944819Y-109907142D02*
X123992438Y-109811904D01*
X123992438Y-109811904D02*
X124040057Y-109764285D01*
X124040057Y-109764285D02*
X124135295Y-109716666D01*
X124135295Y-109716666D02*
X124278152Y-109716666D01*
X124278152Y-109716666D02*
X124373390Y-109764285D01*
X124373390Y-109764285D02*
X124421009Y-109811904D01*
X124421009Y-109811904D02*
X124468628Y-109907142D01*
X124468628Y-109907142D02*
X124468628Y-110288094D01*
X124278152Y-108859523D02*
X124944819Y-108859523D01*
X123897200Y-109097618D02*
X124611485Y-109335713D01*
X124611485Y-109335713D02*
X124611485Y-108716666D01*
X185666666Y-68114819D02*
X185333333Y-67638628D01*
X185095238Y-68114819D02*
X185095238Y-67114819D01*
X185095238Y-67114819D02*
X185476190Y-67114819D01*
X185476190Y-67114819D02*
X185571428Y-67162438D01*
X185571428Y-67162438D02*
X185619047Y-67210057D01*
X185619047Y-67210057D02*
X185666666Y-67305295D01*
X185666666Y-67305295D02*
X185666666Y-67448152D01*
X185666666Y-67448152D02*
X185619047Y-67543390D01*
X185619047Y-67543390D02*
X185571428Y-67591009D01*
X185571428Y-67591009D02*
X185476190Y-67638628D01*
X185476190Y-67638628D02*
X185095238Y-67638628D01*
X186095238Y-67591009D02*
X186428571Y-67591009D01*
X186571428Y-68114819D02*
X186095238Y-68114819D01*
X186095238Y-68114819D02*
X186095238Y-67114819D01*
X186095238Y-67114819D02*
X186571428Y-67114819D01*
X187333333Y-67591009D02*
X187000000Y-67591009D01*
X187000000Y-68114819D02*
X187000000Y-67114819D01*
X187000000Y-67114819D02*
X187476190Y-67114819D01*
X188000000Y-67114819D02*
X188000000Y-67352914D01*
X187761905Y-67257676D02*
X188000000Y-67352914D01*
X188000000Y-67352914D02*
X188238095Y-67257676D01*
X187857143Y-67543390D02*
X188000000Y-67352914D01*
X188000000Y-67352914D02*
X188142857Y-67543390D01*
X188761905Y-67114819D02*
X188761905Y-67352914D01*
X188523810Y-67257676D02*
X188761905Y-67352914D01*
X188761905Y-67352914D02*
X189000000Y-67257676D01*
X188619048Y-67543390D02*
X188761905Y-67352914D01*
X188761905Y-67352914D02*
X188904762Y-67543390D01*
X181724819Y-77901904D02*
X181724819Y-77330476D01*
X182724819Y-77616190D02*
X181724819Y-77616190D01*
X182724819Y-76997142D02*
X181724819Y-76997142D01*
X181724819Y-76997142D02*
X181724819Y-76616190D01*
X181724819Y-76616190D02*
X181772438Y-76520952D01*
X181772438Y-76520952D02*
X181820057Y-76473333D01*
X181820057Y-76473333D02*
X181915295Y-76425714D01*
X181915295Y-76425714D02*
X182058152Y-76425714D01*
X182058152Y-76425714D02*
X182153390Y-76473333D01*
X182153390Y-76473333D02*
X182201009Y-76520952D01*
X182201009Y-76520952D02*
X182248628Y-76616190D01*
X182248628Y-76616190D02*
X182248628Y-76997142D01*
X181724819Y-76092380D02*
X181724819Y-75473333D01*
X181724819Y-75473333D02*
X182105771Y-75806666D01*
X182105771Y-75806666D02*
X182105771Y-75663809D01*
X182105771Y-75663809D02*
X182153390Y-75568571D01*
X182153390Y-75568571D02*
X182201009Y-75520952D01*
X182201009Y-75520952D02*
X182296247Y-75473333D01*
X182296247Y-75473333D02*
X182534342Y-75473333D01*
X182534342Y-75473333D02*
X182629580Y-75520952D01*
X182629580Y-75520952D02*
X182677200Y-75568571D01*
X182677200Y-75568571D02*
X182724819Y-75663809D01*
X182724819Y-75663809D02*
X182724819Y-75949523D01*
X182724819Y-75949523D02*
X182677200Y-76044761D01*
X182677200Y-76044761D02*
X182629580Y-76092380D01*
X126376533Y-106710304D02*
X126376533Y-107425872D01*
X126376533Y-107425872D02*
X126328829Y-107568985D01*
X126328829Y-107568985D02*
X126233420Y-107664395D01*
X126233420Y-107664395D02*
X126090306Y-107712099D01*
X126090306Y-107712099D02*
X125994897Y-107712099D01*
X126805874Y-106805713D02*
X126853578Y-106758009D01*
X126853578Y-106758009D02*
X126948987Y-106710304D01*
X126948987Y-106710304D02*
X127187510Y-106710304D01*
X127187510Y-106710304D02*
X127282919Y-106758009D01*
X127282919Y-106758009D02*
X127330623Y-106805713D01*
X127330623Y-106805713D02*
X127378328Y-106901122D01*
X127378328Y-106901122D02*
X127378328Y-106996531D01*
X127378328Y-106996531D02*
X127330623Y-107139645D01*
X127330623Y-107139645D02*
X126758169Y-107712099D01*
X126758169Y-107712099D02*
X127378328Y-107712099D01*
X128332418Y-107712099D02*
X127759964Y-107712099D01*
X128046191Y-107712099D02*
X128046191Y-106710304D01*
X128046191Y-106710304D02*
X127950782Y-106853418D01*
X127950782Y-106853418D02*
X127855373Y-106948827D01*
X127855373Y-106948827D02*
X127759964Y-106996531D01*
D14*
X175556839Y-85273333D02*
X176271124Y-85273333D01*
X176271124Y-85273333D02*
X176413981Y-85320952D01*
X176413981Y-85320952D02*
X176509220Y-85416190D01*
X176509220Y-85416190D02*
X176556839Y-85559047D01*
X176556839Y-85559047D02*
X176556839Y-85654285D01*
X176556839Y-84273333D02*
X176556839Y-84844761D01*
X176556839Y-84559047D02*
X175556839Y-84559047D01*
X175556839Y-84559047D02*
X175699696Y-84654285D01*
X175699696Y-84654285D02*
X175794934Y-84749523D01*
X175794934Y-84749523D02*
X175842553Y-84844761D01*
D11*
X92812719Y-75331467D02*
X92812719Y-74544065D01*
X92812719Y-74544065D02*
X93000196Y-74544065D01*
X93000196Y-74544065D02*
X93112682Y-74581560D01*
X93112682Y-74581560D02*
X93187673Y-74656551D01*
X93187673Y-74656551D02*
X93225168Y-74731542D01*
X93225168Y-74731542D02*
X93262663Y-74881523D01*
X93262663Y-74881523D02*
X93262663Y-74994009D01*
X93262663Y-74994009D02*
X93225168Y-75143990D01*
X93225168Y-75143990D02*
X93187673Y-75218981D01*
X93187673Y-75218981D02*
X93112682Y-75293972D01*
X93112682Y-75293972D02*
X93000196Y-75331467D01*
X93000196Y-75331467D02*
X92812719Y-75331467D01*
X93562626Y-75293972D02*
X93675112Y-75331467D01*
X93675112Y-75331467D02*
X93862589Y-75331467D01*
X93862589Y-75331467D02*
X93937579Y-75293972D01*
X93937579Y-75293972D02*
X93975075Y-75256476D01*
X93975075Y-75256476D02*
X94012570Y-75181486D01*
X94012570Y-75181486D02*
X94012570Y-75106495D01*
X94012570Y-75106495D02*
X93975075Y-75031504D01*
X93975075Y-75031504D02*
X93937579Y-74994009D01*
X93937579Y-74994009D02*
X93862589Y-74956514D01*
X93862589Y-74956514D02*
X93712607Y-74919018D01*
X93712607Y-74919018D02*
X93637617Y-74881523D01*
X93637617Y-74881523D02*
X93600121Y-74844028D01*
X93600121Y-74844028D02*
X93562626Y-74769037D01*
X93562626Y-74769037D02*
X93562626Y-74694046D01*
X93562626Y-74694046D02*
X93600121Y-74619056D01*
X93600121Y-74619056D02*
X93637617Y-74581560D01*
X93637617Y-74581560D02*
X93712607Y-74544065D01*
X93712607Y-74544065D02*
X93900084Y-74544065D01*
X93900084Y-74544065D02*
X94012570Y-74581560D01*
X94350028Y-74544065D02*
X94350028Y-75181486D01*
X94350028Y-75181486D02*
X94387524Y-75256476D01*
X94387524Y-75256476D02*
X94425019Y-75293972D01*
X94425019Y-75293972D02*
X94500010Y-75331467D01*
X94500010Y-75331467D02*
X94649991Y-75331467D01*
X94649991Y-75331467D02*
X94724982Y-75293972D01*
X94724982Y-75293972D02*
X94762477Y-75256476D01*
X94762477Y-75256476D02*
X94799972Y-75181486D01*
X94799972Y-75181486D02*
X94799972Y-74544065D01*
X95437393Y-74919018D02*
X95549879Y-74956514D01*
X95549879Y-74956514D02*
X95587374Y-74994009D01*
X95587374Y-74994009D02*
X95624869Y-75069000D01*
X95624869Y-75069000D02*
X95624869Y-75181486D01*
X95624869Y-75181486D02*
X95587374Y-75256476D01*
X95587374Y-75256476D02*
X95549879Y-75293972D01*
X95549879Y-75293972D02*
X95474888Y-75331467D01*
X95474888Y-75331467D02*
X95174925Y-75331467D01*
X95174925Y-75331467D02*
X95174925Y-74544065D01*
X95174925Y-74544065D02*
X95437393Y-74544065D01*
X95437393Y-74544065D02*
X95512383Y-74581560D01*
X95512383Y-74581560D02*
X95549879Y-74619056D01*
X95549879Y-74619056D02*
X95587374Y-74694046D01*
X95587374Y-74694046D02*
X95587374Y-74769037D01*
X95587374Y-74769037D02*
X95549879Y-74844028D01*
X95549879Y-74844028D02*
X95512383Y-74881523D01*
X95512383Y-74881523D02*
X95437393Y-74919018D01*
X95437393Y-74919018D02*
X95174925Y-74919018D01*
X96374776Y-75331467D02*
X95924832Y-75331467D01*
X96149804Y-75331467D02*
X96149804Y-74544065D01*
X96149804Y-74544065D02*
X96074813Y-74656551D01*
X96074813Y-74656551D02*
X95999823Y-74731542D01*
X95999823Y-74731542D02*
X95924832Y-74769037D01*
X181624819Y-99431904D02*
X181624819Y-98860476D01*
X182624819Y-99146190D02*
X181624819Y-99146190D01*
X182624819Y-98527142D02*
X181624819Y-98527142D01*
X181624819Y-98527142D02*
X181624819Y-98146190D01*
X181624819Y-98146190D02*
X181672438Y-98050952D01*
X181672438Y-98050952D02*
X181720057Y-98003333D01*
X181720057Y-98003333D02*
X181815295Y-97955714D01*
X181815295Y-97955714D02*
X181958152Y-97955714D01*
X181958152Y-97955714D02*
X182053390Y-98003333D01*
X182053390Y-98003333D02*
X182101009Y-98050952D01*
X182101009Y-98050952D02*
X182148628Y-98146190D01*
X182148628Y-98146190D02*
X182148628Y-98527142D01*
X182624819Y-97003333D02*
X182624819Y-97574761D01*
X182624819Y-97289047D02*
X181624819Y-97289047D01*
X181624819Y-97289047D02*
X181767676Y-97384285D01*
X181767676Y-97384285D02*
X181862914Y-97479523D01*
X181862914Y-97479523D02*
X181910533Y-97574761D01*
X154944819Y-109526666D02*
X154468628Y-109859999D01*
X154944819Y-110098094D02*
X153944819Y-110098094D01*
X153944819Y-110098094D02*
X153944819Y-109717142D01*
X153944819Y-109717142D02*
X153992438Y-109621904D01*
X153992438Y-109621904D02*
X154040057Y-109574285D01*
X154040057Y-109574285D02*
X154135295Y-109526666D01*
X154135295Y-109526666D02*
X154278152Y-109526666D01*
X154278152Y-109526666D02*
X154373390Y-109574285D01*
X154373390Y-109574285D02*
X154421009Y-109621904D01*
X154421009Y-109621904D02*
X154468628Y-109717142D01*
X154468628Y-109717142D02*
X154468628Y-110098094D01*
X154944819Y-108574285D02*
X154944819Y-109145713D01*
X154944819Y-108859999D02*
X153944819Y-108859999D01*
X153944819Y-108859999D02*
X154087676Y-108955237D01*
X154087676Y-108955237D02*
X154182914Y-109050475D01*
X154182914Y-109050475D02*
X154230533Y-109145713D01*
X89940475Y-106214819D02*
X89607142Y-105738628D01*
X89369047Y-106214819D02*
X89369047Y-105214819D01*
X89369047Y-105214819D02*
X89749999Y-105214819D01*
X89749999Y-105214819D02*
X89845237Y-105262438D01*
X89845237Y-105262438D02*
X89892856Y-105310057D01*
X89892856Y-105310057D02*
X89940475Y-105405295D01*
X89940475Y-105405295D02*
X89940475Y-105548152D01*
X89940475Y-105548152D02*
X89892856Y-105643390D01*
X89892856Y-105643390D02*
X89845237Y-105691009D01*
X89845237Y-105691009D02*
X89749999Y-105738628D01*
X89749999Y-105738628D02*
X89369047Y-105738628D01*
X90369047Y-105691009D02*
X90702380Y-105691009D01*
X90845237Y-106214819D02*
X90369047Y-106214819D01*
X90369047Y-106214819D02*
X90369047Y-105214819D01*
X90369047Y-105214819D02*
X90845237Y-105214819D01*
X91607142Y-105691009D02*
X91273809Y-105691009D01*
X91273809Y-106214819D02*
X91273809Y-105214819D01*
X91273809Y-105214819D02*
X91749999Y-105214819D01*
X92273809Y-105214819D02*
X92273809Y-105452914D01*
X92035714Y-105357676D02*
X92273809Y-105452914D01*
X92273809Y-105452914D02*
X92511904Y-105357676D01*
X92130952Y-105643390D02*
X92273809Y-105452914D01*
X92273809Y-105452914D02*
X92416666Y-105643390D01*
X93035714Y-105214819D02*
X93035714Y-105452914D01*
X92797619Y-105357676D02*
X93035714Y-105452914D01*
X93035714Y-105452914D02*
X93273809Y-105357676D01*
X92892857Y-105643390D02*
X93035714Y-105452914D01*
X93035714Y-105452914D02*
X93178571Y-105643390D01*
X93559524Y-105214819D02*
X94178571Y-105214819D01*
X94178571Y-105214819D02*
X93845238Y-105595771D01*
X93845238Y-105595771D02*
X93988095Y-105595771D01*
X93988095Y-105595771D02*
X94083333Y-105643390D01*
X94083333Y-105643390D02*
X94130952Y-105691009D01*
X94130952Y-105691009D02*
X94178571Y-105786247D01*
X94178571Y-105786247D02*
X94178571Y-106024342D01*
X94178571Y-106024342D02*
X94130952Y-106119580D01*
X94130952Y-106119580D02*
X94083333Y-106167200D01*
X94083333Y-106167200D02*
X93988095Y-106214819D01*
X93988095Y-106214819D02*
X93702381Y-106214819D01*
X93702381Y-106214819D02*
X93607143Y-106167200D01*
X93607143Y-106167200D02*
X93559524Y-106119580D01*
D15*
%TO.C,JP1*%
X104940000Y-80870000D02*
X104940000Y-82200000D01*
X103610000Y-80870000D02*
X104940000Y-80870000D01*
X102340000Y-80870000D02*
X97200000Y-80870000D01*
X102340000Y-80870000D02*
X102340000Y-83530000D01*
X97200000Y-80870000D02*
X97200000Y-83530000D01*
X102340000Y-83530000D02*
X97200000Y-83530000D01*
D16*
%TO.C,J31*%
X159425000Y-106050000D02*
X158025000Y-106050000D01*
X159425000Y-94750000D02*
X159425000Y-106050000D01*
X158025000Y-94750000D02*
X159425000Y-94750000D01*
X157425000Y-95440000D02*
X141725000Y-95440000D01*
X153325000Y-105007000D02*
X145725000Y-105007000D01*
X153325000Y-104160000D02*
X158025000Y-104160000D01*
X153325000Y-104160000D02*
X153325000Y-105007000D01*
X145725000Y-105007000D02*
X145725000Y-104160000D01*
X141025000Y-107050000D02*
X139625000Y-107050000D01*
X141025000Y-104160000D02*
X145725000Y-104160000D01*
X139625000Y-107050000D02*
X139625000Y-94750000D01*
X139625000Y-94750000D02*
X141025000Y-94750000D01*
D17*
X156252000Y-95062000D02*
G75*
G03*
X156252000Y-95062000I-100000J0D01*
G01*
%TO.C,J2*%
X167190000Y-110452500D02*
X174540000Y-110452500D01*
X174540000Y-110452500D02*
X174540000Y-109881000D01*
X167190000Y-109881000D02*
X167190000Y-110452500D01*
X167690000Y-109881000D02*
X167190000Y-109881000D01*
X174040000Y-109881000D02*
X174040000Y-104612500D01*
X174540000Y-109881000D02*
X174040000Y-109881000D01*
X167190000Y-105247500D02*
X167690000Y-105247500D01*
X167690000Y-105247500D02*
X167690000Y-109881000D01*
X174040000Y-104612500D02*
X175060000Y-104612500D01*
X175060000Y-104612500D02*
X175060000Y-102072500D01*
X174040000Y-102072500D02*
X174040000Y-96804000D01*
X175060000Y-102072500D02*
X174040000Y-102072500D01*
X167190000Y-101437500D02*
X167190000Y-105247500D01*
X167690000Y-101437500D02*
X167190000Y-101437500D01*
X167190000Y-96804000D02*
X167690000Y-96804000D01*
X167690000Y-96804000D02*
X167690000Y-101437500D01*
X174040000Y-96804000D02*
X174540000Y-96804000D01*
X174540000Y-96804000D02*
X174540000Y-96232500D01*
X167190000Y-96232500D02*
X167190000Y-96804000D01*
X174540000Y-96232500D02*
X167190000Y-96232500D01*
X169695000Y-111342500D02*
G75*
G03*
X169695000Y-111342500I-100000J0D01*
G01*
D15*
%TO.C,TP4*%
X181100000Y-104720000D02*
X178100000Y-104720000D01*
X181100000Y-104720000D02*
X181100000Y-112820000D01*
X178100000Y-112820000D02*
X178100000Y-104720000D01*
X178100000Y-112820000D02*
X181100000Y-112820000D01*
D17*
%TO.C,J3*%
X96090000Y-99527500D02*
X103440000Y-99527500D01*
X103440000Y-99527500D02*
X103440000Y-98956000D01*
X96090000Y-98956000D02*
X96090000Y-99527500D01*
X96590000Y-98956000D02*
X96090000Y-98956000D01*
X102940000Y-98956000D02*
X102940000Y-93687500D01*
X103440000Y-98956000D02*
X102940000Y-98956000D01*
X96090000Y-94322500D02*
X96590000Y-94322500D01*
X96590000Y-94322500D02*
X96590000Y-98956000D01*
X102940000Y-93687500D02*
X103960000Y-93687500D01*
X103960000Y-93687500D02*
X103960000Y-91147500D01*
X102940000Y-91147500D02*
X102940000Y-85879000D01*
X103960000Y-91147500D02*
X102940000Y-91147500D01*
X96090000Y-90512500D02*
X96090000Y-94322500D01*
X96590000Y-90512500D02*
X96090000Y-90512500D01*
X96090000Y-85879000D02*
X96590000Y-85879000D01*
X96590000Y-85879000D02*
X96590000Y-90512500D01*
X102940000Y-85879000D02*
X103440000Y-85879000D01*
X103440000Y-85879000D02*
X103440000Y-85307500D01*
X96090000Y-85307500D02*
X96090000Y-85879000D01*
X103440000Y-85307500D02*
X96090000Y-85307500D01*
X98595000Y-100417500D02*
G75*
G03*
X98595000Y-100417500I-100000J0D01*
G01*
D15*
%TO.C,R3*%
X109257064Y-85625000D02*
X108802936Y-85625000D01*
X109257064Y-84155000D02*
X108802936Y-84155000D01*
%TO.C,R2*%
X164662936Y-93985000D02*
X165117064Y-93985000D01*
X164662936Y-95455000D02*
X165117064Y-95455000D01*
%TO.C,TP2*%
X181220000Y-83390000D02*
X178220000Y-83390000D01*
X181220000Y-83390000D02*
X181220000Y-91490000D01*
X178220000Y-91490000D02*
X178220000Y-83390000D01*
X178220000Y-91490000D02*
X181220000Y-91490000D01*
%TO.C,R4*%
X123575000Y-109322936D02*
X123575000Y-109777064D01*
X122105000Y-109322936D02*
X122105000Y-109777064D01*
%TO.C,TP3*%
X181270000Y-72600000D02*
X178270000Y-72600000D01*
X181270000Y-72600000D02*
X181270000Y-80700000D01*
X178270000Y-80700000D02*
X178270000Y-72600000D01*
X178270000Y-80700000D02*
X181270000Y-80700000D01*
D16*
%TO.C,J21*%
X131225000Y-106000000D02*
X129825000Y-106000000D01*
X131225000Y-94700000D02*
X131225000Y-106000000D01*
X129825000Y-94700000D02*
X131225000Y-94700000D01*
X129225000Y-95390000D02*
X113525000Y-95390000D01*
X125125000Y-104957000D02*
X117525000Y-104957000D01*
X125125000Y-104110000D02*
X129825000Y-104110000D01*
X125125000Y-104110000D02*
X125125000Y-104957000D01*
X117525000Y-104957000D02*
X117525000Y-104110000D01*
X112825000Y-107000000D02*
X111425000Y-107000000D01*
X112825000Y-104110000D02*
X117525000Y-104110000D01*
X111425000Y-107000000D02*
X111425000Y-94700000D01*
X111425000Y-94700000D02*
X112825000Y-94700000D01*
D17*
X128052000Y-95012000D02*
G75*
G03*
X128052000Y-95012000I-100000J0D01*
G01*
%TO.C,J1*%
X175010000Y-81635000D02*
X167640000Y-81635000D01*
X167640000Y-81635000D02*
X167640000Y-82205000D01*
X175010000Y-82205000D02*
X175010000Y-81635000D01*
X174500000Y-82205000D02*
X175010000Y-82205000D01*
X168150000Y-82205000D02*
X168150000Y-86205000D01*
X167640000Y-82205000D02*
X168150000Y-82205000D01*
X175010000Y-85570000D02*
X174500000Y-85570000D01*
X174500000Y-85570000D02*
X174500000Y-82205000D01*
X168150000Y-86205000D02*
X167130000Y-86205000D01*
X167130000Y-86205000D02*
X167130000Y-88745000D01*
X168150000Y-88745000D02*
X168150000Y-92745000D01*
X167130000Y-88745000D02*
X168150000Y-88745000D01*
X175010000Y-89380000D02*
X175010000Y-85570000D01*
X174500000Y-89380000D02*
X175010000Y-89380000D01*
X175010000Y-92745000D02*
X174500000Y-92745000D01*
X174500000Y-92745000D02*
X174500000Y-89380000D01*
X168150000Y-92745000D02*
X167640000Y-92745000D01*
X167640000Y-92745000D02*
X167640000Y-93315000D01*
X175010000Y-93315000D02*
X175010000Y-92745000D01*
X167640000Y-93315000D02*
X175010000Y-93315000D01*
X172805000Y-81085000D02*
G75*
G03*
X172805000Y-81085000I-100000J0D01*
G01*
D15*
%TO.C,TP1*%
X181170000Y-94130000D02*
X178170000Y-94130000D01*
X181170000Y-94130000D02*
X181170000Y-102230000D01*
X178170000Y-102230000D02*
X178170000Y-94130000D01*
X178170000Y-102230000D02*
X181170000Y-102230000D01*
%TO.C,R1*%
X153575000Y-109132936D02*
X153575000Y-109587064D01*
X152105000Y-109132936D02*
X152105000Y-109587064D01*
%TD*%
D18*
X190480000Y-68510000D02*
X190480000Y-114600000D01*
X190480000Y-114600000D02*
X88130000Y-114600000D01*
X88130000Y-114600000D02*
X88130000Y-68510000D01*
X88130000Y-68510000D02*
X162400000Y-68510000D01*
X162400000Y-68510000D02*
X190480000Y-68510000D01*
M02*
