%TF.GenerationSoftware,KiCad,Pcbnew,(6.0.4-0)*%
%TF.CreationDate,2023-07-13T10:21:46-07:00*%
%TF.ProjectId,CableAdapterBoard,4361626c-6541-4646-9170-746572426f61,rev?*%
%TF.SameCoordinates,Original*%
%TF.FileFunction,Copper,L3,Inr*%
%TF.FilePolarity,Positive*%
%FSLAX46Y46*%
G04 Gerber Fmt 4.6, Leading zero omitted, Abs format (unit mm)*
G04 Created by KiCad (PCBNEW (6.0.4-0)) date 2023-07-13 10:21:46*
%MOMM*%
%LPD*%
G01*
G04 APERTURE LIST*
G04 Aperture macros list*
%AMRoundRect*
0 Rectangle with rounded corners*
0 $1 Rounding radius*
0 $2 $3 $4 $5 $6 $7 $8 $9 X,Y pos of 4 corners*
0 Add a 4 corners polygon primitive as box body*
4,1,4,$2,$3,$4,$5,$6,$7,$8,$9,$2,$3,0*
0 Add four circle primitives for the rounded corners*
1,1,$1+$1,$2,$3*
1,1,$1+$1,$4,$5*
1,1,$1+$1,$6,$7*
1,1,$1+$1,$8,$9*
0 Add four rect primitives between the rounded corners*
20,1,$1+$1,$2,$3,$4,$5,0*
20,1,$1+$1,$4,$5,$6,$7,0*
20,1,$1+$1,$6,$7,$8,$9,0*
20,1,$1+$1,$8,$9,$2,$3,0*%
G04 Aperture macros list end*
%TA.AperFunction,ComponentPad*%
%ADD10R,1.700000X1.700000*%
%TD*%
%TA.AperFunction,ComponentPad*%
%ADD11O,1.700000X1.700000*%
%TD*%
%TA.AperFunction,ComponentPad*%
%ADD12C,1.308000*%
%TD*%
%TA.AperFunction,ComponentPad*%
%ADD13R,1.530000X1.530000*%
%TD*%
%TA.AperFunction,ComponentPad*%
%ADD14C,1.530000*%
%TD*%
%TA.AperFunction,ComponentPad*%
%ADD15RoundRect,0.650000X-0.650000X0.650000X-0.650000X-0.650000X0.650000X-0.650000X0.650000X0.650000X0*%
%TD*%
%TA.AperFunction,ComponentPad*%
%ADD16C,2.600000*%
%TD*%
%TA.AperFunction,ComponentPad*%
%ADD17C,1.524000*%
%TD*%
%TA.AperFunction,ComponentPad*%
%ADD18C,5.080000*%
%TD*%
%TA.AperFunction,ViaPad*%
%ADD19C,0.800000*%
%TD*%
%TA.AperFunction,ViaPad*%
%ADD20C,0.520700*%
%TD*%
G04 APERTURE END LIST*
D10*
%TO.N,DGND*%
%TO.C,JP1*%
X103610000Y-82200000D03*
D11*
%TO.N,/d-sub-shield*%
X101070000Y-82200000D03*
%TO.N,AGND*%
X98530000Y-82200000D03*
%TD*%
D12*
%TO.N,DGND*%
%TO.C,J21*%
X158425000Y-105040000D03*
X158425000Y-101800000D03*
X158425000Y-97800000D03*
X158425000Y-95770000D03*
X140625000Y-95770000D03*
X140625000Y-97800000D03*
X140625000Y-101800000D03*
X140625000Y-106040000D03*
%TD*%
D13*
%TO.N,AGND*%
%TO.C,J2*%
X169595000Y-108422500D03*
D14*
%TO.N,unconnected-(J2-Pad02)*%
X169595000Y-105882500D03*
%TO.N,unconnected-(J2-Pad03)*%
X169595000Y-103342500D03*
%TO.N,unconnected-(J2-Pad04)*%
X169595000Y-100802500D03*
%TO.N,AGND*%
X169595000Y-98262500D03*
%TO.N,unconnected-(J2-Pad06)*%
X172135000Y-108422500D03*
%TO.N,unconnected-(J2-Pad07)*%
X172135000Y-105882500D03*
%TO.N,unconnected-(J2-Pad08)*%
X172135000Y-103342500D03*
%TO.N,/VDD2_Sense*%
X172135000Y-100802500D03*
%TO.N,/VDD1_Sense*%
X172135000Y-98262500D03*
%TD*%
D15*
%TO.N,DGND*%
%TO.C,TP4*%
X179600000Y-106220000D03*
D16*
%TO.N,/VDD2_Sense*%
X179600000Y-111300000D03*
%TD*%
D13*
%TO.N,AGND*%
%TO.C,J3*%
X98495000Y-97497500D03*
D14*
X98495000Y-94957500D03*
X98495000Y-92417500D03*
X98495000Y-89877500D03*
X98495000Y-87337500D03*
%TO.N,/HS_Vdiff*%
X101035000Y-97497500D03*
%TO.N,unconnected-(J3-Pad07)*%
X101035000Y-94957500D03*
%TO.N,/ADC_MON_VIN_P*%
X101035000Y-92417500D03*
%TO.N,/ADC_MON_VCOM*%
X101035000Y-89877500D03*
%TO.N,/ADC_MON_VIN_N*%
X101035000Y-87337500D03*
%TD*%
D15*
%TO.N,AGND*%
%TO.C,TP2*%
X179720000Y-84890000D03*
D16*
%TO.N,/VDD1*%
X179720000Y-89970000D03*
%TD*%
D15*
%TO.N,DGND*%
%TO.C,TP3*%
X179770000Y-74100000D03*
D16*
%TO.N,/VDD2*%
X179770000Y-79180000D03*
%TD*%
D12*
%TO.N,DGND*%
%TO.C,J31*%
X130225000Y-104990000D03*
X130225000Y-101750000D03*
X130225000Y-97750000D03*
X130225000Y-95720000D03*
X112425000Y-95720000D03*
X112425000Y-97750000D03*
X112425000Y-101750000D03*
X112425000Y-105990000D03*
%TD*%
D13*
%TO.N,AGND*%
%TO.C,J1*%
X172595000Y-83665000D03*
D14*
X172595000Y-86205000D03*
X172595000Y-88745000D03*
X172595000Y-91285000D03*
%TO.N,/VDD2*%
X170055000Y-83665000D03*
X170055000Y-86205000D03*
%TO.N,/VDD1*%
X170055000Y-88745000D03*
X170055000Y-91285000D03*
%TD*%
D17*
%TO.N,DGND*%
%TO.C,DSUB1*%
X158938600Y-78086500D03*
%TO.N,/RD_CLK_P*%
X156195400Y-78086500D03*
%TO.N,DGND*%
X153426800Y-78086500D03*
%TO.N,/DATA_OUT_1_P*%
X150658200Y-78086500D03*
%TO.N,DGND*%
X147915000Y-78086500D03*
%TO.N,/DATA_OUT_0_P*%
X145146400Y-78086500D03*
%TO.N,DGND*%
X142377800Y-78086500D03*
%TO.N,/ASIC_SR0_P*%
X139634600Y-78086500D03*
%TO.N,DGND*%
X136866000Y-78086500D03*
%TO.N,/WORD_CLK_0_N*%
X134097400Y-78086500D03*
%TO.N,/WORD_CLK_0_P*%
X131354200Y-78086500D03*
%TO.N,DGND*%
X128585600Y-78086500D03*
%TO.N,AGND*%
X125817000Y-78086500D03*
%TO.N,/HS_Vdiff*%
X123073800Y-78086500D03*
%TO.N,/VDD1*%
X120305200Y-78086500D03*
X117536600Y-78086500D03*
%TO.N,AGND*%
X114793400Y-78086500D03*
%TO.N,/VDD2*%
X157567000Y-75546500D03*
%TO.N,/RD_CLK_N*%
X154798400Y-75546500D03*
%TO.N,DGND*%
X152055200Y-75546500D03*
%TO.N,/DATA_OUT_1_N*%
X149286600Y-75546500D03*
%TO.N,DGND*%
X146518000Y-75546500D03*
%TO.N,/DATA_OUT_0_N*%
X143749400Y-75546500D03*
%TO.N,/ASIC_GR*%
X141006200Y-75546500D03*
%TO.N,/ASIC_SR0_N*%
X138237600Y-75546500D03*
%TO.N,DGND*%
X135469000Y-75546500D03*
%TO.N,/SACI_CMD_P*%
X132725800Y-75546500D03*
%TO.N,DGND*%
X129957200Y-75546500D03*
%TO.N,/SACI_CLK_P*%
X127188600Y-75546500D03*
%TO.N,/ASIC_SACI_SEL*%
X124445400Y-75546500D03*
%TO.N,AGND*%
X121676800Y-75546500D03*
%TO.N,/ADC_MON_VIN_P*%
X118908200Y-75546500D03*
%TO.N,AGND*%
X116165000Y-75546500D03*
%TO.N,/VDD2*%
X158938600Y-73006500D03*
%TO.N,/ASIC_SampClkEn_P*%
X156195400Y-73006500D03*
%TO.N,/ASIC_SampClkEn_N*%
X153426800Y-73006500D03*
%TO.N,/VDD2_Sense*%
X150658200Y-73006500D03*
%TO.N,DGND*%
X147915000Y-73006500D03*
%TO.N,/SACI_RESP_P*%
X145146400Y-73006500D03*
%TO.N,/SACI_RESP_N*%
X142377800Y-73006500D03*
%TO.N,DGND*%
X139634600Y-73006500D03*
X136866000Y-73006500D03*
%TO.N,/ASIC_PULSE*%
X134097400Y-73006500D03*
%TO.N,/SACI_CMD_N*%
X131354200Y-73006500D03*
%TO.N,DGND*%
X128585600Y-73006500D03*
%TO.N,/SACI_CLK_N*%
X125817000Y-73006500D03*
%TO.N,AGND*%
X123073800Y-73006500D03*
%TO.N,/ADC_MON_VCOM*%
X120305200Y-73006500D03*
%TO.N,/ADC_MON_VIN_N*%
X117536600Y-73006500D03*
%TO.N,/VDD1_Sense*%
X114793400Y-73006500D03*
D18*
%TO.N,/d-sub-shield*%
X106309800Y-75546500D03*
X167422200Y-75546500D03*
%TD*%
D15*
%TO.N,AGND*%
%TO.C,TP1*%
X179670000Y-95630000D03*
D16*
%TO.N,/VDD1_Sense*%
X179670000Y-100710000D03*
%TD*%
D19*
%TO.N,DGND*%
X119840000Y-99900000D03*
X147920000Y-87730000D03*
X162420000Y-95360000D03*
X145980000Y-99900000D03*
X110800000Y-83560000D03*
X125520000Y-87840000D03*
X114000000Y-90600000D03*
X128610000Y-82720000D03*
X140580000Y-86820000D03*
X125910000Y-80150000D03*
X140580000Y-91140000D03*
X117200000Y-87460000D03*
X124520000Y-108170000D03*
X147920000Y-82770000D03*
X154610000Y-108190000D03*
X120390000Y-84110000D03*
X153170000Y-99890000D03*
X122320000Y-99900000D03*
X149560000Y-99890000D03*
X151260000Y-99890000D03*
X147840000Y-99890000D03*
D20*
%TO.N,/RD_CLK_P*%
X144760000Y-100620000D03*
%TO.N,/DATA_OUT_1_P*%
X155510001Y-94499989D03*
%TO.N,/DATA_OUT_0_P*%
X155970000Y-100620000D03*
%TO.N,/ASIC_SR0_P*%
X116480006Y-100819991D03*
%TO.N,/WORD_CLK_0_N*%
X145999987Y-104999993D03*
X133746240Y-86753776D03*
X135239430Y-88246966D03*
%TO.N,/WORD_CLK_0_P*%
X147049998Y-104999993D03*
X134496962Y-88989433D03*
X133003773Y-87496244D03*
D19*
%TO.N,AGND*%
X167390000Y-94890000D03*
X154600000Y-110660000D03*
X106540000Y-85610000D03*
X124450000Y-111020000D03*
D20*
%TO.N,/RD_CLK_N*%
X143460000Y-100630000D03*
%TO.N,/DATA_OUT_1_N*%
X154359991Y-94499989D03*
%TO.N,/DATA_OUT_0_N*%
X154700000Y-100620000D03*
%TO.N,/ASIC_SR0_N*%
X115380008Y-100819991D03*
%TO.N,/SACI_CMD_P*%
X125270006Y-100740007D03*
%TO.N,/SACI_CLK_P*%
X118869993Y-100800002D03*
D19*
%TO.N,/ASIC_SACI_SEL*%
X127125000Y-92925000D03*
D20*
%TO.N,/ASIC_SampClkEn_P*%
X124060001Y-93590008D03*
%TO.N,/ASIC_SampClkEn_N*%
X123820000Y-94620000D03*
%TO.N,/SACI_RESP_P*%
X127650011Y-100670004D03*
%TO.N,/SACI_RESP_N*%
X126629998Y-100670004D03*
%TO.N,/SACI_CMD_N*%
X124170000Y-100730000D03*
%TO.N,/SACI_CLK_N*%
X117780003Y-100800002D03*
%TD*%
%TA.AperFunction,Conductor*%
%TO.N,/d-sub-shield*%
G36*
X109230188Y-72811078D02*
G01*
X109337034Y-72825145D01*
X109368805Y-72833658D01*
X109460676Y-72871712D01*
X109489162Y-72888159D01*
X109568050Y-72948692D01*
X109591308Y-72971950D01*
X109651841Y-73050838D01*
X109668288Y-73079324D01*
X109706342Y-73171195D01*
X109714855Y-73202966D01*
X109728922Y-73309812D01*
X109730000Y-73326259D01*
X109730000Y-77778482D01*
X109728935Y-77794831D01*
X109715033Y-77901065D01*
X109706618Y-77932664D01*
X109668998Y-78024085D01*
X109652736Y-78052454D01*
X109592860Y-78131114D01*
X109569849Y-78154340D01*
X109491741Y-78214949D01*
X109463531Y-78231470D01*
X109372464Y-78269936D01*
X109340946Y-78278644D01*
X109316046Y-78282138D01*
X109234846Y-78293531D01*
X109218508Y-78294748D01*
X105400438Y-78330195D01*
X102190000Y-78360000D01*
X102190000Y-81963741D01*
X102188922Y-81980188D01*
X102174855Y-82087034D01*
X102166342Y-82118805D01*
X102128288Y-82210676D01*
X102111841Y-82239162D01*
X102051308Y-82318050D01*
X102028050Y-82341308D01*
X101949162Y-82401841D01*
X101920676Y-82418288D01*
X101828805Y-82456342D01*
X101797034Y-82464855D01*
X101690188Y-82478922D01*
X101673741Y-82480000D01*
X100486259Y-82480000D01*
X100469812Y-82478922D01*
X100362966Y-82464855D01*
X100331195Y-82456342D01*
X100239324Y-82418288D01*
X100210838Y-82401841D01*
X100131950Y-82341308D01*
X100108692Y-82318050D01*
X100048159Y-82239162D01*
X100031712Y-82210676D01*
X99993658Y-82118805D01*
X99985145Y-82087034D01*
X99971078Y-81980188D01*
X99970000Y-81963741D01*
X99970000Y-73326259D01*
X99971078Y-73309812D01*
X99985145Y-73202966D01*
X99993658Y-73171195D01*
X100031712Y-73079324D01*
X100048159Y-73050838D01*
X100108692Y-72971950D01*
X100131950Y-72948692D01*
X100210838Y-72888159D01*
X100239324Y-72871712D01*
X100331195Y-72833658D01*
X100362966Y-72825145D01*
X100469812Y-72811078D01*
X100486259Y-72810000D01*
X109213741Y-72810000D01*
X109230188Y-72811078D01*
G37*
%TD.AperFunction*%
%TD*%
%TA.AperFunction,Conductor*%
%TO.N,/VDD1*%
G36*
X169383885Y-87714675D02*
G01*
X170042188Y-88372978D01*
X170056132Y-88380592D01*
X170057965Y-88380461D01*
X170064580Y-88376210D01*
X170725318Y-87715472D01*
X170771965Y-87690000D01*
X171841190Y-87690000D01*
X171909311Y-87710002D01*
X171955804Y-87763658D01*
X171965908Y-87833932D01*
X171936414Y-87898512D01*
X171920150Y-87914190D01*
X171842527Y-87976600D01*
X171707608Y-88137390D01*
X171704644Y-88142782D01*
X171704641Y-88142786D01*
X171623151Y-88291016D01*
X171606489Y-88321324D01*
X171550352Y-88498293D01*
X171548611Y-88503780D01*
X171508948Y-88562664D01*
X171443746Y-88590757D01*
X171373706Y-88579140D01*
X171321066Y-88531500D01*
X171306802Y-88498293D01*
X171257221Y-88313255D01*
X171253475Y-88302963D01*
X171163988Y-88111056D01*
X171158505Y-88101561D01*
X171127360Y-88057081D01*
X171116883Y-88048706D01*
X171103436Y-88055774D01*
X170427022Y-88732188D01*
X170419408Y-88746132D01*
X170419539Y-88747965D01*
X170423790Y-88754580D01*
X171104157Y-89434947D01*
X171115932Y-89441377D01*
X171127947Y-89432081D01*
X171158505Y-89388439D01*
X171163988Y-89378944D01*
X171253475Y-89187037D01*
X171257220Y-89176748D01*
X171307781Y-88988053D01*
X171344733Y-88927431D01*
X171408594Y-88896409D01*
X171479088Y-88904838D01*
X171533835Y-88950041D01*
X171550607Y-88985935D01*
X171586050Y-89109539D01*
X171595045Y-89140910D01*
X171597860Y-89146387D01*
X171597861Y-89146390D01*
X171613463Y-89176748D01*
X171690988Y-89327596D01*
X171694811Y-89332420D01*
X171694814Y-89332424D01*
X171773802Y-89432081D01*
X171821365Y-89492090D01*
X171826059Y-89496085D01*
X171863120Y-89527626D01*
X171981210Y-89628129D01*
X172164433Y-89730529D01*
X172364057Y-89795391D01*
X172572477Y-89820243D01*
X172578612Y-89819771D01*
X172578614Y-89819771D01*
X172775614Y-89804613D01*
X172775619Y-89804612D01*
X172781755Y-89804140D01*
X172787685Y-89802484D01*
X172787687Y-89802484D01*
X172977992Y-89749350D01*
X172977991Y-89749350D01*
X172983920Y-89747695D01*
X173014134Y-89732433D01*
X173072264Y-89703069D01*
X173171270Y-89653057D01*
X173203177Y-89628129D01*
X173331815Y-89527626D01*
X173331816Y-89527626D01*
X173336671Y-89523832D01*
X173407916Y-89441294D01*
X173469793Y-89369609D01*
X173469794Y-89369607D01*
X173473822Y-89364941D01*
X173577499Y-89182437D01*
X173643753Y-88983271D01*
X173654920Y-88894878D01*
X173669618Y-88778532D01*
X173669619Y-88778523D01*
X173670060Y-88775029D01*
X173670479Y-88745000D01*
X173649997Y-88536105D01*
X173645946Y-88522689D01*
X178637102Y-88522689D01*
X178641675Y-88532465D01*
X179707188Y-89597978D01*
X179721132Y-89605592D01*
X179722965Y-89605461D01*
X179729580Y-89601210D01*
X180794349Y-88536441D01*
X180800733Y-88524751D01*
X180791321Y-88512641D01*
X180644045Y-88410471D01*
X180636010Y-88405738D01*
X180403376Y-88291016D01*
X180394743Y-88287528D01*
X180147703Y-88208450D01*
X180138643Y-88206274D01*
X179882630Y-88164580D01*
X179873343Y-88163768D01*
X179613992Y-88160373D01*
X179604681Y-88160943D01*
X179347682Y-88195919D01*
X179338546Y-88197860D01*
X179089543Y-88270439D01*
X179080800Y-88273707D01*
X178845252Y-88382296D01*
X178837097Y-88386816D01*
X178646240Y-88511947D01*
X178637102Y-88522689D01*
X173645946Y-88522689D01*
X173589330Y-88335167D01*
X173572207Y-88302963D01*
X173493685Y-88155285D01*
X173493683Y-88155283D01*
X173490789Y-88149839D01*
X173408239Y-88048623D01*
X173362023Y-87991956D01*
X173362020Y-87991953D01*
X173358128Y-87987181D01*
X173351045Y-87981321D01*
X173268561Y-87913085D01*
X173228822Y-87854251D01*
X173227200Y-87783273D01*
X173264209Y-87722686D01*
X173328100Y-87691725D01*
X173348876Y-87690000D01*
X180813741Y-87690000D01*
X180830188Y-87691078D01*
X180937034Y-87705145D01*
X180968805Y-87713658D01*
X181060676Y-87751712D01*
X181089162Y-87768159D01*
X181168050Y-87828692D01*
X181191308Y-87851950D01*
X181251841Y-87930838D01*
X181268288Y-87959324D01*
X181306342Y-88051195D01*
X181314855Y-88082966D01*
X181328922Y-88189812D01*
X181330000Y-88206259D01*
X181330000Y-88764179D01*
X181309998Y-88832300D01*
X181256342Y-88878793D01*
X181198153Y-88890043D01*
X181166188Y-88888558D01*
X181153537Y-88895673D01*
X180092022Y-89957188D01*
X180084408Y-89971132D01*
X180084539Y-89972965D01*
X180088790Y-89979580D01*
X181156094Y-91046884D01*
X181170038Y-91054498D01*
X181195010Y-91052712D01*
X181264385Y-91067803D01*
X181314587Y-91118005D01*
X181330000Y-91178391D01*
X181330000Y-92513741D01*
X181328922Y-92530188D01*
X181314855Y-92637034D01*
X181306342Y-92668805D01*
X181268288Y-92760676D01*
X181251841Y-92789162D01*
X181191308Y-92868050D01*
X181168050Y-92891308D01*
X181089162Y-92951841D01*
X181060676Y-92968288D01*
X180968805Y-93006342D01*
X180937034Y-93014855D01*
X180830188Y-93028922D01*
X180813741Y-93030000D01*
X168706259Y-93030000D01*
X168689812Y-93028922D01*
X168582966Y-93014855D01*
X168551195Y-93006342D01*
X168459324Y-92968288D01*
X168430838Y-92951841D01*
X168351950Y-92891308D01*
X168328692Y-92868050D01*
X168268159Y-92789162D01*
X168251712Y-92760676D01*
X168213658Y-92668805D01*
X168205145Y-92637034D01*
X168191078Y-92530188D01*
X168190000Y-92513741D01*
X168190000Y-92345932D01*
X169358623Y-92345932D01*
X169367916Y-92357945D01*
X169411569Y-92388512D01*
X169421047Y-92393984D01*
X169612962Y-92483475D01*
X169623255Y-92487221D01*
X169827786Y-92542025D01*
X169838581Y-92543928D01*
X170049525Y-92562384D01*
X170060475Y-92562384D01*
X170271419Y-92543928D01*
X170282214Y-92542025D01*
X170486745Y-92487221D01*
X170497038Y-92483475D01*
X170688953Y-92393984D01*
X170698431Y-92388512D01*
X170742920Y-92357359D01*
X170751294Y-92346883D01*
X170744226Y-92333436D01*
X170067812Y-91657022D01*
X170053868Y-91649408D01*
X170052035Y-91649539D01*
X170045420Y-91653790D01*
X169365053Y-92334157D01*
X169358623Y-92345932D01*
X168190000Y-92345932D01*
X168190000Y-91290475D01*
X168777616Y-91290475D01*
X168796072Y-91501419D01*
X168797975Y-91512214D01*
X168852779Y-91716745D01*
X168856525Y-91727037D01*
X168946012Y-91918944D01*
X168951495Y-91928439D01*
X168982640Y-91972919D01*
X168993117Y-91981294D01*
X169006564Y-91974226D01*
X169682978Y-91297812D01*
X169689356Y-91286132D01*
X170419408Y-91286132D01*
X170419539Y-91287965D01*
X170423790Y-91294580D01*
X171104157Y-91974947D01*
X171115932Y-91981377D01*
X171127947Y-91972081D01*
X171158505Y-91928439D01*
X171163988Y-91918944D01*
X171253475Y-91727037D01*
X171257220Y-91716748D01*
X171307781Y-91528053D01*
X171344733Y-91467431D01*
X171408594Y-91436409D01*
X171479088Y-91444838D01*
X171533835Y-91490041D01*
X171550607Y-91525935D01*
X171586050Y-91649539D01*
X171595045Y-91680910D01*
X171597860Y-91686387D01*
X171597861Y-91686390D01*
X171613463Y-91716748D01*
X171690988Y-91867596D01*
X171694811Y-91872420D01*
X171694814Y-91872424D01*
X171773802Y-91972081D01*
X171821365Y-92032090D01*
X171826059Y-92036085D01*
X171863120Y-92067626D01*
X171981210Y-92168129D01*
X172164433Y-92270529D01*
X172364057Y-92335391D01*
X172572477Y-92360243D01*
X172578612Y-92359771D01*
X172578614Y-92359771D01*
X172775614Y-92344613D01*
X172775619Y-92344612D01*
X172781755Y-92344140D01*
X172787685Y-92342484D01*
X172787687Y-92342484D01*
X172977992Y-92289350D01*
X172977991Y-92289350D01*
X172983920Y-92287695D01*
X173014134Y-92272433D01*
X173072264Y-92243069D01*
X173171270Y-92193057D01*
X173203177Y-92168129D01*
X173331815Y-92067626D01*
X173331816Y-92067626D01*
X173336671Y-92063832D01*
X173407916Y-91981294D01*
X173469793Y-91909609D01*
X173469794Y-91909607D01*
X173473822Y-91904941D01*
X173577499Y-91722437D01*
X173643753Y-91523271D01*
X173657443Y-91414906D01*
X178639839Y-91414906D01*
X178648553Y-91426427D01*
X178755452Y-91504809D01*
X178763351Y-91509745D01*
X178992905Y-91630519D01*
X179001454Y-91634236D01*
X179246327Y-91719749D01*
X179255336Y-91722163D01*
X179510166Y-91770544D01*
X179519423Y-91771598D01*
X179778607Y-91781783D01*
X179787921Y-91781457D01*
X180045753Y-91753220D01*
X180054930Y-91751519D01*
X180305758Y-91685481D01*
X180314574Y-91682445D01*
X180552880Y-91580062D01*
X180561167Y-91575748D01*
X180781718Y-91439266D01*
X180789268Y-91433780D01*
X180794559Y-91429301D01*
X180802997Y-91416497D01*
X180796935Y-91406145D01*
X179732812Y-90342022D01*
X179718868Y-90334408D01*
X179717035Y-90334539D01*
X179710420Y-90338790D01*
X178646497Y-91402713D01*
X178639839Y-91414906D01*
X173657443Y-91414906D01*
X173669618Y-91318532D01*
X173669619Y-91318523D01*
X173670060Y-91315029D01*
X173670479Y-91285000D01*
X173649997Y-91076105D01*
X173589330Y-90875167D01*
X173502343Y-90711568D01*
X173493685Y-90695285D01*
X173493683Y-90695283D01*
X173490789Y-90689839D01*
X173408239Y-90588623D01*
X173362023Y-90531956D01*
X173362020Y-90531953D01*
X173358128Y-90527181D01*
X173353379Y-90523252D01*
X173201150Y-90397317D01*
X173201146Y-90397315D01*
X173196400Y-90393388D01*
X173011765Y-90293556D01*
X172811255Y-90231487D01*
X172805137Y-90230844D01*
X172805132Y-90230843D01*
X172608636Y-90210191D01*
X172608635Y-90210191D01*
X172602508Y-90209547D01*
X172516126Y-90217409D01*
X172399614Y-90228012D01*
X172399611Y-90228013D01*
X172393475Y-90228571D01*
X172387569Y-90230309D01*
X172387565Y-90230310D01*
X172198030Y-90286093D01*
X172192118Y-90287833D01*
X172006107Y-90385078D01*
X171842527Y-90516600D01*
X171707608Y-90677390D01*
X171704644Y-90682782D01*
X171704641Y-90682786D01*
X171688818Y-90711568D01*
X171606489Y-90861324D01*
X171550352Y-91038293D01*
X171548611Y-91043780D01*
X171508948Y-91102664D01*
X171443746Y-91130757D01*
X171373706Y-91119140D01*
X171321066Y-91071500D01*
X171306802Y-91038293D01*
X171257221Y-90853255D01*
X171253475Y-90842963D01*
X171163988Y-90651056D01*
X171158505Y-90641561D01*
X171127360Y-90597081D01*
X171116883Y-90588706D01*
X171103436Y-90595774D01*
X170427022Y-91272188D01*
X170419408Y-91286132D01*
X169689356Y-91286132D01*
X169690592Y-91283868D01*
X169690461Y-91282035D01*
X169686210Y-91275420D01*
X169005843Y-90595053D01*
X168994068Y-90588623D01*
X168982053Y-90597919D01*
X168951495Y-90641561D01*
X168946012Y-90651056D01*
X168856525Y-90842963D01*
X168852779Y-90853255D01*
X168797975Y-91057786D01*
X168796072Y-91068581D01*
X168777616Y-91279525D01*
X168777616Y-91290475D01*
X168190000Y-91290475D01*
X168190000Y-89805932D01*
X169358623Y-89805932D01*
X169367916Y-89817945D01*
X169411569Y-89848512D01*
X169421051Y-89853986D01*
X169521456Y-89900805D01*
X169574742Y-89947722D01*
X169594203Y-90015999D01*
X169573662Y-90083959D01*
X169521457Y-90129195D01*
X169421056Y-90176012D01*
X169411561Y-90181495D01*
X169367081Y-90212640D01*
X169358706Y-90223117D01*
X169365774Y-90236564D01*
X170042188Y-90912978D01*
X170056132Y-90920592D01*
X170057965Y-90920461D01*
X170064580Y-90916210D01*
X170744947Y-90235843D01*
X170751377Y-90224068D01*
X170742084Y-90212055D01*
X170698431Y-90181488D01*
X170688953Y-90176016D01*
X170588544Y-90129195D01*
X170535259Y-90082278D01*
X170515798Y-90014001D01*
X170536340Y-89946041D01*
X170558071Y-89927211D01*
X177907775Y-89927211D01*
X177920220Y-90186288D01*
X177921356Y-90195543D01*
X177971961Y-90449945D01*
X177974449Y-90458917D01*
X178062095Y-90703033D01*
X178065895Y-90711568D01*
X178188658Y-90940042D01*
X178193666Y-90947904D01*
X178263720Y-91041716D01*
X178274979Y-91050165D01*
X178287397Y-91043393D01*
X179347978Y-89982812D01*
X179355592Y-89968868D01*
X179355461Y-89967035D01*
X179351210Y-89960420D01*
X178285816Y-88895026D01*
X178272507Y-88887758D01*
X178262472Y-88894878D01*
X178246937Y-88913556D01*
X178241531Y-88921135D01*
X178106965Y-89142891D01*
X178102736Y-89151192D01*
X178002432Y-89390389D01*
X177999471Y-89399239D01*
X177935628Y-89650625D01*
X177934006Y-89659822D01*
X177908020Y-89917885D01*
X177907775Y-89927211D01*
X170558071Y-89927211D01*
X170588544Y-89900805D01*
X170688953Y-89853984D01*
X170698431Y-89848512D01*
X170742920Y-89817359D01*
X170751294Y-89806883D01*
X170744226Y-89793436D01*
X170067812Y-89117022D01*
X170053868Y-89109408D01*
X170052035Y-89109539D01*
X170045420Y-89113790D01*
X169365053Y-89794157D01*
X169358623Y-89805932D01*
X168190000Y-89805932D01*
X168190000Y-88750475D01*
X168777616Y-88750475D01*
X168796072Y-88961419D01*
X168797975Y-88972214D01*
X168852779Y-89176745D01*
X168856525Y-89187037D01*
X168946012Y-89378944D01*
X168951495Y-89388439D01*
X168982640Y-89432919D01*
X168993117Y-89441294D01*
X169006564Y-89434226D01*
X169682978Y-88757812D01*
X169690592Y-88743868D01*
X169690461Y-88742035D01*
X169686210Y-88735420D01*
X169005843Y-88055053D01*
X168994068Y-88048623D01*
X168982053Y-88057919D01*
X168951495Y-88101561D01*
X168946012Y-88111056D01*
X168856525Y-88302963D01*
X168852779Y-88313255D01*
X168797975Y-88517786D01*
X168796072Y-88528581D01*
X168777616Y-88739525D01*
X168777616Y-88750475D01*
X168190000Y-88750475D01*
X168190000Y-88206259D01*
X168191078Y-88189812D01*
X168205145Y-88082966D01*
X168213658Y-88051195D01*
X168251712Y-87959324D01*
X168268159Y-87930838D01*
X168328692Y-87851950D01*
X168351950Y-87828692D01*
X168430838Y-87768159D01*
X168459324Y-87751712D01*
X168551195Y-87713658D01*
X168582966Y-87705145D01*
X168689812Y-87691078D01*
X168706259Y-87690000D01*
X169342299Y-87690000D01*
X169383885Y-87714675D01*
G37*
%TD.AperFunction*%
%TD*%
%TA.AperFunction,Conductor*%
%TO.N,/VDD1*%
G36*
X119555385Y-76880002D02*
G01*
X119601878Y-76933658D01*
X119612594Y-76998973D01*
X119609938Y-77024636D01*
X119618128Y-77040218D01*
X120292388Y-77714478D01*
X120306332Y-77722092D01*
X120308165Y-77721961D01*
X120314780Y-77717710D01*
X120992993Y-77039497D01*
X121000607Y-77025553D01*
X120998421Y-76994990D01*
X121013512Y-76925616D01*
X121063714Y-76875413D01*
X121124100Y-76860000D01*
X121143741Y-76860000D01*
X121160188Y-76861078D01*
X121267034Y-76875145D01*
X121298805Y-76883658D01*
X121390676Y-76921712D01*
X121419162Y-76938159D01*
X121498050Y-76998692D01*
X121521308Y-77021950D01*
X121581841Y-77100838D01*
X121598288Y-77129324D01*
X121636342Y-77221195D01*
X121644855Y-77252966D01*
X121658922Y-77359812D01*
X121660000Y-77376259D01*
X121660000Y-77418454D01*
X121639998Y-77486575D01*
X121586342Y-77533068D01*
X121516068Y-77543172D01*
X121451488Y-77513678D01*
X121419805Y-77471704D01*
X121411577Y-77454059D01*
X121406097Y-77444568D01*
X121375406Y-77400735D01*
X121364929Y-77392360D01*
X121351482Y-77399428D01*
X120677222Y-78073688D01*
X120669608Y-78087632D01*
X120669739Y-78089465D01*
X120673990Y-78096080D01*
X121352203Y-78774293D01*
X121363977Y-78780723D01*
X121375993Y-78771426D01*
X121406097Y-78728432D01*
X121411577Y-78718941D01*
X121419805Y-78701296D01*
X121466722Y-78648011D01*
X121534999Y-78628550D01*
X121602959Y-78649092D01*
X121649025Y-78703114D01*
X121660000Y-78754546D01*
X121660000Y-79860000D01*
X125015962Y-79860000D01*
X125084083Y-79880002D01*
X125130576Y-79933658D01*
X125140968Y-80001790D01*
X125123632Y-80139020D01*
X125140741Y-80313511D01*
X125196083Y-80479876D01*
X125286908Y-80629846D01*
X125291797Y-80634909D01*
X125291798Y-80634910D01*
X125367749Y-80713559D01*
X125408701Y-80755966D01*
X125414593Y-80759821D01*
X125414597Y-80759825D01*
X125499457Y-80815355D01*
X125555410Y-80851970D01*
X125562014Y-80854426D01*
X125713140Y-80910629D01*
X125713142Y-80910629D01*
X125719742Y-80913084D01*
X125726725Y-80914016D01*
X125726726Y-80914016D01*
X125886549Y-80935342D01*
X125886553Y-80935342D01*
X125893530Y-80936273D01*
X125900541Y-80935635D01*
X125900545Y-80935635D01*
X126038105Y-80923115D01*
X126068137Y-80920382D01*
X126074839Y-80918204D01*
X126074841Y-80918204D01*
X126228185Y-80868380D01*
X126228188Y-80868379D01*
X126234884Y-80866203D01*
X126385484Y-80776427D01*
X126390578Y-80771576D01*
X126390582Y-80771573D01*
X126459833Y-80705625D01*
X126512452Y-80655517D01*
X126609477Y-80509482D01*
X126671737Y-80345581D01*
X126684753Y-80252966D01*
X126695587Y-80175883D01*
X126695588Y-80175875D01*
X126696138Y-80171959D01*
X126696445Y-80150000D01*
X126679625Y-80000045D01*
X126691909Y-79930119D01*
X126740048Y-79877935D01*
X126804840Y-79860000D01*
X161393741Y-79860000D01*
X161410188Y-79861078D01*
X161517034Y-79875145D01*
X161548805Y-79883658D01*
X161640676Y-79921712D01*
X161669162Y-79938159D01*
X161748050Y-79998692D01*
X161771308Y-80021950D01*
X161831841Y-80100838D01*
X161848288Y-80129324D01*
X161886342Y-80221195D01*
X161894855Y-80252966D01*
X161908922Y-80359812D01*
X161910000Y-80376259D01*
X161910000Y-87700000D01*
X169359152Y-87700000D01*
X169383885Y-87714675D01*
X170042188Y-88372978D01*
X170056132Y-88380592D01*
X170057965Y-88380461D01*
X170064580Y-88376210D01*
X170725318Y-87715472D01*
X170753652Y-87700000D01*
X171350000Y-87700000D01*
X171350000Y-92560000D01*
X170087723Y-92560000D01*
X170271419Y-92543928D01*
X170282214Y-92542025D01*
X170486745Y-92487221D01*
X170497038Y-92483475D01*
X170688953Y-92393984D01*
X170698431Y-92388512D01*
X170742920Y-92357359D01*
X170751294Y-92346883D01*
X170744226Y-92333436D01*
X170067812Y-91657022D01*
X170053868Y-91649408D01*
X170052035Y-91649539D01*
X170045420Y-91653790D01*
X169365053Y-92334157D01*
X169358623Y-92345932D01*
X169367916Y-92357945D01*
X169411569Y-92388512D01*
X169421047Y-92393984D01*
X169612962Y-92483475D01*
X169623255Y-92487221D01*
X169827786Y-92542025D01*
X169838581Y-92543928D01*
X170022277Y-92560000D01*
X127888346Y-92560000D01*
X127820225Y-92539998D01*
X127781492Y-92500770D01*
X127745064Y-92442473D01*
X127745063Y-92442471D01*
X127741332Y-92436501D01*
X127732835Y-92427944D01*
X127678853Y-92373585D01*
X127617789Y-92312094D01*
X127611846Y-92308322D01*
X127611843Y-92308320D01*
X127530270Y-92256552D01*
X127469755Y-92218148D01*
X127442570Y-92208468D01*
X127311220Y-92161696D01*
X127311215Y-92161695D01*
X127304585Y-92159334D01*
X127297597Y-92158501D01*
X127297594Y-92158500D01*
X127177307Y-92144157D01*
X127130490Y-92138574D01*
X127123487Y-92139310D01*
X127123486Y-92139310D01*
X126963122Y-92156165D01*
X126963120Y-92156166D01*
X126956122Y-92156901D01*
X126790148Y-92213403D01*
X126776296Y-92221925D01*
X126646823Y-92301577D01*
X126646820Y-92301579D01*
X126640816Y-92305273D01*
X126635781Y-92310204D01*
X126635778Y-92310206D01*
X126522325Y-92421308D01*
X126515549Y-92427944D01*
X126511737Y-92433859D01*
X126511733Y-92433864D01*
X126467658Y-92502255D01*
X126413944Y-92548680D01*
X126361747Y-92560000D01*
X117046259Y-92560000D01*
X117029812Y-92558922D01*
X116922966Y-92544855D01*
X116891195Y-92536342D01*
X116799324Y-92498288D01*
X116770838Y-92481841D01*
X116691950Y-92421308D01*
X116668692Y-92398050D01*
X116608159Y-92319162D01*
X116591712Y-92290676D01*
X116553658Y-92198805D01*
X116545145Y-92167034D01*
X116531078Y-92060188D01*
X116530000Y-92043741D01*
X116530000Y-91129020D01*
X139793632Y-91129020D01*
X139810741Y-91303511D01*
X139866083Y-91469876D01*
X139956908Y-91619846D01*
X139961797Y-91624909D01*
X139961798Y-91624910D01*
X140037749Y-91703559D01*
X140078701Y-91745966D01*
X140084593Y-91749821D01*
X140084597Y-91749825D01*
X140169457Y-91805355D01*
X140225410Y-91841970D01*
X140232014Y-91844426D01*
X140383140Y-91900629D01*
X140383142Y-91900629D01*
X140389742Y-91903084D01*
X140396725Y-91904016D01*
X140396726Y-91904016D01*
X140556549Y-91925342D01*
X140556553Y-91925342D01*
X140563530Y-91926273D01*
X140570541Y-91925635D01*
X140570545Y-91925635D01*
X140708105Y-91913115D01*
X140738137Y-91910382D01*
X140744839Y-91908204D01*
X140744841Y-91908204D01*
X140898185Y-91858380D01*
X140898188Y-91858379D01*
X140904884Y-91856203D01*
X141055484Y-91766427D01*
X141060578Y-91761576D01*
X141060582Y-91761573D01*
X141129833Y-91695625D01*
X141182452Y-91645517D01*
X141279477Y-91499482D01*
X141341737Y-91335581D01*
X141348076Y-91290475D01*
X168777616Y-91290475D01*
X168796072Y-91501419D01*
X168797975Y-91512214D01*
X168852779Y-91716745D01*
X168856525Y-91727037D01*
X168946012Y-91918944D01*
X168951495Y-91928439D01*
X168982640Y-91972919D01*
X168993117Y-91981294D01*
X169006564Y-91974226D01*
X169682978Y-91297812D01*
X169689356Y-91286132D01*
X170419408Y-91286132D01*
X170419539Y-91287965D01*
X170423790Y-91294580D01*
X171104157Y-91974947D01*
X171115932Y-91981377D01*
X171127947Y-91972081D01*
X171158505Y-91928439D01*
X171163988Y-91918944D01*
X171253475Y-91727037D01*
X171257221Y-91716745D01*
X171312025Y-91512214D01*
X171313928Y-91501419D01*
X171332384Y-91290475D01*
X171332384Y-91279525D01*
X171313928Y-91068581D01*
X171312025Y-91057786D01*
X171257221Y-90853255D01*
X171253475Y-90842963D01*
X171163988Y-90651056D01*
X171158505Y-90641561D01*
X171127360Y-90597081D01*
X171116883Y-90588706D01*
X171103436Y-90595774D01*
X170427022Y-91272188D01*
X170419408Y-91286132D01*
X169689356Y-91286132D01*
X169690592Y-91283868D01*
X169690461Y-91282035D01*
X169686210Y-91275420D01*
X169005843Y-90595053D01*
X168994068Y-90588623D01*
X168982053Y-90597919D01*
X168951495Y-90641561D01*
X168946012Y-90651056D01*
X168856525Y-90842963D01*
X168852779Y-90853255D01*
X168797975Y-91057786D01*
X168796072Y-91068581D01*
X168777616Y-91279525D01*
X168777616Y-91290475D01*
X141348076Y-91290475D01*
X141366138Y-91161959D01*
X141366445Y-91140000D01*
X141346901Y-90965764D01*
X141343179Y-90955074D01*
X141291557Y-90806835D01*
X141291556Y-90806833D01*
X141289242Y-90800188D01*
X141196332Y-90651501D01*
X141187835Y-90642944D01*
X141077754Y-90532094D01*
X141072789Y-90527094D01*
X141066846Y-90523322D01*
X141066843Y-90523320D01*
X140985270Y-90471552D01*
X140924755Y-90433148D01*
X140897570Y-90423468D01*
X140766220Y-90376696D01*
X140766215Y-90376695D01*
X140759585Y-90374334D01*
X140752597Y-90373501D01*
X140752594Y-90373500D01*
X140632307Y-90359157D01*
X140585490Y-90353574D01*
X140578487Y-90354310D01*
X140578486Y-90354310D01*
X140418122Y-90371165D01*
X140418120Y-90371166D01*
X140411122Y-90371901D01*
X140245148Y-90428403D01*
X140231296Y-90436925D01*
X140101823Y-90516577D01*
X140101820Y-90516579D01*
X140095816Y-90520273D01*
X140090781Y-90525204D01*
X140090778Y-90525206D01*
X139975581Y-90638016D01*
X139970549Y-90642944D01*
X139875572Y-90790319D01*
X139873163Y-90796939D01*
X139873161Y-90796942D01*
X139856411Y-90842963D01*
X139815606Y-90955074D01*
X139814723Y-90962062D01*
X139814723Y-90962063D01*
X139813372Y-90972761D01*
X139793632Y-91129020D01*
X116530000Y-91129020D01*
X116530000Y-89805932D01*
X169358623Y-89805932D01*
X169367916Y-89817945D01*
X169411569Y-89848512D01*
X169421051Y-89853986D01*
X169521456Y-89900805D01*
X169574742Y-89947722D01*
X169594203Y-90015999D01*
X169573662Y-90083959D01*
X169521457Y-90129195D01*
X169421056Y-90176012D01*
X169411561Y-90181495D01*
X169367081Y-90212640D01*
X169358706Y-90223117D01*
X169365774Y-90236564D01*
X170042188Y-90912978D01*
X170056132Y-90920592D01*
X170057965Y-90920461D01*
X170064580Y-90916210D01*
X170744947Y-90235843D01*
X170751377Y-90224068D01*
X170742084Y-90212055D01*
X170698431Y-90181488D01*
X170688953Y-90176016D01*
X170588544Y-90129195D01*
X170535259Y-90082278D01*
X170515798Y-90014001D01*
X170536340Y-89946041D01*
X170588544Y-89900805D01*
X170688953Y-89853984D01*
X170698431Y-89848512D01*
X170742920Y-89817359D01*
X170751294Y-89806883D01*
X170744226Y-89793436D01*
X170067812Y-89117022D01*
X170053868Y-89109408D01*
X170052035Y-89109539D01*
X170045420Y-89113790D01*
X169365053Y-89794157D01*
X169358623Y-89805932D01*
X116530000Y-89805932D01*
X116530000Y-88982662D01*
X133850433Y-88982662D01*
X133852955Y-89005506D01*
X133864441Y-89109539D01*
X133867481Y-89137076D01*
X133920869Y-89282967D01*
X133925106Y-89289273D01*
X133925108Y-89289276D01*
X133937075Y-89307084D01*
X134007516Y-89411911D01*
X134013134Y-89417023D01*
X134029604Y-89432009D01*
X134122420Y-89516465D01*
X134258946Y-89590593D01*
X134409213Y-89630015D01*
X134488350Y-89631258D01*
X134556947Y-89632336D01*
X134556950Y-89632336D01*
X134564546Y-89632455D01*
X134571951Y-89630759D01*
X134571952Y-89630759D01*
X134626942Y-89618165D01*
X134715978Y-89597773D01*
X134854765Y-89527970D01*
X134956153Y-89441377D01*
X134967122Y-89432009D01*
X134967124Y-89432006D01*
X134972896Y-89427077D01*
X134980121Y-89417023D01*
X135059119Y-89307084D01*
X135063550Y-89300918D01*
X135121495Y-89156776D01*
X135143384Y-89002974D01*
X135143951Y-89003055D01*
X135168002Y-88939440D01*
X135225027Y-88897148D01*
X135270510Y-88889415D01*
X135299415Y-88889869D01*
X135299418Y-88889869D01*
X135307014Y-88889988D01*
X135314419Y-88888292D01*
X135314420Y-88888292D01*
X135369410Y-88875698D01*
X135458446Y-88855306D01*
X135597233Y-88785503D01*
X135638246Y-88750475D01*
X168777616Y-88750475D01*
X168796072Y-88961419D01*
X168797975Y-88972214D01*
X168852779Y-89176745D01*
X168856525Y-89187037D01*
X168946012Y-89378944D01*
X168951495Y-89388439D01*
X168982640Y-89432919D01*
X168993117Y-89441294D01*
X169006564Y-89434226D01*
X169682978Y-88757812D01*
X169689356Y-88746132D01*
X170419408Y-88746132D01*
X170419539Y-88747965D01*
X170423790Y-88754580D01*
X171104157Y-89434947D01*
X171115932Y-89441377D01*
X171127947Y-89432081D01*
X171158505Y-89388439D01*
X171163988Y-89378944D01*
X171253475Y-89187037D01*
X171257221Y-89176745D01*
X171312025Y-88972214D01*
X171313928Y-88961419D01*
X171332384Y-88750475D01*
X171332384Y-88739525D01*
X171313928Y-88528581D01*
X171312025Y-88517786D01*
X171257221Y-88313255D01*
X171253475Y-88302963D01*
X171163988Y-88111056D01*
X171158505Y-88101561D01*
X171127360Y-88057081D01*
X171116883Y-88048706D01*
X171103436Y-88055774D01*
X170427022Y-88732188D01*
X170419408Y-88746132D01*
X169689356Y-88746132D01*
X169690592Y-88743868D01*
X169690461Y-88742035D01*
X169686210Y-88735420D01*
X169005843Y-88055053D01*
X168994068Y-88048623D01*
X168982053Y-88057919D01*
X168951495Y-88101561D01*
X168946012Y-88111056D01*
X168856525Y-88302963D01*
X168852779Y-88313255D01*
X168797975Y-88517786D01*
X168796072Y-88528581D01*
X168777616Y-88739525D01*
X168777616Y-88750475D01*
X135638246Y-88750475D01*
X135659657Y-88732188D01*
X135709590Y-88689542D01*
X135709592Y-88689539D01*
X135715364Y-88684610D01*
X135806018Y-88558451D01*
X135863963Y-88414309D01*
X135885852Y-88260507D01*
X135885994Y-88246966D01*
X135884889Y-88237838D01*
X135868243Y-88100280D01*
X135868242Y-88100277D01*
X135867330Y-88092739D01*
X135863610Y-88082892D01*
X135815101Y-87954518D01*
X135812417Y-87947415D01*
X135735866Y-87836033D01*
X135728727Y-87825645D01*
X135728726Y-87825643D01*
X135724425Y-87819386D01*
X135718754Y-87814333D01*
X135614104Y-87721092D01*
X135614100Y-87721089D01*
X135611778Y-87719020D01*
X147133632Y-87719020D01*
X147150741Y-87893511D01*
X147206083Y-88059876D01*
X147209730Y-88065898D01*
X147209731Y-88065900D01*
X147284043Y-88188603D01*
X147296908Y-88209846D01*
X147301797Y-88214909D01*
X147301798Y-88214910D01*
X147341847Y-88256382D01*
X147418701Y-88335966D01*
X147424593Y-88339821D01*
X147424597Y-88339825D01*
X147509457Y-88395355D01*
X147565410Y-88431970D01*
X147572014Y-88434426D01*
X147723140Y-88490629D01*
X147723142Y-88490629D01*
X147729742Y-88493084D01*
X147736725Y-88494016D01*
X147736726Y-88494016D01*
X147896549Y-88515342D01*
X147896553Y-88515342D01*
X147903530Y-88516273D01*
X147910541Y-88515635D01*
X147910545Y-88515635D01*
X148048105Y-88503115D01*
X148078137Y-88500382D01*
X148084839Y-88498204D01*
X148084841Y-88498204D01*
X148238185Y-88448380D01*
X148238188Y-88448379D01*
X148244884Y-88446203D01*
X148395484Y-88356427D01*
X148400578Y-88351576D01*
X148400582Y-88351573D01*
X148496210Y-88260507D01*
X148522452Y-88235517D01*
X148598881Y-88120482D01*
X148615576Y-88095354D01*
X148615577Y-88095352D01*
X148619477Y-88089482D01*
X148681737Y-87925581D01*
X148696291Y-87822026D01*
X148705587Y-87755883D01*
X148705588Y-87755875D01*
X148706138Y-87751959D01*
X148706445Y-87730000D01*
X148694101Y-87619951D01*
X148687686Y-87562761D01*
X148687686Y-87562760D01*
X148686901Y-87555764D01*
X148683179Y-87545074D01*
X148631557Y-87396835D01*
X148631556Y-87396833D01*
X148629242Y-87390188D01*
X148609569Y-87358704D01*
X148540064Y-87247473D01*
X148540063Y-87247471D01*
X148536332Y-87241501D01*
X148527835Y-87232944D01*
X148432482Y-87136925D01*
X148412789Y-87117094D01*
X148406846Y-87113322D01*
X148406843Y-87113320D01*
X148312698Y-87053574D01*
X148264755Y-87023148D01*
X148223916Y-87008606D01*
X148106220Y-86966696D01*
X148106215Y-86966695D01*
X148099585Y-86964334D01*
X148092597Y-86963501D01*
X148092594Y-86963500D01*
X147972307Y-86949157D01*
X147925490Y-86943574D01*
X147918487Y-86944310D01*
X147918486Y-86944310D01*
X147758122Y-86961165D01*
X147758120Y-86961166D01*
X147751122Y-86961901D01*
X147585148Y-87018403D01*
X147571296Y-87026925D01*
X147441823Y-87106577D01*
X147441820Y-87106579D01*
X147435816Y-87110273D01*
X147430781Y-87115204D01*
X147430778Y-87115206D01*
X147316523Y-87227094D01*
X147310549Y-87232944D01*
X147215572Y-87380319D01*
X147213163Y-87386939D01*
X147213161Y-87386942D01*
X147173095Y-87497023D01*
X147155606Y-87545074D01*
X147154723Y-87552062D01*
X147154723Y-87552063D01*
X147153372Y-87562761D01*
X147133632Y-87719020D01*
X135611778Y-87719020D01*
X135608433Y-87716040D01*
X135481071Y-87648606D01*
X135477847Y-87646899D01*
X135477846Y-87646899D01*
X135471138Y-87643347D01*
X135320466Y-87605500D01*
X135312868Y-87605460D01*
X135312866Y-87605460D01*
X135246614Y-87605114D01*
X135165116Y-87604687D01*
X135157737Y-87606459D01*
X135157733Y-87606459D01*
X135021435Y-87639181D01*
X135021431Y-87639182D01*
X135014056Y-87640953D01*
X134876007Y-87712205D01*
X134870285Y-87717197D01*
X134870283Y-87717198D01*
X134787083Y-87789778D01*
X134758939Y-87814330D01*
X134669611Y-87941432D01*
X134666852Y-87948507D01*
X134666851Y-87948510D01*
X134632904Y-88035581D01*
X134613179Y-88086172D01*
X134612188Y-88093699D01*
X134593211Y-88237838D01*
X134564488Y-88302765D01*
X134505223Y-88341856D01*
X134467631Y-88347389D01*
X134444469Y-88347268D01*
X134422648Y-88347154D01*
X134415269Y-88348926D01*
X134415265Y-88348926D01*
X134278967Y-88381648D01*
X134278963Y-88381649D01*
X134271588Y-88383420D01*
X134264843Y-88386901D01*
X134264844Y-88386901D01*
X134145730Y-88448380D01*
X134133539Y-88454672D01*
X134127817Y-88459664D01*
X134127815Y-88459665D01*
X134037892Y-88538110D01*
X134016471Y-88556797D01*
X133927143Y-88683899D01*
X133924384Y-88690974D01*
X133924383Y-88690977D01*
X133898325Y-88757812D01*
X133870711Y-88828639D01*
X133869720Y-88836166D01*
X133851809Y-88972214D01*
X133850433Y-88982662D01*
X116530000Y-88982662D01*
X116530000Y-88188603D01*
X116550002Y-88120482D01*
X116603658Y-88073989D01*
X116673932Y-88063885D01*
X116724993Y-88083171D01*
X116845410Y-88161970D01*
X116852014Y-88164426D01*
X117003140Y-88220629D01*
X117003142Y-88220629D01*
X117009742Y-88223084D01*
X117016725Y-88224016D01*
X117016726Y-88224016D01*
X117176549Y-88245342D01*
X117176553Y-88245342D01*
X117183530Y-88246273D01*
X117190541Y-88245635D01*
X117190545Y-88245635D01*
X117328105Y-88233115D01*
X117358137Y-88230382D01*
X117364839Y-88228204D01*
X117364841Y-88228204D01*
X117518185Y-88178380D01*
X117518188Y-88178379D01*
X117524884Y-88176203D01*
X117675484Y-88086427D01*
X117680578Y-88081576D01*
X117680582Y-88081573D01*
X117762554Y-88003511D01*
X117802452Y-87965517D01*
X117868648Y-87865883D01*
X117893140Y-87829020D01*
X124733632Y-87829020D01*
X124750741Y-88003511D01*
X124806083Y-88169876D01*
X124809730Y-88175898D01*
X124809731Y-88175900D01*
X124863444Y-88264590D01*
X124896908Y-88319846D01*
X124901797Y-88324909D01*
X124901798Y-88324910D01*
X124932234Y-88356427D01*
X125018701Y-88445966D01*
X125024593Y-88449821D01*
X125024597Y-88449825D01*
X125109457Y-88505355D01*
X125165410Y-88541970D01*
X125172014Y-88544426D01*
X125323140Y-88600629D01*
X125323142Y-88600629D01*
X125329742Y-88603084D01*
X125336725Y-88604016D01*
X125336726Y-88604016D01*
X125496549Y-88625342D01*
X125496553Y-88625342D01*
X125503530Y-88626273D01*
X125510541Y-88625635D01*
X125510545Y-88625635D01*
X125648105Y-88613115D01*
X125678137Y-88610382D01*
X125684839Y-88608204D01*
X125684841Y-88608204D01*
X125838185Y-88558380D01*
X125838188Y-88558379D01*
X125844884Y-88556203D01*
X125995484Y-88466427D01*
X126000578Y-88461576D01*
X126000582Y-88461573D01*
X126069833Y-88395625D01*
X126122452Y-88345517D01*
X126192307Y-88240376D01*
X126215576Y-88205354D01*
X126215577Y-88205352D01*
X126219477Y-88199482D01*
X126281737Y-88035581D01*
X126294969Y-87941432D01*
X126305587Y-87865883D01*
X126305588Y-87865875D01*
X126306138Y-87861959D01*
X126306445Y-87840000D01*
X126286901Y-87665764D01*
X126283179Y-87655074D01*
X126231557Y-87506835D01*
X126231556Y-87506833D01*
X126229242Y-87500188D01*
X126222547Y-87489473D01*
X132357244Y-87489473D01*
X132360406Y-87518110D01*
X132369969Y-87604727D01*
X132374292Y-87643887D01*
X132376901Y-87651018D01*
X132376902Y-87651020D01*
X132380943Y-87662063D01*
X132427680Y-87789778D01*
X132431917Y-87796084D01*
X132431919Y-87796087D01*
X132461428Y-87840000D01*
X132514327Y-87918722D01*
X132519945Y-87923834D01*
X132599807Y-87996502D01*
X132629231Y-88023276D01*
X132765757Y-88097404D01*
X132916024Y-88136826D01*
X132995161Y-88138069D01*
X133063758Y-88139147D01*
X133063761Y-88139147D01*
X133071357Y-88139266D01*
X133078762Y-88137570D01*
X133078763Y-88137570D01*
X133133753Y-88124976D01*
X133222789Y-88104584D01*
X133361576Y-88034781D01*
X133442674Y-87965517D01*
X133473933Y-87938820D01*
X133473935Y-87938817D01*
X133479707Y-87933888D01*
X133486932Y-87923834D01*
X133550002Y-87836062D01*
X133570361Y-87807729D01*
X133628306Y-87663587D01*
X133634010Y-87623511D01*
X133649613Y-87513878D01*
X133649614Y-87513870D01*
X133650195Y-87509785D01*
X133650762Y-87509866D01*
X133674812Y-87446252D01*
X133731837Y-87403958D01*
X133777321Y-87396225D01*
X133806225Y-87396679D01*
X133806228Y-87396679D01*
X133813824Y-87396798D01*
X133821229Y-87395102D01*
X133821230Y-87395102D01*
X133885776Y-87380319D01*
X133965256Y-87362116D01*
X134104043Y-87292313D01*
X134156544Y-87247473D01*
X134216400Y-87196352D01*
X134216402Y-87196349D01*
X134222174Y-87191420D01*
X134312828Y-87065261D01*
X134370773Y-86921119D01*
X134386727Y-86809020D01*
X139793632Y-86809020D01*
X139810741Y-86983511D01*
X139866083Y-87149876D01*
X139869730Y-87155898D01*
X139869731Y-87155900D01*
X139948380Y-87285764D01*
X139956908Y-87299846D01*
X139961797Y-87304909D01*
X139961798Y-87304910D01*
X139991290Y-87335450D01*
X140078701Y-87425966D01*
X140084593Y-87429821D01*
X140084597Y-87429825D01*
X140169457Y-87485355D01*
X140225410Y-87521970D01*
X140232014Y-87524426D01*
X140383140Y-87580629D01*
X140383142Y-87580629D01*
X140389742Y-87583084D01*
X140396725Y-87584016D01*
X140396726Y-87584016D01*
X140556549Y-87605342D01*
X140556553Y-87605342D01*
X140563530Y-87606273D01*
X140570541Y-87605635D01*
X140570545Y-87605635D01*
X140708105Y-87593115D01*
X140738137Y-87590382D01*
X140744839Y-87588204D01*
X140744841Y-87588204D01*
X140898185Y-87538380D01*
X140898188Y-87538379D01*
X140904884Y-87536203D01*
X141055484Y-87446427D01*
X141060578Y-87441576D01*
X141060582Y-87441573D01*
X141157933Y-87348866D01*
X141182452Y-87325517D01*
X141268269Y-87196352D01*
X141275576Y-87185354D01*
X141275577Y-87185352D01*
X141279477Y-87179482D01*
X141341737Y-87015581D01*
X141351740Y-86944408D01*
X141365587Y-86845883D01*
X141365588Y-86845875D01*
X141366138Y-86841959D01*
X141366445Y-86820000D01*
X141350103Y-86674310D01*
X141347686Y-86652761D01*
X141347686Y-86652760D01*
X141346901Y-86645764D01*
X141343179Y-86635074D01*
X141291557Y-86486835D01*
X141291556Y-86486833D01*
X141289242Y-86480188D01*
X141196332Y-86331501D01*
X141187835Y-86322944D01*
X141093452Y-86227902D01*
X141072789Y-86207094D01*
X141066846Y-86203322D01*
X141066843Y-86203320D01*
X140976507Y-86145991D01*
X140924755Y-86113148D01*
X140897570Y-86103468D01*
X140766220Y-86056696D01*
X140766215Y-86056695D01*
X140759585Y-86054334D01*
X140752597Y-86053501D01*
X140752594Y-86053500D01*
X140632307Y-86039157D01*
X140585490Y-86033574D01*
X140578487Y-86034310D01*
X140578486Y-86034310D01*
X140418122Y-86051165D01*
X140418120Y-86051166D01*
X140411122Y-86051901D01*
X140245148Y-86108403D01*
X140235789Y-86114161D01*
X140101823Y-86196577D01*
X140101820Y-86196579D01*
X140095816Y-86200273D01*
X140090781Y-86205204D01*
X140090778Y-86205206D01*
X139977493Y-86316144D01*
X139970549Y-86322944D01*
X139875572Y-86470319D01*
X139873163Y-86476939D01*
X139873161Y-86476942D01*
X139825791Y-86607090D01*
X139815606Y-86635074D01*
X139814723Y-86642062D01*
X139814723Y-86642063D01*
X139813372Y-86652761D01*
X139793632Y-86809020D01*
X134386727Y-86809020D01*
X134387722Y-86802026D01*
X134392081Y-86771400D01*
X134392081Y-86771399D01*
X134392662Y-86767317D01*
X134392804Y-86753776D01*
X134391879Y-86746132D01*
X134375053Y-86607090D01*
X134375052Y-86607087D01*
X134374140Y-86599549D01*
X134319227Y-86454225D01*
X134271733Y-86385121D01*
X134235537Y-86332455D01*
X134235536Y-86332453D01*
X134231235Y-86326196D01*
X134225564Y-86321143D01*
X134120914Y-86227902D01*
X134120910Y-86227899D01*
X134115243Y-86222850D01*
X133977948Y-86150157D01*
X133827276Y-86112310D01*
X133819678Y-86112270D01*
X133819676Y-86112270D01*
X133753424Y-86111924D01*
X133671926Y-86111497D01*
X133664547Y-86113269D01*
X133664543Y-86113269D01*
X133528245Y-86145991D01*
X133528241Y-86145992D01*
X133520866Y-86147763D01*
X133514121Y-86151244D01*
X133514122Y-86151244D01*
X133405914Y-86207094D01*
X133382817Y-86219015D01*
X133377095Y-86224007D01*
X133377093Y-86224008D01*
X133329805Y-86265260D01*
X133265749Y-86321140D01*
X133176421Y-86448242D01*
X133173662Y-86455317D01*
X133173661Y-86455320D01*
X133161374Y-86486835D01*
X133119989Y-86592982D01*
X133118998Y-86600509D01*
X133100021Y-86744649D01*
X133071298Y-86809576D01*
X133012033Y-86848667D01*
X132974441Y-86854200D01*
X132951393Y-86854080D01*
X132929459Y-86853965D01*
X132922080Y-86855737D01*
X132922076Y-86855737D01*
X132785778Y-86888459D01*
X132785774Y-86888460D01*
X132778399Y-86890231D01*
X132640350Y-86961483D01*
X132634628Y-86966475D01*
X132634626Y-86966476D01*
X132569662Y-87023148D01*
X132523282Y-87063608D01*
X132433954Y-87190710D01*
X132431195Y-87197785D01*
X132431194Y-87197788D01*
X132394340Y-87292313D01*
X132377522Y-87335450D01*
X132376531Y-87342977D01*
X132358755Y-87477997D01*
X132357244Y-87489473D01*
X126222547Y-87489473D01*
X126215376Y-87477997D01*
X126140064Y-87357473D01*
X126140063Y-87357471D01*
X126136332Y-87351501D01*
X126127835Y-87342944D01*
X126024479Y-87238866D01*
X126012789Y-87227094D01*
X126006846Y-87223322D01*
X126006843Y-87223320D01*
X125880583Y-87143193D01*
X125864755Y-87133148D01*
X125814368Y-87115206D01*
X125706220Y-87076696D01*
X125706215Y-87076695D01*
X125699585Y-87074334D01*
X125692597Y-87073501D01*
X125692594Y-87073500D01*
X125564401Y-87058214D01*
X125525490Y-87053574D01*
X125518487Y-87054310D01*
X125518486Y-87054310D01*
X125358122Y-87071165D01*
X125358120Y-87071166D01*
X125351122Y-87071901D01*
X125185148Y-87128403D01*
X125124503Y-87165712D01*
X125041823Y-87216577D01*
X125041820Y-87216579D01*
X125035816Y-87220273D01*
X125030781Y-87225204D01*
X125030778Y-87225206D01*
X124915581Y-87338016D01*
X124910549Y-87342944D01*
X124815572Y-87490319D01*
X124813163Y-87496939D01*
X124813161Y-87496942D01*
X124760547Y-87641498D01*
X124755606Y-87655074D01*
X124754723Y-87662062D01*
X124754723Y-87662063D01*
X124753639Y-87670641D01*
X124733632Y-87829020D01*
X117893140Y-87829020D01*
X117895576Y-87825354D01*
X117895577Y-87825352D01*
X117899477Y-87819482D01*
X117961737Y-87655581D01*
X117974782Y-87562761D01*
X117985587Y-87485883D01*
X117985588Y-87485875D01*
X117986138Y-87481959D01*
X117986445Y-87460000D01*
X117968481Y-87299846D01*
X117967686Y-87292761D01*
X117967686Y-87292760D01*
X117966901Y-87285764D01*
X117963179Y-87275074D01*
X117911557Y-87126835D01*
X117911556Y-87126833D01*
X117909242Y-87120188D01*
X117903075Y-87110319D01*
X117820064Y-86977473D01*
X117820063Y-86977471D01*
X117816332Y-86971501D01*
X117807835Y-86962944D01*
X117733867Y-86888459D01*
X117692789Y-86847094D01*
X117686846Y-86843322D01*
X117686843Y-86843320D01*
X117573515Y-86771400D01*
X117544755Y-86753148D01*
X117477327Y-86729138D01*
X117386220Y-86696696D01*
X117386215Y-86696695D01*
X117379585Y-86694334D01*
X117372597Y-86693501D01*
X117372594Y-86693500D01*
X117252307Y-86679157D01*
X117205490Y-86673574D01*
X117198487Y-86674310D01*
X117198486Y-86674310D01*
X117038122Y-86691165D01*
X117038120Y-86691166D01*
X117031122Y-86691901D01*
X116865148Y-86748403D01*
X116766617Y-86809020D01*
X116722022Y-86836455D01*
X116653521Y-86855114D01*
X116585807Y-86833775D01*
X116540379Y-86779216D01*
X116530000Y-86729138D01*
X116530000Y-84099020D01*
X119603632Y-84099020D01*
X119620741Y-84273511D01*
X119676083Y-84439876D01*
X119679730Y-84445898D01*
X119679731Y-84445900D01*
X119748721Y-84559815D01*
X119766908Y-84589846D01*
X119771797Y-84594909D01*
X119771798Y-84594910D01*
X119847749Y-84673559D01*
X119888701Y-84715966D01*
X119894593Y-84719821D01*
X119894597Y-84719825D01*
X119956080Y-84760058D01*
X120035410Y-84811970D01*
X120042014Y-84814426D01*
X120193140Y-84870629D01*
X120193142Y-84870629D01*
X120199742Y-84873084D01*
X120206725Y-84874016D01*
X120206726Y-84874016D01*
X120366549Y-84895342D01*
X120366553Y-84895342D01*
X120373530Y-84896273D01*
X120380541Y-84895635D01*
X120380545Y-84895635D01*
X120518105Y-84883115D01*
X120548137Y-84880382D01*
X120554839Y-84878204D01*
X120554841Y-84878204D01*
X120708185Y-84828380D01*
X120708188Y-84828379D01*
X120714884Y-84826203D01*
X120865484Y-84736427D01*
X120870578Y-84731576D01*
X120870582Y-84731573D01*
X120939833Y-84665625D01*
X120992452Y-84615517D01*
X121089477Y-84469482D01*
X121151737Y-84305581D01*
X121176138Y-84131959D01*
X121176445Y-84110000D01*
X121156901Y-83935764D01*
X121153179Y-83925074D01*
X121101557Y-83776835D01*
X121101556Y-83776833D01*
X121099242Y-83770188D01*
X121006332Y-83621501D01*
X120997835Y-83612944D01*
X120923613Y-83538204D01*
X120882789Y-83497094D01*
X120876846Y-83493322D01*
X120876843Y-83493320D01*
X120758331Y-83418110D01*
X120734755Y-83403148D01*
X120658419Y-83375966D01*
X120576220Y-83346696D01*
X120576215Y-83346695D01*
X120569585Y-83344334D01*
X120562597Y-83343501D01*
X120562594Y-83343500D01*
X120442307Y-83329157D01*
X120395490Y-83323574D01*
X120388487Y-83324310D01*
X120388486Y-83324310D01*
X120228122Y-83341165D01*
X120228120Y-83341166D01*
X120221122Y-83341901D01*
X120055148Y-83398403D01*
X120010927Y-83425608D01*
X119911823Y-83486577D01*
X119911820Y-83486579D01*
X119905816Y-83490273D01*
X119900781Y-83495204D01*
X119900778Y-83495206D01*
X119838419Y-83556273D01*
X119780549Y-83612944D01*
X119685572Y-83760319D01*
X119683163Y-83766939D01*
X119683161Y-83766942D01*
X119628015Y-83918455D01*
X119625606Y-83925074D01*
X119624723Y-83932062D01*
X119624723Y-83932063D01*
X119623372Y-83942761D01*
X119603632Y-84099020D01*
X116530000Y-84099020D01*
X116530000Y-82709020D01*
X127823632Y-82709020D01*
X127840741Y-82883511D01*
X127896083Y-83049876D01*
X127899730Y-83055898D01*
X127899731Y-83055900D01*
X127922317Y-83093193D01*
X127986908Y-83199846D01*
X127991797Y-83204909D01*
X127991798Y-83204910D01*
X128037631Y-83252371D01*
X128108701Y-83325966D01*
X128114593Y-83329821D01*
X128114597Y-83329825D01*
X128177364Y-83370898D01*
X128255410Y-83421970D01*
X128262014Y-83424426D01*
X128413140Y-83480629D01*
X128413142Y-83480629D01*
X128419742Y-83483084D01*
X128426725Y-83484016D01*
X128426726Y-83484016D01*
X128586549Y-83505342D01*
X128586553Y-83505342D01*
X128593530Y-83506273D01*
X128600541Y-83505635D01*
X128600545Y-83505635D01*
X128738105Y-83493115D01*
X128768137Y-83490382D01*
X128774839Y-83488204D01*
X128774841Y-83488204D01*
X128928185Y-83438380D01*
X128928188Y-83438379D01*
X128934884Y-83436203D01*
X129085484Y-83346427D01*
X129090578Y-83341576D01*
X129090582Y-83341573D01*
X129181586Y-83254910D01*
X129212452Y-83225517D01*
X129291925Y-83105900D01*
X129305576Y-83085354D01*
X129305577Y-83085352D01*
X129309477Y-83079482D01*
X129371737Y-82915581D01*
X129380981Y-82849806D01*
X129393741Y-82759020D01*
X147133632Y-82759020D01*
X147150741Y-82933511D01*
X147206083Y-83099876D01*
X147209730Y-83105898D01*
X147209731Y-83105900D01*
X147285117Y-83230376D01*
X147296908Y-83249846D01*
X147301797Y-83254909D01*
X147301798Y-83254910D01*
X147365522Y-83320898D01*
X147418701Y-83375966D01*
X147424593Y-83379821D01*
X147424597Y-83379825D01*
X147505242Y-83432597D01*
X147565410Y-83471970D01*
X147572014Y-83474426D01*
X147723140Y-83530629D01*
X147723142Y-83530629D01*
X147729742Y-83533084D01*
X147736725Y-83534016D01*
X147736726Y-83534016D01*
X147896549Y-83555342D01*
X147896553Y-83555342D01*
X147903530Y-83556273D01*
X147910541Y-83555635D01*
X147910545Y-83555635D01*
X148048105Y-83543115D01*
X148078137Y-83540382D01*
X148084839Y-83538204D01*
X148084841Y-83538204D01*
X148238185Y-83488380D01*
X148238188Y-83488379D01*
X148244884Y-83486203D01*
X148395484Y-83396427D01*
X148400578Y-83391576D01*
X148400582Y-83391573D01*
X148474797Y-83320898D01*
X148522452Y-83275517D01*
X148619477Y-83129482D01*
X148681737Y-82965581D01*
X148706138Y-82791959D01*
X148706445Y-82770000D01*
X148686901Y-82595764D01*
X148683179Y-82585074D01*
X148631557Y-82436835D01*
X148631556Y-82436833D01*
X148629242Y-82430188D01*
X148595970Y-82376942D01*
X148540064Y-82287473D01*
X148540063Y-82287471D01*
X148536332Y-82281501D01*
X148527835Y-82272944D01*
X148417754Y-82162094D01*
X148412789Y-82157094D01*
X148406846Y-82153322D01*
X148406843Y-82153320D01*
X148317430Y-82096577D01*
X148264755Y-82063148D01*
X148237570Y-82053468D01*
X148106220Y-82006696D01*
X148106215Y-82006695D01*
X148099585Y-82004334D01*
X148092597Y-82003501D01*
X148092594Y-82003500D01*
X147972307Y-81989157D01*
X147925490Y-81983574D01*
X147918487Y-81984310D01*
X147918486Y-81984310D01*
X147758122Y-82001165D01*
X147758120Y-82001166D01*
X147751122Y-82001901D01*
X147585148Y-82058403D01*
X147571296Y-82066925D01*
X147441823Y-82146577D01*
X147441820Y-82146579D01*
X147435816Y-82150273D01*
X147430781Y-82155204D01*
X147430778Y-82155206D01*
X147315581Y-82268016D01*
X147310549Y-82272944D01*
X147215572Y-82420319D01*
X147213163Y-82426939D01*
X147213161Y-82426942D01*
X147172334Y-82539115D01*
X147155606Y-82585074D01*
X147154723Y-82592062D01*
X147154723Y-82592063D01*
X147153372Y-82602761D01*
X147133632Y-82759020D01*
X129393741Y-82759020D01*
X129395587Y-82745883D01*
X129395588Y-82745875D01*
X129396138Y-82741959D01*
X129396445Y-82720000D01*
X129383294Y-82602761D01*
X129377686Y-82552761D01*
X129377686Y-82552760D01*
X129376901Y-82545764D01*
X129373179Y-82535074D01*
X129321557Y-82386835D01*
X129321556Y-82386833D01*
X129319242Y-82380188D01*
X129261307Y-82287473D01*
X129230064Y-82237473D01*
X129230063Y-82237471D01*
X129226332Y-82231501D01*
X129217835Y-82222944D01*
X129107754Y-82112094D01*
X129102789Y-82107094D01*
X129096846Y-82103322D01*
X129096843Y-82103320D01*
X129015270Y-82051552D01*
X128954755Y-82013148D01*
X128921103Y-82001165D01*
X128796220Y-81956696D01*
X128796215Y-81956695D01*
X128789585Y-81954334D01*
X128782597Y-81953501D01*
X128782594Y-81953500D01*
X128662307Y-81939157D01*
X128615490Y-81933574D01*
X128608487Y-81934310D01*
X128608486Y-81934310D01*
X128448122Y-81951165D01*
X128448120Y-81951166D01*
X128441122Y-81951901D01*
X128275148Y-82008403D01*
X128261296Y-82016925D01*
X128131823Y-82096577D01*
X128131820Y-82096579D01*
X128125816Y-82100273D01*
X128120781Y-82105204D01*
X128120778Y-82105206D01*
X128005581Y-82218016D01*
X128000549Y-82222944D01*
X127905572Y-82370319D01*
X127903163Y-82376939D01*
X127903161Y-82376942D01*
X127851130Y-82519896D01*
X127845606Y-82535074D01*
X127844723Y-82542062D01*
X127844723Y-82542063D01*
X127843372Y-82552761D01*
X127823632Y-82709020D01*
X116530000Y-82709020D01*
X116530000Y-79174099D01*
X116550002Y-79105978D01*
X116603658Y-79059485D01*
X116673932Y-79049381D01*
X116728270Y-79070886D01*
X116894660Y-79187393D01*
X116904161Y-79192879D01*
X117095593Y-79282145D01*
X117105885Y-79285891D01*
X117309909Y-79340559D01*
X117320704Y-79342462D01*
X117531125Y-79360872D01*
X117542075Y-79360872D01*
X117752496Y-79342462D01*
X117763291Y-79340559D01*
X117967315Y-79285891D01*
X117977607Y-79282145D01*
X118169045Y-79192876D01*
X118178531Y-79187398D01*
X118222364Y-79156707D01*
X118230739Y-79146229D01*
X118230239Y-79145277D01*
X119610977Y-79145277D01*
X119620274Y-79157293D01*
X119663269Y-79187398D01*
X119672755Y-79192876D01*
X119864193Y-79282145D01*
X119874485Y-79285891D01*
X120078509Y-79340559D01*
X120089304Y-79342462D01*
X120299725Y-79360872D01*
X120310675Y-79360872D01*
X120521096Y-79342462D01*
X120531891Y-79340559D01*
X120735915Y-79285891D01*
X120746207Y-79282145D01*
X120937645Y-79192876D01*
X120947131Y-79187398D01*
X120990964Y-79156707D01*
X120999339Y-79146229D01*
X120992271Y-79132781D01*
X120318012Y-78458522D01*
X120304068Y-78450908D01*
X120302235Y-78451039D01*
X120295620Y-78455290D01*
X119617407Y-79133503D01*
X119610977Y-79145277D01*
X118230239Y-79145277D01*
X118223671Y-79132781D01*
X117266485Y-78175595D01*
X117232459Y-78113283D01*
X117234294Y-78087632D01*
X117901008Y-78087632D01*
X117901139Y-78089465D01*
X117905390Y-78096080D01*
X118583603Y-78774293D01*
X118595377Y-78780723D01*
X118607393Y-78771426D01*
X118637497Y-78728432D01*
X118642977Y-78718941D01*
X118732245Y-78527507D01*
X118735991Y-78517215D01*
X118790659Y-78313191D01*
X118792562Y-78302396D01*
X118795379Y-78270203D01*
X118821243Y-78204085D01*
X118878746Y-78162446D01*
X118949633Y-78158505D01*
X119011398Y-78193514D01*
X119044430Y-78256359D01*
X119046421Y-78270203D01*
X119049238Y-78302396D01*
X119051141Y-78313191D01*
X119105809Y-78517215D01*
X119109555Y-78527507D01*
X119198823Y-78718941D01*
X119204303Y-78728432D01*
X119234994Y-78772265D01*
X119245471Y-78780640D01*
X119258918Y-78773572D01*
X119933178Y-78099312D01*
X119940792Y-78085368D01*
X119940661Y-78083535D01*
X119936410Y-78076920D01*
X119258197Y-77398707D01*
X119246423Y-77392277D01*
X119234407Y-77401574D01*
X119204303Y-77444568D01*
X119198823Y-77454059D01*
X119109555Y-77645493D01*
X119105809Y-77655785D01*
X119051141Y-77859809D01*
X119049238Y-77870604D01*
X119046421Y-77902797D01*
X119020557Y-77968915D01*
X118963054Y-78010554D01*
X118892167Y-78014495D01*
X118830402Y-77979486D01*
X118797370Y-77916641D01*
X118795379Y-77902797D01*
X118792562Y-77870604D01*
X118790659Y-77859809D01*
X118735991Y-77655785D01*
X118732245Y-77645493D01*
X118642977Y-77454059D01*
X118637497Y-77444568D01*
X118606806Y-77400735D01*
X118596329Y-77392360D01*
X118582882Y-77399428D01*
X117908622Y-78073688D01*
X117901008Y-78087632D01*
X117234294Y-78087632D01*
X117237524Y-78042468D01*
X117266485Y-77997405D01*
X118224393Y-77039497D01*
X118232007Y-77025553D01*
X118229821Y-76994990D01*
X118244912Y-76925616D01*
X118295114Y-76875413D01*
X118355500Y-76860000D01*
X119487264Y-76860000D01*
X119555385Y-76880002D01*
G37*
%TD.AperFunction*%
%TD*%
%TA.AperFunction,Conductor*%
%TO.N,/VDD2*%
G36*
X158262168Y-71970858D02*
G01*
X158925788Y-72634478D01*
X158939732Y-72642092D01*
X158941565Y-72641961D01*
X158948180Y-72637710D01*
X159611571Y-71974319D01*
X159673883Y-71940293D01*
X159679351Y-71940000D01*
X170913741Y-71940000D01*
X170930188Y-71941078D01*
X171037034Y-71955145D01*
X171068805Y-71963658D01*
X171160676Y-72001712D01*
X171189162Y-72018159D01*
X171268050Y-72078692D01*
X171291308Y-72101950D01*
X171351841Y-72180838D01*
X171368288Y-72209324D01*
X171406342Y-72301195D01*
X171414855Y-72332966D01*
X171428922Y-72439812D01*
X171430000Y-72456259D01*
X171430000Y-77300000D01*
X171943551Y-77294385D01*
X171943554Y-77294385D01*
X171947703Y-77294340D01*
X171947710Y-77294340D01*
X179164855Y-77215424D01*
X179233191Y-77234680D01*
X179280267Y-77287824D01*
X179291139Y-77357983D01*
X179262354Y-77422882D01*
X179201491Y-77462382D01*
X179139546Y-77480437D01*
X179130800Y-77483707D01*
X178895252Y-77592296D01*
X178887097Y-77596816D01*
X178696240Y-77721947D01*
X178687102Y-77732689D01*
X178691675Y-77742465D01*
X179757188Y-78807978D01*
X179771132Y-78815592D01*
X179772965Y-78815461D01*
X179779580Y-78811210D01*
X180844349Y-77746441D01*
X180850733Y-77734751D01*
X180841321Y-77722641D01*
X180694045Y-77620471D01*
X180686010Y-77615738D01*
X180453376Y-77501016D01*
X180444743Y-77497528D01*
X180292162Y-77448686D01*
X180233382Y-77408868D01*
X180205460Y-77343593D01*
X180217261Y-77273584D01*
X180265039Y-77221069D01*
X180329196Y-77202692D01*
X180968124Y-77195706D01*
X180984695Y-77196617D01*
X181092424Y-77209703D01*
X181124492Y-77217984D01*
X181217301Y-77255538D01*
X181246100Y-77271886D01*
X181325926Y-77332333D01*
X181349468Y-77355619D01*
X181410784Y-77434779D01*
X181427445Y-77463396D01*
X181466015Y-77555796D01*
X181474646Y-77587771D01*
X181478981Y-77620471D01*
X181488907Y-77695341D01*
X181490000Y-77711901D01*
X181490000Y-78077923D01*
X181469998Y-78146044D01*
X181416342Y-78192537D01*
X181346068Y-78202641D01*
X181281488Y-78173147D01*
X181265050Y-78155929D01*
X181226996Y-78107658D01*
X181215071Y-78099187D01*
X181203537Y-78105673D01*
X180142022Y-79167188D01*
X180134408Y-79181132D01*
X180134539Y-79182965D01*
X180138790Y-79189580D01*
X181206094Y-80256884D01*
X181218474Y-80263644D01*
X181226815Y-80257400D01*
X181258029Y-80208873D01*
X181311704Y-80162401D01*
X181381982Y-80152326D01*
X181446551Y-80181845D01*
X181484910Y-80241586D01*
X181490000Y-80277036D01*
X181490000Y-81108816D01*
X181488936Y-81125160D01*
X181475044Y-81231354D01*
X181466638Y-81262933D01*
X181429047Y-81354328D01*
X181412802Y-81382682D01*
X181352970Y-81461328D01*
X181329974Y-81484554D01*
X181251926Y-81545165D01*
X181223727Y-81561695D01*
X181132721Y-81600188D01*
X181101224Y-81608908D01*
X180995163Y-81623856D01*
X180978865Y-81625080D01*
X176460000Y-81670000D01*
X175333384Y-81681199D01*
X171937049Y-81714959D01*
X171937045Y-81714959D01*
X171932951Y-81715000D01*
X171932947Y-81715001D01*
X171430000Y-81720000D01*
X171430000Y-83033172D01*
X171409998Y-83101293D01*
X171356342Y-83147786D01*
X171286068Y-83157890D01*
X171221488Y-83128396D01*
X171189805Y-83086422D01*
X171163988Y-83031056D01*
X171158505Y-83021561D01*
X171127360Y-82977081D01*
X171116883Y-82968706D01*
X171103436Y-82975774D01*
X170427022Y-83652188D01*
X170419408Y-83666132D01*
X170419539Y-83667965D01*
X170423790Y-83674580D01*
X171104157Y-84354947D01*
X171115932Y-84361377D01*
X171127947Y-84352081D01*
X171158505Y-84308439D01*
X171163988Y-84298944D01*
X171189805Y-84243578D01*
X171236722Y-84190293D01*
X171304999Y-84170832D01*
X171372959Y-84191374D01*
X171419025Y-84245397D01*
X171430000Y-84296828D01*
X171430000Y-85573172D01*
X171409998Y-85641293D01*
X171356342Y-85687786D01*
X171286068Y-85697890D01*
X171221488Y-85668396D01*
X171189805Y-85626422D01*
X171163988Y-85571056D01*
X171158505Y-85561561D01*
X171127360Y-85517081D01*
X171116883Y-85508706D01*
X171103436Y-85515774D01*
X170144095Y-86475115D01*
X170081783Y-86509141D01*
X170010968Y-86504076D01*
X169965905Y-86475115D01*
X169005843Y-85515053D01*
X168994068Y-85508623D01*
X168982053Y-85517919D01*
X168951495Y-85561561D01*
X168946012Y-85571056D01*
X168856525Y-85762963D01*
X168852779Y-85773255D01*
X168797975Y-85977786D01*
X168796072Y-85988581D01*
X168777616Y-86199525D01*
X168777616Y-86210475D01*
X168796072Y-86421419D01*
X168797975Y-86432214D01*
X168852779Y-86636745D01*
X168856525Y-86647037D01*
X168946015Y-86838950D01*
X168951489Y-86848431D01*
X169065832Y-87011729D01*
X169088520Y-87079003D01*
X169071235Y-87147864D01*
X169019465Y-87196448D01*
X168962619Y-87210000D01*
X163106259Y-87210000D01*
X163089812Y-87208922D01*
X162982966Y-87194855D01*
X162951195Y-87186342D01*
X162859324Y-87148288D01*
X162830838Y-87131841D01*
X162751950Y-87071308D01*
X162728692Y-87048050D01*
X162668159Y-86969162D01*
X162651712Y-86940676D01*
X162613658Y-86848805D01*
X162605145Y-86817034D01*
X162591078Y-86710188D01*
X162590000Y-86693741D01*
X162590000Y-84725932D01*
X169358623Y-84725932D01*
X169367916Y-84737945D01*
X169411569Y-84768512D01*
X169421051Y-84773986D01*
X169521456Y-84820805D01*
X169574742Y-84867722D01*
X169594203Y-84935999D01*
X169573662Y-85003959D01*
X169521457Y-85049195D01*
X169421056Y-85096012D01*
X169411561Y-85101495D01*
X169367081Y-85132640D01*
X169358706Y-85143117D01*
X169365774Y-85156564D01*
X170042188Y-85832978D01*
X170056132Y-85840592D01*
X170057965Y-85840461D01*
X170064580Y-85836210D01*
X170744947Y-85155843D01*
X170751377Y-85144068D01*
X170742084Y-85132055D01*
X170698431Y-85101488D01*
X170688953Y-85096016D01*
X170588544Y-85049195D01*
X170535259Y-85002278D01*
X170515798Y-84934001D01*
X170536340Y-84866041D01*
X170588544Y-84820805D01*
X170688953Y-84773984D01*
X170698431Y-84768512D01*
X170742920Y-84737359D01*
X170751294Y-84726883D01*
X170744226Y-84713436D01*
X170067812Y-84037022D01*
X170053868Y-84029408D01*
X170052035Y-84029539D01*
X170045420Y-84033790D01*
X169365053Y-84714157D01*
X169358623Y-84725932D01*
X162590000Y-84725932D01*
X162590000Y-83670475D01*
X168777616Y-83670475D01*
X168796072Y-83881419D01*
X168797975Y-83892214D01*
X168852779Y-84096745D01*
X168856525Y-84107037D01*
X168946012Y-84298944D01*
X168951495Y-84308439D01*
X168982640Y-84352919D01*
X168993117Y-84361294D01*
X169006564Y-84354226D01*
X169682978Y-83677812D01*
X169690592Y-83663868D01*
X169690461Y-83662035D01*
X169686210Y-83655420D01*
X169005843Y-82975053D01*
X168994068Y-82968623D01*
X168982053Y-82977919D01*
X168951495Y-83021561D01*
X168946012Y-83031056D01*
X168856525Y-83222963D01*
X168852779Y-83233255D01*
X168797975Y-83437786D01*
X168796072Y-83448581D01*
X168777616Y-83659525D01*
X168777616Y-83670475D01*
X162590000Y-83670475D01*
X162590000Y-82603117D01*
X169358706Y-82603117D01*
X169365774Y-82616564D01*
X170042188Y-83292978D01*
X170056132Y-83300592D01*
X170057965Y-83300461D01*
X170064580Y-83296210D01*
X170744947Y-82615843D01*
X170751377Y-82604068D01*
X170742084Y-82592055D01*
X170698431Y-82561488D01*
X170688953Y-82556016D01*
X170497038Y-82466525D01*
X170486745Y-82462779D01*
X170282214Y-82407975D01*
X170271419Y-82406072D01*
X170060475Y-82387616D01*
X170049525Y-82387616D01*
X169838581Y-82406072D01*
X169827786Y-82407975D01*
X169623255Y-82462779D01*
X169612963Y-82466525D01*
X169421056Y-82556012D01*
X169411561Y-82561495D01*
X169367081Y-82592640D01*
X169358706Y-82603117D01*
X162590000Y-82603117D01*
X162590000Y-80624906D01*
X178689839Y-80624906D01*
X178698553Y-80636427D01*
X178805452Y-80714809D01*
X178813351Y-80719745D01*
X179042905Y-80840519D01*
X179051454Y-80844236D01*
X179296327Y-80929749D01*
X179305336Y-80932163D01*
X179560166Y-80980544D01*
X179569423Y-80981598D01*
X179828607Y-80991783D01*
X179837921Y-80991457D01*
X180095753Y-80963220D01*
X180104930Y-80961519D01*
X180355758Y-80895481D01*
X180364574Y-80892445D01*
X180602880Y-80790062D01*
X180611167Y-80785748D01*
X180831718Y-80649266D01*
X180839268Y-80643780D01*
X180844559Y-80639301D01*
X180852997Y-80626497D01*
X180846935Y-80616145D01*
X179782812Y-79552022D01*
X179768868Y-79544408D01*
X179767035Y-79544539D01*
X179760420Y-79548790D01*
X178696497Y-80612713D01*
X178689839Y-80624906D01*
X162590000Y-80624906D01*
X162590000Y-79137211D01*
X177957775Y-79137211D01*
X177970220Y-79396288D01*
X177971356Y-79405543D01*
X178021961Y-79659945D01*
X178024449Y-79668917D01*
X178112095Y-79913033D01*
X178115895Y-79921568D01*
X178238658Y-80150042D01*
X178243666Y-80157904D01*
X178313720Y-80251716D01*
X178324979Y-80260165D01*
X178337397Y-80253393D01*
X179397978Y-79192812D01*
X179405592Y-79178868D01*
X179405461Y-79177035D01*
X179401210Y-79170420D01*
X178335816Y-78105026D01*
X178322507Y-78097758D01*
X178312472Y-78104878D01*
X178296937Y-78123556D01*
X178291531Y-78131135D01*
X178156965Y-78352891D01*
X178152736Y-78361192D01*
X178052432Y-78600389D01*
X178049471Y-78609239D01*
X177985628Y-78860625D01*
X177984006Y-78869822D01*
X177958020Y-79127885D01*
X177957775Y-79137211D01*
X162590000Y-79137211D01*
X162590000Y-77000000D01*
X159325586Y-77000000D01*
X159278896Y-76991030D01*
X159270135Y-76987535D01*
X159270133Y-76987534D01*
X159264763Y-76985392D01*
X159259095Y-76984265D01*
X159259093Y-76984264D01*
X159064307Y-76945519D01*
X159064305Y-76945519D01*
X159058640Y-76944392D01*
X159052865Y-76944316D01*
X159052861Y-76944316D01*
X158947601Y-76942938D01*
X158848498Y-76941641D01*
X158842801Y-76942620D01*
X158842800Y-76942620D01*
X158647062Y-76976254D01*
X158647059Y-76976255D01*
X158641372Y-76977232D01*
X158600766Y-76992212D01*
X158557157Y-77000000D01*
X158006433Y-77000000D01*
X157938312Y-76979998D01*
X157891819Y-76926342D01*
X157881715Y-76856068D01*
X157911209Y-76791488D01*
X157973821Y-76752293D01*
X157997718Y-76745890D01*
X158008007Y-76742145D01*
X158199445Y-76652876D01*
X158208931Y-76647398D01*
X158252764Y-76616707D01*
X158261139Y-76606229D01*
X158254071Y-76592781D01*
X157579812Y-75918522D01*
X157565868Y-75910908D01*
X157564035Y-75911039D01*
X157557420Y-75915290D01*
X156879207Y-76593503D01*
X156872777Y-76605277D01*
X156882074Y-76617293D01*
X156925069Y-76647398D01*
X156934555Y-76652876D01*
X157125993Y-76742145D01*
X157136282Y-76745890D01*
X157160179Y-76752293D01*
X157220801Y-76789245D01*
X157251823Y-76853106D01*
X157243394Y-76923600D01*
X157198191Y-76978347D01*
X157127567Y-77000000D01*
X157006259Y-77000000D01*
X156989812Y-76998922D01*
X156882966Y-76984855D01*
X156851195Y-76976342D01*
X156759324Y-76938288D01*
X156730838Y-76921841D01*
X156651950Y-76861308D01*
X156628692Y-76838050D01*
X156568159Y-76759162D01*
X156551712Y-76730676D01*
X156513658Y-76638805D01*
X156505145Y-76607034D01*
X156491078Y-76500188D01*
X156490000Y-76483741D01*
X156490000Y-76322120D01*
X156493823Y-76322120D01*
X156493825Y-76282256D01*
X156525625Y-76228665D01*
X157194978Y-75559312D01*
X157201356Y-75547632D01*
X157931408Y-75547632D01*
X157931539Y-75549465D01*
X157935790Y-75556080D01*
X158614003Y-76234293D01*
X158625777Y-76240723D01*
X158637793Y-76231426D01*
X158667897Y-76188432D01*
X158673377Y-76178941D01*
X158762645Y-75987507D01*
X158766391Y-75977215D01*
X158821059Y-75773191D01*
X158822962Y-75762396D01*
X158841372Y-75551975D01*
X158841372Y-75541025D01*
X158833809Y-75454578D01*
X164497193Y-75454578D01*
X164497288Y-75458208D01*
X164497288Y-75458209D01*
X164502663Y-75663463D01*
X164506012Y-75791379D01*
X164553484Y-76124935D01*
X164638980Y-76450823D01*
X164761365Y-76764725D01*
X164763062Y-76767930D01*
X164881813Y-76992212D01*
X164919018Y-77062481D01*
X164921068Y-77065464D01*
X164921070Y-77065467D01*
X165107793Y-77337150D01*
X165107799Y-77337157D01*
X165109850Y-77340142D01*
X165331331Y-77594030D01*
X165580525Y-77820780D01*
X165854129Y-78017384D01*
X166148518Y-78181239D01*
X166459788Y-78310171D01*
X166463282Y-78311166D01*
X166463284Y-78311167D01*
X166780313Y-78401476D01*
X166780318Y-78401477D01*
X166783814Y-78402473D01*
X167012983Y-78440001D01*
X167112723Y-78456334D01*
X167112727Y-78456334D01*
X167116303Y-78456920D01*
X167119929Y-78457091D01*
X167449218Y-78472620D01*
X167449219Y-78472620D01*
X167452845Y-78472791D01*
X167459380Y-78472345D01*
X167785350Y-78450123D01*
X167785357Y-78450122D01*
X167788982Y-78449875D01*
X167792558Y-78449212D01*
X167792560Y-78449212D01*
X168116691Y-78389138D01*
X168116695Y-78389137D01*
X168120256Y-78388477D01*
X168442279Y-78289410D01*
X168495269Y-78266149D01*
X168747449Y-78155450D01*
X168747454Y-78155447D01*
X168750781Y-78153987D01*
X169041673Y-77984003D01*
X169259066Y-77820780D01*
X169308193Y-77783895D01*
X169308197Y-77783892D01*
X169311100Y-77781712D01*
X169555491Y-77549794D01*
X169771606Y-77291323D01*
X169773594Y-77288297D01*
X169954594Y-77012751D01*
X169954599Y-77012742D01*
X169956581Y-77009725D01*
X170067471Y-76789245D01*
X170106337Y-76711970D01*
X170106340Y-76711962D01*
X170107964Y-76708734D01*
X170190300Y-76483741D01*
X170222501Y-76395748D01*
X170222502Y-76395744D01*
X170223749Y-76392337D01*
X170302400Y-76064730D01*
X170311745Y-75987507D01*
X170342540Y-75733032D01*
X170342540Y-75733025D01*
X170342876Y-75730253D01*
X170348651Y-75546500D01*
X170348480Y-75543535D01*
X170329466Y-75213762D01*
X170329465Y-75213757D01*
X170329257Y-75210142D01*
X170316822Y-75138891D01*
X170271955Y-74881815D01*
X170271953Y-74881808D01*
X170271331Y-74878242D01*
X170266146Y-74860735D01*
X170231900Y-74745126D01*
X170175641Y-74555200D01*
X170174220Y-74551869D01*
X170174217Y-74551860D01*
X170044879Y-74248631D01*
X170043457Y-74245297D01*
X169876528Y-73952641D01*
X169677069Y-73681110D01*
X169658759Y-73661406D01*
X169450195Y-73436964D01*
X169450193Y-73436962D01*
X169447723Y-73434304D01*
X169444969Y-73431952D01*
X169444965Y-73431948D01*
X169260720Y-73274588D01*
X169191530Y-73215494D01*
X169188527Y-73213476D01*
X169188519Y-73213470D01*
X169014914Y-73096813D01*
X168911885Y-73027581D01*
X168863883Y-73002805D01*
X168615715Y-72874716D01*
X168612495Y-72873054D01*
X168609114Y-72871776D01*
X168609104Y-72871772D01*
X168300726Y-72755246D01*
X168297328Y-72753962D01*
X167970562Y-72671884D01*
X167830083Y-72653390D01*
X167640132Y-72628382D01*
X167640124Y-72628381D01*
X167636528Y-72627908D01*
X167496684Y-72625711D01*
X167303295Y-72622673D01*
X167303291Y-72622673D01*
X167299653Y-72622616D01*
X167296038Y-72622977D01*
X167296033Y-72622977D01*
X167058240Y-72646712D01*
X166964402Y-72656078D01*
X166635219Y-72727852D01*
X166631792Y-72729025D01*
X166631786Y-72729027D01*
X166319898Y-72835810D01*
X166319893Y-72835812D01*
X166316467Y-72836985D01*
X166313199Y-72838544D01*
X166313191Y-72838547D01*
X166237362Y-72874716D01*
X166012371Y-72982031D01*
X166009292Y-72983962D01*
X166009291Y-72983963D01*
X165967459Y-73010204D01*
X165726962Y-73161068D01*
X165724128Y-73163338D01*
X165724123Y-73163342D01*
X165659027Y-73215494D01*
X165464022Y-73371723D01*
X165227037Y-73611203D01*
X165019147Y-73876335D01*
X164843109Y-74163603D01*
X164841584Y-74166888D01*
X164841582Y-74166892D01*
X164756190Y-74350855D01*
X164701255Y-74469202D01*
X164673918Y-74551860D01*
X164601484Y-74770880D01*
X164595465Y-74789079D01*
X164594729Y-74792634D01*
X164594728Y-74792637D01*
X164577721Y-74874760D01*
X164527143Y-75118995D01*
X164497193Y-75454578D01*
X158833809Y-75454578D01*
X158822962Y-75330604D01*
X158821059Y-75319809D01*
X158766391Y-75115785D01*
X158762645Y-75105493D01*
X158673377Y-74914059D01*
X158667897Y-74904568D01*
X158637206Y-74860735D01*
X158626729Y-74852360D01*
X158613282Y-74859428D01*
X157939022Y-75533688D01*
X157931408Y-75547632D01*
X157201356Y-75547632D01*
X157202592Y-75545368D01*
X157202461Y-75543535D01*
X157198210Y-75536920D01*
X156526358Y-74865068D01*
X156492332Y-74802756D01*
X156490622Y-74770880D01*
X156490000Y-74770880D01*
X156490000Y-74486771D01*
X156872860Y-74486771D01*
X156879928Y-74500218D01*
X157554188Y-75174478D01*
X157568132Y-75182092D01*
X157569965Y-75181961D01*
X157576580Y-75177710D01*
X158254793Y-74499497D01*
X158261223Y-74487723D01*
X158251926Y-74475707D01*
X158208931Y-74445602D01*
X158199445Y-74440124D01*
X158008007Y-74350855D01*
X157997715Y-74347109D01*
X157793691Y-74292441D01*
X157782896Y-74290538D01*
X157572475Y-74272128D01*
X157561525Y-74272128D01*
X157351104Y-74290538D01*
X157340309Y-74292441D01*
X157136285Y-74347109D01*
X157125993Y-74350855D01*
X156934559Y-74440123D01*
X156925068Y-74445603D01*
X156881235Y-74476294D01*
X156872860Y-74486771D01*
X156490000Y-74486771D01*
X156490000Y-74204459D01*
X156510002Y-74136338D01*
X156563658Y-74089845D01*
X156575491Y-74085149D01*
X156634032Y-74065277D01*
X158244377Y-74065277D01*
X158253674Y-74077293D01*
X158296669Y-74107398D01*
X158306155Y-74112876D01*
X158497593Y-74202145D01*
X158507885Y-74205891D01*
X158711909Y-74260559D01*
X158722704Y-74262462D01*
X158933125Y-74280872D01*
X158944075Y-74280872D01*
X159154496Y-74262462D01*
X159165291Y-74260559D01*
X159369315Y-74205891D01*
X159379607Y-74202145D01*
X159571045Y-74112876D01*
X159580531Y-74107398D01*
X159624364Y-74076707D01*
X159632739Y-74066229D01*
X159625671Y-74052781D01*
X158951412Y-73378522D01*
X158937468Y-73370908D01*
X158935635Y-73371039D01*
X158929020Y-73375290D01*
X158250807Y-74053503D01*
X158244377Y-74065277D01*
X156634032Y-74065277D01*
X156662496Y-74055615D01*
X156667557Y-74052781D01*
X156840742Y-73955792D01*
X156845860Y-73952926D01*
X157007441Y-73818541D01*
X157141826Y-73656960D01*
X157244515Y-73473596D01*
X157246371Y-73468129D01*
X157246373Y-73468124D01*
X157310213Y-73280057D01*
X157310214Y-73280052D01*
X157312069Y-73274588D01*
X157342225Y-73066603D01*
X157343656Y-73011975D01*
X157664228Y-73011975D01*
X157682638Y-73222396D01*
X157684541Y-73233191D01*
X157739209Y-73437215D01*
X157742955Y-73447507D01*
X157832223Y-73638941D01*
X157837703Y-73648432D01*
X157868394Y-73692265D01*
X157878871Y-73700640D01*
X157892318Y-73693572D01*
X158566578Y-73019312D01*
X158572956Y-73007632D01*
X159303008Y-73007632D01*
X159303139Y-73009465D01*
X159307390Y-73016080D01*
X159985603Y-73694293D01*
X159997377Y-73700723D01*
X160009393Y-73691426D01*
X160039497Y-73648432D01*
X160044977Y-73638941D01*
X160134245Y-73447507D01*
X160137991Y-73437215D01*
X160192659Y-73233191D01*
X160194562Y-73222396D01*
X160212972Y-73011975D01*
X160212972Y-73001025D01*
X160194562Y-72790604D01*
X160192659Y-72779809D01*
X160137991Y-72575785D01*
X160134245Y-72565493D01*
X160044977Y-72374059D01*
X160039497Y-72364568D01*
X160008806Y-72320735D01*
X159998329Y-72312360D01*
X159984882Y-72319428D01*
X159310622Y-72993688D01*
X159303008Y-73007632D01*
X158572956Y-73007632D01*
X158574192Y-73005368D01*
X158574061Y-73003535D01*
X158569810Y-72996920D01*
X157891597Y-72318707D01*
X157879823Y-72312277D01*
X157867807Y-72321574D01*
X157837703Y-72364568D01*
X157832223Y-72374059D01*
X157742955Y-72565493D01*
X157739209Y-72575785D01*
X157684541Y-72779809D01*
X157682638Y-72790604D01*
X157664228Y-73001025D01*
X157664228Y-73011975D01*
X157343656Y-73011975D01*
X157343799Y-73006500D01*
X157324569Y-72797221D01*
X157312120Y-72753078D01*
X157284980Y-72656850D01*
X157267523Y-72594951D01*
X157174571Y-72406463D01*
X157048827Y-72238071D01*
X156962774Y-72158524D01*
X156926329Y-72097597D01*
X156928610Y-72026637D01*
X156968892Y-71968174D01*
X157034387Y-71940771D01*
X157048303Y-71940000D01*
X158210160Y-71940000D01*
X158262168Y-71970858D01*
G37*
%TD.AperFunction*%
%TD*%
M02*
