%TF.GenerationSoftware,KiCad,Pcbnew,(6.0.4-0)*%
%TF.CreationDate,2023-07-13T10:21:47-07:00*%
%TF.ProjectId,CableAdapterBoard,4361626c-6541-4646-9170-746572426f61,rev?*%
%TF.SameCoordinates,Original*%
%TF.FileFunction,Legend,Top*%
%TF.FilePolarity,Positive*%
%FSLAX46Y46*%
G04 Gerber Fmt 4.6, Leading zero omitted, Abs format (unit mm)*
G04 Created by KiCad (PCBNEW (6.0.4-0)) date 2023-07-13 10:21:47*
%MOMM*%
%LPD*%
G01*
G04 APERTURE LIST*
%ADD10C,0.150000*%
%ADD11C,0.015000*%
%ADD12C,0.120000*%
%ADD13C,0.127000*%
%ADD14C,0.200000*%
G04 APERTURE END LIST*
D10*
X182380952Y-78885714D02*
X182619047Y-79552380D01*
X182857142Y-78885714D01*
X183666666Y-79552380D02*
X183666666Y-78552380D01*
X183666666Y-79504761D02*
X183571428Y-79552380D01*
X183380952Y-79552380D01*
X183285714Y-79504761D01*
X183238095Y-79457142D01*
X183190476Y-79361904D01*
X183190476Y-79076190D01*
X183238095Y-78980952D01*
X183285714Y-78933333D01*
X183380952Y-78885714D01*
X183571428Y-78885714D01*
X183666666Y-78933333D01*
X184571428Y-79552380D02*
X184571428Y-78552380D01*
X184571428Y-79504761D02*
X184476190Y-79552380D01*
X184285714Y-79552380D01*
X184190476Y-79504761D01*
X184142857Y-79457142D01*
X184095238Y-79361904D01*
X184095238Y-79076190D01*
X184142857Y-78980952D01*
X184190476Y-78933333D01*
X184285714Y-78885714D01*
X184476190Y-78885714D01*
X184571428Y-78933333D01*
X185000000Y-78647619D02*
X185047619Y-78600000D01*
X185142857Y-78552380D01*
X185380952Y-78552380D01*
X185476190Y-78600000D01*
X185523809Y-78647619D01*
X185571428Y-78742857D01*
X185571428Y-78838095D01*
X185523809Y-78980952D01*
X184952380Y-79552380D01*
X185571428Y-79552380D01*
X105292380Y-82271428D02*
X106054285Y-82271428D01*
X106387619Y-81985714D02*
X106768571Y-81985714D01*
X106530476Y-81652380D02*
X106530476Y-82509523D01*
X106578095Y-82604761D01*
X106673333Y-82652380D01*
X106768571Y-82652380D01*
X107244761Y-82652380D02*
X107149523Y-82604761D01*
X107101904Y-82557142D01*
X107054285Y-82461904D01*
X107054285Y-82176190D01*
X107101904Y-82080952D01*
X107149523Y-82033333D01*
X107244761Y-81985714D01*
X107387619Y-81985714D01*
X107482857Y-82033333D01*
X107530476Y-82080952D01*
X107578095Y-82176190D01*
X107578095Y-82461904D01*
X107530476Y-82557142D01*
X107482857Y-82604761D01*
X107387619Y-82652380D01*
X107244761Y-82652380D01*
X108006666Y-82271428D02*
X108768571Y-82271428D01*
X109673333Y-82652380D02*
X109673333Y-81652380D01*
X109673333Y-82604761D02*
X109578095Y-82652380D01*
X109387619Y-82652380D01*
X109292380Y-82604761D01*
X109244761Y-82557142D01*
X109197142Y-82461904D01*
X109197142Y-82176190D01*
X109244761Y-82080952D01*
X109292380Y-82033333D01*
X109387619Y-81985714D01*
X109578095Y-81985714D01*
X109673333Y-82033333D01*
X110578095Y-81985714D02*
X110578095Y-82795238D01*
X110530476Y-82890476D01*
X110482857Y-82938095D01*
X110387619Y-82985714D01*
X110244761Y-82985714D01*
X110149523Y-82938095D01*
X110578095Y-82604761D02*
X110482857Y-82652380D01*
X110292380Y-82652380D01*
X110197142Y-82604761D01*
X110149523Y-82557142D01*
X110101904Y-82461904D01*
X110101904Y-82176190D01*
X110149523Y-82080952D01*
X110197142Y-82033333D01*
X110292380Y-81985714D01*
X110482857Y-81985714D01*
X110578095Y-82033333D01*
X111054285Y-81985714D02*
X111054285Y-82652380D01*
X111054285Y-82080952D02*
X111101904Y-82033333D01*
X111197142Y-81985714D01*
X111340000Y-81985714D01*
X111435238Y-82033333D01*
X111482857Y-82128571D01*
X111482857Y-82652380D01*
X112387619Y-82652380D02*
X112387619Y-81652380D01*
X112387619Y-82604761D02*
X112292380Y-82652380D01*
X112101904Y-82652380D01*
X112006666Y-82604761D01*
X111959047Y-82557142D01*
X111911428Y-82461904D01*
X111911428Y-82176190D01*
X111959047Y-82080952D01*
X112006666Y-82033333D01*
X112101904Y-81985714D01*
X112292380Y-81985714D01*
X112387619Y-82033333D01*
X89156666Y-79994761D02*
X89251904Y-80042380D01*
X89442380Y-80042380D01*
X89537619Y-79994761D01*
X89585238Y-79899523D01*
X89585238Y-79851904D01*
X89537619Y-79756666D01*
X89442380Y-79709047D01*
X89299523Y-79709047D01*
X89204285Y-79661428D01*
X89156666Y-79566190D01*
X89156666Y-79518571D01*
X89204285Y-79423333D01*
X89299523Y-79375714D01*
X89442380Y-79375714D01*
X89537619Y-79423333D01*
X90013809Y-80042380D02*
X90013809Y-79042380D01*
X90442380Y-80042380D02*
X90442380Y-79518571D01*
X90394761Y-79423333D01*
X90299523Y-79375714D01*
X90156666Y-79375714D01*
X90061428Y-79423333D01*
X90013809Y-79470952D01*
X90918571Y-80042380D02*
X90918571Y-79375714D01*
X90918571Y-79042380D02*
X90870952Y-79090000D01*
X90918571Y-79137619D01*
X90966190Y-79090000D01*
X90918571Y-79042380D01*
X90918571Y-79137619D01*
X91775714Y-79994761D02*
X91680476Y-80042380D01*
X91490000Y-80042380D01*
X91394761Y-79994761D01*
X91347142Y-79899523D01*
X91347142Y-79518571D01*
X91394761Y-79423333D01*
X91490000Y-79375714D01*
X91680476Y-79375714D01*
X91775714Y-79423333D01*
X91823333Y-79518571D01*
X91823333Y-79613809D01*
X91347142Y-79709047D01*
X92394761Y-80042380D02*
X92299523Y-79994761D01*
X92251904Y-79899523D01*
X92251904Y-79042380D01*
X93204285Y-80042380D02*
X93204285Y-79042380D01*
X93204285Y-79994761D02*
X93109047Y-80042380D01*
X92918571Y-80042380D01*
X92823333Y-79994761D01*
X92775714Y-79947142D01*
X92728095Y-79851904D01*
X92728095Y-79566190D01*
X92775714Y-79470952D01*
X92823333Y-79423333D01*
X92918571Y-79375714D01*
X93109047Y-79375714D01*
X93204285Y-79423333D01*
X93680476Y-79661428D02*
X94442380Y-79661428D01*
X94775714Y-79375714D02*
X95156666Y-79375714D01*
X94918571Y-79042380D02*
X94918571Y-79899523D01*
X94966190Y-79994761D01*
X95061428Y-80042380D01*
X95156666Y-80042380D01*
X95632857Y-80042380D02*
X95537619Y-79994761D01*
X95490000Y-79947142D01*
X95442380Y-79851904D01*
X95442380Y-79566190D01*
X95490000Y-79470952D01*
X95537619Y-79423333D01*
X95632857Y-79375714D01*
X95775714Y-79375714D01*
X95870952Y-79423333D01*
X95918571Y-79470952D01*
X95966190Y-79566190D01*
X95966190Y-79851904D01*
X95918571Y-79947142D01*
X95870952Y-79994761D01*
X95775714Y-80042380D01*
X95632857Y-80042380D01*
X96394761Y-79661428D02*
X97156666Y-79661428D01*
X98061428Y-80042380D02*
X98061428Y-79518571D01*
X98013809Y-79423333D01*
X97918571Y-79375714D01*
X97728095Y-79375714D01*
X97632857Y-79423333D01*
X98061428Y-79994761D02*
X97966190Y-80042380D01*
X97728095Y-80042380D01*
X97632857Y-79994761D01*
X97585238Y-79899523D01*
X97585238Y-79804285D01*
X97632857Y-79709047D01*
X97728095Y-79661428D01*
X97966190Y-79661428D01*
X98061428Y-79613809D01*
X98966190Y-79375714D02*
X98966190Y-80185238D01*
X98918571Y-80280476D01*
X98870952Y-80328095D01*
X98775714Y-80375714D01*
X98632857Y-80375714D01*
X98537619Y-80328095D01*
X98966190Y-79994761D02*
X98870952Y-80042380D01*
X98680476Y-80042380D01*
X98585238Y-79994761D01*
X98537619Y-79947142D01*
X98490000Y-79851904D01*
X98490000Y-79566190D01*
X98537619Y-79470952D01*
X98585238Y-79423333D01*
X98680476Y-79375714D01*
X98870952Y-79375714D01*
X98966190Y-79423333D01*
X99442380Y-79375714D02*
X99442380Y-80042380D01*
X99442380Y-79470952D02*
X99490000Y-79423333D01*
X99585238Y-79375714D01*
X99728095Y-79375714D01*
X99823333Y-79423333D01*
X99870952Y-79518571D01*
X99870952Y-80042380D01*
X100775714Y-80042380D02*
X100775714Y-79042380D01*
X100775714Y-79994761D02*
X100680476Y-80042380D01*
X100490000Y-80042380D01*
X100394761Y-79994761D01*
X100347142Y-79947142D01*
X100299523Y-79851904D01*
X100299523Y-79566190D01*
X100347142Y-79470952D01*
X100394761Y-79423333D01*
X100490000Y-79375714D01*
X100680476Y-79375714D01*
X100775714Y-79423333D01*
X182730952Y-89765714D02*
X182969047Y-90432380D01*
X183207142Y-89765714D01*
X184016666Y-90432380D02*
X184016666Y-89432380D01*
X184016666Y-90384761D02*
X183921428Y-90432380D01*
X183730952Y-90432380D01*
X183635714Y-90384761D01*
X183588095Y-90337142D01*
X183540476Y-90241904D01*
X183540476Y-89956190D01*
X183588095Y-89860952D01*
X183635714Y-89813333D01*
X183730952Y-89765714D01*
X183921428Y-89765714D01*
X184016666Y-89813333D01*
X184921428Y-90432380D02*
X184921428Y-89432380D01*
X184921428Y-90384761D02*
X184826190Y-90432380D01*
X184635714Y-90432380D01*
X184540476Y-90384761D01*
X184492857Y-90337142D01*
X184445238Y-90241904D01*
X184445238Y-89956190D01*
X184492857Y-89860952D01*
X184540476Y-89813333D01*
X184635714Y-89765714D01*
X184826190Y-89765714D01*
X184921428Y-89813333D01*
X185921428Y-90432380D02*
X185350000Y-90432380D01*
X185635714Y-90432380D02*
X185635714Y-89432380D01*
X185540476Y-89575238D01*
X185445238Y-89670476D01*
X185350000Y-89718095D01*
X165415714Y-85779047D02*
X166082380Y-85540952D01*
X165415714Y-85302857D01*
X166082380Y-84493333D02*
X165082380Y-84493333D01*
X166034761Y-84493333D02*
X166082380Y-84588571D01*
X166082380Y-84779047D01*
X166034761Y-84874285D01*
X165987142Y-84921904D01*
X165891904Y-84969523D01*
X165606190Y-84969523D01*
X165510952Y-84921904D01*
X165463333Y-84874285D01*
X165415714Y-84779047D01*
X165415714Y-84588571D01*
X165463333Y-84493333D01*
X166082380Y-83588571D02*
X165082380Y-83588571D01*
X166034761Y-83588571D02*
X166082380Y-83683809D01*
X166082380Y-83874285D01*
X166034761Y-83969523D01*
X165987142Y-84017142D01*
X165891904Y-84064761D01*
X165606190Y-84064761D01*
X165510952Y-84017142D01*
X165463333Y-83969523D01*
X165415714Y-83874285D01*
X165415714Y-83683809D01*
X165463333Y-83588571D01*
X165177619Y-83160000D02*
X165130000Y-83112380D01*
X165082380Y-83017142D01*
X165082380Y-82779047D01*
X165130000Y-82683809D01*
X165177619Y-82636190D01*
X165272857Y-82588571D01*
X165368095Y-82588571D01*
X165510952Y-82636190D01*
X166082380Y-83207619D01*
X166082380Y-82588571D01*
X169530952Y-112465714D02*
X169769047Y-113132380D01*
X170007142Y-112465714D01*
X170816666Y-113132380D02*
X170816666Y-112132380D01*
X170816666Y-113084761D02*
X170721428Y-113132380D01*
X170530952Y-113132380D01*
X170435714Y-113084761D01*
X170388095Y-113037142D01*
X170340476Y-112941904D01*
X170340476Y-112656190D01*
X170388095Y-112560952D01*
X170435714Y-112513333D01*
X170530952Y-112465714D01*
X170721428Y-112465714D01*
X170816666Y-112513333D01*
X171721428Y-113132380D02*
X171721428Y-112132380D01*
X171721428Y-113084761D02*
X171626190Y-113132380D01*
X171435714Y-113132380D01*
X171340476Y-113084761D01*
X171292857Y-113037142D01*
X171245238Y-112941904D01*
X171245238Y-112656190D01*
X171292857Y-112560952D01*
X171340476Y-112513333D01*
X171435714Y-112465714D01*
X171626190Y-112465714D01*
X171721428Y-112513333D01*
X172150000Y-112227619D02*
X172197619Y-112180000D01*
X172292857Y-112132380D01*
X172530952Y-112132380D01*
X172626190Y-112180000D01*
X172673809Y-112227619D01*
X172721428Y-112322857D01*
X172721428Y-112418095D01*
X172673809Y-112560952D01*
X172102380Y-113132380D01*
X172721428Y-113132380D01*
X172911904Y-113227619D02*
X173673809Y-113227619D01*
X173864285Y-113084761D02*
X173959523Y-113132380D01*
X174150000Y-113132380D01*
X174245238Y-113084761D01*
X174292857Y-112989523D01*
X174292857Y-112941904D01*
X174245238Y-112846666D01*
X174150000Y-112799047D01*
X174007142Y-112799047D01*
X173911904Y-112751428D01*
X173864285Y-112656190D01*
X173864285Y-112608571D01*
X173911904Y-112513333D01*
X174007142Y-112465714D01*
X174150000Y-112465714D01*
X174245238Y-112513333D01*
X175102380Y-113084761D02*
X175007142Y-113132380D01*
X174816666Y-113132380D01*
X174721428Y-113084761D01*
X174673809Y-112989523D01*
X174673809Y-112608571D01*
X174721428Y-112513333D01*
X174816666Y-112465714D01*
X175007142Y-112465714D01*
X175102380Y-112513333D01*
X175150000Y-112608571D01*
X175150000Y-112703809D01*
X174673809Y-112799047D01*
X175578571Y-112465714D02*
X175578571Y-113132380D01*
X175578571Y-112560952D02*
X175626190Y-112513333D01*
X175721428Y-112465714D01*
X175864285Y-112465714D01*
X175959523Y-112513333D01*
X176007142Y-112608571D01*
X176007142Y-113132380D01*
X176435714Y-113084761D02*
X176530952Y-113132380D01*
X176721428Y-113132380D01*
X176816666Y-113084761D01*
X176864285Y-112989523D01*
X176864285Y-112941904D01*
X176816666Y-112846666D01*
X176721428Y-112799047D01*
X176578571Y-112799047D01*
X176483333Y-112751428D01*
X176435714Y-112656190D01*
X176435714Y-112608571D01*
X176483333Y-112513333D01*
X176578571Y-112465714D01*
X176721428Y-112465714D01*
X176816666Y-112513333D01*
X177673809Y-113084761D02*
X177578571Y-113132380D01*
X177388095Y-113132380D01*
X177292857Y-113084761D01*
X177245238Y-112989523D01*
X177245238Y-112608571D01*
X177292857Y-112513333D01*
X177388095Y-112465714D01*
X177578571Y-112465714D01*
X177673809Y-112513333D01*
X177721428Y-112608571D01*
X177721428Y-112703809D01*
X177245238Y-112799047D01*
X118970000Y-112814761D02*
X118874761Y-112862380D01*
X118684285Y-112862380D01*
X118589047Y-112814761D01*
X118541428Y-112767142D01*
X118493809Y-112671904D01*
X118493809Y-112386190D01*
X118541428Y-112290952D01*
X118589047Y-112243333D01*
X118684285Y-112195714D01*
X118874761Y-112195714D01*
X118970000Y-112243333D01*
X119541428Y-112862380D02*
X119446190Y-112814761D01*
X119398571Y-112767142D01*
X119350952Y-112671904D01*
X119350952Y-112386190D01*
X119398571Y-112290952D01*
X119446190Y-112243333D01*
X119541428Y-112195714D01*
X119684285Y-112195714D01*
X119779523Y-112243333D01*
X119827142Y-112290952D01*
X119874761Y-112386190D01*
X119874761Y-112671904D01*
X119827142Y-112767142D01*
X119779523Y-112814761D01*
X119684285Y-112862380D01*
X119541428Y-112862380D01*
X120303333Y-112195714D02*
X120303333Y-112862380D01*
X120303333Y-112290952D02*
X120350952Y-112243333D01*
X120446190Y-112195714D01*
X120589047Y-112195714D01*
X120684285Y-112243333D01*
X120731904Y-112338571D01*
X120731904Y-112862380D01*
X121208095Y-112195714D02*
X121208095Y-112862380D01*
X121208095Y-112290952D02*
X121255714Y-112243333D01*
X121350952Y-112195714D01*
X121493809Y-112195714D01*
X121589047Y-112243333D01*
X121636666Y-112338571D01*
X121636666Y-112862380D01*
X122493809Y-112814761D02*
X122398571Y-112862380D01*
X122208095Y-112862380D01*
X122112857Y-112814761D01*
X122065238Y-112719523D01*
X122065238Y-112338571D01*
X122112857Y-112243333D01*
X122208095Y-112195714D01*
X122398571Y-112195714D01*
X122493809Y-112243333D01*
X122541428Y-112338571D01*
X122541428Y-112433809D01*
X122065238Y-112529047D01*
X123398571Y-112814761D02*
X123303333Y-112862380D01*
X123112857Y-112862380D01*
X123017619Y-112814761D01*
X122970000Y-112767142D01*
X122922380Y-112671904D01*
X122922380Y-112386190D01*
X122970000Y-112290952D01*
X123017619Y-112243333D01*
X123112857Y-112195714D01*
X123303333Y-112195714D01*
X123398571Y-112243333D01*
X123684285Y-112195714D02*
X124065238Y-112195714D01*
X123827142Y-111862380D02*
X123827142Y-112719523D01*
X123874761Y-112814761D01*
X123970000Y-112862380D01*
X124065238Y-112862380D01*
X125589047Y-112862380D02*
X125589047Y-111862380D01*
X125589047Y-112814761D02*
X125493809Y-112862380D01*
X125303333Y-112862380D01*
X125208095Y-112814761D01*
X125160476Y-112767142D01*
X125112857Y-112671904D01*
X125112857Y-112386190D01*
X125160476Y-112290952D01*
X125208095Y-112243333D01*
X125303333Y-112195714D01*
X125493809Y-112195714D01*
X125589047Y-112243333D01*
X126493809Y-112195714D02*
X126493809Y-113005238D01*
X126446190Y-113100476D01*
X126398571Y-113148095D01*
X126303333Y-113195714D01*
X126160476Y-113195714D01*
X126065238Y-113148095D01*
X126493809Y-112814761D02*
X126398571Y-112862380D01*
X126208095Y-112862380D01*
X126112857Y-112814761D01*
X126065238Y-112767142D01*
X126017619Y-112671904D01*
X126017619Y-112386190D01*
X126065238Y-112290952D01*
X126112857Y-112243333D01*
X126208095Y-112195714D01*
X126398571Y-112195714D01*
X126493809Y-112243333D01*
X126970000Y-112195714D02*
X126970000Y-112862380D01*
X126970000Y-112290952D02*
X127017619Y-112243333D01*
X127112857Y-112195714D01*
X127255714Y-112195714D01*
X127350952Y-112243333D01*
X127398571Y-112338571D01*
X127398571Y-112862380D01*
X128303333Y-112862380D02*
X128303333Y-111862380D01*
X128303333Y-112814761D02*
X128208095Y-112862380D01*
X128017619Y-112862380D01*
X127922380Y-112814761D01*
X127874761Y-112767142D01*
X127827142Y-112671904D01*
X127827142Y-112386190D01*
X127874761Y-112290952D01*
X127922380Y-112243333D01*
X128017619Y-112195714D01*
X128208095Y-112195714D01*
X128303333Y-112243333D01*
X129398571Y-112195714D02*
X129779523Y-112195714D01*
X129541428Y-111862380D02*
X129541428Y-112719523D01*
X129589047Y-112814761D01*
X129684285Y-112862380D01*
X129779523Y-112862380D01*
X130255714Y-112862380D02*
X130160476Y-112814761D01*
X130112857Y-112767142D01*
X130065238Y-112671904D01*
X130065238Y-112386190D01*
X130112857Y-112290952D01*
X130160476Y-112243333D01*
X130255714Y-112195714D01*
X130398571Y-112195714D01*
X130493809Y-112243333D01*
X130541428Y-112290952D01*
X130589047Y-112386190D01*
X130589047Y-112671904D01*
X130541428Y-112767142D01*
X130493809Y-112814761D01*
X130398571Y-112862380D01*
X130255714Y-112862380D01*
X132208095Y-112862380D02*
X132208095Y-112338571D01*
X132160476Y-112243333D01*
X132065238Y-112195714D01*
X131874761Y-112195714D01*
X131779523Y-112243333D01*
X132208095Y-112814761D02*
X132112857Y-112862380D01*
X131874761Y-112862380D01*
X131779523Y-112814761D01*
X131731904Y-112719523D01*
X131731904Y-112624285D01*
X131779523Y-112529047D01*
X131874761Y-112481428D01*
X132112857Y-112481428D01*
X132208095Y-112433809D01*
X133112857Y-112195714D02*
X133112857Y-113005238D01*
X133065238Y-113100476D01*
X133017619Y-113148095D01*
X132922380Y-113195714D01*
X132779523Y-113195714D01*
X132684285Y-113148095D01*
X133112857Y-112814761D02*
X133017619Y-112862380D01*
X132827142Y-112862380D01*
X132731904Y-112814761D01*
X132684285Y-112767142D01*
X132636666Y-112671904D01*
X132636666Y-112386190D01*
X132684285Y-112290952D01*
X132731904Y-112243333D01*
X132827142Y-112195714D01*
X133017619Y-112195714D01*
X133112857Y-112243333D01*
X133589047Y-112195714D02*
X133589047Y-112862380D01*
X133589047Y-112290952D02*
X133636666Y-112243333D01*
X133731904Y-112195714D01*
X133874761Y-112195714D01*
X133970000Y-112243333D01*
X134017619Y-112338571D01*
X134017619Y-112862380D01*
X134922380Y-112862380D02*
X134922380Y-111862380D01*
X134922380Y-112814761D02*
X134827142Y-112862380D01*
X134636666Y-112862380D01*
X134541428Y-112814761D01*
X134493809Y-112767142D01*
X134446190Y-112671904D01*
X134446190Y-112386190D01*
X134493809Y-112290952D01*
X134541428Y-112243333D01*
X134636666Y-112195714D01*
X134827142Y-112195714D01*
X134922380Y-112243333D01*
X136017619Y-112195714D02*
X136398571Y-112195714D01*
X136160476Y-111862380D02*
X136160476Y-112719523D01*
X136208095Y-112814761D01*
X136303333Y-112862380D01*
X136398571Y-112862380D01*
X136731904Y-112862380D02*
X136731904Y-111862380D01*
X137160476Y-112862380D02*
X137160476Y-112338571D01*
X137112857Y-112243333D01*
X137017619Y-112195714D01*
X136874761Y-112195714D01*
X136779523Y-112243333D01*
X136731904Y-112290952D01*
X137636666Y-112862380D02*
X137636666Y-112195714D01*
X137636666Y-112386190D02*
X137684285Y-112290952D01*
X137731904Y-112243333D01*
X137827142Y-112195714D01*
X137922380Y-112195714D01*
X138684285Y-112195714D02*
X138684285Y-112862380D01*
X138255714Y-112195714D02*
X138255714Y-112719523D01*
X138303333Y-112814761D01*
X138398571Y-112862380D01*
X138541428Y-112862380D01*
X138636666Y-112814761D01*
X138684285Y-112767142D01*
X139779523Y-112195714D02*
X140160476Y-112195714D01*
X139922380Y-111862380D02*
X139922380Y-112719523D01*
X139970000Y-112814761D01*
X140065238Y-112862380D01*
X140160476Y-112862380D01*
X140493809Y-112862380D02*
X140493809Y-111862380D01*
X140922380Y-112862380D02*
X140922380Y-112338571D01*
X140874761Y-112243333D01*
X140779523Y-112195714D01*
X140636666Y-112195714D01*
X140541428Y-112243333D01*
X140493809Y-112290952D01*
X141779523Y-112814761D02*
X141684285Y-112862380D01*
X141493809Y-112862380D01*
X141398571Y-112814761D01*
X141350952Y-112719523D01*
X141350952Y-112338571D01*
X141398571Y-112243333D01*
X141493809Y-112195714D01*
X141684285Y-112195714D01*
X141779523Y-112243333D01*
X141827142Y-112338571D01*
X141827142Y-112433809D01*
X141350952Y-112529047D01*
X142208095Y-112814761D02*
X142303333Y-112862380D01*
X142493809Y-112862380D01*
X142589047Y-112814761D01*
X142636666Y-112719523D01*
X142636666Y-112671904D01*
X142589047Y-112576666D01*
X142493809Y-112529047D01*
X142350952Y-112529047D01*
X142255714Y-112481428D01*
X142208095Y-112386190D01*
X142208095Y-112338571D01*
X142255714Y-112243333D01*
X142350952Y-112195714D01*
X142493809Y-112195714D01*
X142589047Y-112243333D01*
X143446190Y-112814761D02*
X143350952Y-112862380D01*
X143160476Y-112862380D01*
X143065238Y-112814761D01*
X143017619Y-112719523D01*
X143017619Y-112338571D01*
X143065238Y-112243333D01*
X143160476Y-112195714D01*
X143350952Y-112195714D01*
X143446190Y-112243333D01*
X143493809Y-112338571D01*
X143493809Y-112433809D01*
X143017619Y-112529047D01*
X144874761Y-111862380D02*
X144970000Y-111862380D01*
X145065238Y-111910000D01*
X145112857Y-111957619D01*
X145160476Y-112052857D01*
X145208095Y-112243333D01*
X145208095Y-112481428D01*
X145160476Y-112671904D01*
X145112857Y-112767142D01*
X145065238Y-112814761D01*
X144970000Y-112862380D01*
X144874761Y-112862380D01*
X144779523Y-112814761D01*
X144731904Y-112767142D01*
X144684285Y-112671904D01*
X144636666Y-112481428D01*
X144636666Y-112243333D01*
X144684285Y-112052857D01*
X144731904Y-111957619D01*
X144779523Y-111910000D01*
X144874761Y-111862380D01*
X145779523Y-112862380D02*
X145684285Y-112814761D01*
X145636666Y-112767142D01*
X145589047Y-112671904D01*
X145589047Y-112386190D01*
X145636666Y-112290952D01*
X145684285Y-112243333D01*
X145779523Y-112195714D01*
X145922380Y-112195714D01*
X146017619Y-112243333D01*
X146065238Y-112290952D01*
X146112857Y-112386190D01*
X146112857Y-112671904D01*
X146065238Y-112767142D01*
X146017619Y-112814761D01*
X145922380Y-112862380D01*
X145779523Y-112862380D01*
X146541428Y-112862380D02*
X146541428Y-111862380D01*
X146970000Y-112862380D02*
X146970000Y-112338571D01*
X146922380Y-112243333D01*
X146827142Y-112195714D01*
X146684285Y-112195714D01*
X146589047Y-112243333D01*
X146541428Y-112290952D01*
X147446190Y-112862380D02*
X147446190Y-112195714D01*
X147446190Y-112290952D02*
X147493809Y-112243333D01*
X147589047Y-112195714D01*
X147731904Y-112195714D01*
X147827142Y-112243333D01*
X147874761Y-112338571D01*
X147874761Y-112862380D01*
X147874761Y-112338571D02*
X147922380Y-112243333D01*
X148017619Y-112195714D01*
X148160476Y-112195714D01*
X148255714Y-112243333D01*
X148303333Y-112338571D01*
X148303333Y-112862380D01*
X149541428Y-112862380D02*
X149541428Y-112195714D01*
X149541428Y-112386190D02*
X149589047Y-112290952D01*
X149636666Y-112243333D01*
X149731904Y-112195714D01*
X149827142Y-112195714D01*
X150541428Y-112814761D02*
X150446190Y-112862380D01*
X150255714Y-112862380D01*
X150160476Y-112814761D01*
X150112857Y-112719523D01*
X150112857Y-112338571D01*
X150160476Y-112243333D01*
X150255714Y-112195714D01*
X150446190Y-112195714D01*
X150541428Y-112243333D01*
X150589047Y-112338571D01*
X150589047Y-112433809D01*
X150112857Y-112529047D01*
X150969999Y-112814761D02*
X151065238Y-112862380D01*
X151255714Y-112862380D01*
X151350952Y-112814761D01*
X151398571Y-112719523D01*
X151398571Y-112671904D01*
X151350952Y-112576666D01*
X151255714Y-112529047D01*
X151112857Y-112529047D01*
X151017619Y-112481428D01*
X150969999Y-112386190D01*
X150969999Y-112338571D01*
X151017619Y-112243333D01*
X151112857Y-112195714D01*
X151255714Y-112195714D01*
X151350952Y-112243333D01*
X151827142Y-112862380D02*
X151827142Y-112195714D01*
X151827142Y-111862380D02*
X151779523Y-111910000D01*
X151827142Y-111957619D01*
X151874761Y-111910000D01*
X151827142Y-111862380D01*
X151827142Y-111957619D01*
X152255714Y-112814761D02*
X152350952Y-112862380D01*
X152541428Y-112862380D01*
X152636666Y-112814761D01*
X152684285Y-112719523D01*
X152684285Y-112671904D01*
X152636666Y-112576666D01*
X152541428Y-112529047D01*
X152398571Y-112529047D01*
X152303333Y-112481428D01*
X152255714Y-112386190D01*
X152255714Y-112338571D01*
X152303333Y-112243333D01*
X152398571Y-112195714D01*
X152541428Y-112195714D01*
X152636666Y-112243333D01*
X152969999Y-112195714D02*
X153350952Y-112195714D01*
X153112857Y-111862380D02*
X153112857Y-112719523D01*
X153160476Y-112814761D01*
X153255714Y-112862380D01*
X153350952Y-112862380D01*
X153827142Y-112862380D02*
X153731904Y-112814761D01*
X153684285Y-112767142D01*
X153636666Y-112671904D01*
X153636666Y-112386190D01*
X153684285Y-112290952D01*
X153731904Y-112243333D01*
X153827142Y-112195714D01*
X153969999Y-112195714D01*
X154065238Y-112243333D01*
X154112857Y-112290952D01*
X154160476Y-112386190D01*
X154160476Y-112671904D01*
X154112857Y-112767142D01*
X154065238Y-112814761D01*
X153969999Y-112862380D01*
X153827142Y-112862380D01*
X154589047Y-112862380D02*
X154589047Y-112195714D01*
X154589047Y-112386190D02*
X154636666Y-112290952D01*
X154684285Y-112243333D01*
X154779523Y-112195714D01*
X154874761Y-112195714D01*
X155922380Y-112814761D02*
X156065238Y-112862380D01*
X156303333Y-112862380D01*
X156398571Y-112814761D01*
X156446190Y-112767142D01*
X156493809Y-112671904D01*
X156493809Y-112576666D01*
X156446190Y-112481428D01*
X156398571Y-112433809D01*
X156303333Y-112386190D01*
X156112857Y-112338571D01*
X156017619Y-112290952D01*
X155969999Y-112243333D01*
X155922380Y-112148095D01*
X155922380Y-112052857D01*
X155969999Y-111957619D01*
X156017619Y-111910000D01*
X156112857Y-111862380D01*
X156350952Y-111862380D01*
X156493809Y-111910000D01*
X156922380Y-112862380D02*
X156922380Y-111862380D01*
X157255714Y-112576666D01*
X157589047Y-111862380D01*
X157589047Y-112862380D01*
X158065238Y-112862380D02*
X158065238Y-111862380D01*
X158303333Y-111862380D01*
X158446190Y-111910000D01*
X158541428Y-112005238D01*
X158589047Y-112100476D01*
X158636666Y-112290952D01*
X158636666Y-112433809D01*
X158589047Y-112624285D01*
X158541428Y-112719523D01*
X158446190Y-112814761D01*
X158303333Y-112862380D01*
X158065238Y-112862380D01*
X159017619Y-112814761D02*
X159112857Y-112862380D01*
X159303333Y-112862380D01*
X159398571Y-112814761D01*
X159446190Y-112719523D01*
X159446190Y-112671904D01*
X159398571Y-112576666D01*
X159303333Y-112529047D01*
X159160476Y-112529047D01*
X159065238Y-112481428D01*
X159017619Y-112386190D01*
X159017619Y-112338571D01*
X159065238Y-112243333D01*
X159160476Y-112195714D01*
X159303333Y-112195714D01*
X159398571Y-112243333D01*
X118030952Y-90854761D02*
X118173809Y-90902380D01*
X118411904Y-90902380D01*
X118507142Y-90854761D01*
X118554761Y-90807142D01*
X118602380Y-90711904D01*
X118602380Y-90616666D01*
X118554761Y-90521428D01*
X118507142Y-90473809D01*
X118411904Y-90426190D01*
X118221428Y-90378571D01*
X118126190Y-90330952D01*
X118078571Y-90283333D01*
X118030952Y-90188095D01*
X118030952Y-90092857D01*
X118078571Y-89997619D01*
X118126190Y-89950000D01*
X118221428Y-89902380D01*
X118459523Y-89902380D01*
X118602380Y-89950000D01*
X118983333Y-90616666D02*
X119459523Y-90616666D01*
X118888095Y-90902380D02*
X119221428Y-89902380D01*
X119554761Y-90902380D01*
X120459523Y-90807142D02*
X120411904Y-90854761D01*
X120269047Y-90902380D01*
X120173809Y-90902380D01*
X120030952Y-90854761D01*
X119935714Y-90759523D01*
X119888095Y-90664285D01*
X119840476Y-90473809D01*
X119840476Y-90330952D01*
X119888095Y-90140476D01*
X119935714Y-90045238D01*
X120030952Y-89950000D01*
X120173809Y-89902380D01*
X120269047Y-89902380D01*
X120411904Y-89950000D01*
X120459523Y-89997619D01*
X120888095Y-90902380D02*
X120888095Y-89902380D01*
X122269047Y-90902380D02*
X122173809Y-90854761D01*
X122126190Y-90759523D01*
X122126190Y-89902380D01*
X122650000Y-90902380D02*
X122650000Y-90235714D01*
X122650000Y-89902380D02*
X122602380Y-89950000D01*
X122650000Y-89997619D01*
X122697619Y-89950000D01*
X122650000Y-89902380D01*
X122650000Y-89997619D01*
X123126190Y-90235714D02*
X123126190Y-90902380D01*
X123126190Y-90330952D02*
X123173809Y-90283333D01*
X123269047Y-90235714D01*
X123411904Y-90235714D01*
X123507142Y-90283333D01*
X123554761Y-90378571D01*
X123554761Y-90902380D01*
X124411904Y-90854761D02*
X124316666Y-90902380D01*
X124126190Y-90902380D01*
X124030952Y-90854761D01*
X123983333Y-90759523D01*
X123983333Y-90378571D01*
X124030952Y-90283333D01*
X124126190Y-90235714D01*
X124316666Y-90235714D01*
X124411904Y-90283333D01*
X124459523Y-90378571D01*
X124459523Y-90473809D01*
X123983333Y-90569047D01*
X124840476Y-90854761D02*
X124935714Y-90902380D01*
X125126190Y-90902380D01*
X125221428Y-90854761D01*
X125269047Y-90759523D01*
X125269047Y-90711904D01*
X125221428Y-90616666D01*
X125126190Y-90569047D01*
X124983333Y-90569047D01*
X124888095Y-90521428D01*
X124840476Y-90426190D01*
X124840476Y-90378571D01*
X124888095Y-90283333D01*
X124983333Y-90235714D01*
X125126190Y-90235714D01*
X125221428Y-90283333D01*
X165355714Y-91259047D02*
X166022380Y-91020952D01*
X165355714Y-90782857D01*
X166022380Y-89973333D02*
X165022380Y-89973333D01*
X165974761Y-89973333D02*
X166022380Y-90068571D01*
X166022380Y-90259047D01*
X165974761Y-90354285D01*
X165927142Y-90401904D01*
X165831904Y-90449523D01*
X165546190Y-90449523D01*
X165450952Y-90401904D01*
X165403333Y-90354285D01*
X165355714Y-90259047D01*
X165355714Y-90068571D01*
X165403333Y-89973333D01*
X166022380Y-89068571D02*
X165022380Y-89068571D01*
X165974761Y-89068571D02*
X166022380Y-89163809D01*
X166022380Y-89354285D01*
X165974761Y-89449523D01*
X165927142Y-89497142D01*
X165831904Y-89544761D01*
X165546190Y-89544761D01*
X165450952Y-89497142D01*
X165403333Y-89449523D01*
X165355714Y-89354285D01*
X165355714Y-89163809D01*
X165403333Y-89068571D01*
X166022380Y-88068571D02*
X166022380Y-88640000D01*
X166022380Y-88354285D02*
X165022380Y-88354285D01*
X165165238Y-88449523D01*
X165260476Y-88544761D01*
X165308095Y-88640000D01*
X145028095Y-90457380D02*
X145028095Y-89457380D01*
X145028095Y-90409761D02*
X144932857Y-90457380D01*
X144742380Y-90457380D01*
X144647142Y-90409761D01*
X144599523Y-90362142D01*
X144551904Y-90266904D01*
X144551904Y-89981190D01*
X144599523Y-89885952D01*
X144647142Y-89838333D01*
X144742380Y-89790714D01*
X144932857Y-89790714D01*
X145028095Y-89838333D01*
X145932857Y-90457380D02*
X145932857Y-89933571D01*
X145885238Y-89838333D01*
X145790000Y-89790714D01*
X145599523Y-89790714D01*
X145504285Y-89838333D01*
X145932857Y-90409761D02*
X145837619Y-90457380D01*
X145599523Y-90457380D01*
X145504285Y-90409761D01*
X145456666Y-90314523D01*
X145456666Y-90219285D01*
X145504285Y-90124047D01*
X145599523Y-90076428D01*
X145837619Y-90076428D01*
X145932857Y-90028809D01*
X146266190Y-89790714D02*
X146647142Y-89790714D01*
X146409047Y-89457380D02*
X146409047Y-90314523D01*
X146456666Y-90409761D01*
X146551904Y-90457380D01*
X146647142Y-90457380D01*
X147409047Y-90457380D02*
X147409047Y-89933571D01*
X147361428Y-89838333D01*
X147266190Y-89790714D01*
X147075714Y-89790714D01*
X146980476Y-89838333D01*
X147409047Y-90409761D02*
X147313809Y-90457380D01*
X147075714Y-90457380D01*
X146980476Y-90409761D01*
X146932857Y-90314523D01*
X146932857Y-90219285D01*
X146980476Y-90124047D01*
X147075714Y-90076428D01*
X147313809Y-90076428D01*
X147409047Y-90028809D01*
X148790000Y-90457380D02*
X148694761Y-90409761D01*
X148647142Y-90314523D01*
X148647142Y-89457380D01*
X149170952Y-90457380D02*
X149170952Y-89790714D01*
X149170952Y-89457380D02*
X149123333Y-89505000D01*
X149170952Y-89552619D01*
X149218571Y-89505000D01*
X149170952Y-89457380D01*
X149170952Y-89552619D01*
X149647142Y-89790714D02*
X149647142Y-90457380D01*
X149647142Y-89885952D02*
X149694761Y-89838333D01*
X149790000Y-89790714D01*
X149932857Y-89790714D01*
X150028095Y-89838333D01*
X150075714Y-89933571D01*
X150075714Y-90457380D01*
X150932857Y-90409761D02*
X150837619Y-90457380D01*
X150647142Y-90457380D01*
X150551904Y-90409761D01*
X150504285Y-90314523D01*
X150504285Y-89933571D01*
X150551904Y-89838333D01*
X150647142Y-89790714D01*
X150837619Y-89790714D01*
X150932857Y-89838333D01*
X150980476Y-89933571D01*
X150980476Y-90028809D01*
X150504285Y-90124047D01*
X151361428Y-90409761D02*
X151456666Y-90457380D01*
X151647142Y-90457380D01*
X151742380Y-90409761D01*
X151790000Y-90314523D01*
X151790000Y-90266904D01*
X151742380Y-90171666D01*
X151647142Y-90124047D01*
X151504285Y-90124047D01*
X151409047Y-90076428D01*
X151361428Y-89981190D01*
X151361428Y-89933571D01*
X151409047Y-89838333D01*
X151504285Y-89790714D01*
X151647142Y-89790714D01*
X151742380Y-89838333D01*
X153409047Y-90457380D02*
X153409047Y-89933571D01*
X153361428Y-89838333D01*
X153266190Y-89790714D01*
X153075714Y-89790714D01*
X152980476Y-89838333D01*
X153409047Y-90409761D02*
X153313809Y-90457380D01*
X153075714Y-90457380D01*
X152980476Y-90409761D01*
X152932857Y-90314523D01*
X152932857Y-90219285D01*
X152980476Y-90124047D01*
X153075714Y-90076428D01*
X153313809Y-90076428D01*
X153409047Y-90028809D01*
X153885238Y-89790714D02*
X153885238Y-90457380D01*
X153885238Y-89885952D02*
X153932857Y-89838333D01*
X154028095Y-89790714D01*
X154170952Y-89790714D01*
X154266190Y-89838333D01*
X154313809Y-89933571D01*
X154313809Y-90457380D01*
X155218571Y-90457380D02*
X155218571Y-89457380D01*
X155218571Y-90409761D02*
X155123333Y-90457380D01*
X154932857Y-90457380D01*
X154837619Y-90409761D01*
X154790000Y-90362142D01*
X154742380Y-90266904D01*
X154742380Y-89981190D01*
X154790000Y-89885952D01*
X154837619Y-89838333D01*
X154932857Y-89790714D01*
X155123333Y-89790714D01*
X155218571Y-89838333D01*
X144218571Y-92067380D02*
X144218571Y-91067380D01*
X144647142Y-92067380D02*
X144647142Y-91543571D01*
X144599523Y-91448333D01*
X144504285Y-91400714D01*
X144361428Y-91400714D01*
X144266190Y-91448333D01*
X144218571Y-91495952D01*
X145123333Y-92067380D02*
X145123333Y-91400714D01*
X145123333Y-91067380D02*
X145075714Y-91115000D01*
X145123333Y-91162619D01*
X145170952Y-91115000D01*
X145123333Y-91067380D01*
X145123333Y-91162619D01*
X146028095Y-91400714D02*
X146028095Y-92210238D01*
X145980476Y-92305476D01*
X145932857Y-92353095D01*
X145837619Y-92400714D01*
X145694761Y-92400714D01*
X145599523Y-92353095D01*
X146028095Y-92019761D02*
X145932857Y-92067380D01*
X145742380Y-92067380D01*
X145647142Y-92019761D01*
X145599523Y-91972142D01*
X145551904Y-91876904D01*
X145551904Y-91591190D01*
X145599523Y-91495952D01*
X145647142Y-91448333D01*
X145742380Y-91400714D01*
X145932857Y-91400714D01*
X146028095Y-91448333D01*
X146504285Y-92067380D02*
X146504285Y-91067380D01*
X146932857Y-92067380D02*
X146932857Y-91543571D01*
X146885238Y-91448333D01*
X146790000Y-91400714D01*
X146647142Y-91400714D01*
X146551904Y-91448333D01*
X146504285Y-91495952D01*
X148123333Y-92019761D02*
X148218571Y-92067380D01*
X148409047Y-92067380D01*
X148504285Y-92019761D01*
X148551904Y-91924523D01*
X148551904Y-91876904D01*
X148504285Y-91781666D01*
X148409047Y-91734047D01*
X148266190Y-91734047D01*
X148170952Y-91686428D01*
X148123333Y-91591190D01*
X148123333Y-91543571D01*
X148170952Y-91448333D01*
X148266190Y-91400714D01*
X148409047Y-91400714D01*
X148504285Y-91448333D01*
X148980476Y-91400714D02*
X148980476Y-92400714D01*
X148980476Y-91448333D02*
X149075714Y-91400714D01*
X149266190Y-91400714D01*
X149361428Y-91448333D01*
X149409047Y-91495952D01*
X149456666Y-91591190D01*
X149456666Y-91876904D01*
X149409047Y-91972142D01*
X149361428Y-92019761D01*
X149266190Y-92067380D01*
X149075714Y-92067380D01*
X148980476Y-92019761D01*
X150266190Y-92019761D02*
X150170952Y-92067380D01*
X149980476Y-92067380D01*
X149885238Y-92019761D01*
X149837619Y-91924523D01*
X149837619Y-91543571D01*
X149885238Y-91448333D01*
X149980476Y-91400714D01*
X150170952Y-91400714D01*
X150266190Y-91448333D01*
X150313809Y-91543571D01*
X150313809Y-91638809D01*
X149837619Y-91734047D01*
X151123333Y-92019761D02*
X151028095Y-92067380D01*
X150837619Y-92067380D01*
X150742380Y-92019761D01*
X150694761Y-91924523D01*
X150694761Y-91543571D01*
X150742380Y-91448333D01*
X150837619Y-91400714D01*
X151028095Y-91400714D01*
X151123333Y-91448333D01*
X151170952Y-91543571D01*
X151170952Y-91638809D01*
X150694761Y-91734047D01*
X152028095Y-92067380D02*
X152028095Y-91067380D01*
X152028095Y-92019761D02*
X151932857Y-92067380D01*
X151742380Y-92067380D01*
X151647142Y-92019761D01*
X151599523Y-91972142D01*
X151551904Y-91876904D01*
X151551904Y-91591190D01*
X151599523Y-91495952D01*
X151647142Y-91448333D01*
X151742380Y-91400714D01*
X151932857Y-91400714D01*
X152028095Y-91448333D01*
X153409047Y-92067380D02*
X153313809Y-92019761D01*
X153266190Y-91924523D01*
X153266190Y-91067380D01*
X153790000Y-92067380D02*
X153790000Y-91400714D01*
X153790000Y-91067380D02*
X153742380Y-91115000D01*
X153790000Y-91162619D01*
X153837619Y-91115000D01*
X153790000Y-91067380D01*
X153790000Y-91162619D01*
X154266190Y-91400714D02*
X154266190Y-92067380D01*
X154266190Y-91495952D02*
X154313809Y-91448333D01*
X154409047Y-91400714D01*
X154551904Y-91400714D01*
X154647142Y-91448333D01*
X154694761Y-91543571D01*
X154694761Y-92067380D01*
X155551904Y-92019761D02*
X155456666Y-92067380D01*
X155266190Y-92067380D01*
X155170952Y-92019761D01*
X155123333Y-91924523D01*
X155123333Y-91543571D01*
X155170952Y-91448333D01*
X155266190Y-91400714D01*
X155456666Y-91400714D01*
X155551904Y-91448333D01*
X155599523Y-91543571D01*
X155599523Y-91638809D01*
X155123333Y-91734047D01*
X155980476Y-92019761D02*
X156075714Y-92067380D01*
X156266190Y-92067380D01*
X156361428Y-92019761D01*
X156409047Y-91924523D01*
X156409047Y-91876904D01*
X156361428Y-91781666D01*
X156266190Y-91734047D01*
X156123333Y-91734047D01*
X156028095Y-91686428D01*
X155980476Y-91591190D01*
X155980476Y-91543571D01*
X156028095Y-91448333D01*
X156123333Y-91400714D01*
X156266190Y-91400714D01*
X156361428Y-91448333D01*
X106902380Y-98545238D02*
X106378571Y-98545238D01*
X106283333Y-98592857D01*
X106235714Y-98688095D01*
X106235714Y-98878571D01*
X106283333Y-98973809D01*
X106854761Y-98545238D02*
X106902380Y-98640476D01*
X106902380Y-98878571D01*
X106854761Y-98973809D01*
X106759523Y-99021428D01*
X106664285Y-99021428D01*
X106569047Y-98973809D01*
X106521428Y-98878571D01*
X106521428Y-98640476D01*
X106473809Y-98545238D01*
X106235714Y-98069047D02*
X106902380Y-98069047D01*
X106330952Y-98069047D02*
X106283333Y-98021428D01*
X106235714Y-97926190D01*
X106235714Y-97783333D01*
X106283333Y-97688095D01*
X106378571Y-97640476D01*
X106902380Y-97640476D01*
X106902380Y-96735714D02*
X106378571Y-96735714D01*
X106283333Y-96783333D01*
X106235714Y-96878571D01*
X106235714Y-97069047D01*
X106283333Y-97164285D01*
X106854761Y-96735714D02*
X106902380Y-96830952D01*
X106902380Y-97069047D01*
X106854761Y-97164285D01*
X106759523Y-97211904D01*
X106664285Y-97211904D01*
X106569047Y-97164285D01*
X106521428Y-97069047D01*
X106521428Y-96830952D01*
X106473809Y-96735714D01*
X106902380Y-96116666D02*
X106854761Y-96211904D01*
X106759523Y-96259523D01*
X105902380Y-96259523D01*
X106902380Y-95592857D02*
X106854761Y-95688095D01*
X106807142Y-95735714D01*
X106711904Y-95783333D01*
X106426190Y-95783333D01*
X106330952Y-95735714D01*
X106283333Y-95688095D01*
X106235714Y-95592857D01*
X106235714Y-95450000D01*
X106283333Y-95354761D01*
X106330952Y-95307142D01*
X106426190Y-95259523D01*
X106711904Y-95259523D01*
X106807142Y-95307142D01*
X106854761Y-95354761D01*
X106902380Y-95450000D01*
X106902380Y-95592857D01*
X106235714Y-94402380D02*
X107045238Y-94402380D01*
X107140476Y-94450000D01*
X107188095Y-94497619D01*
X107235714Y-94592857D01*
X107235714Y-94735714D01*
X107188095Y-94830952D01*
X106854761Y-94402380D02*
X106902380Y-94497619D01*
X106902380Y-94688095D01*
X106854761Y-94783333D01*
X106807142Y-94830952D01*
X106711904Y-94878571D01*
X106426190Y-94878571D01*
X106330952Y-94830952D01*
X106283333Y-94783333D01*
X106235714Y-94688095D01*
X106235714Y-94497619D01*
X106283333Y-94402380D01*
X106902380Y-93164285D02*
X106235714Y-93164285D01*
X106330952Y-93164285D02*
X106283333Y-93116666D01*
X106235714Y-93021428D01*
X106235714Y-92878571D01*
X106283333Y-92783333D01*
X106378571Y-92735714D01*
X106902380Y-92735714D01*
X106378571Y-92735714D02*
X106283333Y-92688095D01*
X106235714Y-92592857D01*
X106235714Y-92450000D01*
X106283333Y-92354761D01*
X106378571Y-92307142D01*
X106902380Y-92307142D01*
X106902380Y-91688095D02*
X106854761Y-91783333D01*
X106807142Y-91830952D01*
X106711904Y-91878571D01*
X106426190Y-91878571D01*
X106330952Y-91830952D01*
X106283333Y-91783333D01*
X106235714Y-91688095D01*
X106235714Y-91545238D01*
X106283333Y-91450000D01*
X106330952Y-91402380D01*
X106426190Y-91354761D01*
X106711904Y-91354761D01*
X106807142Y-91402380D01*
X106854761Y-91450000D01*
X106902380Y-91545238D01*
X106902380Y-91688095D01*
X106235714Y-90926190D02*
X106902380Y-90926190D01*
X106330952Y-90926190D02*
X106283333Y-90878571D01*
X106235714Y-90783333D01*
X106235714Y-90640476D01*
X106283333Y-90545238D01*
X106378571Y-90497619D01*
X106902380Y-90497619D01*
X106902380Y-90021428D02*
X106235714Y-90021428D01*
X105902380Y-90021428D02*
X105950000Y-90069047D01*
X105997619Y-90021428D01*
X105950000Y-89973809D01*
X105902380Y-90021428D01*
X105997619Y-90021428D01*
X106235714Y-89688095D02*
X106235714Y-89307142D01*
X105902380Y-89545238D02*
X106759523Y-89545238D01*
X106854761Y-89497619D01*
X106902380Y-89402380D01*
X106902380Y-89307142D01*
X106902380Y-88830952D02*
X106854761Y-88926190D01*
X106807142Y-88973809D01*
X106711904Y-89021428D01*
X106426190Y-89021428D01*
X106330952Y-88973809D01*
X106283333Y-88926190D01*
X106235714Y-88830952D01*
X106235714Y-88688095D01*
X106283333Y-88592857D01*
X106330952Y-88545238D01*
X106426190Y-88497619D01*
X106711904Y-88497619D01*
X106807142Y-88545238D01*
X106854761Y-88592857D01*
X106902380Y-88688095D01*
X106902380Y-88830952D01*
X106902380Y-88069047D02*
X106235714Y-88069047D01*
X106426190Y-88069047D02*
X106330952Y-88021428D01*
X106283333Y-87973809D01*
X106235714Y-87878571D01*
X106235714Y-87783333D01*
X181740952Y-100635714D02*
X181979047Y-101302380D01*
X182217142Y-100635714D01*
X183026666Y-101302380D02*
X183026666Y-100302380D01*
X183026666Y-101254761D02*
X182931428Y-101302380D01*
X182740952Y-101302380D01*
X182645714Y-101254761D01*
X182598095Y-101207142D01*
X182550476Y-101111904D01*
X182550476Y-100826190D01*
X182598095Y-100730952D01*
X182645714Y-100683333D01*
X182740952Y-100635714D01*
X182931428Y-100635714D01*
X183026666Y-100683333D01*
X183931428Y-101302380D02*
X183931428Y-100302380D01*
X183931428Y-101254761D02*
X183836190Y-101302380D01*
X183645714Y-101302380D01*
X183550476Y-101254761D01*
X183502857Y-101207142D01*
X183455238Y-101111904D01*
X183455238Y-100826190D01*
X183502857Y-100730952D01*
X183550476Y-100683333D01*
X183645714Y-100635714D01*
X183836190Y-100635714D01*
X183931428Y-100683333D01*
X184931428Y-101302380D02*
X184360000Y-101302380D01*
X184645714Y-101302380D02*
X184645714Y-100302380D01*
X184550476Y-100445238D01*
X184455238Y-100540476D01*
X184360000Y-100588095D01*
X185121904Y-101397619D02*
X185883809Y-101397619D01*
X186074285Y-101254761D02*
X186169523Y-101302380D01*
X186360000Y-101302380D01*
X186455238Y-101254761D01*
X186502857Y-101159523D01*
X186502857Y-101111904D01*
X186455238Y-101016666D01*
X186360000Y-100969047D01*
X186217142Y-100969047D01*
X186121904Y-100921428D01*
X186074285Y-100826190D01*
X186074285Y-100778571D01*
X186121904Y-100683333D01*
X186217142Y-100635714D01*
X186360000Y-100635714D01*
X186455238Y-100683333D01*
X187312380Y-101254761D02*
X187217142Y-101302380D01*
X187026666Y-101302380D01*
X186931428Y-101254761D01*
X186883809Y-101159523D01*
X186883809Y-100778571D01*
X186931428Y-100683333D01*
X187026666Y-100635714D01*
X187217142Y-100635714D01*
X187312380Y-100683333D01*
X187360000Y-100778571D01*
X187360000Y-100873809D01*
X186883809Y-100969047D01*
X187788571Y-100635714D02*
X187788571Y-101302380D01*
X187788571Y-100730952D02*
X187836190Y-100683333D01*
X187931428Y-100635714D01*
X188074285Y-100635714D01*
X188169523Y-100683333D01*
X188217142Y-100778571D01*
X188217142Y-101302380D01*
X188645714Y-101254761D02*
X188740952Y-101302380D01*
X188931428Y-101302380D01*
X189026666Y-101254761D01*
X189074285Y-101159523D01*
X189074285Y-101111904D01*
X189026666Y-101016666D01*
X188931428Y-100969047D01*
X188788571Y-100969047D01*
X188693333Y-100921428D01*
X188645714Y-100826190D01*
X188645714Y-100778571D01*
X188693333Y-100683333D01*
X188788571Y-100635714D01*
X188931428Y-100635714D01*
X189026666Y-100683333D01*
X189883809Y-101254761D02*
X189788571Y-101302380D01*
X189598095Y-101302380D01*
X189502857Y-101254761D01*
X189455238Y-101159523D01*
X189455238Y-100778571D01*
X189502857Y-100683333D01*
X189598095Y-100635714D01*
X189788571Y-100635714D01*
X189883809Y-100683333D01*
X189931428Y-100778571D01*
X189931428Y-100873809D01*
X189455238Y-100969047D01*
X176305714Y-103533809D02*
X176972380Y-103295714D01*
X176305714Y-103057619D01*
X176972380Y-102248095D02*
X175972380Y-102248095D01*
X176924761Y-102248095D02*
X176972380Y-102343333D01*
X176972380Y-102533809D01*
X176924761Y-102629047D01*
X176877142Y-102676666D01*
X176781904Y-102724285D01*
X176496190Y-102724285D01*
X176400952Y-102676666D01*
X176353333Y-102629047D01*
X176305714Y-102533809D01*
X176305714Y-102343333D01*
X176353333Y-102248095D01*
X176972380Y-101343333D02*
X175972380Y-101343333D01*
X176924761Y-101343333D02*
X176972380Y-101438571D01*
X176972380Y-101629047D01*
X176924761Y-101724285D01*
X176877142Y-101771904D01*
X176781904Y-101819523D01*
X176496190Y-101819523D01*
X176400952Y-101771904D01*
X176353333Y-101724285D01*
X176305714Y-101629047D01*
X176305714Y-101438571D01*
X176353333Y-101343333D01*
X176924761Y-100152857D02*
X176972380Y-100057619D01*
X176972380Y-99867142D01*
X176924761Y-99771904D01*
X176829523Y-99724285D01*
X176781904Y-99724285D01*
X176686666Y-99771904D01*
X176639047Y-99867142D01*
X176639047Y-100010000D01*
X176591428Y-100105238D01*
X176496190Y-100152857D01*
X176448571Y-100152857D01*
X176353333Y-100105238D01*
X176305714Y-100010000D01*
X176305714Y-99867142D01*
X176353333Y-99771904D01*
X176924761Y-98914761D02*
X176972380Y-99010000D01*
X176972380Y-99200476D01*
X176924761Y-99295714D01*
X176829523Y-99343333D01*
X176448571Y-99343333D01*
X176353333Y-99295714D01*
X176305714Y-99200476D01*
X176305714Y-99010000D01*
X176353333Y-98914761D01*
X176448571Y-98867142D01*
X176543809Y-98867142D01*
X176639047Y-99343333D01*
X176305714Y-98438571D02*
X176972380Y-98438571D01*
X176400952Y-98438571D02*
X176353333Y-98390952D01*
X176305714Y-98295714D01*
X176305714Y-98152857D01*
X176353333Y-98057619D01*
X176448571Y-98010000D01*
X176972380Y-98010000D01*
X176924761Y-97581428D02*
X176972380Y-97486190D01*
X176972380Y-97295714D01*
X176924761Y-97200476D01*
X176829523Y-97152857D01*
X176781904Y-97152857D01*
X176686666Y-97200476D01*
X176639047Y-97295714D01*
X176639047Y-97438571D01*
X176591428Y-97533809D01*
X176496190Y-97581428D01*
X176448571Y-97581428D01*
X176353333Y-97533809D01*
X176305714Y-97438571D01*
X176305714Y-97295714D01*
X176353333Y-97200476D01*
X176924761Y-96343333D02*
X176972380Y-96438571D01*
X176972380Y-96629047D01*
X176924761Y-96724285D01*
X176829523Y-96771904D01*
X176448571Y-96771904D01*
X176353333Y-96724285D01*
X176305714Y-96629047D01*
X176305714Y-96438571D01*
X176353333Y-96343333D01*
X176448571Y-96295714D01*
X176543809Y-96295714D01*
X176639047Y-96771904D01*
%TO.C,JP1*%
X102986666Y-79392380D02*
X102986666Y-80106666D01*
X102939047Y-80249523D01*
X102843809Y-80344761D01*
X102700952Y-80392380D01*
X102605714Y-80392380D01*
X103462857Y-80392380D02*
X103462857Y-79392380D01*
X103843809Y-79392380D01*
X103939047Y-79440000D01*
X103986666Y-79487619D01*
X104034285Y-79582857D01*
X104034285Y-79725714D01*
X103986666Y-79820952D01*
X103939047Y-79868571D01*
X103843809Y-79916190D01*
X103462857Y-79916190D01*
X104986666Y-80392380D02*
X104415238Y-80392380D01*
X104700952Y-80392380D02*
X104700952Y-79392380D01*
X104605714Y-79535238D01*
X104510476Y-79630476D01*
X104415238Y-79678095D01*
%TO.C,REF\u002A\u002A1*%
X89940476Y-68112380D02*
X89607142Y-67636190D01*
X89369047Y-68112380D02*
X89369047Y-67112380D01*
X89750000Y-67112380D01*
X89845238Y-67160000D01*
X89892857Y-67207619D01*
X89940476Y-67302857D01*
X89940476Y-67445714D01*
X89892857Y-67540952D01*
X89845238Y-67588571D01*
X89750000Y-67636190D01*
X89369047Y-67636190D01*
X90369047Y-67588571D02*
X90702380Y-67588571D01*
X90845238Y-68112380D02*
X90369047Y-68112380D01*
X90369047Y-67112380D01*
X90845238Y-67112380D01*
X91607142Y-67588571D02*
X91273809Y-67588571D01*
X91273809Y-68112380D02*
X91273809Y-67112380D01*
X91750000Y-67112380D01*
X92273809Y-67112380D02*
X92273809Y-67350476D01*
X92035714Y-67255238D02*
X92273809Y-67350476D01*
X92511904Y-67255238D01*
X92130952Y-67540952D02*
X92273809Y-67350476D01*
X92416666Y-67540952D01*
X93035714Y-67112380D02*
X93035714Y-67350476D01*
X92797619Y-67255238D02*
X93035714Y-67350476D01*
X93273809Y-67255238D01*
X92892857Y-67540952D02*
X93035714Y-67350476D01*
X93178571Y-67540952D01*
X94178571Y-68112380D02*
X93607142Y-68112380D01*
X93892857Y-68112380D02*
X93892857Y-67112380D01*
X93797619Y-67255238D01*
X93702380Y-67350476D01*
X93607142Y-67398095D01*
%TO.C,J21*%
X154576533Y-106757847D02*
X154576533Y-107473415D01*
X154528828Y-107616529D01*
X154433419Y-107711938D01*
X154290305Y-107759642D01*
X154194896Y-107759642D01*
X155005873Y-106853257D02*
X155053578Y-106805552D01*
X155148987Y-106757847D01*
X155387510Y-106757847D01*
X155482919Y-106805552D01*
X155530623Y-106853257D01*
X155578328Y-106948666D01*
X155578328Y-107044075D01*
X155530623Y-107187188D01*
X154958169Y-107759642D01*
X155578328Y-107759642D01*
X156532418Y-107759642D02*
X155959964Y-107759642D01*
X156246191Y-107759642D02*
X156246191Y-106757847D01*
X156150782Y-106900961D01*
X156055373Y-106996370D01*
X155959964Y-107044075D01*
D11*
%TO.C,J2*%
X165505380Y-107610833D02*
X166219666Y-107610833D01*
X166362523Y-107658452D01*
X166457761Y-107753690D01*
X166505380Y-107896547D01*
X166505380Y-107991785D01*
X165600619Y-107182261D02*
X165553000Y-107134642D01*
X165505380Y-107039404D01*
X165505380Y-106801309D01*
X165553000Y-106706071D01*
X165600619Y-106658452D01*
X165695857Y-106610833D01*
X165791095Y-106610833D01*
X165933952Y-106658452D01*
X166505380Y-107229880D01*
X166505380Y-106610833D01*
D10*
%TO.C,TP4*%
X181552380Y-110021904D02*
X181552380Y-109450476D01*
X182552380Y-109736190D02*
X181552380Y-109736190D01*
X182552380Y-109117142D02*
X181552380Y-109117142D01*
X181552380Y-108736190D01*
X181600000Y-108640952D01*
X181647619Y-108593333D01*
X181742857Y-108545714D01*
X181885714Y-108545714D01*
X181980952Y-108593333D01*
X182028571Y-108640952D01*
X182076190Y-108736190D01*
X182076190Y-109117142D01*
X181885714Y-107688571D02*
X182552380Y-107688571D01*
X181504761Y-107926666D02*
X182219047Y-108164761D01*
X182219047Y-107545714D01*
%TO.C,REF\u002A\u002A2*%
X185190476Y-106212380D02*
X184857142Y-105736190D01*
X184619047Y-106212380D02*
X184619047Y-105212380D01*
X185000000Y-105212380D01*
X185095238Y-105260000D01*
X185142857Y-105307619D01*
X185190476Y-105402857D01*
X185190476Y-105545714D01*
X185142857Y-105640952D01*
X185095238Y-105688571D01*
X185000000Y-105736190D01*
X184619047Y-105736190D01*
X185619047Y-105688571D02*
X185952380Y-105688571D01*
X186095238Y-106212380D02*
X185619047Y-106212380D01*
X185619047Y-105212380D01*
X186095238Y-105212380D01*
X186857142Y-105688571D02*
X186523809Y-105688571D01*
X186523809Y-106212380D02*
X186523809Y-105212380D01*
X187000000Y-105212380D01*
X187523809Y-105212380D02*
X187523809Y-105450476D01*
X187285714Y-105355238D02*
X187523809Y-105450476D01*
X187761904Y-105355238D01*
X187380952Y-105640952D02*
X187523809Y-105450476D01*
X187666666Y-105640952D01*
X188285714Y-105212380D02*
X188285714Y-105450476D01*
X188047619Y-105355238D02*
X188285714Y-105450476D01*
X188523809Y-105355238D01*
X188142857Y-105640952D02*
X188285714Y-105450476D01*
X188428571Y-105640952D01*
X188857142Y-105307619D02*
X188904761Y-105260000D01*
X189000000Y-105212380D01*
X189238095Y-105212380D01*
X189333333Y-105260000D01*
X189380952Y-105307619D01*
X189428571Y-105402857D01*
X189428571Y-105498095D01*
X189380952Y-105640952D01*
X188809523Y-106212380D01*
X189428571Y-106212380D01*
D11*
%TO.C,J3*%
X94405380Y-96685833D02*
X95119666Y-96685833D01*
X95262523Y-96733452D01*
X95357761Y-96828690D01*
X95405380Y-96971547D01*
X95405380Y-97066785D01*
X94405380Y-96304880D02*
X94405380Y-95685833D01*
X94786333Y-96019166D01*
X94786333Y-95876309D01*
X94833952Y-95781071D01*
X94881571Y-95733452D01*
X94976809Y-95685833D01*
X95214904Y-95685833D01*
X95310142Y-95733452D01*
X95357761Y-95781071D01*
X95405380Y-95876309D01*
X95405380Y-96162023D01*
X95357761Y-96257261D01*
X95310142Y-96304880D01*
D10*
%TO.C,R3*%
X108863333Y-86992380D02*
X108530000Y-86516190D01*
X108291904Y-86992380D02*
X108291904Y-85992380D01*
X108672857Y-85992380D01*
X108768095Y-86040000D01*
X108815714Y-86087619D01*
X108863333Y-86182857D01*
X108863333Y-86325714D01*
X108815714Y-86420952D01*
X108768095Y-86468571D01*
X108672857Y-86516190D01*
X108291904Y-86516190D01*
X109196666Y-85992380D02*
X109815714Y-85992380D01*
X109482380Y-86373333D01*
X109625238Y-86373333D01*
X109720476Y-86420952D01*
X109768095Y-86468571D01*
X109815714Y-86563809D01*
X109815714Y-86801904D01*
X109768095Y-86897142D01*
X109720476Y-86944761D01*
X109625238Y-86992380D01*
X109339523Y-86992380D01*
X109244285Y-86944761D01*
X109196666Y-86897142D01*
%TO.C,R2*%
X164723333Y-93522380D02*
X164390000Y-93046190D01*
X164151904Y-93522380D02*
X164151904Y-92522380D01*
X164532857Y-92522380D01*
X164628095Y-92570000D01*
X164675714Y-92617619D01*
X164723333Y-92712857D01*
X164723333Y-92855714D01*
X164675714Y-92950952D01*
X164628095Y-92998571D01*
X164532857Y-93046190D01*
X164151904Y-93046190D01*
X165104285Y-92617619D02*
X165151904Y-92570000D01*
X165247142Y-92522380D01*
X165485238Y-92522380D01*
X165580476Y-92570000D01*
X165628095Y-92617619D01*
X165675714Y-92712857D01*
X165675714Y-92808095D01*
X165628095Y-92950952D01*
X165056666Y-93522380D01*
X165675714Y-93522380D01*
%TO.C,TP2*%
X181672380Y-88691904D02*
X181672380Y-88120476D01*
X182672380Y-88406190D02*
X181672380Y-88406190D01*
X182672380Y-87787142D02*
X181672380Y-87787142D01*
X181672380Y-87406190D01*
X181720000Y-87310952D01*
X181767619Y-87263333D01*
X181862857Y-87215714D01*
X182005714Y-87215714D01*
X182100952Y-87263333D01*
X182148571Y-87310952D01*
X182196190Y-87406190D01*
X182196190Y-87787142D01*
X181767619Y-86834761D02*
X181720000Y-86787142D01*
X181672380Y-86691904D01*
X181672380Y-86453809D01*
X181720000Y-86358571D01*
X181767619Y-86310952D01*
X181862857Y-86263333D01*
X181958095Y-86263333D01*
X182100952Y-86310952D01*
X182672380Y-86882380D01*
X182672380Y-86263333D01*
%TO.C,R4*%
X124942380Y-109716666D02*
X124466190Y-110050000D01*
X124942380Y-110288095D02*
X123942380Y-110288095D01*
X123942380Y-109907142D01*
X123990000Y-109811904D01*
X124037619Y-109764285D01*
X124132857Y-109716666D01*
X124275714Y-109716666D01*
X124370952Y-109764285D01*
X124418571Y-109811904D01*
X124466190Y-109907142D01*
X124466190Y-110288095D01*
X124275714Y-108859523D02*
X124942380Y-108859523D01*
X123894761Y-109097619D02*
X124609047Y-109335714D01*
X124609047Y-108716666D01*
%TO.C,REF\u002A\u002A*%
X185666666Y-68112380D02*
X185333333Y-67636190D01*
X185095238Y-68112380D02*
X185095238Y-67112380D01*
X185476190Y-67112380D01*
X185571428Y-67160000D01*
X185619047Y-67207619D01*
X185666666Y-67302857D01*
X185666666Y-67445714D01*
X185619047Y-67540952D01*
X185571428Y-67588571D01*
X185476190Y-67636190D01*
X185095238Y-67636190D01*
X186095238Y-67588571D02*
X186428571Y-67588571D01*
X186571428Y-68112380D02*
X186095238Y-68112380D01*
X186095238Y-67112380D01*
X186571428Y-67112380D01*
X187333333Y-67588571D02*
X187000000Y-67588571D01*
X187000000Y-68112380D02*
X187000000Y-67112380D01*
X187476190Y-67112380D01*
X188000000Y-67112380D02*
X188000000Y-67350476D01*
X187761904Y-67255238D02*
X188000000Y-67350476D01*
X188238095Y-67255238D01*
X187857142Y-67540952D02*
X188000000Y-67350476D01*
X188142857Y-67540952D01*
X188761904Y-67112380D02*
X188761904Y-67350476D01*
X188523809Y-67255238D02*
X188761904Y-67350476D01*
X189000000Y-67255238D01*
X188619047Y-67540952D02*
X188761904Y-67350476D01*
X188904761Y-67540952D01*
%TO.C,TP3*%
X181722380Y-77901904D02*
X181722380Y-77330476D01*
X182722380Y-77616190D02*
X181722380Y-77616190D01*
X182722380Y-76997142D02*
X181722380Y-76997142D01*
X181722380Y-76616190D01*
X181770000Y-76520952D01*
X181817619Y-76473333D01*
X181912857Y-76425714D01*
X182055714Y-76425714D01*
X182150952Y-76473333D01*
X182198571Y-76520952D01*
X182246190Y-76616190D01*
X182246190Y-76997142D01*
X181722380Y-76092380D02*
X181722380Y-75473333D01*
X182103333Y-75806666D01*
X182103333Y-75663809D01*
X182150952Y-75568571D01*
X182198571Y-75520952D01*
X182293809Y-75473333D01*
X182531904Y-75473333D01*
X182627142Y-75520952D01*
X182674761Y-75568571D01*
X182722380Y-75663809D01*
X182722380Y-75949523D01*
X182674761Y-76044761D01*
X182627142Y-76092380D01*
%TO.C,J31*%
X126376533Y-106707847D02*
X126376533Y-107423415D01*
X126328828Y-107566529D01*
X126233419Y-107661938D01*
X126090305Y-107709642D01*
X125994896Y-107709642D01*
X126758169Y-106707847D02*
X127378328Y-106707847D01*
X127044396Y-107089484D01*
X127187510Y-107089484D01*
X127282919Y-107137188D01*
X127330623Y-107184893D01*
X127378328Y-107280302D01*
X127378328Y-107518824D01*
X127330623Y-107614233D01*
X127282919Y-107661938D01*
X127187510Y-107709642D01*
X126901282Y-107709642D01*
X126805873Y-107661938D01*
X126758169Y-107614233D01*
X128332418Y-107709642D02*
X127759964Y-107709642D01*
X128046191Y-107709642D02*
X128046191Y-106707847D01*
X127950782Y-106850961D01*
X127855373Y-106946370D01*
X127759964Y-106994075D01*
D11*
%TO.C,J1*%
X175547380Y-85273333D02*
X176261666Y-85273333D01*
X176404523Y-85320952D01*
X176499761Y-85416190D01*
X176547380Y-85559047D01*
X176547380Y-85654285D01*
X176547380Y-84273333D02*
X176547380Y-84844761D01*
X176547380Y-84559047D02*
X175547380Y-84559047D01*
X175690238Y-84654285D01*
X175785476Y-84749523D01*
X175833095Y-84844761D01*
D10*
%TO.C,DSUB1*%
X92812719Y-75331205D02*
X92812719Y-74543803D01*
X93000196Y-74543803D01*
X93112682Y-74581299D01*
X93187672Y-74656289D01*
X93225168Y-74731280D01*
X93262663Y-74881261D01*
X93262663Y-74993747D01*
X93225168Y-75143729D01*
X93187672Y-75218719D01*
X93112682Y-75293710D01*
X93000196Y-75331205D01*
X92812719Y-75331205D01*
X93562626Y-75293710D02*
X93675112Y-75331205D01*
X93862588Y-75331205D01*
X93937579Y-75293710D01*
X93975074Y-75256215D01*
X94012570Y-75181224D01*
X94012570Y-75106233D01*
X93975074Y-75031243D01*
X93937579Y-74993747D01*
X93862588Y-74956252D01*
X93712607Y-74918757D01*
X93637616Y-74881261D01*
X93600121Y-74843766D01*
X93562626Y-74768775D01*
X93562626Y-74693785D01*
X93600121Y-74618794D01*
X93637616Y-74581299D01*
X93712607Y-74543803D01*
X93900084Y-74543803D01*
X94012570Y-74581299D01*
X94350028Y-74543803D02*
X94350028Y-75181224D01*
X94387523Y-75256215D01*
X94425018Y-75293710D01*
X94500009Y-75331205D01*
X94649990Y-75331205D01*
X94724981Y-75293710D01*
X94762476Y-75256215D01*
X94799972Y-75181224D01*
X94799972Y-74543803D01*
X95437392Y-74918757D02*
X95549878Y-74956252D01*
X95587374Y-74993747D01*
X95624869Y-75068738D01*
X95624869Y-75181224D01*
X95587374Y-75256215D01*
X95549878Y-75293710D01*
X95474888Y-75331205D01*
X95174925Y-75331205D01*
X95174925Y-74543803D01*
X95437392Y-74543803D01*
X95512383Y-74581299D01*
X95549878Y-74618794D01*
X95587374Y-74693785D01*
X95587374Y-74768775D01*
X95549878Y-74843766D01*
X95512383Y-74881261D01*
X95437392Y-74918757D01*
X95174925Y-74918757D01*
X96374776Y-75331205D02*
X95924832Y-75331205D01*
X96149804Y-75331205D02*
X96149804Y-74543803D01*
X96074813Y-74656289D01*
X95999822Y-74731280D01*
X95924832Y-74768775D01*
%TO.C,TP1*%
X181622380Y-99431904D02*
X181622380Y-98860476D01*
X182622380Y-99146190D02*
X181622380Y-99146190D01*
X182622380Y-98527142D02*
X181622380Y-98527142D01*
X181622380Y-98146190D01*
X181670000Y-98050952D01*
X181717619Y-98003333D01*
X181812857Y-97955714D01*
X181955714Y-97955714D01*
X182050952Y-98003333D01*
X182098571Y-98050952D01*
X182146190Y-98146190D01*
X182146190Y-98527142D01*
X182622380Y-97003333D02*
X182622380Y-97574761D01*
X182622380Y-97289047D02*
X181622380Y-97289047D01*
X181765238Y-97384285D01*
X181860476Y-97479523D01*
X181908095Y-97574761D01*
%TO.C,R1*%
X154942380Y-109526666D02*
X154466190Y-109860000D01*
X154942380Y-110098095D02*
X153942380Y-110098095D01*
X153942380Y-109717142D01*
X153990000Y-109621904D01*
X154037619Y-109574285D01*
X154132857Y-109526666D01*
X154275714Y-109526666D01*
X154370952Y-109574285D01*
X154418571Y-109621904D01*
X154466190Y-109717142D01*
X154466190Y-110098095D01*
X154942380Y-108574285D02*
X154942380Y-109145714D01*
X154942380Y-108860000D02*
X153942380Y-108860000D01*
X154085238Y-108955238D01*
X154180476Y-109050476D01*
X154228095Y-109145714D01*
%TO.C,REF\u002A\u002A3*%
X89940476Y-106212380D02*
X89607142Y-105736190D01*
X89369047Y-106212380D02*
X89369047Y-105212380D01*
X89750000Y-105212380D01*
X89845238Y-105260000D01*
X89892857Y-105307619D01*
X89940476Y-105402857D01*
X89940476Y-105545714D01*
X89892857Y-105640952D01*
X89845238Y-105688571D01*
X89750000Y-105736190D01*
X89369047Y-105736190D01*
X90369047Y-105688571D02*
X90702380Y-105688571D01*
X90845238Y-106212380D02*
X90369047Y-106212380D01*
X90369047Y-105212380D01*
X90845238Y-105212380D01*
X91607142Y-105688571D02*
X91273809Y-105688571D01*
X91273809Y-106212380D02*
X91273809Y-105212380D01*
X91750000Y-105212380D01*
X92273809Y-105212380D02*
X92273809Y-105450476D01*
X92035714Y-105355238D02*
X92273809Y-105450476D01*
X92511904Y-105355238D01*
X92130952Y-105640952D02*
X92273809Y-105450476D01*
X92416666Y-105640952D01*
X93035714Y-105212380D02*
X93035714Y-105450476D01*
X92797619Y-105355238D02*
X93035714Y-105450476D01*
X93273809Y-105355238D01*
X92892857Y-105640952D02*
X93035714Y-105450476D01*
X93178571Y-105640952D01*
X93559523Y-105212380D02*
X94178571Y-105212380D01*
X93845238Y-105593333D01*
X93988095Y-105593333D01*
X94083333Y-105640952D01*
X94130952Y-105688571D01*
X94178571Y-105783809D01*
X94178571Y-106021904D01*
X94130952Y-106117142D01*
X94083333Y-106164761D01*
X93988095Y-106212380D01*
X93702380Y-106212380D01*
X93607142Y-106164761D01*
X93559523Y-106117142D01*
D12*
%TO.C,JP1*%
X103610000Y-80870000D02*
X104940000Y-80870000D01*
X102340000Y-80870000D02*
X97200000Y-80870000D01*
X102340000Y-80870000D02*
X102340000Y-83530000D01*
X104940000Y-80870000D02*
X104940000Y-82200000D01*
X102340000Y-83530000D02*
X97200000Y-83530000D01*
X97200000Y-80870000D02*
X97200000Y-83530000D01*
D13*
%TO.C,J21*%
X145725000Y-105007000D02*
X145725000Y-104160000D01*
X141025000Y-104160000D02*
X145725000Y-104160000D01*
X159425000Y-106050000D02*
X158025000Y-106050000D01*
X157425000Y-95440000D02*
X141725000Y-95440000D01*
X159425000Y-94750000D02*
X159425000Y-106050000D01*
X153325000Y-104160000D02*
X153325000Y-105007000D01*
X139625000Y-94750000D02*
X141025000Y-94750000D01*
X139625000Y-107050000D02*
X139625000Y-94750000D01*
X141025000Y-107050000D02*
X139625000Y-107050000D01*
X158025000Y-94750000D02*
X159425000Y-94750000D01*
X153325000Y-105007000D02*
X145725000Y-105007000D01*
X153325000Y-104160000D02*
X158025000Y-104160000D01*
D14*
X156252000Y-95062000D02*
G75*
G03*
X156252000Y-95062000I-100000J0D01*
G01*
%TO.C,J2*%
X174540000Y-96232500D02*
X167190000Y-96232500D01*
X167190000Y-101437500D02*
X167190000Y-105247500D01*
X167690000Y-96804000D02*
X167690000Y-101437500D01*
X167690000Y-101437500D02*
X167190000Y-101437500D01*
X167190000Y-105247500D02*
X167690000Y-105247500D01*
X174040000Y-109881000D02*
X174040000Y-104612500D01*
X174040000Y-104612500D02*
X175060000Y-104612500D01*
X167190000Y-110452500D02*
X174540000Y-110452500D01*
X167690000Y-109881000D02*
X167190000Y-109881000D01*
X174540000Y-110452500D02*
X174540000Y-109881000D01*
X175060000Y-104612500D02*
X175060000Y-102072500D01*
X167190000Y-96804000D02*
X167690000Y-96804000D01*
X167190000Y-109881000D02*
X167190000Y-110452500D01*
X174040000Y-102072500D02*
X174040000Y-96804000D01*
X174040000Y-96804000D02*
X174540000Y-96804000D01*
X175060000Y-102072500D02*
X174040000Y-102072500D01*
X167690000Y-105247500D02*
X167690000Y-109881000D01*
X174540000Y-109881000D02*
X174040000Y-109881000D01*
X167190000Y-96232500D02*
X167190000Y-96804000D01*
X174540000Y-96804000D02*
X174540000Y-96232500D01*
X169695000Y-111342500D02*
G75*
G03*
X169695000Y-111342500I-100000J0D01*
G01*
D12*
%TO.C,TP4*%
X181100000Y-104720000D02*
X178100000Y-104720000D01*
X178100000Y-112820000D02*
X178100000Y-104720000D01*
X178100000Y-112820000D02*
X181100000Y-112820000D01*
X181100000Y-104720000D02*
X181100000Y-112820000D01*
D14*
%TO.C,J3*%
X96090000Y-90512500D02*
X96090000Y-94322500D01*
X96090000Y-98956000D02*
X96090000Y-99527500D01*
X96590000Y-85879000D02*
X96590000Y-90512500D01*
X102940000Y-85879000D02*
X103440000Y-85879000D01*
X102940000Y-98956000D02*
X102940000Y-93687500D01*
X96590000Y-90512500D02*
X96090000Y-90512500D01*
X102940000Y-91147500D02*
X102940000Y-85879000D01*
X96090000Y-94322500D02*
X96590000Y-94322500D01*
X96090000Y-85307500D02*
X96090000Y-85879000D01*
X103440000Y-99527500D02*
X103440000Y-98956000D01*
X103960000Y-93687500D02*
X103960000Y-91147500D01*
X96590000Y-98956000D02*
X96090000Y-98956000D01*
X96590000Y-94322500D02*
X96590000Y-98956000D01*
X103440000Y-85307500D02*
X96090000Y-85307500D01*
X96090000Y-85879000D02*
X96590000Y-85879000D01*
X96090000Y-99527500D02*
X103440000Y-99527500D01*
X103440000Y-85879000D02*
X103440000Y-85307500D01*
X103960000Y-91147500D02*
X102940000Y-91147500D01*
X103440000Y-98956000D02*
X102940000Y-98956000D01*
X102940000Y-93687500D02*
X103960000Y-93687500D01*
X98595000Y-100417500D02*
G75*
G03*
X98595000Y-100417500I-100000J0D01*
G01*
D12*
%TO.C,R3*%
X109257064Y-85625000D02*
X108802936Y-85625000D01*
X109257064Y-84155000D02*
X108802936Y-84155000D01*
%TO.C,R2*%
X164662936Y-95455000D02*
X165117064Y-95455000D01*
X164662936Y-93985000D02*
X165117064Y-93985000D01*
%TO.C,TP2*%
X178220000Y-91490000D02*
X181220000Y-91490000D01*
X178220000Y-91490000D02*
X178220000Y-83390000D01*
X181220000Y-83390000D02*
X178220000Y-83390000D01*
X181220000Y-83390000D02*
X181220000Y-91490000D01*
%TO.C,R4*%
X122105000Y-109322936D02*
X122105000Y-109777064D01*
X123575000Y-109322936D02*
X123575000Y-109777064D01*
%TO.C,TP3*%
X178270000Y-80700000D02*
X181270000Y-80700000D01*
X178270000Y-80700000D02*
X178270000Y-72600000D01*
X181270000Y-72600000D02*
X178270000Y-72600000D01*
X181270000Y-72600000D02*
X181270000Y-80700000D01*
D13*
%TO.C,J31*%
X129225000Y-95390000D02*
X113525000Y-95390000D01*
X129825000Y-94700000D02*
X131225000Y-94700000D01*
X117525000Y-104957000D02*
X117525000Y-104110000D01*
X111425000Y-107000000D02*
X111425000Y-94700000D01*
X112825000Y-107000000D02*
X111425000Y-107000000D01*
X125125000Y-104110000D02*
X129825000Y-104110000D01*
X111425000Y-94700000D02*
X112825000Y-94700000D01*
X131225000Y-94700000D02*
X131225000Y-106000000D01*
X131225000Y-106000000D02*
X129825000Y-106000000D01*
X112825000Y-104110000D02*
X117525000Y-104110000D01*
X125125000Y-104110000D02*
X125125000Y-104957000D01*
X125125000Y-104957000D02*
X117525000Y-104957000D01*
D14*
X128052000Y-95012000D02*
G75*
G03*
X128052000Y-95012000I-100000J0D01*
G01*
%TO.C,J1*%
X167640000Y-93315000D02*
X175010000Y-93315000D01*
X175010000Y-85570000D02*
X174500000Y-85570000D01*
X175010000Y-92745000D02*
X174500000Y-92745000D01*
X174500000Y-85570000D02*
X174500000Y-82205000D01*
X168150000Y-92745000D02*
X167640000Y-92745000D01*
X167130000Y-88745000D02*
X168150000Y-88745000D01*
X167640000Y-81635000D02*
X167640000Y-82205000D01*
X168150000Y-88745000D02*
X168150000Y-92745000D01*
X175010000Y-82205000D02*
X175010000Y-81635000D01*
X174500000Y-89380000D02*
X175010000Y-89380000D01*
X167640000Y-82205000D02*
X168150000Y-82205000D01*
X174500000Y-82205000D02*
X175010000Y-82205000D01*
X167640000Y-92745000D02*
X167640000Y-93315000D01*
X168150000Y-86205000D02*
X167130000Y-86205000D01*
X168150000Y-82205000D02*
X168150000Y-86205000D01*
X175010000Y-81635000D02*
X167640000Y-81635000D01*
X175010000Y-93315000D02*
X175010000Y-92745000D01*
X167130000Y-86205000D02*
X167130000Y-88745000D01*
X174500000Y-92745000D02*
X174500000Y-89380000D01*
X175010000Y-89380000D02*
X175010000Y-85570000D01*
X172805000Y-81085000D02*
G75*
G03*
X172805000Y-81085000I-100000J0D01*
G01*
D12*
%TO.C,TP1*%
X181170000Y-94130000D02*
X181170000Y-102230000D01*
X181170000Y-94130000D02*
X178170000Y-94130000D01*
X178170000Y-102230000D02*
X178170000Y-94130000D01*
X178170000Y-102230000D02*
X181170000Y-102230000D01*
%TO.C,R1*%
X152105000Y-109132936D02*
X152105000Y-109587064D01*
X153575000Y-109132936D02*
X153575000Y-109587064D01*
%TD*%
M02*
