%TF.GenerationSoftware,KiCad,Pcbnew,(6.0.4-0)*%
%TF.CreationDate,2023-07-13T10:21:47-07:00*%
%TF.ProjectId,CableAdapterBoard,4361626c-6541-4646-9170-746572426f61,rev?*%
%TF.SameCoordinates,Original*%
%TF.FileFunction,Soldermask,Bot*%
%TF.FilePolarity,Negative*%
%FSLAX46Y46*%
G04 Gerber Fmt 4.6, Leading zero omitted, Abs format (unit mm)*
G04 Created by KiCad (PCBNEW (6.0.4-0)) date 2023-07-13 10:21:47*
%MOMM*%
%LPD*%
G01*
G04 APERTURE LIST*
G04 Aperture macros list*
%AMRoundRect*
0 Rectangle with rounded corners*
0 $1 Rounding radius*
0 $2 $3 $4 $5 $6 $7 $8 $9 X,Y pos of 4 corners*
0 Add a 4 corners polygon primitive as box body*
4,1,4,$2,$3,$4,$5,$6,$7,$8,$9,$2,$3,0*
0 Add four circle primitives for the rounded corners*
1,1,$1+$1,$2,$3*
1,1,$1+$1,$4,$5*
1,1,$1+$1,$6,$7*
1,1,$1+$1,$8,$9*
0 Add four rect primitives between the rounded corners*
20,1,$1+$1,$2,$3,$4,$5,0*
20,1,$1+$1,$4,$5,$6,$7,0*
20,1,$1+$1,$6,$7,$8,$9,0*
20,1,$1+$1,$8,$9,$2,$3,0*%
G04 Aperture macros list end*
%ADD10R,1.700000X1.700000*%
%ADD11O,1.700000X1.700000*%
%ADD12C,3.000000*%
%ADD13C,1.550000*%
%ADD14C,1.308000*%
%ADD15R,1.530000X1.530000*%
%ADD16C,1.530000*%
%ADD17RoundRect,0.650000X-0.650000X0.650000X-0.650000X-0.650000X0.650000X-0.650000X0.650000X0.650000X0*%
%ADD18C,2.600000*%
%ADD19C,1.524000*%
%ADD20C,5.080000*%
G04 APERTURE END LIST*
D10*
%TO.C,JP1*%
X103610000Y-82200000D03*
D11*
X101070000Y-82200000D03*
X98530000Y-82200000D03*
%TD*%
D12*
%TO.C,REF\u002A\u002A1*%
X91750000Y-71660000D03*
%TD*%
D13*
%TO.C,J21*%
X157525000Y-99800000D03*
X141525000Y-99800000D03*
D14*
X158425000Y-105040000D03*
X158425000Y-101800000D03*
X158425000Y-97800000D03*
X158425000Y-95770000D03*
X140625000Y-95770000D03*
X140625000Y-97800000D03*
X140625000Y-101800000D03*
X140625000Y-106040000D03*
%TD*%
D15*
%TO.C,J2*%
X169595000Y-108422500D03*
D16*
X169595000Y-105882500D03*
X169595000Y-103342500D03*
X169595000Y-100802500D03*
X169595000Y-98262500D03*
X172135000Y-108422500D03*
X172135000Y-105882500D03*
X172135000Y-103342500D03*
X172135000Y-100802500D03*
X172135000Y-98262500D03*
%TD*%
D17*
%TO.C,TP4*%
X179600000Y-106220000D03*
D18*
X179600000Y-111300000D03*
%TD*%
D12*
%TO.C,REF\u002A\u002A2*%
X187000000Y-109760000D03*
%TD*%
D15*
%TO.C,J3*%
X98495000Y-97497500D03*
D16*
X98495000Y-94957500D03*
X98495000Y-92417500D03*
X98495000Y-89877500D03*
X98495000Y-87337500D03*
X101035000Y-97497500D03*
X101035000Y-94957500D03*
X101035000Y-92417500D03*
X101035000Y-89877500D03*
X101035000Y-87337500D03*
%TD*%
D17*
%TO.C,TP2*%
X179720000Y-84890000D03*
D18*
X179720000Y-89970000D03*
%TD*%
D12*
%TO.C,REF\u002A\u002A*%
X187000000Y-71660000D03*
%TD*%
D17*
%TO.C,TP3*%
X179770000Y-74100000D03*
D18*
X179770000Y-79180000D03*
%TD*%
D13*
%TO.C,J31*%
X113325000Y-99750000D03*
X129325000Y-99750000D03*
D14*
X130225000Y-104990000D03*
X130225000Y-101750000D03*
X130225000Y-97750000D03*
X130225000Y-95720000D03*
X112425000Y-95720000D03*
X112425000Y-97750000D03*
X112425000Y-101750000D03*
X112425000Y-105990000D03*
%TD*%
D15*
%TO.C,J1*%
X172595000Y-83665000D03*
D16*
X172595000Y-86205000D03*
X172595000Y-88745000D03*
X172595000Y-91285000D03*
X170055000Y-83665000D03*
X170055000Y-86205000D03*
X170055000Y-88745000D03*
X170055000Y-91285000D03*
%TD*%
D19*
%TO.C,DSUB1*%
X158938600Y-78086500D03*
X156195400Y-78086500D03*
X153426800Y-78086500D03*
X150658200Y-78086500D03*
X147915000Y-78086500D03*
X145146400Y-78086500D03*
X142377800Y-78086500D03*
X139634600Y-78086500D03*
X136866000Y-78086500D03*
X134097400Y-78086500D03*
X131354200Y-78086500D03*
X128585600Y-78086500D03*
X125817000Y-78086500D03*
X123073800Y-78086500D03*
X120305200Y-78086500D03*
X117536600Y-78086500D03*
X114793400Y-78086500D03*
X157567000Y-75546500D03*
X154798400Y-75546500D03*
X152055200Y-75546500D03*
X149286600Y-75546500D03*
X146518000Y-75546500D03*
X143749400Y-75546500D03*
X141006200Y-75546500D03*
X138237600Y-75546500D03*
X135469000Y-75546500D03*
X132725800Y-75546500D03*
X129957200Y-75546500D03*
X127188600Y-75546500D03*
X124445400Y-75546500D03*
X121676800Y-75546500D03*
X118908200Y-75546500D03*
X116165000Y-75546500D03*
X158938600Y-73006500D03*
X156195400Y-73006500D03*
X153426800Y-73006500D03*
X150658200Y-73006500D03*
X147915000Y-73006500D03*
X145146400Y-73006500D03*
X142377800Y-73006500D03*
X139634600Y-73006500D03*
X136866000Y-73006500D03*
X134097400Y-73006500D03*
X131354200Y-73006500D03*
X128585600Y-73006500D03*
X125817000Y-73006500D03*
X123073800Y-73006500D03*
X120305200Y-73006500D03*
X117536600Y-73006500D03*
X114793400Y-73006500D03*
D20*
X106309800Y-75546500D03*
X167422200Y-75546500D03*
%TD*%
D17*
%TO.C,TP1*%
X179670000Y-95630000D03*
D18*
X179670000Y-100710000D03*
%TD*%
D12*
%TO.C,REF\u002A\u002A3*%
X91750000Y-109760000D03*
%TD*%
M02*
