%TF.GenerationSoftware,KiCad,Pcbnew,(6.0.4-0)*%
%TF.CreationDate,2023-07-13T10:21:47-07:00*%
%TF.ProjectId,CableAdapterBoard,4361626c-6541-4646-9170-746572426f61,rev?*%
%TF.SameCoordinates,Original*%
%TF.FileFunction,Soldermask,Top*%
%TF.FilePolarity,Negative*%
%FSLAX46Y46*%
G04 Gerber Fmt 4.6, Leading zero omitted, Abs format (unit mm)*
G04 Created by KiCad (PCBNEW (6.0.4-0)) date 2023-07-13 10:21:47*
%MOMM*%
%LPD*%
G01*
G04 APERTURE LIST*
G04 Aperture macros list*
%AMRoundRect*
0 Rectangle with rounded corners*
0 $1 Rounding radius*
0 $2 $3 $4 $5 $6 $7 $8 $9 X,Y pos of 4 corners*
0 Add a 4 corners polygon primitive as box body*
4,1,4,$2,$3,$4,$5,$6,$7,$8,$9,$2,$3,0*
0 Add four circle primitives for the rounded corners*
1,1,$1+$1,$2,$3*
1,1,$1+$1,$4,$5*
1,1,$1+$1,$6,$7*
1,1,$1+$1,$8,$9*
0 Add four rect primitives between the rounded corners*
20,1,$1+$1,$2,$3,$4,$5,0*
20,1,$1+$1,$4,$5,$6,$7,0*
20,1,$1+$1,$6,$7,$8,$9,0*
20,1,$1+$1,$8,$9,$2,$3,0*%
G04 Aperture macros list end*
%ADD10R,1.700000X1.700000*%
%ADD11O,1.700000X1.700000*%
%ADD12C,3.000000*%
%ADD13C,1.550000*%
%ADD14O,0.350000X1.800000*%
%ADD15C,1.308000*%
%ADD16R,1.530000X1.530000*%
%ADD17C,1.530000*%
%ADD18RoundRect,0.650000X-0.650000X0.650000X-0.650000X-0.650000X0.650000X-0.650000X0.650000X0.650000X0*%
%ADD19C,2.600000*%
%ADD20RoundRect,0.250000X0.350000X0.450000X-0.350000X0.450000X-0.350000X-0.450000X0.350000X-0.450000X0*%
%ADD21RoundRect,0.250000X-0.350000X-0.450000X0.350000X-0.450000X0.350000X0.450000X-0.350000X0.450000X0*%
%ADD22RoundRect,0.250000X-0.450000X0.350000X-0.450000X-0.350000X0.450000X-0.350000X0.450000X0.350000X0*%
%ADD23C,1.524000*%
%ADD24C,5.080000*%
G04 APERTURE END LIST*
D10*
%TO.C,JP1*%
X103610000Y-82200000D03*
D11*
X101070000Y-82200000D03*
X98530000Y-82200000D03*
%TD*%
D12*
%TO.C,REF\u002A\u002A1*%
X91750000Y-71660000D03*
%TD*%
D13*
%TO.C,J21*%
X157525000Y-99800000D03*
X141525000Y-99800000D03*
D14*
X156125000Y-96890000D03*
X155325000Y-96890000D03*
X154525000Y-96890000D03*
X153725000Y-96890000D03*
X152925000Y-96890000D03*
X152125000Y-96890000D03*
X151325000Y-96890000D03*
X150525000Y-96890000D03*
X149725000Y-96890000D03*
X148925000Y-96890000D03*
X148125000Y-96890000D03*
X147325000Y-96890000D03*
X146525000Y-96890000D03*
X145725000Y-96890000D03*
X144925000Y-96890000D03*
X144125000Y-96890000D03*
X143325000Y-96890000D03*
X142525000Y-96890000D03*
X156525000Y-102710000D03*
X155725000Y-102710000D03*
X154925000Y-102710000D03*
X154125000Y-102710000D03*
X153325000Y-102710000D03*
X152525000Y-102710000D03*
X151725000Y-102710000D03*
X150925000Y-102710000D03*
X150125000Y-102710000D03*
X149325000Y-102710000D03*
X148525000Y-102710000D03*
X147725000Y-102710000D03*
X146925000Y-102710000D03*
X146125000Y-102710000D03*
X145325000Y-102710000D03*
X144525000Y-102710000D03*
X143725000Y-102710000D03*
X142925000Y-102710000D03*
D15*
X158425000Y-105040000D03*
X158425000Y-101800000D03*
X158425000Y-97800000D03*
X158425000Y-95770000D03*
X140625000Y-95770000D03*
X140625000Y-97800000D03*
X140625000Y-101800000D03*
X140625000Y-106040000D03*
%TD*%
D16*
%TO.C,J2*%
X169595000Y-108422500D03*
D17*
X169595000Y-105882500D03*
X169595000Y-103342500D03*
X169595000Y-100802500D03*
X169595000Y-98262500D03*
X172135000Y-108422500D03*
X172135000Y-105882500D03*
X172135000Y-103342500D03*
X172135000Y-100802500D03*
X172135000Y-98262500D03*
%TD*%
D18*
%TO.C,TP4*%
X179600000Y-106220000D03*
D19*
X179600000Y-111300000D03*
%TD*%
D12*
%TO.C,REF\u002A\u002A2*%
X187000000Y-109760000D03*
%TD*%
D16*
%TO.C,J3*%
X98495000Y-97497500D03*
D17*
X98495000Y-94957500D03*
X98495000Y-92417500D03*
X98495000Y-89877500D03*
X98495000Y-87337500D03*
X101035000Y-97497500D03*
X101035000Y-94957500D03*
X101035000Y-92417500D03*
X101035000Y-89877500D03*
X101035000Y-87337500D03*
%TD*%
D20*
%TO.C,R3*%
X110030000Y-84890000D03*
X108030000Y-84890000D03*
%TD*%
D21*
%TO.C,R2*%
X163890000Y-94720000D03*
X165890000Y-94720000D03*
%TD*%
D18*
%TO.C,TP2*%
X179720000Y-84890000D03*
D19*
X179720000Y-89970000D03*
%TD*%
D22*
%TO.C,R4*%
X122840000Y-108550000D03*
X122840000Y-110550000D03*
%TD*%
D12*
%TO.C,REF\u002A\u002A*%
X187000000Y-71660000D03*
%TD*%
D18*
%TO.C,TP3*%
X179770000Y-74100000D03*
D19*
X179770000Y-79180000D03*
%TD*%
D13*
%TO.C,J31*%
X113325000Y-99750000D03*
X129325000Y-99750000D03*
D14*
X127925000Y-96840000D03*
X127125000Y-96840000D03*
X126325000Y-96840000D03*
X125525000Y-96840000D03*
X124725000Y-96840000D03*
X123925000Y-96840000D03*
X123125000Y-96840000D03*
X122325000Y-96840000D03*
X121525000Y-96840000D03*
X120725000Y-96840000D03*
X119925000Y-96840000D03*
X119125000Y-96840000D03*
X118325000Y-96840000D03*
X117525000Y-96840000D03*
X116725000Y-96840000D03*
X115925000Y-96840000D03*
X115125000Y-96840000D03*
X114325000Y-96840000D03*
X128325000Y-102660000D03*
X127525000Y-102660000D03*
X126725000Y-102660000D03*
X125925000Y-102660000D03*
X125125000Y-102660000D03*
X124325000Y-102660000D03*
X123525000Y-102660000D03*
X122725000Y-102660000D03*
X121925000Y-102660000D03*
X121125000Y-102660000D03*
X120325000Y-102660000D03*
X119525000Y-102660000D03*
X118725000Y-102660000D03*
X117925000Y-102660000D03*
X117125000Y-102660000D03*
X116325000Y-102660000D03*
X115525000Y-102660000D03*
X114725000Y-102660000D03*
D15*
X130225000Y-104990000D03*
X130225000Y-101750000D03*
X130225000Y-97750000D03*
X130225000Y-95720000D03*
X112425000Y-95720000D03*
X112425000Y-97750000D03*
X112425000Y-101750000D03*
X112425000Y-105990000D03*
%TD*%
D16*
%TO.C,J1*%
X172595000Y-83665000D03*
D17*
X172595000Y-86205000D03*
X172595000Y-88745000D03*
X172595000Y-91285000D03*
X170055000Y-83665000D03*
X170055000Y-86205000D03*
X170055000Y-88745000D03*
X170055000Y-91285000D03*
%TD*%
D23*
%TO.C,DSUB1*%
X158938600Y-78086500D03*
X156195400Y-78086500D03*
X153426800Y-78086500D03*
X150658200Y-78086500D03*
X147915000Y-78086500D03*
X145146400Y-78086500D03*
X142377800Y-78086500D03*
X139634600Y-78086500D03*
X136866000Y-78086500D03*
X134097400Y-78086500D03*
X131354200Y-78086500D03*
X128585600Y-78086500D03*
X125817000Y-78086500D03*
X123073800Y-78086500D03*
X120305200Y-78086500D03*
X117536600Y-78086500D03*
X114793400Y-78086500D03*
X157567000Y-75546500D03*
X154798400Y-75546500D03*
X152055200Y-75546500D03*
X149286600Y-75546500D03*
X146518000Y-75546500D03*
X143749400Y-75546500D03*
X141006200Y-75546500D03*
X138237600Y-75546500D03*
X135469000Y-75546500D03*
X132725800Y-75546500D03*
X129957200Y-75546500D03*
X127188600Y-75546500D03*
X124445400Y-75546500D03*
X121676800Y-75546500D03*
X118908200Y-75546500D03*
X116165000Y-75546500D03*
X158938600Y-73006500D03*
X156195400Y-73006500D03*
X153426800Y-73006500D03*
X150658200Y-73006500D03*
X147915000Y-73006500D03*
X145146400Y-73006500D03*
X142377800Y-73006500D03*
X139634600Y-73006500D03*
X136866000Y-73006500D03*
X134097400Y-73006500D03*
X131354200Y-73006500D03*
X128585600Y-73006500D03*
X125817000Y-73006500D03*
X123073800Y-73006500D03*
X120305200Y-73006500D03*
X117536600Y-73006500D03*
X114793400Y-73006500D03*
D24*
X106309800Y-75546500D03*
X167422200Y-75546500D03*
%TD*%
D18*
%TO.C,TP1*%
X179670000Y-95630000D03*
D19*
X179670000Y-100710000D03*
%TD*%
D22*
%TO.C,R1*%
X152840000Y-108360000D03*
X152840000Y-110360000D03*
%TD*%
D12*
%TO.C,REF\u002A\u002A3*%
X91750000Y-109760000D03*
%TD*%
M02*
