%TF.GenerationSoftware,KiCad,Pcbnew,(6.0.4-0)*%
%TF.CreationDate,2023-07-13T10:21:46-07:00*%
%TF.ProjectId,CableAdapterBoard,4361626c-6541-4646-9170-746572426f61,rev?*%
%TF.SameCoordinates,Original*%
%TF.FileFunction,Copper,L2,Inr*%
%TF.FilePolarity,Positive*%
%FSLAX46Y46*%
G04 Gerber Fmt 4.6, Leading zero omitted, Abs format (unit mm)*
G04 Created by KiCad (PCBNEW (6.0.4-0)) date 2023-07-13 10:21:46*
%MOMM*%
%LPD*%
G01*
G04 APERTURE LIST*
G04 Aperture macros list*
%AMRoundRect*
0 Rectangle with rounded corners*
0 $1 Rounding radius*
0 $2 $3 $4 $5 $6 $7 $8 $9 X,Y pos of 4 corners*
0 Add a 4 corners polygon primitive as box body*
4,1,4,$2,$3,$4,$5,$6,$7,$8,$9,$2,$3,0*
0 Add four circle primitives for the rounded corners*
1,1,$1+$1,$2,$3*
1,1,$1+$1,$4,$5*
1,1,$1+$1,$6,$7*
1,1,$1+$1,$8,$9*
0 Add four rect primitives between the rounded corners*
20,1,$1+$1,$2,$3,$4,$5,0*
20,1,$1+$1,$4,$5,$6,$7,0*
20,1,$1+$1,$6,$7,$8,$9,0*
20,1,$1+$1,$8,$9,$2,$3,0*%
G04 Aperture macros list end*
%TA.AperFunction,ComponentPad*%
%ADD10R,1.700000X1.700000*%
%TD*%
%TA.AperFunction,ComponentPad*%
%ADD11O,1.700000X1.700000*%
%TD*%
%TA.AperFunction,ComponentPad*%
%ADD12C,1.308000*%
%TD*%
%TA.AperFunction,ComponentPad*%
%ADD13R,1.530000X1.530000*%
%TD*%
%TA.AperFunction,ComponentPad*%
%ADD14C,1.530000*%
%TD*%
%TA.AperFunction,ComponentPad*%
%ADD15RoundRect,0.650000X-0.650000X0.650000X-0.650000X-0.650000X0.650000X-0.650000X0.650000X0.650000X0*%
%TD*%
%TA.AperFunction,ComponentPad*%
%ADD16C,2.600000*%
%TD*%
%TA.AperFunction,ComponentPad*%
%ADD17C,1.524000*%
%TD*%
%TA.AperFunction,ComponentPad*%
%ADD18C,5.080000*%
%TD*%
%TA.AperFunction,ViaPad*%
%ADD19C,0.800000*%
%TD*%
%TA.AperFunction,ViaPad*%
%ADD20C,0.520700*%
%TD*%
%TA.AperFunction,Conductor*%
%ADD21C,0.228600*%
%TD*%
%TA.AperFunction,Conductor*%
%ADD22C,0.304800*%
%TD*%
G04 APERTURE END LIST*
D10*
%TO.N,DGND*%
%TO.C,JP1*%
X103610000Y-82200000D03*
D11*
%TO.N,/d-sub-shield*%
X101070000Y-82200000D03*
%TO.N,AGND*%
X98530000Y-82200000D03*
%TD*%
D12*
%TO.N,DGND*%
%TO.C,J21*%
X158425000Y-105040000D03*
X158425000Y-101800000D03*
X158425000Y-97800000D03*
X158425000Y-95770000D03*
X140625000Y-95770000D03*
X140625000Y-97800000D03*
X140625000Y-101800000D03*
X140625000Y-106040000D03*
%TD*%
D13*
%TO.N,AGND*%
%TO.C,J2*%
X169595000Y-108422500D03*
D14*
%TO.N,unconnected-(J2-Pad02)*%
X169595000Y-105882500D03*
%TO.N,unconnected-(J2-Pad03)*%
X169595000Y-103342500D03*
%TO.N,unconnected-(J2-Pad04)*%
X169595000Y-100802500D03*
%TO.N,AGND*%
X169595000Y-98262500D03*
%TO.N,unconnected-(J2-Pad06)*%
X172135000Y-108422500D03*
%TO.N,unconnected-(J2-Pad07)*%
X172135000Y-105882500D03*
%TO.N,unconnected-(J2-Pad08)*%
X172135000Y-103342500D03*
%TO.N,/VDD2_Sense*%
X172135000Y-100802500D03*
%TO.N,/VDD1_Sense*%
X172135000Y-98262500D03*
%TD*%
D15*
%TO.N,DGND*%
%TO.C,TP4*%
X179600000Y-106220000D03*
D16*
%TO.N,/VDD2_Sense*%
X179600000Y-111300000D03*
%TD*%
D13*
%TO.N,AGND*%
%TO.C,J3*%
X98495000Y-97497500D03*
D14*
X98495000Y-94957500D03*
X98495000Y-92417500D03*
X98495000Y-89877500D03*
X98495000Y-87337500D03*
%TO.N,/HS_Vdiff*%
X101035000Y-97497500D03*
%TO.N,unconnected-(J3-Pad07)*%
X101035000Y-94957500D03*
%TO.N,/ADC_MON_VIN_P*%
X101035000Y-92417500D03*
%TO.N,/ADC_MON_VCOM*%
X101035000Y-89877500D03*
%TO.N,/ADC_MON_VIN_N*%
X101035000Y-87337500D03*
%TD*%
D15*
%TO.N,AGND*%
%TO.C,TP2*%
X179720000Y-84890000D03*
D16*
%TO.N,/VDD1*%
X179720000Y-89970000D03*
%TD*%
D15*
%TO.N,DGND*%
%TO.C,TP3*%
X179770000Y-74100000D03*
D16*
%TO.N,/VDD2*%
X179770000Y-79180000D03*
%TD*%
D12*
%TO.N,DGND*%
%TO.C,J31*%
X130225000Y-104990000D03*
X130225000Y-101750000D03*
X130225000Y-97750000D03*
X130225000Y-95720000D03*
X112425000Y-95720000D03*
X112425000Y-97750000D03*
X112425000Y-101750000D03*
X112425000Y-105990000D03*
%TD*%
D13*
%TO.N,AGND*%
%TO.C,J1*%
X172595000Y-83665000D03*
D14*
X172595000Y-86205000D03*
X172595000Y-88745000D03*
X172595000Y-91285000D03*
%TO.N,/VDD2*%
X170055000Y-83665000D03*
X170055000Y-86205000D03*
%TO.N,/VDD1*%
X170055000Y-88745000D03*
X170055000Y-91285000D03*
%TD*%
D17*
%TO.N,DGND*%
%TO.C,DSUB1*%
X158938600Y-78086500D03*
%TO.N,/RD_CLK_P*%
X156195400Y-78086500D03*
%TO.N,DGND*%
X153426800Y-78086500D03*
%TO.N,/DATA_OUT_1_P*%
X150658200Y-78086500D03*
%TO.N,DGND*%
X147915000Y-78086500D03*
%TO.N,/DATA_OUT_0_P*%
X145146400Y-78086500D03*
%TO.N,DGND*%
X142377800Y-78086500D03*
%TO.N,/ASIC_SR0_P*%
X139634600Y-78086500D03*
%TO.N,DGND*%
X136866000Y-78086500D03*
%TO.N,/WORD_CLK_0_N*%
X134097400Y-78086500D03*
%TO.N,/WORD_CLK_0_P*%
X131354200Y-78086500D03*
%TO.N,DGND*%
X128585600Y-78086500D03*
%TO.N,AGND*%
X125817000Y-78086500D03*
%TO.N,/HS_Vdiff*%
X123073800Y-78086500D03*
%TO.N,/VDD1*%
X120305200Y-78086500D03*
X117536600Y-78086500D03*
%TO.N,AGND*%
X114793400Y-78086500D03*
%TO.N,/VDD2*%
X157567000Y-75546500D03*
%TO.N,/RD_CLK_N*%
X154798400Y-75546500D03*
%TO.N,DGND*%
X152055200Y-75546500D03*
%TO.N,/DATA_OUT_1_N*%
X149286600Y-75546500D03*
%TO.N,DGND*%
X146518000Y-75546500D03*
%TO.N,/DATA_OUT_0_N*%
X143749400Y-75546500D03*
%TO.N,/ASIC_GR*%
X141006200Y-75546500D03*
%TO.N,/ASIC_SR0_N*%
X138237600Y-75546500D03*
%TO.N,DGND*%
X135469000Y-75546500D03*
%TO.N,/SACI_CMD_P*%
X132725800Y-75546500D03*
%TO.N,DGND*%
X129957200Y-75546500D03*
%TO.N,/SACI_CLK_P*%
X127188600Y-75546500D03*
%TO.N,/ASIC_SACI_SEL*%
X124445400Y-75546500D03*
%TO.N,AGND*%
X121676800Y-75546500D03*
%TO.N,/ADC_MON_VIN_P*%
X118908200Y-75546500D03*
%TO.N,AGND*%
X116165000Y-75546500D03*
%TO.N,/VDD2*%
X158938600Y-73006500D03*
%TO.N,/ASIC_SampClkEn_P*%
X156195400Y-73006500D03*
%TO.N,/ASIC_SampClkEn_N*%
X153426800Y-73006500D03*
%TO.N,/VDD2_Sense*%
X150658200Y-73006500D03*
%TO.N,DGND*%
X147915000Y-73006500D03*
%TO.N,/SACI_RESP_P*%
X145146400Y-73006500D03*
%TO.N,/SACI_RESP_N*%
X142377800Y-73006500D03*
%TO.N,DGND*%
X139634600Y-73006500D03*
X136866000Y-73006500D03*
%TO.N,/ASIC_PULSE*%
X134097400Y-73006500D03*
%TO.N,/SACI_CMD_N*%
X131354200Y-73006500D03*
%TO.N,DGND*%
X128585600Y-73006500D03*
%TO.N,/SACI_CLK_N*%
X125817000Y-73006500D03*
%TO.N,AGND*%
X123073800Y-73006500D03*
%TO.N,/ADC_MON_VCOM*%
X120305200Y-73006500D03*
%TO.N,/ADC_MON_VIN_N*%
X117536600Y-73006500D03*
%TO.N,/VDD1_Sense*%
X114793400Y-73006500D03*
D18*
%TO.N,/d-sub-shield*%
X106309800Y-75546500D03*
X167422200Y-75546500D03*
%TD*%
D15*
%TO.N,AGND*%
%TO.C,TP1*%
X179670000Y-95630000D03*
D16*
%TO.N,/VDD1_Sense*%
X179670000Y-100710000D03*
%TD*%
D19*
%TO.N,DGND*%
X119840000Y-99900000D03*
X147920000Y-87730000D03*
X162420000Y-95360000D03*
X145980000Y-99900000D03*
X110800000Y-83560000D03*
X125520000Y-87840000D03*
X114000000Y-90600000D03*
X128610000Y-82720000D03*
X140580000Y-86820000D03*
X125910000Y-80150000D03*
X140580000Y-91140000D03*
X117200000Y-87460000D03*
X124520000Y-108170000D03*
X147920000Y-82770000D03*
X154610000Y-108190000D03*
X120390000Y-84110000D03*
X153170000Y-99890000D03*
X122320000Y-99900000D03*
X149560000Y-99890000D03*
X151260000Y-99890000D03*
X147840000Y-99890000D03*
D20*
%TO.N,/RD_CLK_P*%
X144760000Y-100620000D03*
%TO.N,/DATA_OUT_1_P*%
X155510001Y-94499989D03*
%TO.N,/DATA_OUT_0_P*%
X155970000Y-100620000D03*
%TO.N,/ASIC_SR0_P*%
X116480006Y-100819991D03*
%TO.N,/WORD_CLK_0_N*%
X145999987Y-104999993D03*
X133746240Y-86753776D03*
X135239430Y-88246966D03*
%TO.N,/WORD_CLK_0_P*%
X147049998Y-104999993D03*
X134496962Y-88989433D03*
X133003773Y-87496244D03*
D19*
%TO.N,AGND*%
X167390000Y-94890000D03*
X154600000Y-110660000D03*
X106540000Y-85610000D03*
X124450000Y-111020000D03*
D20*
%TO.N,/RD_CLK_N*%
X143460000Y-100630000D03*
%TO.N,/DATA_OUT_1_N*%
X154359991Y-94499989D03*
%TO.N,/DATA_OUT_0_N*%
X154700000Y-100620000D03*
%TO.N,/ASIC_SR0_N*%
X115380008Y-100819991D03*
%TO.N,/SACI_CMD_P*%
X125270006Y-100740007D03*
%TO.N,/SACI_CLK_P*%
X118869993Y-100800002D03*
D19*
%TO.N,/ASIC_SACI_SEL*%
X127125000Y-92925000D03*
D20*
%TO.N,/ASIC_SampClkEn_P*%
X124060001Y-93590008D03*
%TO.N,/ASIC_SampClkEn_N*%
X123820000Y-94620000D03*
%TO.N,/SACI_RESP_P*%
X127650011Y-100670004D03*
%TO.N,/SACI_RESP_N*%
X126629998Y-100670004D03*
%TO.N,/SACI_CMD_N*%
X124170000Y-100730000D03*
%TO.N,/SACI_CLK_N*%
X117780003Y-100800002D03*
%TD*%
D21*
%TO.N,/DATA_OUT_1_P*%
X157727027Y-89635595D02*
X157727028Y-89635595D01*
X155150001Y-91768199D02*
X155471600Y-91446600D01*
X156214344Y-90385655D02*
X156595656Y-90766968D01*
X155150001Y-94140001D02*
X155150001Y-91768199D01*
X157727028Y-89635595D02*
X157567927Y-89476494D01*
X155471600Y-90683978D02*
X155471601Y-90683976D01*
X155966575Y-90189005D02*
X156188787Y-90411217D01*
X150693200Y-82775000D02*
X149736601Y-81818401D01*
X155471601Y-90683976D02*
X155312501Y-90524876D01*
X155510000Y-94500000D02*
X155150001Y-94140001D01*
X155807474Y-90029904D02*
X155966575Y-90189005D01*
X159075000Y-87843200D02*
X159075000Y-85106800D01*
X156743200Y-82775000D02*
X150693200Y-82775000D01*
X149736601Y-79008099D02*
X150658200Y-78086500D01*
X159075000Y-85106800D02*
X156743200Y-82775000D01*
X157358279Y-90766968D02*
X157727028Y-90398218D01*
X157358280Y-90766968D02*
X157358279Y-90766968D01*
X149736601Y-81818401D02*
X149736601Y-79008099D01*
X155312501Y-90398652D02*
X155681250Y-90029904D01*
X156188787Y-90411217D02*
X156214344Y-90385655D01*
X157567927Y-89350270D02*
X159075000Y-87843200D01*
X157358279Y-90766967D02*
G75*
G02*
X156595657Y-90766967I-381311J381310D01*
G01*
X155312537Y-90398688D02*
G75*
G03*
X155312501Y-90524876I63063J-63112D01*
G01*
X155807474Y-90029904D02*
G75*
G03*
X155681250Y-90029904I-63112J-63111D01*
G01*
X155471589Y-90683989D02*
G75*
G02*
X155471600Y-91446600I-381289J-381311D01*
G01*
X157727034Y-89635588D02*
G75*
G02*
X157727028Y-90398218I-381334J-381312D01*
G01*
X157567945Y-89350288D02*
G75*
G03*
X157567927Y-89476494I63055J-63112D01*
G01*
%TO.N,/DATA_OUT_0_P*%
X155550001Y-99731801D02*
X144199401Y-88381201D01*
X155970000Y-100620000D02*
X155550001Y-100200001D01*
X144424400Y-85800599D02*
X144199400Y-85800599D01*
X144199400Y-85800599D02*
X144199401Y-79033499D01*
X155550001Y-100200001D02*
X155550001Y-99731801D01*
X144199401Y-79033499D02*
X145146400Y-78086500D01*
X144874400Y-86650599D02*
X144874400Y-86250599D01*
X144199401Y-88381201D02*
X144199400Y-87100599D01*
X144199400Y-87100599D02*
X144424400Y-87100599D01*
X144424400Y-85800600D02*
G75*
G02*
X144874400Y-86250599I0J-450000D01*
G01*
X144874399Y-86650599D02*
G75*
G02*
X144424400Y-87100599I-449999J-1D01*
G01*
%TO.N,/WORD_CLK_0_N*%
X138158600Y-91590404D02*
X135239430Y-88671234D01*
X132950801Y-79233099D02*
X132950800Y-80975000D01*
X138714690Y-108621400D02*
X138158600Y-108065310D01*
X132950800Y-80975000D02*
X132950800Y-86382601D01*
X145999987Y-104999993D02*
X145999987Y-105403425D01*
X132950800Y-86382601D02*
X133321967Y-86753768D01*
X145999987Y-105403425D02*
X142782012Y-108621400D01*
X142782012Y-108621400D02*
X138714690Y-108621400D01*
X135239430Y-88671234D02*
X135239430Y-88246966D01*
X133321967Y-86753768D02*
X133746232Y-86753768D01*
X134097400Y-78086500D02*
X132950801Y-79233099D01*
X138158600Y-108065310D02*
X138158600Y-91590404D01*
%TO.N,/WORD_CLK_0_P*%
X137701400Y-91771859D02*
X134918974Y-88989433D01*
X138525310Y-109078600D02*
X137701400Y-108254690D01*
X137701400Y-108254690D02*
X137701400Y-91771859D01*
X132500799Y-79233099D02*
X132500800Y-80975000D01*
X133003768Y-87071967D02*
X133003768Y-87496232D01*
X134918974Y-88989433D02*
X134496962Y-88989433D01*
X131354200Y-78086500D02*
X132500799Y-79233099D01*
X147049998Y-104999993D02*
X142971391Y-109078600D01*
X132500800Y-80975000D02*
X132500800Y-86568999D01*
X132500800Y-86568999D02*
X133003768Y-87071967D01*
X142971391Y-109078600D02*
X138525310Y-109078600D01*
D22*
%TO.N,/HS_Vdiff*%
X103662800Y-97497500D02*
X101035000Y-97497500D01*
X123073800Y-78086500D02*
X103662800Y-97497500D01*
D21*
%TO.N,/DATA_OUT_1_N*%
X156125675Y-89711704D02*
X156371491Y-89957520D01*
X155673659Y-89555886D02*
X155815089Y-89555880D01*
X154994302Y-90080453D02*
X155363051Y-89711705D01*
X156913856Y-90448768D02*
X156940935Y-90472648D01*
X155815089Y-89555880D02*
X155951701Y-89592479D01*
X157130465Y-89620729D02*
X157093858Y-89484107D01*
X155177286Y-91029256D02*
X155153401Y-91002177D01*
X156391635Y-89957518D02*
X156517072Y-90082930D01*
X156517072Y-90082930D02*
X156532543Y-90067456D01*
X155951701Y-89592479D02*
X156074185Y-89663189D01*
X154945745Y-90791618D02*
X154875028Y-90669122D01*
X154699999Y-91581801D02*
X155153401Y-91128401D01*
X154994301Y-90843077D02*
X154945745Y-90791618D01*
X154699999Y-94160001D02*
X154699999Y-91581801D01*
X157201186Y-89743220D02*
X157130465Y-89620729D01*
X157249728Y-89032070D02*
X158625000Y-87656800D01*
X150506800Y-83225000D02*
X149286600Y-82004800D01*
X155177292Y-91101329D02*
X155177286Y-91029256D01*
X154360000Y-94500000D02*
X154699999Y-94160001D01*
X157013001Y-90472648D02*
X157040080Y-90448768D01*
X157431568Y-89981344D02*
X157408829Y-89953794D01*
X157093861Y-89342666D02*
X157130475Y-89206046D01*
X157431564Y-90052464D02*
X157431568Y-89981344D01*
X154945775Y-90131943D02*
X154994302Y-90080453D01*
X154875028Y-90669122D02*
X154838425Y-90532497D01*
X156532543Y-90067456D02*
X156913856Y-90448768D01*
X158625000Y-87656800D02*
X158625000Y-85293200D01*
X157201203Y-89083558D02*
X157249728Y-89032070D01*
X155153401Y-91128401D02*
X155177292Y-91101329D01*
X157408829Y-90080018D02*
X157431564Y-90052464D01*
X155153401Y-91002177D02*
X154994301Y-90843077D01*
X154875047Y-90254432D02*
X154945775Y-90131943D01*
X157249728Y-89794693D02*
X157201186Y-89743220D01*
X154838425Y-90532497D02*
X154838432Y-90391054D01*
X154838432Y-90391054D02*
X154875047Y-90254432D01*
X156940935Y-90472648D02*
X157013001Y-90472648D01*
X157130475Y-89206046D02*
X157201203Y-89083558D01*
X157093858Y-89484107D02*
X157093861Y-89342666D01*
X157040080Y-90448768D02*
X157408829Y-90080018D01*
X156371491Y-89957520D02*
X156391635Y-89957518D01*
X155363051Y-89711705D02*
X155414573Y-89663221D01*
X158625000Y-85293200D02*
X156556800Y-83225000D01*
X156074185Y-89663189D02*
X156125674Y-89711706D01*
X149286600Y-82004800D02*
X149286600Y-75546500D01*
X156125674Y-89711706D02*
X156125675Y-89711704D01*
X155537051Y-89592499D02*
X155673659Y-89555886D01*
X157408829Y-89953794D02*
X157249728Y-89794693D01*
X156556800Y-83225000D02*
X150506800Y-83225000D01*
X155414573Y-89663221D02*
X155537051Y-89592499D01*
%TO.N,/DATA_OUT_0_N*%
X144424400Y-86650599D02*
X144424400Y-86250599D01*
X155099999Y-100220001D02*
X155099999Y-99918199D01*
X154700000Y-100620000D02*
X155099999Y-100220001D01*
X144199400Y-86650599D02*
X144424400Y-86650599D01*
X155099999Y-99918199D02*
X143749400Y-88567600D01*
X143749400Y-85800599D02*
X143749400Y-75546500D01*
X143749400Y-88567600D02*
X143749400Y-87100599D01*
X144424400Y-86250599D02*
X144199400Y-86250599D01*
X143749401Y-85800599D02*
G75*
G03*
X144199400Y-86250599I449999J-1D01*
G01*
X144199400Y-86650600D02*
G75*
G03*
X143749400Y-87100599I0J-450000D01*
G01*
%TO.N,/SACI_CMD_P*%
X125270000Y-100651800D02*
X121556557Y-96938357D01*
X131468702Y-76470794D02*
X131468702Y-75750197D01*
X125270000Y-100740000D02*
X125270000Y-100651800D01*
X131468702Y-75750197D02*
X131672399Y-75546500D01*
X130278389Y-77640883D02*
X130908583Y-77010689D01*
X121556557Y-96938357D02*
X121556557Y-94511643D01*
X130292689Y-78546417D02*
X130278389Y-78532117D01*
X121556557Y-94511643D02*
X130300000Y-85768200D01*
X130292689Y-78898941D02*
X130292689Y-78546417D01*
X130300000Y-78906252D02*
X130292689Y-78898941D01*
X131672399Y-75546500D02*
X132725800Y-75546500D01*
X130908583Y-77010689D02*
X130928807Y-77010689D01*
X130928807Y-77010689D02*
X131468702Y-76470794D01*
X130300000Y-85768200D02*
X130300000Y-78906252D01*
X130278389Y-78532117D02*
X130278389Y-77640883D01*
%TO.N,/SACI_CLK_P*%
X125371383Y-77010689D02*
X125391607Y-77010689D01*
X125956902Y-75724797D02*
X126135199Y-75546500D01*
X125956902Y-76445394D02*
X125956902Y-75724797D01*
X124875000Y-78665928D02*
X124741189Y-78532117D01*
X124875000Y-83218200D02*
X124875000Y-78665928D01*
X118550001Y-100480001D02*
X118550001Y-89543199D01*
X118550001Y-89543199D02*
X124875000Y-83218200D01*
X126135199Y-75546500D02*
X127188600Y-75546500D01*
X125391607Y-77010689D02*
X125956902Y-76445394D01*
X124741189Y-77640883D02*
X125371383Y-77010689D01*
X124741189Y-78532117D02*
X124741189Y-77640883D01*
X118870000Y-100800000D02*
X118550001Y-100480001D01*
%TO.N,/ADC_MON_VIN_P*%
X118908200Y-75546500D02*
X118423500Y-75546500D01*
X103050000Y-89850000D02*
X101035000Y-91865000D01*
X101035000Y-91865000D02*
X101035000Y-92417500D01*
X118423500Y-75546500D02*
X116460789Y-77509211D01*
X116460789Y-81157411D02*
X107768200Y-89850000D01*
X107768200Y-89850000D02*
X103050000Y-89850000D01*
X116460789Y-77509211D02*
X116460789Y-81157411D01*
%TO.N,/SACI_RESP_P*%
X142687889Y-75086583D02*
X142687889Y-74434517D01*
X127650000Y-100670000D02*
X127350001Y-100370001D01*
X142687889Y-76275207D02*
X142687889Y-76006417D01*
X141225000Y-77738096D02*
X141301989Y-77661107D01*
X142673589Y-75992117D02*
X142673589Y-75100883D01*
X127350001Y-94768199D02*
X141225000Y-80893200D01*
X144115906Y-73006500D02*
X145146400Y-73006500D01*
X141225000Y-80893200D02*
X141225000Y-77738096D01*
X141932183Y-77010689D02*
X141952407Y-77010689D01*
X127350001Y-100370001D02*
X127350001Y-94768199D01*
X142673589Y-75100883D02*
X142687889Y-75086583D01*
X141301989Y-77640883D02*
X141932183Y-77010689D01*
X142687889Y-74434517D02*
X144115906Y-73006500D01*
X141952407Y-77010689D02*
X142687889Y-76275207D01*
X141301989Y-77661107D02*
X141301989Y-77640883D01*
X142687889Y-76006417D02*
X142673589Y-75992117D01*
%TO.N,/SACI_RESP_N*%
X126899999Y-100400001D02*
X126899999Y-94581801D01*
X126899999Y-94581801D02*
X140765900Y-80715900D01*
X142237898Y-73146402D02*
X142377800Y-73006500D01*
X140765900Y-80715900D02*
X140765900Y-77560813D01*
X140765900Y-77560813D02*
X142237898Y-76088815D01*
X142377800Y-73006500D02*
X142377800Y-73027800D01*
X126630000Y-100670000D02*
X126899999Y-100400001D01*
X142237898Y-76088815D02*
X142237898Y-73146402D01*
%TO.N,/SACI_CMD_N*%
X129850000Y-77453113D02*
X131018711Y-76284402D01*
X129850000Y-85581800D02*
X129850000Y-77453113D01*
X124240000Y-100730000D02*
X124240000Y-100258200D01*
X121106557Y-97124757D02*
X121106557Y-94325243D01*
X124240000Y-100258200D02*
X121106557Y-97124757D01*
X131354200Y-75228301D02*
X131354200Y-73006500D01*
X131033011Y-75549490D02*
X131354200Y-75228301D01*
X131018711Y-76284402D02*
X131018711Y-76006417D01*
X121106557Y-94325243D02*
X129850000Y-85581800D01*
X131018711Y-76006417D02*
X131033011Y-75992117D01*
X131033011Y-75992117D02*
X131033011Y-75549490D01*
%TO.N,/SACI_CLK_N*%
X125506911Y-76259002D02*
X125506911Y-76006417D01*
X124425000Y-83031800D02*
X124425000Y-78832087D01*
X124305498Y-77460415D02*
X125506911Y-76259002D01*
X117780000Y-100800000D02*
X118099999Y-100480001D01*
X125521211Y-75992117D02*
X125521211Y-75524090D01*
X118099999Y-89356801D02*
X124425000Y-83031800D01*
X125521211Y-75524090D02*
X125817000Y-75228301D01*
X125817000Y-75228301D02*
X125817000Y-73006500D01*
X124305498Y-78712586D02*
X124305498Y-77460415D01*
X124425000Y-78832087D02*
X124305498Y-78712586D01*
X125506911Y-76006417D02*
X125521211Y-75992117D01*
X118099999Y-100480001D02*
X118099999Y-89356801D01*
%TO.N,/ADC_MON_VCOM*%
X102650000Y-91275000D02*
X102650000Y-92650000D01*
X120305200Y-73006500D02*
X120305200Y-76044800D01*
X102650000Y-92650000D02*
X101525000Y-93775000D01*
X99675000Y-93475000D02*
X99675000Y-91237500D01*
X108225000Y-90475000D02*
X103450000Y-90475000D01*
X118875000Y-79825000D02*
X108225000Y-90475000D01*
X99975000Y-93775000D02*
X99675000Y-93475000D01*
X101525000Y-93775000D02*
X99975000Y-93775000D01*
X118875000Y-77475000D02*
X118875000Y-79825000D01*
X120305200Y-76044800D02*
X118875000Y-77475000D01*
X103450000Y-90475000D02*
X102650000Y-91275000D01*
X99675000Y-91237500D02*
X101035000Y-89877500D01*
%TO.N,/ADC_MON_VIN_N*%
X117536600Y-75793400D02*
X116010000Y-77320000D01*
X117536600Y-73006500D02*
X117536600Y-75793400D01*
X116010000Y-80971800D02*
X109644300Y-87337500D01*
X109644300Y-87337500D02*
X101035000Y-87337500D01*
X116010000Y-77320000D02*
X116010000Y-80971800D01*
%TD*%
M02*
