%TF.GenerationSoftware,KiCad,Pcbnew,(6.0.4-0)*%
%TF.CreationDate,2023-07-13T10:21:46-07:00*%
%TF.ProjectId,CableAdapterBoard,4361626c-6541-4646-9170-746572426f61,rev?*%
%TF.SameCoordinates,Original*%
%TF.FileFunction,Copper,L5,Inr*%
%TF.FilePolarity,Positive*%
%FSLAX46Y46*%
G04 Gerber Fmt 4.6, Leading zero omitted, Abs format (unit mm)*
G04 Created by KiCad (PCBNEW (6.0.4-0)) date 2023-07-13 10:21:46*
%MOMM*%
%LPD*%
G01*
G04 APERTURE LIST*
G04 Aperture macros list*
%AMRoundRect*
0 Rectangle with rounded corners*
0 $1 Rounding radius*
0 $2 $3 $4 $5 $6 $7 $8 $9 X,Y pos of 4 corners*
0 Add a 4 corners polygon primitive as box body*
4,1,4,$2,$3,$4,$5,$6,$7,$8,$9,$2,$3,0*
0 Add four circle primitives for the rounded corners*
1,1,$1+$1,$2,$3*
1,1,$1+$1,$4,$5*
1,1,$1+$1,$6,$7*
1,1,$1+$1,$8,$9*
0 Add four rect primitives between the rounded corners*
20,1,$1+$1,$2,$3,$4,$5,0*
20,1,$1+$1,$4,$5,$6,$7,0*
20,1,$1+$1,$6,$7,$8,$9,0*
20,1,$1+$1,$8,$9,$2,$3,0*%
G04 Aperture macros list end*
%TA.AperFunction,ComponentPad*%
%ADD10R,1.700000X1.700000*%
%TD*%
%TA.AperFunction,ComponentPad*%
%ADD11O,1.700000X1.700000*%
%TD*%
%TA.AperFunction,ComponentPad*%
%ADD12C,1.308000*%
%TD*%
%TA.AperFunction,ComponentPad*%
%ADD13R,1.530000X1.530000*%
%TD*%
%TA.AperFunction,ComponentPad*%
%ADD14C,1.530000*%
%TD*%
%TA.AperFunction,ComponentPad*%
%ADD15RoundRect,0.650000X-0.650000X0.650000X-0.650000X-0.650000X0.650000X-0.650000X0.650000X0.650000X0*%
%TD*%
%TA.AperFunction,ComponentPad*%
%ADD16C,2.600000*%
%TD*%
%TA.AperFunction,ComponentPad*%
%ADD17C,1.524000*%
%TD*%
%TA.AperFunction,ComponentPad*%
%ADD18C,5.080000*%
%TD*%
%TA.AperFunction,ViaPad*%
%ADD19C,0.800000*%
%TD*%
%TA.AperFunction,ViaPad*%
%ADD20C,0.520700*%
%TD*%
%TA.AperFunction,Conductor*%
%ADD21C,0.228600*%
%TD*%
G04 APERTURE END LIST*
D10*
%TO.N,DGND*%
%TO.C,JP1*%
X103610000Y-82200000D03*
D11*
%TO.N,/d-sub-shield*%
X101070000Y-82200000D03*
%TO.N,AGND*%
X98530000Y-82200000D03*
%TD*%
D12*
%TO.N,DGND*%
%TO.C,J21*%
X158425000Y-105040000D03*
X158425000Y-101800000D03*
X158425000Y-97800000D03*
X158425000Y-95770000D03*
X140625000Y-95770000D03*
X140625000Y-97800000D03*
X140625000Y-101800000D03*
X140625000Y-106040000D03*
%TD*%
D13*
%TO.N,AGND*%
%TO.C,J2*%
X169595000Y-108422500D03*
D14*
%TO.N,unconnected-(J2-Pad02)*%
X169595000Y-105882500D03*
%TO.N,unconnected-(J2-Pad03)*%
X169595000Y-103342500D03*
%TO.N,unconnected-(J2-Pad04)*%
X169595000Y-100802500D03*
%TO.N,AGND*%
X169595000Y-98262500D03*
%TO.N,unconnected-(J2-Pad06)*%
X172135000Y-108422500D03*
%TO.N,unconnected-(J2-Pad07)*%
X172135000Y-105882500D03*
%TO.N,unconnected-(J2-Pad08)*%
X172135000Y-103342500D03*
%TO.N,/VDD2_Sense*%
X172135000Y-100802500D03*
%TO.N,/VDD1_Sense*%
X172135000Y-98262500D03*
%TD*%
D15*
%TO.N,DGND*%
%TO.C,TP4*%
X179600000Y-106220000D03*
D16*
%TO.N,/VDD2_Sense*%
X179600000Y-111300000D03*
%TD*%
D13*
%TO.N,AGND*%
%TO.C,J3*%
X98495000Y-97497500D03*
D14*
X98495000Y-94957500D03*
X98495000Y-92417500D03*
X98495000Y-89877500D03*
X98495000Y-87337500D03*
%TO.N,/HS_Vdiff*%
X101035000Y-97497500D03*
%TO.N,unconnected-(J3-Pad07)*%
X101035000Y-94957500D03*
%TO.N,/ADC_MON_VIN_P*%
X101035000Y-92417500D03*
%TO.N,/ADC_MON_VCOM*%
X101035000Y-89877500D03*
%TO.N,/ADC_MON_VIN_N*%
X101035000Y-87337500D03*
%TD*%
D15*
%TO.N,AGND*%
%TO.C,TP2*%
X179720000Y-84890000D03*
D16*
%TO.N,/VDD1*%
X179720000Y-89970000D03*
%TD*%
D15*
%TO.N,DGND*%
%TO.C,TP3*%
X179770000Y-74100000D03*
D16*
%TO.N,/VDD2*%
X179770000Y-79180000D03*
%TD*%
D12*
%TO.N,DGND*%
%TO.C,J31*%
X130225000Y-104990000D03*
X130225000Y-101750000D03*
X130225000Y-97750000D03*
X130225000Y-95720000D03*
X112425000Y-95720000D03*
X112425000Y-97750000D03*
X112425000Y-101750000D03*
X112425000Y-105990000D03*
%TD*%
D13*
%TO.N,AGND*%
%TO.C,J1*%
X172595000Y-83665000D03*
D14*
X172595000Y-86205000D03*
X172595000Y-88745000D03*
X172595000Y-91285000D03*
%TO.N,/VDD2*%
X170055000Y-83665000D03*
X170055000Y-86205000D03*
%TO.N,/VDD1*%
X170055000Y-88745000D03*
X170055000Y-91285000D03*
%TD*%
D17*
%TO.N,DGND*%
%TO.C,DSUB1*%
X158938600Y-78086500D03*
%TO.N,/RD_CLK_P*%
X156195400Y-78086500D03*
%TO.N,DGND*%
X153426800Y-78086500D03*
%TO.N,/DATA_OUT_1_P*%
X150658200Y-78086500D03*
%TO.N,DGND*%
X147915000Y-78086500D03*
%TO.N,/DATA_OUT_0_P*%
X145146400Y-78086500D03*
%TO.N,DGND*%
X142377800Y-78086500D03*
%TO.N,/ASIC_SR0_P*%
X139634600Y-78086500D03*
%TO.N,DGND*%
X136866000Y-78086500D03*
%TO.N,/WORD_CLK_0_N*%
X134097400Y-78086500D03*
%TO.N,/WORD_CLK_0_P*%
X131354200Y-78086500D03*
%TO.N,DGND*%
X128585600Y-78086500D03*
%TO.N,AGND*%
X125817000Y-78086500D03*
%TO.N,/HS_Vdiff*%
X123073800Y-78086500D03*
%TO.N,/VDD1*%
X120305200Y-78086500D03*
X117536600Y-78086500D03*
%TO.N,AGND*%
X114793400Y-78086500D03*
%TO.N,/VDD2*%
X157567000Y-75546500D03*
%TO.N,/RD_CLK_N*%
X154798400Y-75546500D03*
%TO.N,DGND*%
X152055200Y-75546500D03*
%TO.N,/DATA_OUT_1_N*%
X149286600Y-75546500D03*
%TO.N,DGND*%
X146518000Y-75546500D03*
%TO.N,/DATA_OUT_0_N*%
X143749400Y-75546500D03*
%TO.N,/ASIC_GR*%
X141006200Y-75546500D03*
%TO.N,/ASIC_SR0_N*%
X138237600Y-75546500D03*
%TO.N,DGND*%
X135469000Y-75546500D03*
%TO.N,/SACI_CMD_P*%
X132725800Y-75546500D03*
%TO.N,DGND*%
X129957200Y-75546500D03*
%TO.N,/SACI_CLK_P*%
X127188600Y-75546500D03*
%TO.N,/ASIC_SACI_SEL*%
X124445400Y-75546500D03*
%TO.N,AGND*%
X121676800Y-75546500D03*
%TO.N,/ADC_MON_VIN_P*%
X118908200Y-75546500D03*
%TO.N,AGND*%
X116165000Y-75546500D03*
%TO.N,/VDD2*%
X158938600Y-73006500D03*
%TO.N,/ASIC_SampClkEn_P*%
X156195400Y-73006500D03*
%TO.N,/ASIC_SampClkEn_N*%
X153426800Y-73006500D03*
%TO.N,/VDD2_Sense*%
X150658200Y-73006500D03*
%TO.N,DGND*%
X147915000Y-73006500D03*
%TO.N,/SACI_RESP_P*%
X145146400Y-73006500D03*
%TO.N,/SACI_RESP_N*%
X142377800Y-73006500D03*
%TO.N,DGND*%
X139634600Y-73006500D03*
X136866000Y-73006500D03*
%TO.N,/ASIC_PULSE*%
X134097400Y-73006500D03*
%TO.N,/SACI_CMD_N*%
X131354200Y-73006500D03*
%TO.N,DGND*%
X128585600Y-73006500D03*
%TO.N,/SACI_CLK_N*%
X125817000Y-73006500D03*
%TO.N,AGND*%
X123073800Y-73006500D03*
%TO.N,/ADC_MON_VCOM*%
X120305200Y-73006500D03*
%TO.N,/ADC_MON_VIN_N*%
X117536600Y-73006500D03*
%TO.N,/VDD1_Sense*%
X114793400Y-73006500D03*
D18*
%TO.N,/d-sub-shield*%
X106309800Y-75546500D03*
X167422200Y-75546500D03*
%TD*%
D15*
%TO.N,AGND*%
%TO.C,TP1*%
X179670000Y-95630000D03*
D16*
%TO.N,/VDD1_Sense*%
X179670000Y-100710000D03*
%TD*%
D19*
%TO.N,DGND*%
X119840000Y-99900000D03*
X147920000Y-87730000D03*
X162420000Y-95360000D03*
X145980000Y-99900000D03*
X110800000Y-83560000D03*
X125520000Y-87840000D03*
X114000000Y-90600000D03*
X128610000Y-82720000D03*
X140580000Y-86820000D03*
X125910000Y-80150000D03*
X140580000Y-91140000D03*
X117200000Y-87460000D03*
X124520000Y-108170000D03*
X147920000Y-82770000D03*
X154610000Y-108190000D03*
X120390000Y-84110000D03*
X153170000Y-99890000D03*
X122320000Y-99900000D03*
X149560000Y-99890000D03*
X151260000Y-99890000D03*
X147840000Y-99890000D03*
D20*
%TO.N,/RD_CLK_P*%
X144760000Y-100620000D03*
%TO.N,/DATA_OUT_1_P*%
X155510001Y-94499989D03*
%TO.N,/DATA_OUT_0_P*%
X155970000Y-100620000D03*
%TO.N,/ASIC_SR0_P*%
X116480006Y-100819991D03*
%TO.N,/WORD_CLK_0_N*%
X145999987Y-104999993D03*
X133746240Y-86753776D03*
X135239430Y-88246966D03*
%TO.N,/WORD_CLK_0_P*%
X147049998Y-104999993D03*
X134496962Y-88989433D03*
X133003773Y-87496244D03*
D19*
%TO.N,AGND*%
X167390000Y-94890000D03*
X154600000Y-110660000D03*
X106540000Y-85610000D03*
X124450000Y-111020000D03*
D20*
%TO.N,/RD_CLK_N*%
X143460000Y-100630000D03*
%TO.N,/DATA_OUT_1_N*%
X154359991Y-94499989D03*
%TO.N,/DATA_OUT_0_N*%
X154700000Y-100620000D03*
%TO.N,/ASIC_SR0_N*%
X115380008Y-100819991D03*
%TO.N,/SACI_CMD_P*%
X125270006Y-100740007D03*
%TO.N,/SACI_CLK_P*%
X118869993Y-100800002D03*
D19*
%TO.N,/ASIC_SACI_SEL*%
X127125000Y-92925000D03*
D20*
%TO.N,/ASIC_SampClkEn_P*%
X124060001Y-93590008D03*
%TO.N,/ASIC_SampClkEn_N*%
X123820000Y-94620000D03*
%TO.N,/SACI_RESP_P*%
X127650011Y-100670004D03*
%TO.N,/SACI_RESP_N*%
X126629998Y-100670004D03*
%TO.N,/SACI_CMD_N*%
X124170000Y-100730000D03*
%TO.N,/SACI_CLK_N*%
X117780003Y-100800002D03*
%TD*%
D21*
%TO.N,/RD_CLK_P*%
X144760000Y-100620000D02*
X144350001Y-100210001D01*
X144350001Y-100210001D02*
X144350001Y-99443199D01*
X144350001Y-99443199D02*
X155248401Y-88544799D01*
X155248401Y-79033499D02*
X156195400Y-78086500D01*
X155248401Y-88544799D02*
X155248401Y-79033499D01*
%TO.N,/ASIC_SR0_P*%
X138687601Y-82155599D02*
X138687601Y-79033499D01*
X116150001Y-95368199D02*
X126593200Y-84925000D01*
X116150001Y-100490001D02*
X116150001Y-95368199D01*
X126593200Y-84925000D02*
X135918200Y-84925000D01*
X116480000Y-100820000D02*
X116150001Y-100490001D01*
X138687601Y-79033499D02*
X139634600Y-78086500D01*
X135918200Y-84925000D02*
X138687601Y-82155599D01*
%TO.N,/WORD_CLK_0_N*%
X134815165Y-88246968D02*
X135239430Y-88246968D01*
X133746240Y-87178045D02*
X134815165Y-88246968D01*
X133746240Y-86753776D02*
X133746240Y-87178045D01*
%TO.N,/WORD_CLK_0_P*%
X133428041Y-87496244D02*
X134496966Y-88565167D01*
X133003773Y-87496244D02*
X133428041Y-87496244D01*
X134496966Y-88565167D02*
X134496966Y-88989432D01*
%TO.N,/RD_CLK_N*%
X143460000Y-100630000D02*
X143460000Y-99696800D01*
X154798400Y-88358400D02*
X154798400Y-75546500D01*
X143460000Y-99696800D02*
X154798400Y-88358400D01*
%TO.N,/ASIC_SR0_N*%
X126406800Y-84475000D02*
X135731800Y-84475000D01*
X115699999Y-100500001D02*
X115699999Y-95181801D01*
X115699999Y-95181801D02*
X126406800Y-84475000D01*
X135731800Y-84475000D02*
X138237600Y-81969200D01*
X138237600Y-81969200D02*
X138237600Y-75546500D01*
X115380000Y-100820000D02*
X115699999Y-100500001D01*
%TO.N,/ASIC_SampClkEn_P*%
X147746880Y-74862672D02*
X147997667Y-74611886D01*
X146271880Y-78484920D02*
X146271880Y-77622963D01*
X146275000Y-77588913D02*
X147746880Y-76117033D01*
X147997667Y-74611886D02*
X148996400Y-73613152D01*
X148996400Y-73613152D02*
X148996400Y-72073146D01*
X124341880Y-93871880D02*
X130884920Y-93871880D01*
X150772667Y-70296880D02*
X153327333Y-70296880D01*
X148996400Y-72073146D02*
X149247187Y-71822360D01*
X153327333Y-70296880D02*
X153355453Y-70325000D01*
X124060000Y-93590000D02*
X124341880Y-93871880D01*
X153513900Y-70325000D02*
X156195400Y-73006500D01*
X149247187Y-71822360D02*
X150772667Y-70296880D01*
X130884920Y-93871880D02*
X146271880Y-78484920D01*
X146271880Y-77622963D02*
X146275000Y-77619843D01*
X153355453Y-70325000D02*
X153513900Y-70325000D01*
X147746880Y-76117033D02*
X147746880Y-74862672D01*
X146275000Y-77619843D02*
X146275000Y-77588913D01*
%TO.N,/ASIC_SampClkEn_N*%
X153150000Y-70725000D02*
X150950000Y-70725000D01*
X146839189Y-77661107D02*
X146700000Y-77800296D01*
X150950000Y-70725000D02*
X149424520Y-72250480D01*
X153426800Y-73006500D02*
X153426800Y-71001800D01*
X147489607Y-77010689D02*
X147469383Y-77010689D01*
X149424520Y-73790486D02*
X148175000Y-75040006D01*
X147469383Y-77010689D02*
X146839189Y-77640883D01*
X149424520Y-72250480D02*
X149424520Y-73790486D01*
X131093200Y-94300000D02*
X124140000Y-94300000D01*
X124140000Y-94300000D02*
X123820000Y-94620000D01*
X153426800Y-71001800D02*
X153150000Y-70725000D01*
X146700000Y-77800296D02*
X146700000Y-78693200D01*
X146839189Y-77640883D02*
X146839189Y-77661107D01*
X148175000Y-75040006D02*
X148175000Y-76325296D01*
X146700000Y-78693200D02*
X131093200Y-94300000D01*
X148175000Y-76325296D02*
X147489607Y-77010689D01*
%TD*%
M02*
